%TF.GenerationSoftware,KiCad,Pcbnew,4.0.1-stable*%
%TF.CreationDate,2016-04-25T17:13:02+03:00*%
%TF.ProjectId,6xUSB_PowMet,36785553425F506F774D65742E6B6963,rev?*%
%TF.FileFunction,Soldermask,Bot*%
%FSLAX46Y46*%
G04 Gerber Fmt 4.6, Leading zero omitted, Abs format (unit mm)*
G04 Created by KiCad (PCBNEW 4.0.1-stable) date 25.04.2016 17:13:02*
%MOMM*%
G01*
G04 APERTURE LIST*
%ADD10C,0.100000*%
%ADD11C,2.020000*%
%ADD12C,2.250000*%
%ADD13C,2.398980*%
%ADD14R,2.400000X2.400000*%
%ADD15C,2.400000*%
%ADD16R,3.900120X3.900120*%
G04 APERTURE END LIST*
D10*
D11*
X110560000Y-75975000D03*
X110560000Y-77975000D03*
X110560000Y-79975000D03*
D12*
X113280000Y-75245000D03*
D11*
X110560000Y-81975000D03*
D12*
X113280000Y-82245000D03*
X107840000Y-75245000D03*
X107840000Y-82245000D03*
D11*
X133420000Y-75975000D03*
X133420000Y-77975000D03*
X133420000Y-79975000D03*
D12*
X136140000Y-75245000D03*
D11*
X133420000Y-81975000D03*
D12*
X136140000Y-82245000D03*
X130700000Y-75245000D03*
X130700000Y-82245000D03*
D13*
X161650000Y-98825000D03*
X176650000Y-98825000D03*
D11*
X156280000Y-75975000D03*
X156280000Y-77975000D03*
X156280000Y-79975000D03*
D12*
X159000000Y-75245000D03*
D11*
X156280000Y-81975000D03*
D12*
X159000000Y-82245000D03*
X153560000Y-75245000D03*
X153560000Y-82245000D03*
D11*
X121990000Y-75975000D03*
X121990000Y-77975000D03*
X121990000Y-79975000D03*
D12*
X124710000Y-75245000D03*
D11*
X121990000Y-81975000D03*
D12*
X124710000Y-82245000D03*
X119270000Y-75245000D03*
X119270000Y-82245000D03*
D11*
X167710000Y-75975000D03*
X167710000Y-77975000D03*
X167710000Y-79975000D03*
D12*
X170430000Y-75245000D03*
D11*
X167710000Y-81975000D03*
D12*
X170430000Y-82245000D03*
X164990000Y-75245000D03*
X164990000Y-82245000D03*
D11*
X144850000Y-75975000D03*
X144850000Y-77975000D03*
X144850000Y-79975000D03*
D12*
X147570000Y-75245000D03*
D11*
X144850000Y-81975000D03*
D12*
X147570000Y-82245000D03*
X142130000Y-75245000D03*
X142130000Y-82245000D03*
D14*
X150650000Y-126750000D03*
D15*
X153163000Y-126750000D03*
X155663000Y-126750000D03*
X158163000Y-126750000D03*
X160663000Y-126750000D03*
X163163000Y-126750000D03*
X165663000Y-126750000D03*
X168163000Y-126750000D03*
D14*
X175900000Y-127750000D03*
D15*
X175900000Y-125210000D03*
X175900000Y-122710000D03*
D16*
X115400140Y-107950000D03*
X109400660Y-107950000D03*
X112400400Y-112649000D03*
M02*
