%TF.GenerationSoftware,KiCad,Pcbnew,4.0.1-stable*%
%TF.CreationDate,2016-04-25T17:13:02+03:00*%
%TF.ProjectId,6xUSB_PowMet,36785553425F506F774D65742E6B6963,rev?*%
%TF.FileFunction,Other,User*%
%FSLAX46Y46*%
G04 Gerber Fmt 4.6, Leading zero omitted, Abs format (unit mm)*
G04 Created by KiCad (PCBNEW 4.0.1-stable) date 25.04.2016 17:13:02*
%MOMM*%
G01*
G04 APERTURE LIST*
%ADD10C,0.100000*%
%ADD11C,0.050000*%
G04 APERTURE END LIST*
D10*
D11*
X114460000Y-63225000D02*
X114460000Y-83525000D01*
X114460000Y-83525000D02*
X106660000Y-83525000D01*
X106660000Y-83525000D02*
X106660000Y-63225000D01*
X106660000Y-63225000D02*
X114460000Y-63225000D01*
X137320000Y-63225000D02*
X137320000Y-83525000D01*
X137320000Y-83525000D02*
X129520000Y-83525000D01*
X129520000Y-83525000D02*
X129520000Y-63225000D01*
X129520000Y-63225000D02*
X137320000Y-63225000D01*
X111300000Y-83865000D02*
X114900000Y-83865000D01*
X111300000Y-85865000D02*
X114900000Y-85865000D01*
X111300000Y-83865000D02*
X111300000Y-85865000D01*
X114900000Y-83865000D02*
X114900000Y-85865000D01*
X134400000Y-91750000D02*
X134400000Y-95350000D01*
X132400000Y-91750000D02*
X132400000Y-95350000D01*
X134400000Y-91750000D02*
X132400000Y-91750000D01*
X134400000Y-95350000D02*
X132400000Y-95350000D01*
X159075000Y-91525000D02*
X159075000Y-95125000D01*
X157075000Y-91525000D02*
X157075000Y-95125000D01*
X159075000Y-91525000D02*
X157075000Y-91525000D01*
X159075000Y-95125000D02*
X157075000Y-95125000D01*
X110950000Y-91975000D02*
X110950000Y-95575000D01*
X108950000Y-91975000D02*
X108950000Y-95575000D01*
X110950000Y-91975000D02*
X108950000Y-91975000D01*
X110950000Y-95575000D02*
X108950000Y-95575000D01*
X170425000Y-109925000D02*
X174025000Y-109925000D01*
X170425000Y-111925000D02*
X174025000Y-111925000D01*
X170425000Y-109925000D02*
X170425000Y-111925000D01*
X174025000Y-109925000D02*
X174025000Y-111925000D01*
X167200000Y-105975000D02*
X167200000Y-102375000D01*
X169200000Y-105975000D02*
X169200000Y-102375000D01*
X167200000Y-105975000D02*
X169200000Y-105975000D01*
X167200000Y-102375000D02*
X169200000Y-102375000D01*
X146775000Y-112100000D02*
X146775000Y-108500000D01*
X148775000Y-112100000D02*
X148775000Y-108500000D01*
X146775000Y-112100000D02*
X148775000Y-112100000D01*
X146775000Y-108500000D02*
X148775000Y-108500000D01*
X172895000Y-92755000D02*
X176495000Y-92755000D01*
X172895000Y-94755000D02*
X176495000Y-94755000D01*
X172895000Y-92755000D02*
X172895000Y-94755000D01*
X176495000Y-92755000D02*
X176495000Y-94755000D01*
X158950000Y-100200000D02*
X162550000Y-100200000D01*
X158950000Y-102200000D02*
X162550000Y-102200000D01*
X158950000Y-100200000D02*
X158950000Y-102200000D01*
X162550000Y-100200000D02*
X162550000Y-102200000D01*
X135430000Y-83865000D02*
X139030000Y-83865000D01*
X135430000Y-85865000D02*
X139030000Y-85865000D01*
X135430000Y-83865000D02*
X135430000Y-85865000D01*
X139030000Y-83865000D02*
X139030000Y-85865000D01*
X158290000Y-83865000D02*
X161890000Y-83865000D01*
X158290000Y-85865000D02*
X161890000Y-85865000D01*
X158290000Y-83865000D02*
X158290000Y-85865000D01*
X161890000Y-83865000D02*
X161890000Y-85865000D01*
X123100000Y-91525000D02*
X123100000Y-95125000D01*
X121100000Y-91525000D02*
X121100000Y-95125000D01*
X123100000Y-91525000D02*
X121100000Y-91525000D01*
X123100000Y-95125000D02*
X121100000Y-95125000D01*
X170050000Y-91250000D02*
X170050000Y-94850000D01*
X168050000Y-91250000D02*
X168050000Y-94850000D01*
X170050000Y-91250000D02*
X168050000Y-91250000D01*
X170050000Y-94850000D02*
X168050000Y-94850000D01*
X145675000Y-91625000D02*
X145675000Y-95225000D01*
X143675000Y-91625000D02*
X143675000Y-95225000D01*
X145675000Y-91625000D02*
X143675000Y-91625000D01*
X145675000Y-95225000D02*
X143675000Y-95225000D01*
X124000000Y-83865000D02*
X127600000Y-83865000D01*
X124000000Y-85865000D02*
X127600000Y-85865000D01*
X124000000Y-83865000D02*
X124000000Y-85865000D01*
X127600000Y-83865000D02*
X127600000Y-85865000D01*
X169085000Y-83865000D02*
X172685000Y-83865000D01*
X169085000Y-85865000D02*
X172685000Y-85865000D01*
X169085000Y-83865000D02*
X169085000Y-85865000D01*
X172685000Y-83865000D02*
X172685000Y-85865000D01*
X146860000Y-83865000D02*
X150460000Y-83865000D01*
X146860000Y-85865000D02*
X150460000Y-85865000D01*
X146860000Y-83865000D02*
X146860000Y-85865000D01*
X150460000Y-83865000D02*
X150460000Y-85865000D01*
X152120000Y-118235000D02*
X165520000Y-118235000D01*
X152120000Y-104835000D02*
X165520000Y-104835000D01*
X152120000Y-118235000D02*
X152120000Y-104835000D01*
X165520000Y-118235000D02*
X165520000Y-104835000D01*
X160400000Y-100325000D02*
X160400000Y-97325000D01*
X160400000Y-97325000D02*
X177900000Y-97325000D01*
X177900000Y-97325000D02*
X177900000Y-100325000D01*
X177900000Y-100325000D02*
X160400000Y-100325000D01*
X114950000Y-87225000D02*
X114950000Y-90425000D01*
X112950000Y-87225000D02*
X112950000Y-90425000D01*
X114950000Y-87225000D02*
X112950000Y-87225000D01*
X114950000Y-90425000D02*
X112950000Y-90425000D01*
X106420000Y-83865000D02*
X109620000Y-83865000D01*
X106420000Y-85865000D02*
X109620000Y-85865000D01*
X106420000Y-83865000D02*
X106420000Y-85865000D01*
X109620000Y-83865000D02*
X109620000Y-85865000D01*
X108375000Y-92150000D02*
X108375000Y-95350000D01*
X106375000Y-92150000D02*
X106375000Y-95350000D01*
X108375000Y-92150000D02*
X106375000Y-92150000D01*
X108375000Y-95350000D02*
X106375000Y-95350000D01*
X144625000Y-111850000D02*
X144625000Y-108650000D01*
X146625000Y-111850000D02*
X146625000Y-108650000D01*
X144625000Y-111850000D02*
X146625000Y-111850000D01*
X144625000Y-108650000D02*
X146625000Y-108650000D01*
X148930000Y-111865000D02*
X148930000Y-108665000D01*
X150930000Y-111865000D02*
X150930000Y-108665000D01*
X148930000Y-111865000D02*
X150930000Y-111865000D01*
X148930000Y-108665000D02*
X150930000Y-108665000D01*
X160025000Y-121750000D02*
X156825000Y-121750000D01*
X160025000Y-119750000D02*
X156825000Y-119750000D01*
X160025000Y-121750000D02*
X160025000Y-119750000D01*
X156825000Y-121750000D02*
X156825000Y-119750000D01*
X132000000Y-91975000D02*
X132000000Y-95175000D01*
X130000000Y-91975000D02*
X130000000Y-95175000D01*
X132000000Y-91975000D02*
X130000000Y-91975000D01*
X132000000Y-95175000D02*
X130000000Y-95175000D01*
X156350000Y-91600000D02*
X156350000Y-94800000D01*
X154350000Y-91600000D02*
X154350000Y-94800000D01*
X156350000Y-91600000D02*
X154350000Y-91600000D01*
X156350000Y-94800000D02*
X154350000Y-94800000D01*
X139050000Y-86975000D02*
X139050000Y-90175000D01*
X137050000Y-86975000D02*
X137050000Y-90175000D01*
X139050000Y-86975000D02*
X137050000Y-86975000D01*
X139050000Y-90175000D02*
X137050000Y-90175000D01*
X161500000Y-87075000D02*
X161500000Y-90275000D01*
X159500000Y-87075000D02*
X159500000Y-90275000D01*
X161500000Y-87075000D02*
X159500000Y-87075000D01*
X161500000Y-90275000D02*
X159500000Y-90275000D01*
X130550000Y-83865000D02*
X133750000Y-83865000D01*
X130550000Y-85865000D02*
X133750000Y-85865000D01*
X130550000Y-83865000D02*
X130550000Y-85865000D01*
X133750000Y-83865000D02*
X133750000Y-85865000D01*
X153410000Y-83865000D02*
X156610000Y-83865000D01*
X153410000Y-85865000D02*
X156610000Y-85865000D01*
X153410000Y-83865000D02*
X153410000Y-85865000D01*
X156610000Y-83865000D02*
X156610000Y-85865000D01*
X120700000Y-91775000D02*
X120700000Y-94975000D01*
X118700000Y-91775000D02*
X118700000Y-94975000D01*
X120700000Y-91775000D02*
X118700000Y-91775000D01*
X120700000Y-94975000D02*
X118700000Y-94975000D01*
X167500000Y-91500000D02*
X167500000Y-94700000D01*
X165500000Y-91500000D02*
X165500000Y-94700000D01*
X167500000Y-91500000D02*
X165500000Y-91500000D01*
X167500000Y-94700000D02*
X165500000Y-94700000D01*
X143250000Y-91775000D02*
X143250000Y-94975000D01*
X141250000Y-91775000D02*
X141250000Y-94975000D01*
X143250000Y-91775000D02*
X141250000Y-91775000D01*
X143250000Y-94975000D02*
X141250000Y-94975000D01*
X127650000Y-87075000D02*
X127650000Y-90275000D01*
X125650000Y-87075000D02*
X125650000Y-90275000D01*
X127650000Y-87075000D02*
X125650000Y-87075000D01*
X127650000Y-90275000D02*
X125650000Y-90275000D01*
X172400000Y-87175000D02*
X172400000Y-90375000D01*
X170400000Y-87175000D02*
X170400000Y-90375000D01*
X172400000Y-87175000D02*
X170400000Y-87175000D01*
X172400000Y-90375000D02*
X170400000Y-90375000D01*
X119120000Y-83865000D02*
X122320000Y-83865000D01*
X119120000Y-85865000D02*
X122320000Y-85865000D01*
X119120000Y-83865000D02*
X119120000Y-85865000D01*
X122320000Y-83865000D02*
X122320000Y-85865000D01*
X150500000Y-87025000D02*
X150500000Y-90225000D01*
X148500000Y-87025000D02*
X148500000Y-90225000D01*
X150500000Y-87025000D02*
X148500000Y-87025000D01*
X150500000Y-90225000D02*
X148500000Y-90225000D01*
X164205000Y-83865000D02*
X167405000Y-83865000D01*
X164205000Y-85865000D02*
X167405000Y-85865000D01*
X164205000Y-83865000D02*
X164205000Y-85865000D01*
X167405000Y-83865000D02*
X167405000Y-85865000D01*
X141980000Y-83865000D02*
X145180000Y-83865000D01*
X141980000Y-85865000D02*
X145180000Y-85865000D01*
X141980000Y-83865000D02*
X141980000Y-85865000D01*
X145180000Y-83865000D02*
X145180000Y-85865000D01*
X106400000Y-90475000D02*
X106400000Y-86875000D01*
X106400000Y-86875000D02*
X109600000Y-86875000D01*
X109600000Y-86875000D02*
X109600000Y-90475000D01*
X109600000Y-90475000D02*
X106400000Y-90475000D01*
X119100000Y-90475000D02*
X119100000Y-86875000D01*
X119100000Y-86875000D02*
X122300000Y-86875000D01*
X122300000Y-86875000D02*
X122300000Y-90475000D01*
X122300000Y-90475000D02*
X119100000Y-90475000D01*
X130550000Y-90475000D02*
X130550000Y-86875000D01*
X130550000Y-86875000D02*
X133750000Y-86875000D01*
X133750000Y-86875000D02*
X133750000Y-90475000D01*
X133750000Y-90475000D02*
X130550000Y-90475000D01*
X142000000Y-90475000D02*
X142000000Y-86875000D01*
X142000000Y-86875000D02*
X145200000Y-86875000D01*
X145200000Y-86875000D02*
X145200000Y-90475000D01*
X145200000Y-90475000D02*
X142000000Y-90475000D01*
X153450000Y-90375000D02*
X153450000Y-86775000D01*
X153450000Y-86775000D02*
X156650000Y-86775000D01*
X156650000Y-86775000D02*
X156650000Y-90375000D01*
X156650000Y-90375000D02*
X153450000Y-90375000D01*
X164200000Y-90475000D02*
X164200000Y-86875000D01*
X164200000Y-86875000D02*
X167400000Y-86875000D01*
X167400000Y-86875000D02*
X167400000Y-90475000D01*
X167400000Y-90475000D02*
X164200000Y-90475000D01*
X160180000Y-63225000D02*
X160180000Y-83525000D01*
X160180000Y-83525000D02*
X152380000Y-83525000D01*
X152380000Y-83525000D02*
X152380000Y-63225000D01*
X152380000Y-63225000D02*
X160180000Y-63225000D01*
X125890000Y-63225000D02*
X125890000Y-83525000D01*
X125890000Y-83525000D02*
X118090000Y-83525000D01*
X118090000Y-83525000D02*
X118090000Y-63225000D01*
X118090000Y-63225000D02*
X125890000Y-63225000D01*
X171610000Y-63225000D02*
X171610000Y-83525000D01*
X171610000Y-83525000D02*
X163810000Y-83525000D01*
X163810000Y-83525000D02*
X163810000Y-63225000D01*
X163810000Y-63225000D02*
X171610000Y-63225000D01*
X148750000Y-63225000D02*
X148750000Y-83525000D01*
X148750000Y-83525000D02*
X140950000Y-83525000D01*
X140950000Y-83525000D02*
X140950000Y-63225000D01*
X140950000Y-63225000D02*
X148750000Y-63225000D01*
X147900000Y-124000000D02*
X170950000Y-124000000D01*
X170950000Y-124000000D02*
X170950000Y-130550000D01*
X170950000Y-130550000D02*
X147900000Y-130550000D01*
X147900000Y-130550000D02*
X147900000Y-124000000D01*
X173150000Y-130500000D02*
X173150000Y-119900000D01*
X173150000Y-119900000D02*
X179700000Y-119900000D01*
X179700000Y-119900000D02*
X179700000Y-130500000D01*
X179700000Y-130500000D02*
X173150000Y-130500000D01*
M02*
