%TF.GenerationSoftware,KiCad,Pcbnew,4.0.1-stable*%
%TF.CreationDate,2016-04-25T17:13:01+03:00*%
%TF.ProjectId,6xUSB_PowMet,36785553425F506F774D65742E6B6963,rev?*%
%TF.FileFunction,Copper,L1,Top,Signal*%
%FSLAX46Y46*%
G04 Gerber Fmt 4.6, Leading zero omitted, Abs format (unit mm)*
G04 Created by KiCad (PCBNEW 4.0.1-stable) date 25.04.2016 17:13:01*
%MOMM*%
G01*
G04 APERTURE LIST*
%ADD10C,0.100000*%
%ADD11C,0.300000*%
%ADD12C,1.620000*%
%ADD13C,1.850000*%
%ADD14R,1.000000X1.250000*%
%ADD15R,1.250000X1.000000*%
%ADD16R,0.550000X1.500000*%
%ADD17R,1.500000X0.550000*%
%ADD18C,1.998980*%
%ADD19R,1.300000X0.700000*%
%ADD20R,0.700000X1.300000*%
%ADD21R,2.032000X3.657600*%
%ADD22R,2.032000X1.016000*%
%ADD23R,0.650000X1.060000*%
%ADD24R,2.000000X2.000000*%
%ADD25C,2.000000*%
%ADD26R,3.500120X3.500120*%
%ADD27C,0.600000*%
%ADD28C,0.500000*%
%ADD29C,0.250000*%
%ADD30C,0.750000*%
G04 APERTURE END LIST*
D10*
D11*
X118875001Y-113253571D02*
X118589287Y-113253571D01*
X118446430Y-113325000D01*
X118375001Y-113396429D01*
X118232144Y-113610714D01*
X118160715Y-113896429D01*
X118160715Y-114467857D01*
X118232144Y-114610714D01*
X118303572Y-114682143D01*
X118446430Y-114753571D01*
X118732144Y-114753571D01*
X118875001Y-114682143D01*
X118946430Y-114610714D01*
X119017858Y-114467857D01*
X119017858Y-114110714D01*
X118946430Y-113967857D01*
X118875001Y-113896429D01*
X118732144Y-113825000D01*
X118446430Y-113825000D01*
X118303572Y-113896429D01*
X118232144Y-113967857D01*
X118160715Y-114110714D01*
X120803572Y-113753571D02*
X120803572Y-115253571D01*
X120803572Y-113825000D02*
X120946429Y-113753571D01*
X121232143Y-113753571D01*
X121375000Y-113825000D01*
X121446429Y-113896429D01*
X121517858Y-114039286D01*
X121517858Y-114467857D01*
X121446429Y-114610714D01*
X121375000Y-114682143D01*
X121232143Y-114753571D01*
X120946429Y-114753571D01*
X120803572Y-114682143D01*
X122375001Y-114753571D02*
X122232143Y-114682143D01*
X122160715Y-114610714D01*
X122089286Y-114467857D01*
X122089286Y-114039286D01*
X122160715Y-113896429D01*
X122232143Y-113825000D01*
X122375001Y-113753571D01*
X122589286Y-113753571D01*
X122732143Y-113825000D01*
X122803572Y-113896429D01*
X122875001Y-114039286D01*
X122875001Y-114467857D01*
X122803572Y-114610714D01*
X122732143Y-114682143D01*
X122589286Y-114753571D01*
X122375001Y-114753571D01*
X123517858Y-114753571D02*
X123517858Y-113753571D01*
X123517858Y-114039286D02*
X123589286Y-113896429D01*
X123660715Y-113825000D01*
X123803572Y-113753571D01*
X123946429Y-113753571D01*
X124232143Y-113753571D02*
X124803572Y-113753571D01*
X124446429Y-113253571D02*
X124446429Y-114539286D01*
X124517857Y-114682143D01*
X124660715Y-114753571D01*
X124803572Y-114753571D01*
X126446429Y-113253571D02*
X126446429Y-114467857D01*
X126517857Y-114610714D01*
X126589286Y-114682143D01*
X126732143Y-114753571D01*
X127017857Y-114753571D01*
X127160715Y-114682143D01*
X127232143Y-114610714D01*
X127303572Y-114467857D01*
X127303572Y-113253571D01*
X127946429Y-114682143D02*
X128160715Y-114753571D01*
X128517858Y-114753571D01*
X128660715Y-114682143D01*
X128732144Y-114610714D01*
X128803572Y-114467857D01*
X128803572Y-114325000D01*
X128732144Y-114182143D01*
X128660715Y-114110714D01*
X128517858Y-114039286D01*
X128232144Y-113967857D01*
X128089286Y-113896429D01*
X128017858Y-113825000D01*
X127946429Y-113682143D01*
X127946429Y-113539286D01*
X128017858Y-113396429D01*
X128089286Y-113325000D01*
X128232144Y-113253571D01*
X128589286Y-113253571D01*
X128803572Y-113325000D01*
X129946429Y-113967857D02*
X130160715Y-114039286D01*
X130232143Y-114110714D01*
X130303572Y-114253571D01*
X130303572Y-114467857D01*
X130232143Y-114610714D01*
X130160715Y-114682143D01*
X130017857Y-114753571D01*
X129446429Y-114753571D01*
X129446429Y-113253571D01*
X129946429Y-113253571D01*
X130089286Y-113325000D01*
X130160715Y-113396429D01*
X130232143Y-113539286D01*
X130232143Y-113682143D01*
X130160715Y-113825000D01*
X130089286Y-113896429D01*
X129946429Y-113967857D01*
X129446429Y-113967857D01*
X132089286Y-114753571D02*
X132089286Y-113253571D01*
X132660714Y-113253571D01*
X132803572Y-113325000D01*
X132875000Y-113396429D01*
X132946429Y-113539286D01*
X132946429Y-113753571D01*
X132875000Y-113896429D01*
X132803572Y-113967857D01*
X132660714Y-114039286D01*
X132089286Y-114039286D01*
X133803572Y-114753571D02*
X133660714Y-114682143D01*
X133589286Y-114610714D01*
X133517857Y-114467857D01*
X133517857Y-114039286D01*
X133589286Y-113896429D01*
X133660714Y-113825000D01*
X133803572Y-113753571D01*
X134017857Y-113753571D01*
X134160714Y-113825000D01*
X134232143Y-113896429D01*
X134303572Y-114039286D01*
X134303572Y-114467857D01*
X134232143Y-114610714D01*
X134160714Y-114682143D01*
X134017857Y-114753571D01*
X133803572Y-114753571D01*
X134803572Y-113753571D02*
X135089286Y-114753571D01*
X135375000Y-114039286D01*
X135660715Y-114753571D01*
X135946429Y-113753571D01*
X137089286Y-114682143D02*
X136946429Y-114753571D01*
X136660715Y-114753571D01*
X136517858Y-114682143D01*
X136446429Y-114539286D01*
X136446429Y-113967857D01*
X136517858Y-113825000D01*
X136660715Y-113753571D01*
X136946429Y-113753571D01*
X137089286Y-113825000D01*
X137160715Y-113967857D01*
X137160715Y-114110714D01*
X136446429Y-114253571D01*
X137803572Y-114753571D02*
X137803572Y-113753571D01*
X137803572Y-114039286D02*
X137875000Y-113896429D01*
X137946429Y-113825000D01*
X138089286Y-113753571D01*
X138232143Y-113753571D01*
X139875000Y-114753571D02*
X139875000Y-113753571D01*
X139875000Y-113896429D02*
X139946428Y-113825000D01*
X140089286Y-113753571D01*
X140303571Y-113753571D01*
X140446428Y-113825000D01*
X140517857Y-113967857D01*
X140517857Y-114753571D01*
X140517857Y-113967857D02*
X140589286Y-113825000D01*
X140732143Y-113753571D01*
X140946428Y-113753571D01*
X141089286Y-113825000D01*
X141160714Y-113967857D01*
X141160714Y-114753571D01*
X142446428Y-114682143D02*
X142303571Y-114753571D01*
X142017857Y-114753571D01*
X141875000Y-114682143D01*
X141803571Y-114539286D01*
X141803571Y-113967857D01*
X141875000Y-113825000D01*
X142017857Y-113753571D01*
X142303571Y-113753571D01*
X142446428Y-113825000D01*
X142517857Y-113967857D01*
X142517857Y-114110714D01*
X141803571Y-114253571D01*
X142946428Y-113753571D02*
X143517857Y-113753571D01*
X143160714Y-113253571D02*
X143160714Y-114539286D01*
X143232142Y-114682143D01*
X143375000Y-114753571D01*
X143517857Y-114753571D01*
X144589285Y-114682143D02*
X144446428Y-114753571D01*
X144160714Y-114753571D01*
X144017857Y-114682143D01*
X143946428Y-114539286D01*
X143946428Y-113967857D01*
X144017857Y-113825000D01*
X144160714Y-113753571D01*
X144446428Y-113753571D01*
X144589285Y-113825000D01*
X144660714Y-113967857D01*
X144660714Y-114110714D01*
X143946428Y-114253571D01*
X145303571Y-114753571D02*
X145303571Y-113753571D01*
X145303571Y-114039286D02*
X145374999Y-113896429D01*
X145446428Y-113825000D01*
X145589285Y-113753571D01*
X145732142Y-113753571D01*
X129732144Y-116153571D02*
X130089287Y-117153571D01*
X130446429Y-116153571D01*
X131803572Y-117153571D02*
X130946429Y-117153571D01*
X131375001Y-117153571D02*
X131375001Y-115653571D01*
X131232144Y-115867857D01*
X131089286Y-116010714D01*
X130946429Y-116082143D01*
X132446429Y-117010714D02*
X132517857Y-117082143D01*
X132446429Y-117153571D01*
X132375000Y-117082143D01*
X132446429Y-117010714D01*
X132446429Y-117153571D01*
X133446429Y-115653571D02*
X133589286Y-115653571D01*
X133732143Y-115725000D01*
X133803572Y-115796429D01*
X133875001Y-115939286D01*
X133946429Y-116225000D01*
X133946429Y-116582143D01*
X133875001Y-116867857D01*
X133803572Y-117010714D01*
X133732143Y-117082143D01*
X133589286Y-117153571D01*
X133446429Y-117153571D01*
X133303572Y-117082143D01*
X133232143Y-117010714D01*
X133160715Y-116867857D01*
X133089286Y-116582143D01*
X133089286Y-116225000D01*
X133160715Y-115939286D01*
X133232143Y-115796429D01*
X133303572Y-115725000D01*
X133446429Y-115653571D01*
D12*
X110560000Y-75975000D03*
X110560000Y-77975000D03*
X110560000Y-79975000D03*
D13*
X113280000Y-75245000D03*
D12*
X110560000Y-81975000D03*
D13*
X113280000Y-82245000D03*
X107840000Y-75245000D03*
X107840000Y-82245000D03*
D12*
X133420000Y-75975000D03*
X133420000Y-77975000D03*
X133420000Y-79975000D03*
D13*
X136140000Y-75245000D03*
D12*
X133420000Y-81975000D03*
D13*
X136140000Y-82245000D03*
X130700000Y-75245000D03*
X130700000Y-82245000D03*
D14*
X112100000Y-84865000D03*
X114100000Y-84865000D03*
D15*
X133400000Y-92550000D03*
X133400000Y-94550000D03*
X158075000Y-92325000D03*
X158075000Y-94325000D03*
X109950000Y-92775000D03*
X109950000Y-94775000D03*
D14*
X171225000Y-110925000D03*
X173225000Y-110925000D03*
D15*
X168200000Y-105175000D03*
X168200000Y-103175000D03*
X147775000Y-111300000D03*
X147775000Y-109300000D03*
D14*
X173695000Y-93755000D03*
X175695000Y-93755000D03*
X159750000Y-101200000D03*
X161750000Y-101200000D03*
X136230000Y-84865000D03*
X138230000Y-84865000D03*
X159090000Y-84865000D03*
X161090000Y-84865000D03*
D15*
X122100000Y-92325000D03*
X122100000Y-94325000D03*
X169050000Y-92050000D03*
X169050000Y-94050000D03*
X144675000Y-92425000D03*
X144675000Y-94425000D03*
D14*
X124800000Y-84865000D03*
X126800000Y-84865000D03*
X169885000Y-84865000D03*
X171885000Y-84865000D03*
X147660000Y-84865000D03*
X149660000Y-84865000D03*
D16*
X154820000Y-117235000D03*
X155620000Y-117235000D03*
X156420000Y-117235000D03*
X157220000Y-117235000D03*
X158020000Y-117235000D03*
X158820000Y-117235000D03*
X159620000Y-117235000D03*
X160420000Y-117235000D03*
X161220000Y-117235000D03*
X162020000Y-117235000D03*
X162820000Y-117235000D03*
D17*
X164520000Y-115535000D03*
X164520000Y-114735000D03*
X164520000Y-113935000D03*
X164520000Y-113135000D03*
X164520000Y-112335000D03*
X164520000Y-111535000D03*
X164520000Y-110735000D03*
X164520000Y-109935000D03*
X164520000Y-109135000D03*
X164520000Y-108335000D03*
X164520000Y-107535000D03*
D16*
X162820000Y-105835000D03*
X162020000Y-105835000D03*
X161220000Y-105835000D03*
X160420000Y-105835000D03*
X159620000Y-105835000D03*
X158820000Y-105835000D03*
X158020000Y-105835000D03*
X157220000Y-105835000D03*
X156420000Y-105835000D03*
X155620000Y-105835000D03*
X154820000Y-105835000D03*
D17*
X153120000Y-107535000D03*
X153120000Y-108335000D03*
X153120000Y-109135000D03*
X153120000Y-109935000D03*
X153120000Y-110735000D03*
X153120000Y-111535000D03*
X153120000Y-112335000D03*
X153120000Y-113135000D03*
X153120000Y-113935000D03*
X153120000Y-114735000D03*
X153120000Y-115535000D03*
D18*
X161650000Y-98825000D03*
X176650000Y-98825000D03*
D19*
X113950000Y-87875000D03*
X113950000Y-89775000D03*
D20*
X107070000Y-84865000D03*
X108970000Y-84865000D03*
D19*
X107375000Y-92800000D03*
X107375000Y-94700000D03*
X145625000Y-111200000D03*
X145625000Y-109300000D03*
X149930000Y-111215000D03*
X149930000Y-109315000D03*
D20*
X159375000Y-120750000D03*
X157475000Y-120750000D03*
D19*
X131000000Y-92625000D03*
X131000000Y-94525000D03*
X155350000Y-92250000D03*
X155350000Y-94150000D03*
X138050000Y-87625000D03*
X138050000Y-89525000D03*
X160500000Y-87725000D03*
X160500000Y-89625000D03*
D20*
X131200000Y-84865000D03*
X133100000Y-84865000D03*
X154060000Y-84865000D03*
X155960000Y-84865000D03*
D19*
X119700000Y-92425000D03*
X119700000Y-94325000D03*
X166500000Y-92150000D03*
X166500000Y-94050000D03*
X142250000Y-92425000D03*
X142250000Y-94325000D03*
X126650000Y-87725000D03*
X126650000Y-89625000D03*
X171400000Y-87825000D03*
X171400000Y-89725000D03*
D20*
X119770000Y-84865000D03*
X121670000Y-84865000D03*
D19*
X149500000Y-87675000D03*
X149500000Y-89575000D03*
D20*
X164855000Y-84865000D03*
X166755000Y-84865000D03*
X142630000Y-84865000D03*
X144530000Y-84865000D03*
D21*
X178227000Y-105475000D03*
D22*
X171623000Y-105475000D03*
X171623000Y-107761000D03*
X171623000Y-103189000D03*
D23*
X107050000Y-89775000D03*
X108000000Y-89775000D03*
X108950000Y-89775000D03*
X108950000Y-87575000D03*
X107050000Y-87575000D03*
X119750000Y-89775000D03*
X120700000Y-89775000D03*
X121650000Y-89775000D03*
X121650000Y-87575000D03*
X119750000Y-87575000D03*
X131200000Y-89775000D03*
X132150000Y-89775000D03*
X133100000Y-89775000D03*
X133100000Y-87575000D03*
X131200000Y-87575000D03*
X142650000Y-89775000D03*
X143600000Y-89775000D03*
X144550000Y-89775000D03*
X144550000Y-87575000D03*
X142650000Y-87575000D03*
X154100000Y-89675000D03*
X155050000Y-89675000D03*
X156000000Y-89675000D03*
X156000000Y-87475000D03*
X154100000Y-87475000D03*
X164850000Y-89775000D03*
X165800000Y-89775000D03*
X166750000Y-89775000D03*
X166750000Y-87575000D03*
X164850000Y-87575000D03*
D12*
X156280000Y-75975000D03*
X156280000Y-77975000D03*
X156280000Y-79975000D03*
D13*
X159000000Y-75245000D03*
D12*
X156280000Y-81975000D03*
D13*
X159000000Y-82245000D03*
X153560000Y-75245000D03*
X153560000Y-82245000D03*
D12*
X121990000Y-75975000D03*
X121990000Y-77975000D03*
X121990000Y-79975000D03*
D13*
X124710000Y-75245000D03*
D12*
X121990000Y-81975000D03*
D13*
X124710000Y-82245000D03*
X119270000Y-75245000D03*
X119270000Y-82245000D03*
D12*
X167710000Y-75975000D03*
X167710000Y-77975000D03*
X167710000Y-79975000D03*
D13*
X170430000Y-75245000D03*
D12*
X167710000Y-81975000D03*
D13*
X170430000Y-82245000D03*
X164990000Y-75245000D03*
X164990000Y-82245000D03*
D12*
X144850000Y-75975000D03*
X144850000Y-77975000D03*
X144850000Y-79975000D03*
D13*
X147570000Y-75245000D03*
D12*
X144850000Y-81975000D03*
D13*
X147570000Y-82245000D03*
X142130000Y-75245000D03*
X142130000Y-82245000D03*
D24*
X150650000Y-126750000D03*
D25*
X153163000Y-126750000D03*
X155663000Y-126750000D03*
X158163000Y-126750000D03*
X160663000Y-126750000D03*
X163163000Y-126750000D03*
X165663000Y-126750000D03*
X168163000Y-126750000D03*
D24*
X175900000Y-127750000D03*
D25*
X175900000Y-125210000D03*
X175900000Y-122710000D03*
D26*
X115400140Y-107950000D03*
X109400660Y-107950000D03*
X112400400Y-112649000D03*
D27*
X159975000Y-119075000D03*
X146400000Y-124050000D03*
X111175000Y-99275000D03*
X175225000Y-112475000D03*
X171750000Y-92025000D03*
X161250000Y-92475000D03*
X147775000Y-92525000D03*
X137275000Y-92575000D03*
X125425000Y-92625000D03*
X116525000Y-82225000D03*
X114275000Y-92750000D03*
X157900000Y-101300000D03*
X150275000Y-113775000D03*
X159500000Y-123025000D03*
X173450000Y-88025000D03*
X162925000Y-87550000D03*
X152025000Y-87475000D03*
X140625000Y-87500000D03*
X129000000Y-87725000D03*
X115425000Y-100750000D03*
X116800000Y-87750000D03*
X162925000Y-95975000D03*
X169550000Y-111525000D03*
X158050000Y-103825000D03*
X165150000Y-103800000D03*
D28*
X167710000Y-81975000D02*
X170160000Y-81975000D01*
X165330000Y-75245000D02*
X166525000Y-74050000D01*
X169235000Y-74050000D02*
X170430000Y-75245000D01*
X166525000Y-74050000D02*
X169235000Y-74050000D01*
X170430000Y-75245000D02*
X170430000Y-82245000D01*
X170377000Y-82198000D02*
X169869000Y-82706000D01*
X158730000Y-81975000D02*
X156280000Y-81975000D01*
X169885000Y-82250000D02*
X169885000Y-84865000D01*
X158820000Y-118345000D02*
X159550000Y-119075000D01*
X159550000Y-119075000D02*
X159975000Y-119075000D01*
X158820000Y-118345000D02*
X158820000Y-117235000D01*
X164520000Y-110735000D02*
X161560000Y-110735000D01*
X158820000Y-107995000D02*
X158820000Y-105835000D01*
X161560000Y-110735000D02*
X158820000Y-107995000D01*
D29*
X175900000Y-127750000D02*
X175950000Y-127750000D01*
D28*
X175950000Y-127750000D02*
X180650000Y-123050000D01*
X173562000Y-101250000D02*
X171623000Y-103189000D01*
X180325000Y-101250000D02*
X173562000Y-101250000D01*
X180650000Y-101575000D02*
X180325000Y-101250000D01*
X180650000Y-123050000D02*
X180650000Y-101575000D01*
X175225000Y-112475000D02*
X175225000Y-115900000D01*
X172225000Y-124075000D02*
X175900000Y-127750000D01*
X172225000Y-118900000D02*
X172225000Y-124075000D01*
X175225000Y-115900000D02*
X172225000Y-118900000D01*
X146400000Y-124050000D02*
X146400000Y-117650000D01*
X146400000Y-117650000D02*
X150275000Y-113775000D01*
X109400660Y-107950000D02*
X109400660Y-121675660D01*
X111775000Y-124050000D02*
X146400000Y-124050000D01*
X109400660Y-121675660D02*
X111775000Y-124050000D01*
X111175000Y-99275000D02*
X111175000Y-106175660D01*
X111175000Y-106175660D02*
X109375660Y-107975000D01*
X175225000Y-112475000D02*
X173675000Y-110925000D01*
D29*
X173675000Y-110925000D02*
X173225000Y-110925000D01*
D28*
X171725000Y-92050000D02*
X169050000Y-92050000D01*
D29*
X171750000Y-92025000D02*
X171725000Y-92050000D01*
D28*
X161100000Y-92325000D02*
X158075000Y-92325000D01*
D29*
X161250000Y-92475000D02*
X161100000Y-92325000D01*
D28*
X147675000Y-92425000D02*
X144675000Y-92425000D01*
D29*
X147775000Y-92525000D02*
X147675000Y-92425000D01*
X137250000Y-92550000D02*
X133400000Y-92550000D01*
X137275000Y-92575000D02*
X137250000Y-92550000D01*
D28*
X125125000Y-92325000D02*
X122100000Y-92325000D01*
D29*
X125425000Y-92625000D02*
X125125000Y-92325000D01*
X116525000Y-82225000D02*
X116525000Y-82245000D01*
X116525000Y-82245000D02*
X116525000Y-82225000D01*
X116525000Y-82225000D02*
X116525000Y-82245000D01*
D28*
X114250000Y-92775000D02*
X109950000Y-92775000D01*
D29*
X114275000Y-92750000D02*
X114250000Y-92775000D01*
D28*
X159090000Y-84865000D02*
X159090000Y-82335000D01*
D29*
X159090000Y-82335000D02*
X159180000Y-82245000D01*
D28*
X159180000Y-82245000D02*
X164990000Y-82245000D01*
X164990000Y-82245000D02*
X164990000Y-75245000D01*
X164990000Y-75245000D02*
X159000000Y-75245000D01*
X157755000Y-74000000D02*
X159000000Y-75245000D01*
X159000000Y-75245000D02*
X159000000Y-82245000D01*
X147570000Y-82245000D02*
X153560000Y-82245000D01*
X153560000Y-75245000D02*
X147570000Y-75245000D01*
X144850000Y-81975000D02*
X147300000Y-81975000D01*
D29*
X147300000Y-81975000D02*
X147570000Y-82245000D01*
D28*
X146425000Y-74100000D02*
X147570000Y-75245000D01*
X147570000Y-75245000D02*
X147570000Y-84775000D01*
D29*
X147570000Y-84775000D02*
X147660000Y-84865000D01*
D28*
X133420000Y-81975000D02*
X135870000Y-81975000D01*
D29*
X135870000Y-81975000D02*
X136140000Y-82245000D01*
D28*
X136140000Y-82245000D02*
X142130000Y-82245000D01*
X142130000Y-75245000D02*
X136140000Y-75245000D01*
X136140000Y-75245000D02*
X136140000Y-82245000D01*
D29*
X136140000Y-82245000D02*
X135870000Y-81975000D01*
X135870000Y-81975000D02*
X136140000Y-82245000D01*
D28*
X136140000Y-82245000D02*
X136140000Y-84775000D01*
D29*
X136140000Y-84775000D02*
X136230000Y-84865000D01*
X130700000Y-75245000D02*
X131055000Y-75245000D01*
D28*
X131055000Y-75245000D02*
X132375000Y-73925000D01*
X134820000Y-73925000D02*
X136140000Y-75245000D01*
X132375000Y-73925000D02*
X134820000Y-73925000D01*
X124710000Y-82245000D02*
X130700000Y-82245000D01*
X130700000Y-82245000D02*
X130700000Y-75245000D01*
X130700000Y-75245000D02*
X124710000Y-75245000D01*
X124710000Y-82245000D02*
X124710000Y-84775000D01*
D29*
X124710000Y-84775000D02*
X124800000Y-84865000D01*
D28*
X113280000Y-82245000D02*
X116525000Y-82245000D01*
X116525000Y-82245000D02*
X119270000Y-82245000D01*
X119270000Y-82245000D02*
X119270000Y-75245000D01*
X119270000Y-75245000D02*
X113280000Y-75245000D01*
D29*
X113280000Y-75245000D02*
X119270000Y-75245000D01*
D28*
X119270000Y-75245000D02*
X120750000Y-73765000D01*
X120750000Y-73765000D02*
X123585000Y-73765000D01*
X123585000Y-73765000D02*
X124710000Y-74890000D01*
X124710000Y-74890000D02*
X124710000Y-82245000D01*
D29*
X124710000Y-82245000D02*
X124440000Y-81975000D01*
D30*
X124440000Y-81975000D02*
X121990000Y-81975000D01*
D29*
X113280000Y-75245000D02*
X113020000Y-75245000D01*
D28*
X113020000Y-75245000D02*
X111725000Y-73950000D01*
X109135000Y-73950000D02*
X107840000Y-75245000D01*
X111725000Y-73950000D02*
X109135000Y-73950000D01*
X107840000Y-75245000D02*
X107840000Y-82245000D01*
X113280000Y-82245000D02*
X113280000Y-75245000D01*
X112100000Y-84865000D02*
X112100000Y-83425000D01*
X112100000Y-83425000D02*
X113280000Y-82245000D01*
X113280000Y-82245000D02*
X110830000Y-82245000D01*
D29*
X110830000Y-82245000D02*
X110560000Y-81975000D01*
X133400000Y-92550000D02*
X131075000Y-92550000D01*
D30*
X131075000Y-92550000D02*
X132150000Y-91475000D01*
X132150000Y-91475000D02*
X132150000Y-89775000D01*
D28*
X122100000Y-92325000D02*
X119800000Y-92325000D01*
X119800000Y-92325000D02*
X120700000Y-91425000D01*
X120700000Y-91425000D02*
X120700000Y-89775000D01*
X109950000Y-92775000D02*
X107400000Y-92775000D01*
X107400000Y-92775000D02*
X108000000Y-92175000D01*
X108000000Y-92175000D02*
X108000000Y-89775000D01*
X173695000Y-93755000D02*
X170755000Y-93755000D01*
X170755000Y-93755000D02*
X169050000Y-92050000D01*
X169050000Y-92050000D02*
X166600000Y-92050000D01*
X166600000Y-92050000D02*
X165800000Y-91250000D01*
X165800000Y-91250000D02*
X165800000Y-89775000D01*
D29*
X142250000Y-92425000D02*
X144675000Y-92425000D01*
D28*
X144675000Y-92425000D02*
X143600000Y-91350000D01*
X143600000Y-91350000D02*
X143600000Y-89775000D01*
X155050000Y-89675000D02*
X155050000Y-91950000D01*
D29*
X155050000Y-91950000D02*
X155425000Y-92325000D01*
D28*
X155425000Y-92325000D02*
X158075000Y-92325000D01*
X145625000Y-111200000D02*
X147675000Y-111200000D01*
X147675000Y-111200000D02*
X148925000Y-112450000D01*
X148925000Y-112450000D02*
X150825000Y-112450000D01*
D30*
X159750000Y-101200000D02*
X158000000Y-101200000D01*
D29*
X158000000Y-101200000D02*
X157900000Y-101300000D01*
D28*
X150825000Y-113225000D02*
X150825000Y-112450000D01*
X150275000Y-113775000D02*
X150825000Y-113225000D01*
D29*
X150825000Y-112450000D02*
X150825000Y-112375000D01*
D28*
X158820000Y-105835000D02*
X158820000Y-102130000D01*
X158820000Y-102130000D02*
X159750000Y-101200000D01*
X168200000Y-103175000D02*
X171609000Y-103175000D01*
X153120000Y-111535000D02*
X151665000Y-111535000D01*
X151665000Y-111535000D02*
X150825000Y-112375000D01*
D29*
X142250000Y-92425000D02*
X142437000Y-92358000D01*
X142437000Y-92358000D02*
X142691000Y-92104000D01*
X142250000Y-92425000D02*
X142310000Y-92485000D01*
X107840000Y-82245000D02*
X107893000Y-82198000D01*
X113280000Y-75245000D02*
X113227000Y-75213000D01*
X120720000Y-89818000D02*
X120700000Y-89775000D01*
X165805000Y-89818000D02*
X165800000Y-89775000D01*
X164520000Y-110735000D02*
X164535000Y-110773000D01*
X132150000Y-89775000D02*
X132150000Y-89818000D01*
X132150000Y-89818000D02*
X132404000Y-90072000D01*
X143600000Y-89775000D02*
X143580000Y-89818000D01*
X143580000Y-89818000D02*
X143834000Y-90072000D01*
X108020000Y-89818000D02*
X108000000Y-89775000D01*
X120700000Y-89775000D02*
X120720000Y-89818000D01*
X120720000Y-89818000D02*
X120466000Y-89564000D01*
X165800000Y-89775000D02*
X165805000Y-89818000D01*
X165805000Y-89818000D02*
X165551000Y-89564000D01*
X155010000Y-89691000D02*
X155050000Y-89675000D01*
X173679000Y-93755000D02*
X173695000Y-93755000D01*
X113227000Y-82198000D02*
X113280000Y-82245000D01*
X113280000Y-82245000D02*
X113227000Y-82198000D01*
X112084000Y-84865000D02*
X112100000Y-84865000D01*
X108000000Y-89775000D02*
X108020000Y-89818000D01*
X108020000Y-89818000D02*
X107766000Y-90072000D01*
X169869000Y-84865000D02*
X169885000Y-84865000D01*
X136140000Y-82245000D02*
X136087000Y-82198000D01*
X136087000Y-82198000D02*
X136214000Y-82325000D01*
X136214000Y-84865000D02*
X136230000Y-84865000D01*
X159074000Y-84865000D02*
X159090000Y-84865000D01*
X147570000Y-82245000D02*
X147517000Y-82198000D01*
X147517000Y-82198000D02*
X147644000Y-82325000D01*
X147644000Y-84865000D02*
X147660000Y-84865000D01*
X124710000Y-82245000D02*
X124657000Y-82198000D01*
X124657000Y-82198000D02*
X124784000Y-82325000D01*
X124784000Y-84865000D02*
X124800000Y-84865000D01*
X109950000Y-92775000D02*
X109925000Y-92739000D01*
X109925000Y-92739000D02*
X109950000Y-92775000D01*
X107375000Y-92800000D02*
X107385000Y-92739000D01*
X107375000Y-92800000D02*
X107385000Y-92739000D01*
X122117000Y-92358000D02*
X122100000Y-92325000D01*
X122100000Y-92325000D02*
X122117000Y-92358000D01*
X119831000Y-92358000D02*
X119704000Y-92485000D01*
X119704000Y-92485000D02*
X119700000Y-92425000D01*
X119700000Y-92425000D02*
X119704000Y-92485000D01*
X131000000Y-92625000D02*
X131007000Y-92612000D01*
X131007000Y-92612000D02*
X131261000Y-92358000D01*
X131000000Y-92625000D02*
X131007000Y-92612000D01*
X133293000Y-92612000D02*
X133420000Y-92485000D01*
X133420000Y-92485000D02*
X133400000Y-92525000D01*
X144700000Y-92425000D02*
X144723000Y-92485000D01*
X144723000Y-92485000D02*
X144342000Y-92485000D01*
X144723000Y-92485000D02*
X144700000Y-92425000D01*
D28*
X155200000Y-74000000D02*
X157755000Y-74000000D01*
X153560000Y-82245000D02*
X153560000Y-75245000D01*
X143850000Y-74100000D02*
X146425000Y-74100000D01*
X142130000Y-82245000D02*
X142130000Y-75245000D01*
D29*
X142130000Y-75245000D02*
X142705000Y-75245000D01*
D28*
X142705000Y-75245000D02*
X143850000Y-74100000D01*
D29*
X153560000Y-75245000D02*
X153955000Y-75245000D01*
D28*
X153955000Y-75245000D02*
X155200000Y-74000000D01*
X133400000Y-94550000D02*
X131025000Y-94550000D01*
X131025000Y-94550000D02*
X129500000Y-94550000D01*
D29*
X129500000Y-94550000D02*
X129450000Y-94500000D01*
D28*
X129450000Y-94500000D02*
X129450000Y-91525000D01*
X129450000Y-91525000D02*
X131200000Y-89775000D01*
X153120000Y-107535000D02*
X153120000Y-105895000D01*
X135250000Y-96400000D02*
X133375000Y-94525000D01*
X143625000Y-96400000D02*
X135250000Y-96400000D01*
X153120000Y-105895000D02*
X143625000Y-96400000D01*
D29*
X133420000Y-94517000D02*
X133400000Y-94525000D01*
X131007000Y-94517000D02*
X131000000Y-94525000D01*
X131000000Y-94525000D02*
X131007000Y-94517000D01*
X131261000Y-89818000D02*
X131200000Y-89775000D01*
D28*
X158075000Y-94325000D02*
X155525000Y-94325000D01*
D29*
X155525000Y-94325000D02*
X155375000Y-94175000D01*
D28*
X155375000Y-94175000D02*
X154150000Y-94175000D01*
D29*
X154150000Y-94175000D02*
X154100000Y-94125000D01*
D28*
X154100000Y-94125000D02*
X154100000Y-89675000D01*
X155620000Y-105835000D02*
X155620000Y-94420000D01*
D29*
X155620000Y-94420000D02*
X155350000Y-94150000D01*
X155620000Y-105835000D02*
X155645000Y-105820000D01*
X155645000Y-105820000D02*
X155518000Y-105693000D01*
X154121000Y-89691000D02*
X154100000Y-89675000D01*
D28*
X109950000Y-94775000D02*
X107450000Y-94775000D01*
D29*
X107450000Y-94775000D02*
X107375000Y-94700000D01*
D28*
X153120000Y-109135000D02*
X151960000Y-109135000D01*
X113775000Y-98600000D02*
X109875000Y-94700000D01*
X141425000Y-98600000D02*
X113775000Y-98600000D01*
X151960000Y-109135000D02*
X141425000Y-98600000D01*
X109875000Y-94700000D02*
X105950000Y-94700000D01*
X105700000Y-91125000D02*
X107050000Y-89775000D01*
X105700000Y-94450000D02*
X105700000Y-91125000D01*
X105950000Y-94700000D02*
X105700000Y-94450000D01*
D29*
X107385000Y-94517000D02*
X107385000Y-94644000D01*
X107385000Y-94644000D02*
X107375000Y-94700000D01*
X107375000Y-94700000D02*
X107385000Y-94644000D01*
X109798000Y-94644000D02*
X109925000Y-94771000D01*
X109925000Y-94771000D02*
X109950000Y-94775000D01*
X152978000Y-108995000D02*
X153105000Y-109122000D01*
X153105000Y-109122000D02*
X153120000Y-109135000D01*
X107004000Y-89818000D02*
X107050000Y-89775000D01*
D28*
X147775000Y-109300000D02*
X145625000Y-109300000D01*
X147340000Y-109315000D02*
X149930000Y-109315000D01*
X153120000Y-109935000D02*
X150550000Y-109935000D01*
X150550000Y-109935000D02*
X149930000Y-109315000D01*
D29*
X153120000Y-109935000D02*
X153105000Y-109884000D01*
X149930000Y-109376000D02*
X149930000Y-109315000D01*
X149930000Y-109315000D02*
X149930000Y-109376000D01*
D28*
X161750000Y-101200000D02*
X171400000Y-101200000D01*
X173775000Y-98825000D02*
X176650000Y-98825000D01*
X171400000Y-101200000D02*
X173775000Y-98825000D01*
X159620000Y-105835000D02*
X159620000Y-103330000D01*
X159620000Y-103330000D02*
X161750000Y-101200000D01*
D29*
X159582000Y-105820000D02*
X159620000Y-105835000D01*
D28*
X122100000Y-94325000D02*
X119700000Y-94325000D01*
X153120000Y-108335000D02*
X152210000Y-108335000D01*
X125575000Y-97800000D02*
X122100000Y-94325000D01*
X141675000Y-97800000D02*
X125575000Y-97800000D01*
X152210000Y-108335000D02*
X141675000Y-97800000D01*
X122100000Y-94325000D02*
X118425000Y-94325000D01*
X118025000Y-91500000D02*
X119750000Y-89775000D01*
X118025000Y-93925000D02*
X118025000Y-91500000D01*
X118425000Y-94325000D02*
X118025000Y-93925000D01*
D29*
X119704000Y-94136000D02*
X119704000Y-94263000D01*
X119704000Y-94263000D02*
X119700000Y-94325000D01*
X119700000Y-94325000D02*
X119704000Y-94263000D01*
X122117000Y-94263000D02*
X122100000Y-94325000D01*
X153120000Y-108335000D02*
X153105000Y-108360000D01*
X119704000Y-89818000D02*
X119750000Y-89775000D01*
X166500000Y-94050000D02*
X165850000Y-94050000D01*
D28*
X165850000Y-94050000D02*
X164500000Y-92700000D01*
D29*
X164500000Y-90125000D02*
X164850000Y-89775000D01*
D28*
X164500000Y-92700000D02*
X164500000Y-90125000D01*
D29*
X166500000Y-94050000D02*
X169050000Y-94050000D01*
D28*
X156420000Y-105835000D02*
X156420000Y-99130000D01*
X161500000Y-94050000D02*
X166500000Y-94050000D01*
X156420000Y-99130000D02*
X161500000Y-94050000D01*
D29*
X156407000Y-105820000D02*
X156420000Y-105835000D01*
X164850000Y-89775000D02*
X164789000Y-89818000D01*
X144675000Y-94425000D02*
X142350000Y-94425000D01*
X142350000Y-94425000D02*
X142250000Y-94325000D01*
D28*
X154820000Y-105835000D02*
X154820000Y-104570000D01*
X154820000Y-104570000D02*
X144575000Y-94325000D01*
X144575000Y-94325000D02*
X141325000Y-94325000D01*
X140825000Y-91600000D02*
X142650000Y-89775000D01*
X140825000Y-93825000D02*
X140825000Y-91600000D01*
X141325000Y-94325000D02*
X140825000Y-93825000D01*
D29*
X144723000Y-94390000D02*
X144700000Y-94425000D01*
X144700000Y-94425000D02*
X144723000Y-94390000D01*
X142437000Y-94390000D02*
X142310000Y-94263000D01*
X142310000Y-94263000D02*
X142250000Y-94325000D01*
X154883000Y-105820000D02*
X154820000Y-105835000D01*
X142691000Y-89818000D02*
X142650000Y-89775000D01*
D28*
X157220000Y-117235000D02*
X157220000Y-120495000D01*
D29*
X157220000Y-120495000D02*
X157475000Y-120750000D01*
X157220000Y-117235000D02*
X157169000Y-117250000D01*
X157169000Y-117250000D02*
X157042000Y-117377000D01*
D28*
X108950000Y-89775000D02*
X113950000Y-89775000D01*
D29*
X108950000Y-89775000D02*
X108909000Y-89818000D01*
X108909000Y-89818000D02*
X109036000Y-89818000D01*
X113989000Y-89818000D02*
X113950000Y-89775000D01*
D28*
X133100000Y-89775000D02*
X137800000Y-89775000D01*
D29*
X137800000Y-89775000D02*
X138050000Y-89525000D01*
X133100000Y-89775000D02*
X133039000Y-89818000D01*
X133039000Y-89818000D02*
X133420000Y-89818000D01*
X137992000Y-89564000D02*
X138050000Y-89525000D01*
X160500000Y-89625000D02*
X156050000Y-89625000D01*
X156050000Y-89625000D02*
X156000000Y-89675000D01*
X160500000Y-89625000D02*
X160471000Y-89564000D01*
X156153000Y-89564000D02*
X156026000Y-89691000D01*
X156026000Y-89691000D02*
X156000000Y-89675000D01*
D28*
X121650000Y-89775000D02*
X126500000Y-89775000D01*
D29*
X126500000Y-89775000D02*
X126650000Y-89625000D01*
X121650000Y-89775000D02*
X121609000Y-89818000D01*
X126689000Y-89564000D02*
X126650000Y-89625000D01*
D28*
X166750000Y-89775000D02*
X171350000Y-89775000D01*
D29*
X171350000Y-89775000D02*
X171400000Y-89725000D01*
X166750000Y-89775000D02*
X166694000Y-89818000D01*
X171266000Y-89818000D02*
X171393000Y-89691000D01*
X171393000Y-89691000D02*
X171400000Y-89725000D01*
X144550000Y-89775000D02*
X149300000Y-89775000D01*
X149300000Y-89775000D02*
X149500000Y-89575000D01*
X149500000Y-89575000D02*
X149549000Y-89564000D01*
X144596000Y-89818000D02*
X144550000Y-89775000D01*
D28*
X173450000Y-88025000D02*
X173450000Y-72025000D01*
X104525000Y-82320000D02*
X107070000Y-84865000D01*
X104525000Y-71925000D02*
X104525000Y-82320000D01*
D29*
X104650000Y-71800000D02*
X104525000Y-71925000D01*
D28*
X173225000Y-71800000D02*
X104650000Y-71800000D01*
D29*
X173450000Y-72025000D02*
X173225000Y-71800000D01*
D28*
X158020000Y-117235000D02*
X158020000Y-118620000D01*
X159375000Y-119975000D02*
X159375000Y-120750000D01*
X158020000Y-118620000D02*
X159375000Y-119975000D01*
X158020000Y-117235000D02*
X158020000Y-110905000D01*
X158020000Y-110905000D02*
X158190000Y-110735000D01*
X164520000Y-111535000D02*
X158990000Y-111535000D01*
X158990000Y-111535000D02*
X158190000Y-110735000D01*
D29*
X171623000Y-107761000D02*
X172636000Y-107761000D01*
D28*
X172636000Y-107761000D02*
X176750000Y-111875000D01*
X176750000Y-121860000D02*
X175900000Y-122710000D01*
X176750000Y-111875000D02*
X176750000Y-121860000D01*
X115425000Y-100750000D02*
X114175000Y-100750000D01*
X106000000Y-87575000D02*
X107050000Y-87575000D01*
X103150000Y-90425000D02*
X106000000Y-87575000D01*
X103150000Y-96275000D02*
X103150000Y-90425000D01*
X103875000Y-97000000D02*
X103150000Y-96275000D01*
X110425000Y-97000000D02*
X103875000Y-97000000D01*
X114175000Y-100750000D02*
X110425000Y-97000000D01*
D29*
X159500000Y-123025000D02*
X159375000Y-122900000D01*
D28*
X159375000Y-122900000D02*
X159375000Y-120750000D01*
X162925000Y-87550000D02*
X160675000Y-87550000D01*
D29*
X160675000Y-87550000D02*
X160500000Y-87725000D01*
D28*
X140625000Y-87500000D02*
X138175000Y-87500000D01*
D29*
X138175000Y-87500000D02*
X138050000Y-87625000D01*
D28*
X129000000Y-87725000D02*
X126650000Y-87725000D01*
D30*
X173250000Y-87825000D02*
X171400000Y-87825000D01*
D28*
X173450000Y-88025000D02*
X173250000Y-87825000D01*
X162950000Y-87575000D02*
X164850000Y-87575000D01*
D29*
X162925000Y-87550000D02*
X162950000Y-87575000D01*
D28*
X152025000Y-87475000D02*
X154100000Y-87475000D01*
X140700000Y-87575000D02*
X142650000Y-87575000D01*
D29*
X140625000Y-87500000D02*
X140700000Y-87575000D01*
D30*
X129150000Y-87575000D02*
X131200000Y-87575000D01*
D29*
X129000000Y-87725000D02*
X129150000Y-87575000D01*
D28*
X119750000Y-87575000D02*
X116975000Y-87575000D01*
D29*
X116975000Y-87575000D02*
X116800000Y-87750000D01*
D28*
X115200140Y-108350000D02*
X115200140Y-100974860D01*
D29*
X115200140Y-100974860D02*
X115425000Y-100750000D01*
D28*
X116675000Y-87875000D02*
X113950000Y-87875000D01*
D29*
X116800000Y-87750000D02*
X116675000Y-87875000D01*
D28*
X138230000Y-84865000D02*
X142630000Y-84865000D01*
D30*
X114100000Y-84865000D02*
X119770000Y-84865000D01*
D28*
X126800000Y-84865000D02*
X131200000Y-84865000D01*
X149660000Y-84865000D02*
X154060000Y-84865000D01*
X161090000Y-84865000D02*
X164855000Y-84865000D01*
X162925000Y-95975000D02*
X175050000Y-95975000D01*
X175695000Y-95330000D02*
X175695000Y-93755000D01*
X175050000Y-95975000D02*
X175695000Y-95330000D01*
X175695000Y-93755000D02*
X175695000Y-92120000D01*
X175695000Y-92120000D02*
X171400000Y-87825000D01*
X171400000Y-87825000D02*
X171400000Y-85350000D01*
D29*
X171400000Y-85350000D02*
X171885000Y-84865000D01*
D28*
X154100000Y-87475000D02*
X154100000Y-84905000D01*
D29*
X154100000Y-84905000D02*
X154060000Y-84865000D01*
D28*
X160500000Y-87725000D02*
X160500000Y-85455000D01*
D29*
X160500000Y-85455000D02*
X161090000Y-84865000D01*
D28*
X164850000Y-87575000D02*
X164850000Y-84870000D01*
D29*
X164850000Y-84870000D02*
X164855000Y-84865000D01*
D28*
X149500000Y-87675000D02*
X149500000Y-85025000D01*
D29*
X149500000Y-85025000D02*
X149660000Y-84865000D01*
D28*
X142650000Y-87575000D02*
X142650000Y-84885000D01*
D29*
X142650000Y-84885000D02*
X142630000Y-84865000D01*
D28*
X138050000Y-87625000D02*
X138050000Y-85045000D01*
D29*
X138050000Y-85045000D02*
X138230000Y-84865000D01*
D28*
X131200000Y-87575000D02*
X131200000Y-84865000D01*
X126650000Y-87725000D02*
X126650000Y-85015000D01*
D29*
X126650000Y-85015000D02*
X126800000Y-84865000D01*
D28*
X119750000Y-87575000D02*
X119750000Y-84885000D01*
D29*
X119750000Y-84885000D02*
X119770000Y-84865000D01*
D28*
X113950000Y-87875000D02*
X113950000Y-85015000D01*
D29*
X113950000Y-85015000D02*
X114100000Y-84865000D01*
D28*
X107050000Y-87575000D02*
X107050000Y-84885000D01*
D29*
X107050000Y-84885000D02*
X107070000Y-84865000D01*
X107131000Y-84865000D02*
X107070000Y-84865000D01*
X107131000Y-84865000D02*
X107004000Y-84992000D01*
X107070000Y-84865000D02*
X107131000Y-84865000D01*
D28*
X161650000Y-98825000D02*
X161650000Y-97250000D01*
X161650000Y-97250000D02*
X162925000Y-95975000D01*
X171225000Y-110925000D02*
X170150000Y-110925000D01*
X170150000Y-110925000D02*
X169550000Y-111525000D01*
X171225000Y-110925000D02*
X171225000Y-108159000D01*
D29*
X171225000Y-108159000D02*
X171623000Y-107761000D01*
D28*
X153120000Y-110735000D02*
X158190000Y-110735000D01*
X153120000Y-110735000D02*
X150410000Y-110735000D01*
X150410000Y-110735000D02*
X149930000Y-111215000D01*
D29*
X158020000Y-117235000D02*
X158058000Y-117250000D01*
X158058000Y-117250000D02*
X157931000Y-117123000D01*
X153232000Y-110900000D02*
X153105000Y-110773000D01*
X153105000Y-110773000D02*
X153120000Y-110735000D01*
X171400000Y-87825000D02*
X171393000Y-87786000D01*
X175711000Y-93755000D02*
X175695000Y-93755000D01*
X161650000Y-98825000D02*
X161614000Y-98835000D01*
X164408000Y-111408000D02*
X164535000Y-111535000D01*
X164535000Y-111535000D02*
X164520000Y-111535000D01*
X175695000Y-93755000D02*
X175711000Y-93755000D01*
X160500000Y-87725000D02*
X160471000Y-87786000D01*
X161614000Y-98835000D02*
X161650000Y-98825000D01*
X164850000Y-87575000D02*
X164789000Y-87532000D01*
X164789000Y-87532000D02*
X165043000Y-87532000D01*
X171393000Y-87786000D02*
X171400000Y-87825000D01*
X149500000Y-87675000D02*
X149549000Y-87659000D01*
X142691000Y-87532000D02*
X142650000Y-87575000D01*
X138050000Y-87625000D02*
X137992000Y-87659000D01*
X131261000Y-87532000D02*
X131200000Y-87575000D01*
X160500000Y-87725000D02*
X160471000Y-87786000D01*
X154121000Y-87532000D02*
X154100000Y-87475000D01*
X114100000Y-84865000D02*
X113989000Y-84865000D01*
X126800000Y-84865000D02*
X126689000Y-84865000D01*
X119831000Y-84865000D02*
X119770000Y-84865000D01*
X158020000Y-117235000D02*
X158058000Y-117250000D01*
X158058000Y-117250000D02*
X157931000Y-117377000D01*
X161090000Y-84865000D02*
X161106000Y-84865000D01*
X160471000Y-87786000D02*
X160500000Y-87725000D01*
X171400000Y-87825000D02*
X171393000Y-87786000D01*
X171901000Y-84865000D02*
X171885000Y-84865000D01*
X153120000Y-110735000D02*
X153105000Y-110773000D01*
X149930000Y-111154000D02*
X149930000Y-111215000D01*
X138230000Y-84865000D02*
X138246000Y-84865000D01*
X138246000Y-84865000D02*
X137992000Y-85119000D01*
X137992000Y-87659000D02*
X138050000Y-87625000D01*
X114100000Y-84865000D02*
X114116000Y-84865000D01*
X114116000Y-84865000D02*
X113989000Y-84992000D01*
X113989000Y-87913000D02*
X113950000Y-87875000D01*
X126800000Y-84865000D02*
X126816000Y-84865000D01*
X126816000Y-84865000D02*
X126689000Y-84992000D01*
X126689000Y-87786000D02*
X126650000Y-87725000D01*
X149660000Y-84865000D02*
X149676000Y-84865000D01*
X149676000Y-84865000D02*
X149549000Y-84992000D01*
X149549000Y-87659000D02*
X149500000Y-87675000D01*
X119770000Y-84865000D02*
X119831000Y-84865000D01*
X119831000Y-84865000D02*
X119704000Y-84992000D01*
X119704000Y-87532000D02*
X119750000Y-87575000D01*
X164850000Y-87575000D02*
X164789000Y-87532000D01*
X164789000Y-87532000D02*
X164916000Y-87405000D01*
X164916000Y-84865000D02*
X164855000Y-84865000D01*
X107004000Y-87532000D02*
X107050000Y-87575000D01*
X154100000Y-87475000D02*
X154121000Y-87532000D01*
X154121000Y-84865000D02*
X154060000Y-84865000D01*
X131200000Y-87575000D02*
X131261000Y-87532000D01*
X131261000Y-84865000D02*
X131200000Y-84865000D01*
X142650000Y-87575000D02*
X142691000Y-87532000D01*
X142691000Y-84865000D02*
X142630000Y-84865000D01*
X171623000Y-105475000D02*
X172300000Y-105475000D01*
D28*
X172300000Y-105475000D02*
X178525000Y-111700000D01*
X178525000Y-122585000D02*
X175900000Y-125210000D01*
X178525000Y-111700000D02*
X178525000Y-122585000D01*
X168200000Y-105175000D02*
X166525000Y-105175000D01*
X158020000Y-103855000D02*
X158020000Y-105835000D01*
D29*
X158050000Y-103825000D02*
X158020000Y-103855000D01*
D28*
X166525000Y-105175000D02*
X165150000Y-103800000D01*
X171623000Y-105475000D02*
X168500000Y-105475000D01*
D29*
X168500000Y-105475000D02*
X168200000Y-105175000D01*
X158020000Y-105835000D02*
X158058000Y-105820000D01*
D28*
X154820000Y-117235000D02*
X154820000Y-125093000D01*
X154820000Y-125093000D02*
X153163000Y-126750000D01*
D29*
X154883000Y-117250000D02*
X154820000Y-117235000D01*
D28*
X155620000Y-117235000D02*
X155620000Y-126707000D01*
D29*
X155620000Y-126707000D02*
X155663000Y-126750000D01*
X155620000Y-117235000D02*
X155645000Y-117250000D01*
X155645000Y-117250000D02*
X155518000Y-117377000D01*
D28*
X156420000Y-117235000D02*
X156420000Y-125007000D01*
X156420000Y-125007000D02*
X158163000Y-126750000D01*
D29*
X156407000Y-117250000D02*
X156420000Y-117235000D01*
D28*
X161220000Y-117235000D02*
X161220000Y-126193000D01*
D29*
X161220000Y-126193000D02*
X160663000Y-126750000D01*
X161233000Y-117250000D02*
X161220000Y-117235000D01*
D28*
X162020000Y-117235000D02*
X162020000Y-125607000D01*
X162020000Y-125607000D02*
X163163000Y-126750000D01*
D29*
X162020000Y-117235000D02*
X161995000Y-117250000D01*
X161995000Y-117250000D02*
X162122000Y-117377000D01*
X163078000Y-126690000D02*
X163018000Y-126690000D01*
D28*
X164520000Y-109935000D02*
X165735000Y-109935000D01*
X166125000Y-110325000D02*
X166125000Y-126288000D01*
X165735000Y-109935000D02*
X166125000Y-110325000D01*
D29*
X166125000Y-126288000D02*
X165663000Y-126750000D01*
X164520000Y-109935000D02*
X164535000Y-109884000D01*
X165591000Y-126690000D02*
X165618000Y-126690000D01*
D28*
X164520000Y-109135000D02*
X166785000Y-109135000D01*
X168163000Y-110513000D02*
X168163000Y-126750000D01*
X166785000Y-109135000D02*
X168163000Y-110513000D01*
D29*
X164520000Y-109135000D02*
X164535000Y-109122000D01*
X168006000Y-127390000D02*
X167993000Y-127390000D01*
D28*
X153120000Y-115535000D02*
X153120000Y-124280000D01*
X153120000Y-124280000D02*
X150650000Y-126750000D01*
D29*
X153120000Y-115535000D02*
X153105000Y-115472000D01*
D28*
X108950000Y-87575000D02*
X108950000Y-84885000D01*
D29*
X108950000Y-87575000D02*
X108909000Y-87532000D01*
D28*
X108970000Y-84865000D02*
X108970000Y-83105000D01*
X108970000Y-83105000D02*
X109225000Y-82850000D01*
D29*
X108950000Y-84885000D02*
X108970000Y-84865000D01*
X108970000Y-84865000D02*
X109036000Y-84865000D01*
X108909000Y-84865000D02*
X108970000Y-84865000D01*
D28*
X109225000Y-82850000D02*
X109225000Y-77310000D01*
D29*
X121650000Y-87575000D02*
X121650000Y-84885000D01*
X121650000Y-84885000D02*
X121670000Y-84865000D01*
D28*
X121670000Y-84865000D02*
X121670000Y-83745000D01*
X121670000Y-83745000D02*
X120700000Y-82775000D01*
D29*
X121670000Y-84865000D02*
X121736000Y-84865000D01*
X121670000Y-84865000D02*
X121609000Y-84865000D01*
X121609000Y-87532000D02*
X121650000Y-87575000D01*
D28*
X120700000Y-82775000D02*
X120700000Y-77265000D01*
X144530000Y-84865000D02*
X144530000Y-83805000D01*
X144530000Y-83805000D02*
X143550000Y-82825000D01*
X144550000Y-87575000D02*
X144550000Y-84885000D01*
D29*
X144550000Y-84885000D02*
X144530000Y-84865000D01*
X144469000Y-84865000D02*
X144530000Y-84865000D01*
X144530000Y-84865000D02*
X144469000Y-84865000D01*
X144469000Y-84865000D02*
X144596000Y-84992000D01*
X144596000Y-87532000D02*
X144550000Y-87575000D01*
D28*
X143550000Y-82825000D02*
X143550000Y-77275000D01*
X133100000Y-84865000D02*
X133100000Y-84025000D01*
X133100000Y-84025000D02*
X132100000Y-83025000D01*
X133100000Y-87575000D02*
X133100000Y-84865000D01*
D29*
X133100000Y-84865000D02*
X133039000Y-84865000D01*
X133100000Y-87575000D02*
X133039000Y-87532000D01*
X133039000Y-84865000D02*
X133100000Y-84865000D01*
D28*
X132100000Y-83025000D02*
X132100000Y-77295000D01*
X156000000Y-87475000D02*
X156000000Y-84905000D01*
D29*
X156000000Y-84905000D02*
X155960000Y-84865000D01*
D28*
X155960000Y-84865000D02*
X155960000Y-83685000D01*
X155960000Y-83685000D02*
X154950000Y-82675000D01*
D29*
X155960000Y-84865000D02*
X155899000Y-84865000D01*
X156000000Y-87475000D02*
X156026000Y-87532000D01*
X156026000Y-87532000D02*
X155899000Y-87405000D01*
X155899000Y-84865000D02*
X155960000Y-84865000D01*
D28*
X154950000Y-82675000D02*
X154950000Y-77305000D01*
X166755000Y-84865000D02*
X166755000Y-83105000D01*
X166755000Y-83105000D02*
X166400000Y-82750000D01*
X166750000Y-87575000D02*
X166750000Y-84870000D01*
D29*
X166750000Y-84870000D02*
X166755000Y-84865000D01*
X166755000Y-84865000D02*
X166694000Y-84865000D01*
X166694000Y-84865000D02*
X166567000Y-84738000D01*
X166750000Y-87575000D02*
X166694000Y-87532000D01*
X166694000Y-84865000D02*
X166755000Y-84865000D01*
D28*
X166400000Y-82750000D02*
X166400000Y-77285000D01*
X109225000Y-77310000D02*
X110560000Y-75975000D01*
D29*
X110560000Y-76229000D02*
X110560000Y-75975000D01*
D28*
X120700000Y-77265000D02*
X121990000Y-75975000D01*
D29*
X121990000Y-76229000D02*
X121990000Y-75975000D01*
D28*
X143550000Y-77275000D02*
X144850000Y-75975000D01*
X132100000Y-77295000D02*
X133420000Y-75975000D01*
D29*
X133420000Y-76229000D02*
X133420000Y-75975000D01*
D28*
X154950000Y-77305000D02*
X156280000Y-75975000D01*
D29*
X156280000Y-76229000D02*
X156280000Y-75975000D01*
D28*
X166400000Y-77285000D02*
X167710000Y-75975000D01*
D29*
X167710000Y-76229000D02*
X167710000Y-75975000D01*
M02*
