M48
;DRILL file {KiCad 4.0.1-stable} date 25.04.2016 17:12:56
;FORMAT={-:-/ absolute / metric / decimal}
FMAT,2
METRIC,TZ
T1C0.400
T2C0.920
T3C1.001
T4C1.200
T5C1.350
%
G90
G05
M71
T1
X111.175Y-99.275
X114.275Y-92.75
X115.425Y-100.75
X116.525Y-82.225
X116.8Y-87.75
X125.425Y-92.625
X129.Y-87.725
X137.275Y-92.575
X140.625Y-87.5
X146.4Y-124.05
X147.775Y-92.525
X150.275Y-113.775
X152.025Y-87.475
X157.9Y-101.3
X158.05Y-103.825
X159.5Y-123.025
X159.975Y-119.075
X161.25Y-92.475
X162.925Y-87.55
X162.925Y-95.975
X165.15Y-103.8
X169.55Y-111.525
X171.75Y-92.025
X173.45Y-88.025
X175.225Y-112.475
T2
X110.56Y-75.975
X110.56Y-77.975
X110.56Y-79.975
X110.56Y-81.975
X121.99Y-75.975
X121.99Y-77.975
X121.99Y-79.975
X121.99Y-81.975
X133.42Y-75.975
X133.42Y-77.975
X133.42Y-79.975
X133.42Y-81.975
X144.85Y-75.975
X144.85Y-77.975
X144.85Y-79.975
X144.85Y-81.975
X156.28Y-75.975
X156.28Y-77.975
X156.28Y-79.975
X156.28Y-81.975
X167.71Y-75.975
X167.71Y-77.975
X167.71Y-79.975
X167.71Y-81.975
T3
X161.65Y-98.825
X176.65Y-98.825
T4
X150.65Y-126.75
X153.163Y-126.75
X155.663Y-126.75
X158.163Y-126.75
X160.663Y-126.75
X163.163Y-126.75
X165.663Y-126.75
X168.163Y-126.75
X175.9Y-122.71
X175.9Y-125.21
X175.9Y-127.75
T5
X107.84Y-75.245
X107.84Y-82.245
X113.28Y-75.245
X113.28Y-82.245
X119.27Y-75.245
X119.27Y-82.245
X124.71Y-75.245
X124.71Y-82.245
X130.7Y-75.245
X130.7Y-82.245
X136.14Y-75.245
X136.14Y-82.245
X142.13Y-75.245
X142.13Y-82.245
X147.57Y-75.245
X147.57Y-82.245
X153.56Y-75.245
X153.56Y-82.245
X159.Y-75.245
X159.Y-82.245
X164.99Y-75.245
X164.99Y-82.245
X170.43Y-75.245
X170.43Y-82.245
T3
X109.401Y-106.951G85X109.401Y-108.949
G05
X111.401Y-112.649G85X113.4Y-112.649
G05
X115.4Y-106.951G85X115.4Y-108.949
G05
T0
M30
