%TF.GenerationSoftware,KiCad,Pcbnew,4.0.1-stable*%
%TF.CreationDate,2016-04-25T17:13:01+03:00*%
%TF.ProjectId,6xUSB_PowMet,36785553425F506F774D65742E6B6963,rev?*%
%TF.FileFunction,Copper,L2,Bot,Signal*%
%FSLAX46Y46*%
G04 Gerber Fmt 4.6, Leading zero omitted, Abs format (unit mm)*
G04 Created by KiCad (PCBNEW 4.0.1-stable) date 25.04.2016 17:13:01*
%MOMM*%
G01*
G04 APERTURE LIST*
%ADD10C,0.100000*%
%ADD11C,1.620000*%
%ADD12C,1.850000*%
%ADD13C,1.998980*%
%ADD14R,2.000000X2.000000*%
%ADD15C,2.000000*%
%ADD16R,3.500120X3.500120*%
%ADD17C,0.600000*%
%ADD18C,0.250000*%
%ADD19C,0.500000*%
G04 APERTURE END LIST*
D10*
D11*
X110560000Y-75975000D03*
X110560000Y-77975000D03*
X110560000Y-79975000D03*
D12*
X113280000Y-75245000D03*
D11*
X110560000Y-81975000D03*
D12*
X113280000Y-82245000D03*
X107840000Y-75245000D03*
X107840000Y-82245000D03*
D11*
X133420000Y-75975000D03*
X133420000Y-77975000D03*
X133420000Y-79975000D03*
D12*
X136140000Y-75245000D03*
D11*
X133420000Y-81975000D03*
D12*
X136140000Y-82245000D03*
X130700000Y-75245000D03*
X130700000Y-82245000D03*
D13*
X161650000Y-98825000D03*
X176650000Y-98825000D03*
D11*
X156280000Y-75975000D03*
X156280000Y-77975000D03*
X156280000Y-79975000D03*
D12*
X159000000Y-75245000D03*
D11*
X156280000Y-81975000D03*
D12*
X159000000Y-82245000D03*
X153560000Y-75245000D03*
X153560000Y-82245000D03*
D11*
X121990000Y-75975000D03*
X121990000Y-77975000D03*
X121990000Y-79975000D03*
D12*
X124710000Y-75245000D03*
D11*
X121990000Y-81975000D03*
D12*
X124710000Y-82245000D03*
X119270000Y-75245000D03*
X119270000Y-82245000D03*
D11*
X167710000Y-75975000D03*
X167710000Y-77975000D03*
X167710000Y-79975000D03*
D12*
X170430000Y-75245000D03*
D11*
X167710000Y-81975000D03*
D12*
X170430000Y-82245000D03*
X164990000Y-75245000D03*
X164990000Y-82245000D03*
D11*
X144850000Y-75975000D03*
X144850000Y-77975000D03*
X144850000Y-79975000D03*
D12*
X147570000Y-75245000D03*
D11*
X144850000Y-81975000D03*
D12*
X147570000Y-82245000D03*
X142130000Y-75245000D03*
X142130000Y-82245000D03*
D14*
X150650000Y-126750000D03*
D15*
X153163000Y-126750000D03*
X155663000Y-126750000D03*
X158163000Y-126750000D03*
X160663000Y-126750000D03*
X163163000Y-126750000D03*
X165663000Y-126750000D03*
X168163000Y-126750000D03*
D14*
X175900000Y-127750000D03*
D15*
X175900000Y-125210000D03*
X175900000Y-122710000D03*
D16*
X115400140Y-107950000D03*
X109400660Y-107950000D03*
X112400400Y-112649000D03*
D17*
X159975000Y-119075000D03*
X146400000Y-124050000D03*
X111175000Y-99275000D03*
X175225000Y-112475000D03*
X171750000Y-92025000D03*
X161250000Y-92475000D03*
X147775000Y-92525000D03*
X137275000Y-92575000D03*
X125425000Y-92625000D03*
X116525000Y-82225000D03*
X114275000Y-92750000D03*
X157900000Y-101300000D03*
X150275000Y-113775000D03*
X159500000Y-123025000D03*
X173450000Y-88025000D03*
X162925000Y-87550000D03*
X152025000Y-87475000D03*
X140625000Y-87500000D03*
X129000000Y-87725000D03*
X115425000Y-100750000D03*
X116800000Y-87750000D03*
X162925000Y-95975000D03*
X169550000Y-111525000D03*
X158050000Y-103825000D03*
X165150000Y-103800000D03*
D18*
X130700000Y-82245000D02*
X130753000Y-82198000D01*
X130753000Y-82198000D02*
X131007000Y-81944000D01*
X124710000Y-82245000D02*
X124657000Y-82198000D01*
X124657000Y-82198000D02*
X124710000Y-82245000D01*
X121990000Y-81975000D02*
X121990000Y-81944000D01*
X121990000Y-81944000D02*
X122244000Y-82198000D01*
X121990000Y-81944000D02*
X121990000Y-81975000D01*
X119270000Y-82245000D02*
X119323000Y-82198000D01*
X119323000Y-82198000D02*
X119270000Y-82245000D01*
X119270000Y-82245000D02*
X119323000Y-82198000D01*
X119323000Y-82198000D02*
X119577000Y-81944000D01*
X119270000Y-75245000D02*
X119323000Y-75213000D01*
X119323000Y-75213000D02*
X119270000Y-75245000D01*
X124657000Y-75213000D02*
X124710000Y-75245000D01*
X124710000Y-75245000D02*
X124657000Y-75213000D01*
X124657000Y-75213000D02*
X124276000Y-74832000D01*
X113227000Y-75213000D02*
X113280000Y-75245000D01*
X113280000Y-75245000D02*
X113227000Y-75213000D01*
X113227000Y-75213000D02*
X112846000Y-74832000D01*
X113280000Y-82245000D02*
X113227000Y-82198000D01*
X113227000Y-82198000D02*
X112973000Y-81944000D01*
X110560000Y-81975000D02*
X110560000Y-81944000D01*
X110560000Y-81944000D02*
X110560000Y-81975000D01*
X107893000Y-82198000D02*
X107840000Y-82245000D01*
X107893000Y-75213000D02*
X107840000Y-75245000D01*
D19*
X150275000Y-113775000D02*
X154675000Y-113775000D01*
X154675000Y-113775000D02*
X159975000Y-119075000D01*
X175225000Y-119550000D02*
X175225000Y-112475000D01*
X170725000Y-124050000D02*
X175225000Y-119550000D01*
X146400000Y-124050000D02*
X170725000Y-124050000D01*
X171750000Y-92025000D02*
X171750000Y-109000000D01*
X171750000Y-109000000D02*
X175225000Y-112475000D01*
X161250000Y-92475000D02*
X171350000Y-92475000D01*
D18*
X171750000Y-92075000D02*
X171750000Y-92025000D01*
D19*
X171350000Y-92475000D02*
X171750000Y-92075000D01*
X161250000Y-92475000D02*
X161250000Y-94700000D01*
X157900000Y-98050000D02*
X157900000Y-101300000D01*
X161250000Y-94700000D02*
X157900000Y-98050000D01*
X147775000Y-92525000D02*
X161200000Y-92525000D01*
D18*
X161200000Y-92525000D02*
X161250000Y-92475000D01*
D19*
X137275000Y-92575000D02*
X147725000Y-92575000D01*
D18*
X147725000Y-92575000D02*
X147775000Y-92525000D01*
D19*
X125425000Y-92625000D02*
X137225000Y-92625000D01*
D18*
X137225000Y-92625000D02*
X137275000Y-92575000D01*
D19*
X111175000Y-99275000D02*
X111175000Y-100075000D01*
X125425000Y-100250000D02*
X125425000Y-92625000D01*
X122975000Y-102700000D02*
X125425000Y-100250000D01*
X113800000Y-102700000D02*
X122975000Y-102700000D01*
X111175000Y-100075000D02*
X113800000Y-102700000D01*
X114275000Y-92750000D02*
X114275000Y-84475000D01*
X114275000Y-84475000D02*
X116525000Y-82225000D01*
X114275000Y-96175000D02*
X114275000Y-92750000D01*
X111175000Y-99275000D02*
X114275000Y-96175000D01*
X150275000Y-108925000D02*
X150275000Y-113775000D01*
X157900000Y-101300000D02*
X150275000Y-108925000D01*
D18*
X176650000Y-98825000D02*
X176600000Y-98835000D01*
D19*
X162925000Y-87550000D02*
X172975000Y-87550000D01*
X172975000Y-87550000D02*
X173450000Y-88025000D01*
X152025000Y-87475000D02*
X162850000Y-87475000D01*
D18*
X162850000Y-87475000D02*
X162925000Y-87550000D01*
D19*
X140625000Y-87500000D02*
X152000000Y-87500000D01*
D18*
X152000000Y-87500000D02*
X152025000Y-87475000D01*
D19*
X129000000Y-87725000D02*
X140400000Y-87725000D01*
D18*
X140400000Y-87725000D02*
X140625000Y-87500000D01*
D19*
X116800000Y-87750000D02*
X129025000Y-87750000D01*
D18*
X129025000Y-87750000D02*
X129000000Y-87725000D01*
D19*
X115425000Y-100750000D02*
X116800000Y-99375000D01*
X116800000Y-99375000D02*
X116800000Y-87750000D01*
X169550000Y-102600000D02*
X169550000Y-111525000D01*
X162925000Y-95975000D02*
X169550000Y-102600000D01*
X169550000Y-111525000D02*
X159500000Y-121575000D01*
X159500000Y-121575000D02*
X159500000Y-123025000D01*
X165125000Y-103825000D02*
X158050000Y-103825000D01*
D18*
X165150000Y-103800000D02*
X165125000Y-103825000D01*
M02*
