%TF.GenerationSoftware,KiCad,Pcbnew,4.0.1-stable*%
%TF.CreationDate,2016-04-25T17:13:01+03:00*%
%TF.ProjectId,6xUSB_PowMet,36785553425F506F774D65742E6B6963,rev?*%
%TF.FileFunction,Paste,Top*%
%FSLAX46Y46*%
G04 Gerber Fmt 4.6, Leading zero omitted, Abs format (unit mm)*
G04 Created by KiCad (PCBNEW 4.0.1-stable) date 25.04.2016 17:13:01*
%MOMM*%
G01*
G04 APERTURE LIST*
%ADD10C,0.100000*%
%ADD11R,1.000000X1.250000*%
%ADD12R,1.250000X1.000000*%
%ADD13R,0.550000X1.500000*%
%ADD14R,1.500000X0.550000*%
%ADD15R,1.300000X0.700000*%
%ADD16R,0.700000X1.300000*%
%ADD17R,2.032000X3.657600*%
%ADD18R,2.032000X1.016000*%
%ADD19R,0.650000X1.060000*%
G04 APERTURE END LIST*
D10*
D11*
X112100000Y-84865000D03*
X114100000Y-84865000D03*
D12*
X133400000Y-92550000D03*
X133400000Y-94550000D03*
X158075000Y-92325000D03*
X158075000Y-94325000D03*
X109950000Y-92775000D03*
X109950000Y-94775000D03*
D11*
X171225000Y-110925000D03*
X173225000Y-110925000D03*
D12*
X168200000Y-105175000D03*
X168200000Y-103175000D03*
X147775000Y-111300000D03*
X147775000Y-109300000D03*
D11*
X173695000Y-93755000D03*
X175695000Y-93755000D03*
X159750000Y-101200000D03*
X161750000Y-101200000D03*
X136230000Y-84865000D03*
X138230000Y-84865000D03*
X159090000Y-84865000D03*
X161090000Y-84865000D03*
D12*
X122100000Y-92325000D03*
X122100000Y-94325000D03*
X169050000Y-92050000D03*
X169050000Y-94050000D03*
X144675000Y-92425000D03*
X144675000Y-94425000D03*
D11*
X124800000Y-84865000D03*
X126800000Y-84865000D03*
X169885000Y-84865000D03*
X171885000Y-84865000D03*
X147660000Y-84865000D03*
X149660000Y-84865000D03*
D13*
X154820000Y-117235000D03*
X155620000Y-117235000D03*
X156420000Y-117235000D03*
X157220000Y-117235000D03*
X158020000Y-117235000D03*
X158820000Y-117235000D03*
X159620000Y-117235000D03*
X160420000Y-117235000D03*
X161220000Y-117235000D03*
X162020000Y-117235000D03*
X162820000Y-117235000D03*
D14*
X164520000Y-115535000D03*
X164520000Y-114735000D03*
X164520000Y-113935000D03*
X164520000Y-113135000D03*
X164520000Y-112335000D03*
X164520000Y-111535000D03*
X164520000Y-110735000D03*
X164520000Y-109935000D03*
X164520000Y-109135000D03*
X164520000Y-108335000D03*
X164520000Y-107535000D03*
D13*
X162820000Y-105835000D03*
X162020000Y-105835000D03*
X161220000Y-105835000D03*
X160420000Y-105835000D03*
X159620000Y-105835000D03*
X158820000Y-105835000D03*
X158020000Y-105835000D03*
X157220000Y-105835000D03*
X156420000Y-105835000D03*
X155620000Y-105835000D03*
X154820000Y-105835000D03*
D14*
X153120000Y-107535000D03*
X153120000Y-108335000D03*
X153120000Y-109135000D03*
X153120000Y-109935000D03*
X153120000Y-110735000D03*
X153120000Y-111535000D03*
X153120000Y-112335000D03*
X153120000Y-113135000D03*
X153120000Y-113935000D03*
X153120000Y-114735000D03*
X153120000Y-115535000D03*
D15*
X113950000Y-87875000D03*
X113950000Y-89775000D03*
D16*
X107070000Y-84865000D03*
X108970000Y-84865000D03*
D15*
X107375000Y-92800000D03*
X107375000Y-94700000D03*
X145625000Y-111200000D03*
X145625000Y-109300000D03*
X149930000Y-111215000D03*
X149930000Y-109315000D03*
D16*
X159375000Y-120750000D03*
X157475000Y-120750000D03*
D15*
X131000000Y-92625000D03*
X131000000Y-94525000D03*
X155350000Y-92250000D03*
X155350000Y-94150000D03*
X138050000Y-87625000D03*
X138050000Y-89525000D03*
X160500000Y-87725000D03*
X160500000Y-89625000D03*
D16*
X131200000Y-84865000D03*
X133100000Y-84865000D03*
X154060000Y-84865000D03*
X155960000Y-84865000D03*
D15*
X119700000Y-92425000D03*
X119700000Y-94325000D03*
X166500000Y-92150000D03*
X166500000Y-94050000D03*
X142250000Y-92425000D03*
X142250000Y-94325000D03*
X126650000Y-87725000D03*
X126650000Y-89625000D03*
X171400000Y-87825000D03*
X171400000Y-89725000D03*
D16*
X119770000Y-84865000D03*
X121670000Y-84865000D03*
D15*
X149500000Y-87675000D03*
X149500000Y-89575000D03*
D16*
X164855000Y-84865000D03*
X166755000Y-84865000D03*
X142630000Y-84865000D03*
X144530000Y-84865000D03*
D17*
X178227000Y-105475000D03*
D18*
X171623000Y-105475000D03*
X171623000Y-107761000D03*
X171623000Y-103189000D03*
D19*
X107050000Y-89775000D03*
X108000000Y-89775000D03*
X108950000Y-89775000D03*
X108950000Y-87575000D03*
X107050000Y-87575000D03*
X119750000Y-89775000D03*
X120700000Y-89775000D03*
X121650000Y-89775000D03*
X121650000Y-87575000D03*
X119750000Y-87575000D03*
X131200000Y-89775000D03*
X132150000Y-89775000D03*
X133100000Y-89775000D03*
X133100000Y-87575000D03*
X131200000Y-87575000D03*
X142650000Y-89775000D03*
X143600000Y-89775000D03*
X144550000Y-89775000D03*
X144550000Y-87575000D03*
X142650000Y-87575000D03*
X154100000Y-89675000D03*
X155050000Y-89675000D03*
X156000000Y-89675000D03*
X156000000Y-87475000D03*
X154100000Y-87475000D03*
X164850000Y-89775000D03*
X165800000Y-89775000D03*
X166750000Y-89775000D03*
X166750000Y-87575000D03*
X164850000Y-87575000D03*
M02*
