<?xml version="1.0" standalone="no"?>
 <!DOCTYPE svg PUBLIC "-//W3C//DTD SVG 1.1//EN" 
 "http://www.w3.org/Graphics/SVG/1.1/DTD/svg11.dtd"> 
<svg xmlns="http://www.w3.org/2000/svg" version="1.1" 
    width="29.7002cm" height="21.0007cm" viewBox="0 0 116930 82680 ">
<title>SVG Picture created as 6xUSB_PowMet-F.SilkS.svg date 2016/04/18 14:39:49 </title>
  <desc>Picture generated by PCBNEW </desc>
<g style="fill:#000000; fill-opacity:1;stroke:#000000; stroke-opacity:1;
stroke-linecap:round; stroke-linejoin:round; "
 transform="translate(0 0) scale(1 1)">
</g>
<g style="fill:#000000; fill-opacity:0.0; 
stroke:#000000; stroke-width:-0.000393701; stroke-opacity:1; 
stroke-linecap:round; stroke-linejoin:round;">
</g>
<g style="fill:#000000; fill-opacity:0.0; 
stroke:#000000; stroke-width:39.3701; stroke-opacity:1; 
stroke-linecap:round; stroke-linejoin:round;">
</g>
<g style="fill:#000000; fill-opacity:0.0; 
stroke:#000000; stroke-width:59.0551; stroke-opacity:1; 
stroke-linecap:round; stroke-linejoin:round;">
<rect x="69685.9" y="65357.2" width="42519.7" height="12598.4" rx="0" />
</g>
<g style="fill:#000000; fill-opacity:0.0; 
stroke:#000000; stroke-width:39.3701; stroke-opacity:1; 
stroke-linecap:round; stroke-linejoin:round;">
</g>
<g style="fill:#000000; fill-opacity:0.0; 
stroke:#000000; stroke-width:59.0551; stroke-opacity:1; 
stroke-linecap:round; stroke-linejoin:round;">
<rect x="3937.01" y="3937.01" width="109056" height="74806" rx="0" />
</g>
<g style="fill:#000000; fill-opacity:0.0; 
stroke:#000000; stroke-width:39.3701; stroke-opacity:1; 
stroke-linecap:round; stroke-linejoin:round;">
</g>
<g style="fill:#000000; fill-opacity:0.0; 
stroke:#000000; stroke-width:59.0551; stroke-opacity:1; 
stroke-linecap:round; stroke-linejoin:round;">
<rect x="4724.41" y="4724.41" width="107481" height="73231.2" rx="0" />
</g>
<g style="fill:#000000; fill-opacity:0.0; 
stroke:#000000; stroke-width:39.3701; stroke-opacity:1; 
stroke-linecap:round; stroke-linejoin:round;">
</g>
<g style="fill:#000000; fill-opacity:0.0; 
stroke:#000000; stroke-width:59.0551; stroke-opacity:1; 
stroke-linecap:round; stroke-linejoin:round;">
<path d="M23622 4724
L23622 3937
" />
</g>
<g style="fill:#000000; fill-opacity:0.0; 
stroke:#000000; stroke-width:39.3701; stroke-opacity:1; 
stroke-linecap:round; stroke-linejoin:round;">
</g>
<g style="fill:#000000; fill-opacity:0.0; 
stroke:#000000; stroke-width:59.0551; stroke-opacity:1; 
stroke-linecap:round; stroke-linejoin:round;">
<path d="M43307 4724
L43307 3937
" />
</g>
<g style="fill:#000000; fill-opacity:0.0; 
stroke:#000000; stroke-width:39.3701; stroke-opacity:1; 
stroke-linecap:round; stroke-linejoin:round;">
</g>
<g style="fill:#000000; fill-opacity:0.0; 
stroke:#000000; stroke-width:59.0551; stroke-opacity:1; 
stroke-linecap:round; stroke-linejoin:round;">
<path d="M62992 4724
L62992 3937
" />
</g>
<g style="fill:#000000; fill-opacity:0.0; 
stroke:#000000; stroke-width:39.3701; stroke-opacity:1; 
stroke-linecap:round; stroke-linejoin:round;">
</g>
<g style="fill:#000000; fill-opacity:0.0; 
stroke:#000000; stroke-width:59.0551; stroke-opacity:1; 
stroke-linecap:round; stroke-linejoin:round;">
<path d="M82677 4724
L82677 3937
" />
</g>
<g style="fill:#000000; fill-opacity:0.0; 
stroke:#000000; stroke-width:39.3701; stroke-opacity:1; 
stroke-linecap:round; stroke-linejoin:round;">
</g>
<g style="fill:#000000; fill-opacity:0.0; 
stroke:#000000; stroke-width:59.0551; stroke-opacity:1; 
stroke-linecap:round; stroke-linejoin:round;">
<path d="M102362 4724
L102362 3937
" />
</g>
<g style="fill:#000000; fill-opacity:0.0; 
stroke:#000000; stroke-width:39.3701; stroke-opacity:1; 
stroke-linecap:round; stroke-linejoin:round;">
</g>
<g style="fill:#000000; fill-opacity:0.0; 
stroke:#000000; stroke-width:59.0551; stroke-opacity:1; 
stroke-linecap:round; stroke-linejoin:round;">
<path d="M14169 4562
L13877 4562
" />
<path d="M14023 4562
L14023 4050
L13974 4123
L13925 4172
L13877 4196
" />
</g>
<g style="fill:#000000; fill-opacity:0.0; 
stroke:#000000; stroke-width:39.3701; stroke-opacity:1; 
stroke-linecap:round; stroke-linejoin:round;">
</g>
<g style="fill:#000000; fill-opacity:0.0; 
stroke:#000000; stroke-width:59.0551; stroke-opacity:1; 
stroke-linecap:round; stroke-linejoin:round;">
<path d="M33562 4099
L33586 4074
L33635 4050
L33757 4050
L33805 4074
L33830 4099
L33854 4147
L33854 4196
L33830 4269
L33537 4562
L33854 4562
" />
</g>
<g style="fill:#000000; fill-opacity:0.0; 
stroke:#000000; stroke-width:39.3701; stroke-opacity:1; 
stroke-linecap:round; stroke-linejoin:round;">
</g>
<g style="fill:#000000; fill-opacity:0.0; 
stroke:#000000; stroke-width:59.0551; stroke-opacity:1; 
stroke-linecap:round; stroke-linejoin:round;">
<path d="M53222 4050
L53539 4050
L53368 4245
L53442 4245
L53490 4269
L53515 4294
L53539 4342
L53539 4464
L53515 4513
L53490 4537
L53442 4562
L53295 4562
L53247 4537
L53222 4513
" />
</g>
<g style="fill:#000000; fill-opacity:0.0; 
stroke:#000000; stroke-width:39.3701; stroke-opacity:1; 
stroke-linecap:round; stroke-linejoin:round;">
</g>
<g style="fill:#000000; fill-opacity:0.0; 
stroke:#000000; stroke-width:59.0551; stroke-opacity:1; 
stroke-linecap:round; stroke-linejoin:round;">
<path d="M73175 4221
L73175 4562
" />
<path d="M73053 4026
L72932 4391
L73248 4391
" />
</g>
<g style="fill:#000000; fill-opacity:0.0; 
stroke:#000000; stroke-width:39.3701; stroke-opacity:1; 
stroke-linecap:round; stroke-linejoin:round;">
</g>
<g style="fill:#000000; fill-opacity:0.0; 
stroke:#000000; stroke-width:59.0551; stroke-opacity:1; 
stroke-linecap:round; stroke-linejoin:round;">
<path d="M92885 4050
L92641 4050
L92617 4294
L92641 4269
L92690 4245
L92812 4245
L92860 4269
L92885 4294
L92909 4342
L92909 4464
L92885 4513
L92860 4537
L92812 4562
L92690 4562
L92641 4537
L92617 4513
" />
</g>
<g style="fill:#000000; fill-opacity:0.0; 
stroke:#000000; stroke-width:39.3701; stroke-opacity:1; 
stroke-linecap:round; stroke-linejoin:round;">
</g>
<g style="fill:#000000; fill-opacity:0.0; 
stroke:#000000; stroke-width:59.0551; stroke-opacity:1; 
stroke-linecap:round; stroke-linejoin:round;">
<path d="M112545 4050
L112448 4050
L112399 4074
L112375 4099
L112326 4172
L112302 4269
L112302 4464
L112326 4513
L112350 4537
L112399 4562
L112497 4562
L112545 4537
L112570 4513
L112594 4464
L112594 4342
L112570 4294
L112545 4269
L112497 4245
L112399 4245
L112350 4269
L112326 4294
L112302 4342
" />
</g>
<g style="fill:#000000; fill-opacity:0.0; 
stroke:#000000; stroke-width:39.3701; stroke-opacity:1; 
stroke-linecap:round; stroke-linejoin:round;">
</g>
<g style="fill:#000000; fill-opacity:0.0; 
stroke:#000000; stroke-width:59.0551; stroke-opacity:1; 
stroke-linecap:round; stroke-linejoin:round;">
<path d="M23622 77955
L23622 78742
" />
</g>
<g style="fill:#000000; fill-opacity:0.0; 
stroke:#000000; stroke-width:39.3701; stroke-opacity:1; 
stroke-linecap:round; stroke-linejoin:round;">
</g>
<g style="fill:#000000; fill-opacity:0.0; 
stroke:#000000; stroke-width:59.0551; stroke-opacity:1; 
stroke-linecap:round; stroke-linejoin:round;">
<path d="M43307 77955
L43307 78742
" />
</g>
<g style="fill:#000000; fill-opacity:0.0; 
stroke:#000000; stroke-width:39.3701; stroke-opacity:1; 
stroke-linecap:round; stroke-linejoin:round;">
</g>
<g style="fill:#000000; fill-opacity:0.0; 
stroke:#000000; stroke-width:59.0551; stroke-opacity:1; 
stroke-linecap:round; stroke-linejoin:round;">
<path d="M62992 77955
L62992 78742
" />
</g>
<g style="fill:#000000; fill-opacity:0.0; 
stroke:#000000; stroke-width:39.3701; stroke-opacity:1; 
stroke-linecap:round; stroke-linejoin:round;">
</g>
<g style="fill:#000000; fill-opacity:0.0; 
stroke:#000000; stroke-width:59.0551; stroke-opacity:1; 
stroke-linecap:round; stroke-linejoin:round;">
<path d="M82677 77955
L82677 78742
" />
</g>
<g style="fill:#000000; fill-opacity:0.0; 
stroke:#000000; stroke-width:39.3701; stroke-opacity:1; 
stroke-linecap:round; stroke-linejoin:round;">
</g>
<g style="fill:#000000; fill-opacity:0.0; 
stroke:#000000; stroke-width:59.0551; stroke-opacity:1; 
stroke-linecap:round; stroke-linejoin:round;">
<path d="M102362 77955
L102362 78742
" />
</g>
<g style="fill:#000000; fill-opacity:0.0; 
stroke:#000000; stroke-width:39.3701; stroke-opacity:1; 
stroke-linecap:round; stroke-linejoin:round;">
</g>
<g style="fill:#000000; fill-opacity:0.0; 
stroke:#000000; stroke-width:59.0551; stroke-opacity:1; 
stroke-linecap:round; stroke-linejoin:round;">
<path d="M14169 78580
L13877 78580
" />
<path d="M14023 78580
L14023 78069
L13974 78142
L13925 78190
L13877 78215
" />
</g>
<g style="fill:#000000; fill-opacity:0.0; 
stroke:#000000; stroke-width:39.3701; stroke-opacity:1; 
stroke-linecap:round; stroke-linejoin:round;">
</g>
<g style="fill:#000000; fill-opacity:0.0; 
stroke:#000000; stroke-width:59.0551; stroke-opacity:1; 
stroke-linecap:round; stroke-linejoin:round;">
<path d="M33562 78117
L33586 78093
L33635 78069
L33757 78069
L33805 78093
L33830 78117
L33854 78166
L33854 78215
L33830 78288
L33537 78580
L33854 78580
" />
</g>
<g style="fill:#000000; fill-opacity:0.0; 
stroke:#000000; stroke-width:39.3701; stroke-opacity:1; 
stroke-linecap:round; stroke-linejoin:round;">
</g>
<g style="fill:#000000; fill-opacity:0.0; 
stroke:#000000; stroke-width:59.0551; stroke-opacity:1; 
stroke-linecap:round; stroke-linejoin:round;">
<path d="M53222 78069
L53539 78069
L53368 78263
L53442 78263
L53490 78288
L53515 78312
L53539 78361
L53539 78483
L53515 78532
L53490 78556
L53442 78580
L53295 78580
L53247 78556
L53222 78532
" />
</g>
<g style="fill:#000000; fill-opacity:0.0; 
stroke:#000000; stroke-width:39.3701; stroke-opacity:1; 
stroke-linecap:round; stroke-linejoin:round;">
</g>
<g style="fill:#000000; fill-opacity:0.0; 
stroke:#000000; stroke-width:59.0551; stroke-opacity:1; 
stroke-linecap:round; stroke-linejoin:round;">
<path d="M73175 78239
L73175 78580
" />
<path d="M73053 78044
L72932 78410
L73248 78410
" />
</g>
<g style="fill:#000000; fill-opacity:0.0; 
stroke:#000000; stroke-width:39.3701; stroke-opacity:1; 
stroke-linecap:round; stroke-linejoin:round;">
</g>
<g style="fill:#000000; fill-opacity:0.0; 
stroke:#000000; stroke-width:59.0551; stroke-opacity:1; 
stroke-linecap:round; stroke-linejoin:round;">
<path d="M92885 78069
L92641 78069
L92617 78312
L92641 78288
L92690 78263
L92812 78263
L92860 78288
L92885 78312
L92909 78361
L92909 78483
L92885 78532
L92860 78556
L92812 78580
L92690 78580
L92641 78556
L92617 78532
" />
</g>
<g style="fill:#000000; fill-opacity:0.0; 
stroke:#000000; stroke-width:39.3701; stroke-opacity:1; 
stroke-linecap:round; stroke-linejoin:round;">
</g>
<g style="fill:#000000; fill-opacity:0.0; 
stroke:#000000; stroke-width:59.0551; stroke-opacity:1; 
stroke-linecap:round; stroke-linejoin:round;">
<path d="M112545 78069
L112448 78069
L112399 78093
L112375 78117
L112326 78190
L112302 78288
L112302 78483
L112326 78532
L112350 78556
L112399 78580
L112497 78580
L112545 78556
L112570 78532
L112594 78483
L112594 78361
L112570 78312
L112545 78288
L112497 78263
L112399 78263
L112350 78288
L112326 78312
L112302 78361
" />
</g>
<g style="fill:#000000; fill-opacity:0.0; 
stroke:#000000; stroke-width:39.3701; stroke-opacity:1; 
stroke-linecap:round; stroke-linejoin:round;">
</g>
<g style="fill:#000000; fill-opacity:0.0; 
stroke:#000000; stroke-width:59.0551; stroke-opacity:1; 
stroke-linecap:round; stroke-linejoin:round;">
<path d="M3937 23622
L4724 23622
" />
</g>
<g style="fill:#000000; fill-opacity:0.0; 
stroke:#000000; stroke-width:39.3701; stroke-opacity:1; 
stroke-linecap:round; stroke-linejoin:round;">
</g>
<g style="fill:#000000; fill-opacity:0.0; 
stroke:#000000; stroke-width:59.0551; stroke-opacity:1; 
stroke-linecap:round; stroke-linejoin:round;">
<path d="M3937 43307
L4724 43307
" />
</g>
<g style="fill:#000000; fill-opacity:0.0; 
stroke:#000000; stroke-width:39.3701; stroke-opacity:1; 
stroke-linecap:round; stroke-linejoin:round;">
</g>
<g style="fill:#000000; fill-opacity:0.0; 
stroke:#000000; stroke-width:59.0551; stroke-opacity:1; 
stroke-linecap:round; stroke-linejoin:round;">
<path d="M3937 62992
L4724 62992
" />
</g>
<g style="fill:#000000; fill-opacity:0.0; 
stroke:#000000; stroke-width:39.3701; stroke-opacity:1; 
stroke-linecap:round; stroke-linejoin:round;">
</g>
<g style="fill:#000000; fill-opacity:0.0; 
stroke:#000000; stroke-width:59.0551; stroke-opacity:1; 
stroke-linecap:round; stroke-linejoin:round;">
<path d="M4208 13864
L4452 13864
" />
<path d="M4160 14011
L4330 13499
L4501 14011
" />
</g>
<g style="fill:#000000; fill-opacity:0.0; 
stroke:#000000; stroke-width:39.3701; stroke-opacity:1; 
stroke-linecap:round; stroke-linejoin:round;">
</g>
<g style="fill:#000000; fill-opacity:0.0; 
stroke:#000000; stroke-width:59.0551; stroke-opacity:1; 
stroke-linecap:round; stroke-linejoin:round;">
<path d="M4367 33428
L4440 33452
L4464 33476
L4489 33525
L4489 33598
L4464 33647
L4440 33671
L4391 33696
L4196 33696
L4196 33184
L4367 33184
L4416 33208
L4440 33233
L4464 33281
L4464 33330
L4440 33379
L4416 33403
L4367 33428
L4196 33428
" />
</g>
<g style="fill:#000000; fill-opacity:0.0; 
stroke:#000000; stroke-width:39.3701; stroke-opacity:1; 
stroke-linecap:round; stroke-linejoin:round;">
</g>
<g style="fill:#000000; fill-opacity:0.0; 
stroke:#000000; stroke-width:59.0551; stroke-opacity:1; 
stroke-linecap:round; stroke-linejoin:round;">
<path d="M4489 53332
L4464 53356
L4391 53381
L4342 53381
L4269 53356
L4221 53308
L4196 53259
L4172 53161
L4172 53088
L4196 52991
L4221 52942
L4269 52893
L4342 52869
L4391 52869
L4464 52893
L4489 52918
" />
</g>
<g style="fill:#000000; fill-opacity:0.0; 
stroke:#000000; stroke-width:39.3701; stroke-opacity:1; 
stroke-linecap:round; stroke-linejoin:round;">
</g>
<g style="fill:#000000; fill-opacity:0.0; 
stroke:#000000; stroke-width:59.0551; stroke-opacity:1; 
stroke-linecap:round; stroke-linejoin:round;">
<path d="M4196 73066
L4196 72554
L4318 72554
L4391 72578
L4440 72627
L4464 72676
L4489 72773
L4489 72846
L4464 72944
L4440 72993
L4391 73041
L4318 73066
L4196 73066
" />
</g>
<g style="fill:#000000; fill-opacity:0.0; 
stroke:#000000; stroke-width:39.3701; stroke-opacity:1; 
stroke-linecap:round; stroke-linejoin:round;">
</g>
<g style="fill:#000000; fill-opacity:0.0; 
stroke:#000000; stroke-width:59.0551; stroke-opacity:1; 
stroke-linecap:round; stroke-linejoin:round;">
<path d="M112992 23622
L112205 23622
" />
</g>
<g style="fill:#000000; fill-opacity:0.0; 
stroke:#000000; stroke-width:39.3701; stroke-opacity:1; 
stroke-linecap:round; stroke-linejoin:round;">
</g>
<g style="fill:#000000; fill-opacity:0.0; 
stroke:#000000; stroke-width:59.0551; stroke-opacity:1; 
stroke-linecap:round; stroke-linejoin:round;">
<path d="M112992 43307
L112205 43307
" />
</g>
<g style="fill:#000000; fill-opacity:0.0; 
stroke:#000000; stroke-width:39.3701; stroke-opacity:1; 
stroke-linecap:round; stroke-linejoin:round;">
</g>
<g style="fill:#000000; fill-opacity:0.0; 
stroke:#000000; stroke-width:59.0551; stroke-opacity:1; 
stroke-linecap:round; stroke-linejoin:round;">
<path d="M112992 62992
L112205 62992
" />
</g>
<g style="fill:#000000; fill-opacity:0.0; 
stroke:#000000; stroke-width:39.3701; stroke-opacity:1; 
stroke-linecap:round; stroke-linejoin:round;">
</g>
<g style="fill:#000000; fill-opacity:0.0; 
stroke:#000000; stroke-width:59.0551; stroke-opacity:1; 
stroke-linecap:round; stroke-linejoin:round;">
<path d="M112477 13864
L112721 13864
" />
<path d="M112428 14011
L112599 13499
L112769 14011
" />
</g>
<g style="fill:#000000; fill-opacity:0.0; 
stroke:#000000; stroke-width:39.3701; stroke-opacity:1; 
stroke-linecap:round; stroke-linejoin:round;">
</g>
<g style="fill:#000000; fill-opacity:0.0; 
stroke:#000000; stroke-width:59.0551; stroke-opacity:1; 
stroke-linecap:round; stroke-linejoin:round;">
<path d="M112635 33428
L112708 33452
L112733 33476
L112757 33525
L112757 33598
L112733 33647
L112708 33671
L112660 33696
L112465 33696
L112465 33184
L112635 33184
L112684 33208
L112708 33233
L112733 33281
L112733 33330
L112708 33379
L112684 33403
L112635 33428
L112465 33428
" />
</g>
<g style="fill:#000000; fill-opacity:0.0; 
stroke:#000000; stroke-width:39.3701; stroke-opacity:1; 
stroke-linecap:round; stroke-linejoin:round;">
</g>
<g style="fill:#000000; fill-opacity:0.0; 
stroke:#000000; stroke-width:59.0551; stroke-opacity:1; 
stroke-linecap:round; stroke-linejoin:round;">
<path d="M112757 53332
L112733 53356
L112660 53381
L112611 53381
L112538 53356
L112489 53308
L112465 53259
L112440 53161
L112440 53088
L112465 52991
L112489 52942
L112538 52893
L112611 52869
L112660 52869
L112733 52893
L112757 52918
" />
</g>
<g style="fill:#000000; fill-opacity:0.0; 
stroke:#000000; stroke-width:39.3701; stroke-opacity:1; 
stroke-linecap:round; stroke-linejoin:round;">
</g>
<g style="fill:#000000; fill-opacity:0.0; 
stroke:#000000; stroke-width:59.0551; stroke-opacity:1; 
stroke-linecap:round; stroke-linejoin:round;">
<path d="M112465 73066
L112465 72554
L112587 72554
L112660 72578
L112708 72627
L112733 72676
L112757 72773
L112757 72846
L112733 72944
L112708 72993
L112660 73041
L112587 73066
L112465 73066
" />
</g>
<g style="fill:#000000; fill-opacity:0.0; 
stroke:#000000; stroke-width:39.3701; stroke-opacity:1; 
stroke-linecap:round; stroke-linejoin:round;">
</g>
<g style="fill:#000000; fill-opacity:0.0; 
stroke:#000000; stroke-width:59.0551; stroke-opacity:1; 
stroke-linecap:round; stroke-linejoin:round;">
<path d="M78881 76293
L78881 75703
L79022 75703
L79106 75731
L79162 75787
L79190 75843
L79219 75956
L79219 76040
L79190 76153
L79162 76209
L79106 76265
L79022 76293
L78881 76293
" />
<path d="M79725 76293
L79725 75984
L79697 75928
L79640 75899
L79528 75899
L79472 75928
" />
<path d="M79725 76265
L79669 76293
L79528 76293
L79472 76265
L79444 76209
L79444 76153
L79472 76096
L79528 76068
L79669 76068
L79725 76040
" />
<path d="M79922 75899
L80147 75899
" />
<path d="M80006 75703
L80006 76209
L80034 76265
L80090 76293
L80147 76293
" />
<path d="M80568 76265
L80512 76293
L80400 76293
L80343 76265
L80315 76209
L80315 75984
L80343 75928
L80400 75899
L80512 75899
L80568 75928
L80597 75984
L80597 76040
L80315 76096
" />
<path d="M80850 76237
L80878 76265
L80850 76293
L80822 76265
L80850 76237
L80850 76293
" />
<path d="M80850 75928
L80878 75956
L80850 75984
L80822 75956
L80850 75928
L80850 75984
" />
<path d="M81553 75759
L81581 75731
L81637 75703
L81778 75703
L81834 75731
L81862 75759
L81890 75815
L81890 75871
L81862 75956
L81525 76293
L81890 76293
" />
<path d="M82256 75703
L82312 75703
L82368 75731
L82396 75759
L82424 75815
L82453 75928
L82453 76068
L82424 76181
L82396 76237
L82368 76265
L82312 76293
L82256 76293
L82199 76265
L82171 76237
L82143 76181
L82115 76068
L82115 75928
L82143 75815
L82171 75759
L82199 75731
L82256 75703
" />
<path d="M83015 76293
L82678 76293
" />
<path d="M82846 76293
L82846 75703
L82790 75787
L82734 75843
L82678 75871
" />
<path d="M83521 75703
L83409 75703
L83352 75731
L83324 75759
L83268 75843
L83240 75956
L83240 76181
L83268 76237
L83296 76265
L83352 76293
L83465 76293
L83521 76265
L83549 76237
L83577 76181
L83577 76040
L83549 75984
L83521 75956
L83465 75928
L83352 75928
L83296 75956
L83268 75984
L83240 76040
" />
<path d="M83831 76068
L84280 76068
" />
<path d="M84674 75703
L84730 75703
L84787 75731
L84815 75759
L84843 75815
L84871 75928
L84871 76068
L84843 76181
L84815 76237
L84787 76265
L84730 76293
L84674 76293
L84618 76265
L84590 76237
L84562 76181
L84534 76068
L84534 75928
L84562 75815
L84590 75759
L84618 75731
L84674 75703
" />
<path d="M85377 75899
L85377 76293
" />
<path d="M85237 75674
L85096 76096
L85462 76096
" />
<path d="M85687 76068
L86136 76068
" />
<path d="M86727 76293
L86390 76293
" />
<path d="M86558 76293
L86558 75703
L86502 75787
L86446 75843
L86390 75871
" />
<path d="M87064 75956
L87008 75928
L86980 75899
L86952 75843
L86952 75815
L86980 75759
L87008 75731
L87064 75703
L87177 75703
L87233 75731
L87261 75759
L87289 75815
L87289 75843
L87261 75899
L87233 75928
L87177 75956
L87064 75956
L87008 75984
L86980 76012
L86952 76068
L86952 76181
L86980 76237
L87008 76265
L87064 76293
L87177 76293
L87233 76265
L87261 76237
L87289 76181
L87289 76068
L87261 76012
L87233 75984
L87177 75956
" />
</g>
<g style="fill:#000000; fill-opacity:0.0; 
stroke:#000000; stroke-width:39.3701; stroke-opacity:1; 
stroke-linecap:round; stroke-linejoin:round;">
</g>
<g style="fill:#000000; fill-opacity:0.0; 
stroke:#000000; stroke-width:59.0551; stroke-opacity:1; 
stroke-linecap:round; stroke-linejoin:round;">
<path d="M69685 76577
L112205 76577
" />
</g>
<g style="fill:#000000; fill-opacity:0.0; 
stroke:#000000; stroke-width:39.3701; stroke-opacity:1; 
stroke-linecap:round; stroke-linejoin:round;">
</g>
<g style="fill:#000000; fill-opacity:0.0; 
stroke:#000000; stroke-width:59.0551; stroke-opacity:1; 
stroke-linecap:round; stroke-linejoin:round;">
<path d="M70220 77395
L70220 76805
" />
<path d="M70557 77395
L70304 77058
" />
<path d="M70557 76805
L70220 77142
" />
<path d="M70810 77395
L70810 77002
" />
<path d="M70810 76805
L70782 76833
L70810 76861
L70838 76833
L70810 76805
L70810 76861
" />
<path d="M71429 77339
L71401 77367
L71316 77395
L71260 77395
L71176 77367
L71120 77311
L71091 77255
L71063 77142
L71063 77058
L71091 76946
L71120 76889
L71176 76833
L71260 76805
L71316 76805
L71401 76833
L71429 76861
" />
<path d="M71935 77395
L71935 77086
L71907 77030
L71851 77002
L71738 77002
L71682 77030
" />
<path d="M71935 77367
L71879 77395
L71738 77395
L71682 77367
L71654 77311
L71654 77255
L71682 77199
L71738 77171
L71879 77171
L71935 77142
" />
<path d="M72469 77395
L72469 76805
" />
<path d="M72469 77367
L72413 77395
L72301 77395
L72244 77367
L72216 77339
L72188 77283
L72188 77114
L72216 77058
L72244 77030
L72301 77002
L72413 77002
L72469 77030
" />
<path d="M73201 77086
L73397 77086
" />
<path d="M73482 77395
L73201 77395
L73201 76805
L73482 76805
" />
<path d="M73735 77339
L73763 77367
L73735 77395
L73707 77367
L73735 77339
L73735 77395
" />
<path d="M74016 77395
L74016 76805
L74157 76805
L74241 76833
L74297 76889
L74325 76946
L74354 77058
L74354 77142
L74325 77255
L74297 77311
L74241 77367
L74157 77395
L74016 77395
" />
<path d="M74607 77339
L74635 77367
L74607 77395
L74579 77367
L74607 77339
L74607 77395
" />
<path d="M74860 77227
L75141 77227
" />
<path d="M74804 77395
L75000 76805
L75197 77395
" />
<path d="M75394 77339
L75422 77367
L75394 77395
L75366 77367
L75394 77339
L75394 77395
" />
<path d="M76575 77395
L76575 76805
" />
<path d="M76631 77171
L76800 77395
" />
<path d="M76800 77002
L76575 77227
" />
<path d="M77053 77395
L77053 77002
" />
<path d="M77053 76805
L77025 76833
L77053 76861
L77081 76833
L77053 76805
L77053 76861
" />
<path d="M77588 77367
L77531 77395
L77419 77395
L77363 77367
L77334 77339
L77306 77283
L77306 77114
L77334 77058
L77363 77030
L77419 77002
L77531 77002
L77588 77030
" />
<path d="M78094 77395
L78094 77086
L78066 77030
L78009 77002
L77897 77002
L77841 77030
" />
<path d="M78094 77367
L78037 77395
L77897 77395
L77841 77367
L77813 77311
L77813 77255
L77841 77199
L77897 77171
L78037 77171
L78094 77142
" />
<path d="M78628 77395
L78628 76805
" />
<path d="M78628 77367
L78572 77395
L78459 77395
L78403 77367
L78375 77339
L78347 77283
L78347 77114
L78375 77058
L78403 77030
L78459 77002
L78572 77002
L78628 77030
" />
<path d="M79612 77002
L79612 77395
" />
<path d="M79472 76777
L79331 77199
L79697 77199
" />
<path d="M79922 77339
L79950 77367
L79922 77395
L79894 77367
L79922 77339
L79922 77395
" />
<path d="M80315 76805
L80372 76805
L80428 76833
L80456 76861
L80484 76917
L80512 77030
L80512 77171
L80484 77283
L80456 77339
L80428 77367
L80372 77395
L80315 77395
L80259 77367
L80231 77339
L80203 77283
L80175 77171
L80175 77030
L80203 76917
L80231 76861
L80259 76833
L80315 76805
" />
<path d="M80765 77339
L80793 77367
L80765 77395
L80737 77367
L80765 77339
L80765 77395
" />
<path d="M81356 77395
L81018 77395
" />
<path d="M81187 77395
L81187 76805
L81131 76889
L81075 76946
L81018 76974
" />
<path d="M81609 77171
L82059 77171
" />
<path d="M82312 77367
L82368 77395
L82481 77395
L82537 77367
L82565 77311
L82565 77283
L82537 77227
L82481 77199
L82396 77199
L82340 77171
L82312 77114
L82312 77086
L82340 77030
L82396 77002
L82481 77002
L82537 77030
" />
<path d="M82734 77002
L82959 77002
" />
<path d="M82818 76805
L82818 77311
L82846 77367
L82903 77395
L82959 77395
" />
<path d="M83409 77395
L83409 77086
L83381 77030
L83324 77002
L83212 77002
L83156 77030
" />
<path d="M83409 77367
L83352 77395
L83212 77395
L83156 77367
L83127 77311
L83127 77255
L83156 77199
L83212 77171
L83352 77171
L83409 77142
" />
<path d="M83690 77395
L83690 76805
" />
<path d="M83690 77030
L83746 77002
L83859 77002
L83915 77030
L83943 77058
L83971 77114
L83971 77283
L83943 77339
L83915 77367
L83859 77395
L83746 77395
L83690 77367
" />
<path d="M84309 77395
L84252 77367
L84224 77311
L84224 76805
" />
<path d="M84759 77367
L84702 77395
L84590 77395
L84534 77367
L84505 77311
L84505 77086
L84534 77030
L84590 77002
L84702 77002
L84759 77030
L84787 77086
L84787 77142
L84505 77199
" />
</g>
<g style="fill:#000000; fill-opacity:0.0; 
stroke:#000000; stroke-width:39.3701; stroke-opacity:1; 
stroke-linecap:round; stroke-linejoin:round;">
</g>
<g style="fill:#000000; fill-opacity:0.0; 
stroke:#000000; stroke-width:59.0551; stroke-opacity:1; 
stroke-linecap:round; stroke-linejoin:round;">
<path d="M69685 75396
L112205 75396
" />
</g>
<g style="fill:#000000; fill-opacity:0.0; 
stroke:#000000; stroke-width:39.3701; stroke-opacity:1; 
stroke-linecap:round; stroke-linejoin:round;">
</g>
<g style="fill:#000000; fill-opacity:0.0; 
stroke:#000000; stroke-width:118.11; stroke-opacity:1; 
stroke-linecap:round; stroke-linejoin:round;">
<path d="M104022 76293
L103825 76012
" />
<path d="M103684 76293
L103684 75703
L103909 75703
L103965 75731
L103994 75759
L104022 75815
L104022 75899
L103994 75956
L103965 75984
L103909 76012
L103684 76012
" />
<path d="M104500 76265
L104444 76293
L104331 76293
L104275 76265
L104247 76209
L104247 75984
L104275 75928
L104331 75899
L104444 75899
L104500 75928
L104528 75984
L104528 76040
L104247 76096
" />
<path d="M104725 75899
L104865 76293
L105006 75899
" />
<path d="M105231 76237
L105259 76265
L105231 76293
L105203 76265
L105231 76237
L105231 76293
" />
<path d="M105231 75928
L105259 75956
L105231 75984
L105203 75956
L105231 75928
L105231 75984
" />
</g>
<g style="fill:#000000; fill-opacity:0.0; 
stroke:#000000; stroke-width:39.3701; stroke-opacity:1; 
stroke-linecap:round; stroke-linejoin:round;">
</g>
<g style="fill:#000000; fill-opacity:0.0; 
stroke:#000000; stroke-width:59.0551; stroke-opacity:1; 
stroke-linecap:round; stroke-linejoin:round;">
<path d="M70192 76265
L70276 76293
L70417 76293
L70473 76265
L70501 76237
L70529 76181
L70529 76124
L70501 76068
L70473 76040
L70417 76012
L70304 75984
L70248 75956
L70220 75928
L70192 75871
L70192 75815
L70220 75759
L70248 75731
L70304 75703
L70445 75703
L70529 75731
" />
<path d="M70782 76293
L70782 75899
" />
<path d="M70782 75703
L70754 75731
L70782 75759
L70810 75731
L70782 75703
L70782 75759
" />
<path d="M71007 75899
L71316 75899
L71007 76293
L71316 76293
" />
<path d="M71766 76265
L71710 76293
L71598 76293
L71541 76265
L71513 76209
L71513 75984
L71541 75928
L71598 75899
L71710 75899
L71766 75928
L71795 75984
L71795 76040
L71513 76096
" />
<path d="M72048 76237
L72076 76265
L72048 76293
L72019 76265
L72048 76237
L72048 76293
" />
<path d="M72048 75928
L72076 75956
L72048 75984
L72019 75956
L72048 75928
L72048 75984
" />
<path d="M72751 76124
L73032 76124
" />
<path d="M72694 76293
L72891 75703
L73088 76293
" />
<path d="M73538 75899
L73538 76293
" />
<path d="M73397 75674
L73257 76096
L73622 76096
" />
</g>
<g style="fill:#000000; fill-opacity:0.0; 
stroke:#000000; stroke-width:39.3701; stroke-opacity:1; 
stroke-linecap:round; stroke-linejoin:round;">
</g>
<g style="fill:#000000; fill-opacity:0.0; 
stroke:#000000; stroke-width:59.0551; stroke-opacity:1; 
stroke-linecap:round; stroke-linejoin:round;">
<path d="M103684 77395
L103684 76805
" />
<path d="M104219 77395
L104219 76805
" />
<path d="M104219 77367
L104162 77395
L104050 77395
L103994 77367
L103965 77339
L103937 77283
L103937 77114
L103965 77058
L103994 77030
L104050 77002
L104162 77002
L104219 77030
" />
<path d="M104500 77339
L104528 77367
L104500 77395
L104472 77367
L104500 77339
L104500 77395
" />
<path d="M104500 77030
L104528 77058
L104500 77086
L104472 77058
L104500 77030
L104500 77086
" />
<path d="M105540 77395
L105203 77395
" />
<path d="M105372 77395
L105372 76805
L105315 76889
L105259 76946
L105203 76974
" />
<path d="M106215 76777
L105709 77536
" />
<path d="M106721 77395
L106384 77395
" />
<path d="M106553 77395
L106553 76805
L106496 76889
L106440 76946
L106384 76974
" />
</g>
<g style="fill:#000000; fill-opacity:0.0; 
stroke:#000000; stroke-width:39.3701; stroke-opacity:1; 
stroke-linecap:round; stroke-linejoin:round;">
</g>
<g style="fill:#000000; fill-opacity:0.0; 
stroke:#000000; stroke-width:59.0551; stroke-opacity:1; 
stroke-linecap:round; stroke-linejoin:round;">
<path d="M69685 73821
L112205 73821
" />
</g>
<g style="fill:#000000; fill-opacity:0.0; 
stroke:#000000; stroke-width:39.3701; stroke-opacity:1; 
stroke-linecap:round; stroke-linejoin:round;">
</g>
<g style="fill:#000000; fill-opacity:0.0; 
stroke:#000000; stroke-width:157.48; stroke-opacity:1; 
stroke-linecap:round; stroke-linejoin:round;">
<path d="M70257 74099
L70707 74099
" />
<path d="M70384 74886
L70482 74099
" />
<path d="M70871 74886
L70937 74361
" />
<path d="M70970 74099
L70927 74136
L70960 74174
L71002 74136
L70970 74099
L70960 74174
" />
<path d="M71199 74361
L71499 74361
" />
<path d="M71345 74099
L71260 74774
L71288 74849
L71359 74886
L71434 74886
" />
<path d="M71809 74886
L71738 74849
L71710 74774
L71795 74099
" />
<path d="M72413 74849
L72334 74886
L72184 74886
L72113 74849
L72085 74774
L72123 74474
L72169 74399
L72249 74361
L72399 74361
L72469 74399
L72498 74474
L72488 74549
L72104 74624
" />
<path d="M72793 74811
L72826 74849
L72783 74886
L72751 74849
L72793 74811
L72783 74886
" />
<path d="M72844 74399
L72877 74436
L72835 74474
L72802 74436
L72844 74399
L72835 74474
" />
</g>
<g style="fill:#000000; fill-opacity:0.0; 
stroke:#000000; stroke-width:39.3701; stroke-opacity:1; 
stroke-linecap:round; stroke-linejoin:round;">
</g>
<g style="fill:#000000; fill-opacity:0.0; 
stroke:#000000; stroke-width:59.0551; stroke-opacity:1; 
stroke-linecap:round; stroke-linejoin:round;">
<path d="M70417 73070
L70220 73070
" />
<path d="M70220 73380
L70220 72789
L70501 72789
" />
<path d="M70726 73380
L70726 72986
" />
<path d="M70726 72789
L70698 72817
L70726 72845
L70754 72817
L70726 72789
L70726 72845
" />
<path d="M71091 73380
L71035 73352
L71007 73295
L71007 72789
" />
<path d="M71541 73352
L71485 73380
L71373 73380
L71316 73352
L71288 73295
L71288 73070
L71316 73014
L71373 72986
L71485 72986
L71541 73014
L71570 73070
L71570 73127
L71288 73183
" />
<path d="M71823 73323
L71851 73352
L71823 73380
L71795 73352
L71823 73323
L71823 73380
" />
<path d="M71823 73014
L71851 73042
L71823 73070
L71795 73042
L71823 73014
L71823 73070
" />
<path d="M72807 72789
L72694 72789
L72638 72817
L72610 72845
L72554 72930
L72526 73042
L72526 73267
L72554 73323
L72582 73352
L72638 73380
L72751 73380
L72807 73352
L72835 73323
L72863 73267
L72863 73127
L72835 73070
L72807 73042
L72751 73014
L72638 73014
L72582 73042
L72554 73070
L72526 73127
" />
<path d="M73060 73380
L73369 72986
" />
<path d="M73060 72986
L73369 73380
" />
<path d="M73594 72789
L73594 73267
L73622 73323
L73651 73352
L73707 73380
L73819 73380
L73876 73352
L73904 73323
L73932 73267
L73932 72789
" />
<path d="M74185 73352
L74269 73380
L74410 73380
L74466 73352
L74494 73323
L74522 73267
L74522 73211
L74494 73155
L74466 73127
L74410 73099
L74297 73070
L74241 73042
L74213 73014
L74185 72958
L74185 72902
L74213 72845
L74241 72817
L74297 72789
L74438 72789
L74522 72817
" />
<path d="M74972 73070
L75057 73099
L75085 73127
L75113 73183
L75113 73267
L75085 73323
L75057 73352
L75000 73380
L74775 73380
L74775 72789
L74972 72789
L75028 72817
L75057 72845
L75085 72902
L75085 72958
L75057 73014
L75028 73042
L74972 73070
L74775 73070
" />
<path d="M75225 73436
L75675 73436
" />
<path d="M75816 73380
L75816 72789
L76041 72789
L76097 72817
L76125 72845
L76153 72902
L76153 72986
L76125 73042
L76097 73070
L76041 73099
L75816 73099
" />
<path d="M76491 73380
L76435 73352
L76406 73323
L76378 73267
L76378 73099
L76406 73042
L76435 73014
L76491 72986
L76575 72986
L76631 73014
L76660 73042
L76688 73099
L76688 73267
L76660 73323
L76631 73352
L76575 73380
L76491 73380
" />
<path d="M76885 72986
L76997 73380
L77109 73099
L77222 73380
L77334 72986
" />
<path d="M77559 73380
L77559 72789
L77756 73211
L77953 72789
L77953 73380
" />
<path d="M78459 73352
L78403 73380
L78291 73380
L78234 73352
L78206 73295
L78206 73070
L78234 73014
L78291 72986
L78403 72986
L78459 73014
L78487 73070
L78487 73127
L78206 73183
" />
<path d="M78656 72986
L78881 72986
" />
<path d="M78741 72789
L78741 73295
L78769 73352
L78825 73380
L78881 73380
" />
<path d="M79078 73323
L79106 73352
L79078 73380
L79050 73352
L79078 73323
L79078 73380
" />
<path d="M79359 73380
L79359 72789
" />
<path d="M79415 73155
L79584 73380
" />
<path d="M79584 72986
L79359 73211
" />
<path d="M79837 73380
L79837 72986
" />
<path d="M79837 72789
L79809 72817
L79837 72845
L79865 72817
L79837 72789
L79837 72845
" />
<path d="M80372 73352
L80315 73380
L80203 73380
L80147 73352
L80118 73323
L80090 73267
L80090 73099
L80118 73042
L80147 73014
L80203 72986
L80315 72986
L80372 73014
" />
<path d="M80878 73380
L80878 73070
L80850 73014
L80793 72986
L80681 72986
L80625 73014
" />
<path d="M80878 73352
L80822 73380
L80681 73380
L80625 73352
L80597 73295
L80597 73239
L80625 73183
L80681 73155
L80822 73155
L80878 73127
" />
<path d="M81412 73380
L81412 72789
" />
<path d="M81412 73352
L81356 73380
L81243 73380
L81187 73352
L81159 73323
L81131 73267
L81131 73099
L81159 73042
L81187 73014
L81243 72986
L81356 72986
L81412 73014
" />
<path d="M81553 73436
L82003 73436
" />
<path d="M82143 72986
L82143 73577
" />
<path d="M82143 73014
L82199 72986
L82312 72986
L82368 73014
L82396 73042
L82424 73099
L82424 73267
L82396 73323
L82368 73352
L82312 73380
L82199 73380
L82143 73352
" />
<path d="M82931 73352
L82874 73380
L82762 73380
L82706 73352
L82678 73323
L82649 73267
L82649 73099
L82678 73042
L82706 73014
L82762 72986
L82874 72986
L82931 73014
" />
<path d="M83184 73380
L83184 72789
" />
<path d="M83184 73014
L83240 72986
L83352 72986
L83409 73014
L83437 73042
L83465 73099
L83465 73267
L83437 73323
L83409 73352
L83352 73380
L83240 73380
L83184 73352
" />
</g>
<g style="fill:#000000; fill-opacity:0.0; 
stroke:#000000; stroke-width:39.3701; stroke-opacity:1; 
stroke-linecap:round; stroke-linejoin:round;">
</g>
<g style="fill:#000000; fill-opacity:0.0; 
stroke:#000000; stroke-width:59.0551; stroke-opacity:1; 
stroke-linecap:round; stroke-linejoin:round;">
<path d="M69685 71459
L112205 71459
" />
</g>
<g style="fill:#000000; fill-opacity:0.0; 
stroke:#000000; stroke-width:39.3701; stroke-opacity:1; 
stroke-linecap:round; stroke-linejoin:round;">
</g>
<g style="fill:#000000; fill-opacity:0.0; 
stroke:#000000; stroke-width:59.0551; stroke-opacity:1; 
stroke-linecap:round; stroke-linejoin:round;">
<path d="M70192 72289
L70276 72317
L70417 72317
L70473 72289
L70501 72260
L70529 72204
L70529 72148
L70501 72092
L70473 72064
L70417 72036
L70304 72007
L70248 71979
L70220 71951
L70192 71895
L70192 71839
L70220 71782
L70248 71754
L70304 71726
L70445 71726
L70529 71754
" />
<path d="M70782 72317
L70782 71726
" />
<path d="M71035 72317
L71035 72007
L71007 71951
L70951 71923
L70867 71923
L70810 71951
L70782 71979
" />
<path d="M71541 72289
L71485 72317
L71373 72317
L71316 72289
L71288 72232
L71288 72007
L71316 71951
L71373 71923
L71485 71923
L71541 71951
L71570 72007
L71570 72064
L71288 72120
" />
<path d="M72048 72289
L71991 72317
L71879 72317
L71823 72289
L71795 72232
L71795 72007
L71823 71951
L71879 71923
L71991 71923
L72048 71951
L72076 72007
L72076 72064
L71795 72120
" />
<path d="M72244 71923
L72469 71923
" />
<path d="M72329 71726
L72329 72232
L72357 72289
L72413 72317
L72469 72317
" />
<path d="M72666 72260
L72694 72289
L72666 72317
L72638 72289
L72666 72260
L72666 72317
" />
<path d="M72666 71951
L72694 71979
L72666 72007
L72638 71979
L72666 71951
L72666 72007
" />
</g>
<g style="fill:#000000; fill-opacity:0.0; 
stroke:#000000; stroke-width:39.3701; stroke-opacity:1; 
stroke-linecap:round; stroke-linejoin:round;">
</g>
<g style="fill:#000000; fill-opacity:0.0; 
stroke:#000000; stroke-width:59.0551; stroke-opacity:1; 
stroke-linecap:round; stroke-linejoin:round;">
<path d="M77559 75396
L77559 76577
" />
</g>
<g style="fill:#000000; fill-opacity:0.0; 
stroke:#000000; stroke-width:39.3701; stroke-opacity:1; 
stroke-linecap:round; stroke-linejoin:round;">
</g>
<g style="fill:#000000; fill-opacity:0.0; 
stroke:#000000; stroke-width:59.0551; stroke-opacity:1; 
stroke-linecap:round; stroke-linejoin:round;">
<path d="M102756 75396
L102756 77955
" />
</g>
<g style="fill:#C2C200; fill-opacity:0.0; 
stroke:#C2C200; stroke-width:59.0551; stroke-opacity:1; 
stroke-linecap:round; stroke-linejoin:round;">
<path d="M43236 33613
L43236 33219
L43386 33219
L43424 33238
L43443 33256
L43461 33294
L43461 33350
L43443 33388
L43424 33406
L43386 33425
L43236 33425
" />
<path d="M43836 33613
L43611 33613
" />
<path d="M43724 33613
L43724 33219
L43686 33275
L43649 33313
L43611 33331
" />
<path d="M52236 33613
L52236 33219
L52386 33219
L52424 33238
L52443 33256
L52461 33294
L52461 33350
L52443 33388
L52424 33406
L52386 33425
L52236 33425
" />
<path d="M52611 33256
L52630 33238
L52668 33219
L52761 33219
L52799 33238
L52818 33256
L52836 33294
L52836 33331
L52818 33388
L52593 33613
L52836 33613
" />
<path d="M44461 32725
L44443 32744
L44386 32762
L44349 32762
L44293 32744
L44255 32706
L44236 32669
L44218 32594
L44218 32537
L44236 32462
L44255 32425
L44293 32387
L44349 32369
L44386 32369
L44443 32387
L44461 32406
" />
<path d="M44836 32762
L44611 32762
" />
<path d="M44724 32762
L44724 32369
L44686 32425
L44649 32462
L44611 32481
" />
<path d="M53487 36896
L53505 36915
L53524 36971
L53524 37008
L53505 37065
L53468 37102
L53430 37121
L53355 37140
L53299 37140
L53224 37121
L53187 37102
L53149 37065
L53130 37008
L53130 36971
L53149 36915
L53168 36896
" />
<path d="M53168 36746
L53149 36727
L53130 36690
L53130 36596
L53149 36558
L53168 36540
L53205 36521
L53243 36521
L53299 36540
L53524 36765
L53524 36521
" />
<path d="M63201 36807
L63220 36826
L63239 36882
L63239 36920
L63220 36976
L63182 37013
L63145 37032
L63070 37051
L63014 37051
L62939 37032
L62901 37013
L62864 36976
L62845 36920
L62845 36882
L62864 36826
L62882 36807
" />
<path d="M62845 36676
L62845 36432
L62995 36564
L62995 36507
L63014 36470
L63032 36451
L63070 36432
L63164 36432
L63201 36451
L63220 36470
L63239 36507
L63239 36620
L63220 36657
L63201 36676
" />
<path d="M44254 36984
L44273 37003
L44292 37059
L44292 37097
L44273 37153
L44236 37191
L44198 37209
L44123 37228
L44067 37228
L43992 37209
L43954 37191
L43917 37153
L43898 37097
L43898 37059
L43917 37003
L43936 36984
" />
<path d="M44029 36647
L44292 36647
" />
<path d="M43879 36741
L44161 36834
L44161 36591
" />
<path d="M67739 42985
L67720 43003
L67664 43022
L67627 43022
L67570 43003
L67533 42966
L67514 42928
L67495 42853
L67495 42797
L67514 42722
L67533 42685
L67570 42647
L67627 42628
L67664 42628
L67720 42647
L67739 42666
" />
<path d="M68095 42628
L67908 42628
L67889 42816
L67908 42797
L67945 42778
L68039 42778
L68076 42797
L68095 42816
L68114 42853
L68114 42947
L68095 42985
L68076 43003
L68039 43022
L67945 43022
L67908 43003
L67889 42985
" />
<path d="M65534 41079
L65553 41098
L65571 41154
L65571 41191
L65553 41248
L65515 41285
L65478 41304
L65403 41323
L65346 41323
L65271 41304
L65234 41285
L65196 41248
L65178 41191
L65178 41154
L65196 41098
L65215 41079
" />
<path d="M65178 40741
L65178 40816
L65196 40854
L65215 40873
L65271 40910
L65346 40929
L65496 40929
L65534 40910
L65553 40891
L65571 40854
L65571 40779
L65553 40741
L65534 40723
L65496 40704
L65403 40704
L65365 40723
L65346 40741
L65328 40779
L65328 40854
L65346 40891
L65365 40910
L65403 40929
" />
<path d="M57492 43490
L57511 43509
L57530 43565
L57530 43603
L57511 43659
L57474 43697
L57436 43715
L57361 43734
L57305 43734
L57230 43715
L57193 43697
L57155 43659
L57136 43603
L57136 43565
L57155 43509
L57174 43490
" />
<path d="M57136 43359
L57136 43097
L57530 43265
" />
<path d="M68711 36225
L68693 36244
L68636 36262
L68599 36262
L68543 36244
L68505 36206
L68486 36169
L68468 36094
L68468 36037
L68486 35962
L68505 35925
L68543 35887
L68599 35869
L68636 35869
L68693 35887
L68711 35906
" />
<path d="M68936 36037
L68899 36019
L68880 36000
L68861 35962
L68861 35944
L68880 35906
L68899 35887
L68936 35869
L69011 35869
L69049 35887
L69068 35906
L69086 35944
L69086 35962
L69068 36000
L69049 36019
L69011 36037
L68936 36037
L68899 36056
L68880 36075
L68861 36112
L68861 36187
L68880 36225
L68899 36244
L68936 36262
L69011 36262
L69049 36244
L69068 36225
L69086 36187
L69086 36112
L69068 36075
L69049 36056
L69011 36037
" />
<path d="M63221 39156
L63203 39175
L63146 39193
L63109 39193
L63053 39175
L63015 39137
L62996 39100
L62978 39025
L62978 38968
L62996 38893
L63015 38856
L63053 38818
L63109 38800
L63146 38800
L63203 38818
L63221 38837
" />
<path d="M63409 39193
L63484 39193
L63521 39175
L63540 39156
L63577 39100
L63596 39025
L63596 38875
L63577 38837
L63559 38818
L63521 38800
L63446 38800
L63409 38818
L63390 38837
L63371 38875
L63371 38968
L63390 39006
L63409 39025
L63446 39043
L63521 39043
L63559 39025
L63577 39006
L63596 38968
" />
<path d="M53774 32725
L53755 32744
L53699 32762
L53661 32762
L53605 32744
L53568 32706
L53549 32669
L53530 32594
L53530 32537
L53549 32462
L53568 32425
L53605 32387
L53661 32369
L53699 32369
L53755 32387
L53774 32406
" />
<path d="M54149 32762
L53924 32762
" />
<path d="M54036 32762
L54036 32369
L53999 32425
L53961 32462
L53924 32481
" />
<path d="M54393 32369
L54430 32369
L54468 32387
L54486 32406
L54505 32444
L54524 32519
L54524 32612
L54505 32687
L54486 32725
L54468 32744
L54430 32762
L54393 32762
L54355 32744
L54336 32725
L54318 32687
L54299 32612
L54299 32519
L54318 32444
L54336 32406
L54355 32387
L54393 32369
" />
<path d="M62774 32725
L62755 32744
L62699 32762
L62661 32762
L62605 32744
L62568 32706
L62549 32669
L62530 32594
L62530 32537
L62549 32462
L62568 32425
L62605 32387
L62661 32369
L62699 32369
L62755 32387
L62774 32406
" />
<path d="M63149 32762
L62924 32762
" />
<path d="M63036 32762
L63036 32369
L62999 32425
L62961 32462
L62924 32481
" />
<path d="M63524 32762
L63299 32762
" />
<path d="M63411 32762
L63411 32369
L63374 32425
L63336 32462
L63299 32481
" />
<path d="M49038 36995
L49056 37013
L49075 37070
L49075 37107
L49056 37163
L49019 37201
L48982 37220
L48907 37238
L48850 37238
L48775 37220
L48738 37201
L48700 37163
L48682 37107
L48682 37070
L48700 37013
L48719 36995
" />
<path d="M49075 36620
L49075 36845
" />
<path d="M49075 36732
L48682 36732
L48738 36770
L48775 36807
L48794 36845
" />
<path d="M48719 36470
L48700 36451
L48682 36414
L48682 36320
L48700 36282
L48719 36264
L48757 36245
L48794 36245
L48850 36264
L49075 36489
L49075 36245
" />
<path d="M67522 36886
L67541 36905
L67559 36961
L67559 36999
L67541 37055
L67503 37093
L67466 37111
L67391 37130
L67335 37130
L67260 37111
L67222 37093
L67185 37055
L67166 36999
L67166 36961
L67185 36905
L67203 36886
" />
<path d="M67559 36511
L67559 36736
" />
<path d="M67559 36624
L67166 36624
L67222 36661
L67260 36699
L67278 36736
" />
<path d="M67166 36380
L67166 36137
L67316 36268
L67316 36212
L67335 36174
L67353 36155
L67391 36137
L67485 36137
L67522 36155
L67541 36174
L67559 36212
L67559 36324
L67541 36362
L67522 36380
" />
<path d="M57926 37034
L57944 37053
L57963 37109
L57963 37147
L57944 37203
L57907 37240
L57869 37259
L57794 37278
L57738 37278
L57663 37259
L57626 37240
L57588 37203
L57569 37147
L57569 37109
L57588 37053
L57607 37034
" />
<path d="M57963 36659
L57963 36884
" />
<path d="M57963 36772
L57569 36772
L57626 36809
L57663 36847
L57682 36884
" />
<path d="M57701 36322
L57963 36322
" />
<path d="M57551 36415
L57832 36509
L57832 36265
" />
<path d="M49274 32725
L49255 32744
L49199 32762
L49161 32762
L49105 32744
L49068 32706
L49049 32669
L49030 32594
L49030 32537
L49049 32462
L49068 32425
L49105 32387
L49161 32369
L49199 32369
L49255 32387
L49274 32406
" />
<path d="M49649 32762
L49424 32762
" />
<path d="M49536 32762
L49536 32369
L49499 32425
L49461 32462
L49424 32481
" />
<path d="M50005 32369
L49818 32369
L49799 32556
L49818 32537
L49855 32519
L49949 32519
L49986 32537
L50005 32556
L50024 32594
L50024 32687
L50005 32725
L49986 32744
L49949 32762
L49855 32762
L49818 32744
L49799 32725
" />
<path d="M67024 32725
L67005 32744
L66949 32762
L66911 32762
L66855 32744
L66818 32706
L66799 32669
L66780 32594
L66780 32537
L66799 32462
L66818 32425
L66855 32387
L66911 32369
L66949 32369
L67005 32387
L67024 32406
" />
<path d="M67399 32762
L67174 32762
" />
<path d="M67286 32762
L67286 32369
L67249 32425
L67211 32462
L67174 32481
" />
<path d="M67736 32369
L67661 32369
L67624 32387
L67605 32406
L67568 32462
L67549 32537
L67549 32687
L67568 32725
L67586 32744
L67624 32762
L67699 32762
L67736 32744
L67755 32725
L67774 32687
L67774 32594
L67755 32556
L67736 32537
L67699 32519
L67624 32519
L67586 32537
L67568 32556
L67549 32594
" />
<path d="M58274 32725
L58255 32744
L58199 32762
L58161 32762
L58105 32744
L58068 32706
L58049 32669
L58030 32594
L58030 32537
L58049 32462
L58068 32425
L58105 32387
L58161 32369
L58199 32369
L58255 32387
L58274 32406
" />
<path d="M58649 32762
L58424 32762
" />
<path d="M58536 32762
L58536 32369
L58499 32425
L58461 32462
L58424 32481
" />
<path d="M58780 32369
L59043 32369
L58874 32762
" />
<path d="M59772 44295
L59378 44295
" />
<path d="M59735 43883
L59753 43902
L59772 43958
L59772 43995
L59753 44052
L59716 44089
L59678 44108
L59603 44127
L59547 44127
L59472 44108
L59435 44089
L59397 44052
L59378 43995
L59378 43958
L59397 43902
L59416 43883
" />
<path d="M59772 43508
L59772 43733
" />
<path d="M59772 43620
L59378 43620
L59435 43658
L59472 43695
L59491 43733
" />
<path d="M66528 37609
L66341 37609
L66341 37215
" />
<path d="M66866 37609
L66641 37609
" />
<path d="M66753 37609
L66753 37215
L66716 37272
L66678 37309
L66641 37328
" />
<path d="M45867 35036
L45679 35167
" />
<path d="M45867 35261
L45473 35261
L45473 35111
L45492 35073
L45510 35054
L45548 35036
L45604 35036
L45642 35054
L45660 35073
L45679 35111
L45679 35261
" />
<path d="M45867 34661
L45867 34886
" />
<path d="M45867 34773
L45473 34773
L45529 34811
L45567 34848
L45585 34886
" />
<path d="M42461 32762
L42330 32575
" />
<path d="M42236 32762
L42236 32369
L42386 32369
L42424 32387
L42443 32406
L42461 32444
L42461 32500
L42443 32537
L42424 32556
L42386 32575
L42236 32575
" />
<path d="M42611 32406
L42630 32387
L42668 32369
L42761 32369
L42799 32387
L42818 32406
L42836 32444
L42836 32481
L42818 32537
L42593 32762
L42836 32762
" />
<path d="M43278 36975
L43091 37106
" />
<path d="M43278 37200
L42884 37200
L42884 37050
L42903 37012
L42922 36993
L42959 36975
L43016 36975
L43053 36993
L43072 37012
L43091 37050
L43091 37200
" />
<path d="M42884 36843
L42884 36600
L43034 36731
L43034 36675
L43053 36637
L43072 36618
L43109 36600
L43203 36600
L43241 36618
L43259 36637
L43278 36675
L43278 36787
L43259 36825
L43241 36843
" />
<path d="M56684 43471
L56496 43602
" />
<path d="M56684 43696
L56290 43696
L56290 43546
L56309 43508
L56327 43489
L56365 43471
L56421 43471
L56459 43489
L56477 43508
L56496 43546
L56496 43696
" />
<path d="M56421 43133
L56684 43133
" />
<path d="M56271 43227
L56552 43321
L56552 43077
" />
<path d="M58378 43477
L58191 43608
" />
<path d="M58378 43702
L57985 43702
L57985 43552
L58003 43514
L58022 43495
L58060 43477
L58116 43477
L58153 43495
L58172 43514
L58191 43552
L58191 43702
" />
<path d="M57985 43120
L57985 43308
L58172 43327
L58153 43308
L58135 43270
L58135 43177
L58153 43139
L58172 43120
L58210 43102
L58303 43102
L58341 43120
L58360 43139
L58378 43177
L58378 43270
L58360 43308
L58341 43327
" />
<path d="M62306 48544
L62175 48356
" />
<path d="M62081 48544
L62081 48150
L62231 48150
L62268 48169
L62287 48188
L62306 48225
L62306 48281
L62287 48319
L62268 48338
L62231 48356
L62081 48356
" />
<path d="M62643 48150
L62568 48150
L62531 48169
L62512 48188
L62475 48244
L62456 48319
L62456 48469
L62475 48506
L62493 48525
L62531 48544
L62606 48544
L62643 48525
L62662 48506
L62681 48469
L62681 48375
L62662 48338
L62643 48319
L62606 48300
L62531 48300
L62493 48319
L62475 48338
L62456 48375
" />
<path d="M52579 36906
L52392 37037
" />
<path d="M52579 37131
L52185 37131
L52185 36981
L52204 36943
L52223 36924
L52260 36906
L52317 36906
L52354 36924
L52373 36943
L52392 36981
L52392 37131
" />
<path d="M52185 36774
L52185 36512
L52579 36681
" />
<path d="M62166 36758
L61978 36889
" />
<path d="M62166 36983
L61772 36983
L61772 36833
L61791 36796
L61810 36777
L61847 36758
L61903 36758
L61941 36777
L61960 36796
L61978 36833
L61978 36983
" />
<path d="M61941 36533
L61922 36571
L61903 36589
L61866 36608
L61847 36608
L61810 36589
L61791 36571
L61772 36533
L61772 36458
L61791 36421
L61810 36402
L61847 36383
L61866 36383
L61903 36402
L61922 36421
L61941 36458
L61941 36533
L61960 36571
L61978 36589
L62016 36608
L62091 36608
L62128 36589
L62147 36571
L62166 36533
L62166 36458
L62147 36421
L62128 36402
L62091 36383
L62016 36383
L61978 36402
L61960 36421
L61941 36458
" />
<path d="M55355 34937
L55167 35068
" />
<path d="M55355 35162
L54961 35162
L54961 35012
L54980 34975
L54999 34956
L55036 34937
L55092 34937
L55130 34956
L55149 34975
L55167 35012
L55167 35162
" />
<path d="M55355 34750
L55355 34675
L55336 34637
L55317 34618
L55261 34581
L55186 34562
L55036 34562
L54999 34581
L54980 34600
L54961 34637
L54961 34712
L54980 34750
L54999 34768
L55036 34787
L55130 34787
L55167 34768
L55186 34750
L55205 34712
L55205 34637
L55186 34600
L55167 34581
L55130 34562
" />
<path d="M64193 35164
L64006 35295
" />
<path d="M64193 35389
L63800 35389
L63800 35239
L63818 35202
L63837 35183
L63875 35164
L63931 35164
L63968 35183
L63987 35202
L64006 35239
L64006 35389
" />
<path d="M64193 34789
L64193 35014
" />
<path d="M64193 34902
L63800 34902
L63856 34939
L63893 34977
L63912 35014
" />
<path d="M63800 34545
L63800 34508
L63818 34470
L63837 34452
L63875 34433
L63950 34414
L64043 34414
L64118 34433
L64156 34452
L64175 34470
L64193 34508
L64193 34545
L64175 34583
L64156 34602
L64118 34620
L64043 34639
L63950 34639
L63875 34620
L63837 34602
L63818 34583
L63800 34545
" />
<path d="M51774 32762
L51643 32575
" />
<path d="M51549 32762
L51549 32369
L51699 32369
L51736 32387
L51755 32406
L51774 32444
L51774 32500
L51755 32537
L51736 32556
L51699 32575
L51549 32575
" />
<path d="M52149 32762
L51924 32762
" />
<path d="M52036 32762
L52036 32369
L51999 32425
L51961 32462
L51924 32481
" />
<path d="M52524 32762
L52299 32762
" />
<path d="M52411 32762
L52411 32369
L52374 32425
L52336 32462
L52299 32481
" />
<path d="M60774 32762
L60643 32575
" />
<path d="M60549 32762
L60549 32369
L60699 32369
L60736 32387
L60755 32406
L60774 32444
L60774 32500
L60755 32537
L60736 32556
L60699 32575
L60549 32575
" />
<path d="M61149 32762
L60924 32762
" />
<path d="M61036 32762
L61036 32369
L60999 32425
L60961 32462
L60924 32481
" />
<path d="M61299 32406
L61318 32387
L61355 32369
L61449 32369
L61486 32387
L61505 32406
L61524 32444
L61524 32481
L61505 32537
L61280 32762
L61524 32762
" />
<path d="M48130 37014
L47943 37146
" />
<path d="M48130 37239
L47737 37239
L47737 37089
L47755 37052
L47774 37033
L47812 37014
L47868 37014
L47905 37033
L47924 37052
L47943 37089
L47943 37239
" />
<path d="M48130 36639
L48130 36864
" />
<path d="M48130 36752
L47737 36752
L47793 36789
L47830 36827
L47849 36864
" />
<path d="M47737 36508
L47737 36264
L47887 36396
L47887 36339
L47905 36302
L47924 36283
L47962 36264
L48055 36264
L48093 36283
L48112 36302
L48130 36339
L48130 36452
L48112 36489
L48093 36508
" />
<path d="M66556 36906
L66368 37037
" />
<path d="M66556 37131
L66162 37131
L66162 36981
L66181 36944
L66199 36925
L66237 36906
L66293 36906
L66331 36925
L66349 36944
L66368 36981
L66368 37131
" />
<path d="M66556 36531
L66556 36756
" />
<path d="M66556 36644
L66162 36644
L66218 36681
L66256 36719
L66274 36756
" />
<path d="M66293 36194
L66556 36194
" />
<path d="M66143 36287
L66424 36381
L66424 36137
" />
<path d="M57008 37014
L56821 37146
" />
<path d="M57008 37239
L56615 37239
L56615 37089
L56633 37052
L56652 37033
L56690 37014
L56746 37014
L56783 37033
L56802 37052
L56821 37089
L56821 37239
" />
<path d="M57008 36639
L57008 36864
" />
<path d="M57008 36752
L56615 36752
L56671 36789
L56708 36827
L56727 36864
" />
<path d="M56615 36283
L56615 36471
L56802 36489
L56783 36471
L56765 36433
L56765 36339
L56783 36302
L56802 36283
L56840 36264
L56933 36264
L56971 36283
L56990 36302
L57008 36339
L57008 36433
L56990 36471
L56971 36489
" />
<path d="M50867 35164
L50679 35295
" />
<path d="M50867 35389
L50473 35389
L50473 35239
L50492 35202
L50510 35183
L50548 35164
L50604 35164
L50642 35183
L50660 35202
L50679 35239
L50679 35389
" />
<path d="M50867 34789
L50867 35014
" />
<path d="M50867 34902
L50473 34902
L50529 34939
L50567 34977
L50585 35014
" />
<path d="M50473 34452
L50473 34527
L50492 34564
L50510 34583
L50567 34620
L50642 34639
L50792 34639
L50829 34620
L50848 34602
L50867 34564
L50867 34489
L50848 34452
L50829 34433
L50792 34414
L50698 34414
L50660 34433
L50642 34452
L50623 34489
L50623 34564
L50642 34602
L50660 34620
L50698 34639
" />
<path d="M68485 35203
L68297 35335
" />
<path d="M68485 35428
L68091 35428
L68091 35278
L68110 35241
L68128 35222
L68166 35203
L68222 35203
L68260 35222
L68278 35241
L68297 35278
L68297 35428
" />
<path d="M68485 34828
L68485 35053
" />
<path d="M68485 34941
L68091 34941
L68147 34978
L68185 35016
L68203 35053
" />
<path d="M68091 34697
L68091 34435
L68485 34603
" />
<path d="M47274 32762
L47143 32575
" />
<path d="M47049 32762
L47049 32369
L47199 32369
L47236 32387
L47255 32406
L47274 32444
L47274 32500
L47255 32537
L47236 32556
L47199 32575
L47049 32575
" />
<path d="M47649 32762
L47424 32762
" />
<path d="M47536 32762
L47536 32369
L47499 32425
L47461 32462
L47424 32481
" />
<path d="M47874 32537
L47836 32519
L47818 32500
L47799 32462
L47799 32444
L47818 32406
L47836 32387
L47874 32369
L47949 32369
L47986 32387
L48005 32406
L48024 32444
L48024 32462
L48005 32500
L47986 32519
L47949 32537
L47874 32537
L47836 32556
L47818 32575
L47799 32612
L47799 32687
L47818 32725
L47836 32744
L47874 32762
L47949 32762
L47986 32744
L48005 32725
L48024 32687
L48024 32612
L48005 32575
L47986 32556
L47949 32537
" />
<path d="M59863 35144
L59675 35276
" />
<path d="M59863 35369
L59469 35369
L59469 35219
L59488 35182
L59506 35163
L59544 35144
L59600 35144
L59638 35163
L59656 35182
L59675 35219
L59675 35369
" />
<path d="M59863 34769
L59863 34994
" />
<path d="M59863 34882
L59469 34882
L59525 34919
L59563 34957
L59581 34994
" />
<path d="M59863 34582
L59863 34507
L59844 34469
L59825 34451
L59769 34413
L59694 34394
L59544 34394
L59506 34413
L59488 34432
L59469 34469
L59469 34544
L59488 34582
L59506 34601
L59544 34619
L59638 34619
L59675 34601
L59694 34582
L59713 34544
L59713 34469
L59694 34432
L59675 34413
L59638 34394
" />
<path d="M65024 32762
L64893 32575
" />
<path d="M64799 32762
L64799 32369
L64949 32369
L64986 32387
L65005 32406
L65024 32444
L65024 32500
L65005 32537
L64986 32556
L64949 32575
L64799 32575
" />
<path d="M65174 32406
L65193 32387
L65230 32369
L65324 32369
L65361 32387
L65380 32406
L65399 32444
L65399 32481
L65380 32537
L65155 32762
L65399 32762
" />
<path d="M65643 32369
L65680 32369
L65718 32387
L65736 32406
L65755 32444
L65774 32519
L65774 32612
L65755 32687
L65736 32725
L65718 32744
L65680 32762
L65643 32762
L65605 32744
L65586 32725
L65568 32687
L65549 32612
L65549 32519
L65568 32444
L65586 32406
L65605 32387
L65643 32369
" />
<path d="M56274 32762
L56143 32575
" />
<path d="M56049 32762
L56049 32369
L56199 32369
L56236 32387
L56255 32406
L56274 32444
L56274 32500
L56255 32537
L56236 32556
L56199 32575
L56049 32575
" />
<path d="M56424 32406
L56443 32387
L56480 32369
L56574 32369
L56611 32387
L56630 32406
L56649 32444
L56649 32481
L56630 32537
L56405 32762
L56649 32762
" />
<path d="M57024 32762
L56799 32762
" />
<path d="M56911 32762
L56911 32369
L56874 32425
L56836 32462
L56799 32481
" />
<path d="M68952 41825
L69271 41825
L69308 41806
L69327 41788
L69346 41750
L69346 41675
L69327 41638
L69308 41619
L69271 41600
L68952 41600
" />
<path d="M69346 41206
L69346 41431
" />
<path d="M69346 41319
L68952 41319
L69008 41356
L69046 41394
L69064 41431
" />
<path d="M41300 35231
L41618 35231
L41656 35212
L41675 35193
L41693 35156
L41693 35081
L41675 35043
L41656 35024
L41618 35006
L41300 35006
" />
<path d="M41337 34837
L41318 34818
L41300 34781
L41300 34687
L41318 34649
L41337 34631
L41375 34612
L41412 34612
L41468 34631
L41693 34856
L41693 34612
" />
<path d="M46300 35231
L46618 35231
L46656 35212
L46675 35193
L46693 35156
L46693 35081
L46675 35043
L46656 35024
L46618 35006
L46300 35006
" />
<path d="M46300 34856
L46300 34612
L46450 34743
L46450 34687
L46468 34649
L46487 34631
L46525 34612
L46618 34612
L46656 34631
L46675 34649
L46693 34687
L46693 34799
L46675 34837
L46656 34856
" />
<path d="M50808 35231
L51126 35231
L51164 35212
L51182 35193
L51201 35156
L51201 35081
L51182 35043
L51164 35024
L51126 35006
L50808 35006
" />
<path d="M50939 34649
L51201 34649
" />
<path d="M50789 34743
L51070 34837
L51070 34593
" />
<path d="M55315 35231
L55634 35231
L55672 35212
L55690 35193
L55709 35156
L55709 35081
L55690 35043
L55672 35024
L55634 35006
L55315 35006
" />
<path d="M55315 34631
L55315 34818
L55503 34837
L55484 34818
L55465 34781
L55465 34687
L55484 34649
L55503 34631
L55540 34612
L55634 34612
L55672 34631
L55690 34649
L55709 34687
L55709 34781
L55690 34818
L55672 34837
" />
<path d="M59823 35191
L60142 35191
L60179 35172
L60198 35154
L60217 35116
L60217 35041
L60198 35004
L60179 34985
L60142 34966
L59823 34966
" />
<path d="M59823 34610
L59823 34685
L59842 34723
L59861 34741
L59917 34779
L59992 34797
L60142 34797
L60179 34779
L60198 34760
L60217 34723
L60217 34648
L60198 34610
L60179 34591
L60142 34573
L60048 34573
L60011 34591
L59992 34610
L59973 34648
L59973 34723
L59992 34760
L60011 34779
L60048 34797
" />
<path d="M64056 35231
L64374 35231
L64412 35212
L64431 35193
L64449 35156
L64449 35081
L64431 35043
L64412 35024
L64374 35006
L64056 35006
" />
<path d="M64056 34856
L64056 34593
L64449 34762
" />
<path d="M61236 33613
L61236 33219
L61386 33219
L61424 33238
L61443 33256
L61461 33294
L61461 33350
L61443 33388
L61424 33406
L61386 33425
L61236 33425
" />
<path d="M61593 33219
L61836 33219
L61705 33369
L61761 33369
L61799 33388
L61818 33406
L61836 33444
L61836 33538
L61818 33575
L61799 33594
L61761 33613
L61649 33613
L61611 33594
L61593 33575
" />
<path d="M47736 33613
L47736 33219
L47886 33219
L47924 33238
L47943 33256
L47961 33294
L47961 33350
L47943 33388
L47924 33406
L47886 33425
L47736 33425
" />
<path d="M48299 33350
L48299 33613
" />
<path d="M48205 33200
L48111 33481
L48355 33481
" />
<path d="M65736 33613
L65736 33219
L65886 33219
L65924 33238
L65943 33256
L65961 33294
L65961 33350
L65943 33388
L65924 33406
L65886 33425
L65736 33425
" />
<path d="M66318 33219
L66130 33219
L66111 33406
L66130 33388
L66168 33369
L66261 33369
L66299 33388
L66318 33406
L66336 33444
L66336 33538
L66318 33575
L66299 33594
L66261 33613
L66168 33613
L66130 33594
L66111 33575
" />
<path d="M56736 33613
L56736 33219
L56886 33219
L56924 33238
L56943 33256
L56961 33294
L56961 33350
L56943 33388
L56924 33406
L56886 33425
L56736 33425
" />
<path d="M57299 33219
L57224 33219
L57186 33238
L57168 33256
L57130 33313
L57111 33388
L57111 33538
L57130 33575
L57149 33594
L57186 33613
L57261 33613
L57299 33594
L57318 33575
L57336 33538
L57336 33444
L57318 33406
L57299 33388
L57261 33369
L57186 33369
L57149 33388
L57130 33406
L57111 33444
" />
<path d="M62186 50839
L62186 50445
L62336 50445
L62374 50464
L62393 50483
L62411 50520
L62411 50577
L62393 50614
L62374 50633
L62336 50652
L62186 50652
" />
<path d="M62543 50445
L62805 50445
L62636 50839
" />
<path d="M74512 40345
L74119 40345
L74119 40195
L74137 40158
L74156 40139
L74194 40120
L74250 40120
L74287 40139
L74306 40158
L74325 40195
L74325 40345
" />
<path d="M74287 39895
L74269 39933
L74250 39952
L74212 39970
L74194 39970
L74156 39952
L74137 39933
L74119 39895
L74119 39820
L74137 39783
L74156 39764
L74194 39745
L74212 39745
L74250 39764
L74269 39783
L74287 39820
L74287 39895
L74306 39933
L74325 39952
L74362 39970
L74437 39970
L74475 39952
L74494 39933
L74512 39895
L74512 39820
L74494 39783
L74475 39764
L74437 39745
L74362 39745
L74325 39764
L74306 39783
L74287 39820
" />
<path d="M47136 46471
L46742 46471
L46742 46321
L46761 46284
L46780 46265
L46817 46246
L46873 46246
L46911 46265
L46930 46284
L46948 46321
L46948 46471
" />
<path d="M47136 46059
L47136 45984
L47117 45946
L47098 45928
L47042 45890
L46967 45871
L46817 45871
L46780 45890
L46761 45909
L46742 45946
L46742 46021
L46761 46059
L46780 46077
L46817 46096
L46911 46096
L46948 46077
L46967 46059
L46986 46021
L46986 45946
L46967 45909
L46948 45890
L46911 45871
" />
</g>
<g style="fill:#008484; fill-opacity:0.0; 
stroke:#008484; stroke-width:59.0551; stroke-opacity:1; 
stroke-linecap:round; stroke-linejoin:round;">
<path d="M44708 29194
L44708 24990
" />
<path d="M42346 29194
L42346 24990
" />
<path d="M42346 24990
L44708 24990
" />
<path d="M42346 30053
L42346 31950
" />
<path d="M44393 32775
L42661 32775
" />
<path d="M44708 30053
L44708 31950
" />
<path d="M53708 29194
L53708 24990
" />
<path d="M51346 29194
L51346 24990
" />
<path d="M51346 24990
L53708 24990
" />
<path d="M51346 30053
L51346 31950
" />
<path d="M53393 32775
L51661 32775
" />
<path d="M53708 30053
L53708 31950
" />
<path d="M44724 33076
L44330 33076
" />
<path d="M44330 33746
L44724 33746
" />
<path d="M52854 37027
L52854 36633
" />
<path d="M52185 36633
L52185 37027
" />
<path d="M62568 36938
L62568 36545
" />
<path d="M61899 36545
L61899 36938
" />
<path d="M43622 37116
L43622 36722
" />
<path d="M42952 36722
L42952 37116
" />
<path d="M68001 43336
L67608 43336
" />
<path d="M67608 44005
L68001 44005
" />
<path d="M65885 40816
L65885 41210
" />
<path d="M66555 41210
L66555 40816
" />
<path d="M57844 43228
L57844 43622
" />
<path d="M58513 43622
L58513 43228
" />
<path d="M68974 36576
L68580 36576
" />
<path d="M68580 37246
L68974 37246
" />
<path d="M63484 39507
L63090 39507
" />
<path d="M63090 40177
L63484 40177
" />
<path d="M54224 33076
L53830 33076
" />
<path d="M53830 33746
L54224 33746
" />
<path d="M63224 33076
L62830 33076
" />
<path d="M62830 33746
L63224 33746
" />
<path d="M48405 36938
L48405 36545
" />
<path d="M47736 36545
L47736 36938
" />
<path d="M66889 36830
L66889 36437
" />
<path d="M66220 36437
L66220 36830
" />
<path d="M57293 36978
L57293 36584
" />
<path d="M56624 36584
L56624 36978
" />
<path d="M49724 33076
L49330 33076
" />
<path d="M49330 33746
L49724 33746
" />
<path d="M67474 33076
L67080 33076
" />
<path d="M67080 33746
L67474 33746
" />
<path d="M58724 33076
L58330 33076
" />
<path d="M58330 33746
L58724 33746
" />
<path d="M60490 45948
L60755 45948
" />
<path d="M60490 41874
L60755 41874
" />
<path d="M64564 41874
L64299 41874
" />
<path d="M64564 45948
L64299 45948
" />
<path d="M60490 45948
L60490 45683
" />
<path d="M64564 45948
L64564 45683
" />
<path d="M64564 41874
L64564 42139
" />
<path d="M60490 41874
L60490 42139
" />
<path d="M60755 45948
L60755 46450
" />
<path d="M64594 38407
L64594 39407
" />
<path d="M64594 39407
L68594 39407
" />
<path d="M68594 39407
L68594 38407
" />
<path d="M68594 38407
L64594 38407
" />
<path d="M69047 38907
L68594 38907
" />
<path d="M64141 38907
L64594 38907
" />
<path d="M44517 35206
L44517 34734
" />
<path d="M45206 34734
L45206 35206
" />
<path d="M42763 33755
L42291 33755
" />
<path d="M42291 33066
L42763 33066
" />
<path d="M41929 37145
L41929 36673
" />
<path d="M42618 36673
L42618 37145
" />
<path d="M57677 43169
L57677 43641
" />
<path d="M56988 43641
L56988 43169
" />
<path d="M59372 43175
L59372 43647
" />
<path d="M58683 43647
L58683 43175
" />
<path d="M62135 47194
L62608 47194
" />
<path d="M62608 47883
L62135 47883
" />
<path d="M51230 37076
L51230 36604
" />
<path d="M51919 36604
L51919 37076
" />
<path d="M60816 36929
L60816 36456
" />
<path d="M61505 36456
L61505 36929
" />
<path d="M54005 35108
L54005 34635
" />
<path d="M54694 34635
L54694 35108
" />
<path d="M62844 35147
L62844 34675
" />
<path d="M63533 34675
L63533 35147
" />
<path d="M52263 33755
L51791 33755
" />
<path d="M51791 33066
L52263 33066
" />
<path d="M61263 33755
L60791 33755
" />
<path d="M60791 33066
L61263 33066
" />
<path d="M46781 36998
L46781 36525
" />
<path d="M47470 36525
L47470 36998
" />
<path d="M65206 36889
L65206 36417
" />
<path d="M65895 36417
L65895 36889
" />
<path d="M55659 36998
L55659 36525
" />
<path d="M56348 36525
L56348 36998
" />
<path d="M49517 35147
L49517 34675
" />
<path d="M50206 34675
L50206 35147
" />
<path d="M67135 35187
L67135 34714
" />
<path d="M67824 34714
L67824 35187
" />
<path d="M47763 33755
L47291 33755
" />
<path d="M47291 33066
L47763 33066
" />
<path d="M58513 35127
L58513 34655
" />
<path d="M59202 34655
L59202 35127
" />
<path d="M65513 33755
L65041 33755
" />
<path d="M65041 33066
L65513 33066
" />
<path d="M56763 33755
L56291 33755
" />
<path d="M56291 33066
L56763 33066
" />
<path d="M68268 40125
L67068 40125
" />
<path d="M67068 40125
L67068 42925
" />
<path d="M67068 42925
L68268 42925
" />
<path d="M69468 40125
L69768 40125
" />
<path d="M69768 40125
L70668 40725
" />
<path d="M70668 40725
L70668 42325
" />
<path d="M70668 42325
L69768 42925
" />
<path d="M69768 42925
L69468 42925
" />
<circle cx="41850.4" cy="35029.5" r="39.3701" /> 
<path d="M41948 34812
L41948 35009
" />
<path d="M43090 34812
L41948 34812
" />
<path d="M43090 35009
L43090 34812
" />
<path d="M41948 35009
L43090 35009
" />
<circle cx="46850.4" cy="35029.5" r="39.3701" /> 
<path d="M46948 34812
L46948 35009
" />
<path d="M48090 34812
L46948 34812
" />
<path d="M48090 35009
L48090 34812
" />
<path d="M46948 35009
L48090 35009
" />
<circle cx="51358.3" cy="35029.5" r="39.3701" /> 
<path d="M51456 34812
L51456 35009
" />
<path d="M52598 34812
L51456 34812
" />
<path d="M52598 35009
L52598 34812
" />
<path d="M51456 35009
L52598 35009
" />
<circle cx="55866.1" cy="35029.5" r="39.3701" /> 
<path d="M55964 34812
L55964 35009
" />
<path d="M57106 34812
L55964 34812
" />
<path d="M57106 35009
L57106 34812
" />
<path d="M55964 35009
L57106 35009
" />
<circle cx="60374" cy="34990.2" r="39.3701" /> 
<path d="M60472 34773
L60472 34970
" />
<path d="M61614 34773
L60472 34773
" />
<path d="M61614 34970
L61614 34773
" />
<path d="M60472 34970
L61614 34970
" />
<circle cx="64606.3" cy="35029.5" r="39.3701" /> 
<path d="M64704 34812
L64704 35009
" />
<path d="M65846 34812
L64704 34812
" />
<path d="M65846 35009
L65846 34812
" />
<path d="M64704 35009
L65846 35009
" />
<path d="M62708 29194
L62708 24990
" />
<path d="M60346 29194
L60346 24990
" />
<path d="M60346 24990
L62708 24990
" />
<path d="M60346 30053
L60346 31950
" />
<path d="M62393 32775
L60661 32775
" />
<path d="M62708 30053
L62708 31950
" />
<path d="M49208 29194
L49208 24990
" />
<path d="M46846 29194
L46846 24990
" />
<path d="M46846 24990
L49208 24990
" />
<path d="M46846 30053
L46846 31950
" />
<path d="M48893 32775
L47161 32775
" />
<path d="M49208 30053
L49208 31950
" />
<path d="M67208 29194
L67208 24990
" />
<path d="M64846 29194
L64846 24990
" />
<path d="M64846 24990
L67208 24990
" />
<path d="M64846 30053
L64846 31950
" />
<path d="M66893 32775
L65161 32775
" />
<path d="M67208 30053
L67208 31950
" />
<path d="M58208 29194
L58208 24990
" />
<path d="M55846 29194
L55846 24990
" />
<path d="M55846 24990
L58208 24990
" />
<path d="M55846 30053
L55846 31950
" />
<path d="M57893 32775
L56161 32775
" />
<path d="M58208 30053
L58208 31950
" />
<path d="M58527 51211
L58027 51211
" />
<path d="M58027 51211
L58027 53511
" />
<path d="M58027 53511
L58527 53511
" />
<path d="M66427 51211
L66927 51211
" />
<path d="M66427 53511
L66927 53511
" />
<path d="M66927 51211
L66927 53511
" />
<path d="M58527 53511
L66427 53511
" />
<path d="M66427 51211
L58527 51211
" />
<path d="M71484 42055
L71484 38055
" />
<path d="M73784 38055
L73784 42055
" />
<path d="M73784 42055
L71484 42055
" />
<path d="M73784 38055
L71484 38055
" />
<path d="M41407 44409
L41407 47953
" />
<path d="M40029 44409
L40029 47953
" />
<path d="M40029 47953
L45738 47953
" />
<path d="M45738 47953
L45738 44409
" />
<path d="M45738 44409
L40029 44409
" />
</g>
<g style="fill:#840000; fill-opacity:0.0; 
stroke:#840000; stroke-width:59.0551; stroke-opacity:1; 
stroke-linecap:round; stroke-linejoin:round;">
</g>
<g style="fill:#840000; fill-opacity:1.0; 
stroke:#840000; stroke-width:0; stroke-opacity:1; 
stroke-linecap:round; stroke-linejoin:round;">
<circle cx="44598.4" cy="29624" r="364.173" /> 
</g>
<g style="fill:#840000; fill-opacity:1.0; 
stroke:#840000; stroke-width:39.3701; stroke-opacity:1; 
stroke-linecap:round; stroke-linejoin:round;">
</g>
<g style="fill:#840000; fill-opacity:1.0; 
stroke:#840000; stroke-width:0; stroke-opacity:1; 
stroke-linecap:round; stroke-linejoin:round;">
<circle cx="44598.4" cy="32379.9" r="364.173" /> 
</g>
<g style="fill:#840000; fill-opacity:1.0; 
stroke:#840000; stroke-width:39.3701; stroke-opacity:1; 
stroke-linecap:round; stroke-linejoin:round;">
</g>
<g style="fill:#840000; fill-opacity:1.0; 
stroke:#840000; stroke-width:0; stroke-opacity:1; 
stroke-linecap:round; stroke-linejoin:round;">
<circle cx="42456.7" cy="29624" r="364.173" /> 
</g>
<g style="fill:#840000; fill-opacity:1.0; 
stroke:#840000; stroke-width:39.3701; stroke-opacity:1; 
stroke-linecap:round; stroke-linejoin:round;">
</g>
<g style="fill:#840000; fill-opacity:1.0; 
stroke:#840000; stroke-width:0; stroke-opacity:1; 
stroke-linecap:round; stroke-linejoin:round;">
<circle cx="42456.7" cy="32379.9" r="364.173" /> 
</g>
<g style="fill:#840000; fill-opacity:1.0; 
stroke:#840000; stroke-width:39.3701; stroke-opacity:1; 
stroke-linecap:round; stroke-linejoin:round;">
</g>
<g style="fill:#840000; fill-opacity:1.0; 
stroke:#840000; stroke-width:0; stroke-opacity:1; 
stroke-linecap:round; stroke-linejoin:round;">
<circle cx="53598.4" cy="29624" r="364.173" /> 
</g>
<g style="fill:#840000; fill-opacity:1.0; 
stroke:#840000; stroke-width:39.3701; stroke-opacity:1; 
stroke-linecap:round; stroke-linejoin:round;">
</g>
<g style="fill:#840000; fill-opacity:1.0; 
stroke:#840000; stroke-width:0; stroke-opacity:1; 
stroke-linecap:round; stroke-linejoin:round;">
<circle cx="53598.4" cy="32379.9" r="364.173" /> 
</g>
<g style="fill:#840000; fill-opacity:1.0; 
stroke:#840000; stroke-width:39.3701; stroke-opacity:1; 
stroke-linecap:round; stroke-linejoin:round;">
</g>
<g style="fill:#840000; fill-opacity:1.0; 
stroke:#840000; stroke-width:0; stroke-opacity:1; 
stroke-linecap:round; stroke-linejoin:round;">
<circle cx="51456.7" cy="29624" r="364.173" /> 
</g>
<g style="fill:#840000; fill-opacity:1.0; 
stroke:#840000; stroke-width:39.3701; stroke-opacity:1; 
stroke-linecap:round; stroke-linejoin:round;">
</g>
<g style="fill:#840000; fill-opacity:1.0; 
stroke:#840000; stroke-width:0; stroke-opacity:1; 
stroke-linecap:round; stroke-linejoin:round;">
<circle cx="51456.7" cy="32379.9" r="364.173" /> 
</g>
<g style="fill:#840000; fill-opacity:1.0; 
stroke:#840000; stroke-width:39.3701; stroke-opacity:1; 
stroke-linecap:round; stroke-linejoin:round;">
</g>
<g style="fill:#840000; fill-opacity:1.0; 
stroke:#840000; stroke-width:0; stroke-opacity:1; 
stroke-linecap:round; stroke-linejoin:round;">
<circle cx="63641.7" cy="38907.5" r="393.5" /> 
</g>
<g style="fill:#840000; fill-opacity:1.0; 
stroke:#840000; stroke-width:39.3701; stroke-opacity:1; 
stroke-linecap:round; stroke-linejoin:round;">
</g>
<g style="fill:#840000; fill-opacity:1.0; 
stroke:#840000; stroke-width:0; stroke-opacity:1; 
stroke-linecap:round; stroke-linejoin:round;">
<circle cx="69547.2" cy="38907.5" r="393.5" /> 
</g>
<g style="fill:#840000; fill-opacity:1.0; 
stroke:#840000; stroke-width:39.3701; stroke-opacity:1; 
stroke-linecap:round; stroke-linejoin:round;">
</g>
<g style="fill:#840000; fill-opacity:1.0; 
stroke:#840000; stroke-width:0; stroke-opacity:1; 
stroke-linecap:round; stroke-linejoin:round;">
<circle cx="62598.4" cy="29624" r="364.173" /> 
</g>
<g style="fill:#840000; fill-opacity:1.0; 
stroke:#840000; stroke-width:39.3701; stroke-opacity:1; 
stroke-linecap:round; stroke-linejoin:round;">
</g>
<g style="fill:#840000; fill-opacity:1.0; 
stroke:#840000; stroke-width:0; stroke-opacity:1; 
stroke-linecap:round; stroke-linejoin:round;">
<circle cx="62598.4" cy="32379.9" r="364.173" /> 
</g>
<g style="fill:#840000; fill-opacity:1.0; 
stroke:#840000; stroke-width:39.3701; stroke-opacity:1; 
stroke-linecap:round; stroke-linejoin:round;">
</g>
<g style="fill:#840000; fill-opacity:1.0; 
stroke:#840000; stroke-width:0; stroke-opacity:1; 
stroke-linecap:round; stroke-linejoin:round;">
<circle cx="60456.7" cy="29624" r="364.173" /> 
</g>
<g style="fill:#840000; fill-opacity:1.0; 
stroke:#840000; stroke-width:39.3701; stroke-opacity:1; 
stroke-linecap:round; stroke-linejoin:round;">
</g>
<g style="fill:#840000; fill-opacity:1.0; 
stroke:#840000; stroke-width:0; stroke-opacity:1; 
stroke-linecap:round; stroke-linejoin:round;">
<circle cx="60456.7" cy="32379.9" r="364.173" /> 
</g>
<g style="fill:#840000; fill-opacity:1.0; 
stroke:#840000; stroke-width:39.3701; stroke-opacity:1; 
stroke-linecap:round; stroke-linejoin:round;">
</g>
<g style="fill:#840000; fill-opacity:1.0; 
stroke:#840000; stroke-width:0; stroke-opacity:1; 
stroke-linecap:round; stroke-linejoin:round;">
<circle cx="49098.4" cy="29624" r="364.173" /> 
</g>
<g style="fill:#840000; fill-opacity:1.0; 
stroke:#840000; stroke-width:39.3701; stroke-opacity:1; 
stroke-linecap:round; stroke-linejoin:round;">
</g>
<g style="fill:#840000; fill-opacity:1.0; 
stroke:#840000; stroke-width:0; stroke-opacity:1; 
stroke-linecap:round; stroke-linejoin:round;">
<circle cx="49098.4" cy="32379.9" r="364.173" /> 
</g>
<g style="fill:#840000; fill-opacity:1.0; 
stroke:#840000; stroke-width:39.3701; stroke-opacity:1; 
stroke-linecap:round; stroke-linejoin:round;">
</g>
<g style="fill:#840000; fill-opacity:1.0; 
stroke:#840000; stroke-width:0; stroke-opacity:1; 
stroke-linecap:round; stroke-linejoin:round;">
<circle cx="46956.7" cy="29624" r="364.173" /> 
</g>
<g style="fill:#840000; fill-opacity:1.0; 
stroke:#840000; stroke-width:39.3701; stroke-opacity:1; 
stroke-linecap:round; stroke-linejoin:round;">
</g>
<g style="fill:#840000; fill-opacity:1.0; 
stroke:#840000; stroke-width:0; stroke-opacity:1; 
stroke-linecap:round; stroke-linejoin:round;">
<circle cx="46956.7" cy="32379.9" r="364.173" /> 
</g>
<g style="fill:#840000; fill-opacity:1.0; 
stroke:#840000; stroke-width:39.3701; stroke-opacity:1; 
stroke-linecap:round; stroke-linejoin:round;">
</g>
<g style="fill:#840000; fill-opacity:1.0; 
stroke:#840000; stroke-width:0; stroke-opacity:1; 
stroke-linecap:round; stroke-linejoin:round;">
<circle cx="67098.4" cy="29624" r="364.173" /> 
</g>
<g style="fill:#840000; fill-opacity:1.0; 
stroke:#840000; stroke-width:39.3701; stroke-opacity:1; 
stroke-linecap:round; stroke-linejoin:round;">
</g>
<g style="fill:#840000; fill-opacity:1.0; 
stroke:#840000; stroke-width:0; stroke-opacity:1; 
stroke-linecap:round; stroke-linejoin:round;">
<circle cx="67098.4" cy="32379.9" r="364.173" /> 
</g>
<g style="fill:#840000; fill-opacity:1.0; 
stroke:#840000; stroke-width:39.3701; stroke-opacity:1; 
stroke-linecap:round; stroke-linejoin:round;">
</g>
<g style="fill:#840000; fill-opacity:1.0; 
stroke:#840000; stroke-width:0; stroke-opacity:1; 
stroke-linecap:round; stroke-linejoin:round;">
<circle cx="64956.7" cy="29624" r="364.173" /> 
</g>
<g style="fill:#840000; fill-opacity:1.0; 
stroke:#840000; stroke-width:39.3701; stroke-opacity:1; 
stroke-linecap:round; stroke-linejoin:round;">
</g>
<g style="fill:#840000; fill-opacity:1.0; 
stroke:#840000; stroke-width:0; stroke-opacity:1; 
stroke-linecap:round; stroke-linejoin:round;">
<circle cx="64956.7" cy="32379.9" r="364.173" /> 
</g>
<g style="fill:#840000; fill-opacity:1.0; 
stroke:#840000; stroke-width:39.3701; stroke-opacity:1; 
stroke-linecap:round; stroke-linejoin:round;">
</g>
<g style="fill:#840000; fill-opacity:1.0; 
stroke:#840000; stroke-width:0; stroke-opacity:1; 
stroke-linecap:round; stroke-linejoin:round;">
<circle cx="58098.4" cy="29624" r="364.173" /> 
</g>
<g style="fill:#840000; fill-opacity:1.0; 
stroke:#840000; stroke-width:39.3701; stroke-opacity:1; 
stroke-linecap:round; stroke-linejoin:round;">
</g>
<g style="fill:#840000; fill-opacity:1.0; 
stroke:#840000; stroke-width:0; stroke-opacity:1; 
stroke-linecap:round; stroke-linejoin:round;">
<circle cx="58098.4" cy="32379.9" r="364.173" /> 
</g>
<g style="fill:#840000; fill-opacity:1.0; 
stroke:#840000; stroke-width:39.3701; stroke-opacity:1; 
stroke-linecap:round; stroke-linejoin:round;">
</g>
<g style="fill:#840000; fill-opacity:1.0; 
stroke:#840000; stroke-width:0; stroke-opacity:1; 
stroke-linecap:round; stroke-linejoin:round;">
<circle cx="55956.7" cy="29624" r="364.173" /> 
</g>
<g style="fill:#840000; fill-opacity:1.0; 
stroke:#840000; stroke-width:39.3701; stroke-opacity:1; 
stroke-linecap:round; stroke-linejoin:round;">
</g>
<g style="fill:#840000; fill-opacity:1.0; 
stroke:#840000; stroke-width:0; stroke-opacity:1; 
stroke-linecap:round; stroke-linejoin:round;">
<circle cx="55956.7" cy="32379.9" r="364.173" /> 
</g>
<g style="fill:#840000; fill-opacity:1.0; 
stroke:#840000; stroke-width:39.3701; stroke-opacity:1; 
stroke-linecap:round; stroke-linejoin:round;">
</g>
<g style="fill:#840000; fill-opacity:1.0; 
stroke:#840000; stroke-width:0; stroke-opacity:1; 
stroke-linecap:round; stroke-linejoin:round;">
<polyline style="fill-rule:evenodd;"
points="58633,52555
58633,51767
59421,51767
59421,52555
58633,52555
" /> 
<circle cx="60016.9" cy="52161.4" r="393.701" /> 
</g>
<g style="fill:#840000; fill-opacity:1.0; 
stroke:#840000; stroke-width:39.3701; stroke-opacity:1; 
stroke-linecap:round; stroke-linejoin:round;">
</g>
<g style="fill:#840000; fill-opacity:1.0; 
stroke:#840000; stroke-width:0; stroke-opacity:1; 
stroke-linecap:round; stroke-linejoin:round;">
<circle cx="61001.2" cy="52161.4" r="393.701" /> 
</g>
<g style="fill:#840000; fill-opacity:1.0; 
stroke:#840000; stroke-width:39.3701; stroke-opacity:1; 
stroke-linecap:round; stroke-linejoin:round;">
</g>
<g style="fill:#840000; fill-opacity:1.0; 
stroke:#840000; stroke-width:0; stroke-opacity:1; 
stroke-linecap:round; stroke-linejoin:round;">
<circle cx="61985.4" cy="52161.4" r="393.701" /> 
</g>
<g style="fill:#840000; fill-opacity:1.0; 
stroke:#840000; stroke-width:39.3701; stroke-opacity:1; 
stroke-linecap:round; stroke-linejoin:round;">
</g>
<g style="fill:#840000; fill-opacity:1.0; 
stroke:#840000; stroke-width:0; stroke-opacity:1; 
stroke-linecap:round; stroke-linejoin:round;">
<circle cx="62969.7" cy="52161.4" r="393.701" /> 
</g>
<g style="fill:#840000; fill-opacity:1.0; 
stroke:#840000; stroke-width:39.3701; stroke-opacity:1; 
stroke-linecap:round; stroke-linejoin:round;">
</g>
<g style="fill:#840000; fill-opacity:1.0; 
stroke:#840000; stroke-width:0; stroke-opacity:1; 
stroke-linecap:round; stroke-linejoin:round;">
<circle cx="63953.9" cy="52161.4" r="393.701" /> 
</g>
<g style="fill:#840000; fill-opacity:1.0; 
stroke:#840000; stroke-width:39.3701; stroke-opacity:1; 
stroke-linecap:round; stroke-linejoin:round;">
</g>
<g style="fill:#840000; fill-opacity:1.0; 
stroke:#840000; stroke-width:0; stroke-opacity:1; 
stroke-linecap:round; stroke-linejoin:round;">
<circle cx="64938.2" cy="52161.4" r="393.701" /> 
</g>
<g style="fill:#840000; fill-opacity:1.0; 
stroke:#840000; stroke-width:39.3701; stroke-opacity:1; 
stroke-linecap:round; stroke-linejoin:round;">
</g>
<g style="fill:#840000; fill-opacity:1.0; 
stroke:#840000; stroke-width:0; stroke-opacity:1; 
stroke-linecap:round; stroke-linejoin:round;">
<circle cx="65922.4" cy="52161.4" r="393.701" /> 
</g>
<g style="fill:#840000; fill-opacity:1.0; 
stroke:#840000; stroke-width:39.3701; stroke-opacity:1; 
stroke-linecap:round; stroke-linejoin:round;">
</g>
<g style="fill:#840000; fill-opacity:1.0; 
stroke:#840000; stroke-width:0; stroke-opacity:1; 
stroke-linecap:round; stroke-linejoin:round;">
<polyline style="fill-rule:evenodd;"
points="72440,38661
73228,38661
73228,39448
72440,39448
72440,38661
" /> 
<circle cx="72834.6" cy="40055.1" r="393.701" /> 
</g>
<g style="fill:#840000; fill-opacity:1.0; 
stroke:#840000; stroke-width:39.3701; stroke-opacity:1; 
stroke-linecap:round; stroke-linejoin:round;">
</g>
<g style="fill:#840000; fill-opacity:1.0; 
stroke:#840000; stroke-width:0; stroke-opacity:1; 
stroke-linecap:round; stroke-linejoin:round;">
<circle cx="72834.6" cy="41039.4" r="393.701" /> 
</g>
<g style="fill:#840000; fill-opacity:1.0; 
stroke:#840000; stroke-width:39.3701; stroke-opacity:1; 
stroke-linecap:round; stroke-linejoin:round;">
</g>
<g style="fill:#840000; fill-opacity:1.0; 
stroke:#840000; stroke-width:0; stroke-opacity:1; 
stroke-linecap:round; stroke-linejoin:round;">
<polyline style="fill-rule:evenodd;"
points="44734,46870
44734,45492
46112,45492
46112,46870
44734,46870
" /> 
<polyline style="fill-rule:evenodd;"
points="42372,46870
42372,45492
43750,45492
43750,46870
42372,46870
" /> 
<polyline style="fill-rule:evenodd;"
points="43553,48720
43553,47342
44931,47342
44931,48720
43553,48720
" /> 
</g> 
</svg>
