G04 #@! TF.FileFunction,Other,Fab,Top*
%FSLAX46Y46*%
G04 Gerber Fmt 4.6, Leading zero omitted, Abs format (unit mm)*
G04 Created by KiCad (PCBNEW 4.0.1-stable) date 17.05.2016 13:35:18*
%MOMM*%
G01*
G04 APERTURE LIST*
%ADD10C,0.100000*%
%ADD11C,0.150000*%
G04 APERTURE END LIST*
D10*
D11*
X113928572Y-83052381D02*
X113357143Y-83052381D01*
X113642857Y-83052381D02*
X113642857Y-82052381D01*
X113547619Y-82195238D01*
X113452381Y-82290476D01*
X113357143Y-82338095D01*
X114547619Y-82052381D02*
X114642858Y-82052381D01*
X114738096Y-82100000D01*
X114785715Y-82147619D01*
X114833334Y-82242857D01*
X114880953Y-82433333D01*
X114880953Y-82671429D01*
X114833334Y-82861905D01*
X114785715Y-82957143D01*
X114738096Y-83004762D01*
X114642858Y-83052381D01*
X114547619Y-83052381D01*
X114452381Y-83004762D01*
X114404762Y-82957143D01*
X114357143Y-82861905D01*
X114309524Y-82671429D01*
X114309524Y-82433333D01*
X114357143Y-82242857D01*
X114404762Y-82147619D01*
X114452381Y-82100000D01*
X114547619Y-82052381D01*
X115738096Y-82385714D02*
X115738096Y-83052381D01*
X115309524Y-82385714D02*
X115309524Y-82909524D01*
X115357143Y-83004762D01*
X115452381Y-83052381D01*
X115595239Y-83052381D01*
X115690477Y-83004762D01*
X115738096Y-82957143D01*
X116547620Y-82528571D02*
X116214286Y-82528571D01*
X116214286Y-83052381D02*
X116214286Y-82052381D01*
X116690477Y-82052381D01*
X104365956Y-61851427D02*
X104365956Y-62422856D01*
X104365956Y-62137142D02*
X103365956Y-62137142D01*
X103508813Y-62232380D01*
X103604051Y-62327618D01*
X103651670Y-62422856D01*
X103365956Y-61232380D02*
X103365956Y-61137141D01*
X103413575Y-61041903D01*
X103461194Y-60994284D01*
X103556432Y-60946665D01*
X103746908Y-60899046D01*
X103985004Y-60899046D01*
X104175480Y-60946665D01*
X104270718Y-60994284D01*
X104318337Y-61041903D01*
X104365956Y-61137141D01*
X104365956Y-61232380D01*
X104318337Y-61327618D01*
X104270718Y-61375237D01*
X104175480Y-61422856D01*
X103985004Y-61470475D01*
X103746908Y-61470475D01*
X103556432Y-61422856D01*
X103461194Y-61375237D01*
X103413575Y-61327618D01*
X103365956Y-61232380D01*
X103699289Y-60041903D02*
X104365956Y-60041903D01*
X103699289Y-60470475D02*
X104223099Y-60470475D01*
X104318337Y-60422856D01*
X104365956Y-60327618D01*
X104365956Y-60184760D01*
X104318337Y-60089522D01*
X104270718Y-60041903D01*
X103842146Y-59232379D02*
X103842146Y-59565713D01*
X104365956Y-59565713D02*
X103365956Y-59565713D01*
X103365956Y-59089522D01*
X106865956Y-61851427D02*
X106865956Y-62422856D01*
X106865956Y-62137142D02*
X105865956Y-62137142D01*
X106008813Y-62232380D01*
X106104051Y-62327618D01*
X106151670Y-62422856D01*
X105865956Y-61232380D02*
X105865956Y-61137141D01*
X105913575Y-61041903D01*
X105961194Y-60994284D01*
X106056432Y-60946665D01*
X106246908Y-60899046D01*
X106485004Y-60899046D01*
X106675480Y-60946665D01*
X106770718Y-60994284D01*
X106818337Y-61041903D01*
X106865956Y-61137141D01*
X106865956Y-61232380D01*
X106818337Y-61327618D01*
X106770718Y-61375237D01*
X106675480Y-61422856D01*
X106485004Y-61470475D01*
X106246908Y-61470475D01*
X106056432Y-61422856D01*
X105961194Y-61375237D01*
X105913575Y-61327618D01*
X105865956Y-61232380D01*
X106199289Y-60470475D02*
X106865956Y-60470475D01*
X106294527Y-60470475D02*
X106246908Y-60422856D01*
X106199289Y-60327618D01*
X106199289Y-60184760D01*
X106246908Y-60089522D01*
X106342146Y-60041903D01*
X106865956Y-60041903D01*
X106342146Y-59232379D02*
X106342146Y-59565713D01*
X106865956Y-59565713D02*
X105865956Y-59565713D01*
X105865956Y-59089522D01*
X153802294Y-102669301D02*
X154139012Y-102332583D01*
X153936981Y-102938675D02*
X153465576Y-101995866D01*
X154408385Y-102467270D01*
X153835965Y-101625476D02*
X154240027Y-101221415D01*
X154745103Y-102130553D02*
X154037996Y-101423446D01*
X155182836Y-101692820D02*
X154475729Y-100985713D01*
X155216508Y-101255087D01*
X154947134Y-100514308D01*
X155654240Y-101221415D01*
X155620568Y-100514308D02*
X155856271Y-100278605D01*
X156327675Y-100547980D02*
X155990958Y-100884698D01*
X155283851Y-100177591D01*
X155620569Y-99840873D01*
X156327675Y-99201110D02*
X156226660Y-99234782D01*
X156125645Y-99335797D01*
X156058301Y-99470484D01*
X156058301Y-99605171D01*
X156091973Y-99706186D01*
X156192988Y-99874545D01*
X156294004Y-99975561D01*
X156462362Y-100076576D01*
X156563377Y-100110248D01*
X156698064Y-100110248D01*
X156832752Y-100042903D01*
X156900095Y-99975560D01*
X156967439Y-99840873D01*
X156967439Y-99773530D01*
X156731737Y-99537828D01*
X156597050Y-99672515D01*
X157102126Y-99369469D02*
X157438844Y-99032751D01*
X157236813Y-99638843D02*
X156765408Y-98696034D01*
X157708217Y-99167438D01*
X157169469Y-98291973D02*
X157607202Y-97854240D01*
X157640873Y-98359316D01*
X157741889Y-98258300D01*
X157842904Y-98224629D01*
X157910248Y-98224629D01*
X158011263Y-98258301D01*
X158179622Y-98426660D01*
X158213294Y-98527675D01*
X158213294Y-98595018D01*
X158179622Y-98696033D01*
X157977591Y-98898064D01*
X157876576Y-98931736D01*
X157809232Y-98931736D01*
X157943919Y-97652209D02*
X157943919Y-97584866D01*
X157977591Y-97483851D01*
X158145950Y-97315491D01*
X158246965Y-97281820D01*
X158314309Y-97281820D01*
X158415324Y-97315491D01*
X158482667Y-97382835D01*
X158550011Y-97517522D01*
X158550011Y-98325644D01*
X158987744Y-97887911D01*
X159021416Y-97315492D02*
X159560164Y-96776744D01*
X160166255Y-96709401D02*
X159459148Y-96002294D01*
X160199927Y-96271668D01*
X159930553Y-95530889D01*
X160637660Y-96237996D01*
X162035953Y-92747381D02*
X161464524Y-92747381D01*
X161750238Y-92747381D02*
X161750238Y-91747381D01*
X161655000Y-91890238D01*
X161559762Y-91985476D01*
X161464524Y-92033095D01*
X162655000Y-91747381D02*
X162750239Y-91747381D01*
X162845477Y-91795000D01*
X162893096Y-91842619D01*
X162940715Y-91937857D01*
X162988334Y-92128333D01*
X162988334Y-92366429D01*
X162940715Y-92556905D01*
X162893096Y-92652143D01*
X162845477Y-92699762D01*
X162750239Y-92747381D01*
X162655000Y-92747381D01*
X162559762Y-92699762D01*
X162512143Y-92652143D01*
X162464524Y-92556905D01*
X162416905Y-92366429D01*
X162416905Y-92128333D01*
X162464524Y-91937857D01*
X162512143Y-91842619D01*
X162559762Y-91795000D01*
X162655000Y-91747381D01*
X163607381Y-91747381D02*
X163702620Y-91747381D01*
X163797858Y-91795000D01*
X163845477Y-91842619D01*
X163893096Y-91937857D01*
X163940715Y-92128333D01*
X163940715Y-92366429D01*
X163893096Y-92556905D01*
X163845477Y-92652143D01*
X163797858Y-92699762D01*
X163702620Y-92747381D01*
X163607381Y-92747381D01*
X163512143Y-92699762D01*
X163464524Y-92652143D01*
X163416905Y-92556905D01*
X163369286Y-92366429D01*
X163369286Y-92128333D01*
X163416905Y-91937857D01*
X163464524Y-91842619D01*
X163512143Y-91795000D01*
X163607381Y-91747381D01*
X164369286Y-92080714D02*
X164369286Y-92747381D01*
X164369286Y-92175952D02*
X164416905Y-92128333D01*
X164512143Y-92080714D01*
X164655001Y-92080714D01*
X164750239Y-92128333D01*
X164797858Y-92223571D01*
X164797858Y-92747381D01*
X143141905Y-64812381D02*
X143237144Y-64812381D01*
X143332382Y-64860000D01*
X143380001Y-64907619D01*
X143427620Y-65002857D01*
X143475239Y-65193333D01*
X143475239Y-65431429D01*
X143427620Y-65621905D01*
X143380001Y-65717143D01*
X143332382Y-65764762D01*
X143237144Y-65812381D01*
X143141905Y-65812381D01*
X143046667Y-65764762D01*
X142999048Y-65717143D01*
X142951429Y-65621905D01*
X142903810Y-65431429D01*
X142903810Y-65193333D01*
X142951429Y-65002857D01*
X142999048Y-64907619D01*
X143046667Y-64860000D01*
X143141905Y-64812381D01*
X143903810Y-65717143D02*
X143951429Y-65764762D01*
X143903810Y-65812381D01*
X143856191Y-65764762D01*
X143903810Y-65717143D01*
X143903810Y-65812381D01*
X144570476Y-64812381D02*
X144665715Y-64812381D01*
X144760953Y-64860000D01*
X144808572Y-64907619D01*
X144856191Y-65002857D01*
X144903810Y-65193333D01*
X144903810Y-65431429D01*
X144856191Y-65621905D01*
X144808572Y-65717143D01*
X144760953Y-65764762D01*
X144665715Y-65812381D01*
X144570476Y-65812381D01*
X144475238Y-65764762D01*
X144427619Y-65717143D01*
X144380000Y-65621905D01*
X144332381Y-65431429D01*
X144332381Y-65193333D01*
X144380000Y-65002857D01*
X144427619Y-64907619D01*
X144475238Y-64860000D01*
X144570476Y-64812381D01*
X145856191Y-65812381D02*
X145284762Y-65812381D01*
X145570476Y-65812381D02*
X145570476Y-64812381D01*
X145475238Y-64955238D01*
X145380000Y-65050476D01*
X145284762Y-65098095D01*
X146856191Y-65812381D02*
X146522857Y-65336190D01*
X146284762Y-65812381D02*
X146284762Y-64812381D01*
X146665715Y-64812381D01*
X146760953Y-64860000D01*
X146808572Y-64907619D01*
X146856191Y-65002857D01*
X146856191Y-65145714D01*
X146808572Y-65240952D01*
X146760953Y-65288571D01*
X146665715Y-65336190D01*
X146284762Y-65336190D01*
X118352381Y-56571428D02*
X118352381Y-57142857D01*
X118352381Y-56857143D02*
X117352381Y-56857143D01*
X117495238Y-56952381D01*
X117590476Y-57047619D01*
X117638095Y-57142857D01*
X117352381Y-55952381D02*
X117352381Y-55857142D01*
X117400000Y-55761904D01*
X117447619Y-55714285D01*
X117542857Y-55666666D01*
X117733333Y-55619047D01*
X117971429Y-55619047D01*
X118161905Y-55666666D01*
X118257143Y-55714285D01*
X118304762Y-55761904D01*
X118352381Y-55857142D01*
X118352381Y-55952381D01*
X118304762Y-56047619D01*
X118257143Y-56095238D01*
X118161905Y-56142857D01*
X117971429Y-56190476D01*
X117733333Y-56190476D01*
X117542857Y-56142857D01*
X117447619Y-56095238D01*
X117400000Y-56047619D01*
X117352381Y-55952381D01*
X117685714Y-54761904D02*
X118352381Y-54761904D01*
X117685714Y-55190476D02*
X118209524Y-55190476D01*
X118304762Y-55142857D01*
X118352381Y-55047619D01*
X118352381Y-54904761D01*
X118304762Y-54809523D01*
X118257143Y-54761904D01*
X117828571Y-53952380D02*
X117828571Y-54285714D01*
X118352381Y-54285714D02*
X117352381Y-54285714D01*
X117352381Y-53809523D01*
X138352381Y-56571428D02*
X138352381Y-57142857D01*
X138352381Y-56857143D02*
X137352381Y-56857143D01*
X137495238Y-56952381D01*
X137590476Y-57047619D01*
X137638095Y-57142857D01*
X137352381Y-55952381D02*
X137352381Y-55857142D01*
X137400000Y-55761904D01*
X137447619Y-55714285D01*
X137542857Y-55666666D01*
X137733333Y-55619047D01*
X137971429Y-55619047D01*
X138161905Y-55666666D01*
X138257143Y-55714285D01*
X138304762Y-55761904D01*
X138352381Y-55857142D01*
X138352381Y-55952381D01*
X138304762Y-56047619D01*
X138257143Y-56095238D01*
X138161905Y-56142857D01*
X137971429Y-56190476D01*
X137733333Y-56190476D01*
X137542857Y-56142857D01*
X137447619Y-56095238D01*
X137400000Y-56047619D01*
X137352381Y-55952381D01*
X137685714Y-54761904D02*
X138352381Y-54761904D01*
X137685714Y-55190476D02*
X138209524Y-55190476D01*
X138304762Y-55142857D01*
X138352381Y-55047619D01*
X138352381Y-54904761D01*
X138304762Y-54809523D01*
X138257143Y-54761904D01*
X137828571Y-53952380D02*
X137828571Y-54285714D01*
X138352381Y-54285714D02*
X137352381Y-54285714D01*
X137352381Y-53809523D01*
X128352381Y-56571428D02*
X128352381Y-57142857D01*
X128352381Y-56857143D02*
X127352381Y-56857143D01*
X127495238Y-56952381D01*
X127590476Y-57047619D01*
X127638095Y-57142857D01*
X127352381Y-55952381D02*
X127352381Y-55857142D01*
X127400000Y-55761904D01*
X127447619Y-55714285D01*
X127542857Y-55666666D01*
X127733333Y-55619047D01*
X127971429Y-55619047D01*
X128161905Y-55666666D01*
X128257143Y-55714285D01*
X128304762Y-55761904D01*
X128352381Y-55857142D01*
X128352381Y-55952381D01*
X128304762Y-56047619D01*
X128257143Y-56095238D01*
X128161905Y-56142857D01*
X127971429Y-56190476D01*
X127733333Y-56190476D01*
X127542857Y-56142857D01*
X127447619Y-56095238D01*
X127400000Y-56047619D01*
X127352381Y-55952381D01*
X127685714Y-54761904D02*
X128352381Y-54761904D01*
X127685714Y-55190476D02*
X128209524Y-55190476D01*
X128304762Y-55142857D01*
X128352381Y-55047619D01*
X128352381Y-54904761D01*
X128304762Y-54809523D01*
X128257143Y-54761904D01*
X127828571Y-53952380D02*
X127828571Y-54285714D01*
X128352381Y-54285714D02*
X127352381Y-54285714D01*
X127352381Y-53809523D01*
X148352381Y-56571428D02*
X148352381Y-57142857D01*
X148352381Y-56857143D02*
X147352381Y-56857143D01*
X147495238Y-56952381D01*
X147590476Y-57047619D01*
X147638095Y-57142857D01*
X147352381Y-55952381D02*
X147352381Y-55857142D01*
X147400000Y-55761904D01*
X147447619Y-55714285D01*
X147542857Y-55666666D01*
X147733333Y-55619047D01*
X147971429Y-55619047D01*
X148161905Y-55666666D01*
X148257143Y-55714285D01*
X148304762Y-55761904D01*
X148352381Y-55857142D01*
X148352381Y-55952381D01*
X148304762Y-56047619D01*
X148257143Y-56095238D01*
X148161905Y-56142857D01*
X147971429Y-56190476D01*
X147733333Y-56190476D01*
X147542857Y-56142857D01*
X147447619Y-56095238D01*
X147400000Y-56047619D01*
X147352381Y-55952381D01*
X147685714Y-54761904D02*
X148352381Y-54761904D01*
X147685714Y-55190476D02*
X148209524Y-55190476D01*
X148304762Y-55142857D01*
X148352381Y-55047619D01*
X148352381Y-54904761D01*
X148304762Y-54809523D01*
X148257143Y-54761904D01*
X147828571Y-53952380D02*
X147828571Y-54285714D01*
X148352381Y-54285714D02*
X147352381Y-54285714D01*
X147352381Y-53809523D01*
X158352381Y-56571428D02*
X158352381Y-57142857D01*
X158352381Y-56857143D02*
X157352381Y-56857143D01*
X157495238Y-56952381D01*
X157590476Y-57047619D01*
X157638095Y-57142857D01*
X157352381Y-55952381D02*
X157352381Y-55857142D01*
X157400000Y-55761904D01*
X157447619Y-55714285D01*
X157542857Y-55666666D01*
X157733333Y-55619047D01*
X157971429Y-55619047D01*
X158161905Y-55666666D01*
X158257143Y-55714285D01*
X158304762Y-55761904D01*
X158352381Y-55857142D01*
X158352381Y-55952381D01*
X158304762Y-56047619D01*
X158257143Y-56095238D01*
X158161905Y-56142857D01*
X157971429Y-56190476D01*
X157733333Y-56190476D01*
X157542857Y-56142857D01*
X157447619Y-56095238D01*
X157400000Y-56047619D01*
X157352381Y-55952381D01*
X157685714Y-54761904D02*
X158352381Y-54761904D01*
X157685714Y-55190476D02*
X158209524Y-55190476D01*
X158304762Y-55142857D01*
X158352381Y-55047619D01*
X158352381Y-54904761D01*
X158304762Y-54809523D01*
X158257143Y-54761904D01*
X157828571Y-53952380D02*
X157828571Y-54285714D01*
X158352381Y-54285714D02*
X157352381Y-54285714D01*
X157352381Y-53809523D01*
X114345239Y-87685714D02*
X114345239Y-88352381D01*
X114107143Y-87304762D02*
X113869048Y-88019048D01*
X114488096Y-88019048D01*
X114869048Y-88257143D02*
X114916667Y-88304762D01*
X114869048Y-88352381D01*
X114821429Y-88304762D01*
X114869048Y-88257143D01*
X114869048Y-88352381D01*
X115250000Y-87352381D02*
X115916667Y-87352381D01*
X115488095Y-88352381D01*
X116726191Y-87685714D02*
X116726191Y-88352381D01*
X116297619Y-87685714D02*
X116297619Y-88209524D01*
X116345238Y-88304762D01*
X116440476Y-88352381D01*
X116583334Y-88352381D01*
X116678572Y-88304762D01*
X116726191Y-88257143D01*
X117535715Y-87828571D02*
X117202381Y-87828571D01*
X117202381Y-88352381D02*
X117202381Y-87352381D01*
X117678572Y-87352381D01*
X116685714Y-95154761D02*
X117352381Y-95154761D01*
X116304762Y-95392857D02*
X117019048Y-95630952D01*
X117019048Y-95011904D01*
X117257143Y-94630952D02*
X117304762Y-94583333D01*
X117352381Y-94630952D01*
X117304762Y-94678571D01*
X117257143Y-94630952D01*
X117352381Y-94630952D01*
X116352381Y-94250000D02*
X116352381Y-93583333D01*
X117352381Y-94011905D01*
X116685714Y-92773809D02*
X117352381Y-92773809D01*
X116685714Y-93202381D02*
X117209524Y-93202381D01*
X117304762Y-93154762D01*
X117352381Y-93059524D01*
X117352381Y-92916666D01*
X117304762Y-92821428D01*
X117257143Y-92773809D01*
X116828571Y-91964285D02*
X116828571Y-92297619D01*
X117352381Y-92297619D02*
X116352381Y-92297619D01*
X116352381Y-91821428D01*
X133178572Y-73302381D02*
X132607143Y-73302381D01*
X132892857Y-73302381D02*
X132892857Y-72302381D01*
X132797619Y-72445238D01*
X132702381Y-72540476D01*
X132607143Y-72588095D01*
X133797619Y-72302381D02*
X133892858Y-72302381D01*
X133988096Y-72350000D01*
X134035715Y-72397619D01*
X134083334Y-72492857D01*
X134130953Y-72683333D01*
X134130953Y-72921429D01*
X134083334Y-73111905D01*
X134035715Y-73207143D01*
X133988096Y-73254762D01*
X133892858Y-73302381D01*
X133797619Y-73302381D01*
X133702381Y-73254762D01*
X133654762Y-73207143D01*
X133607143Y-73111905D01*
X133559524Y-72921429D01*
X133559524Y-72683333D01*
X133607143Y-72492857D01*
X133654762Y-72397619D01*
X133702381Y-72350000D01*
X133797619Y-72302381D01*
X134559524Y-72635714D02*
X134559524Y-73635714D01*
X134559524Y-72683333D02*
X134654762Y-72635714D01*
X134845239Y-72635714D01*
X134940477Y-72683333D01*
X134988096Y-72730952D01*
X135035715Y-72826190D01*
X135035715Y-73111905D01*
X134988096Y-73207143D01*
X134940477Y-73254762D01*
X134845239Y-73302381D01*
X134654762Y-73302381D01*
X134559524Y-73254762D01*
X135797620Y-72778571D02*
X135464286Y-72778571D01*
X135464286Y-73302381D02*
X135464286Y-72302381D01*
X135940477Y-72302381D01*
X133178572Y-72852381D02*
X132607143Y-72852381D01*
X132892857Y-72852381D02*
X132892857Y-71852381D01*
X132797619Y-71995238D01*
X132702381Y-72090476D01*
X132607143Y-72138095D01*
X133797619Y-71852381D02*
X133892858Y-71852381D01*
X133988096Y-71900000D01*
X134035715Y-71947619D01*
X134083334Y-72042857D01*
X134130953Y-72233333D01*
X134130953Y-72471429D01*
X134083334Y-72661905D01*
X134035715Y-72757143D01*
X133988096Y-72804762D01*
X133892858Y-72852381D01*
X133797619Y-72852381D01*
X133702381Y-72804762D01*
X133654762Y-72757143D01*
X133607143Y-72661905D01*
X133559524Y-72471429D01*
X133559524Y-72233333D01*
X133607143Y-72042857D01*
X133654762Y-71947619D01*
X133702381Y-71900000D01*
X133797619Y-71852381D01*
X134559524Y-72185714D02*
X134559524Y-73185714D01*
X134559524Y-72233333D02*
X134654762Y-72185714D01*
X134845239Y-72185714D01*
X134940477Y-72233333D01*
X134988096Y-72280952D01*
X135035715Y-72376190D01*
X135035715Y-72661905D01*
X134988096Y-72757143D01*
X134940477Y-72804762D01*
X134845239Y-72852381D01*
X134654762Y-72852381D01*
X134559524Y-72804762D01*
X135797620Y-72328571D02*
X135464286Y-72328571D01*
X135464286Y-72852381D02*
X135464286Y-71852381D01*
X135940477Y-71852381D01*
X108746299Y-74782381D02*
X108270108Y-74782381D01*
X108222489Y-75258571D01*
X108270108Y-75210952D01*
X108365346Y-75163333D01*
X108603442Y-75163333D01*
X108698680Y-75210952D01*
X108746299Y-75258571D01*
X108793918Y-75353810D01*
X108793918Y-75591905D01*
X108746299Y-75687143D01*
X108698680Y-75734762D01*
X108603442Y-75782381D01*
X108365346Y-75782381D01*
X108270108Y-75734762D01*
X108222489Y-75687143D01*
X109222489Y-75687143D02*
X109270108Y-75734762D01*
X109222489Y-75782381D01*
X109174870Y-75734762D01*
X109222489Y-75687143D01*
X109222489Y-75782381D01*
X110222489Y-75782381D02*
X109651060Y-75782381D01*
X109936774Y-75782381D02*
X109936774Y-74782381D01*
X109841536Y-74925238D01*
X109746298Y-75020476D01*
X109651060Y-75068095D01*
X110508203Y-74782381D02*
X110841536Y-75782381D01*
X111174870Y-74782381D01*
X112179211Y-60957283D02*
X112179211Y-61290617D01*
X112703021Y-61290617D02*
X111703021Y-61290617D01*
X111703021Y-60814426D01*
X112798259Y-60671569D02*
X112798259Y-59909664D01*
X112655402Y-59719188D02*
X112703021Y-59576331D01*
X112703021Y-59338235D01*
X112655402Y-59242997D01*
X112607783Y-59195378D01*
X112512545Y-59147759D01*
X112417307Y-59147759D01*
X112322069Y-59195378D01*
X112274450Y-59242997D01*
X112226830Y-59338235D01*
X112179211Y-59528712D01*
X112131592Y-59623950D01*
X112083973Y-59671569D01*
X111988735Y-59719188D01*
X111893497Y-59719188D01*
X111798259Y-59671569D01*
X111750640Y-59623950D01*
X111703021Y-59528712D01*
X111703021Y-59290616D01*
X111750640Y-59147759D01*
X112703021Y-58719188D02*
X112036354Y-58719188D01*
X112131592Y-58719188D02*
X112083973Y-58671569D01*
X112036354Y-58576331D01*
X112036354Y-58433473D01*
X112083973Y-58338235D01*
X112179211Y-58290616D01*
X112703021Y-58290616D01*
X112179211Y-58290616D02*
X112083973Y-58242997D01*
X112036354Y-58147759D01*
X112036354Y-58004902D01*
X112083973Y-57909664D01*
X112179211Y-57862045D01*
X112703021Y-57862045D01*
X112703021Y-56957283D02*
X112179211Y-56957283D01*
X112083973Y-57004902D01*
X112036354Y-57100140D01*
X112036354Y-57290617D01*
X112083973Y-57385855D01*
X112655402Y-56957283D02*
X112703021Y-57052521D01*
X112703021Y-57290617D01*
X112655402Y-57385855D01*
X112560164Y-57433474D01*
X112464926Y-57433474D01*
X112369688Y-57385855D01*
X112322069Y-57290617D01*
X112322069Y-57052521D01*
X112274450Y-56957283D01*
X112703021Y-56338236D02*
X112655402Y-56433474D01*
X112560164Y-56481093D01*
X111703021Y-56481093D01*
X112703021Y-55814426D02*
X112655402Y-55909664D01*
X112560164Y-55957283D01*
X111703021Y-55957283D01*
X122179211Y-60957283D02*
X122179211Y-61290617D01*
X122703021Y-61290617D02*
X121703021Y-61290617D01*
X121703021Y-60814426D01*
X122798259Y-60671569D02*
X122798259Y-59909664D01*
X122655402Y-59719188D02*
X122703021Y-59576331D01*
X122703021Y-59338235D01*
X122655402Y-59242997D01*
X122607783Y-59195378D01*
X122512545Y-59147759D01*
X122417307Y-59147759D01*
X122322069Y-59195378D01*
X122274450Y-59242997D01*
X122226830Y-59338235D01*
X122179211Y-59528712D01*
X122131592Y-59623950D01*
X122083973Y-59671569D01*
X121988735Y-59719188D01*
X121893497Y-59719188D01*
X121798259Y-59671569D01*
X121750640Y-59623950D01*
X121703021Y-59528712D01*
X121703021Y-59290616D01*
X121750640Y-59147759D01*
X122703021Y-58719188D02*
X122036354Y-58719188D01*
X122131592Y-58719188D02*
X122083973Y-58671569D01*
X122036354Y-58576331D01*
X122036354Y-58433473D01*
X122083973Y-58338235D01*
X122179211Y-58290616D01*
X122703021Y-58290616D01*
X122179211Y-58290616D02*
X122083973Y-58242997D01*
X122036354Y-58147759D01*
X122036354Y-58004902D01*
X122083973Y-57909664D01*
X122179211Y-57862045D01*
X122703021Y-57862045D01*
X122703021Y-56957283D02*
X122179211Y-56957283D01*
X122083973Y-57004902D01*
X122036354Y-57100140D01*
X122036354Y-57290617D01*
X122083973Y-57385855D01*
X122655402Y-56957283D02*
X122703021Y-57052521D01*
X122703021Y-57290617D01*
X122655402Y-57385855D01*
X122560164Y-57433474D01*
X122464926Y-57433474D01*
X122369688Y-57385855D01*
X122322069Y-57290617D01*
X122322069Y-57052521D01*
X122274450Y-56957283D01*
X122703021Y-56338236D02*
X122655402Y-56433474D01*
X122560164Y-56481093D01*
X121703021Y-56481093D01*
X122703021Y-55814426D02*
X122655402Y-55909664D01*
X122560164Y-55957283D01*
X121703021Y-55957283D01*
X147177931Y-61257003D02*
X147177931Y-61590337D01*
X147701741Y-61590337D02*
X146701741Y-61590337D01*
X146701741Y-61114146D01*
X147796979Y-60971289D02*
X147796979Y-60209384D01*
X147654122Y-60018908D02*
X147701741Y-59876051D01*
X147701741Y-59637955D01*
X147654122Y-59542717D01*
X147606503Y-59495098D01*
X147511265Y-59447479D01*
X147416027Y-59447479D01*
X147320789Y-59495098D01*
X147273170Y-59542717D01*
X147225550Y-59637955D01*
X147177931Y-59828432D01*
X147130312Y-59923670D01*
X147082693Y-59971289D01*
X146987455Y-60018908D01*
X146892217Y-60018908D01*
X146796979Y-59971289D01*
X146749360Y-59923670D01*
X146701741Y-59828432D01*
X146701741Y-59590336D01*
X146749360Y-59447479D01*
X147701741Y-59018908D02*
X147035074Y-59018908D01*
X147130312Y-59018908D02*
X147082693Y-58971289D01*
X147035074Y-58876051D01*
X147035074Y-58733193D01*
X147082693Y-58637955D01*
X147177931Y-58590336D01*
X147701741Y-58590336D01*
X147177931Y-58590336D02*
X147082693Y-58542717D01*
X147035074Y-58447479D01*
X147035074Y-58304622D01*
X147082693Y-58209384D01*
X147177931Y-58161765D01*
X147701741Y-58161765D01*
X147701741Y-57257003D02*
X147177931Y-57257003D01*
X147082693Y-57304622D01*
X147035074Y-57399860D01*
X147035074Y-57590337D01*
X147082693Y-57685575D01*
X147654122Y-57257003D02*
X147701741Y-57352241D01*
X147701741Y-57590337D01*
X147654122Y-57685575D01*
X147558884Y-57733194D01*
X147463646Y-57733194D01*
X147368408Y-57685575D01*
X147320789Y-57590337D01*
X147320789Y-57352241D01*
X147273170Y-57257003D01*
X147701741Y-56637956D02*
X147654122Y-56733194D01*
X147558884Y-56780813D01*
X146701741Y-56780813D01*
X147701741Y-56114146D02*
X147654122Y-56209384D01*
X147558884Y-56257003D01*
X146701741Y-56257003D01*
X137177931Y-61257003D02*
X137177931Y-61590337D01*
X137701741Y-61590337D02*
X136701741Y-61590337D01*
X136701741Y-61114146D01*
X137796979Y-60971289D02*
X137796979Y-60209384D01*
X137654122Y-60018908D02*
X137701741Y-59876051D01*
X137701741Y-59637955D01*
X137654122Y-59542717D01*
X137606503Y-59495098D01*
X137511265Y-59447479D01*
X137416027Y-59447479D01*
X137320789Y-59495098D01*
X137273170Y-59542717D01*
X137225550Y-59637955D01*
X137177931Y-59828432D01*
X137130312Y-59923670D01*
X137082693Y-59971289D01*
X136987455Y-60018908D01*
X136892217Y-60018908D01*
X136796979Y-59971289D01*
X136749360Y-59923670D01*
X136701741Y-59828432D01*
X136701741Y-59590336D01*
X136749360Y-59447479D01*
X137701741Y-59018908D02*
X137035074Y-59018908D01*
X137130312Y-59018908D02*
X137082693Y-58971289D01*
X137035074Y-58876051D01*
X137035074Y-58733193D01*
X137082693Y-58637955D01*
X137177931Y-58590336D01*
X137701741Y-58590336D01*
X137177931Y-58590336D02*
X137082693Y-58542717D01*
X137035074Y-58447479D01*
X137035074Y-58304622D01*
X137082693Y-58209384D01*
X137177931Y-58161765D01*
X137701741Y-58161765D01*
X137701741Y-57257003D02*
X137177931Y-57257003D01*
X137082693Y-57304622D01*
X137035074Y-57399860D01*
X137035074Y-57590337D01*
X137082693Y-57685575D01*
X137654122Y-57257003D02*
X137701741Y-57352241D01*
X137701741Y-57590337D01*
X137654122Y-57685575D01*
X137558884Y-57733194D01*
X137463646Y-57733194D01*
X137368408Y-57685575D01*
X137320789Y-57590337D01*
X137320789Y-57352241D01*
X137273170Y-57257003D01*
X137701741Y-56637956D02*
X137654122Y-56733194D01*
X137558884Y-56780813D01*
X136701741Y-56780813D01*
X137701741Y-56114146D02*
X137654122Y-56209384D01*
X137558884Y-56257003D01*
X136701741Y-56257003D01*
X139302381Y-88040476D02*
X139302381Y-88611905D01*
X139302381Y-88326191D02*
X138302381Y-88326191D01*
X138445238Y-88421429D01*
X138540476Y-88516667D01*
X138588095Y-88611905D01*
X138302381Y-87421429D02*
X138302381Y-87326190D01*
X138350000Y-87230952D01*
X138397619Y-87183333D01*
X138492857Y-87135714D01*
X138683333Y-87088095D01*
X138921429Y-87088095D01*
X139111905Y-87135714D01*
X139207143Y-87183333D01*
X139254762Y-87230952D01*
X139302381Y-87326190D01*
X139302381Y-87421429D01*
X139254762Y-87516667D01*
X139207143Y-87564286D01*
X139111905Y-87611905D01*
X138921429Y-87659524D01*
X138683333Y-87659524D01*
X138492857Y-87611905D01*
X138397619Y-87564286D01*
X138350000Y-87516667D01*
X138302381Y-87421429D01*
X139302381Y-86659524D02*
X138302381Y-86659524D01*
X139302381Y-86088095D02*
X138730952Y-86516667D01*
X138302381Y-86088095D02*
X138873810Y-86659524D01*
X131302381Y-88090476D02*
X131302381Y-88661905D01*
X131302381Y-88376191D02*
X130302381Y-88376191D01*
X130445238Y-88471429D01*
X130540476Y-88566667D01*
X130588095Y-88661905D01*
X130302381Y-87471429D02*
X130302381Y-87376190D01*
X130350000Y-87280952D01*
X130397619Y-87233333D01*
X130492857Y-87185714D01*
X130683333Y-87138095D01*
X130921429Y-87138095D01*
X131111905Y-87185714D01*
X131207143Y-87233333D01*
X131254762Y-87280952D01*
X131302381Y-87376190D01*
X131302381Y-87471429D01*
X131254762Y-87566667D01*
X131207143Y-87614286D01*
X131111905Y-87661905D01*
X130921429Y-87709524D01*
X130683333Y-87709524D01*
X130492857Y-87661905D01*
X130397619Y-87614286D01*
X130350000Y-87566667D01*
X130302381Y-87471429D01*
X131302381Y-86709524D02*
X130302381Y-86709524D01*
X131302381Y-86138095D02*
X130730952Y-86566667D01*
X130302381Y-86138095D02*
X130873810Y-86709524D01*
X126802381Y-88040476D02*
X126802381Y-88611905D01*
X126802381Y-88326191D02*
X125802381Y-88326191D01*
X125945238Y-88421429D01*
X126040476Y-88516667D01*
X126088095Y-88611905D01*
X125802381Y-87421429D02*
X125802381Y-87326190D01*
X125850000Y-87230952D01*
X125897619Y-87183333D01*
X125992857Y-87135714D01*
X126183333Y-87088095D01*
X126421429Y-87088095D01*
X126611905Y-87135714D01*
X126707143Y-87183333D01*
X126754762Y-87230952D01*
X126802381Y-87326190D01*
X126802381Y-87421429D01*
X126754762Y-87516667D01*
X126707143Y-87564286D01*
X126611905Y-87611905D01*
X126421429Y-87659524D01*
X126183333Y-87659524D01*
X125992857Y-87611905D01*
X125897619Y-87564286D01*
X125850000Y-87516667D01*
X125802381Y-87421429D01*
X126802381Y-86659524D02*
X125802381Y-86659524D01*
X126802381Y-86088095D02*
X126230952Y-86516667D01*
X125802381Y-86088095D02*
X126373810Y-86659524D01*
X113500000Y-75697619D02*
X113547619Y-75650000D01*
X113642857Y-75602381D01*
X113880953Y-75602381D01*
X113976191Y-75650000D01*
X114023810Y-75697619D01*
X114071429Y-75792857D01*
X114071429Y-75888095D01*
X114023810Y-76030952D01*
X113452381Y-76602381D01*
X114071429Y-76602381D01*
X114500000Y-76507143D02*
X114547619Y-76554762D01*
X114500000Y-76602381D01*
X114452381Y-76554762D01*
X114500000Y-76507143D01*
X114500000Y-76602381D01*
X114880952Y-75602381D02*
X115547619Y-75602381D01*
X115119047Y-76602381D01*
X115928571Y-76602381D02*
X115928571Y-75602381D01*
X116500000Y-76602381D02*
X116071428Y-76030952D01*
X116500000Y-75602381D02*
X115928571Y-76173810D01*
X116968347Y-97697479D02*
X116968347Y-97221288D01*
X117254061Y-97792717D02*
X116254061Y-97459384D01*
X117254061Y-97126050D01*
X117254061Y-96792717D02*
X116254061Y-96792717D01*
X116254061Y-96411764D01*
X116301680Y-96316526D01*
X116349299Y-96268907D01*
X116444537Y-96221288D01*
X116587394Y-96221288D01*
X116682632Y-96268907D01*
X116730251Y-96316526D01*
X116777870Y-96411764D01*
X116777870Y-96792717D01*
X117254061Y-95268907D02*
X117254061Y-95840336D01*
X117254061Y-95554622D02*
X116254061Y-95554622D01*
X116396918Y-95649860D01*
X116492156Y-95745098D01*
X116539775Y-95840336D01*
X117254061Y-94316526D02*
X117254061Y-94887955D01*
X117254061Y-94602241D02*
X116254061Y-94602241D01*
X116396918Y-94697479D01*
X116492156Y-94792717D01*
X116539775Y-94887955D01*
X117254061Y-93364145D02*
X117254061Y-93935574D01*
X117254061Y-93649860D02*
X116254061Y-93649860D01*
X116396918Y-93745098D01*
X116492156Y-93840336D01*
X116539775Y-93935574D01*
X116254061Y-93030812D02*
X116254061Y-92364145D01*
X117254061Y-92792717D01*
X116730251Y-91983193D02*
X116730251Y-91649859D01*
X117254061Y-91507002D02*
X117254061Y-91983193D01*
X116254061Y-91983193D01*
X116254061Y-91507002D01*
X116254061Y-91173669D02*
X116254061Y-90554621D01*
X116635013Y-90887955D01*
X116635013Y-90745097D01*
X116682632Y-90649859D01*
X116730251Y-90602240D01*
X116825490Y-90554621D01*
X117063585Y-90554621D01*
X117158823Y-90602240D01*
X117206442Y-90649859D01*
X117254061Y-90745097D01*
X117254061Y-91030812D01*
X117206442Y-91126050D01*
X117158823Y-91173669D01*
X116254061Y-90221288D02*
X116254061Y-89602240D01*
X116635013Y-89935574D01*
X116635013Y-89792716D01*
X116682632Y-89697478D01*
X116730251Y-89649859D01*
X116825490Y-89602240D01*
X117063585Y-89602240D01*
X117158823Y-89649859D01*
X117206442Y-89697478D01*
X117254061Y-89792716D01*
X117254061Y-90078431D01*
X117206442Y-90173669D01*
X117158823Y-90221288D01*
X118678571Y-77154761D02*
X118678571Y-77488095D01*
X119202381Y-77488095D02*
X118202381Y-77488095D01*
X118202381Y-77011904D01*
X118678571Y-76630952D02*
X118678571Y-76297618D01*
X119202381Y-76154761D02*
X119202381Y-76630952D01*
X118202381Y-76630952D01*
X118202381Y-76154761D01*
X119202381Y-75202380D02*
X119202381Y-75773809D01*
X119202381Y-75488095D02*
X118202381Y-75488095D01*
X118345238Y-75583333D01*
X118440476Y-75678571D01*
X118488095Y-75773809D01*
X119107143Y-74773809D02*
X119154762Y-74726190D01*
X119202381Y-74773809D01*
X119154762Y-74821428D01*
X119107143Y-74773809D01*
X119202381Y-74773809D01*
X119202381Y-73773809D02*
X119202381Y-74345238D01*
X119202381Y-74059524D02*
X118202381Y-74059524D01*
X118345238Y-74154762D01*
X118440476Y-74250000D01*
X118488095Y-74345238D01*
X119154762Y-73392857D02*
X119202381Y-73297619D01*
X119202381Y-73107143D01*
X119154762Y-73011904D01*
X119059524Y-72964285D01*
X119011905Y-72964285D01*
X118916667Y-73011904D01*
X118869048Y-73107143D01*
X118869048Y-73250000D01*
X118821429Y-73345238D01*
X118726190Y-73392857D01*
X118678571Y-73392857D01*
X118583333Y-73345238D01*
X118535714Y-73250000D01*
X118535714Y-73107143D01*
X118583333Y-73011904D01*
X137242093Y-75372381D02*
X136670664Y-75372381D01*
X136956378Y-75372381D02*
X136956378Y-74372381D01*
X136861140Y-74515238D01*
X136765902Y-74610476D01*
X136670664Y-74658095D01*
X137623045Y-74467619D02*
X137670664Y-74420000D01*
X137765902Y-74372381D01*
X138003998Y-74372381D01*
X138099236Y-74420000D01*
X138146855Y-74467619D01*
X138194474Y-74562857D01*
X138194474Y-74658095D01*
X138146855Y-74800952D01*
X137575426Y-75372381D01*
X138194474Y-75372381D01*
X138623045Y-75372381D02*
X138623045Y-74372381D01*
X138956379Y-75086667D01*
X139289712Y-74372381D01*
X139289712Y-75372381D01*
X139765902Y-75372381D02*
X139765902Y-74372381D01*
X140194474Y-75372381D02*
X140194474Y-74848571D01*
X140146855Y-74753333D01*
X140051617Y-74705714D01*
X139908759Y-74705714D01*
X139813521Y-74753333D01*
X139765902Y-74800952D01*
X140575426Y-74705714D02*
X141099236Y-74705714D01*
X140575426Y-75372381D01*
X141099236Y-75372381D01*
X100179211Y-70792623D02*
X100179211Y-71125957D01*
X100703021Y-71125957D02*
X99703021Y-71125957D01*
X99703021Y-70649766D01*
X100798259Y-70506909D02*
X100798259Y-69745004D01*
X100655402Y-69554528D02*
X100703021Y-69411671D01*
X100703021Y-69173575D01*
X100655402Y-69078337D01*
X100607783Y-69030718D01*
X100512545Y-68983099D01*
X100417307Y-68983099D01*
X100322069Y-69030718D01*
X100274450Y-69078337D01*
X100226830Y-69173575D01*
X100179211Y-69364052D01*
X100131592Y-69459290D01*
X100083973Y-69506909D01*
X99988735Y-69554528D01*
X99893497Y-69554528D01*
X99798259Y-69506909D01*
X99750640Y-69459290D01*
X99703021Y-69364052D01*
X99703021Y-69125956D01*
X99750640Y-68983099D01*
X100703021Y-68554528D02*
X100036354Y-68554528D01*
X100131592Y-68554528D02*
X100083973Y-68506909D01*
X100036354Y-68411671D01*
X100036354Y-68268813D01*
X100083973Y-68173575D01*
X100179211Y-68125956D01*
X100703021Y-68125956D01*
X100179211Y-68125956D02*
X100083973Y-68078337D01*
X100036354Y-67983099D01*
X100036354Y-67840242D01*
X100083973Y-67745004D01*
X100179211Y-67697385D01*
X100703021Y-67697385D01*
X100703021Y-66792623D02*
X100179211Y-66792623D01*
X100083973Y-66840242D01*
X100036354Y-66935480D01*
X100036354Y-67125957D01*
X100083973Y-67221195D01*
X100655402Y-66792623D02*
X100703021Y-66887861D01*
X100703021Y-67125957D01*
X100655402Y-67221195D01*
X100560164Y-67268814D01*
X100464926Y-67268814D01*
X100369688Y-67221195D01*
X100322069Y-67125957D01*
X100322069Y-66887861D01*
X100274450Y-66792623D01*
X100703021Y-66173576D02*
X100655402Y-66268814D01*
X100560164Y-66316433D01*
X99703021Y-66316433D01*
X100703021Y-65649766D02*
X100655402Y-65745004D01*
X100560164Y-65792623D01*
X99703021Y-65792623D01*
X108352381Y-56571428D02*
X108352381Y-57142857D01*
X108352381Y-56857143D02*
X107352381Y-56857143D01*
X107495238Y-56952381D01*
X107590476Y-57047619D01*
X107638095Y-57142857D01*
X107352381Y-55952381D02*
X107352381Y-55857142D01*
X107400000Y-55761904D01*
X107447619Y-55714285D01*
X107542857Y-55666666D01*
X107733333Y-55619047D01*
X107971429Y-55619047D01*
X108161905Y-55666666D01*
X108257143Y-55714285D01*
X108304762Y-55761904D01*
X108352381Y-55857142D01*
X108352381Y-55952381D01*
X108304762Y-56047619D01*
X108257143Y-56095238D01*
X108161905Y-56142857D01*
X107971429Y-56190476D01*
X107733333Y-56190476D01*
X107542857Y-56142857D01*
X107447619Y-56095238D01*
X107400000Y-56047619D01*
X107352381Y-55952381D01*
X107685714Y-54761904D02*
X108352381Y-54761904D01*
X107685714Y-55190476D02*
X108209524Y-55190476D01*
X108304762Y-55142857D01*
X108352381Y-55047619D01*
X108352381Y-54904761D01*
X108304762Y-54809523D01*
X108257143Y-54761904D01*
X107828571Y-53952380D02*
X107828571Y-54285714D01*
X108352381Y-54285714D02*
X107352381Y-54285714D01*
X107352381Y-53809523D01*
X157177931Y-61257003D02*
X157177931Y-61590337D01*
X157701741Y-61590337D02*
X156701741Y-61590337D01*
X156701741Y-61114146D01*
X157796979Y-60971289D02*
X157796979Y-60209384D01*
X157654122Y-60018908D02*
X157701741Y-59876051D01*
X157701741Y-59637955D01*
X157654122Y-59542717D01*
X157606503Y-59495098D01*
X157511265Y-59447479D01*
X157416027Y-59447479D01*
X157320789Y-59495098D01*
X157273170Y-59542717D01*
X157225550Y-59637955D01*
X157177931Y-59828432D01*
X157130312Y-59923670D01*
X157082693Y-59971289D01*
X156987455Y-60018908D01*
X156892217Y-60018908D01*
X156796979Y-59971289D01*
X156749360Y-59923670D01*
X156701741Y-59828432D01*
X156701741Y-59590336D01*
X156749360Y-59447479D01*
X157701741Y-59018908D02*
X157035074Y-59018908D01*
X157130312Y-59018908D02*
X157082693Y-58971289D01*
X157035074Y-58876051D01*
X157035074Y-58733193D01*
X157082693Y-58637955D01*
X157177931Y-58590336D01*
X157701741Y-58590336D01*
X157177931Y-58590336D02*
X157082693Y-58542717D01*
X157035074Y-58447479D01*
X157035074Y-58304622D01*
X157082693Y-58209384D01*
X157177931Y-58161765D01*
X157701741Y-58161765D01*
X157701741Y-57257003D02*
X157177931Y-57257003D01*
X157082693Y-57304622D01*
X157035074Y-57399860D01*
X157035074Y-57590337D01*
X157082693Y-57685575D01*
X157654122Y-57257003D02*
X157701741Y-57352241D01*
X157701741Y-57590337D01*
X157654122Y-57685575D01*
X157558884Y-57733194D01*
X157463646Y-57733194D01*
X157368408Y-57685575D01*
X157320789Y-57590337D01*
X157320789Y-57352241D01*
X157273170Y-57257003D01*
X157701741Y-56637956D02*
X157654122Y-56733194D01*
X157558884Y-56780813D01*
X156701741Y-56780813D01*
X157701741Y-56114146D02*
X157654122Y-56209384D01*
X157558884Y-56257003D01*
X156701741Y-56257003D01*
X167177931Y-61257003D02*
X167177931Y-61590337D01*
X167701741Y-61590337D02*
X166701741Y-61590337D01*
X166701741Y-61114146D01*
X167796979Y-60971289D02*
X167796979Y-60209384D01*
X167654122Y-60018908D02*
X167701741Y-59876051D01*
X167701741Y-59637955D01*
X167654122Y-59542717D01*
X167606503Y-59495098D01*
X167511265Y-59447479D01*
X167416027Y-59447479D01*
X167320789Y-59495098D01*
X167273170Y-59542717D01*
X167225550Y-59637955D01*
X167177931Y-59828432D01*
X167130312Y-59923670D01*
X167082693Y-59971289D01*
X166987455Y-60018908D01*
X166892217Y-60018908D01*
X166796979Y-59971289D01*
X166749360Y-59923670D01*
X166701741Y-59828432D01*
X166701741Y-59590336D01*
X166749360Y-59447479D01*
X167701741Y-59018908D02*
X167035074Y-59018908D01*
X167130312Y-59018908D02*
X167082693Y-58971289D01*
X167035074Y-58876051D01*
X167035074Y-58733193D01*
X167082693Y-58637955D01*
X167177931Y-58590336D01*
X167701741Y-58590336D01*
X167177931Y-58590336D02*
X167082693Y-58542717D01*
X167035074Y-58447479D01*
X167035074Y-58304622D01*
X167082693Y-58209384D01*
X167177931Y-58161765D01*
X167701741Y-58161765D01*
X167701741Y-57257003D02*
X167177931Y-57257003D01*
X167082693Y-57304622D01*
X167035074Y-57399860D01*
X167035074Y-57590337D01*
X167082693Y-57685575D01*
X167654122Y-57257003D02*
X167701741Y-57352241D01*
X167701741Y-57590337D01*
X167654122Y-57685575D01*
X167558884Y-57733194D01*
X167463646Y-57733194D01*
X167368408Y-57685575D01*
X167320789Y-57590337D01*
X167320789Y-57352241D01*
X167273170Y-57257003D01*
X167701741Y-56637956D02*
X167654122Y-56733194D01*
X167558884Y-56780813D01*
X166701741Y-56780813D01*
X167701741Y-56114146D02*
X167654122Y-56209384D01*
X167558884Y-56257003D01*
X166701741Y-56257003D01*
X98602381Y-84185714D02*
X98602381Y-83566666D01*
X98983333Y-83900000D01*
X98983333Y-83757142D01*
X99030952Y-83661904D01*
X99078571Y-83614285D01*
X99173810Y-83566666D01*
X99411905Y-83566666D01*
X99507143Y-83614285D01*
X99554762Y-83661904D01*
X99602381Y-83757142D01*
X99602381Y-84042857D01*
X99554762Y-84138095D01*
X99507143Y-84185714D01*
X98602381Y-83233333D02*
X98602381Y-82614285D01*
X98983333Y-82947619D01*
X98983333Y-82804761D01*
X99030952Y-82709523D01*
X99078571Y-82661904D01*
X99173810Y-82614285D01*
X99411905Y-82614285D01*
X99507143Y-82661904D01*
X99554762Y-82709523D01*
X99602381Y-82804761D01*
X99602381Y-83090476D01*
X99554762Y-83185714D01*
X99507143Y-83233333D01*
X98602381Y-81995238D02*
X98602381Y-81899999D01*
X98650000Y-81804761D01*
X98697619Y-81757142D01*
X98792857Y-81709523D01*
X98983333Y-81661904D01*
X99221429Y-81661904D01*
X99411905Y-81709523D01*
X99507143Y-81757142D01*
X99554762Y-81804761D01*
X99602381Y-81899999D01*
X99602381Y-81995238D01*
X99554762Y-82090476D01*
X99507143Y-82138095D01*
X99411905Y-82185714D01*
X99221429Y-82233333D01*
X98983333Y-82233333D01*
X98792857Y-82185714D01*
X98697619Y-82138095D01*
X98650000Y-82090476D01*
X98602381Y-81995238D01*
X135802381Y-88635714D02*
X135802381Y-88016666D01*
X136183333Y-88350000D01*
X136183333Y-88207142D01*
X136230952Y-88111904D01*
X136278571Y-88064285D01*
X136373810Y-88016666D01*
X136611905Y-88016666D01*
X136707143Y-88064285D01*
X136754762Y-88111904D01*
X136802381Y-88207142D01*
X136802381Y-88492857D01*
X136754762Y-88588095D01*
X136707143Y-88635714D01*
X135802381Y-87683333D02*
X135802381Y-87064285D01*
X136183333Y-87397619D01*
X136183333Y-87254761D01*
X136230952Y-87159523D01*
X136278571Y-87111904D01*
X136373810Y-87064285D01*
X136611905Y-87064285D01*
X136707143Y-87111904D01*
X136754762Y-87159523D01*
X136802381Y-87254761D01*
X136802381Y-87540476D01*
X136754762Y-87635714D01*
X136707143Y-87683333D01*
X135802381Y-86445238D02*
X135802381Y-86349999D01*
X135850000Y-86254761D01*
X135897619Y-86207142D01*
X135992857Y-86159523D01*
X136183333Y-86111904D01*
X136421429Y-86111904D01*
X136611905Y-86159523D01*
X136707143Y-86207142D01*
X136754762Y-86254761D01*
X136802381Y-86349999D01*
X136802381Y-86445238D01*
X136754762Y-86540476D01*
X136707143Y-86588095D01*
X136611905Y-86635714D01*
X136421429Y-86683333D01*
X136183333Y-86683333D01*
X135992857Y-86635714D01*
X135897619Y-86588095D01*
X135850000Y-86540476D01*
X135802381Y-86445238D01*
X133552381Y-88635714D02*
X133552381Y-88016666D01*
X133933333Y-88350000D01*
X133933333Y-88207142D01*
X133980952Y-88111904D01*
X134028571Y-88064285D01*
X134123810Y-88016666D01*
X134361905Y-88016666D01*
X134457143Y-88064285D01*
X134504762Y-88111904D01*
X134552381Y-88207142D01*
X134552381Y-88492857D01*
X134504762Y-88588095D01*
X134457143Y-88635714D01*
X133552381Y-87683333D02*
X133552381Y-87064285D01*
X133933333Y-87397619D01*
X133933333Y-87254761D01*
X133980952Y-87159523D01*
X134028571Y-87111904D01*
X134123810Y-87064285D01*
X134361905Y-87064285D01*
X134457143Y-87111904D01*
X134504762Y-87159523D01*
X134552381Y-87254761D01*
X134552381Y-87540476D01*
X134504762Y-87635714D01*
X134457143Y-87683333D01*
X133552381Y-86445238D02*
X133552381Y-86349999D01*
X133600000Y-86254761D01*
X133647619Y-86207142D01*
X133742857Y-86159523D01*
X133933333Y-86111904D01*
X134171429Y-86111904D01*
X134361905Y-86159523D01*
X134457143Y-86207142D01*
X134504762Y-86254761D01*
X134552381Y-86349999D01*
X134552381Y-86445238D01*
X134504762Y-86540476D01*
X134457143Y-86588095D01*
X134361905Y-86635714D01*
X134171429Y-86683333D01*
X133933333Y-86683333D01*
X133742857Y-86635714D01*
X133647619Y-86588095D01*
X133600000Y-86540476D01*
X133552381Y-86445238D01*
X95602381Y-84185714D02*
X95602381Y-83566666D01*
X95983333Y-83900000D01*
X95983333Y-83757142D01*
X96030952Y-83661904D01*
X96078571Y-83614285D01*
X96173810Y-83566666D01*
X96411905Y-83566666D01*
X96507143Y-83614285D01*
X96554762Y-83661904D01*
X96602381Y-83757142D01*
X96602381Y-84042857D01*
X96554762Y-84138095D01*
X96507143Y-84185714D01*
X95602381Y-83233333D02*
X95602381Y-82614285D01*
X95983333Y-82947619D01*
X95983333Y-82804761D01*
X96030952Y-82709523D01*
X96078571Y-82661904D01*
X96173810Y-82614285D01*
X96411905Y-82614285D01*
X96507143Y-82661904D01*
X96554762Y-82709523D01*
X96602381Y-82804761D01*
X96602381Y-83090476D01*
X96554762Y-83185714D01*
X96507143Y-83233333D01*
X95602381Y-81995238D02*
X95602381Y-81899999D01*
X95650000Y-81804761D01*
X95697619Y-81757142D01*
X95792857Y-81709523D01*
X95983333Y-81661904D01*
X96221429Y-81661904D01*
X96411905Y-81709523D01*
X96507143Y-81757142D01*
X96554762Y-81804761D01*
X96602381Y-81899999D01*
X96602381Y-81995238D01*
X96554762Y-82090476D01*
X96507143Y-82138095D01*
X96411905Y-82185714D01*
X96221429Y-82233333D01*
X95983333Y-82233333D01*
X95792857Y-82185714D01*
X95697619Y-82138095D01*
X95650000Y-82090476D01*
X95602381Y-81995238D01*
X129052381Y-88040476D02*
X129052381Y-88611905D01*
X129052381Y-88326191D02*
X128052381Y-88326191D01*
X128195238Y-88421429D01*
X128290476Y-88516667D01*
X128338095Y-88611905D01*
X128052381Y-87421429D02*
X128052381Y-87326190D01*
X128100000Y-87230952D01*
X128147619Y-87183333D01*
X128242857Y-87135714D01*
X128433333Y-87088095D01*
X128671429Y-87088095D01*
X128861905Y-87135714D01*
X128957143Y-87183333D01*
X129004762Y-87230952D01*
X129052381Y-87326190D01*
X129052381Y-87421429D01*
X129004762Y-87516667D01*
X128957143Y-87564286D01*
X128861905Y-87611905D01*
X128671429Y-87659524D01*
X128433333Y-87659524D01*
X128242857Y-87611905D01*
X128147619Y-87564286D01*
X128100000Y-87516667D01*
X128052381Y-87421429D01*
X129052381Y-86659524D02*
X128052381Y-86659524D01*
X129052381Y-86088095D02*
X128480952Y-86516667D01*
X128052381Y-86088095D02*
X128623810Y-86659524D01*
X149792381Y-65444047D02*
X149792381Y-66015476D01*
X149792381Y-65729762D02*
X148792381Y-65729762D01*
X148935238Y-65825000D01*
X149030476Y-65920238D01*
X149078095Y-66015476D01*
X148792381Y-64825000D02*
X148792381Y-64729761D01*
X148840000Y-64634523D01*
X148887619Y-64586904D01*
X148982857Y-64539285D01*
X149173333Y-64491666D01*
X149411429Y-64491666D01*
X149601905Y-64539285D01*
X149697143Y-64586904D01*
X149744762Y-64634523D01*
X149792381Y-64729761D01*
X149792381Y-64825000D01*
X149744762Y-64920238D01*
X149697143Y-64967857D01*
X149601905Y-65015476D01*
X149411429Y-65063095D01*
X149173333Y-65063095D01*
X148982857Y-65015476D01*
X148887619Y-64967857D01*
X148840000Y-64920238D01*
X148792381Y-64825000D01*
X148792381Y-63872619D02*
X148792381Y-63777380D01*
X148840000Y-63682142D01*
X148887619Y-63634523D01*
X148982857Y-63586904D01*
X149173333Y-63539285D01*
X149411429Y-63539285D01*
X149601905Y-63586904D01*
X149697143Y-63634523D01*
X149744762Y-63682142D01*
X149792381Y-63777380D01*
X149792381Y-63872619D01*
X149744762Y-63967857D01*
X149697143Y-64015476D01*
X149601905Y-64063095D01*
X149411429Y-64110714D01*
X149173333Y-64110714D01*
X148982857Y-64063095D01*
X148887619Y-64015476D01*
X148840000Y-63967857D01*
X148792381Y-63872619D01*
X149125714Y-63110714D02*
X149792381Y-63110714D01*
X149220952Y-63110714D02*
X149173333Y-63063095D01*
X149125714Y-62967857D01*
X149125714Y-62824999D01*
X149173333Y-62729761D01*
X149268571Y-62682142D01*
X149792381Y-62682142D01*
X155677381Y-73666666D02*
X155677381Y-74238095D01*
X155677381Y-73952381D02*
X154677381Y-73952381D01*
X154820238Y-74047619D01*
X154915476Y-74142857D01*
X154963095Y-74238095D01*
X155010714Y-73238095D02*
X155677381Y-73238095D01*
X155105952Y-73238095D02*
X155058333Y-73190476D01*
X155010714Y-73095238D01*
X155010714Y-72952380D01*
X155058333Y-72857142D01*
X155153571Y-72809523D01*
X155677381Y-72809523D01*
X148102381Y-73216666D02*
X148102381Y-73788095D01*
X148102381Y-73502381D02*
X147102381Y-73502381D01*
X147245238Y-73597619D01*
X147340476Y-73692857D01*
X147388095Y-73788095D01*
X147435714Y-72788095D02*
X148102381Y-72788095D01*
X147530952Y-72788095D02*
X147483333Y-72740476D01*
X147435714Y-72645238D01*
X147435714Y-72502380D01*
X147483333Y-72407142D01*
X147578571Y-72359523D01*
X148102381Y-72359523D01*
X160002381Y-87369047D02*
X160002381Y-87940476D01*
X160002381Y-87654762D02*
X159002381Y-87654762D01*
X159145238Y-87750000D01*
X159240476Y-87845238D01*
X159288095Y-87940476D01*
X159002381Y-86750000D02*
X159002381Y-86654761D01*
X159050000Y-86559523D01*
X159097619Y-86511904D01*
X159192857Y-86464285D01*
X159383333Y-86416666D01*
X159621429Y-86416666D01*
X159811905Y-86464285D01*
X159907143Y-86511904D01*
X159954762Y-86559523D01*
X160002381Y-86654761D01*
X160002381Y-86750000D01*
X159954762Y-86845238D01*
X159907143Y-86892857D01*
X159811905Y-86940476D01*
X159621429Y-86988095D01*
X159383333Y-86988095D01*
X159192857Y-86940476D01*
X159097619Y-86892857D01*
X159050000Y-86845238D01*
X159002381Y-86750000D01*
X159002381Y-85797619D02*
X159002381Y-85702380D01*
X159050000Y-85607142D01*
X159097619Y-85559523D01*
X159192857Y-85511904D01*
X159383333Y-85464285D01*
X159621429Y-85464285D01*
X159811905Y-85511904D01*
X159907143Y-85559523D01*
X159954762Y-85607142D01*
X160002381Y-85702380D01*
X160002381Y-85797619D01*
X159954762Y-85892857D01*
X159907143Y-85940476D01*
X159811905Y-85988095D01*
X159621429Y-86035714D01*
X159383333Y-86035714D01*
X159192857Y-85988095D01*
X159097619Y-85940476D01*
X159050000Y-85892857D01*
X159002381Y-85797619D01*
X159335714Y-85035714D02*
X160002381Y-85035714D01*
X159430952Y-85035714D02*
X159383333Y-84988095D01*
X159335714Y-84892857D01*
X159335714Y-84749999D01*
X159383333Y-84654761D01*
X159478571Y-84607142D01*
X160002381Y-84607142D01*
X157617381Y-65879047D02*
X157617381Y-66450476D01*
X157617381Y-66164762D02*
X156617381Y-66164762D01*
X156760238Y-66260000D01*
X156855476Y-66355238D01*
X156903095Y-66450476D01*
X156617381Y-65260000D02*
X156617381Y-65164761D01*
X156665000Y-65069523D01*
X156712619Y-65021904D01*
X156807857Y-64974285D01*
X156998333Y-64926666D01*
X157236429Y-64926666D01*
X157426905Y-64974285D01*
X157522143Y-65021904D01*
X157569762Y-65069523D01*
X157617381Y-65164761D01*
X157617381Y-65260000D01*
X157569762Y-65355238D01*
X157522143Y-65402857D01*
X157426905Y-65450476D01*
X157236429Y-65498095D01*
X156998333Y-65498095D01*
X156807857Y-65450476D01*
X156712619Y-65402857D01*
X156665000Y-65355238D01*
X156617381Y-65260000D01*
X156617381Y-64307619D02*
X156617381Y-64212380D01*
X156665000Y-64117142D01*
X156712619Y-64069523D01*
X156807857Y-64021904D01*
X156998333Y-63974285D01*
X157236429Y-63974285D01*
X157426905Y-64021904D01*
X157522143Y-64069523D01*
X157569762Y-64117142D01*
X157617381Y-64212380D01*
X157617381Y-64307619D01*
X157569762Y-64402857D01*
X157522143Y-64450476D01*
X157426905Y-64498095D01*
X157236429Y-64545714D01*
X156998333Y-64545714D01*
X156807857Y-64498095D01*
X156712619Y-64450476D01*
X156665000Y-64402857D01*
X156617381Y-64307619D01*
X156950714Y-63545714D02*
X157617381Y-63545714D01*
X157045952Y-63545714D02*
X156998333Y-63498095D01*
X156950714Y-63402857D01*
X156950714Y-63259999D01*
X156998333Y-63164761D01*
X157093571Y-63117142D01*
X157617381Y-63117142D01*
X164127381Y-73291666D02*
X164127381Y-73863095D01*
X164127381Y-73577381D02*
X163127381Y-73577381D01*
X163270238Y-73672619D01*
X163365476Y-73767857D01*
X163413095Y-73863095D01*
X163460714Y-72863095D02*
X164127381Y-72863095D01*
X163555952Y-72863095D02*
X163508333Y-72815476D01*
X163460714Y-72720238D01*
X163460714Y-72577380D01*
X163508333Y-72482142D01*
X163603571Y-72434523D01*
X164127381Y-72434523D01*
X165917381Y-66209047D02*
X165917381Y-66780476D01*
X165917381Y-66494762D02*
X164917381Y-66494762D01*
X165060238Y-66590000D01*
X165155476Y-66685238D01*
X165203095Y-66780476D01*
X164917381Y-65590000D02*
X164917381Y-65494761D01*
X164965000Y-65399523D01*
X165012619Y-65351904D01*
X165107857Y-65304285D01*
X165298333Y-65256666D01*
X165536429Y-65256666D01*
X165726905Y-65304285D01*
X165822143Y-65351904D01*
X165869762Y-65399523D01*
X165917381Y-65494761D01*
X165917381Y-65590000D01*
X165869762Y-65685238D01*
X165822143Y-65732857D01*
X165726905Y-65780476D01*
X165536429Y-65828095D01*
X165298333Y-65828095D01*
X165107857Y-65780476D01*
X165012619Y-65732857D01*
X164965000Y-65685238D01*
X164917381Y-65590000D01*
X164917381Y-64637619D02*
X164917381Y-64542380D01*
X164965000Y-64447142D01*
X165012619Y-64399523D01*
X165107857Y-64351904D01*
X165298333Y-64304285D01*
X165536429Y-64304285D01*
X165726905Y-64351904D01*
X165822143Y-64399523D01*
X165869762Y-64447142D01*
X165917381Y-64542380D01*
X165917381Y-64637619D01*
X165869762Y-64732857D01*
X165822143Y-64780476D01*
X165726905Y-64828095D01*
X165536429Y-64875714D01*
X165298333Y-64875714D01*
X165107857Y-64828095D01*
X165012619Y-64780476D01*
X164965000Y-64732857D01*
X164917381Y-64637619D01*
X165250714Y-63875714D02*
X165917381Y-63875714D01*
X165345952Y-63875714D02*
X165298333Y-63828095D01*
X165250714Y-63732857D01*
X165250714Y-63589999D01*
X165298333Y-63494761D01*
X165393571Y-63447142D01*
X165917381Y-63447142D01*
X149827381Y-69816666D02*
X149827381Y-70388095D01*
X149827381Y-70102381D02*
X148827381Y-70102381D01*
X148970238Y-70197619D01*
X149065476Y-70292857D01*
X149113095Y-70388095D01*
X148827381Y-69197619D02*
X148827381Y-69102380D01*
X148875000Y-69007142D01*
X148922619Y-68959523D01*
X149017857Y-68911904D01*
X149208333Y-68864285D01*
X149446429Y-68864285D01*
X149636905Y-68911904D01*
X149732143Y-68959523D01*
X149779762Y-69007142D01*
X149827381Y-69102380D01*
X149827381Y-69197619D01*
X149779762Y-69292857D01*
X149732143Y-69340476D01*
X149636905Y-69388095D01*
X149446429Y-69435714D01*
X149208333Y-69435714D01*
X149017857Y-69388095D01*
X148922619Y-69340476D01*
X148875000Y-69292857D01*
X148827381Y-69197619D01*
X148827381Y-68245238D02*
X148827381Y-68149999D01*
X148875000Y-68054761D01*
X148922619Y-68007142D01*
X149017857Y-67959523D01*
X149208333Y-67911904D01*
X149446429Y-67911904D01*
X149636905Y-67959523D01*
X149732143Y-68007142D01*
X149779762Y-68054761D01*
X149827381Y-68149999D01*
X149827381Y-68245238D01*
X149779762Y-68340476D01*
X149732143Y-68388095D01*
X149636905Y-68435714D01*
X149446429Y-68483333D01*
X149208333Y-68483333D01*
X149017857Y-68435714D01*
X148922619Y-68388095D01*
X148875000Y-68340476D01*
X148827381Y-68245238D01*
X149827381Y-66911904D02*
X149351190Y-67245238D01*
X149827381Y-67483333D02*
X148827381Y-67483333D01*
X148827381Y-67102380D01*
X148875000Y-67007142D01*
X148922619Y-66959523D01*
X149017857Y-66911904D01*
X149160714Y-66911904D01*
X149255952Y-66959523D01*
X149303571Y-67007142D01*
X149351190Y-67102380D01*
X149351190Y-67483333D01*
X146027381Y-73640476D02*
X146027381Y-74211905D01*
X146027381Y-73926191D02*
X145027381Y-73926191D01*
X145170238Y-74021429D01*
X145265476Y-74116667D01*
X145313095Y-74211905D01*
X145027381Y-73021429D02*
X145027381Y-72926190D01*
X145075000Y-72830952D01*
X145122619Y-72783333D01*
X145217857Y-72735714D01*
X145408333Y-72688095D01*
X145646429Y-72688095D01*
X145836905Y-72735714D01*
X145932143Y-72783333D01*
X145979762Y-72830952D01*
X146027381Y-72926190D01*
X146027381Y-73021429D01*
X145979762Y-73116667D01*
X145932143Y-73164286D01*
X145836905Y-73211905D01*
X145646429Y-73259524D01*
X145408333Y-73259524D01*
X145217857Y-73211905D01*
X145122619Y-73164286D01*
X145075000Y-73116667D01*
X145027381Y-73021429D01*
X146027381Y-72259524D02*
X145027381Y-72259524D01*
X146027381Y-71688095D02*
X145455952Y-72116667D01*
X145027381Y-71688095D02*
X145598810Y-72259524D01*
X144390504Y-99674201D02*
X143986442Y-99270140D01*
X144188472Y-99472170D02*
X144895579Y-98765063D01*
X144727221Y-98798735D01*
X144592534Y-98798735D01*
X144491519Y-98765063D01*
X145535343Y-99404826D02*
X145602687Y-99472171D01*
X145636358Y-99573186D01*
X145636358Y-99640529D01*
X145602687Y-99741544D01*
X145501672Y-99909903D01*
X145333312Y-100078262D01*
X145164954Y-100179277D01*
X145063939Y-100212949D01*
X144996595Y-100212949D01*
X144895580Y-100179277D01*
X144828236Y-100111933D01*
X144794564Y-100010918D01*
X144794564Y-99943575D01*
X144828236Y-99842559D01*
X144929251Y-99674201D01*
X145097610Y-99505842D01*
X145265969Y-99404826D01*
X145366984Y-99371155D01*
X145434327Y-99371155D01*
X145535343Y-99404826D01*
X145366984Y-100650681D02*
X146074091Y-99943575D01*
X145703701Y-100448651D02*
X145636358Y-100920056D01*
X146107763Y-100448651D02*
X145569014Y-100448651D01*
X153327381Y-74140476D02*
X153327381Y-74711905D01*
X153327381Y-74426191D02*
X152327381Y-74426191D01*
X152470238Y-74521429D01*
X152565476Y-74616667D01*
X152613095Y-74711905D01*
X152327381Y-73521429D02*
X152327381Y-73426190D01*
X152375000Y-73330952D01*
X152422619Y-73283333D01*
X152517857Y-73235714D01*
X152708333Y-73188095D01*
X152946429Y-73188095D01*
X153136905Y-73235714D01*
X153232143Y-73283333D01*
X153279762Y-73330952D01*
X153327381Y-73426190D01*
X153327381Y-73521429D01*
X153279762Y-73616667D01*
X153232143Y-73664286D01*
X153136905Y-73711905D01*
X152946429Y-73759524D01*
X152708333Y-73759524D01*
X152517857Y-73711905D01*
X152422619Y-73664286D01*
X152375000Y-73616667D01*
X152327381Y-73521429D01*
X153327381Y-72759524D02*
X152327381Y-72759524D01*
X153327381Y-72188095D02*
X152755952Y-72616667D01*
X152327381Y-72188095D02*
X152898810Y-72759524D01*
X157802381Y-69666666D02*
X157802381Y-70238095D01*
X157802381Y-69952381D02*
X156802381Y-69952381D01*
X156945238Y-70047619D01*
X157040476Y-70142857D01*
X157088095Y-70238095D01*
X156802381Y-69047619D02*
X156802381Y-68952380D01*
X156850000Y-68857142D01*
X156897619Y-68809523D01*
X156992857Y-68761904D01*
X157183333Y-68714285D01*
X157421429Y-68714285D01*
X157611905Y-68761904D01*
X157707143Y-68809523D01*
X157754762Y-68857142D01*
X157802381Y-68952380D01*
X157802381Y-69047619D01*
X157754762Y-69142857D01*
X157707143Y-69190476D01*
X157611905Y-69238095D01*
X157421429Y-69285714D01*
X157183333Y-69285714D01*
X156992857Y-69238095D01*
X156897619Y-69190476D01*
X156850000Y-69142857D01*
X156802381Y-69047619D01*
X156802381Y-68095238D02*
X156802381Y-67999999D01*
X156850000Y-67904761D01*
X156897619Y-67857142D01*
X156992857Y-67809523D01*
X157183333Y-67761904D01*
X157421429Y-67761904D01*
X157611905Y-67809523D01*
X157707143Y-67857142D01*
X157754762Y-67904761D01*
X157802381Y-67999999D01*
X157802381Y-68095238D01*
X157754762Y-68190476D01*
X157707143Y-68238095D01*
X157611905Y-68285714D01*
X157421429Y-68333333D01*
X157183333Y-68333333D01*
X156992857Y-68285714D01*
X156897619Y-68238095D01*
X156850000Y-68190476D01*
X156802381Y-68095238D01*
X157802381Y-66761904D02*
X157326190Y-67095238D01*
X157802381Y-67333333D02*
X156802381Y-67333333D01*
X156802381Y-66952380D01*
X156850000Y-66857142D01*
X156897619Y-66809523D01*
X156992857Y-66761904D01*
X157135714Y-66761904D01*
X157230952Y-66809523D01*
X157278571Y-66857142D01*
X157326190Y-66952380D01*
X157326190Y-67333333D01*
X152001905Y-64312381D02*
X152097144Y-64312381D01*
X152192382Y-64360000D01*
X152240001Y-64407619D01*
X152287620Y-64502857D01*
X152335239Y-64693333D01*
X152335239Y-64931429D01*
X152287620Y-65121905D01*
X152240001Y-65217143D01*
X152192382Y-65264762D01*
X152097144Y-65312381D01*
X152001905Y-65312381D01*
X151906667Y-65264762D01*
X151859048Y-65217143D01*
X151811429Y-65121905D01*
X151763810Y-64931429D01*
X151763810Y-64693333D01*
X151811429Y-64502857D01*
X151859048Y-64407619D01*
X151906667Y-64360000D01*
X152001905Y-64312381D01*
X152763810Y-65217143D02*
X152811429Y-65264762D01*
X152763810Y-65312381D01*
X152716191Y-65264762D01*
X152763810Y-65217143D01*
X152763810Y-65312381D01*
X153430476Y-64312381D02*
X153525715Y-64312381D01*
X153620953Y-64360000D01*
X153668572Y-64407619D01*
X153716191Y-64502857D01*
X153763810Y-64693333D01*
X153763810Y-64931429D01*
X153716191Y-65121905D01*
X153668572Y-65217143D01*
X153620953Y-65264762D01*
X153525715Y-65312381D01*
X153430476Y-65312381D01*
X153335238Y-65264762D01*
X153287619Y-65217143D01*
X153240000Y-65121905D01*
X153192381Y-64931429D01*
X153192381Y-64693333D01*
X153240000Y-64502857D01*
X153287619Y-64407619D01*
X153335238Y-64360000D01*
X153430476Y-64312381D01*
X154716191Y-65312381D02*
X154144762Y-65312381D01*
X154430476Y-65312381D02*
X154430476Y-64312381D01*
X154335238Y-64455238D01*
X154240000Y-64550476D01*
X154144762Y-64598095D01*
X155716191Y-65312381D02*
X155382857Y-64836190D01*
X155144762Y-65312381D02*
X155144762Y-64312381D01*
X155525715Y-64312381D01*
X155620953Y-64360000D01*
X155668572Y-64407619D01*
X155716191Y-64502857D01*
X155716191Y-64645714D01*
X155668572Y-64740952D01*
X155620953Y-64788571D01*
X155525715Y-64836190D01*
X155144762Y-64836190D01*
X161352381Y-73840476D02*
X161352381Y-74411905D01*
X161352381Y-74126191D02*
X160352381Y-74126191D01*
X160495238Y-74221429D01*
X160590476Y-74316667D01*
X160638095Y-74411905D01*
X160352381Y-73221429D02*
X160352381Y-73126190D01*
X160400000Y-73030952D01*
X160447619Y-72983333D01*
X160542857Y-72935714D01*
X160733333Y-72888095D01*
X160971429Y-72888095D01*
X161161905Y-72935714D01*
X161257143Y-72983333D01*
X161304762Y-73030952D01*
X161352381Y-73126190D01*
X161352381Y-73221429D01*
X161304762Y-73316667D01*
X161257143Y-73364286D01*
X161161905Y-73411905D01*
X160971429Y-73459524D01*
X160733333Y-73459524D01*
X160542857Y-73411905D01*
X160447619Y-73364286D01*
X160400000Y-73316667D01*
X160352381Y-73221429D01*
X161352381Y-72459524D02*
X160352381Y-72459524D01*
X161352381Y-71888095D02*
X160780952Y-72316667D01*
X160352381Y-71888095D02*
X160923810Y-72459524D01*
X165877381Y-69866666D02*
X165877381Y-70438095D01*
X165877381Y-70152381D02*
X164877381Y-70152381D01*
X165020238Y-70247619D01*
X165115476Y-70342857D01*
X165163095Y-70438095D01*
X164877381Y-69247619D02*
X164877381Y-69152380D01*
X164925000Y-69057142D01*
X164972619Y-69009523D01*
X165067857Y-68961904D01*
X165258333Y-68914285D01*
X165496429Y-68914285D01*
X165686905Y-68961904D01*
X165782143Y-69009523D01*
X165829762Y-69057142D01*
X165877381Y-69152380D01*
X165877381Y-69247619D01*
X165829762Y-69342857D01*
X165782143Y-69390476D01*
X165686905Y-69438095D01*
X165496429Y-69485714D01*
X165258333Y-69485714D01*
X165067857Y-69438095D01*
X164972619Y-69390476D01*
X164925000Y-69342857D01*
X164877381Y-69247619D01*
X164877381Y-68295238D02*
X164877381Y-68199999D01*
X164925000Y-68104761D01*
X164972619Y-68057142D01*
X165067857Y-68009523D01*
X165258333Y-67961904D01*
X165496429Y-67961904D01*
X165686905Y-68009523D01*
X165782143Y-68057142D01*
X165829762Y-68104761D01*
X165877381Y-68199999D01*
X165877381Y-68295238D01*
X165829762Y-68390476D01*
X165782143Y-68438095D01*
X165686905Y-68485714D01*
X165496429Y-68533333D01*
X165258333Y-68533333D01*
X165067857Y-68485714D01*
X164972619Y-68438095D01*
X164925000Y-68390476D01*
X164877381Y-68295238D01*
X165877381Y-66961904D02*
X165401190Y-67295238D01*
X165877381Y-67533333D02*
X164877381Y-67533333D01*
X164877381Y-67152380D01*
X164925000Y-67057142D01*
X164972619Y-67009523D01*
X165067857Y-66961904D01*
X165210714Y-66961904D01*
X165305952Y-67009523D01*
X165353571Y-67057142D01*
X165401190Y-67152380D01*
X165401190Y-67533333D01*
X160506905Y-64537381D02*
X160602144Y-64537381D01*
X160697382Y-64585000D01*
X160745001Y-64632619D01*
X160792620Y-64727857D01*
X160840239Y-64918333D01*
X160840239Y-65156429D01*
X160792620Y-65346905D01*
X160745001Y-65442143D01*
X160697382Y-65489762D01*
X160602144Y-65537381D01*
X160506905Y-65537381D01*
X160411667Y-65489762D01*
X160364048Y-65442143D01*
X160316429Y-65346905D01*
X160268810Y-65156429D01*
X160268810Y-64918333D01*
X160316429Y-64727857D01*
X160364048Y-64632619D01*
X160411667Y-64585000D01*
X160506905Y-64537381D01*
X161268810Y-65442143D02*
X161316429Y-65489762D01*
X161268810Y-65537381D01*
X161221191Y-65489762D01*
X161268810Y-65442143D01*
X161268810Y-65537381D01*
X161935476Y-64537381D02*
X162030715Y-64537381D01*
X162125953Y-64585000D01*
X162173572Y-64632619D01*
X162221191Y-64727857D01*
X162268810Y-64918333D01*
X162268810Y-65156429D01*
X162221191Y-65346905D01*
X162173572Y-65442143D01*
X162125953Y-65489762D01*
X162030715Y-65537381D01*
X161935476Y-65537381D01*
X161840238Y-65489762D01*
X161792619Y-65442143D01*
X161745000Y-65346905D01*
X161697381Y-65156429D01*
X161697381Y-64918333D01*
X161745000Y-64727857D01*
X161792619Y-64632619D01*
X161840238Y-64585000D01*
X161935476Y-64537381D01*
X163221191Y-65537381D02*
X162649762Y-65537381D01*
X162935476Y-65537381D02*
X162935476Y-64537381D01*
X162840238Y-64680238D01*
X162745000Y-64775476D01*
X162649762Y-64823095D01*
X164221191Y-65537381D02*
X163887857Y-65061190D01*
X163649762Y-65537381D02*
X163649762Y-64537381D01*
X164030715Y-64537381D01*
X164125953Y-64585000D01*
X164173572Y-64632619D01*
X164221191Y-64727857D01*
X164221191Y-64870714D01*
X164173572Y-64965952D01*
X164125953Y-65013571D01*
X164030715Y-65061190D01*
X163649762Y-65061190D01*
X146427381Y-70651190D02*
X146427381Y-71127381D01*
X145427381Y-71127381D01*
X145427381Y-70460714D02*
X145427381Y-69889285D01*
X146427381Y-70175000D02*
X145427381Y-70175000D01*
X145427381Y-69127380D02*
X145427381Y-69317857D01*
X145475000Y-69413095D01*
X145522619Y-69460714D01*
X145665476Y-69555952D01*
X145855952Y-69603571D01*
X146236905Y-69603571D01*
X146332143Y-69555952D01*
X146379762Y-69508333D01*
X146427381Y-69413095D01*
X146427381Y-69222618D01*
X146379762Y-69127380D01*
X146332143Y-69079761D01*
X146236905Y-69032142D01*
X145998810Y-69032142D01*
X145903571Y-69079761D01*
X145855952Y-69127380D01*
X145808333Y-69222618D01*
X145808333Y-69413095D01*
X145855952Y-69508333D01*
X145903571Y-69555952D01*
X145998810Y-69603571D01*
X146427381Y-68079761D02*
X146427381Y-68651190D01*
X146427381Y-68365476D02*
X145427381Y-68365476D01*
X145570238Y-68460714D01*
X145665476Y-68555952D01*
X145713095Y-68651190D01*
X145427381Y-67460714D02*
X145427381Y-67365475D01*
X145475000Y-67270237D01*
X145522619Y-67222618D01*
X145617857Y-67174999D01*
X145808333Y-67127380D01*
X146046429Y-67127380D01*
X146236905Y-67174999D01*
X146332143Y-67222618D01*
X146379762Y-67270237D01*
X146427381Y-67365475D01*
X146427381Y-67460714D01*
X146379762Y-67555952D01*
X146332143Y-67603571D01*
X146236905Y-67651190D01*
X146046429Y-67698809D01*
X145808333Y-67698809D01*
X145617857Y-67651190D01*
X145522619Y-67603571D01*
X145475000Y-67555952D01*
X145427381Y-67460714D01*
X145427381Y-66270237D02*
X145427381Y-66460714D01*
X145475000Y-66555952D01*
X145522619Y-66603571D01*
X145665476Y-66698809D01*
X145855952Y-66746428D01*
X146236905Y-66746428D01*
X146332143Y-66698809D01*
X146379762Y-66651190D01*
X146427381Y-66555952D01*
X146427381Y-66365475D01*
X146379762Y-66270237D01*
X146332143Y-66222618D01*
X146236905Y-66174999D01*
X145998810Y-66174999D01*
X145903571Y-66222618D01*
X145855952Y-66270237D01*
X145808333Y-66365475D01*
X145808333Y-66555952D01*
X145855952Y-66651190D01*
X145903571Y-66698809D01*
X145998810Y-66746428D01*
X154152381Y-70426190D02*
X154152381Y-70902381D01*
X153152381Y-70902381D01*
X153152381Y-70235714D02*
X153152381Y-69664285D01*
X154152381Y-69950000D02*
X153152381Y-69950000D01*
X153152381Y-68902380D02*
X153152381Y-69092857D01*
X153200000Y-69188095D01*
X153247619Y-69235714D01*
X153390476Y-69330952D01*
X153580952Y-69378571D01*
X153961905Y-69378571D01*
X154057143Y-69330952D01*
X154104762Y-69283333D01*
X154152381Y-69188095D01*
X154152381Y-68997618D01*
X154104762Y-68902380D01*
X154057143Y-68854761D01*
X153961905Y-68807142D01*
X153723810Y-68807142D01*
X153628571Y-68854761D01*
X153580952Y-68902380D01*
X153533333Y-68997618D01*
X153533333Y-69188095D01*
X153580952Y-69283333D01*
X153628571Y-69330952D01*
X153723810Y-69378571D01*
X154152381Y-67854761D02*
X154152381Y-68426190D01*
X154152381Y-68140476D02*
X153152381Y-68140476D01*
X153295238Y-68235714D01*
X153390476Y-68330952D01*
X153438095Y-68426190D01*
X153152381Y-67235714D02*
X153152381Y-67140475D01*
X153200000Y-67045237D01*
X153247619Y-66997618D01*
X153342857Y-66949999D01*
X153533333Y-66902380D01*
X153771429Y-66902380D01*
X153961905Y-66949999D01*
X154057143Y-66997618D01*
X154104762Y-67045237D01*
X154152381Y-67140475D01*
X154152381Y-67235714D01*
X154104762Y-67330952D01*
X154057143Y-67378571D01*
X153961905Y-67426190D01*
X153771429Y-67473809D01*
X153533333Y-67473809D01*
X153342857Y-67426190D01*
X153247619Y-67378571D01*
X153200000Y-67330952D01*
X153152381Y-67235714D01*
X153152381Y-66045237D02*
X153152381Y-66235714D01*
X153200000Y-66330952D01*
X153247619Y-66378571D01*
X153390476Y-66473809D01*
X153580952Y-66521428D01*
X153961905Y-66521428D01*
X154057143Y-66473809D01*
X154104762Y-66426190D01*
X154152381Y-66330952D01*
X154152381Y-66140475D01*
X154104762Y-66045237D01*
X154057143Y-65997618D01*
X153961905Y-65949999D01*
X153723810Y-65949999D01*
X153628571Y-65997618D01*
X153580952Y-66045237D01*
X153533333Y-66140475D01*
X153533333Y-66330952D01*
X153580952Y-66426190D01*
X153628571Y-66473809D01*
X153723810Y-66521428D01*
X162227381Y-70451190D02*
X162227381Y-70927381D01*
X161227381Y-70927381D01*
X161227381Y-70260714D02*
X161227381Y-69689285D01*
X162227381Y-69975000D02*
X161227381Y-69975000D01*
X161227381Y-68927380D02*
X161227381Y-69117857D01*
X161275000Y-69213095D01*
X161322619Y-69260714D01*
X161465476Y-69355952D01*
X161655952Y-69403571D01*
X162036905Y-69403571D01*
X162132143Y-69355952D01*
X162179762Y-69308333D01*
X162227381Y-69213095D01*
X162227381Y-69022618D01*
X162179762Y-68927380D01*
X162132143Y-68879761D01*
X162036905Y-68832142D01*
X161798810Y-68832142D01*
X161703571Y-68879761D01*
X161655952Y-68927380D01*
X161608333Y-69022618D01*
X161608333Y-69213095D01*
X161655952Y-69308333D01*
X161703571Y-69355952D01*
X161798810Y-69403571D01*
X162227381Y-67879761D02*
X162227381Y-68451190D01*
X162227381Y-68165476D02*
X161227381Y-68165476D01*
X161370238Y-68260714D01*
X161465476Y-68355952D01*
X161513095Y-68451190D01*
X161227381Y-67260714D02*
X161227381Y-67165475D01*
X161275000Y-67070237D01*
X161322619Y-67022618D01*
X161417857Y-66974999D01*
X161608333Y-66927380D01*
X161846429Y-66927380D01*
X162036905Y-66974999D01*
X162132143Y-67022618D01*
X162179762Y-67070237D01*
X162227381Y-67165475D01*
X162227381Y-67260714D01*
X162179762Y-67355952D01*
X162132143Y-67403571D01*
X162036905Y-67451190D01*
X161846429Y-67498809D01*
X161608333Y-67498809D01*
X161417857Y-67451190D01*
X161322619Y-67403571D01*
X161275000Y-67355952D01*
X161227381Y-67260714D01*
X161227381Y-66070237D02*
X161227381Y-66260714D01*
X161275000Y-66355952D01*
X161322619Y-66403571D01*
X161465476Y-66498809D01*
X161655952Y-66546428D01*
X162036905Y-66546428D01*
X162132143Y-66498809D01*
X162179762Y-66451190D01*
X162227381Y-66355952D01*
X162227381Y-66165475D01*
X162179762Y-66070237D01*
X162132143Y-66022618D01*
X162036905Y-65974999D01*
X161798810Y-65974999D01*
X161703571Y-66022618D01*
X161655952Y-66070237D01*
X161608333Y-66165475D01*
X161608333Y-66355952D01*
X161655952Y-66451190D01*
X161703571Y-66498809D01*
X161798810Y-66546428D01*
X107452381Y-55491289D02*
X107452381Y-55967480D01*
X106452381Y-55967480D01*
X107404762Y-54777003D02*
X107452381Y-54872241D01*
X107452381Y-55062718D01*
X107404762Y-55157956D01*
X107309524Y-55205575D01*
X106928571Y-55205575D01*
X106833333Y-55157956D01*
X106785714Y-55062718D01*
X106785714Y-54872241D01*
X106833333Y-54777003D01*
X106928571Y-54729384D01*
X107023810Y-54729384D01*
X107119048Y-55205575D01*
X107452381Y-53872241D02*
X106452381Y-53872241D01*
X107404762Y-53872241D02*
X107452381Y-53967479D01*
X107452381Y-54157956D01*
X107404762Y-54253194D01*
X107357143Y-54300813D01*
X107261905Y-54348432D01*
X106976190Y-54348432D01*
X106880952Y-54300813D01*
X106833333Y-54253194D01*
X106785714Y-54157956D01*
X106785714Y-53967479D01*
X106833333Y-53872241D01*
X107547619Y-53634146D02*
X107547619Y-52872241D01*
X107404762Y-52681765D02*
X107452381Y-52538908D01*
X107452381Y-52300812D01*
X107404762Y-52205574D01*
X107357143Y-52157955D01*
X107261905Y-52110336D01*
X107166667Y-52110336D01*
X107071429Y-52157955D01*
X107023810Y-52205574D01*
X106976190Y-52300812D01*
X106928571Y-52491289D01*
X106880952Y-52586527D01*
X106833333Y-52634146D01*
X106738095Y-52681765D01*
X106642857Y-52681765D01*
X106547619Y-52634146D01*
X106500000Y-52586527D01*
X106452381Y-52491289D01*
X106452381Y-52253193D01*
X106500000Y-52110336D01*
X107452381Y-51681765D02*
X106785714Y-51681765D01*
X106880952Y-51681765D02*
X106833333Y-51634146D01*
X106785714Y-51538908D01*
X106785714Y-51396050D01*
X106833333Y-51300812D01*
X106928571Y-51253193D01*
X107452381Y-51253193D01*
X106928571Y-51253193D02*
X106833333Y-51205574D01*
X106785714Y-51110336D01*
X106785714Y-50967479D01*
X106833333Y-50872241D01*
X106928571Y-50824622D01*
X107452381Y-50824622D01*
X107452381Y-49919860D02*
X106928571Y-49919860D01*
X106833333Y-49967479D01*
X106785714Y-50062717D01*
X106785714Y-50253194D01*
X106833333Y-50348432D01*
X107404762Y-49919860D02*
X107452381Y-50015098D01*
X107452381Y-50253194D01*
X107404762Y-50348432D01*
X107309524Y-50396051D01*
X107214286Y-50396051D01*
X107119048Y-50348432D01*
X107071429Y-50253194D01*
X107071429Y-50015098D01*
X107023810Y-49919860D01*
X107452381Y-49300813D02*
X107404762Y-49396051D01*
X107309524Y-49443670D01*
X106452381Y-49443670D01*
X107452381Y-48777003D02*
X107404762Y-48872241D01*
X107309524Y-48919860D01*
X106452381Y-48919860D01*
X113452381Y-55151569D02*
X113452381Y-55627760D01*
X112452381Y-55627760D01*
X113404762Y-54437283D02*
X113452381Y-54532521D01*
X113452381Y-54722998D01*
X113404762Y-54818236D01*
X113309524Y-54865855D01*
X112928571Y-54865855D01*
X112833333Y-54818236D01*
X112785714Y-54722998D01*
X112785714Y-54532521D01*
X112833333Y-54437283D01*
X112928571Y-54389664D01*
X113023810Y-54389664D01*
X113119048Y-54865855D01*
X113452381Y-53532521D02*
X112452381Y-53532521D01*
X113404762Y-53532521D02*
X113452381Y-53627759D01*
X113452381Y-53818236D01*
X113404762Y-53913474D01*
X113357143Y-53961093D01*
X113261905Y-54008712D01*
X112976190Y-54008712D01*
X112880952Y-53961093D01*
X112833333Y-53913474D01*
X112785714Y-53818236D01*
X112785714Y-53627759D01*
X112833333Y-53532521D01*
X113547619Y-53294426D02*
X113547619Y-52532521D01*
X113404762Y-52342045D02*
X113452381Y-52199188D01*
X113452381Y-51961092D01*
X113404762Y-51865854D01*
X113357143Y-51818235D01*
X113261905Y-51770616D01*
X113166667Y-51770616D01*
X113071429Y-51818235D01*
X113023810Y-51865854D01*
X112976190Y-51961092D01*
X112928571Y-52151569D01*
X112880952Y-52246807D01*
X112833333Y-52294426D01*
X112738095Y-52342045D01*
X112642857Y-52342045D01*
X112547619Y-52294426D01*
X112500000Y-52246807D01*
X112452381Y-52151569D01*
X112452381Y-51913473D01*
X112500000Y-51770616D01*
X113452381Y-51342045D02*
X112785714Y-51342045D01*
X112880952Y-51342045D02*
X112833333Y-51294426D01*
X112785714Y-51199188D01*
X112785714Y-51056330D01*
X112833333Y-50961092D01*
X112928571Y-50913473D01*
X113452381Y-50913473D01*
X112928571Y-50913473D02*
X112833333Y-50865854D01*
X112785714Y-50770616D01*
X112785714Y-50627759D01*
X112833333Y-50532521D01*
X112928571Y-50484902D01*
X113452381Y-50484902D01*
X113452381Y-49580140D02*
X112928571Y-49580140D01*
X112833333Y-49627759D01*
X112785714Y-49722997D01*
X112785714Y-49913474D01*
X112833333Y-50008712D01*
X113404762Y-49580140D02*
X113452381Y-49675378D01*
X113452381Y-49913474D01*
X113404762Y-50008712D01*
X113309524Y-50056331D01*
X113214286Y-50056331D01*
X113119048Y-50008712D01*
X113071429Y-49913474D01*
X113071429Y-49675378D01*
X113023810Y-49580140D01*
X113452381Y-48961093D02*
X113404762Y-49056331D01*
X113309524Y-49103950D01*
X112452381Y-49103950D01*
X113452381Y-48437283D02*
X113404762Y-48532521D01*
X113309524Y-48580140D01*
X112452381Y-48580140D01*
X127452381Y-55491289D02*
X127452381Y-55967480D01*
X126452381Y-55967480D01*
X127404762Y-54777003D02*
X127452381Y-54872241D01*
X127452381Y-55062718D01*
X127404762Y-55157956D01*
X127309524Y-55205575D01*
X126928571Y-55205575D01*
X126833333Y-55157956D01*
X126785714Y-55062718D01*
X126785714Y-54872241D01*
X126833333Y-54777003D01*
X126928571Y-54729384D01*
X127023810Y-54729384D01*
X127119048Y-55205575D01*
X127452381Y-53872241D02*
X126452381Y-53872241D01*
X127404762Y-53872241D02*
X127452381Y-53967479D01*
X127452381Y-54157956D01*
X127404762Y-54253194D01*
X127357143Y-54300813D01*
X127261905Y-54348432D01*
X126976190Y-54348432D01*
X126880952Y-54300813D01*
X126833333Y-54253194D01*
X126785714Y-54157956D01*
X126785714Y-53967479D01*
X126833333Y-53872241D01*
X127547619Y-53634146D02*
X127547619Y-52872241D01*
X127404762Y-52681765D02*
X127452381Y-52538908D01*
X127452381Y-52300812D01*
X127404762Y-52205574D01*
X127357143Y-52157955D01*
X127261905Y-52110336D01*
X127166667Y-52110336D01*
X127071429Y-52157955D01*
X127023810Y-52205574D01*
X126976190Y-52300812D01*
X126928571Y-52491289D01*
X126880952Y-52586527D01*
X126833333Y-52634146D01*
X126738095Y-52681765D01*
X126642857Y-52681765D01*
X126547619Y-52634146D01*
X126500000Y-52586527D01*
X126452381Y-52491289D01*
X126452381Y-52253193D01*
X126500000Y-52110336D01*
X127452381Y-51681765D02*
X126785714Y-51681765D01*
X126880952Y-51681765D02*
X126833333Y-51634146D01*
X126785714Y-51538908D01*
X126785714Y-51396050D01*
X126833333Y-51300812D01*
X126928571Y-51253193D01*
X127452381Y-51253193D01*
X126928571Y-51253193D02*
X126833333Y-51205574D01*
X126785714Y-51110336D01*
X126785714Y-50967479D01*
X126833333Y-50872241D01*
X126928571Y-50824622D01*
X127452381Y-50824622D01*
X127452381Y-49919860D02*
X126928571Y-49919860D01*
X126833333Y-49967479D01*
X126785714Y-50062717D01*
X126785714Y-50253194D01*
X126833333Y-50348432D01*
X127404762Y-49919860D02*
X127452381Y-50015098D01*
X127452381Y-50253194D01*
X127404762Y-50348432D01*
X127309524Y-50396051D01*
X127214286Y-50396051D01*
X127119048Y-50348432D01*
X127071429Y-50253194D01*
X127071429Y-50015098D01*
X127023810Y-49919860D01*
X127452381Y-49300813D02*
X127404762Y-49396051D01*
X127309524Y-49443670D01*
X126452381Y-49443670D01*
X127452381Y-48777003D02*
X127404762Y-48872241D01*
X127309524Y-48919860D01*
X126452381Y-48919860D01*
X133412381Y-54951289D02*
X133412381Y-55427480D01*
X132412381Y-55427480D01*
X133364762Y-54237003D02*
X133412381Y-54332241D01*
X133412381Y-54522718D01*
X133364762Y-54617956D01*
X133269524Y-54665575D01*
X132888571Y-54665575D01*
X132793333Y-54617956D01*
X132745714Y-54522718D01*
X132745714Y-54332241D01*
X132793333Y-54237003D01*
X132888571Y-54189384D01*
X132983810Y-54189384D01*
X133079048Y-54665575D01*
X133412381Y-53332241D02*
X132412381Y-53332241D01*
X133364762Y-53332241D02*
X133412381Y-53427479D01*
X133412381Y-53617956D01*
X133364762Y-53713194D01*
X133317143Y-53760813D01*
X133221905Y-53808432D01*
X132936190Y-53808432D01*
X132840952Y-53760813D01*
X132793333Y-53713194D01*
X132745714Y-53617956D01*
X132745714Y-53427479D01*
X132793333Y-53332241D01*
X133507619Y-53094146D02*
X133507619Y-52332241D01*
X133364762Y-52141765D02*
X133412381Y-51998908D01*
X133412381Y-51760812D01*
X133364762Y-51665574D01*
X133317143Y-51617955D01*
X133221905Y-51570336D01*
X133126667Y-51570336D01*
X133031429Y-51617955D01*
X132983810Y-51665574D01*
X132936190Y-51760812D01*
X132888571Y-51951289D01*
X132840952Y-52046527D01*
X132793333Y-52094146D01*
X132698095Y-52141765D01*
X132602857Y-52141765D01*
X132507619Y-52094146D01*
X132460000Y-52046527D01*
X132412381Y-51951289D01*
X132412381Y-51713193D01*
X132460000Y-51570336D01*
X133412381Y-51141765D02*
X132745714Y-51141765D01*
X132840952Y-51141765D02*
X132793333Y-51094146D01*
X132745714Y-50998908D01*
X132745714Y-50856050D01*
X132793333Y-50760812D01*
X132888571Y-50713193D01*
X133412381Y-50713193D01*
X132888571Y-50713193D02*
X132793333Y-50665574D01*
X132745714Y-50570336D01*
X132745714Y-50427479D01*
X132793333Y-50332241D01*
X132888571Y-50284622D01*
X133412381Y-50284622D01*
X133412381Y-49379860D02*
X132888571Y-49379860D01*
X132793333Y-49427479D01*
X132745714Y-49522717D01*
X132745714Y-49713194D01*
X132793333Y-49808432D01*
X133364762Y-49379860D02*
X133412381Y-49475098D01*
X133412381Y-49713194D01*
X133364762Y-49808432D01*
X133269524Y-49856051D01*
X133174286Y-49856051D01*
X133079048Y-49808432D01*
X133031429Y-49713194D01*
X133031429Y-49475098D01*
X132983810Y-49379860D01*
X133412381Y-48760813D02*
X133364762Y-48856051D01*
X133269524Y-48903670D01*
X132412381Y-48903670D01*
X133412381Y-48237003D02*
X133364762Y-48332241D01*
X133269524Y-48379860D01*
X132412381Y-48379860D01*
X100952381Y-63901569D02*
X100952381Y-64377760D01*
X99952381Y-64377760D01*
X100904762Y-63187283D02*
X100952381Y-63282521D01*
X100952381Y-63472998D01*
X100904762Y-63568236D01*
X100809524Y-63615855D01*
X100428571Y-63615855D01*
X100333333Y-63568236D01*
X100285714Y-63472998D01*
X100285714Y-63282521D01*
X100333333Y-63187283D01*
X100428571Y-63139664D01*
X100523810Y-63139664D01*
X100619048Y-63615855D01*
X100952381Y-62282521D02*
X99952381Y-62282521D01*
X100904762Y-62282521D02*
X100952381Y-62377759D01*
X100952381Y-62568236D01*
X100904762Y-62663474D01*
X100857143Y-62711093D01*
X100761905Y-62758712D01*
X100476190Y-62758712D01*
X100380952Y-62711093D01*
X100333333Y-62663474D01*
X100285714Y-62568236D01*
X100285714Y-62377759D01*
X100333333Y-62282521D01*
X101047619Y-62044426D02*
X101047619Y-61282521D01*
X100904762Y-61092045D02*
X100952381Y-60949188D01*
X100952381Y-60711092D01*
X100904762Y-60615854D01*
X100857143Y-60568235D01*
X100761905Y-60520616D01*
X100666667Y-60520616D01*
X100571429Y-60568235D01*
X100523810Y-60615854D01*
X100476190Y-60711092D01*
X100428571Y-60901569D01*
X100380952Y-60996807D01*
X100333333Y-61044426D01*
X100238095Y-61092045D01*
X100142857Y-61092045D01*
X100047619Y-61044426D01*
X100000000Y-60996807D01*
X99952381Y-60901569D01*
X99952381Y-60663473D01*
X100000000Y-60520616D01*
X100952381Y-60092045D02*
X100285714Y-60092045D01*
X100380952Y-60092045D02*
X100333333Y-60044426D01*
X100285714Y-59949188D01*
X100285714Y-59806330D01*
X100333333Y-59711092D01*
X100428571Y-59663473D01*
X100952381Y-59663473D01*
X100428571Y-59663473D02*
X100333333Y-59615854D01*
X100285714Y-59520616D01*
X100285714Y-59377759D01*
X100333333Y-59282521D01*
X100428571Y-59234902D01*
X100952381Y-59234902D01*
X100952381Y-58330140D02*
X100428571Y-58330140D01*
X100333333Y-58377759D01*
X100285714Y-58472997D01*
X100285714Y-58663474D01*
X100333333Y-58758712D01*
X100904762Y-58330140D02*
X100952381Y-58425378D01*
X100952381Y-58663474D01*
X100904762Y-58758712D01*
X100809524Y-58806331D01*
X100714286Y-58806331D01*
X100619048Y-58758712D01*
X100571429Y-58663474D01*
X100571429Y-58425378D01*
X100523810Y-58330140D01*
X100952381Y-57711093D02*
X100904762Y-57806331D01*
X100809524Y-57853950D01*
X99952381Y-57853950D01*
X100952381Y-57187283D02*
X100904762Y-57282521D01*
X100809524Y-57330140D01*
X99952381Y-57330140D01*
X160702381Y-88166666D02*
X160702381Y-88738095D01*
X160702381Y-88452381D02*
X159702381Y-88452381D01*
X159845238Y-88547619D01*
X159940476Y-88642857D01*
X159988095Y-88738095D01*
X159702381Y-87547619D02*
X159702381Y-87452380D01*
X159750000Y-87357142D01*
X159797619Y-87309523D01*
X159892857Y-87261904D01*
X160083333Y-87214285D01*
X160321429Y-87214285D01*
X160511905Y-87261904D01*
X160607143Y-87309523D01*
X160654762Y-87357142D01*
X160702381Y-87452380D01*
X160702381Y-87547619D01*
X160654762Y-87642857D01*
X160607143Y-87690476D01*
X160511905Y-87738095D01*
X160321429Y-87785714D01*
X160083333Y-87785714D01*
X159892857Y-87738095D01*
X159797619Y-87690476D01*
X159750000Y-87642857D01*
X159702381Y-87547619D01*
X160035714Y-86357142D02*
X160702381Y-86357142D01*
X160035714Y-86785714D02*
X160559524Y-86785714D01*
X160654762Y-86738095D01*
X160702381Y-86642857D01*
X160702381Y-86499999D01*
X160654762Y-86404761D01*
X160607143Y-86357142D01*
X160702381Y-85880952D02*
X159702381Y-85880952D01*
X160178571Y-85880952D02*
X160178571Y-85309523D01*
X160702381Y-85309523D02*
X159702381Y-85309523D01*
X128602381Y-113047619D02*
X128602381Y-113619048D01*
X128602381Y-113333334D02*
X127602381Y-113333334D01*
X127745238Y-113428572D01*
X127840476Y-113523810D01*
X127888095Y-113619048D01*
X127602381Y-112428572D02*
X127602381Y-112333333D01*
X127650000Y-112238095D01*
X127697619Y-112190476D01*
X127792857Y-112142857D01*
X127983333Y-112095238D01*
X128221429Y-112095238D01*
X128411905Y-112142857D01*
X128507143Y-112190476D01*
X128554762Y-112238095D01*
X128602381Y-112333333D01*
X128602381Y-112428572D01*
X128554762Y-112523810D01*
X128507143Y-112571429D01*
X128411905Y-112619048D01*
X128221429Y-112666667D01*
X127983333Y-112666667D01*
X127792857Y-112619048D01*
X127697619Y-112571429D01*
X127650000Y-112523810D01*
X127602381Y-112428572D01*
X127602381Y-111476191D02*
X127602381Y-111380952D01*
X127650000Y-111285714D01*
X127697619Y-111238095D01*
X127792857Y-111190476D01*
X127983333Y-111142857D01*
X128221429Y-111142857D01*
X128411905Y-111190476D01*
X128507143Y-111238095D01*
X128554762Y-111285714D01*
X128602381Y-111380952D01*
X128602381Y-111476191D01*
X128554762Y-111571429D01*
X128507143Y-111619048D01*
X128411905Y-111666667D01*
X128221429Y-111714286D01*
X127983333Y-111714286D01*
X127792857Y-111666667D01*
X127697619Y-111619048D01*
X127650000Y-111571429D01*
X127602381Y-111476191D01*
X127935714Y-110714286D02*
X128602381Y-110714286D01*
X128030952Y-110714286D02*
X127983333Y-110666667D01*
X127935714Y-110571429D01*
X127935714Y-110428571D01*
X127983333Y-110333333D01*
X128078571Y-110285714D01*
X128602381Y-110285714D01*
X128078571Y-109476190D02*
X128078571Y-109809524D01*
X128602381Y-109809524D02*
X127602381Y-109809524D01*
X127602381Y-109333333D01*
X118389381Y-107261905D02*
X117389381Y-107261905D01*
X118389381Y-106214286D02*
X117913190Y-106547620D01*
X118389381Y-106785715D02*
X117389381Y-106785715D01*
X117389381Y-106404762D01*
X117437000Y-106309524D01*
X117484619Y-106261905D01*
X117579857Y-106214286D01*
X117722714Y-106214286D01*
X117817952Y-106261905D01*
X117865571Y-106309524D01*
X117913190Y-106404762D01*
X117913190Y-106785715D01*
X117865571Y-105452381D02*
X117865571Y-105785715D01*
X118389381Y-105785715D02*
X117389381Y-105785715D01*
X117389381Y-105309524D01*
X118389381Y-104357143D02*
X117913190Y-104690477D01*
X118389381Y-104928572D02*
X117389381Y-104928572D01*
X117389381Y-104547619D01*
X117437000Y-104452381D01*
X117484619Y-104404762D01*
X117579857Y-104357143D01*
X117722714Y-104357143D01*
X117817952Y-104404762D01*
X117865571Y-104452381D01*
X117913190Y-104547619D01*
X117913190Y-104928572D01*
X117389381Y-103452381D02*
X117389381Y-103928572D01*
X117865571Y-103976191D01*
X117817952Y-103928572D01*
X117770333Y-103833334D01*
X117770333Y-103595238D01*
X117817952Y-103500000D01*
X117865571Y-103452381D01*
X117960810Y-103404762D01*
X118198905Y-103404762D01*
X118294143Y-103452381D01*
X118341762Y-103500000D01*
X118389381Y-103595238D01*
X118389381Y-103833334D01*
X118341762Y-103928572D01*
X118294143Y-103976191D01*
X117389381Y-103071429D02*
X117389381Y-102452381D01*
X117770333Y-102785715D01*
X117770333Y-102642857D01*
X117817952Y-102547619D01*
X117865571Y-102500000D01*
X117960810Y-102452381D01*
X118198905Y-102452381D01*
X118294143Y-102500000D01*
X118341762Y-102547619D01*
X118389381Y-102642857D01*
X118389381Y-102928572D01*
X118341762Y-103023810D01*
X118294143Y-103071429D01*
X117389381Y-101833334D02*
X117389381Y-101738095D01*
X117437000Y-101642857D01*
X117484619Y-101595238D01*
X117579857Y-101547619D01*
X117770333Y-101500000D01*
X118008429Y-101500000D01*
X118198905Y-101547619D01*
X118294143Y-101595238D01*
X118341762Y-101642857D01*
X118389381Y-101738095D01*
X118389381Y-101833334D01*
X118341762Y-101928572D01*
X118294143Y-101976191D01*
X118198905Y-102023810D01*
X118008429Y-102071429D01*
X117770333Y-102071429D01*
X117579857Y-102023810D01*
X117484619Y-101976191D01*
X117437000Y-101928572D01*
X117389381Y-101833334D01*
X117389381Y-100595238D02*
X117389381Y-101071429D01*
X117865571Y-101119048D01*
X117817952Y-101071429D01*
X117770333Y-100976191D01*
X117770333Y-100738095D01*
X117817952Y-100642857D01*
X117865571Y-100595238D01*
X117960810Y-100547619D01*
X118198905Y-100547619D01*
X118294143Y-100595238D01*
X118341762Y-100642857D01*
X118389381Y-100738095D01*
X118389381Y-100976191D01*
X118341762Y-101071429D01*
X118294143Y-101119048D01*
X118389381Y-100119048D02*
X117389381Y-100119048D01*
X117389381Y-99738095D01*
X117437000Y-99642857D01*
X117484619Y-99595238D01*
X117579857Y-99547619D01*
X117722714Y-99547619D01*
X117817952Y-99595238D01*
X117865571Y-99642857D01*
X117913190Y-99738095D01*
X117913190Y-100119048D01*
X117865571Y-98785714D02*
X117913190Y-98642857D01*
X117960810Y-98595238D01*
X118056048Y-98547619D01*
X118198905Y-98547619D01*
X118294143Y-98595238D01*
X118341762Y-98642857D01*
X118389381Y-98738095D01*
X118389381Y-99119048D01*
X117389381Y-99119048D01*
X117389381Y-98785714D01*
X117437000Y-98690476D01*
X117484619Y-98642857D01*
X117579857Y-98595238D01*
X117675095Y-98595238D01*
X117770333Y-98642857D01*
X117817952Y-98690476D01*
X117865571Y-98785714D01*
X117865571Y-99119048D01*
X117865571Y-97785714D02*
X117865571Y-98119048D01*
X118389381Y-98119048D02*
X117389381Y-98119048D01*
X117389381Y-97642857D01*
X132135714Y-106861904D02*
X132802381Y-106861904D01*
X131754762Y-107100000D02*
X132469048Y-107338095D01*
X132469048Y-106719047D01*
X131802381Y-106433333D02*
X131802381Y-105766666D01*
X132802381Y-106195238D01*
X131802381Y-105195238D02*
X131802381Y-105099999D01*
X131850000Y-105004761D01*
X131897619Y-104957142D01*
X131992857Y-104909523D01*
X132183333Y-104861904D01*
X132421429Y-104861904D01*
X132611905Y-104909523D01*
X132707143Y-104957142D01*
X132754762Y-105004761D01*
X132802381Y-105099999D01*
X132802381Y-105195238D01*
X132754762Y-105290476D01*
X132707143Y-105338095D01*
X132611905Y-105385714D01*
X132421429Y-105433333D01*
X132183333Y-105433333D01*
X131992857Y-105385714D01*
X131897619Y-105338095D01*
X131850000Y-105290476D01*
X131802381Y-105195238D01*
X132802381Y-104433333D02*
X131802381Y-104433333D01*
X132802381Y-103861904D02*
X132230952Y-104290476D01*
X131802381Y-103861904D02*
X132373810Y-104433333D01*
X113928572Y-73852381D02*
X113357143Y-73852381D01*
X113642857Y-73852381D02*
X113642857Y-72852381D01*
X113547619Y-72995238D01*
X113452381Y-73090476D01*
X113357143Y-73138095D01*
X114547619Y-72852381D02*
X114642858Y-72852381D01*
X114738096Y-72900000D01*
X114785715Y-72947619D01*
X114833334Y-73042857D01*
X114880953Y-73233333D01*
X114880953Y-73471429D01*
X114833334Y-73661905D01*
X114785715Y-73757143D01*
X114738096Y-73804762D01*
X114642858Y-73852381D01*
X114547619Y-73852381D01*
X114452381Y-73804762D01*
X114404762Y-73757143D01*
X114357143Y-73661905D01*
X114309524Y-73471429D01*
X114309524Y-73233333D01*
X114357143Y-73042857D01*
X114404762Y-72947619D01*
X114452381Y-72900000D01*
X114547619Y-72852381D01*
X115738096Y-73185714D02*
X115738096Y-73852381D01*
X115309524Y-73185714D02*
X115309524Y-73709524D01*
X115357143Y-73804762D01*
X115452381Y-73852381D01*
X115595239Y-73852381D01*
X115690477Y-73804762D01*
X115738096Y-73757143D01*
X116547620Y-73328571D02*
X116214286Y-73328571D01*
X116214286Y-73852381D02*
X116214286Y-72852381D01*
X116690477Y-72852381D01*
M02*
