%TF.GenerationSoftware,KiCad,Pcbnew,4.0.1-stable*%
%TF.CreationDate,2016-05-16T17:45:50+03:00*%
%TF.ProjectId,6xUSB_PowMet,36785553425F506F774D65742E6B6963,rev?*%
%TF.FileFunction,Soldermask,Bot*%
%FSLAX46Y46*%
G04 Gerber Fmt 4.6, Leading zero omitted, Abs format (unit mm)*
G04 Created by KiCad (PCBNEW 4.0.1-stable) date 16.05.2016 17:45:50*
%MOMM*%
G01*
G04 APERTURE LIST*
%ADD10C,0.100000*%
%ADD11C,5.200600*%
%ADD12R,5.200600X5.200600*%
%ADD13R,1.050000X1.460000*%
%ADD14C,1.924000*%
%ADD15C,3.100020*%
%ADD16O,2.250000X2.250000*%
%ADD17C,1.200000*%
%ADD18R,2.300000X2.400000*%
%ADD19C,2.300000*%
%ADD20R,1.650000X1.400000*%
%ADD21R,1.400000X1.650000*%
%ADD22R,1.100000X1.700000*%
%ADD23R,1.700000X1.100000*%
%ADD24R,2.432000X4.057600*%
%ADD25R,2.432000X1.416000*%
%ADD26R,2.400000X2.400000*%
%ADD27C,2.400000*%
%ADD28R,2.000000X2.400000*%
%ADD29R,1.900000X1.650000*%
%ADD30R,4.900880X3.699460*%
%ADD31R,4.898340X3.699460*%
%ADD32R,1.700000X1.900000*%
%ADD33R,2.178000X0.933400*%
%ADD34R,2.889200X3.397200*%
%ADD35R,2.800300X3.900120*%
%ADD36R,1.901140X3.399740*%
G04 APERTURE END LIST*
D10*
D11*
X97750000Y-107750000D03*
D12*
X103846000Y-107750000D03*
D11*
X100036000Y-102670000D03*
D13*
X163400000Y-74250000D03*
X162450000Y-74250000D03*
X161500000Y-74250000D03*
X161500000Y-72050000D03*
X163400000Y-72050000D03*
D14*
X109748980Y-82790000D03*
X109748980Y-80250000D03*
X107750000Y-80250000D03*
X107750000Y-82790000D03*
D15*
X105049980Y-87519480D03*
X105049980Y-75520520D03*
D16*
X127480000Y-58340000D03*
X127480000Y-54500000D03*
X132320000Y-54500000D03*
D17*
X131850000Y-61610000D03*
X130450000Y-61610000D03*
X129050000Y-61610000D03*
D16*
X132320000Y-58340000D03*
D17*
X127650000Y-61610000D03*
D16*
X147480000Y-58340000D03*
X147480000Y-54500000D03*
X152320000Y-54500000D03*
D17*
X151850000Y-61610000D03*
X150450000Y-61610000D03*
X149050000Y-61610000D03*
D16*
X152320000Y-58340000D03*
D17*
X147650000Y-61610000D03*
D16*
X157480000Y-58340000D03*
X157480000Y-54500000D03*
X162320000Y-54500000D03*
D17*
X161850000Y-61610000D03*
X160450000Y-61610000D03*
X159050000Y-61610000D03*
D16*
X162320000Y-58340000D03*
D17*
X157650000Y-61610000D03*
D16*
X137480000Y-58340000D03*
X137480000Y-54500000D03*
X142320000Y-54500000D03*
D17*
X141850000Y-61610000D03*
X140450000Y-61610000D03*
X139050000Y-61610000D03*
D16*
X142320000Y-58340000D03*
D17*
X137650000Y-61610000D03*
D16*
X117480000Y-58340000D03*
X117480000Y-54500000D03*
X122320000Y-54500000D03*
D17*
X121850000Y-61610000D03*
X120450000Y-61610000D03*
X119050000Y-61610000D03*
D16*
X122320000Y-58340000D03*
D17*
X117650000Y-61610000D03*
D16*
X107480000Y-58340000D03*
X107480000Y-54500000D03*
X112320000Y-54500000D03*
D17*
X111850000Y-61610000D03*
X110450000Y-61610000D03*
X109050000Y-61610000D03*
D16*
X112320000Y-58340000D03*
D17*
X107650000Y-61610000D03*
D18*
X103750000Y-93000000D03*
D19*
X101210000Y-93000000D03*
D20*
X152000000Y-75500000D03*
X152000000Y-77500000D03*
D21*
X152000000Y-100250000D03*
X154000000Y-100250000D03*
X144500000Y-84000000D03*
X146500000Y-84000000D03*
D20*
X152000000Y-67250000D03*
X152000000Y-69250000D03*
X159000000Y-76750000D03*
X159000000Y-78750000D03*
X144750000Y-74250000D03*
X144750000Y-76250000D03*
X159000000Y-68500000D03*
X159000000Y-70500000D03*
X144750000Y-66000000D03*
X144750000Y-68000000D03*
D22*
X144600000Y-81750000D03*
X146500000Y-81750000D03*
X144750000Y-86250000D03*
X146650000Y-86250000D03*
D23*
X154500000Y-75600000D03*
X154500000Y-77500000D03*
X152000000Y-71000000D03*
X152000000Y-72900000D03*
D22*
X156250000Y-68750000D03*
X154350000Y-68750000D03*
D23*
X161500000Y-76750000D03*
X161500000Y-78650000D03*
X147250000Y-74250000D03*
X147250000Y-76150000D03*
X159000000Y-72350000D03*
X159000000Y-74250000D03*
D22*
X163400000Y-70000000D03*
X161500000Y-70000000D03*
D23*
X144750000Y-69750000D03*
X144750000Y-71650000D03*
D22*
X149250000Y-67500000D03*
X147350000Y-67500000D03*
D24*
X164250000Y-97750000D03*
D25*
X157646000Y-97750000D03*
X157646000Y-95464000D03*
X157646000Y-100036000D03*
D13*
X156250000Y-73000000D03*
X155300000Y-73000000D03*
X154350000Y-73000000D03*
X154350000Y-70800000D03*
X156250000Y-70800000D03*
X149250000Y-71750000D03*
X148300000Y-71750000D03*
X147350000Y-71750000D03*
X147350000Y-69550000D03*
X149250000Y-69550000D03*
D26*
X139737000Y-107750000D03*
D27*
X142250000Y-107750000D03*
X144750000Y-107750000D03*
X147250000Y-107750000D03*
X149750000Y-107750000D03*
X152250000Y-107750000D03*
X154750000Y-107750000D03*
X157250000Y-107750000D03*
D26*
X164500000Y-108500000D03*
D27*
X164500000Y-105960000D03*
X164500000Y-103460000D03*
D28*
X108250000Y-109500000D03*
X108250000Y-113500000D03*
X111000000Y-109500000D03*
X111000000Y-113500000D03*
D29*
X116000000Y-106500000D03*
X118500000Y-106500000D03*
D30*
X113000000Y-101250000D03*
D31*
X121798560Y-101250000D03*
D32*
X127250000Y-112750000D03*
X127250000Y-110050000D03*
X123750000Y-110050000D03*
X123750000Y-112750000D03*
D33*
X119815400Y-109095000D03*
X119815400Y-110365000D03*
X119815400Y-111635000D03*
X119815400Y-112905000D03*
X114684600Y-112905000D03*
X114684600Y-111635000D03*
X114684600Y-110365000D03*
X114684600Y-109095000D03*
D34*
X117250000Y-111000000D03*
D35*
X130500000Y-99500000D03*
X130500000Y-106002400D03*
D36*
X153500000Y-92502040D03*
X153500000Y-96500000D03*
M02*
