%TF.GenerationSoftware,KiCad,Pcbnew,4.0.1-stable*%
%TF.CreationDate,2016-05-16T17:45:50+03:00*%
%TF.ProjectId,6xUSB_PowMet,36785553425F506F774D65742E6B6963,rev?*%
%TF.FileFunction,Paste,Bot*%
%FSLAX46Y46*%
G04 Gerber Fmt 4.6, Leading zero omitted, Abs format (unit mm)*
G04 Created by KiCad (PCBNEW 4.0.1-stable) date 16.05.2016 17:45:50*
%MOMM*%
G01*
G04 APERTURE LIST*
%ADD10C,0.100000*%
%ADD11R,0.650000X1.060000*%
%ADD12R,1.250000X1.000000*%
%ADD13R,1.000000X1.250000*%
%ADD14R,0.700000X1.300000*%
%ADD15R,1.300000X0.700000*%
%ADD16R,2.032000X3.657600*%
%ADD17R,2.032000X1.016000*%
%ADD18R,1.600000X2.000000*%
%ADD19R,1.500000X1.250000*%
%ADD20R,4.500880X3.299460*%
%ADD21R,4.498340X3.299460*%
%ADD22R,1.300000X1.500000*%
%ADD23R,1.778000X0.533400*%
%ADD24R,2.489200X2.997200*%
%ADD25R,2.400300X3.500120*%
%ADD26R,1.501140X2.999740*%
G04 APERTURE END LIST*
D10*
G36*
X118393000Y-109603000D02*
X118393000Y-110898400D01*
X116107000Y-110898400D01*
X116107000Y-109603000D01*
X118393000Y-109603000D01*
G37*
G36*
X118393000Y-111101600D02*
X118393000Y-112397000D01*
X116107000Y-112397000D01*
X116107000Y-111101600D01*
X118393000Y-111101600D01*
G37*
D11*
X163400000Y-74250000D03*
X162450000Y-74250000D03*
X161500000Y-74250000D03*
X161500000Y-72050000D03*
X163400000Y-72050000D03*
D12*
X152000000Y-75500000D03*
X152000000Y-77500000D03*
D13*
X152000000Y-100250000D03*
X154000000Y-100250000D03*
X144500000Y-84000000D03*
X146500000Y-84000000D03*
D12*
X152000000Y-67250000D03*
X152000000Y-69250000D03*
X159000000Y-76750000D03*
X159000000Y-78750000D03*
X144750000Y-74250000D03*
X144750000Y-76250000D03*
X159000000Y-68500000D03*
X159000000Y-70500000D03*
X144750000Y-66000000D03*
X144750000Y-68000000D03*
D14*
X144600000Y-81750000D03*
X146500000Y-81750000D03*
X144750000Y-86250000D03*
X146650000Y-86250000D03*
D15*
X154500000Y-75600000D03*
X154500000Y-77500000D03*
X152000000Y-71000000D03*
X152000000Y-72900000D03*
D14*
X156250000Y-68750000D03*
X154350000Y-68750000D03*
D15*
X161500000Y-76750000D03*
X161500000Y-78650000D03*
X147250000Y-74250000D03*
X147250000Y-76150000D03*
X159000000Y-72350000D03*
X159000000Y-74250000D03*
D14*
X163400000Y-70000000D03*
X161500000Y-70000000D03*
D15*
X144750000Y-69750000D03*
X144750000Y-71650000D03*
D14*
X149250000Y-67500000D03*
X147350000Y-67500000D03*
D16*
X164250000Y-97750000D03*
D17*
X157646000Y-97750000D03*
X157646000Y-95464000D03*
X157646000Y-100036000D03*
D11*
X156250000Y-73000000D03*
X155300000Y-73000000D03*
X154350000Y-73000000D03*
X154350000Y-70800000D03*
X156250000Y-70800000D03*
X149250000Y-71750000D03*
X148300000Y-71750000D03*
X147350000Y-71750000D03*
X147350000Y-69550000D03*
X149250000Y-69550000D03*
D18*
X108250000Y-109500000D03*
X108250000Y-113500000D03*
X111000000Y-109500000D03*
X111000000Y-113500000D03*
D19*
X116000000Y-106500000D03*
X118500000Y-106500000D03*
D20*
X113000000Y-101250000D03*
D21*
X121798560Y-101250000D03*
D22*
X127250000Y-112750000D03*
X127250000Y-110050000D03*
X123750000Y-110050000D03*
X123750000Y-112750000D03*
D23*
X119815400Y-109095000D03*
X119815400Y-110365000D03*
X119815400Y-111635000D03*
X119815400Y-112905000D03*
X114684600Y-112905000D03*
X114684600Y-111635000D03*
X114684600Y-110365000D03*
X114684600Y-109095000D03*
D24*
X117250000Y-111000000D03*
D25*
X130500000Y-99500000D03*
X130500000Y-106002400D03*
D26*
X153500000Y-92502040D03*
X153500000Y-96500000D03*
M02*
