G04 #@! TF.FileFunction,Soldermask,Top*
%FSLAX46Y46*%
G04 Gerber Fmt 4.6, Leading zero omitted, Abs format (unit mm)*
G04 Created by KiCad (PCBNEW 4.0.1-stable) date 17.05.2016 13:35:18*
%MOMM*%
G01*
G04 APERTURE LIST*
%ADD10C,0.100000*%
%ADD11R,1.900000X1.650000*%
%ADD12R,1.650000X1.900000*%
%ADD13C,5.200600*%
%ADD14R,5.200600X5.200600*%
%ADD15R,1.400000X1.650000*%
%ADD16R,1.100000X1.700000*%
%ADD17C,1.924000*%
%ADD18C,3.100020*%
%ADD19O,2.250000X2.250000*%
%ADD20C,1.200000*%
%ADD21R,2.899360X3.699460*%
%ADD22R,2.429460X3.051760*%
%ADD23R,1.700000X1.900000*%
%ADD24R,1.900000X1.700000*%
%ADD25R,2.901900X1.400760*%
%ADD26R,4.400500X2.398980*%
%ADD27R,0.850000X2.150000*%
%ADD28R,6.000700X2.500580*%
%ADD29R,2.300000X2.400000*%
%ADD30C,2.300000*%
%ADD31R,1.650000X1.400000*%
%ADD32R,1.700000X1.100000*%
%ADD33R,1.050000X1.460000*%
%ADD34R,2.400000X2.400000*%
%ADD35C,2.400000*%
%ADD36R,2.200860X1.997660*%
%ADD37R,2.900000X2.900000*%
%ADD38R,3.448000X2.051000*%
%ADD39R,6.496000X6.496000*%
%ADD40R,0.740000X1.240000*%
G04 APERTURE END LIST*
D10*
D11*
X113750000Y-80500000D03*
X116250000Y-80500000D03*
D12*
X101813575Y-62029999D03*
X101813575Y-59529999D03*
X104313575Y-62029999D03*
X104313575Y-59529999D03*
D13*
X97750000Y-107750000D03*
D14*
X103846000Y-107750000D03*
D13*
X100036000Y-102670000D03*
D10*
G36*
X144555188Y-96159709D02*
X143883437Y-95487958D01*
X145226940Y-94144455D01*
X145898691Y-94816206D01*
X144555188Y-96159709D01*
X144555188Y-96159709D01*
G37*
G36*
X145120874Y-96725394D02*
X144449123Y-96053643D01*
X145792626Y-94710140D01*
X146464377Y-95381891D01*
X145120874Y-96725394D01*
X145120874Y-96725394D01*
G37*
G36*
X145686559Y-97291079D02*
X145014808Y-96619328D01*
X146358311Y-95275825D01*
X147030062Y-95947576D01*
X145686559Y-97291079D01*
X145686559Y-97291079D01*
G37*
G36*
X146252244Y-97856765D02*
X145580493Y-97185014D01*
X146923996Y-95841511D01*
X147595747Y-96513262D01*
X146252244Y-97856765D01*
X146252244Y-97856765D01*
G37*
G36*
X146817930Y-98422450D02*
X146146179Y-97750699D01*
X147489682Y-96407196D01*
X148161433Y-97078947D01*
X146817930Y-98422450D01*
X146817930Y-98422450D01*
G37*
G36*
X147383615Y-98988136D02*
X146711864Y-98316385D01*
X148055367Y-96972882D01*
X148727118Y-97644633D01*
X147383615Y-98988136D01*
X147383615Y-98988136D01*
G37*
G36*
X147949301Y-99553821D02*
X147277550Y-98882070D01*
X148621053Y-97538567D01*
X149292804Y-98210318D01*
X147949301Y-99553821D01*
X147949301Y-99553821D01*
G37*
G36*
X148514986Y-100119507D02*
X147843235Y-99447756D01*
X149186738Y-98104253D01*
X149858489Y-98776004D01*
X148514986Y-100119507D01*
X148514986Y-100119507D01*
G37*
G36*
X149080672Y-100685192D02*
X148408921Y-100013441D01*
X149752424Y-98669938D01*
X150424175Y-99341689D01*
X149080672Y-100685192D01*
X149080672Y-100685192D01*
G37*
G36*
X149646357Y-101250877D02*
X148974606Y-100579126D01*
X150318109Y-99235623D01*
X150989860Y-99907374D01*
X149646357Y-101250877D01*
X149646357Y-101250877D01*
G37*
G36*
X150212042Y-101816563D02*
X149540291Y-101144812D01*
X150883794Y-99801309D01*
X151555545Y-100473060D01*
X150212042Y-101816563D01*
X150212042Y-101816563D01*
G37*
G36*
X153959709Y-101144812D02*
X153287958Y-101816563D01*
X151944455Y-100473060D01*
X152616206Y-99801309D01*
X153959709Y-101144812D01*
X153959709Y-101144812D01*
G37*
G36*
X154525394Y-100579126D02*
X153853643Y-101250877D01*
X152510140Y-99907374D01*
X153181891Y-99235623D01*
X154525394Y-100579126D01*
X154525394Y-100579126D01*
G37*
G36*
X155091079Y-100013441D02*
X154419328Y-100685192D01*
X153075825Y-99341689D01*
X153747576Y-98669938D01*
X155091079Y-100013441D01*
X155091079Y-100013441D01*
G37*
G36*
X155656765Y-99447756D02*
X154985014Y-100119507D01*
X153641511Y-98776004D01*
X154313262Y-98104253D01*
X155656765Y-99447756D01*
X155656765Y-99447756D01*
G37*
G36*
X156222450Y-98882070D02*
X155550699Y-99553821D01*
X154207196Y-98210318D01*
X154878947Y-97538567D01*
X156222450Y-98882070D01*
X156222450Y-98882070D01*
G37*
G36*
X156788136Y-98316385D02*
X156116385Y-98988136D01*
X154772882Y-97644633D01*
X155444633Y-96972882D01*
X156788136Y-98316385D01*
X156788136Y-98316385D01*
G37*
G36*
X157353821Y-97750699D02*
X156682070Y-98422450D01*
X155338567Y-97078947D01*
X156010318Y-96407196D01*
X157353821Y-97750699D01*
X157353821Y-97750699D01*
G37*
G36*
X157919507Y-97185014D02*
X157247756Y-97856765D01*
X155904253Y-96513262D01*
X156576004Y-95841511D01*
X157919507Y-97185014D01*
X157919507Y-97185014D01*
G37*
G36*
X158485192Y-96619328D02*
X157813441Y-97291079D01*
X156469938Y-95947576D01*
X157141689Y-95275825D01*
X158485192Y-96619328D01*
X158485192Y-96619328D01*
G37*
G36*
X159050877Y-96053643D02*
X158379126Y-96725394D01*
X157035623Y-95381891D01*
X157707374Y-94710140D01*
X159050877Y-96053643D01*
X159050877Y-96053643D01*
G37*
G36*
X159616563Y-95487958D02*
X158944812Y-96159709D01*
X157601309Y-94816206D01*
X158273060Y-94144455D01*
X159616563Y-95487958D01*
X159616563Y-95487958D01*
G37*
G36*
X158273060Y-93755545D02*
X157601309Y-93083794D01*
X158944812Y-91740291D01*
X159616563Y-92412042D01*
X158273060Y-93755545D01*
X158273060Y-93755545D01*
G37*
G36*
X157707374Y-93189860D02*
X157035623Y-92518109D01*
X158379126Y-91174606D01*
X159050877Y-91846357D01*
X157707374Y-93189860D01*
X157707374Y-93189860D01*
G37*
G36*
X157141689Y-92624175D02*
X156469938Y-91952424D01*
X157813441Y-90608921D01*
X158485192Y-91280672D01*
X157141689Y-92624175D01*
X157141689Y-92624175D01*
G37*
G36*
X156576004Y-92058489D02*
X155904253Y-91386738D01*
X157247756Y-90043235D01*
X157919507Y-90714986D01*
X156576004Y-92058489D01*
X156576004Y-92058489D01*
G37*
G36*
X156010318Y-91492804D02*
X155338567Y-90821053D01*
X156682070Y-89477550D01*
X157353821Y-90149301D01*
X156010318Y-91492804D01*
X156010318Y-91492804D01*
G37*
G36*
X155444633Y-90927118D02*
X154772882Y-90255367D01*
X156116385Y-88911864D01*
X156788136Y-89583615D01*
X155444633Y-90927118D01*
X155444633Y-90927118D01*
G37*
G36*
X154878947Y-90361433D02*
X154207196Y-89689682D01*
X155550699Y-88346179D01*
X156222450Y-89017930D01*
X154878947Y-90361433D01*
X154878947Y-90361433D01*
G37*
G36*
X154313262Y-89795747D02*
X153641511Y-89123996D01*
X154985014Y-87780493D01*
X155656765Y-88452244D01*
X154313262Y-89795747D01*
X154313262Y-89795747D01*
G37*
G36*
X153747576Y-89230062D02*
X153075825Y-88558311D01*
X154419328Y-87214808D01*
X155091079Y-87886559D01*
X153747576Y-89230062D01*
X153747576Y-89230062D01*
G37*
G36*
X153181891Y-88664377D02*
X152510140Y-87992626D01*
X153853643Y-86649123D01*
X154525394Y-87320874D01*
X153181891Y-88664377D01*
X153181891Y-88664377D01*
G37*
G36*
X152616206Y-88098691D02*
X151944455Y-87426940D01*
X153287958Y-86083437D01*
X153959709Y-86755188D01*
X152616206Y-88098691D01*
X152616206Y-88098691D01*
G37*
G36*
X151555545Y-87426940D02*
X150883794Y-88098691D01*
X149540291Y-86755188D01*
X150212042Y-86083437D01*
X151555545Y-87426940D01*
X151555545Y-87426940D01*
G37*
G36*
X150989860Y-87992626D02*
X150318109Y-88664377D01*
X148974606Y-87320874D01*
X149646357Y-86649123D01*
X150989860Y-87992626D01*
X150989860Y-87992626D01*
G37*
G36*
X150424175Y-88558311D02*
X149752424Y-89230062D01*
X148408921Y-87886559D01*
X149080672Y-87214808D01*
X150424175Y-88558311D01*
X150424175Y-88558311D01*
G37*
G36*
X149858489Y-89123996D02*
X149186738Y-89795747D01*
X147843235Y-88452244D01*
X148514986Y-87780493D01*
X149858489Y-89123996D01*
X149858489Y-89123996D01*
G37*
G36*
X149292804Y-89689682D02*
X148621053Y-90361433D01*
X147277550Y-89017930D01*
X147949301Y-88346179D01*
X149292804Y-89689682D01*
X149292804Y-89689682D01*
G37*
G36*
X148727118Y-90255367D02*
X148055367Y-90927118D01*
X146711864Y-89583615D01*
X147383615Y-88911864D01*
X148727118Y-90255367D01*
X148727118Y-90255367D01*
G37*
G36*
X148161433Y-90821053D02*
X147489682Y-91492804D01*
X146146179Y-90149301D01*
X146817930Y-89477550D01*
X148161433Y-90821053D01*
X148161433Y-90821053D01*
G37*
G36*
X147595747Y-91386738D02*
X146923996Y-92058489D01*
X145580493Y-90714986D01*
X146252244Y-90043235D01*
X147595747Y-91386738D01*
X147595747Y-91386738D01*
G37*
G36*
X147030062Y-91952424D02*
X146358311Y-92624175D01*
X145014808Y-91280672D01*
X145686559Y-90608921D01*
X147030062Y-91952424D01*
X147030062Y-91952424D01*
G37*
G36*
X146464377Y-92518109D02*
X145792626Y-93189860D01*
X144449123Y-91846357D01*
X145120874Y-91174606D01*
X146464377Y-92518109D01*
X146464377Y-92518109D01*
G37*
G36*
X145898691Y-93083794D02*
X145226940Y-93755545D01*
X143883437Y-92412042D01*
X144555188Y-91740291D01*
X145898691Y-93083794D01*
X145898691Y-93083794D01*
G37*
D15*
X162000000Y-92250000D03*
X164000000Y-92250000D03*
D16*
X145000000Y-65000000D03*
X146900000Y-65000000D03*
D17*
X109748980Y-82790000D03*
X109748980Y-80250000D03*
X107750000Y-80250000D03*
X107750000Y-82790000D03*
D18*
X105049980Y-87519480D03*
X105049980Y-75520520D03*
D19*
X127480000Y-58340000D03*
X127480000Y-54500000D03*
X132320000Y-54500000D03*
D20*
X131850000Y-61610000D03*
X130450000Y-61610000D03*
X129050000Y-61610000D03*
D19*
X132320000Y-58340000D03*
D20*
X127650000Y-61610000D03*
D19*
X147480000Y-58340000D03*
X147480000Y-54500000D03*
X152320000Y-54500000D03*
D20*
X151850000Y-61610000D03*
X150450000Y-61610000D03*
X149050000Y-61610000D03*
D19*
X152320000Y-58340000D03*
D20*
X147650000Y-61610000D03*
D19*
X157480000Y-58340000D03*
X157480000Y-54500000D03*
X162320000Y-54500000D03*
D20*
X161850000Y-61610000D03*
X160450000Y-61610000D03*
X159050000Y-61610000D03*
D19*
X162320000Y-58340000D03*
D20*
X157650000Y-61610000D03*
D19*
X137480000Y-58340000D03*
X137480000Y-54500000D03*
X142320000Y-54500000D03*
D20*
X141850000Y-61610000D03*
X140450000Y-61610000D03*
X139050000Y-61610000D03*
D19*
X142320000Y-58340000D03*
D20*
X137650000Y-61610000D03*
D19*
X117480000Y-58340000D03*
X117480000Y-54500000D03*
X122320000Y-54500000D03*
D20*
X121850000Y-61610000D03*
X120450000Y-61610000D03*
X119050000Y-61610000D03*
D19*
X122320000Y-58340000D03*
D20*
X117650000Y-61610000D03*
D19*
X107480000Y-58340000D03*
X107480000Y-54500000D03*
X112320000Y-54500000D03*
D20*
X111850000Y-61610000D03*
X110450000Y-61610000D03*
X109050000Y-61610000D03*
D19*
X112320000Y-58340000D03*
D20*
X107650000Y-61610000D03*
D12*
X120000000Y-54250000D03*
X120000000Y-56750000D03*
X140000000Y-54250000D03*
X140000000Y-56750000D03*
X130000000Y-54250000D03*
X130000000Y-56750000D03*
X150000000Y-54250000D03*
X150000000Y-56750000D03*
X160000000Y-54250000D03*
X160000000Y-56750000D03*
D11*
X117000000Y-90000000D03*
X114500000Y-90000000D03*
D12*
X119000000Y-92500000D03*
X119000000Y-95000000D03*
D11*
X133000000Y-70750000D03*
X135500000Y-70750000D03*
X135500000Y-74500000D03*
X133000000Y-74500000D03*
D21*
X106250000Y-70250000D03*
X113052120Y-70250000D03*
D22*
X114750000Y-56664660D03*
X114750000Y-60835340D03*
X124750000Y-56664660D03*
X124750000Y-60835340D03*
X144750000Y-60835340D03*
X144750000Y-56664660D03*
X134750000Y-60835340D03*
X134750000Y-56664660D03*
D23*
X136750000Y-88700000D03*
X136750000Y-86000000D03*
X128750000Y-88750000D03*
X128750000Y-86050000D03*
X124250000Y-88700000D03*
X124250000Y-86000000D03*
D24*
X116350000Y-78250000D03*
X113650000Y-78250000D03*
D25*
X113852740Y-95001140D03*
X113852740Y-93500000D03*
X113852740Y-91998860D03*
D26*
X109900500Y-93500000D03*
D10*
G36*
X111675350Y-92299240D02*
X112824650Y-92799620D01*
X112824650Y-94200380D01*
X111675350Y-94700760D01*
X111675350Y-92299240D01*
X111675350Y-92299240D01*
G37*
D27*
X129225000Y-71650000D03*
X128575000Y-71650000D03*
X127925000Y-71650000D03*
X127275000Y-71650000D03*
X126625000Y-71650000D03*
X125975000Y-71650000D03*
X125325000Y-71650000D03*
X124675000Y-71650000D03*
X124025000Y-71650000D03*
X123375000Y-71650000D03*
X122725000Y-71650000D03*
X122075000Y-71650000D03*
X121425000Y-71650000D03*
X120775000Y-71650000D03*
X120775000Y-78850000D03*
X121425000Y-78850000D03*
X122075000Y-78850000D03*
X122725000Y-78850000D03*
X123375000Y-78850000D03*
X124025000Y-78850000D03*
X124675000Y-78850000D03*
X125325000Y-78850000D03*
X125975000Y-78850000D03*
X126625000Y-78850000D03*
X127275000Y-78850000D03*
X127925000Y-78850000D03*
X128575000Y-78850000D03*
X129225000Y-78850000D03*
D28*
X146250000Y-80000000D03*
X136552280Y-80000000D03*
D22*
X102750000Y-66500000D03*
X102750000Y-70670680D03*
D12*
X110000000Y-54250000D03*
X110000000Y-56750000D03*
D29*
X103750000Y-93000000D03*
D30*
X101210000Y-93000000D03*
D22*
X154750000Y-60835340D03*
X154750000Y-56664660D03*
X164750000Y-60835340D03*
X164750000Y-56664660D03*
D23*
X101250000Y-81550000D03*
X101250000Y-84250000D03*
X134250000Y-88700000D03*
X134250000Y-86000000D03*
X132000000Y-88700000D03*
X132000000Y-86000000D03*
X98250000Y-81550000D03*
X98250000Y-84250000D03*
X126500000Y-88700000D03*
X126500000Y-86000000D03*
D31*
X149500000Y-63750000D03*
X149500000Y-65750000D03*
X155250000Y-72500000D03*
X155250000Y-74500000D03*
X147750000Y-71750000D03*
X147750000Y-73750000D03*
X159500000Y-87250000D03*
X159500000Y-85250000D03*
X157250000Y-63750000D03*
X157250000Y-65750000D03*
X163750000Y-72250000D03*
X163750000Y-74250000D03*
X165500000Y-64000000D03*
X165500000Y-66000000D03*
D32*
X149500000Y-67500000D03*
X149500000Y-69400000D03*
X145500000Y-71750000D03*
X145500000Y-73650000D03*
D10*
G36*
X146739949Y-100287868D02*
X145537868Y-101489949D01*
X144760051Y-100712132D01*
X145962132Y-99510051D01*
X146739949Y-100287868D01*
X146739949Y-100287868D01*
G37*
G36*
X145396447Y-98944366D02*
X144194366Y-100146447D01*
X143416549Y-99368630D01*
X144618630Y-98166549D01*
X145396447Y-98944366D01*
X145396447Y-98944366D01*
G37*
D32*
X153000000Y-72500000D03*
X153000000Y-74400000D03*
X157250000Y-67500000D03*
X157250000Y-69400000D03*
D16*
X152600000Y-65000000D03*
X154500000Y-65000000D03*
D32*
X161000000Y-72350000D03*
X161000000Y-74250000D03*
X165500000Y-67750000D03*
X165500000Y-69650000D03*
D16*
X160850000Y-65000000D03*
X162750000Y-65000000D03*
D33*
X145000000Y-69500000D03*
X145950000Y-69500000D03*
X146900000Y-69500000D03*
X146900000Y-67300000D03*
X145000000Y-67300000D03*
X152600000Y-69450000D03*
X153550000Y-69450000D03*
X154500000Y-69450000D03*
X154500000Y-67250000D03*
X152600000Y-67250000D03*
X160850000Y-69450000D03*
X161800000Y-69450000D03*
X162750000Y-69450000D03*
X162750000Y-67250000D03*
X160850000Y-67250000D03*
D34*
X139737000Y-107750000D03*
D35*
X142250000Y-107750000D03*
X144750000Y-107750000D03*
X147250000Y-107750000D03*
X149750000Y-107750000D03*
X152250000Y-107750000D03*
X154750000Y-107750000D03*
X157250000Y-107750000D03*
D34*
X164500000Y-108500000D03*
D35*
X164500000Y-105960000D03*
X164500000Y-103460000D03*
D36*
X105000000Y-51000000D03*
X105000000Y-53839720D03*
X115000000Y-53500000D03*
X115000000Y-50660280D03*
X125000000Y-51000000D03*
X125000000Y-53839720D03*
X134960000Y-53299720D03*
X134960000Y-50460000D03*
X98500000Y-59410280D03*
X98500000Y-62250000D03*
D37*
X163000000Y-88750000D03*
X163000000Y-85250000D03*
D12*
X130250000Y-110250000D03*
X130250000Y-112750000D03*
D38*
X120350000Y-104786000D03*
D39*
X114000000Y-102500000D03*
D38*
X120350000Y-100214000D03*
D23*
X130250000Y-106950000D03*
X130250000Y-104250000D03*
D40*
X124550000Y-106850000D03*
X125500000Y-106850000D03*
X126450000Y-106850000D03*
X126450000Y-104150000D03*
X125500000Y-104150000D03*
X124550000Y-104150000D03*
D11*
X116250000Y-75500000D03*
X113750000Y-75500000D03*
M02*
