%TF.GenerationSoftware,KiCad,Pcbnew,4.0.1-stable*%
%TF.CreationDate,2016-05-16T17:45:50+03:00*%
%TF.ProjectId,6xUSB_PowMet,36785553425F506F774D65742E6B6963,rev?*%
%TF.FileFunction,Copper,L2,Bot,Signal*%
%FSLAX46Y46*%
G04 Gerber Fmt 4.6, Leading zero omitted, Abs format (unit mm)*
G04 Created by KiCad (PCBNEW 4.0.1-stable) date 16.05.2016 17:45:50*
%MOMM*%
G01*
G04 APERTURE LIST*
%ADD10C,0.100000*%
%ADD11C,4.800600*%
%ADD12R,4.800600X4.800600*%
%ADD13R,0.650000X1.060000*%
%ADD14C,1.524000*%
%ADD15C,2.700020*%
%ADD16O,1.850000X1.850000*%
%ADD17C,0.800000*%
%ADD18R,1.900000X2.000000*%
%ADD19C,1.900000*%
%ADD20R,1.250000X1.000000*%
%ADD21R,1.000000X1.250000*%
%ADD22R,0.700000X1.300000*%
%ADD23R,1.300000X0.700000*%
%ADD24R,2.032000X3.657600*%
%ADD25R,2.032000X1.016000*%
%ADD26R,2.000000X2.000000*%
%ADD27C,2.000000*%
%ADD28R,1.600000X2.000000*%
%ADD29R,1.500000X1.250000*%
%ADD30R,4.500880X3.299460*%
%ADD31R,4.498340X3.299460*%
%ADD32R,1.300000X1.500000*%
%ADD33R,1.778000X0.533400*%
%ADD34R,2.489200X2.997200*%
%ADD35R,2.400300X3.500120*%
%ADD36R,1.501140X2.999740*%
%ADD37C,0.600000*%
%ADD38C,0.700000*%
%ADD39C,0.500000*%
%ADD40C,0.450000*%
%ADD41C,0.600000*%
%ADD42C,0.750000*%
%ADD43C,0.254000*%
G04 APERTURE END LIST*
D10*
D11*
X97750000Y-107750000D03*
D12*
X103846000Y-107750000D03*
D11*
X100036000Y-102670000D03*
D13*
X163400000Y-74250000D03*
X162450000Y-74250000D03*
X161500000Y-74250000D03*
X161500000Y-72050000D03*
X163400000Y-72050000D03*
D14*
X109748980Y-82790000D03*
X109748980Y-80250000D03*
X107750000Y-80250000D03*
X107750000Y-82790000D03*
D15*
X105049980Y-87519480D03*
X105049980Y-75520520D03*
D16*
X127480000Y-58340000D03*
X127480000Y-54500000D03*
X132320000Y-54500000D03*
D17*
X131850000Y-61610000D03*
X130450000Y-61610000D03*
X129050000Y-61610000D03*
D16*
X132320000Y-58340000D03*
D17*
X127650000Y-61610000D03*
D16*
X147480000Y-58340000D03*
X147480000Y-54500000D03*
X152320000Y-54500000D03*
D17*
X151850000Y-61610000D03*
X150450000Y-61610000D03*
X149050000Y-61610000D03*
D16*
X152320000Y-58340000D03*
D17*
X147650000Y-61610000D03*
D16*
X157480000Y-58340000D03*
X157480000Y-54500000D03*
X162320000Y-54500000D03*
D17*
X161850000Y-61610000D03*
X160450000Y-61610000D03*
X159050000Y-61610000D03*
D16*
X162320000Y-58340000D03*
D17*
X157650000Y-61610000D03*
D16*
X137480000Y-58340000D03*
X137480000Y-54500000D03*
X142320000Y-54500000D03*
D17*
X141850000Y-61610000D03*
X140450000Y-61610000D03*
X139050000Y-61610000D03*
D16*
X142320000Y-58340000D03*
D17*
X137650000Y-61610000D03*
D16*
X117480000Y-58340000D03*
X117480000Y-54500000D03*
X122320000Y-54500000D03*
D17*
X121850000Y-61610000D03*
X120450000Y-61610000D03*
X119050000Y-61610000D03*
D16*
X122320000Y-58340000D03*
D17*
X117650000Y-61610000D03*
D16*
X107480000Y-58340000D03*
X107480000Y-54500000D03*
X112320000Y-54500000D03*
D17*
X111850000Y-61610000D03*
X110450000Y-61610000D03*
X109050000Y-61610000D03*
D16*
X112320000Y-58340000D03*
D17*
X107650000Y-61610000D03*
D18*
X103750000Y-93000000D03*
D19*
X101210000Y-93000000D03*
D20*
X152000000Y-75500000D03*
X152000000Y-77500000D03*
D21*
X152000000Y-100250000D03*
X154000000Y-100250000D03*
X144500000Y-84000000D03*
X146500000Y-84000000D03*
D20*
X152000000Y-67250000D03*
X152000000Y-69250000D03*
X159000000Y-76750000D03*
X159000000Y-78750000D03*
X144750000Y-74250000D03*
X144750000Y-76250000D03*
X159000000Y-68500000D03*
X159000000Y-70500000D03*
X144750000Y-66000000D03*
X144750000Y-68000000D03*
D22*
X144600000Y-81750000D03*
X146500000Y-81750000D03*
X144750000Y-86250000D03*
X146650000Y-86250000D03*
D23*
X154500000Y-75600000D03*
X154500000Y-77500000D03*
X152000000Y-71000000D03*
X152000000Y-72900000D03*
D22*
X156250000Y-68750000D03*
X154350000Y-68750000D03*
D23*
X161500000Y-76750000D03*
X161500000Y-78650000D03*
X147250000Y-74250000D03*
X147250000Y-76150000D03*
X159000000Y-72350000D03*
X159000000Y-74250000D03*
D22*
X163400000Y-70000000D03*
X161500000Y-70000000D03*
D23*
X144750000Y-69750000D03*
X144750000Y-71650000D03*
D22*
X149250000Y-67500000D03*
X147350000Y-67500000D03*
D24*
X164250000Y-97750000D03*
D25*
X157646000Y-97750000D03*
X157646000Y-95464000D03*
X157646000Y-100036000D03*
D13*
X156250000Y-73000000D03*
X155300000Y-73000000D03*
X154350000Y-73000000D03*
X154350000Y-70800000D03*
X156250000Y-70800000D03*
X149250000Y-71750000D03*
X148300000Y-71750000D03*
X147350000Y-71750000D03*
X147350000Y-69550000D03*
X149250000Y-69550000D03*
D26*
X139737000Y-107750000D03*
D27*
X142250000Y-107750000D03*
X144750000Y-107750000D03*
X147250000Y-107750000D03*
X149750000Y-107750000D03*
X152250000Y-107750000D03*
X154750000Y-107750000D03*
X157250000Y-107750000D03*
D26*
X164500000Y-108500000D03*
D27*
X164500000Y-105960000D03*
X164500000Y-103460000D03*
D28*
X108250000Y-109500000D03*
X108250000Y-113500000D03*
X111000000Y-109500000D03*
X111000000Y-113500000D03*
D29*
X116000000Y-106500000D03*
X118500000Y-106500000D03*
D30*
X113000000Y-101250000D03*
D31*
X121798560Y-101250000D03*
D32*
X127250000Y-112750000D03*
X127250000Y-110050000D03*
X123750000Y-110050000D03*
X123750000Y-112750000D03*
D33*
X119815400Y-109095000D03*
X119815400Y-110365000D03*
X119815400Y-111635000D03*
X119815400Y-112905000D03*
X114684600Y-112905000D03*
X114684600Y-111635000D03*
X114684600Y-110365000D03*
X114684600Y-109095000D03*
D34*
X117250000Y-111000000D03*
D35*
X130500000Y-99500000D03*
X130500000Y-106002400D03*
D36*
X153500000Y-92502040D03*
X153500000Y-96500000D03*
D37*
X121798560Y-108500000D03*
X159250000Y-101500000D03*
X149250000Y-90679856D03*
X149250000Y-97279992D03*
X153524998Y-71000000D03*
X159500000Y-88500000D03*
X157500000Y-86750000D03*
X162250000Y-73000000D03*
X157250000Y-74250000D03*
X155250000Y-71500000D03*
X157500000Y-70500000D03*
X158750000Y-67250000D03*
X150978858Y-66603439D03*
X146500000Y-72500000D03*
X113750000Y-82000000D03*
X113750000Y-74250000D03*
X98250000Y-86750000D03*
X116750000Y-91500000D03*
X126425020Y-90385409D03*
X116750000Y-95000000D03*
X116750000Y-95000000D03*
X153250000Y-77500000D03*
X147250000Y-87500000D03*
X152750000Y-80000000D03*
X148800000Y-75750000D03*
X127250000Y-100849850D03*
X127250000Y-108575000D03*
X125000000Y-90650000D03*
X164000000Y-94000000D03*
X146500000Y-88000000D03*
X150750000Y-89750000D03*
X150500000Y-97500000D03*
X161750000Y-66000000D03*
X164000000Y-68250000D03*
X157565693Y-71565693D03*
X155750000Y-67500000D03*
X150500000Y-68200000D03*
X146010000Y-68160000D03*
X128750000Y-89950000D03*
X136750000Y-90500000D03*
X159750000Y-97750000D03*
X156500000Y-88000000D03*
X112500000Y-56664660D03*
X147750000Y-63250000D03*
X122500000Y-56664660D03*
X142250000Y-56664660D03*
X132250000Y-56664660D03*
X152500000Y-56664660D03*
X154500000Y-63250000D03*
X162500000Y-56664660D03*
X164000000Y-65000000D03*
X111000000Y-52500000D03*
X126000000Y-76850000D03*
X110000000Y-50500000D03*
X101500000Y-50500000D03*
X100750000Y-98500000D03*
X102500000Y-73250000D03*
D38*
X149250000Y-90679856D02*
X149250000Y-89991998D01*
X149250000Y-89991998D02*
X151692058Y-87549940D01*
X151692058Y-87549940D02*
X151899570Y-87549940D01*
X151899570Y-87549940D02*
X153500000Y-89150370D01*
X153500000Y-89150370D02*
X153500000Y-90000000D01*
X153500000Y-90000000D02*
X153500000Y-92502040D01*
X121798560Y-101250000D02*
X121798560Y-108500000D01*
X121798560Y-108500000D02*
X121798560Y-109448560D01*
X114684600Y-111635000D02*
X116615000Y-111635000D01*
X116615000Y-111635000D02*
X117250000Y-111000000D01*
X164500000Y-108500000D02*
X164500000Y-110200000D01*
X164500000Y-110200000D02*
X160649999Y-114050001D01*
X160649999Y-114050001D02*
X128290001Y-114050001D01*
X130500000Y-106002400D02*
X130500000Y-111840002D01*
X130500000Y-111840002D02*
X128290001Y-114050001D01*
X128290001Y-114050001D02*
X118101401Y-114050001D01*
X118101401Y-114050001D02*
X117250000Y-113198600D01*
X117250000Y-113198600D02*
X117250000Y-111000000D01*
X121798560Y-109448560D02*
X122400000Y-110050000D01*
X122400000Y-110050000D02*
X123750000Y-110050000D01*
X99404000Y-105500000D02*
X103750000Y-101154000D01*
X103750000Y-101154000D02*
X103750000Y-93000000D01*
X121798560Y-100048560D02*
X116750000Y-95000000D01*
X159250000Y-101500000D02*
X159110000Y-101500000D01*
X159110000Y-101500000D02*
X157646000Y-100036000D01*
D39*
X149250000Y-97279992D02*
X149250000Y-90679856D01*
X153524998Y-68774998D02*
X153524998Y-71000000D01*
X153000000Y-68250000D02*
X153524998Y-68774998D01*
D40*
X144600000Y-81750000D02*
X144600000Y-78100000D01*
X144600000Y-78100000D02*
X143750001Y-77250001D01*
X144600000Y-81750000D02*
X144600000Y-83900000D01*
X144600000Y-83900000D02*
X144500000Y-84000000D01*
D38*
X157432000Y-100250000D02*
X157646000Y-100036000D01*
D39*
X159500000Y-88500000D02*
X159250000Y-88500000D01*
X159250000Y-88500000D02*
X157500000Y-86750000D01*
X157500000Y-86750000D02*
X157500000Y-86325736D01*
X157500000Y-86325736D02*
X150500000Y-79325736D01*
X150500000Y-79325736D02*
X150500000Y-78500001D01*
D41*
X150124999Y-77250001D02*
X149250000Y-77250001D01*
X149250000Y-77250001D02*
X143750001Y-77250001D01*
X159000000Y-76750000D02*
X157460674Y-76750000D01*
X157460674Y-76750000D02*
X155710673Y-78500001D01*
X155710673Y-78500001D02*
X150500000Y-78500001D01*
X150500000Y-78500001D02*
X149250000Y-77250001D01*
X143750001Y-77250001D02*
X142000000Y-75500000D01*
X152000000Y-75500000D02*
X151875000Y-75500000D01*
X151875000Y-75500000D02*
X150124999Y-77250001D01*
X162250000Y-73000000D02*
X162450000Y-73200000D01*
X162450000Y-73200000D02*
X162450000Y-74250000D01*
X159000000Y-76750000D02*
X159000000Y-76000000D01*
X159000000Y-76000000D02*
X157250000Y-74250000D01*
X155250000Y-71500000D02*
X155250000Y-72950000D01*
X155250000Y-72950000D02*
X155300000Y-73000000D01*
X157500000Y-70500000D02*
X157500000Y-70000000D01*
X157500000Y-70000000D02*
X159000000Y-68500000D01*
X158750000Y-67250000D02*
X158750000Y-68250000D01*
X158750000Y-68250000D02*
X159000000Y-68500000D01*
X150978858Y-66603439D02*
X151353439Y-66603439D01*
X151353439Y-66603439D02*
X152000000Y-67250000D01*
X153000000Y-68250000D02*
X152000000Y-67250000D01*
D39*
X146500000Y-72500000D02*
X146500000Y-73500000D01*
X146500000Y-73500000D02*
X147250000Y-74250000D01*
X161500000Y-76750000D02*
X162450000Y-75800000D01*
X162450000Y-75800000D02*
X162450000Y-74250000D01*
X159000000Y-76750000D02*
X161500000Y-76750000D01*
X154500000Y-75600000D02*
X152100000Y-75600000D01*
X152100000Y-75600000D02*
X152000000Y-75500000D01*
X155300000Y-73000000D02*
X155300000Y-74800000D01*
X155300000Y-74800000D02*
X154500000Y-75600000D01*
X148300000Y-71750000D02*
X148300000Y-73200000D01*
X148300000Y-73200000D02*
X147250000Y-74250000D01*
X144750000Y-74250000D02*
X142500000Y-74250000D01*
X147250000Y-74250000D02*
X144750000Y-74250000D01*
X144750000Y-66000000D02*
X142250000Y-66000000D01*
D38*
X98250000Y-86750000D02*
X104280500Y-86750000D01*
X104280500Y-86750000D02*
X105049980Y-87519480D01*
X116750000Y-95000000D02*
X116750000Y-91500000D01*
X116750000Y-91500000D02*
X116750000Y-88000000D01*
X103750000Y-93000000D02*
X103750000Y-88819460D01*
X103750000Y-88819460D02*
X105049980Y-87519480D01*
D40*
X126125021Y-90085410D02*
X126425020Y-90385409D01*
X123250000Y-87210389D02*
X126125021Y-90085410D01*
X123250000Y-87000000D02*
X123250000Y-87210389D01*
D38*
X116750000Y-87750000D02*
X116750000Y-88000000D01*
X100493554Y-113750000D02*
X106500000Y-113750000D01*
X106500000Y-113750000D02*
X106750000Y-113500000D01*
X106750000Y-113500000D02*
X108250000Y-113500000D01*
X99404000Y-105500000D02*
X97003701Y-107900299D01*
X97003701Y-107900299D02*
X97003701Y-110260147D01*
X97003701Y-110260147D02*
X100493554Y-113750000D01*
X111000000Y-113500000D02*
X112865000Y-111635000D01*
X112865000Y-111635000D02*
X114684600Y-111635000D01*
X108250000Y-113500000D02*
X111000000Y-113500000D01*
X154000000Y-100250000D02*
X157432000Y-100250000D01*
D39*
X152000000Y-77500000D02*
X153250000Y-77500000D01*
X153250000Y-77500000D02*
X154500000Y-77500000D01*
X154500000Y-77500000D02*
X155650000Y-77500000D01*
X155650000Y-77500000D02*
X156250000Y-76900000D01*
X156250000Y-76900000D02*
X156250000Y-74030000D01*
X156250000Y-74030000D02*
X156250000Y-73000000D01*
D40*
X146500000Y-81750000D02*
X146500000Y-84000000D01*
X146650000Y-86250000D02*
X146650000Y-86900000D01*
X146650000Y-86900000D02*
X147250000Y-87500000D01*
X146500000Y-84000000D02*
X146500000Y-86100000D01*
X146500000Y-86100000D02*
X146650000Y-86250000D01*
D39*
X152750000Y-80000000D02*
X158750000Y-80000000D01*
X158750000Y-80000000D02*
X159000000Y-79750000D01*
X159000000Y-79750000D02*
X159000000Y-78750000D01*
X161500000Y-78650000D02*
X161800000Y-78650000D01*
X161800000Y-78650000D02*
X163400000Y-77050000D01*
X163400000Y-77050000D02*
X163400000Y-75280000D01*
X163400000Y-75280000D02*
X163400000Y-74250000D01*
X159000000Y-78750000D02*
X161400000Y-78750000D01*
X161400000Y-78750000D02*
X161500000Y-78650000D01*
X148400000Y-76150000D02*
X148800000Y-75750000D01*
X148800000Y-75750000D02*
X149250000Y-75300000D01*
X147250000Y-76150000D02*
X148400000Y-76150000D01*
X149250000Y-75300000D02*
X149250000Y-72780000D01*
X149250000Y-72780000D02*
X149250000Y-71750000D01*
X144750000Y-76250000D02*
X147150000Y-76250000D01*
X147150000Y-76250000D02*
X147250000Y-76150000D01*
X152000000Y-72900000D02*
X154250000Y-72900000D01*
X154250000Y-72900000D02*
X154350000Y-73000000D01*
X159000000Y-74250000D02*
X161500000Y-74250000D01*
X144750000Y-71650000D02*
X147250000Y-71650000D01*
X147250000Y-71650000D02*
X147350000Y-71750000D01*
D38*
X124000000Y-94900150D02*
X124000000Y-91650000D01*
X124000000Y-91650000D02*
X125000000Y-90650000D01*
X128599850Y-99500000D02*
X124000000Y-94900150D01*
X127250000Y-110000000D02*
X127250000Y-100849850D01*
X127250000Y-100849850D02*
X128599850Y-99500000D01*
X128599850Y-99500000D02*
X130500000Y-99500000D01*
X160650010Y-97377204D02*
X160272806Y-97000000D01*
X160272806Y-97000000D02*
X159944806Y-96672000D01*
X164000000Y-94000000D02*
X163272806Y-94000000D01*
X163272806Y-94000000D02*
X160272806Y-97000000D01*
X160750000Y-102500000D02*
X160650010Y-102400010D01*
X160650010Y-102400010D02*
X160650010Y-97377204D01*
X159944806Y-96672000D02*
X159362000Y-96672000D01*
X152925000Y-102500000D02*
X160750000Y-102500000D01*
X152000000Y-100250000D02*
X152000000Y-101575000D01*
X152000000Y-101575000D02*
X152925000Y-102500000D01*
D41*
X152000000Y-69250000D02*
X152000000Y-71000000D01*
D40*
X145400000Y-88000000D02*
X146500000Y-88000000D01*
X144750000Y-86250000D02*
X144750000Y-87350000D01*
X144750000Y-87350000D02*
X145400000Y-88000000D01*
X150500000Y-97500000D02*
X150500000Y-90000000D01*
X150500000Y-90000000D02*
X150750000Y-89750000D01*
D38*
X152000000Y-100250000D02*
X152000000Y-99000000D01*
X152000000Y-99000000D02*
X150500000Y-97500000D01*
X152000000Y-100250000D02*
X152000000Y-100375000D01*
X159362000Y-96672000D02*
X158154000Y-95464000D01*
X158154000Y-95464000D02*
X157646000Y-95464000D01*
D41*
X161750000Y-66000000D02*
X164000000Y-68250000D01*
X164000000Y-68250000D02*
X164000000Y-69400000D01*
X164000000Y-69400000D02*
X163400000Y-70000000D01*
X157565693Y-71565693D02*
X158215693Y-71565693D01*
X158215693Y-71565693D02*
X159000000Y-72350000D01*
X155750000Y-67500000D02*
X155750000Y-68250000D01*
X155750000Y-68250000D02*
X156250000Y-68750000D01*
X150500000Y-68200000D02*
X149950000Y-68200000D01*
X149950000Y-68200000D02*
X149250000Y-67500000D01*
X146010000Y-68160000D02*
X144910000Y-68160000D01*
X144910000Y-68160000D02*
X144750000Y-68000000D01*
D39*
X163400000Y-72050000D02*
X163400000Y-70000000D01*
X159000000Y-70500000D02*
X159000000Y-72250000D01*
X156250000Y-70800000D02*
X156250000Y-68750000D01*
X152000000Y-69750000D02*
X150250000Y-69750000D01*
X150250000Y-69750000D02*
X149450000Y-69750000D01*
X149450000Y-69750000D02*
X149250000Y-69550000D01*
X149250000Y-67500000D02*
X149250000Y-69550000D01*
X144750000Y-68000000D02*
X144750000Y-69750000D01*
D38*
X129250000Y-90500000D02*
X128750000Y-90000000D01*
X128750000Y-90000000D02*
X128750000Y-89950000D01*
X136750000Y-90500000D02*
X129250000Y-90500000D01*
X159750000Y-97750000D02*
X157646000Y-97750000D01*
D40*
X153250000Y-97500000D02*
X153375000Y-97500000D01*
X156500000Y-94375000D02*
X156500000Y-94140002D01*
X153375000Y-97500000D02*
X156500000Y-94375000D01*
X156500000Y-94140002D02*
X156500000Y-88000000D01*
D38*
X153250000Y-97500000D02*
X157396000Y-97500000D01*
X157396000Y-97500000D02*
X157646000Y-97750000D01*
D39*
X117525023Y-51724977D02*
X112585340Y-56664660D01*
X112585340Y-56664660D02*
X112500000Y-56664660D01*
X146104999Y-53354999D02*
X144474977Y-51724977D01*
X144474977Y-51724977D02*
X117525023Y-51724977D01*
X147199966Y-62949966D02*
X146104999Y-61854999D01*
X146104999Y-61854999D02*
X146104999Y-53354999D01*
X147750000Y-63250000D02*
X147449966Y-62949966D01*
X147449966Y-62949966D02*
X147199966Y-62949966D01*
X161500000Y-70000000D02*
X161500000Y-68850000D01*
X126825012Y-52424988D02*
X122585340Y-56664660D01*
X161500000Y-68850000D02*
X157650000Y-65000000D01*
X157650000Y-65000000D02*
X148250000Y-65000000D01*
X143424988Y-52424988D02*
X126825012Y-52424988D01*
X148250000Y-65000000D02*
X145095021Y-61845021D01*
X145095021Y-61845021D02*
X145095022Y-54095022D01*
X145095022Y-54095022D02*
X143424988Y-52424988D01*
X122585340Y-56664660D02*
X122500000Y-56664660D01*
X161500000Y-70000000D02*
X161500000Y-72050000D01*
X147350000Y-67500000D02*
X147350000Y-69550000D01*
X143695001Y-61195001D02*
X143695001Y-61000000D01*
X143695001Y-61000000D02*
X143695001Y-57679999D01*
X147350000Y-67500000D02*
X147350000Y-66350000D01*
X147350000Y-66350000D02*
X143695001Y-62695001D01*
X143695001Y-62695001D02*
X143695001Y-61000000D01*
X142335340Y-56750000D02*
X142250000Y-56664660D01*
X142765002Y-56750000D02*
X142335340Y-56750000D01*
X143695001Y-57679999D02*
X142765002Y-56750000D01*
X154350000Y-68750000D02*
X154350000Y-67600000D01*
X154350000Y-67600000D02*
X152500000Y-65750000D01*
X152500000Y-65750000D02*
X148000000Y-65750000D01*
X136625001Y-53124999D02*
X133000000Y-56750000D01*
X148000000Y-65750000D02*
X144395011Y-62145011D01*
X144395011Y-54540009D02*
X142980001Y-53124999D01*
X144395011Y-62145011D02*
X144395011Y-54540009D01*
X142980001Y-53124999D02*
X136625001Y-53124999D01*
X133000000Y-56750000D02*
X132335340Y-56750000D01*
X132335340Y-56750000D02*
X132250000Y-56664660D01*
X154350000Y-70800000D02*
X154350000Y-68750000D01*
D41*
X152839002Y-56750000D02*
X152585340Y-56750000D01*
X152585340Y-56750000D02*
X152500000Y-56664660D01*
X154500000Y-63250000D02*
X154500000Y-58410998D01*
X154500000Y-58410998D02*
X152839002Y-56750000D01*
X164000000Y-65000000D02*
X164000000Y-57910998D01*
X164000000Y-57910998D02*
X162753662Y-56664660D01*
X162753662Y-56664660D02*
X162500000Y-56664660D01*
D39*
X164750010Y-54895008D02*
X159355002Y-49500000D01*
X126000000Y-76850000D02*
X139079855Y-89929855D01*
X139079855Y-89929855D02*
X146820145Y-89929855D01*
X146820145Y-89929855D02*
X150750000Y-86000000D01*
X150750000Y-86000000D02*
X155610002Y-86000000D01*
X155610002Y-86000000D02*
X158860003Y-89250001D01*
X158860003Y-89250001D02*
X159860001Y-89250001D01*
X159860001Y-89250001D02*
X164750010Y-84359992D01*
X164750010Y-84359992D02*
X164750010Y-54895008D01*
X159355002Y-49500000D02*
X114000000Y-49500000D01*
X114000000Y-49500000D02*
X111000000Y-52500000D01*
X109700001Y-50799999D02*
X110000000Y-50500000D01*
X101500000Y-50500000D02*
X101799999Y-50799999D01*
X101799999Y-50799999D02*
X109700001Y-50799999D01*
D38*
X105500000Y-105500000D02*
X105500000Y-108600300D01*
X105500000Y-108600300D02*
X107264700Y-110365000D01*
X107264700Y-110365000D02*
X113095600Y-110365000D01*
X113095600Y-110365000D02*
X114684600Y-110365000D01*
X114684600Y-109095000D02*
X114684600Y-107815400D01*
X114684600Y-107815400D02*
X116000000Y-106500000D01*
X113000000Y-104000000D02*
X113000000Y-101250000D01*
X113000000Y-104000000D02*
X113000000Y-107410400D01*
X113000000Y-107410400D02*
X114684600Y-109095000D01*
X119815400Y-109095000D02*
X119815400Y-107815400D01*
X119815400Y-107815400D02*
X118500000Y-106500000D01*
X123750000Y-112750000D02*
X127200000Y-112750000D01*
X127200000Y-112750000D02*
X127250000Y-112700000D01*
X119815400Y-112905000D02*
X123595000Y-112905000D01*
X123595000Y-112905000D02*
X123750000Y-112750000D01*
D42*
X96500000Y-79250000D02*
X96500000Y-94250000D01*
X96500000Y-94250000D02*
X100750000Y-98500000D01*
X102500000Y-73250000D02*
X96500000Y-79250000D01*
D43*
G36*
X105920000Y-58467002D02*
X106084516Y-58467002D01*
X105964188Y-58708664D01*
X106147466Y-59151161D01*
X106559317Y-59599354D01*
X107111334Y-59855821D01*
X107353000Y-59736081D01*
X107353000Y-58467000D01*
X107333000Y-58467000D01*
X107333000Y-58377000D01*
X107627000Y-58377000D01*
X107627000Y-58467000D01*
X107607000Y-58467000D01*
X107607000Y-59736081D01*
X107848666Y-59855821D01*
X108400683Y-59599354D01*
X108812534Y-59151161D01*
X108995812Y-58708664D01*
X108875484Y-58467002D01*
X109040000Y-58467002D01*
X109040000Y-58377000D01*
X110760000Y-58377000D01*
X110760000Y-58467002D01*
X110924516Y-58467002D01*
X110804188Y-58708664D01*
X110987466Y-59151161D01*
X111399317Y-59599354D01*
X111951334Y-59855821D01*
X112193000Y-59736081D01*
X112193000Y-58467000D01*
X112173000Y-58467000D01*
X112173000Y-58377000D01*
X112467000Y-58377000D01*
X112467000Y-58467000D01*
X112447000Y-58467000D01*
X112447000Y-59736081D01*
X112688666Y-59855821D01*
X113240683Y-59599354D01*
X113652534Y-59151161D01*
X113835812Y-58708664D01*
X113715484Y-58467002D01*
X113880000Y-58467002D01*
X113880000Y-58377000D01*
X115920000Y-58377000D01*
X115920000Y-58467002D01*
X116084516Y-58467002D01*
X115964188Y-58708664D01*
X116147466Y-59151161D01*
X116559317Y-59599354D01*
X117111334Y-59855821D01*
X117353000Y-59736081D01*
X117353000Y-58467000D01*
X117333000Y-58467000D01*
X117333000Y-58377000D01*
X117627000Y-58377000D01*
X117627000Y-58467000D01*
X117607000Y-58467000D01*
X117607000Y-59736081D01*
X117848666Y-59855821D01*
X118400683Y-59599354D01*
X118812534Y-59151161D01*
X118995812Y-58708664D01*
X118875484Y-58467002D01*
X119040000Y-58467002D01*
X119040000Y-58377000D01*
X120760000Y-58377000D01*
X120760000Y-58467002D01*
X120924516Y-58467002D01*
X120804188Y-58708664D01*
X120987466Y-59151161D01*
X121399317Y-59599354D01*
X121951334Y-59855821D01*
X122193000Y-59736081D01*
X122193000Y-58467000D01*
X122173000Y-58467000D01*
X122173000Y-58377000D01*
X122467000Y-58377000D01*
X122467000Y-58467000D01*
X122447000Y-58467000D01*
X122447000Y-59736081D01*
X122688666Y-59855821D01*
X123240683Y-59599354D01*
X123652534Y-59151161D01*
X123835812Y-58708664D01*
X123715484Y-58467002D01*
X123880000Y-58467002D01*
X123880000Y-58377000D01*
X125920000Y-58377000D01*
X125920000Y-58467002D01*
X126084516Y-58467002D01*
X125964188Y-58708664D01*
X126147466Y-59151161D01*
X126559317Y-59599354D01*
X127111334Y-59855821D01*
X127353000Y-59736081D01*
X127353000Y-58467000D01*
X127333000Y-58467000D01*
X127333000Y-58377000D01*
X127627000Y-58377000D01*
X127627000Y-58467000D01*
X127607000Y-58467000D01*
X127607000Y-59736081D01*
X127848666Y-59855821D01*
X128400683Y-59599354D01*
X128812534Y-59151161D01*
X128995812Y-58708664D01*
X128875484Y-58467002D01*
X129040000Y-58467002D01*
X129040000Y-58377000D01*
X130760000Y-58377000D01*
X130760000Y-58467002D01*
X130924516Y-58467002D01*
X130804188Y-58708664D01*
X130987466Y-59151161D01*
X131399317Y-59599354D01*
X131951334Y-59855821D01*
X132193000Y-59736081D01*
X132193000Y-58467000D01*
X132173000Y-58467000D01*
X132173000Y-58377000D01*
X132467000Y-58377000D01*
X132467000Y-58467000D01*
X132447000Y-58467000D01*
X132447000Y-59736081D01*
X132688666Y-59855821D01*
X133240683Y-59599354D01*
X133652534Y-59151161D01*
X133835812Y-58708664D01*
X133715484Y-58467002D01*
X133880000Y-58467002D01*
X133880000Y-58377000D01*
X135920000Y-58377000D01*
X135920000Y-58467002D01*
X136084516Y-58467002D01*
X135964188Y-58708664D01*
X136147466Y-59151161D01*
X136559317Y-59599354D01*
X137111334Y-59855821D01*
X137353000Y-59736081D01*
X137353000Y-58467000D01*
X137333000Y-58467000D01*
X137333000Y-58377000D01*
X137627000Y-58377000D01*
X137627000Y-58467000D01*
X137607000Y-58467000D01*
X137607000Y-59736081D01*
X137848666Y-59855821D01*
X138400683Y-59599354D01*
X138812534Y-59151161D01*
X138995812Y-58708664D01*
X138875484Y-58467002D01*
X139040000Y-58467002D01*
X139040000Y-58377000D01*
X140760000Y-58377000D01*
X140760000Y-58467002D01*
X140924516Y-58467002D01*
X140804188Y-58708664D01*
X140987466Y-59151161D01*
X141399317Y-59599354D01*
X141951334Y-59855821D01*
X142193000Y-59736081D01*
X142193000Y-58467000D01*
X142173000Y-58467000D01*
X142173000Y-58377000D01*
X142467000Y-58377000D01*
X142467000Y-58467000D01*
X142447000Y-58467000D01*
X142447000Y-59736081D01*
X142623000Y-59823285D01*
X142623000Y-60919360D01*
X142437046Y-60733081D01*
X142056777Y-60575180D01*
X141645029Y-60574821D01*
X141264485Y-60732058D01*
X141150056Y-60846288D01*
X141037046Y-60733081D01*
X140656777Y-60575180D01*
X140245029Y-60574821D01*
X139864485Y-60732058D01*
X139750056Y-60846288D01*
X139637046Y-60733081D01*
X139256777Y-60575180D01*
X138845029Y-60574821D01*
X138464485Y-60732058D01*
X138362617Y-60833749D01*
X138304630Y-60775762D01*
X138187745Y-60892647D01*
X138163023Y-60687820D01*
X137771069Y-60561691D01*
X137360682Y-60595158D01*
X137136977Y-60687820D01*
X137112255Y-60892650D01*
X137650000Y-61430395D01*
X137664143Y-61416253D01*
X137843748Y-61595858D01*
X137829605Y-61610000D01*
X137843748Y-61624143D01*
X137664143Y-61803748D01*
X137650000Y-61789605D01*
X137112255Y-62327350D01*
X137136977Y-62532180D01*
X137528931Y-62658309D01*
X137939318Y-62624842D01*
X138163023Y-62532180D01*
X138187745Y-62327353D01*
X138304630Y-62444238D01*
X138362539Y-62386329D01*
X138462954Y-62486919D01*
X138843223Y-62644820D01*
X139254971Y-62645179D01*
X139635515Y-62487942D01*
X139749944Y-62373712D01*
X139862954Y-62486919D01*
X140243223Y-62644820D01*
X140654971Y-62645179D01*
X141035515Y-62487942D01*
X141149944Y-62373712D01*
X141262954Y-62486919D01*
X141643223Y-62644820D01*
X142054971Y-62645179D01*
X142435515Y-62487942D01*
X142623000Y-62300784D01*
X142623000Y-75373000D01*
X123500000Y-75373000D01*
X123450590Y-75383006D01*
X123408965Y-75411447D01*
X123381685Y-75453841D01*
X123373000Y-75500000D01*
X123373000Y-88623000D01*
X106718067Y-88623000D01*
X106758770Y-88604008D01*
X107043727Y-87867528D01*
X107025154Y-87078060D01*
X106758770Y-86434952D01*
X106455581Y-86293484D01*
X105229585Y-87519480D01*
X105243728Y-87533623D01*
X105127000Y-87650350D01*
X105127000Y-87262855D01*
X106275976Y-86113879D01*
X106134508Y-85810690D01*
X105398028Y-85525733D01*
X105127000Y-85532109D01*
X105127000Y-83066661D01*
X106352758Y-83066661D01*
X106564990Y-83580303D01*
X106957630Y-83973629D01*
X107470900Y-84186757D01*
X108026661Y-84187242D01*
X108540303Y-83975010D01*
X108749510Y-83766168D01*
X108956610Y-83973629D01*
X109469880Y-84186757D01*
X110025641Y-84187242D01*
X110539283Y-83975010D01*
X110932609Y-83582370D01*
X111145737Y-83069100D01*
X111146222Y-82513339D01*
X110933990Y-81999697D01*
X110541350Y-81606371D01*
X110333468Y-81520051D01*
X110539283Y-81435010D01*
X110932609Y-81042370D01*
X111145737Y-80529100D01*
X111146222Y-79973339D01*
X110933990Y-79459697D01*
X110541350Y-79066371D01*
X110028080Y-78853243D01*
X109472319Y-78852758D01*
X108958677Y-79064990D01*
X108565351Y-79457630D01*
X108454134Y-79725471D01*
X107929605Y-80250000D01*
X108454169Y-80774564D01*
X108563970Y-81040303D01*
X108956610Y-81433629D01*
X109164492Y-81519949D01*
X108958677Y-81604990D01*
X108749470Y-81813832D01*
X108542370Y-81606371D01*
X108350273Y-81526605D01*
X108481143Y-81472397D01*
X108550608Y-81230213D01*
X107750000Y-80429605D01*
X106949392Y-81230213D01*
X107018857Y-81472397D01*
X107159318Y-81522509D01*
X106959697Y-81604990D01*
X106566371Y-81997630D01*
X106353243Y-82510900D01*
X106352758Y-83066661D01*
X105127000Y-83066661D01*
X105127000Y-80042302D01*
X106340856Y-80042302D01*
X106368638Y-80597368D01*
X106527603Y-80981143D01*
X106769787Y-81050608D01*
X107570395Y-80250000D01*
X106769787Y-79449392D01*
X106527603Y-79518857D01*
X106340856Y-80042302D01*
X105127000Y-80042302D01*
X105127000Y-79269787D01*
X106949392Y-79269787D01*
X107750000Y-80070395D01*
X108550608Y-79269787D01*
X108481143Y-79027603D01*
X107957698Y-78840856D01*
X107402632Y-78868638D01*
X107018857Y-79027603D01*
X106949392Y-79269787D01*
X105127000Y-79269787D01*
X105127000Y-77504267D01*
X105491400Y-77495694D01*
X106134508Y-77229310D01*
X106275976Y-76926121D01*
X105127000Y-75777145D01*
X105127000Y-75520520D01*
X105229585Y-75520520D01*
X106455581Y-76746516D01*
X106758770Y-76605048D01*
X107043727Y-75868568D01*
X107025154Y-75079100D01*
X106758770Y-74435992D01*
X106455581Y-74294524D01*
X105229585Y-75520520D01*
X105127000Y-75520520D01*
X105127000Y-75263895D01*
X106275976Y-74114919D01*
X106134508Y-73811730D01*
X105398028Y-73526773D01*
X105127000Y-73533149D01*
X105127000Y-61488931D01*
X106601691Y-61488931D01*
X106635158Y-61899318D01*
X106727820Y-62123023D01*
X106932650Y-62147745D01*
X107470395Y-61610000D01*
X106932650Y-61072255D01*
X106727820Y-61096977D01*
X106601691Y-61488931D01*
X105127000Y-61488931D01*
X105127000Y-60892650D01*
X107112255Y-60892650D01*
X107650000Y-61430395D01*
X107664143Y-61416253D01*
X107843748Y-61595858D01*
X107829605Y-61610000D01*
X107843748Y-61624143D01*
X107664143Y-61803748D01*
X107650000Y-61789605D01*
X107112255Y-62327350D01*
X107136977Y-62532180D01*
X107528931Y-62658309D01*
X107939318Y-62624842D01*
X108163023Y-62532180D01*
X108187745Y-62327353D01*
X108304630Y-62444238D01*
X108362539Y-62386329D01*
X108462954Y-62486919D01*
X108843223Y-62644820D01*
X109254971Y-62645179D01*
X109635515Y-62487942D01*
X109749944Y-62373712D01*
X109862954Y-62486919D01*
X110243223Y-62644820D01*
X110654971Y-62645179D01*
X111035515Y-62487942D01*
X111149944Y-62373712D01*
X111262954Y-62486919D01*
X111643223Y-62644820D01*
X112054971Y-62645179D01*
X112435515Y-62487942D01*
X112726919Y-62197046D01*
X112884820Y-61816777D01*
X112885105Y-61488931D01*
X116601691Y-61488931D01*
X116635158Y-61899318D01*
X116727820Y-62123023D01*
X116932650Y-62147745D01*
X117470395Y-61610000D01*
X116932650Y-61072255D01*
X116727820Y-61096977D01*
X116601691Y-61488931D01*
X112885105Y-61488931D01*
X112885179Y-61405029D01*
X112727942Y-61024485D01*
X112596337Y-60892650D01*
X117112255Y-60892650D01*
X117650000Y-61430395D01*
X117664143Y-61416253D01*
X117843748Y-61595858D01*
X117829605Y-61610000D01*
X117843748Y-61624143D01*
X117664143Y-61803748D01*
X117650000Y-61789605D01*
X117112255Y-62327350D01*
X117136977Y-62532180D01*
X117528931Y-62658309D01*
X117939318Y-62624842D01*
X118163023Y-62532180D01*
X118187745Y-62327353D01*
X118304630Y-62444238D01*
X118362539Y-62386329D01*
X118462954Y-62486919D01*
X118843223Y-62644820D01*
X119254971Y-62645179D01*
X119635515Y-62487942D01*
X119749944Y-62373712D01*
X119862954Y-62486919D01*
X120243223Y-62644820D01*
X120654971Y-62645179D01*
X121035515Y-62487942D01*
X121149944Y-62373712D01*
X121262954Y-62486919D01*
X121643223Y-62644820D01*
X122054971Y-62645179D01*
X122435515Y-62487942D01*
X122726919Y-62197046D01*
X122884820Y-61816777D01*
X122885105Y-61488931D01*
X126601691Y-61488931D01*
X126635158Y-61899318D01*
X126727820Y-62123023D01*
X126932650Y-62147745D01*
X127470395Y-61610000D01*
X126932650Y-61072255D01*
X126727820Y-61096977D01*
X126601691Y-61488931D01*
X122885105Y-61488931D01*
X122885179Y-61405029D01*
X122727942Y-61024485D01*
X122596337Y-60892650D01*
X127112255Y-60892650D01*
X127650000Y-61430395D01*
X127664143Y-61416253D01*
X127843748Y-61595858D01*
X127829605Y-61610000D01*
X127843748Y-61624143D01*
X127664143Y-61803748D01*
X127650000Y-61789605D01*
X127112255Y-62327350D01*
X127136977Y-62532180D01*
X127528931Y-62658309D01*
X127939318Y-62624842D01*
X128163023Y-62532180D01*
X128187745Y-62327353D01*
X128304630Y-62444238D01*
X128362539Y-62386329D01*
X128462954Y-62486919D01*
X128843223Y-62644820D01*
X129254971Y-62645179D01*
X129635515Y-62487942D01*
X129749944Y-62373712D01*
X129862954Y-62486919D01*
X130243223Y-62644820D01*
X130654971Y-62645179D01*
X131035515Y-62487942D01*
X131149944Y-62373712D01*
X131262954Y-62486919D01*
X131643223Y-62644820D01*
X132054971Y-62645179D01*
X132435515Y-62487942D01*
X132726919Y-62197046D01*
X132884820Y-61816777D01*
X132885105Y-61488931D01*
X136601691Y-61488931D01*
X136635158Y-61899318D01*
X136727820Y-62123023D01*
X136932650Y-62147745D01*
X137470395Y-61610000D01*
X136932650Y-61072255D01*
X136727820Y-61096977D01*
X136601691Y-61488931D01*
X132885105Y-61488931D01*
X132885179Y-61405029D01*
X132727942Y-61024485D01*
X132437046Y-60733081D01*
X132056777Y-60575180D01*
X131645029Y-60574821D01*
X131264485Y-60732058D01*
X131150056Y-60846288D01*
X131037046Y-60733081D01*
X130656777Y-60575180D01*
X130245029Y-60574821D01*
X129864485Y-60732058D01*
X129750056Y-60846288D01*
X129637046Y-60733081D01*
X129256777Y-60575180D01*
X128845029Y-60574821D01*
X128464485Y-60732058D01*
X128362617Y-60833749D01*
X128304630Y-60775762D01*
X128187745Y-60892647D01*
X128163023Y-60687820D01*
X127771069Y-60561691D01*
X127360682Y-60595158D01*
X127136977Y-60687820D01*
X127112255Y-60892650D01*
X122596337Y-60892650D01*
X122437046Y-60733081D01*
X122056777Y-60575180D01*
X121645029Y-60574821D01*
X121264485Y-60732058D01*
X121150056Y-60846288D01*
X121037046Y-60733081D01*
X120656777Y-60575180D01*
X120245029Y-60574821D01*
X119864485Y-60732058D01*
X119750056Y-60846288D01*
X119637046Y-60733081D01*
X119256777Y-60575180D01*
X118845029Y-60574821D01*
X118464485Y-60732058D01*
X118362617Y-60833749D01*
X118304630Y-60775762D01*
X118187745Y-60892647D01*
X118163023Y-60687820D01*
X117771069Y-60561691D01*
X117360682Y-60595158D01*
X117136977Y-60687820D01*
X117112255Y-60892650D01*
X112596337Y-60892650D01*
X112437046Y-60733081D01*
X112056777Y-60575180D01*
X111645029Y-60574821D01*
X111264485Y-60732058D01*
X111150056Y-60846288D01*
X111037046Y-60733081D01*
X110656777Y-60575180D01*
X110245029Y-60574821D01*
X109864485Y-60732058D01*
X109750056Y-60846288D01*
X109637046Y-60733081D01*
X109256777Y-60575180D01*
X108845029Y-60574821D01*
X108464485Y-60732058D01*
X108362617Y-60833749D01*
X108304630Y-60775762D01*
X108187745Y-60892647D01*
X108163023Y-60687820D01*
X107771069Y-60561691D01*
X107360682Y-60595158D01*
X107136977Y-60687820D01*
X107112255Y-60892650D01*
X105127000Y-60892650D01*
X105127000Y-58377000D01*
X105920000Y-58377000D01*
X105920000Y-58467002D01*
X105920000Y-58467002D01*
G37*
X105920000Y-58467002D02*
X106084516Y-58467002D01*
X105964188Y-58708664D01*
X106147466Y-59151161D01*
X106559317Y-59599354D01*
X107111334Y-59855821D01*
X107353000Y-59736081D01*
X107353000Y-58467000D01*
X107333000Y-58467000D01*
X107333000Y-58377000D01*
X107627000Y-58377000D01*
X107627000Y-58467000D01*
X107607000Y-58467000D01*
X107607000Y-59736081D01*
X107848666Y-59855821D01*
X108400683Y-59599354D01*
X108812534Y-59151161D01*
X108995812Y-58708664D01*
X108875484Y-58467002D01*
X109040000Y-58467002D01*
X109040000Y-58377000D01*
X110760000Y-58377000D01*
X110760000Y-58467002D01*
X110924516Y-58467002D01*
X110804188Y-58708664D01*
X110987466Y-59151161D01*
X111399317Y-59599354D01*
X111951334Y-59855821D01*
X112193000Y-59736081D01*
X112193000Y-58467000D01*
X112173000Y-58467000D01*
X112173000Y-58377000D01*
X112467000Y-58377000D01*
X112467000Y-58467000D01*
X112447000Y-58467000D01*
X112447000Y-59736081D01*
X112688666Y-59855821D01*
X113240683Y-59599354D01*
X113652534Y-59151161D01*
X113835812Y-58708664D01*
X113715484Y-58467002D01*
X113880000Y-58467002D01*
X113880000Y-58377000D01*
X115920000Y-58377000D01*
X115920000Y-58467002D01*
X116084516Y-58467002D01*
X115964188Y-58708664D01*
X116147466Y-59151161D01*
X116559317Y-59599354D01*
X117111334Y-59855821D01*
X117353000Y-59736081D01*
X117353000Y-58467000D01*
X117333000Y-58467000D01*
X117333000Y-58377000D01*
X117627000Y-58377000D01*
X117627000Y-58467000D01*
X117607000Y-58467000D01*
X117607000Y-59736081D01*
X117848666Y-59855821D01*
X118400683Y-59599354D01*
X118812534Y-59151161D01*
X118995812Y-58708664D01*
X118875484Y-58467002D01*
X119040000Y-58467002D01*
X119040000Y-58377000D01*
X120760000Y-58377000D01*
X120760000Y-58467002D01*
X120924516Y-58467002D01*
X120804188Y-58708664D01*
X120987466Y-59151161D01*
X121399317Y-59599354D01*
X121951334Y-59855821D01*
X122193000Y-59736081D01*
X122193000Y-58467000D01*
X122173000Y-58467000D01*
X122173000Y-58377000D01*
X122467000Y-58377000D01*
X122467000Y-58467000D01*
X122447000Y-58467000D01*
X122447000Y-59736081D01*
X122688666Y-59855821D01*
X123240683Y-59599354D01*
X123652534Y-59151161D01*
X123835812Y-58708664D01*
X123715484Y-58467002D01*
X123880000Y-58467002D01*
X123880000Y-58377000D01*
X125920000Y-58377000D01*
X125920000Y-58467002D01*
X126084516Y-58467002D01*
X125964188Y-58708664D01*
X126147466Y-59151161D01*
X126559317Y-59599354D01*
X127111334Y-59855821D01*
X127353000Y-59736081D01*
X127353000Y-58467000D01*
X127333000Y-58467000D01*
X127333000Y-58377000D01*
X127627000Y-58377000D01*
X127627000Y-58467000D01*
X127607000Y-58467000D01*
X127607000Y-59736081D01*
X127848666Y-59855821D01*
X128400683Y-59599354D01*
X128812534Y-59151161D01*
X128995812Y-58708664D01*
X128875484Y-58467002D01*
X129040000Y-58467002D01*
X129040000Y-58377000D01*
X130760000Y-58377000D01*
X130760000Y-58467002D01*
X130924516Y-58467002D01*
X130804188Y-58708664D01*
X130987466Y-59151161D01*
X131399317Y-59599354D01*
X131951334Y-59855821D01*
X132193000Y-59736081D01*
X132193000Y-58467000D01*
X132173000Y-58467000D01*
X132173000Y-58377000D01*
X132467000Y-58377000D01*
X132467000Y-58467000D01*
X132447000Y-58467000D01*
X132447000Y-59736081D01*
X132688666Y-59855821D01*
X133240683Y-59599354D01*
X133652534Y-59151161D01*
X133835812Y-58708664D01*
X133715484Y-58467002D01*
X133880000Y-58467002D01*
X133880000Y-58377000D01*
X135920000Y-58377000D01*
X135920000Y-58467002D01*
X136084516Y-58467002D01*
X135964188Y-58708664D01*
X136147466Y-59151161D01*
X136559317Y-59599354D01*
X137111334Y-59855821D01*
X137353000Y-59736081D01*
X137353000Y-58467000D01*
X137333000Y-58467000D01*
X137333000Y-58377000D01*
X137627000Y-58377000D01*
X137627000Y-58467000D01*
X137607000Y-58467000D01*
X137607000Y-59736081D01*
X137848666Y-59855821D01*
X138400683Y-59599354D01*
X138812534Y-59151161D01*
X138995812Y-58708664D01*
X138875484Y-58467002D01*
X139040000Y-58467002D01*
X139040000Y-58377000D01*
X140760000Y-58377000D01*
X140760000Y-58467002D01*
X140924516Y-58467002D01*
X140804188Y-58708664D01*
X140987466Y-59151161D01*
X141399317Y-59599354D01*
X141951334Y-59855821D01*
X142193000Y-59736081D01*
X142193000Y-58467000D01*
X142173000Y-58467000D01*
X142173000Y-58377000D01*
X142467000Y-58377000D01*
X142467000Y-58467000D01*
X142447000Y-58467000D01*
X142447000Y-59736081D01*
X142623000Y-59823285D01*
X142623000Y-60919360D01*
X142437046Y-60733081D01*
X142056777Y-60575180D01*
X141645029Y-60574821D01*
X141264485Y-60732058D01*
X141150056Y-60846288D01*
X141037046Y-60733081D01*
X140656777Y-60575180D01*
X140245029Y-60574821D01*
X139864485Y-60732058D01*
X139750056Y-60846288D01*
X139637046Y-60733081D01*
X139256777Y-60575180D01*
X138845029Y-60574821D01*
X138464485Y-60732058D01*
X138362617Y-60833749D01*
X138304630Y-60775762D01*
X138187745Y-60892647D01*
X138163023Y-60687820D01*
X137771069Y-60561691D01*
X137360682Y-60595158D01*
X137136977Y-60687820D01*
X137112255Y-60892650D01*
X137650000Y-61430395D01*
X137664143Y-61416253D01*
X137843748Y-61595858D01*
X137829605Y-61610000D01*
X137843748Y-61624143D01*
X137664143Y-61803748D01*
X137650000Y-61789605D01*
X137112255Y-62327350D01*
X137136977Y-62532180D01*
X137528931Y-62658309D01*
X137939318Y-62624842D01*
X138163023Y-62532180D01*
X138187745Y-62327353D01*
X138304630Y-62444238D01*
X138362539Y-62386329D01*
X138462954Y-62486919D01*
X138843223Y-62644820D01*
X139254971Y-62645179D01*
X139635515Y-62487942D01*
X139749944Y-62373712D01*
X139862954Y-62486919D01*
X140243223Y-62644820D01*
X140654971Y-62645179D01*
X141035515Y-62487942D01*
X141149944Y-62373712D01*
X141262954Y-62486919D01*
X141643223Y-62644820D01*
X142054971Y-62645179D01*
X142435515Y-62487942D01*
X142623000Y-62300784D01*
X142623000Y-75373000D01*
X123500000Y-75373000D01*
X123450590Y-75383006D01*
X123408965Y-75411447D01*
X123381685Y-75453841D01*
X123373000Y-75500000D01*
X123373000Y-88623000D01*
X106718067Y-88623000D01*
X106758770Y-88604008D01*
X107043727Y-87867528D01*
X107025154Y-87078060D01*
X106758770Y-86434952D01*
X106455581Y-86293484D01*
X105229585Y-87519480D01*
X105243728Y-87533623D01*
X105127000Y-87650350D01*
X105127000Y-87262855D01*
X106275976Y-86113879D01*
X106134508Y-85810690D01*
X105398028Y-85525733D01*
X105127000Y-85532109D01*
X105127000Y-83066661D01*
X106352758Y-83066661D01*
X106564990Y-83580303D01*
X106957630Y-83973629D01*
X107470900Y-84186757D01*
X108026661Y-84187242D01*
X108540303Y-83975010D01*
X108749510Y-83766168D01*
X108956610Y-83973629D01*
X109469880Y-84186757D01*
X110025641Y-84187242D01*
X110539283Y-83975010D01*
X110932609Y-83582370D01*
X111145737Y-83069100D01*
X111146222Y-82513339D01*
X110933990Y-81999697D01*
X110541350Y-81606371D01*
X110333468Y-81520051D01*
X110539283Y-81435010D01*
X110932609Y-81042370D01*
X111145737Y-80529100D01*
X111146222Y-79973339D01*
X110933990Y-79459697D01*
X110541350Y-79066371D01*
X110028080Y-78853243D01*
X109472319Y-78852758D01*
X108958677Y-79064990D01*
X108565351Y-79457630D01*
X108454134Y-79725471D01*
X107929605Y-80250000D01*
X108454169Y-80774564D01*
X108563970Y-81040303D01*
X108956610Y-81433629D01*
X109164492Y-81519949D01*
X108958677Y-81604990D01*
X108749470Y-81813832D01*
X108542370Y-81606371D01*
X108350273Y-81526605D01*
X108481143Y-81472397D01*
X108550608Y-81230213D01*
X107750000Y-80429605D01*
X106949392Y-81230213D01*
X107018857Y-81472397D01*
X107159318Y-81522509D01*
X106959697Y-81604990D01*
X106566371Y-81997630D01*
X106353243Y-82510900D01*
X106352758Y-83066661D01*
X105127000Y-83066661D01*
X105127000Y-80042302D01*
X106340856Y-80042302D01*
X106368638Y-80597368D01*
X106527603Y-80981143D01*
X106769787Y-81050608D01*
X107570395Y-80250000D01*
X106769787Y-79449392D01*
X106527603Y-79518857D01*
X106340856Y-80042302D01*
X105127000Y-80042302D01*
X105127000Y-79269787D01*
X106949392Y-79269787D01*
X107750000Y-80070395D01*
X108550608Y-79269787D01*
X108481143Y-79027603D01*
X107957698Y-78840856D01*
X107402632Y-78868638D01*
X107018857Y-79027603D01*
X106949392Y-79269787D01*
X105127000Y-79269787D01*
X105127000Y-77504267D01*
X105491400Y-77495694D01*
X106134508Y-77229310D01*
X106275976Y-76926121D01*
X105127000Y-75777145D01*
X105127000Y-75520520D01*
X105229585Y-75520520D01*
X106455581Y-76746516D01*
X106758770Y-76605048D01*
X107043727Y-75868568D01*
X107025154Y-75079100D01*
X106758770Y-74435992D01*
X106455581Y-74294524D01*
X105229585Y-75520520D01*
X105127000Y-75520520D01*
X105127000Y-75263895D01*
X106275976Y-74114919D01*
X106134508Y-73811730D01*
X105398028Y-73526773D01*
X105127000Y-73533149D01*
X105127000Y-61488931D01*
X106601691Y-61488931D01*
X106635158Y-61899318D01*
X106727820Y-62123023D01*
X106932650Y-62147745D01*
X107470395Y-61610000D01*
X106932650Y-61072255D01*
X106727820Y-61096977D01*
X106601691Y-61488931D01*
X105127000Y-61488931D01*
X105127000Y-60892650D01*
X107112255Y-60892650D01*
X107650000Y-61430395D01*
X107664143Y-61416253D01*
X107843748Y-61595858D01*
X107829605Y-61610000D01*
X107843748Y-61624143D01*
X107664143Y-61803748D01*
X107650000Y-61789605D01*
X107112255Y-62327350D01*
X107136977Y-62532180D01*
X107528931Y-62658309D01*
X107939318Y-62624842D01*
X108163023Y-62532180D01*
X108187745Y-62327353D01*
X108304630Y-62444238D01*
X108362539Y-62386329D01*
X108462954Y-62486919D01*
X108843223Y-62644820D01*
X109254971Y-62645179D01*
X109635515Y-62487942D01*
X109749944Y-62373712D01*
X109862954Y-62486919D01*
X110243223Y-62644820D01*
X110654971Y-62645179D01*
X111035515Y-62487942D01*
X111149944Y-62373712D01*
X111262954Y-62486919D01*
X111643223Y-62644820D01*
X112054971Y-62645179D01*
X112435515Y-62487942D01*
X112726919Y-62197046D01*
X112884820Y-61816777D01*
X112885105Y-61488931D01*
X116601691Y-61488931D01*
X116635158Y-61899318D01*
X116727820Y-62123023D01*
X116932650Y-62147745D01*
X117470395Y-61610000D01*
X116932650Y-61072255D01*
X116727820Y-61096977D01*
X116601691Y-61488931D01*
X112885105Y-61488931D01*
X112885179Y-61405029D01*
X112727942Y-61024485D01*
X112596337Y-60892650D01*
X117112255Y-60892650D01*
X117650000Y-61430395D01*
X117664143Y-61416253D01*
X117843748Y-61595858D01*
X117829605Y-61610000D01*
X117843748Y-61624143D01*
X117664143Y-61803748D01*
X117650000Y-61789605D01*
X117112255Y-62327350D01*
X117136977Y-62532180D01*
X117528931Y-62658309D01*
X117939318Y-62624842D01*
X118163023Y-62532180D01*
X118187745Y-62327353D01*
X118304630Y-62444238D01*
X118362539Y-62386329D01*
X118462954Y-62486919D01*
X118843223Y-62644820D01*
X119254971Y-62645179D01*
X119635515Y-62487942D01*
X119749944Y-62373712D01*
X119862954Y-62486919D01*
X120243223Y-62644820D01*
X120654971Y-62645179D01*
X121035515Y-62487942D01*
X121149944Y-62373712D01*
X121262954Y-62486919D01*
X121643223Y-62644820D01*
X122054971Y-62645179D01*
X122435515Y-62487942D01*
X122726919Y-62197046D01*
X122884820Y-61816777D01*
X122885105Y-61488931D01*
X126601691Y-61488931D01*
X126635158Y-61899318D01*
X126727820Y-62123023D01*
X126932650Y-62147745D01*
X127470395Y-61610000D01*
X126932650Y-61072255D01*
X126727820Y-61096977D01*
X126601691Y-61488931D01*
X122885105Y-61488931D01*
X122885179Y-61405029D01*
X122727942Y-61024485D01*
X122596337Y-60892650D01*
X127112255Y-60892650D01*
X127650000Y-61430395D01*
X127664143Y-61416253D01*
X127843748Y-61595858D01*
X127829605Y-61610000D01*
X127843748Y-61624143D01*
X127664143Y-61803748D01*
X127650000Y-61789605D01*
X127112255Y-62327350D01*
X127136977Y-62532180D01*
X127528931Y-62658309D01*
X127939318Y-62624842D01*
X128163023Y-62532180D01*
X128187745Y-62327353D01*
X128304630Y-62444238D01*
X128362539Y-62386329D01*
X128462954Y-62486919D01*
X128843223Y-62644820D01*
X129254971Y-62645179D01*
X129635515Y-62487942D01*
X129749944Y-62373712D01*
X129862954Y-62486919D01*
X130243223Y-62644820D01*
X130654971Y-62645179D01*
X131035515Y-62487942D01*
X131149944Y-62373712D01*
X131262954Y-62486919D01*
X131643223Y-62644820D01*
X132054971Y-62645179D01*
X132435515Y-62487942D01*
X132726919Y-62197046D01*
X132884820Y-61816777D01*
X132885105Y-61488931D01*
X136601691Y-61488931D01*
X136635158Y-61899318D01*
X136727820Y-62123023D01*
X136932650Y-62147745D01*
X137470395Y-61610000D01*
X136932650Y-61072255D01*
X136727820Y-61096977D01*
X136601691Y-61488931D01*
X132885105Y-61488931D01*
X132885179Y-61405029D01*
X132727942Y-61024485D01*
X132437046Y-60733081D01*
X132056777Y-60575180D01*
X131645029Y-60574821D01*
X131264485Y-60732058D01*
X131150056Y-60846288D01*
X131037046Y-60733081D01*
X130656777Y-60575180D01*
X130245029Y-60574821D01*
X129864485Y-60732058D01*
X129750056Y-60846288D01*
X129637046Y-60733081D01*
X129256777Y-60575180D01*
X128845029Y-60574821D01*
X128464485Y-60732058D01*
X128362617Y-60833749D01*
X128304630Y-60775762D01*
X128187745Y-60892647D01*
X128163023Y-60687820D01*
X127771069Y-60561691D01*
X127360682Y-60595158D01*
X127136977Y-60687820D01*
X127112255Y-60892650D01*
X122596337Y-60892650D01*
X122437046Y-60733081D01*
X122056777Y-60575180D01*
X121645029Y-60574821D01*
X121264485Y-60732058D01*
X121150056Y-60846288D01*
X121037046Y-60733081D01*
X120656777Y-60575180D01*
X120245029Y-60574821D01*
X119864485Y-60732058D01*
X119750056Y-60846288D01*
X119637046Y-60733081D01*
X119256777Y-60575180D01*
X118845029Y-60574821D01*
X118464485Y-60732058D01*
X118362617Y-60833749D01*
X118304630Y-60775762D01*
X118187745Y-60892647D01*
X118163023Y-60687820D01*
X117771069Y-60561691D01*
X117360682Y-60595158D01*
X117136977Y-60687820D01*
X117112255Y-60892650D01*
X112596337Y-60892650D01*
X112437046Y-60733081D01*
X112056777Y-60575180D01*
X111645029Y-60574821D01*
X111264485Y-60732058D01*
X111150056Y-60846288D01*
X111037046Y-60733081D01*
X110656777Y-60575180D01*
X110245029Y-60574821D01*
X109864485Y-60732058D01*
X109750056Y-60846288D01*
X109637046Y-60733081D01*
X109256777Y-60575180D01*
X108845029Y-60574821D01*
X108464485Y-60732058D01*
X108362617Y-60833749D01*
X108304630Y-60775762D01*
X108187745Y-60892647D01*
X108163023Y-60687820D01*
X107771069Y-60561691D01*
X107360682Y-60595158D01*
X107136977Y-60687820D01*
X107112255Y-60892650D01*
X105127000Y-60892650D01*
X105127000Y-58377000D01*
X105920000Y-58377000D01*
X105920000Y-58467002D01*
M02*
