G04 #@! TF.FileFunction,Other,User*
%FSLAX46Y46*%
G04 Gerber Fmt 4.6, Leading zero omitted, Abs format (unit mm)*
G04 Created by KiCad (PCBNEW 4.0.1-stable) date 17.05.2016 13:35:18*
%MOMM*%
G01*
G04 APERTURE LIST*
%ADD10C,0.100000*%
%ADD11C,0.050000*%
G04 APERTURE END LIST*
D10*
D11*
X112700000Y-79500000D02*
X117300000Y-79500000D01*
X112700000Y-81500000D02*
X117300000Y-81500000D01*
X112700000Y-79500000D02*
X112700000Y-81500000D01*
X117300000Y-79500000D02*
X117300000Y-81500000D01*
X100813575Y-63079999D02*
X100813575Y-58479999D01*
X102813575Y-63079999D02*
X102813575Y-58479999D01*
X100813575Y-63079999D02*
X102813575Y-63079999D01*
X100813575Y-58479999D02*
X102813575Y-58479999D01*
X103313575Y-63079999D02*
X103313575Y-58479999D01*
X105313575Y-63079999D02*
X105313575Y-58479999D01*
X103313575Y-63079999D02*
X105313575Y-63079999D01*
X103313575Y-58479999D02*
X105313575Y-58479999D01*
X142274769Y-93950000D02*
X151750000Y-103425231D01*
X151750000Y-84474769D02*
X161225231Y-93950000D01*
X142274769Y-93950000D02*
X151750000Y-84474769D01*
X151750000Y-103425231D02*
X161225231Y-93950000D01*
X161200000Y-91250000D02*
X164800000Y-91250000D01*
X161200000Y-93250000D02*
X164800000Y-93250000D01*
X161200000Y-91250000D02*
X161200000Y-93250000D01*
X164800000Y-91250000D02*
X164800000Y-93250000D01*
X144350000Y-64000000D02*
X147550000Y-64000000D01*
X144350000Y-66000000D02*
X147550000Y-66000000D01*
X144350000Y-64000000D02*
X144350000Y-66000000D01*
X147550000Y-64000000D02*
X147550000Y-66000000D01*
X121000000Y-53200000D02*
X121000000Y-57800000D01*
X119000000Y-53200000D02*
X119000000Y-57800000D01*
X121000000Y-53200000D02*
X119000000Y-53200000D01*
X121000000Y-57800000D02*
X119000000Y-57800000D01*
X141000000Y-53200000D02*
X141000000Y-57800000D01*
X139000000Y-53200000D02*
X139000000Y-57800000D01*
X141000000Y-53200000D02*
X139000000Y-53200000D01*
X141000000Y-57800000D02*
X139000000Y-57800000D01*
X131000000Y-53200000D02*
X131000000Y-57800000D01*
X129000000Y-53200000D02*
X129000000Y-57800000D01*
X131000000Y-53200000D02*
X129000000Y-53200000D01*
X131000000Y-57800000D02*
X129000000Y-57800000D01*
X151000000Y-53200000D02*
X151000000Y-57800000D01*
X149000000Y-53200000D02*
X149000000Y-57800000D01*
X151000000Y-53200000D02*
X149000000Y-53200000D01*
X151000000Y-57800000D02*
X149000000Y-57800000D01*
X161000000Y-53200000D02*
X161000000Y-57800000D01*
X159000000Y-53200000D02*
X159000000Y-57800000D01*
X161000000Y-53200000D02*
X159000000Y-53200000D01*
X161000000Y-57800000D02*
X159000000Y-57800000D01*
X118050000Y-91000000D02*
X113450000Y-91000000D01*
X118050000Y-89000000D02*
X113450000Y-89000000D01*
X118050000Y-91000000D02*
X118050000Y-89000000D01*
X113450000Y-91000000D02*
X113450000Y-89000000D01*
X120000000Y-91450000D02*
X120000000Y-96050000D01*
X118000000Y-91450000D02*
X118000000Y-96050000D01*
X120000000Y-91450000D02*
X118000000Y-91450000D01*
X120000000Y-96050000D02*
X118000000Y-96050000D01*
X131950000Y-69750000D02*
X136550000Y-69750000D01*
X131950000Y-71750000D02*
X136550000Y-71750000D01*
X131950000Y-69750000D02*
X131950000Y-71750000D01*
X136550000Y-69750000D02*
X136550000Y-71750000D01*
X136550000Y-75500000D02*
X131950000Y-75500000D01*
X136550000Y-73500000D02*
X131950000Y-73500000D01*
X136550000Y-75500000D02*
X136550000Y-73500000D01*
X131950000Y-75500000D02*
X131950000Y-73500000D01*
X104751060Y-66600000D02*
X114551060Y-66600000D01*
X114551060Y-66600000D02*
X114551060Y-73900000D01*
X114551060Y-73900000D02*
X104751060Y-73900000D01*
X104751060Y-73900000D02*
X104751060Y-66600000D01*
X135750000Y-89750000D02*
X135750000Y-84950000D01*
X137750000Y-89750000D02*
X137750000Y-84950000D01*
X135750000Y-89750000D02*
X137750000Y-89750000D01*
X135750000Y-84950000D02*
X137750000Y-84950000D01*
X127750000Y-89800000D02*
X127750000Y-85000000D01*
X129750000Y-89800000D02*
X129750000Y-85000000D01*
X127750000Y-89800000D02*
X129750000Y-89800000D01*
X127750000Y-85000000D02*
X129750000Y-85000000D01*
X123250000Y-89750000D02*
X123250000Y-84950000D01*
X125250000Y-89750000D02*
X125250000Y-84950000D01*
X123250000Y-89750000D02*
X125250000Y-89750000D01*
X123250000Y-84950000D02*
X125250000Y-84950000D01*
X117400000Y-79250000D02*
X112600000Y-79250000D01*
X117400000Y-77250000D02*
X112600000Y-77250000D01*
X117400000Y-79250000D02*
X117400000Y-77250000D01*
X112600000Y-79250000D02*
X112600000Y-77250000D01*
X130500000Y-70500000D02*
X119500000Y-70500000D01*
X130500000Y-80000000D02*
X119500000Y-80000000D01*
X130500000Y-70500000D02*
X130500000Y-80000000D01*
X119500000Y-70500000D02*
X119500000Y-80000000D01*
X111000000Y-53200000D02*
X111000000Y-57800000D01*
X109000000Y-53200000D02*
X109000000Y-57800000D01*
X111000000Y-53200000D02*
X109000000Y-53200000D01*
X111000000Y-57800000D02*
X109000000Y-57800000D01*
X102250000Y-80500000D02*
X102250000Y-85300000D01*
X100250000Y-80500000D02*
X100250000Y-85300000D01*
X102250000Y-80500000D02*
X100250000Y-80500000D01*
X102250000Y-85300000D02*
X100250000Y-85300000D01*
X133250000Y-89750000D02*
X133250000Y-84950000D01*
X135250000Y-89750000D02*
X135250000Y-84950000D01*
X133250000Y-89750000D02*
X135250000Y-89750000D01*
X133250000Y-84950000D02*
X135250000Y-84950000D01*
X131000000Y-89750000D02*
X131000000Y-84950000D01*
X133000000Y-89750000D02*
X133000000Y-84950000D01*
X131000000Y-89750000D02*
X133000000Y-89750000D01*
X131000000Y-84950000D02*
X133000000Y-84950000D01*
X99250000Y-80500000D02*
X99250000Y-85300000D01*
X97250000Y-80500000D02*
X97250000Y-85300000D01*
X99250000Y-80500000D02*
X97250000Y-80500000D01*
X99250000Y-85300000D02*
X97250000Y-85300000D01*
X125500000Y-89750000D02*
X125500000Y-84950000D01*
X127500000Y-89750000D02*
X127500000Y-84950000D01*
X125500000Y-89750000D02*
X127500000Y-89750000D01*
X125500000Y-84950000D02*
X127500000Y-84950000D01*
X150500000Y-62950000D02*
X150500000Y-66550000D01*
X148500000Y-62950000D02*
X148500000Y-66550000D01*
X150500000Y-62950000D02*
X148500000Y-62950000D01*
X150500000Y-66550000D02*
X148500000Y-66550000D01*
X156250000Y-71700000D02*
X156250000Y-75300000D01*
X154250000Y-71700000D02*
X154250000Y-75300000D01*
X156250000Y-71700000D02*
X154250000Y-71700000D01*
X156250000Y-75300000D02*
X154250000Y-75300000D01*
X148750000Y-70950000D02*
X148750000Y-74550000D01*
X146750000Y-70950000D02*
X146750000Y-74550000D01*
X148750000Y-70950000D02*
X146750000Y-70950000D01*
X148750000Y-74550000D02*
X146750000Y-74550000D01*
X158500000Y-88050000D02*
X158500000Y-84450000D01*
X160500000Y-88050000D02*
X160500000Y-84450000D01*
X158500000Y-88050000D02*
X160500000Y-88050000D01*
X158500000Y-84450000D02*
X160500000Y-84450000D01*
X158250000Y-62950000D02*
X158250000Y-66550000D01*
X156250000Y-62950000D02*
X156250000Y-66550000D01*
X158250000Y-62950000D02*
X156250000Y-62950000D01*
X158250000Y-66550000D02*
X156250000Y-66550000D01*
X164750000Y-71450000D02*
X164750000Y-75050000D01*
X162750000Y-71450000D02*
X162750000Y-75050000D01*
X164750000Y-71450000D02*
X162750000Y-71450000D01*
X164750000Y-75050000D02*
X162750000Y-75050000D01*
X166500000Y-63200000D02*
X166500000Y-66800000D01*
X164500000Y-63200000D02*
X164500000Y-66800000D01*
X166500000Y-63200000D02*
X164500000Y-63200000D01*
X166500000Y-66800000D02*
X164500000Y-66800000D01*
X150500000Y-66850000D02*
X150500000Y-70050000D01*
X148500000Y-66850000D02*
X148500000Y-70050000D01*
X150500000Y-66850000D02*
X148500000Y-66850000D01*
X150500000Y-70050000D02*
X148500000Y-70050000D01*
X146500000Y-71100000D02*
X146500000Y-74300000D01*
X144500000Y-71100000D02*
X144500000Y-74300000D01*
X146500000Y-71100000D02*
X144500000Y-71100000D01*
X146500000Y-74300000D02*
X144500000Y-74300000D01*
X145502513Y-101666727D02*
X143239771Y-99403985D01*
X146916727Y-100252513D02*
X144653985Y-97989771D01*
X145502513Y-101666727D02*
X146916727Y-100252513D01*
X143239771Y-99403985D02*
X144653985Y-97989771D01*
X154000000Y-71850000D02*
X154000000Y-75050000D01*
X152000000Y-71850000D02*
X152000000Y-75050000D01*
X154000000Y-71850000D02*
X152000000Y-71850000D01*
X154000000Y-75050000D02*
X152000000Y-75050000D01*
X158250000Y-66850000D02*
X158250000Y-70050000D01*
X156250000Y-66850000D02*
X156250000Y-70050000D01*
X158250000Y-66850000D02*
X156250000Y-66850000D01*
X158250000Y-70050000D02*
X156250000Y-70050000D01*
X151950000Y-64000000D02*
X155150000Y-64000000D01*
X151950000Y-66000000D02*
X155150000Y-66000000D01*
X151950000Y-64000000D02*
X151950000Y-66000000D01*
X155150000Y-64000000D02*
X155150000Y-66000000D01*
X162000000Y-71700000D02*
X162000000Y-74900000D01*
X160000000Y-71700000D02*
X160000000Y-74900000D01*
X162000000Y-71700000D02*
X160000000Y-71700000D01*
X162000000Y-74900000D02*
X160000000Y-74900000D01*
X166500000Y-67100000D02*
X166500000Y-70300000D01*
X164500000Y-67100000D02*
X164500000Y-70300000D01*
X166500000Y-67100000D02*
X164500000Y-67100000D01*
X166500000Y-70300000D02*
X164500000Y-70300000D01*
X160200000Y-64000000D02*
X163400000Y-64000000D01*
X160200000Y-66000000D02*
X163400000Y-66000000D01*
X160200000Y-64000000D02*
X160200000Y-66000000D01*
X163400000Y-64000000D02*
X163400000Y-66000000D01*
X144350000Y-70200000D02*
X144350000Y-66600000D01*
X144350000Y-66600000D02*
X147550000Y-66600000D01*
X147550000Y-66600000D02*
X147550000Y-70200000D01*
X147550000Y-70200000D02*
X144350000Y-70200000D01*
X151950000Y-70150000D02*
X151950000Y-66550000D01*
X151950000Y-66550000D02*
X155150000Y-66550000D01*
X155150000Y-66550000D02*
X155150000Y-70150000D01*
X155150000Y-70150000D02*
X151950000Y-70150000D01*
X160200000Y-70150000D02*
X160200000Y-66550000D01*
X160200000Y-66550000D02*
X163400000Y-66550000D01*
X163400000Y-66550000D02*
X163400000Y-70150000D01*
X163400000Y-70150000D02*
X160200000Y-70150000D01*
X103750000Y-49919860D02*
X103750000Y-54919860D01*
X103750000Y-54919860D02*
X106250000Y-54919860D01*
X106250000Y-54919860D02*
X106250000Y-49919860D01*
X106250000Y-49919860D02*
X103750000Y-49919860D01*
X116250000Y-54580140D02*
X116250000Y-49580140D01*
X116250000Y-49580140D02*
X113750000Y-49580140D01*
X113750000Y-49580140D02*
X113750000Y-54580140D01*
X113750000Y-54580140D02*
X116250000Y-54580140D01*
X123750000Y-49919860D02*
X123750000Y-54919860D01*
X123750000Y-54919860D02*
X126250000Y-54919860D01*
X126250000Y-54919860D02*
X126250000Y-49919860D01*
X126250000Y-49919860D02*
X123750000Y-49919860D01*
X136210000Y-54379860D02*
X136210000Y-49379860D01*
X136210000Y-49379860D02*
X133710000Y-49379860D01*
X133710000Y-49379860D02*
X133710000Y-54379860D01*
X133710000Y-54379860D02*
X136210000Y-54379860D01*
X97250000Y-58330140D02*
X97250000Y-63330140D01*
X97250000Y-63330140D02*
X99750000Y-63330140D01*
X99750000Y-63330140D02*
X99750000Y-58330140D01*
X99750000Y-58330140D02*
X97250000Y-58330140D01*
X165000000Y-90500000D02*
X161000000Y-90500000D01*
X165000000Y-83500000D02*
X165000000Y-90500000D01*
X161000000Y-83500000D02*
X165000000Y-83500000D01*
X161000000Y-90500000D02*
X161000000Y-83500000D01*
X131250000Y-109200000D02*
X131250000Y-113800000D01*
X129250000Y-109200000D02*
X129250000Y-113800000D01*
X131250000Y-109200000D02*
X129250000Y-109200000D01*
X131250000Y-113800000D02*
X129250000Y-113800000D01*
X129250000Y-108000000D02*
X129250000Y-103200000D01*
X131250000Y-108000000D02*
X131250000Y-103200000D01*
X129250000Y-108000000D02*
X131250000Y-108000000D01*
X129250000Y-103200000D02*
X131250000Y-103200000D01*
X117300000Y-76500000D02*
X112700000Y-76500000D01*
X117300000Y-74500000D02*
X112700000Y-74500000D01*
X117300000Y-76500000D02*
X117300000Y-74500000D01*
X112700000Y-76500000D02*
X112700000Y-74500000D01*
M02*
