G04 #@! TF.FileFunction,Other,User*
%FSLAX46Y46*%
G04 Gerber Fmt 4.6, Leading zero omitted, Abs format (unit mm)*
G04 Created by KiCad (PCBNEW 4.0.1-stable) date 17.05.2016 13:35:18*
%MOMM*%
G01*
G04 APERTURE LIST*
%ADD10C,0.100000*%
%ADD11C,0.050000*%
G04 APERTURE END LIST*
D10*
D11*
X164050000Y-74950000D02*
X164050000Y-71350000D01*
X164050000Y-71350000D02*
X160850000Y-71350000D01*
X160850000Y-71350000D02*
X160850000Y-74950000D01*
X160850000Y-74950000D02*
X164050000Y-74950000D01*
X94498980Y-89150000D02*
X112048980Y-89150000D01*
X112048980Y-89150000D02*
X112048980Y-73900000D01*
X112048980Y-73900000D02*
X94498980Y-73900000D01*
X94498980Y-73900000D02*
X94498980Y-89150000D01*
X133400000Y-62710000D02*
X133400000Y-49030000D01*
X133400000Y-62710000D02*
X126400000Y-62710000D01*
X126400000Y-49030000D02*
X126400000Y-62710000D01*
X126400000Y-49030000D02*
X133400000Y-49030000D01*
X153400000Y-62710000D02*
X153400000Y-49030000D01*
X153400000Y-62710000D02*
X146400000Y-62710000D01*
X146400000Y-49030000D02*
X146400000Y-62710000D01*
X146400000Y-49030000D02*
X153400000Y-49030000D01*
X163400000Y-62710000D02*
X163400000Y-49030000D01*
X163400000Y-62710000D02*
X156400000Y-62710000D01*
X156400000Y-49030000D02*
X156400000Y-62710000D01*
X156400000Y-49030000D02*
X163400000Y-49030000D01*
X143400000Y-62710000D02*
X143400000Y-49030000D01*
X143400000Y-62710000D02*
X136400000Y-62710000D01*
X136400000Y-49030000D02*
X136400000Y-62710000D01*
X136400000Y-49030000D02*
X143400000Y-49030000D01*
X123400000Y-62710000D02*
X123400000Y-49030000D01*
X123400000Y-62710000D02*
X116400000Y-62710000D01*
X116400000Y-49030000D02*
X116400000Y-62710000D01*
X116400000Y-49030000D02*
X123400000Y-49030000D01*
X113400000Y-62710000D02*
X113400000Y-49030000D01*
X113400000Y-62710000D02*
X106400000Y-62710000D01*
X106400000Y-49030000D02*
X106400000Y-62710000D01*
X106400000Y-49030000D02*
X113400000Y-49030000D01*
X105250000Y-91450000D02*
X105250000Y-94550000D01*
X105248249Y-91446840D02*
G75*
G03X105250000Y-94550000I-2798249J-1553160D01*
G01*
X151000000Y-74700000D02*
X151000000Y-78300000D01*
X153000000Y-74700000D02*
X153000000Y-78300000D01*
X151000000Y-74700000D02*
X153000000Y-74700000D01*
X151000000Y-78300000D02*
X153000000Y-78300000D01*
X151200000Y-101250000D02*
X154800000Y-101250000D01*
X151200000Y-99250000D02*
X154800000Y-99250000D01*
X151200000Y-101250000D02*
X151200000Y-99250000D01*
X154800000Y-101250000D02*
X154800000Y-99250000D01*
X143700000Y-85000000D02*
X147300000Y-85000000D01*
X143700000Y-83000000D02*
X147300000Y-83000000D01*
X143700000Y-85000000D02*
X143700000Y-83000000D01*
X147300000Y-85000000D02*
X147300000Y-83000000D01*
X151000000Y-66450000D02*
X151000000Y-70050000D01*
X153000000Y-66450000D02*
X153000000Y-70050000D01*
X151000000Y-66450000D02*
X153000000Y-66450000D01*
X151000000Y-70050000D02*
X153000000Y-70050000D01*
X158000000Y-75950000D02*
X158000000Y-79550000D01*
X160000000Y-75950000D02*
X160000000Y-79550000D01*
X158000000Y-75950000D02*
X160000000Y-75950000D01*
X158000000Y-79550000D02*
X160000000Y-79550000D01*
X143750000Y-73450000D02*
X143750000Y-77050000D01*
X145750000Y-73450000D02*
X145750000Y-77050000D01*
X143750000Y-73450000D02*
X145750000Y-73450000D01*
X143750000Y-77050000D02*
X145750000Y-77050000D01*
X158000000Y-67700000D02*
X158000000Y-71300000D01*
X160000000Y-67700000D02*
X160000000Y-71300000D01*
X158000000Y-67700000D02*
X160000000Y-67700000D01*
X158000000Y-71300000D02*
X160000000Y-71300000D01*
X143750000Y-65200000D02*
X143750000Y-68800000D01*
X145750000Y-65200000D02*
X145750000Y-68800000D01*
X143750000Y-65200000D02*
X145750000Y-65200000D01*
X143750000Y-68800000D02*
X145750000Y-68800000D01*
X143950000Y-82750000D02*
X147150000Y-82750000D01*
X143950000Y-80750000D02*
X147150000Y-80750000D01*
X143950000Y-82750000D02*
X143950000Y-80750000D01*
X147150000Y-82750000D02*
X147150000Y-80750000D01*
X144100000Y-87250000D02*
X147300000Y-87250000D01*
X144100000Y-85250000D02*
X147300000Y-85250000D01*
X144100000Y-87250000D02*
X144100000Y-85250000D01*
X147300000Y-87250000D02*
X147300000Y-85250000D01*
X153500000Y-74950000D02*
X153500000Y-78150000D01*
X155500000Y-74950000D02*
X155500000Y-78150000D01*
X153500000Y-74950000D02*
X155500000Y-74950000D01*
X153500000Y-78150000D02*
X155500000Y-78150000D01*
X151000000Y-70350000D02*
X151000000Y-73550000D01*
X153000000Y-70350000D02*
X153000000Y-73550000D01*
X151000000Y-70350000D02*
X153000000Y-70350000D01*
X151000000Y-73550000D02*
X153000000Y-73550000D01*
X156900000Y-67750000D02*
X153700000Y-67750000D01*
X156900000Y-69750000D02*
X153700000Y-69750000D01*
X156900000Y-67750000D02*
X156900000Y-69750000D01*
X153700000Y-67750000D02*
X153700000Y-69750000D01*
X160500000Y-76100000D02*
X160500000Y-79300000D01*
X162500000Y-76100000D02*
X162500000Y-79300000D01*
X160500000Y-76100000D02*
X162500000Y-76100000D01*
X160500000Y-79300000D02*
X162500000Y-79300000D01*
X146250000Y-73600000D02*
X146250000Y-76800000D01*
X148250000Y-73600000D02*
X148250000Y-76800000D01*
X146250000Y-73600000D02*
X148250000Y-73600000D01*
X146250000Y-76800000D02*
X148250000Y-76800000D01*
X158000000Y-71700000D02*
X158000000Y-74900000D01*
X160000000Y-71700000D02*
X160000000Y-74900000D01*
X158000000Y-71700000D02*
X160000000Y-71700000D01*
X158000000Y-74900000D02*
X160000000Y-74900000D01*
X164050000Y-69000000D02*
X160850000Y-69000000D01*
X164050000Y-71000000D02*
X160850000Y-71000000D01*
X164050000Y-69000000D02*
X164050000Y-71000000D01*
X160850000Y-69000000D02*
X160850000Y-71000000D01*
X143750000Y-69100000D02*
X143750000Y-72300000D01*
X145750000Y-69100000D02*
X145750000Y-72300000D01*
X143750000Y-69100000D02*
X145750000Y-69100000D01*
X143750000Y-72300000D02*
X145750000Y-72300000D01*
X149900000Y-66500000D02*
X146700000Y-66500000D01*
X149900000Y-68500000D02*
X146700000Y-68500000D01*
X149900000Y-66500000D02*
X149900000Y-68500000D01*
X146700000Y-66500000D02*
X146700000Y-68500000D01*
X156900000Y-73700000D02*
X156900000Y-70100000D01*
X156900000Y-70100000D02*
X153700000Y-70100000D01*
X153700000Y-70100000D02*
X153700000Y-73700000D01*
X153700000Y-73700000D02*
X156900000Y-73700000D01*
X149900000Y-72450000D02*
X149900000Y-68850000D01*
X149900000Y-68850000D02*
X146700000Y-68850000D01*
X146700000Y-68850000D02*
X146700000Y-72450000D01*
X146700000Y-72450000D02*
X149900000Y-72450000D01*
X136987000Y-110500000D02*
X160037000Y-110500000D01*
X160037000Y-110500000D02*
X160037000Y-103950000D01*
X160037000Y-103950000D02*
X136987000Y-103950000D01*
X136987000Y-103950000D02*
X136987000Y-110500000D01*
X167250000Y-111250000D02*
X167250000Y-100650000D01*
X167250000Y-100650000D02*
X160700000Y-100650000D01*
X160700000Y-100650000D02*
X160700000Y-111250000D01*
X160700000Y-111250000D02*
X167250000Y-111250000D01*
X107100000Y-108200000D02*
X107100000Y-114800000D01*
X109400000Y-108200000D02*
X109400000Y-114800000D01*
X107100000Y-108200000D02*
X109400000Y-108200000D01*
X107100000Y-114800000D02*
X109400000Y-114800000D01*
X109850000Y-108200000D02*
X109850000Y-114800000D01*
X112150000Y-108200000D02*
X112150000Y-114800000D01*
X109850000Y-108200000D02*
X112150000Y-108200000D01*
X109850000Y-114800000D02*
X112150000Y-114800000D01*
X114950000Y-107500000D02*
X119550000Y-107500000D01*
X114950000Y-105500000D02*
X119550000Y-105500000D01*
X114950000Y-107500000D02*
X114950000Y-105500000D01*
X119550000Y-107500000D02*
X119550000Y-105500000D01*
X124299280Y-97600000D02*
X110499280Y-97600000D01*
X110499280Y-97600000D02*
X110499280Y-104900000D01*
X110499280Y-104900000D02*
X124299280Y-104900000D01*
X124299280Y-104900000D02*
X124299280Y-97600000D01*
X128250000Y-113800000D02*
X128250000Y-109000000D01*
X126250000Y-113800000D02*
X126250000Y-109000000D01*
X128250000Y-113800000D02*
X126250000Y-113800000D01*
X128250000Y-109000000D02*
X126250000Y-109000000D01*
X122750000Y-109000000D02*
X122750000Y-113800000D01*
X124750000Y-109000000D02*
X124750000Y-113800000D01*
X122750000Y-109000000D02*
X124750000Y-109000000D01*
X122750000Y-113800000D02*
X124750000Y-113800000D01*
X135050000Y-108101200D02*
X135050000Y-97401200D01*
X135050000Y-97401200D02*
X125950000Y-97401200D01*
X125950000Y-97401200D02*
X125950000Y-108101200D01*
X125950000Y-108101200D02*
X135050000Y-108101200D01*
X154500000Y-98300000D02*
X154500000Y-93700000D01*
X152500000Y-98300000D02*
X152500000Y-93700000D01*
X154500000Y-98300000D02*
X152500000Y-98300000D01*
X154500000Y-93700000D02*
X152500000Y-93700000D01*
M02*
