G04 #@! TF.FileFunction,Other,Fab,Bot*
%FSLAX46Y46*%
G04 Gerber Fmt 4.6, Leading zero omitted, Abs format (unit mm)*
G04 Created by KiCad (PCBNEW 4.0.1-stable) date 17.05.2016 13:35:18*
%MOMM*%
G01*
G04 APERTURE LIST*
%ADD10C,0.100000*%
%ADD11C,0.150000*%
G04 APERTURE END LIST*
D10*
D11*
X97074762Y-102090571D02*
X96931905Y-102138190D01*
X96884286Y-102185810D01*
X96836667Y-102281048D01*
X96836667Y-102423905D01*
X96884286Y-102519143D01*
X96931905Y-102566762D01*
X97027143Y-102614381D01*
X97408096Y-102614381D01*
X97408096Y-101614381D01*
X97074762Y-101614381D01*
X96979524Y-101662000D01*
X96931905Y-101709619D01*
X96884286Y-101804857D01*
X96884286Y-101900095D01*
X96931905Y-101995333D01*
X96979524Y-102042952D01*
X97074762Y-102090571D01*
X97408096Y-102090571D01*
X96455715Y-102328667D02*
X95979524Y-102328667D01*
X96550953Y-102614381D02*
X96217620Y-101614381D01*
X95884286Y-102614381D01*
X94979524Y-102614381D02*
X95312858Y-102138190D01*
X95550953Y-102614381D02*
X95550953Y-101614381D01*
X95170000Y-101614381D01*
X95074762Y-101662000D01*
X95027143Y-101709619D01*
X94979524Y-101804857D01*
X94979524Y-101947714D01*
X95027143Y-102042952D01*
X95074762Y-102090571D01*
X95170000Y-102138190D01*
X95550953Y-102138190D01*
X93979524Y-102614381D02*
X94312858Y-102138190D01*
X94550953Y-102614381D02*
X94550953Y-101614381D01*
X94170000Y-101614381D01*
X94074762Y-101662000D01*
X94027143Y-101709619D01*
X93979524Y-101804857D01*
X93979524Y-101947714D01*
X94027143Y-102042952D01*
X94074762Y-102090571D01*
X94170000Y-102138190D01*
X94550953Y-102138190D01*
X93550953Y-102090571D02*
X93217619Y-102090571D01*
X93074762Y-102614381D02*
X93550953Y-102614381D01*
X93550953Y-101614381D01*
X93074762Y-101614381D01*
X92170000Y-102614381D02*
X92646191Y-102614381D01*
X92646191Y-101614381D01*
X92074762Y-102709619D02*
X91312857Y-102709619D01*
X90789047Y-101614381D02*
X90789047Y-102328667D01*
X90836667Y-102471524D01*
X90931905Y-102566762D01*
X91074762Y-102614381D01*
X91170000Y-102614381D01*
X90360476Y-102328667D02*
X89884285Y-102328667D01*
X90455714Y-102614381D02*
X90122381Y-101614381D01*
X89789047Y-102614381D01*
X88884285Y-102519143D02*
X88931904Y-102566762D01*
X89074761Y-102614381D01*
X89169999Y-102614381D01*
X89312857Y-102566762D01*
X89408095Y-102471524D01*
X89455714Y-102376286D01*
X89503333Y-102185810D01*
X89503333Y-102042952D01*
X89455714Y-101852476D01*
X89408095Y-101757238D01*
X89312857Y-101662000D01*
X89169999Y-101614381D01*
X89074761Y-101614381D01*
X88931904Y-101662000D01*
X88884285Y-101709619D01*
X88455714Y-102614381D02*
X88455714Y-101614381D01*
X87884285Y-102614381D02*
X88312857Y-102042952D01*
X87884285Y-101614381D02*
X88455714Y-102185810D01*
X162827381Y-71123810D02*
X162827381Y-70647619D01*
X161827381Y-70647619D01*
X161827381Y-71314286D02*
X161827381Y-71885715D01*
X162827381Y-71600000D02*
X161827381Y-71600000D01*
X161827381Y-72647620D02*
X161827381Y-72457143D01*
X161875000Y-72361905D01*
X161922619Y-72314286D01*
X162065476Y-72219048D01*
X162255952Y-72171429D01*
X162636905Y-72171429D01*
X162732143Y-72219048D01*
X162779762Y-72266667D01*
X162827381Y-72361905D01*
X162827381Y-72552382D01*
X162779762Y-72647620D01*
X162732143Y-72695239D01*
X162636905Y-72742858D01*
X162398810Y-72742858D01*
X162303571Y-72695239D01*
X162255952Y-72647620D01*
X162208333Y-72552382D01*
X162208333Y-72361905D01*
X162255952Y-72266667D01*
X162303571Y-72219048D01*
X162398810Y-72171429D01*
X162827381Y-73695239D02*
X162827381Y-73123810D01*
X162827381Y-73409524D02*
X161827381Y-73409524D01*
X161970238Y-73314286D01*
X162065476Y-73219048D01*
X162113095Y-73123810D01*
X161827381Y-74314286D02*
X161827381Y-74409525D01*
X161875000Y-74504763D01*
X161922619Y-74552382D01*
X162017857Y-74600001D01*
X162208333Y-74647620D01*
X162446429Y-74647620D01*
X162636905Y-74600001D01*
X162732143Y-74552382D01*
X162779762Y-74504763D01*
X162827381Y-74409525D01*
X162827381Y-74314286D01*
X162779762Y-74219048D01*
X162732143Y-74171429D01*
X162636905Y-74123810D01*
X162446429Y-74076191D01*
X162208333Y-74076191D01*
X162017857Y-74123810D01*
X161922619Y-74171429D01*
X161875000Y-74219048D01*
X161827381Y-74314286D01*
X161827381Y-75504763D02*
X161827381Y-75314286D01*
X161875000Y-75219048D01*
X161922619Y-75171429D01*
X162065476Y-75076191D01*
X162255952Y-75028572D01*
X162636905Y-75028572D01*
X162732143Y-75076191D01*
X162779762Y-75123810D01*
X162827381Y-75219048D01*
X162827381Y-75409525D01*
X162779762Y-75504763D01*
X162732143Y-75552382D01*
X162636905Y-75600001D01*
X162398810Y-75600001D01*
X162303571Y-75552382D01*
X162255952Y-75504763D01*
X162208333Y-75409525D01*
X162208333Y-75219048D01*
X162255952Y-75123810D01*
X162303571Y-75076191D01*
X162398810Y-75028572D01*
X104502361Y-79377143D02*
X105311885Y-79377143D01*
X105407123Y-79424762D01*
X105454742Y-79472381D01*
X105502361Y-79567619D01*
X105502361Y-79758096D01*
X105454742Y-79853334D01*
X105407123Y-79900953D01*
X105311885Y-79948572D01*
X104502361Y-79948572D01*
X105454742Y-80377143D02*
X105502361Y-80520000D01*
X105502361Y-80758096D01*
X105454742Y-80853334D01*
X105407123Y-80900953D01*
X105311885Y-80948572D01*
X105216647Y-80948572D01*
X105121409Y-80900953D01*
X105073790Y-80853334D01*
X105026170Y-80758096D01*
X104978551Y-80567619D01*
X104930932Y-80472381D01*
X104883313Y-80424762D01*
X104788075Y-80377143D01*
X104692837Y-80377143D01*
X104597599Y-80424762D01*
X104549980Y-80472381D01*
X104502361Y-80567619D01*
X104502361Y-80805715D01*
X104549980Y-80948572D01*
X104978551Y-81710477D02*
X105026170Y-81853334D01*
X105073790Y-81900953D01*
X105169028Y-81948572D01*
X105311885Y-81948572D01*
X105407123Y-81900953D01*
X105454742Y-81853334D01*
X105502361Y-81758096D01*
X105502361Y-81377143D01*
X104502361Y-81377143D01*
X104502361Y-81710477D01*
X104549980Y-81805715D01*
X104597599Y-81853334D01*
X104692837Y-81900953D01*
X104788075Y-81900953D01*
X104883313Y-81853334D01*
X104930932Y-81805715D01*
X104978551Y-81710477D01*
X104978551Y-81377143D01*
X105597599Y-82139048D02*
X105597599Y-82900953D01*
X104978551Y-83472382D02*
X105026170Y-83615239D01*
X105073790Y-83662858D01*
X105169028Y-83710477D01*
X105311885Y-83710477D01*
X105407123Y-83662858D01*
X105454742Y-83615239D01*
X105502361Y-83520001D01*
X105502361Y-83139048D01*
X104502361Y-83139048D01*
X104502361Y-83472382D01*
X104549980Y-83567620D01*
X104597599Y-83615239D01*
X104692837Y-83662858D01*
X104788075Y-83662858D01*
X104883313Y-83615239D01*
X104930932Y-83567620D01*
X104978551Y-83472382D01*
X104978551Y-83139048D01*
X131771429Y-59752381D02*
X131771429Y-60561905D01*
X131723810Y-60657143D01*
X131676191Y-60704762D01*
X131580953Y-60752381D01*
X131390476Y-60752381D01*
X131295238Y-60704762D01*
X131247619Y-60657143D01*
X131200000Y-60561905D01*
X131200000Y-59752381D01*
X130771429Y-60704762D02*
X130628572Y-60752381D01*
X130390476Y-60752381D01*
X130295238Y-60704762D01*
X130247619Y-60657143D01*
X130200000Y-60561905D01*
X130200000Y-60466667D01*
X130247619Y-60371429D01*
X130295238Y-60323810D01*
X130390476Y-60276190D01*
X130580953Y-60228571D01*
X130676191Y-60180952D01*
X130723810Y-60133333D01*
X130771429Y-60038095D01*
X130771429Y-59942857D01*
X130723810Y-59847619D01*
X130676191Y-59800000D01*
X130580953Y-59752381D01*
X130342857Y-59752381D01*
X130200000Y-59800000D01*
X129438095Y-60228571D02*
X129295238Y-60276190D01*
X129247619Y-60323810D01*
X129200000Y-60419048D01*
X129200000Y-60561905D01*
X129247619Y-60657143D01*
X129295238Y-60704762D01*
X129390476Y-60752381D01*
X129771429Y-60752381D01*
X129771429Y-59752381D01*
X129438095Y-59752381D01*
X129342857Y-59800000D01*
X129295238Y-59847619D01*
X129247619Y-59942857D01*
X129247619Y-60038095D01*
X129295238Y-60133333D01*
X129342857Y-60180952D01*
X129438095Y-60228571D01*
X129771429Y-60228571D01*
X129009524Y-60847619D02*
X128247619Y-60847619D01*
X128057143Y-60466667D02*
X127580952Y-60466667D01*
X128152381Y-60752381D02*
X127819048Y-59752381D01*
X127485714Y-60752381D01*
X151771429Y-59752381D02*
X151771429Y-60561905D01*
X151723810Y-60657143D01*
X151676191Y-60704762D01*
X151580953Y-60752381D01*
X151390476Y-60752381D01*
X151295238Y-60704762D01*
X151247619Y-60657143D01*
X151200000Y-60561905D01*
X151200000Y-59752381D01*
X150771429Y-60704762D02*
X150628572Y-60752381D01*
X150390476Y-60752381D01*
X150295238Y-60704762D01*
X150247619Y-60657143D01*
X150200000Y-60561905D01*
X150200000Y-60466667D01*
X150247619Y-60371429D01*
X150295238Y-60323810D01*
X150390476Y-60276190D01*
X150580953Y-60228571D01*
X150676191Y-60180952D01*
X150723810Y-60133333D01*
X150771429Y-60038095D01*
X150771429Y-59942857D01*
X150723810Y-59847619D01*
X150676191Y-59800000D01*
X150580953Y-59752381D01*
X150342857Y-59752381D01*
X150200000Y-59800000D01*
X149438095Y-60228571D02*
X149295238Y-60276190D01*
X149247619Y-60323810D01*
X149200000Y-60419048D01*
X149200000Y-60561905D01*
X149247619Y-60657143D01*
X149295238Y-60704762D01*
X149390476Y-60752381D01*
X149771429Y-60752381D01*
X149771429Y-59752381D01*
X149438095Y-59752381D01*
X149342857Y-59800000D01*
X149295238Y-59847619D01*
X149247619Y-59942857D01*
X149247619Y-60038095D01*
X149295238Y-60133333D01*
X149342857Y-60180952D01*
X149438095Y-60228571D01*
X149771429Y-60228571D01*
X149009524Y-60847619D02*
X148247619Y-60847619D01*
X148057143Y-60466667D02*
X147580952Y-60466667D01*
X148152381Y-60752381D02*
X147819048Y-59752381D01*
X147485714Y-60752381D01*
X161771429Y-59752381D02*
X161771429Y-60561905D01*
X161723810Y-60657143D01*
X161676191Y-60704762D01*
X161580953Y-60752381D01*
X161390476Y-60752381D01*
X161295238Y-60704762D01*
X161247619Y-60657143D01*
X161200000Y-60561905D01*
X161200000Y-59752381D01*
X160771429Y-60704762D02*
X160628572Y-60752381D01*
X160390476Y-60752381D01*
X160295238Y-60704762D01*
X160247619Y-60657143D01*
X160200000Y-60561905D01*
X160200000Y-60466667D01*
X160247619Y-60371429D01*
X160295238Y-60323810D01*
X160390476Y-60276190D01*
X160580953Y-60228571D01*
X160676191Y-60180952D01*
X160723810Y-60133333D01*
X160771429Y-60038095D01*
X160771429Y-59942857D01*
X160723810Y-59847619D01*
X160676191Y-59800000D01*
X160580953Y-59752381D01*
X160342857Y-59752381D01*
X160200000Y-59800000D01*
X159438095Y-60228571D02*
X159295238Y-60276190D01*
X159247619Y-60323810D01*
X159200000Y-60419048D01*
X159200000Y-60561905D01*
X159247619Y-60657143D01*
X159295238Y-60704762D01*
X159390476Y-60752381D01*
X159771429Y-60752381D01*
X159771429Y-59752381D01*
X159438095Y-59752381D01*
X159342857Y-59800000D01*
X159295238Y-59847619D01*
X159247619Y-59942857D01*
X159247619Y-60038095D01*
X159295238Y-60133333D01*
X159342857Y-60180952D01*
X159438095Y-60228571D01*
X159771429Y-60228571D01*
X159009524Y-60847619D02*
X158247619Y-60847619D01*
X158057143Y-60466667D02*
X157580952Y-60466667D01*
X158152381Y-60752381D02*
X157819048Y-59752381D01*
X157485714Y-60752381D01*
X141771429Y-59752381D02*
X141771429Y-60561905D01*
X141723810Y-60657143D01*
X141676191Y-60704762D01*
X141580953Y-60752381D01*
X141390476Y-60752381D01*
X141295238Y-60704762D01*
X141247619Y-60657143D01*
X141200000Y-60561905D01*
X141200000Y-59752381D01*
X140771429Y-60704762D02*
X140628572Y-60752381D01*
X140390476Y-60752381D01*
X140295238Y-60704762D01*
X140247619Y-60657143D01*
X140200000Y-60561905D01*
X140200000Y-60466667D01*
X140247619Y-60371429D01*
X140295238Y-60323810D01*
X140390476Y-60276190D01*
X140580953Y-60228571D01*
X140676191Y-60180952D01*
X140723810Y-60133333D01*
X140771429Y-60038095D01*
X140771429Y-59942857D01*
X140723810Y-59847619D01*
X140676191Y-59800000D01*
X140580953Y-59752381D01*
X140342857Y-59752381D01*
X140200000Y-59800000D01*
X139438095Y-60228571D02*
X139295238Y-60276190D01*
X139247619Y-60323810D01*
X139200000Y-60419048D01*
X139200000Y-60561905D01*
X139247619Y-60657143D01*
X139295238Y-60704762D01*
X139390476Y-60752381D01*
X139771429Y-60752381D01*
X139771429Y-59752381D01*
X139438095Y-59752381D01*
X139342857Y-59800000D01*
X139295238Y-59847619D01*
X139247619Y-59942857D01*
X139247619Y-60038095D01*
X139295238Y-60133333D01*
X139342857Y-60180952D01*
X139438095Y-60228571D01*
X139771429Y-60228571D01*
X139009524Y-60847619D02*
X138247619Y-60847619D01*
X138057143Y-60466667D02*
X137580952Y-60466667D01*
X138152381Y-60752381D02*
X137819048Y-59752381D01*
X137485714Y-60752381D01*
X121771429Y-59752381D02*
X121771429Y-60561905D01*
X121723810Y-60657143D01*
X121676191Y-60704762D01*
X121580953Y-60752381D01*
X121390476Y-60752381D01*
X121295238Y-60704762D01*
X121247619Y-60657143D01*
X121200000Y-60561905D01*
X121200000Y-59752381D01*
X120771429Y-60704762D02*
X120628572Y-60752381D01*
X120390476Y-60752381D01*
X120295238Y-60704762D01*
X120247619Y-60657143D01*
X120200000Y-60561905D01*
X120200000Y-60466667D01*
X120247619Y-60371429D01*
X120295238Y-60323810D01*
X120390476Y-60276190D01*
X120580953Y-60228571D01*
X120676191Y-60180952D01*
X120723810Y-60133333D01*
X120771429Y-60038095D01*
X120771429Y-59942857D01*
X120723810Y-59847619D01*
X120676191Y-59800000D01*
X120580953Y-59752381D01*
X120342857Y-59752381D01*
X120200000Y-59800000D01*
X119438095Y-60228571D02*
X119295238Y-60276190D01*
X119247619Y-60323810D01*
X119200000Y-60419048D01*
X119200000Y-60561905D01*
X119247619Y-60657143D01*
X119295238Y-60704762D01*
X119390476Y-60752381D01*
X119771429Y-60752381D01*
X119771429Y-59752381D01*
X119438095Y-59752381D01*
X119342857Y-59800000D01*
X119295238Y-59847619D01*
X119247619Y-59942857D01*
X119247619Y-60038095D01*
X119295238Y-60133333D01*
X119342857Y-60180952D01*
X119438095Y-60228571D01*
X119771429Y-60228571D01*
X119009524Y-60847619D02*
X118247619Y-60847619D01*
X118057143Y-60466667D02*
X117580952Y-60466667D01*
X118152381Y-60752381D02*
X117819048Y-59752381D01*
X117485714Y-60752381D01*
X111771429Y-59752381D02*
X111771429Y-60561905D01*
X111723810Y-60657143D01*
X111676191Y-60704762D01*
X111580953Y-60752381D01*
X111390476Y-60752381D01*
X111295238Y-60704762D01*
X111247619Y-60657143D01*
X111200000Y-60561905D01*
X111200000Y-59752381D01*
X110771429Y-60704762D02*
X110628572Y-60752381D01*
X110390476Y-60752381D01*
X110295238Y-60704762D01*
X110247619Y-60657143D01*
X110200000Y-60561905D01*
X110200000Y-60466667D01*
X110247619Y-60371429D01*
X110295238Y-60323810D01*
X110390476Y-60276190D01*
X110580953Y-60228571D01*
X110676191Y-60180952D01*
X110723810Y-60133333D01*
X110771429Y-60038095D01*
X110771429Y-59942857D01*
X110723810Y-59847619D01*
X110676191Y-59800000D01*
X110580953Y-59752381D01*
X110342857Y-59752381D01*
X110200000Y-59800000D01*
X109438095Y-60228571D02*
X109295238Y-60276190D01*
X109247619Y-60323810D01*
X109200000Y-60419048D01*
X109200000Y-60561905D01*
X109247619Y-60657143D01*
X109295238Y-60704762D01*
X109390476Y-60752381D01*
X109771429Y-60752381D01*
X109771429Y-59752381D01*
X109438095Y-59752381D01*
X109342857Y-59800000D01*
X109295238Y-59847619D01*
X109247619Y-59942857D01*
X109247619Y-60038095D01*
X109295238Y-60133333D01*
X109342857Y-60180952D01*
X109438095Y-60228571D01*
X109771429Y-60228571D01*
X109009524Y-60847619D02*
X108247619Y-60847619D01*
X108057143Y-60466667D02*
X107580952Y-60466667D01*
X108152381Y-60752381D02*
X107819048Y-59752381D01*
X107485714Y-60752381D01*
X104202191Y-89515381D02*
X104202191Y-88515381D01*
X103821238Y-88515381D01*
X103726000Y-88563000D01*
X103678381Y-88610619D01*
X103630762Y-88705857D01*
X103630762Y-88848714D01*
X103678381Y-88943952D01*
X103726000Y-88991571D01*
X103821238Y-89039190D01*
X104202191Y-89039190D01*
X103059334Y-89515381D02*
X103154572Y-89467762D01*
X103202191Y-89420143D01*
X103249810Y-89324905D01*
X103249810Y-89039190D01*
X103202191Y-88943952D01*
X103154572Y-88896333D01*
X103059334Y-88848714D01*
X102916476Y-88848714D01*
X102821238Y-88896333D01*
X102773619Y-88943952D01*
X102726000Y-89039190D01*
X102726000Y-89324905D01*
X102773619Y-89420143D01*
X102821238Y-89467762D01*
X102916476Y-89515381D01*
X103059334Y-89515381D01*
X102392667Y-88848714D02*
X102202191Y-89515381D01*
X102011714Y-89039190D01*
X101821238Y-89515381D01*
X101630762Y-88848714D01*
X100868857Y-89467762D02*
X100964095Y-89515381D01*
X101154572Y-89515381D01*
X101249810Y-89467762D01*
X101297429Y-89372524D01*
X101297429Y-88991571D01*
X101249810Y-88896333D01*
X101154572Y-88848714D01*
X100964095Y-88848714D01*
X100868857Y-88896333D01*
X100821238Y-88991571D01*
X100821238Y-89086810D01*
X101297429Y-89182048D01*
X100392667Y-89515381D02*
X100392667Y-88848714D01*
X100392667Y-89039190D02*
X100345048Y-88943952D01*
X100297429Y-88896333D01*
X100202191Y-88848714D01*
X100106952Y-88848714D01*
X152527381Y-76308334D02*
X152527381Y-75736905D01*
X152527381Y-76022619D02*
X151527381Y-76022619D01*
X151670238Y-75927381D01*
X151765476Y-75832143D01*
X151813095Y-75736905D01*
X151860714Y-76736905D02*
X152527381Y-76736905D01*
X151955952Y-76736905D02*
X151908333Y-76784524D01*
X151860714Y-76879762D01*
X151860714Y-77022620D01*
X151908333Y-77117858D01*
X152003571Y-77165477D01*
X152527381Y-77165477D01*
X153994047Y-100677381D02*
X154565476Y-100677381D01*
X154279762Y-100677381D02*
X154279762Y-99677381D01*
X154375000Y-99820238D01*
X154470238Y-99915476D01*
X154565476Y-99963095D01*
X153375000Y-99677381D02*
X153279761Y-99677381D01*
X153184523Y-99725000D01*
X153136904Y-99772619D01*
X153089285Y-99867857D01*
X153041666Y-100058333D01*
X153041666Y-100296429D01*
X153089285Y-100486905D01*
X153136904Y-100582143D01*
X153184523Y-100629762D01*
X153279761Y-100677381D01*
X153375000Y-100677381D01*
X153470238Y-100629762D01*
X153517857Y-100582143D01*
X153565476Y-100486905D01*
X153613095Y-100296429D01*
X153613095Y-100058333D01*
X153565476Y-99867857D01*
X153517857Y-99772619D01*
X153470238Y-99725000D01*
X153375000Y-99677381D01*
X152422619Y-99677381D02*
X152327380Y-99677381D01*
X152232142Y-99725000D01*
X152184523Y-99772619D01*
X152136904Y-99867857D01*
X152089285Y-100058333D01*
X152089285Y-100296429D01*
X152136904Y-100486905D01*
X152184523Y-100582143D01*
X152232142Y-100629762D01*
X152327380Y-100677381D01*
X152422619Y-100677381D01*
X152517857Y-100629762D01*
X152565476Y-100582143D01*
X152613095Y-100486905D01*
X152660714Y-100296429D01*
X152660714Y-100058333D01*
X152613095Y-99867857D01*
X152565476Y-99772619D01*
X152517857Y-99725000D01*
X152422619Y-99677381D01*
X151660714Y-100010714D02*
X151660714Y-100677381D01*
X151660714Y-100105952D02*
X151613095Y-100058333D01*
X151517857Y-100010714D01*
X151374999Y-100010714D01*
X151279761Y-100058333D01*
X151232142Y-100153571D01*
X151232142Y-100677381D01*
X145766666Y-84402381D02*
X146338095Y-84402381D01*
X146052381Y-84402381D02*
X146052381Y-83402381D01*
X146147619Y-83545238D01*
X146242857Y-83640476D01*
X146338095Y-83688095D01*
X145338095Y-83735714D02*
X145338095Y-84402381D01*
X145338095Y-83830952D02*
X145290476Y-83783333D01*
X145195238Y-83735714D01*
X145052380Y-83735714D01*
X144957142Y-83783333D01*
X144909523Y-83878571D01*
X144909523Y-84402381D01*
X152462381Y-67150953D02*
X152462381Y-66579524D01*
X152462381Y-66865238D02*
X151462381Y-66865238D01*
X151605238Y-66770000D01*
X151700476Y-66674762D01*
X151748095Y-66579524D01*
X151462381Y-67770000D02*
X151462381Y-67865239D01*
X151510000Y-67960477D01*
X151557619Y-68008096D01*
X151652857Y-68055715D01*
X151843333Y-68103334D01*
X152081429Y-68103334D01*
X152271905Y-68055715D01*
X152367143Y-68008096D01*
X152414762Y-67960477D01*
X152462381Y-67865239D01*
X152462381Y-67770000D01*
X152414762Y-67674762D01*
X152367143Y-67627143D01*
X152271905Y-67579524D01*
X152081429Y-67531905D01*
X151843333Y-67531905D01*
X151652857Y-67579524D01*
X151557619Y-67627143D01*
X151510000Y-67674762D01*
X151462381Y-67770000D01*
X151462381Y-68722381D02*
X151462381Y-68817620D01*
X151510000Y-68912858D01*
X151557619Y-68960477D01*
X151652857Y-69008096D01*
X151843333Y-69055715D01*
X152081429Y-69055715D01*
X152271905Y-69008096D01*
X152367143Y-68960477D01*
X152414762Y-68912858D01*
X152462381Y-68817620D01*
X152462381Y-68722381D01*
X152414762Y-68627143D01*
X152367143Y-68579524D01*
X152271905Y-68531905D01*
X152081429Y-68484286D01*
X151843333Y-68484286D01*
X151652857Y-68531905D01*
X151557619Y-68579524D01*
X151510000Y-68627143D01*
X151462381Y-68722381D01*
X151795714Y-69484286D02*
X152462381Y-69484286D01*
X151890952Y-69484286D02*
X151843333Y-69531905D01*
X151795714Y-69627143D01*
X151795714Y-69770001D01*
X151843333Y-69865239D01*
X151938571Y-69912858D01*
X152462381Y-69912858D01*
X159477381Y-77558334D02*
X159477381Y-76986905D01*
X159477381Y-77272619D02*
X158477381Y-77272619D01*
X158620238Y-77177381D01*
X158715476Y-77082143D01*
X158763095Y-76986905D01*
X158810714Y-77986905D02*
X159477381Y-77986905D01*
X158905952Y-77986905D02*
X158858333Y-78034524D01*
X158810714Y-78129762D01*
X158810714Y-78272620D01*
X158858333Y-78367858D01*
X158953571Y-78415477D01*
X159477381Y-78415477D01*
X145352381Y-74983334D02*
X145352381Y-74411905D01*
X145352381Y-74697619D02*
X144352381Y-74697619D01*
X144495238Y-74602381D01*
X144590476Y-74507143D01*
X144638095Y-74411905D01*
X144685714Y-75411905D02*
X145352381Y-75411905D01*
X144780952Y-75411905D02*
X144733333Y-75459524D01*
X144685714Y-75554762D01*
X144685714Y-75697620D01*
X144733333Y-75792858D01*
X144828571Y-75840477D01*
X145352381Y-75840477D01*
X159537381Y-68330953D02*
X159537381Y-67759524D01*
X159537381Y-68045238D02*
X158537381Y-68045238D01*
X158680238Y-67950000D01*
X158775476Y-67854762D01*
X158823095Y-67759524D01*
X158537381Y-68950000D02*
X158537381Y-69045239D01*
X158585000Y-69140477D01*
X158632619Y-69188096D01*
X158727857Y-69235715D01*
X158918333Y-69283334D01*
X159156429Y-69283334D01*
X159346905Y-69235715D01*
X159442143Y-69188096D01*
X159489762Y-69140477D01*
X159537381Y-69045239D01*
X159537381Y-68950000D01*
X159489762Y-68854762D01*
X159442143Y-68807143D01*
X159346905Y-68759524D01*
X159156429Y-68711905D01*
X158918333Y-68711905D01*
X158727857Y-68759524D01*
X158632619Y-68807143D01*
X158585000Y-68854762D01*
X158537381Y-68950000D01*
X158537381Y-69902381D02*
X158537381Y-69997620D01*
X158585000Y-70092858D01*
X158632619Y-70140477D01*
X158727857Y-70188096D01*
X158918333Y-70235715D01*
X159156429Y-70235715D01*
X159346905Y-70188096D01*
X159442143Y-70140477D01*
X159489762Y-70092858D01*
X159537381Y-69997620D01*
X159537381Y-69902381D01*
X159489762Y-69807143D01*
X159442143Y-69759524D01*
X159346905Y-69711905D01*
X159156429Y-69664286D01*
X158918333Y-69664286D01*
X158727857Y-69711905D01*
X158632619Y-69759524D01*
X158585000Y-69807143D01*
X158537381Y-69902381D01*
X158870714Y-70664286D02*
X159537381Y-70664286D01*
X158965952Y-70664286D02*
X158918333Y-70711905D01*
X158870714Y-70807143D01*
X158870714Y-70950001D01*
X158918333Y-71045239D01*
X159013571Y-71092858D01*
X159537381Y-71092858D01*
X145312381Y-66245953D02*
X145312381Y-65674524D01*
X145312381Y-65960238D02*
X144312381Y-65960238D01*
X144455238Y-65865000D01*
X144550476Y-65769762D01*
X144598095Y-65674524D01*
X144312381Y-66865000D02*
X144312381Y-66960239D01*
X144360000Y-67055477D01*
X144407619Y-67103096D01*
X144502857Y-67150715D01*
X144693333Y-67198334D01*
X144931429Y-67198334D01*
X145121905Y-67150715D01*
X145217143Y-67103096D01*
X145264762Y-67055477D01*
X145312381Y-66960239D01*
X145312381Y-66865000D01*
X145264762Y-66769762D01*
X145217143Y-66722143D01*
X145121905Y-66674524D01*
X144931429Y-66626905D01*
X144693333Y-66626905D01*
X144502857Y-66674524D01*
X144407619Y-66722143D01*
X144360000Y-66769762D01*
X144312381Y-66865000D01*
X144312381Y-67817381D02*
X144312381Y-67912620D01*
X144360000Y-68007858D01*
X144407619Y-68055477D01*
X144502857Y-68103096D01*
X144693333Y-68150715D01*
X144931429Y-68150715D01*
X145121905Y-68103096D01*
X145217143Y-68055477D01*
X145264762Y-68007858D01*
X145312381Y-67912620D01*
X145312381Y-67817381D01*
X145264762Y-67722143D01*
X145217143Y-67674524D01*
X145121905Y-67626905D01*
X144931429Y-67579286D01*
X144693333Y-67579286D01*
X144502857Y-67626905D01*
X144407619Y-67674524D01*
X144360000Y-67722143D01*
X144312381Y-67817381D01*
X144645714Y-68579286D02*
X145312381Y-68579286D01*
X144740952Y-68579286D02*
X144693333Y-68626905D01*
X144645714Y-68722143D01*
X144645714Y-68865001D01*
X144693333Y-68960239D01*
X144788571Y-69007858D01*
X145312381Y-69007858D01*
X146315476Y-82152381D02*
X146886905Y-82152381D01*
X146601191Y-82152381D02*
X146601191Y-81152381D01*
X146696429Y-81295238D01*
X146791667Y-81390476D01*
X146886905Y-81438095D01*
X145696429Y-81152381D02*
X145601190Y-81152381D01*
X145505952Y-81200000D01*
X145458333Y-81247619D01*
X145410714Y-81342857D01*
X145363095Y-81533333D01*
X145363095Y-81771429D01*
X145410714Y-81961905D01*
X145458333Y-82057143D01*
X145505952Y-82104762D01*
X145601190Y-82152381D01*
X145696429Y-82152381D01*
X145791667Y-82104762D01*
X145839286Y-82057143D01*
X145886905Y-81961905D01*
X145934524Y-81771429D01*
X145934524Y-81533333D01*
X145886905Y-81342857D01*
X145839286Y-81247619D01*
X145791667Y-81200000D01*
X145696429Y-81152381D01*
X144934524Y-82152381D02*
X144934524Y-81152381D01*
X144363095Y-82152381D02*
X144791667Y-81580952D01*
X144363095Y-81152381D02*
X144934524Y-81723810D01*
X146430476Y-86807381D02*
X147001905Y-86807381D01*
X146716191Y-86807381D02*
X146716191Y-85807381D01*
X146811429Y-85950238D01*
X146906667Y-86045476D01*
X147001905Y-86093095D01*
X145573333Y-86140714D02*
X145573333Y-86807381D01*
X145811429Y-85759762D02*
X146049524Y-86474048D01*
X145430476Y-86474048D01*
X145049524Y-86807381D02*
X145049524Y-85807381D01*
X144478095Y-86807381D02*
X144906667Y-86235952D01*
X144478095Y-85807381D02*
X145049524Y-86378810D01*
X155027381Y-75884524D02*
X155027381Y-75313095D01*
X155027381Y-75598809D02*
X154027381Y-75598809D01*
X154170238Y-75503571D01*
X154265476Y-75408333D01*
X154313095Y-75313095D01*
X154027381Y-76503571D02*
X154027381Y-76598810D01*
X154075000Y-76694048D01*
X154122619Y-76741667D01*
X154217857Y-76789286D01*
X154408333Y-76836905D01*
X154646429Y-76836905D01*
X154836905Y-76789286D01*
X154932143Y-76741667D01*
X154979762Y-76694048D01*
X155027381Y-76598810D01*
X155027381Y-76503571D01*
X154979762Y-76408333D01*
X154932143Y-76360714D01*
X154836905Y-76313095D01*
X154646429Y-76265476D01*
X154408333Y-76265476D01*
X154217857Y-76313095D01*
X154122619Y-76360714D01*
X154075000Y-76408333D01*
X154027381Y-76503571D01*
X155027381Y-77265476D02*
X154027381Y-77265476D01*
X155027381Y-77836905D02*
X154455952Y-77408333D01*
X154027381Y-77836905D02*
X154598810Y-77265476D01*
X152327381Y-70758334D02*
X152327381Y-70186905D01*
X152327381Y-70472619D02*
X151327381Y-70472619D01*
X151470238Y-70377381D01*
X151565476Y-70282143D01*
X151613095Y-70186905D01*
X151327381Y-71377381D02*
X151327381Y-71472620D01*
X151375000Y-71567858D01*
X151422619Y-71615477D01*
X151517857Y-71663096D01*
X151708333Y-71710715D01*
X151946429Y-71710715D01*
X152136905Y-71663096D01*
X152232143Y-71615477D01*
X152279762Y-71567858D01*
X152327381Y-71472620D01*
X152327381Y-71377381D01*
X152279762Y-71282143D01*
X152232143Y-71234524D01*
X152136905Y-71186905D01*
X151946429Y-71139286D01*
X151708333Y-71139286D01*
X151517857Y-71186905D01*
X151422619Y-71234524D01*
X151375000Y-71282143D01*
X151327381Y-71377381D01*
X151327381Y-72329762D02*
X151327381Y-72425001D01*
X151375000Y-72520239D01*
X151422619Y-72567858D01*
X151517857Y-72615477D01*
X151708333Y-72663096D01*
X151946429Y-72663096D01*
X152136905Y-72615477D01*
X152232143Y-72567858D01*
X152279762Y-72520239D01*
X152327381Y-72425001D01*
X152327381Y-72329762D01*
X152279762Y-72234524D01*
X152232143Y-72186905D01*
X152136905Y-72139286D01*
X151946429Y-72091667D01*
X151708333Y-72091667D01*
X151517857Y-72139286D01*
X151422619Y-72186905D01*
X151375000Y-72234524D01*
X151327381Y-72329762D01*
X152327381Y-73663096D02*
X151851190Y-73329762D01*
X152327381Y-73091667D02*
X151327381Y-73091667D01*
X151327381Y-73472620D01*
X151375000Y-73567858D01*
X151422619Y-73615477D01*
X151517857Y-73663096D01*
X151660714Y-73663096D01*
X151755952Y-73615477D01*
X151803571Y-73567858D01*
X151851190Y-73472620D01*
X151851190Y-73091667D01*
X157038095Y-68237381D02*
X156942856Y-68237381D01*
X156847618Y-68285000D01*
X156799999Y-68332619D01*
X156752380Y-68427857D01*
X156704761Y-68618333D01*
X156704761Y-68856429D01*
X156752380Y-69046905D01*
X156799999Y-69142143D01*
X156847618Y-69189762D01*
X156942856Y-69237381D01*
X157038095Y-69237381D01*
X157133333Y-69189762D01*
X157180952Y-69142143D01*
X157228571Y-69046905D01*
X157276190Y-68856429D01*
X157276190Y-68618333D01*
X157228571Y-68427857D01*
X157180952Y-68332619D01*
X157133333Y-68285000D01*
X157038095Y-68237381D01*
X156276190Y-69142143D02*
X156228571Y-69189762D01*
X156276190Y-69237381D01*
X156323809Y-69189762D01*
X156276190Y-69142143D01*
X156276190Y-69237381D01*
X155609524Y-68237381D02*
X155514285Y-68237381D01*
X155419047Y-68285000D01*
X155371428Y-68332619D01*
X155323809Y-68427857D01*
X155276190Y-68618333D01*
X155276190Y-68856429D01*
X155323809Y-69046905D01*
X155371428Y-69142143D01*
X155419047Y-69189762D01*
X155514285Y-69237381D01*
X155609524Y-69237381D01*
X155704762Y-69189762D01*
X155752381Y-69142143D01*
X155800000Y-69046905D01*
X155847619Y-68856429D01*
X155847619Y-68618333D01*
X155800000Y-68427857D01*
X155752381Y-68332619D01*
X155704762Y-68285000D01*
X155609524Y-68237381D01*
X154323809Y-69237381D02*
X154895238Y-69237381D01*
X154609524Y-69237381D02*
X154609524Y-68237381D01*
X154704762Y-68380238D01*
X154800000Y-68475476D01*
X154895238Y-68523095D01*
X153323809Y-69237381D02*
X153657143Y-68761190D01*
X153895238Y-69237381D02*
X153895238Y-68237381D01*
X153514285Y-68237381D01*
X153419047Y-68285000D01*
X153371428Y-68332619D01*
X153323809Y-68427857D01*
X153323809Y-68570714D01*
X153371428Y-68665952D01*
X153419047Y-68713571D01*
X153514285Y-68761190D01*
X153895238Y-68761190D01*
X161952381Y-77059524D02*
X161952381Y-76488095D01*
X161952381Y-76773809D02*
X160952381Y-76773809D01*
X161095238Y-76678571D01*
X161190476Y-76583333D01*
X161238095Y-76488095D01*
X160952381Y-77678571D02*
X160952381Y-77773810D01*
X161000000Y-77869048D01*
X161047619Y-77916667D01*
X161142857Y-77964286D01*
X161333333Y-78011905D01*
X161571429Y-78011905D01*
X161761905Y-77964286D01*
X161857143Y-77916667D01*
X161904762Y-77869048D01*
X161952381Y-77773810D01*
X161952381Y-77678571D01*
X161904762Y-77583333D01*
X161857143Y-77535714D01*
X161761905Y-77488095D01*
X161571429Y-77440476D01*
X161333333Y-77440476D01*
X161142857Y-77488095D01*
X161047619Y-77535714D01*
X161000000Y-77583333D01*
X160952381Y-77678571D01*
X161952381Y-78440476D02*
X160952381Y-78440476D01*
X161952381Y-79011905D02*
X161380952Y-78583333D01*
X160952381Y-79011905D02*
X161523810Y-78440476D01*
X147727381Y-74509524D02*
X147727381Y-73938095D01*
X147727381Y-74223809D02*
X146727381Y-74223809D01*
X146870238Y-74128571D01*
X146965476Y-74033333D01*
X147013095Y-73938095D01*
X146727381Y-75128571D02*
X146727381Y-75223810D01*
X146775000Y-75319048D01*
X146822619Y-75366667D01*
X146917857Y-75414286D01*
X147108333Y-75461905D01*
X147346429Y-75461905D01*
X147536905Y-75414286D01*
X147632143Y-75366667D01*
X147679762Y-75319048D01*
X147727381Y-75223810D01*
X147727381Y-75128571D01*
X147679762Y-75033333D01*
X147632143Y-74985714D01*
X147536905Y-74938095D01*
X147346429Y-74890476D01*
X147108333Y-74890476D01*
X146917857Y-74938095D01*
X146822619Y-74985714D01*
X146775000Y-75033333D01*
X146727381Y-75128571D01*
X147727381Y-75890476D02*
X146727381Y-75890476D01*
X147727381Y-76461905D02*
X147155952Y-76033333D01*
X146727381Y-76461905D02*
X147298810Y-75890476D01*
X159452381Y-72008334D02*
X159452381Y-71436905D01*
X159452381Y-71722619D02*
X158452381Y-71722619D01*
X158595238Y-71627381D01*
X158690476Y-71532143D01*
X158738095Y-71436905D01*
X158452381Y-72627381D02*
X158452381Y-72722620D01*
X158500000Y-72817858D01*
X158547619Y-72865477D01*
X158642857Y-72913096D01*
X158833333Y-72960715D01*
X159071429Y-72960715D01*
X159261905Y-72913096D01*
X159357143Y-72865477D01*
X159404762Y-72817858D01*
X159452381Y-72722620D01*
X159452381Y-72627381D01*
X159404762Y-72532143D01*
X159357143Y-72484524D01*
X159261905Y-72436905D01*
X159071429Y-72389286D01*
X158833333Y-72389286D01*
X158642857Y-72436905D01*
X158547619Y-72484524D01*
X158500000Y-72532143D01*
X158452381Y-72627381D01*
X158452381Y-73579762D02*
X158452381Y-73675001D01*
X158500000Y-73770239D01*
X158547619Y-73817858D01*
X158642857Y-73865477D01*
X158833333Y-73913096D01*
X159071429Y-73913096D01*
X159261905Y-73865477D01*
X159357143Y-73817858D01*
X159404762Y-73770239D01*
X159452381Y-73675001D01*
X159452381Y-73579762D01*
X159404762Y-73484524D01*
X159357143Y-73436905D01*
X159261905Y-73389286D01*
X159071429Y-73341667D01*
X158833333Y-73341667D01*
X158642857Y-73389286D01*
X158547619Y-73436905D01*
X158500000Y-73484524D01*
X158452381Y-73579762D01*
X159452381Y-74913096D02*
X158976190Y-74579762D01*
X159452381Y-74341667D02*
X158452381Y-74341667D01*
X158452381Y-74722620D01*
X158500000Y-74817858D01*
X158547619Y-74865477D01*
X158642857Y-74913096D01*
X158785714Y-74913096D01*
X158880952Y-74865477D01*
X158928571Y-74817858D01*
X158976190Y-74722620D01*
X158976190Y-74341667D01*
X164183095Y-69412381D02*
X164087856Y-69412381D01*
X163992618Y-69460000D01*
X163944999Y-69507619D01*
X163897380Y-69602857D01*
X163849761Y-69793333D01*
X163849761Y-70031429D01*
X163897380Y-70221905D01*
X163944999Y-70317143D01*
X163992618Y-70364762D01*
X164087856Y-70412381D01*
X164183095Y-70412381D01*
X164278333Y-70364762D01*
X164325952Y-70317143D01*
X164373571Y-70221905D01*
X164421190Y-70031429D01*
X164421190Y-69793333D01*
X164373571Y-69602857D01*
X164325952Y-69507619D01*
X164278333Y-69460000D01*
X164183095Y-69412381D01*
X163421190Y-70317143D02*
X163373571Y-70364762D01*
X163421190Y-70412381D01*
X163468809Y-70364762D01*
X163421190Y-70317143D01*
X163421190Y-70412381D01*
X162754524Y-69412381D02*
X162659285Y-69412381D01*
X162564047Y-69460000D01*
X162516428Y-69507619D01*
X162468809Y-69602857D01*
X162421190Y-69793333D01*
X162421190Y-70031429D01*
X162468809Y-70221905D01*
X162516428Y-70317143D01*
X162564047Y-70364762D01*
X162659285Y-70412381D01*
X162754524Y-70412381D01*
X162849762Y-70364762D01*
X162897381Y-70317143D01*
X162945000Y-70221905D01*
X162992619Y-70031429D01*
X162992619Y-69793333D01*
X162945000Y-69602857D01*
X162897381Y-69507619D01*
X162849762Y-69460000D01*
X162754524Y-69412381D01*
X161468809Y-70412381D02*
X162040238Y-70412381D01*
X161754524Y-70412381D02*
X161754524Y-69412381D01*
X161849762Y-69555238D01*
X161945000Y-69650476D01*
X162040238Y-69698095D01*
X160468809Y-70412381D02*
X160802143Y-69936190D01*
X161040238Y-70412381D02*
X161040238Y-69412381D01*
X160659285Y-69412381D01*
X160564047Y-69460000D01*
X160516428Y-69507619D01*
X160468809Y-69602857D01*
X160468809Y-69745714D01*
X160516428Y-69840952D01*
X160564047Y-69888571D01*
X160659285Y-69936190D01*
X161040238Y-69936190D01*
X145202381Y-69633334D02*
X145202381Y-69061905D01*
X145202381Y-69347619D02*
X144202381Y-69347619D01*
X144345238Y-69252381D01*
X144440476Y-69157143D01*
X144488095Y-69061905D01*
X144202381Y-70252381D02*
X144202381Y-70347620D01*
X144250000Y-70442858D01*
X144297619Y-70490477D01*
X144392857Y-70538096D01*
X144583333Y-70585715D01*
X144821429Y-70585715D01*
X145011905Y-70538096D01*
X145107143Y-70490477D01*
X145154762Y-70442858D01*
X145202381Y-70347620D01*
X145202381Y-70252381D01*
X145154762Y-70157143D01*
X145107143Y-70109524D01*
X145011905Y-70061905D01*
X144821429Y-70014286D01*
X144583333Y-70014286D01*
X144392857Y-70061905D01*
X144297619Y-70109524D01*
X144250000Y-70157143D01*
X144202381Y-70252381D01*
X144202381Y-71204762D02*
X144202381Y-71300001D01*
X144250000Y-71395239D01*
X144297619Y-71442858D01*
X144392857Y-71490477D01*
X144583333Y-71538096D01*
X144821429Y-71538096D01*
X145011905Y-71490477D01*
X145107143Y-71442858D01*
X145154762Y-71395239D01*
X145202381Y-71300001D01*
X145202381Y-71204762D01*
X145154762Y-71109524D01*
X145107143Y-71061905D01*
X145011905Y-71014286D01*
X144821429Y-70966667D01*
X144583333Y-70966667D01*
X144392857Y-71014286D01*
X144297619Y-71061905D01*
X144250000Y-71109524D01*
X144202381Y-71204762D01*
X145202381Y-72538096D02*
X144726190Y-72204762D01*
X145202381Y-71966667D02*
X144202381Y-71966667D01*
X144202381Y-72347620D01*
X144250000Y-72442858D01*
X144297619Y-72490477D01*
X144392857Y-72538096D01*
X144535714Y-72538096D01*
X144630952Y-72490477D01*
X144678571Y-72442858D01*
X144726190Y-72347620D01*
X144726190Y-71966667D01*
X149893095Y-67087381D02*
X149797856Y-67087381D01*
X149702618Y-67135000D01*
X149654999Y-67182619D01*
X149607380Y-67277857D01*
X149559761Y-67468333D01*
X149559761Y-67706429D01*
X149607380Y-67896905D01*
X149654999Y-67992143D01*
X149702618Y-68039762D01*
X149797856Y-68087381D01*
X149893095Y-68087381D01*
X149988333Y-68039762D01*
X150035952Y-67992143D01*
X150083571Y-67896905D01*
X150131190Y-67706429D01*
X150131190Y-67468333D01*
X150083571Y-67277857D01*
X150035952Y-67182619D01*
X149988333Y-67135000D01*
X149893095Y-67087381D01*
X149131190Y-67992143D02*
X149083571Y-68039762D01*
X149131190Y-68087381D01*
X149178809Y-68039762D01*
X149131190Y-67992143D01*
X149131190Y-68087381D01*
X148464524Y-67087381D02*
X148369285Y-67087381D01*
X148274047Y-67135000D01*
X148226428Y-67182619D01*
X148178809Y-67277857D01*
X148131190Y-67468333D01*
X148131190Y-67706429D01*
X148178809Y-67896905D01*
X148226428Y-67992143D01*
X148274047Y-68039762D01*
X148369285Y-68087381D01*
X148464524Y-68087381D01*
X148559762Y-68039762D01*
X148607381Y-67992143D01*
X148655000Y-67896905D01*
X148702619Y-67706429D01*
X148702619Y-67468333D01*
X148655000Y-67277857D01*
X148607381Y-67182619D01*
X148559762Y-67135000D01*
X148464524Y-67087381D01*
X147178809Y-68087381D02*
X147750238Y-68087381D01*
X147464524Y-68087381D02*
X147464524Y-67087381D01*
X147559762Y-67230238D01*
X147655000Y-67325476D01*
X147750238Y-67373095D01*
X146178809Y-68087381D02*
X146512143Y-67611190D01*
X146750238Y-68087381D02*
X146750238Y-67087381D01*
X146369285Y-67087381D01*
X146274047Y-67135000D01*
X146226428Y-67182619D01*
X146178809Y-67277857D01*
X146178809Y-67420714D01*
X146226428Y-67515952D01*
X146274047Y-67563571D01*
X146369285Y-67611190D01*
X146750238Y-67611190D01*
X162200381Y-92552382D02*
X162200381Y-92076191D01*
X161200381Y-92076191D01*
X162200381Y-92885715D02*
X161200381Y-92885715D01*
X161914667Y-93219049D01*
X161200381Y-93552382D01*
X162200381Y-93552382D01*
X162200381Y-94552382D02*
X162200381Y-93980953D01*
X162200381Y-94266667D02*
X161200381Y-94266667D01*
X161343238Y-94171429D01*
X161438476Y-94076191D01*
X161486095Y-93980953D01*
X162200381Y-95504763D02*
X162200381Y-94933334D01*
X162200381Y-95219048D02*
X161200381Y-95219048D01*
X161343238Y-95123810D01*
X161438476Y-95028572D01*
X161486095Y-94933334D01*
X162200381Y-96457144D02*
X162200381Y-95885715D01*
X162200381Y-96171429D02*
X161200381Y-96171429D01*
X161343238Y-96076191D01*
X161438476Y-95980953D01*
X161486095Y-95885715D01*
X161200381Y-96790477D02*
X161200381Y-97457144D01*
X162200381Y-97028572D01*
X162200381Y-97838096D02*
X161200381Y-97838096D01*
X161914667Y-98171430D01*
X161200381Y-98504763D01*
X162200381Y-98504763D01*
X162200381Y-98980953D02*
X161200381Y-98980953D01*
X161200381Y-99361906D01*
X161248000Y-99457144D01*
X161295619Y-99504763D01*
X161390857Y-99552382D01*
X161533714Y-99552382D01*
X161628952Y-99504763D01*
X161676571Y-99457144D01*
X161724190Y-99361906D01*
X161724190Y-98980953D01*
X161819429Y-99980953D02*
X161819429Y-100742858D01*
X161295619Y-101171429D02*
X161248000Y-101219048D01*
X161200381Y-101314286D01*
X161200381Y-101552382D01*
X161248000Y-101647620D01*
X161295619Y-101695239D01*
X161390857Y-101742858D01*
X161486095Y-101742858D01*
X161628952Y-101695239D01*
X162200381Y-101123810D01*
X162200381Y-101742858D01*
X162105143Y-102171429D02*
X162152762Y-102219048D01*
X162200381Y-102171429D01*
X162152762Y-102123810D01*
X162105143Y-102171429D01*
X162200381Y-102171429D01*
X161200381Y-103123810D02*
X161200381Y-102647619D01*
X161676571Y-102600000D01*
X161628952Y-102647619D01*
X161581333Y-102742857D01*
X161581333Y-102980953D01*
X161628952Y-103076191D01*
X161676571Y-103123810D01*
X161771810Y-103171429D01*
X162009905Y-103171429D01*
X162105143Y-103123810D01*
X162152762Y-103076191D01*
X162200381Y-102980953D01*
X162200381Y-102742857D01*
X162152762Y-102647619D01*
X162105143Y-102600000D01*
X156002381Y-69948810D02*
X156002381Y-69472619D01*
X155002381Y-69472619D01*
X155002381Y-70139286D02*
X155002381Y-70710715D01*
X156002381Y-70425000D02*
X155002381Y-70425000D01*
X155002381Y-71472620D02*
X155002381Y-71282143D01*
X155050000Y-71186905D01*
X155097619Y-71139286D01*
X155240476Y-71044048D01*
X155430952Y-70996429D01*
X155811905Y-70996429D01*
X155907143Y-71044048D01*
X155954762Y-71091667D01*
X156002381Y-71186905D01*
X156002381Y-71377382D01*
X155954762Y-71472620D01*
X155907143Y-71520239D01*
X155811905Y-71567858D01*
X155573810Y-71567858D01*
X155478571Y-71520239D01*
X155430952Y-71472620D01*
X155383333Y-71377382D01*
X155383333Y-71186905D01*
X155430952Y-71091667D01*
X155478571Y-71044048D01*
X155573810Y-70996429D01*
X156002381Y-72520239D02*
X156002381Y-71948810D01*
X156002381Y-72234524D02*
X155002381Y-72234524D01*
X155145238Y-72139286D01*
X155240476Y-72044048D01*
X155288095Y-71948810D01*
X155002381Y-73139286D02*
X155002381Y-73234525D01*
X155050000Y-73329763D01*
X155097619Y-73377382D01*
X155192857Y-73425001D01*
X155383333Y-73472620D01*
X155621429Y-73472620D01*
X155811905Y-73425001D01*
X155907143Y-73377382D01*
X155954762Y-73329763D01*
X156002381Y-73234525D01*
X156002381Y-73139286D01*
X155954762Y-73044048D01*
X155907143Y-72996429D01*
X155811905Y-72948810D01*
X155621429Y-72901191D01*
X155383333Y-72901191D01*
X155192857Y-72948810D01*
X155097619Y-72996429D01*
X155050000Y-73044048D01*
X155002381Y-73139286D01*
X155002381Y-74329763D02*
X155002381Y-74139286D01*
X155050000Y-74044048D01*
X155097619Y-73996429D01*
X155240476Y-73901191D01*
X155430952Y-73853572D01*
X155811905Y-73853572D01*
X155907143Y-73901191D01*
X155954762Y-73948810D01*
X156002381Y-74044048D01*
X156002381Y-74234525D01*
X155954762Y-74329763D01*
X155907143Y-74377382D01*
X155811905Y-74425001D01*
X155573810Y-74425001D01*
X155478571Y-74377382D01*
X155430952Y-74329763D01*
X155383333Y-74234525D01*
X155383333Y-74044048D01*
X155430952Y-73948810D01*
X155478571Y-73901191D01*
X155573810Y-73853572D01*
X148852381Y-68598810D02*
X148852381Y-68122619D01*
X147852381Y-68122619D01*
X147852381Y-68789286D02*
X147852381Y-69360715D01*
X148852381Y-69075000D02*
X147852381Y-69075000D01*
X147852381Y-70122620D02*
X147852381Y-69932143D01*
X147900000Y-69836905D01*
X147947619Y-69789286D01*
X148090476Y-69694048D01*
X148280952Y-69646429D01*
X148661905Y-69646429D01*
X148757143Y-69694048D01*
X148804762Y-69741667D01*
X148852381Y-69836905D01*
X148852381Y-70027382D01*
X148804762Y-70122620D01*
X148757143Y-70170239D01*
X148661905Y-70217858D01*
X148423810Y-70217858D01*
X148328571Y-70170239D01*
X148280952Y-70122620D01*
X148233333Y-70027382D01*
X148233333Y-69836905D01*
X148280952Y-69741667D01*
X148328571Y-69694048D01*
X148423810Y-69646429D01*
X148852381Y-71170239D02*
X148852381Y-70598810D01*
X148852381Y-70884524D02*
X147852381Y-70884524D01*
X147995238Y-70789286D01*
X148090476Y-70694048D01*
X148138095Y-70598810D01*
X147852381Y-71789286D02*
X147852381Y-71884525D01*
X147900000Y-71979763D01*
X147947619Y-72027382D01*
X148042857Y-72075001D01*
X148233333Y-72122620D01*
X148471429Y-72122620D01*
X148661905Y-72075001D01*
X148757143Y-72027382D01*
X148804762Y-71979763D01*
X148852381Y-71884525D01*
X148852381Y-71789286D01*
X148804762Y-71694048D01*
X148757143Y-71646429D01*
X148661905Y-71598810D01*
X148471429Y-71551191D01*
X148233333Y-71551191D01*
X148042857Y-71598810D01*
X147947619Y-71646429D01*
X147900000Y-71694048D01*
X147852381Y-71789286D01*
X147852381Y-72979763D02*
X147852381Y-72789286D01*
X147900000Y-72694048D01*
X147947619Y-72646429D01*
X148090476Y-72551191D01*
X148280952Y-72503572D01*
X148661905Y-72503572D01*
X148757143Y-72551191D01*
X148804762Y-72598810D01*
X148852381Y-72694048D01*
X148852381Y-72884525D01*
X148804762Y-72979763D01*
X148757143Y-73027382D01*
X148661905Y-73075001D01*
X148423810Y-73075001D01*
X148328571Y-73027382D01*
X148280952Y-72979763D01*
X148233333Y-72884525D01*
X148233333Y-72694048D01*
X148280952Y-72598810D01*
X148328571Y-72551191D01*
X148423810Y-72503572D01*
X153230809Y-105822143D02*
X153278428Y-105869762D01*
X153421285Y-105917381D01*
X153516523Y-105917381D01*
X153659381Y-105869762D01*
X153754619Y-105774524D01*
X153802238Y-105679286D01*
X153849857Y-105488810D01*
X153849857Y-105345952D01*
X153802238Y-105155476D01*
X153754619Y-105060238D01*
X153659381Y-104965000D01*
X153516523Y-104917381D01*
X153421285Y-104917381D01*
X153278428Y-104965000D01*
X153230809Y-105012619D01*
X152611762Y-104917381D02*
X152421285Y-104917381D01*
X152326047Y-104965000D01*
X152230809Y-105060238D01*
X152183190Y-105250714D01*
X152183190Y-105584048D01*
X152230809Y-105774524D01*
X152326047Y-105869762D01*
X152421285Y-105917381D01*
X152611762Y-105917381D01*
X152707000Y-105869762D01*
X152802238Y-105774524D01*
X152849857Y-105584048D01*
X152849857Y-105250714D01*
X152802238Y-105060238D01*
X152707000Y-104965000D01*
X152611762Y-104917381D01*
X151754619Y-105917381D02*
X151754619Y-104917381D01*
X151183190Y-105917381D01*
X151183190Y-104917381D01*
X150707000Y-105917381D02*
X150707000Y-104917381D01*
X150135571Y-105917381D01*
X150135571Y-104917381D01*
X149897476Y-106012619D02*
X149135571Y-106012619D01*
X148707000Y-104917381D02*
X148611761Y-104917381D01*
X148516523Y-104965000D01*
X148468904Y-105012619D01*
X148421285Y-105107857D01*
X148373666Y-105298333D01*
X148373666Y-105536429D01*
X148421285Y-105726905D01*
X148468904Y-105822143D01*
X148516523Y-105869762D01*
X148611761Y-105917381D01*
X148707000Y-105917381D01*
X148802238Y-105869762D01*
X148849857Y-105822143D01*
X148897476Y-105726905D01*
X148945095Y-105536429D01*
X148945095Y-105298333D01*
X148897476Y-105107857D01*
X148849857Y-105012619D01*
X148802238Y-104965000D01*
X148707000Y-104917381D01*
X147421285Y-105917381D02*
X147992714Y-105917381D01*
X147707000Y-105917381D02*
X147707000Y-104917381D01*
X147802238Y-105060238D01*
X147897476Y-105155476D01*
X147992714Y-105203095D01*
X147087952Y-104917381D02*
X146421285Y-105917381D01*
X146421285Y-104917381D02*
X147087952Y-105917381D01*
X145849857Y-104917381D02*
X145754618Y-104917381D01*
X145659380Y-104965000D01*
X145611761Y-105012619D01*
X145564142Y-105107857D01*
X145516523Y-105298333D01*
X145516523Y-105536429D01*
X145564142Y-105726905D01*
X145611761Y-105822143D01*
X145659380Y-105869762D01*
X145754618Y-105917381D01*
X145849857Y-105917381D01*
X145945095Y-105869762D01*
X145992714Y-105822143D01*
X146040333Y-105726905D01*
X146087952Y-105536429D01*
X146087952Y-105298333D01*
X146040333Y-105107857D01*
X145992714Y-105012619D01*
X145945095Y-104965000D01*
X145849857Y-104917381D01*
X144945095Y-105345952D02*
X145040333Y-105298333D01*
X145087952Y-105250714D01*
X145135571Y-105155476D01*
X145135571Y-105107857D01*
X145087952Y-105012619D01*
X145040333Y-104965000D01*
X144945095Y-104917381D01*
X144754618Y-104917381D01*
X144659380Y-104965000D01*
X144611761Y-105012619D01*
X144564142Y-105107857D01*
X144564142Y-105155476D01*
X144611761Y-105250714D01*
X144659380Y-105298333D01*
X144754618Y-105345952D01*
X144945095Y-105345952D01*
X145040333Y-105393571D01*
X145087952Y-105441190D01*
X145135571Y-105536429D01*
X145135571Y-105726905D01*
X145087952Y-105822143D01*
X145040333Y-105869762D01*
X144945095Y-105917381D01*
X144754618Y-105917381D01*
X144659380Y-105869762D01*
X144611761Y-105822143D01*
X144564142Y-105726905D01*
X144564142Y-105536429D01*
X144611761Y-105441190D01*
X144659380Y-105393571D01*
X144754618Y-105345952D01*
X162657143Y-101951191D02*
X162704762Y-101903572D01*
X162752381Y-101760715D01*
X162752381Y-101665477D01*
X162704762Y-101522619D01*
X162609524Y-101427381D01*
X162514286Y-101379762D01*
X162323810Y-101332143D01*
X162180952Y-101332143D01*
X161990476Y-101379762D01*
X161895238Y-101427381D01*
X161800000Y-101522619D01*
X161752381Y-101665477D01*
X161752381Y-101760715D01*
X161800000Y-101903572D01*
X161847619Y-101951191D01*
X161752381Y-102570238D02*
X161752381Y-102760715D01*
X161800000Y-102855953D01*
X161895238Y-102951191D01*
X162085714Y-102998810D01*
X162419048Y-102998810D01*
X162609524Y-102951191D01*
X162704762Y-102855953D01*
X162752381Y-102760715D01*
X162752381Y-102570238D01*
X162704762Y-102475000D01*
X162609524Y-102379762D01*
X162419048Y-102332143D01*
X162085714Y-102332143D01*
X161895238Y-102379762D01*
X161800000Y-102475000D01*
X161752381Y-102570238D01*
X162752381Y-103427381D02*
X161752381Y-103427381D01*
X162752381Y-103998810D01*
X161752381Y-103998810D01*
X162752381Y-104475000D02*
X161752381Y-104475000D01*
X162752381Y-105046429D01*
X161752381Y-105046429D01*
X162847619Y-105284524D02*
X162847619Y-106046429D01*
X161752381Y-106475000D02*
X161752381Y-106570239D01*
X161800000Y-106665477D01*
X161847619Y-106713096D01*
X161942857Y-106760715D01*
X162133333Y-106808334D01*
X162371429Y-106808334D01*
X162561905Y-106760715D01*
X162657143Y-106713096D01*
X162704762Y-106665477D01*
X162752381Y-106570239D01*
X162752381Y-106475000D01*
X162704762Y-106379762D01*
X162657143Y-106332143D01*
X162561905Y-106284524D01*
X162371429Y-106236905D01*
X162133333Y-106236905D01*
X161942857Y-106284524D01*
X161847619Y-106332143D01*
X161800000Y-106379762D01*
X161752381Y-106475000D01*
X162752381Y-107760715D02*
X162752381Y-107189286D01*
X162752381Y-107475000D02*
X161752381Y-107475000D01*
X161895238Y-107379762D01*
X161990476Y-107284524D01*
X162038095Y-107189286D01*
X161752381Y-108094048D02*
X162752381Y-108760715D01*
X161752381Y-108760715D02*
X162752381Y-108094048D01*
X161752381Y-109332143D02*
X161752381Y-109427382D01*
X161800000Y-109522620D01*
X161847619Y-109570239D01*
X161942857Y-109617858D01*
X162133333Y-109665477D01*
X162371429Y-109665477D01*
X162561905Y-109617858D01*
X162657143Y-109570239D01*
X162704762Y-109522620D01*
X162752381Y-109427382D01*
X162752381Y-109332143D01*
X162704762Y-109236905D01*
X162657143Y-109189286D01*
X162561905Y-109141667D01*
X162371429Y-109094048D01*
X162133333Y-109094048D01*
X161942857Y-109141667D01*
X161847619Y-109189286D01*
X161800000Y-109236905D01*
X161752381Y-109332143D01*
X161752381Y-109998810D02*
X161752381Y-110617858D01*
X162133333Y-110284524D01*
X162133333Y-110427382D01*
X162180952Y-110522620D01*
X162228571Y-110570239D01*
X162323810Y-110617858D01*
X162561905Y-110617858D01*
X162657143Y-110570239D01*
X162704762Y-110522620D01*
X162752381Y-110427382D01*
X162752381Y-110141667D01*
X162704762Y-110046429D01*
X162657143Y-109998810D01*
X110335714Y-110333334D02*
X111002381Y-110333334D01*
X109954762Y-110095238D02*
X110669048Y-109857143D01*
X110669048Y-110476191D01*
X110002381Y-110761905D02*
X110002381Y-111428572D01*
X111002381Y-111000000D01*
X110335714Y-112238096D02*
X111002381Y-112238096D01*
X110335714Y-111809524D02*
X110859524Y-111809524D01*
X110954762Y-111857143D01*
X111002381Y-111952381D01*
X111002381Y-112095239D01*
X110954762Y-112190477D01*
X110907143Y-112238096D01*
X110478571Y-113047620D02*
X110478571Y-112714286D01*
X111002381Y-112714286D02*
X110002381Y-112714286D01*
X110002381Y-113190477D01*
X113085714Y-110333334D02*
X113752381Y-110333334D01*
X112704762Y-110095238D02*
X113419048Y-109857143D01*
X113419048Y-110476191D01*
X112752381Y-110761905D02*
X112752381Y-111428572D01*
X113752381Y-111000000D01*
X113085714Y-112238096D02*
X113752381Y-112238096D01*
X113085714Y-111809524D02*
X113609524Y-111809524D01*
X113704762Y-111857143D01*
X113752381Y-111952381D01*
X113752381Y-112095239D01*
X113704762Y-112190477D01*
X113657143Y-112238096D01*
X113228571Y-113047620D02*
X113228571Y-112714286D01*
X113752381Y-112714286D02*
X112752381Y-112714286D01*
X112752381Y-113190477D01*
X117892857Y-104852381D02*
X118464286Y-104852381D01*
X118178572Y-104852381D02*
X118178572Y-103852381D01*
X118273810Y-103995238D01*
X118369048Y-104090476D01*
X118464286Y-104138095D01*
X117273810Y-103852381D02*
X117178571Y-103852381D01*
X117083333Y-103900000D01*
X117035714Y-103947619D01*
X116988095Y-104042857D01*
X116940476Y-104233333D01*
X116940476Y-104471429D01*
X116988095Y-104661905D01*
X117035714Y-104757143D01*
X117083333Y-104804762D01*
X117178571Y-104852381D01*
X117273810Y-104852381D01*
X117369048Y-104804762D01*
X117416667Y-104757143D01*
X117464286Y-104661905D01*
X117511905Y-104471429D01*
X117511905Y-104233333D01*
X117464286Y-104042857D01*
X117416667Y-103947619D01*
X117369048Y-103900000D01*
X117273810Y-103852381D01*
X116511905Y-104185714D02*
X116511905Y-104852381D01*
X116511905Y-104280952D02*
X116464286Y-104233333D01*
X116369048Y-104185714D01*
X116226190Y-104185714D01*
X116130952Y-104233333D01*
X116083333Y-104328571D01*
X116083333Y-104852381D01*
X121208805Y-96622381D02*
X121208805Y-95622381D01*
X120970710Y-95622381D01*
X120827852Y-95670000D01*
X120732614Y-95765238D01*
X120684995Y-95860476D01*
X120637376Y-96050952D01*
X120637376Y-96193810D01*
X120684995Y-96384286D01*
X120732614Y-96479524D01*
X120827852Y-96574762D01*
X120970710Y-96622381D01*
X121208805Y-96622381D01*
X120446900Y-96717619D02*
X119684995Y-96717619D01*
X119494519Y-96574762D02*
X119351662Y-96622381D01*
X119113566Y-96622381D01*
X119018328Y-96574762D01*
X118970709Y-96527143D01*
X118923090Y-96431905D01*
X118923090Y-96336667D01*
X118970709Y-96241429D01*
X119018328Y-96193810D01*
X119113566Y-96146190D01*
X119304043Y-96098571D01*
X119399281Y-96050952D01*
X119446900Y-96003333D01*
X119494519Y-95908095D01*
X119494519Y-95812857D01*
X119446900Y-95717619D01*
X119399281Y-95670000D01*
X119304043Y-95622381D01*
X119065947Y-95622381D01*
X118923090Y-95670000D01*
X118065947Y-96574762D02*
X118161185Y-96622381D01*
X118351662Y-96622381D01*
X118446900Y-96574762D01*
X118494519Y-96527143D01*
X118542138Y-96431905D01*
X118542138Y-96146190D01*
X118494519Y-96050952D01*
X118446900Y-96003333D01*
X118351662Y-95955714D01*
X118161185Y-95955714D01*
X118065947Y-96003333D01*
X117637376Y-96622381D02*
X117637376Y-95622381D01*
X117208804Y-96622381D02*
X117208804Y-96098571D01*
X117256423Y-96003333D01*
X117351661Y-95955714D01*
X117494519Y-95955714D01*
X117589757Y-96003333D01*
X117637376Y-96050952D01*
X116589757Y-96622381D02*
X116684995Y-96574762D01*
X116732614Y-96527143D01*
X116780233Y-96431905D01*
X116780233Y-96146190D01*
X116732614Y-96050952D01*
X116684995Y-96003333D01*
X116589757Y-95955714D01*
X116446899Y-95955714D01*
X116351661Y-96003333D01*
X116304042Y-96050952D01*
X116256423Y-96146190D01*
X116256423Y-96431905D01*
X116304042Y-96527143D01*
X116351661Y-96574762D01*
X116446899Y-96622381D01*
X116589757Y-96622381D01*
X115970709Y-95955714D02*
X115589757Y-95955714D01*
X115827852Y-95622381D02*
X115827852Y-96479524D01*
X115780233Y-96574762D01*
X115684995Y-96622381D01*
X115589757Y-96622381D01*
X115399280Y-95955714D02*
X115018328Y-95955714D01*
X115256423Y-95622381D02*
X115256423Y-96479524D01*
X115208804Y-96574762D01*
X115113566Y-96622381D01*
X115018328Y-96622381D01*
X114684994Y-96622381D02*
X114684994Y-95622381D01*
X114589756Y-96241429D02*
X114304041Y-96622381D01*
X114304041Y-95955714D02*
X114684994Y-96336667D01*
X113970708Y-95955714D02*
X113732613Y-96622381D01*
X113494517Y-95955714D02*
X113732613Y-96622381D01*
X113827851Y-96860476D01*
X113875470Y-96908095D01*
X113970708Y-96955714D01*
X125602381Y-110709524D02*
X125602381Y-110138095D01*
X125602381Y-110423809D02*
X124602381Y-110423809D01*
X124745238Y-110328571D01*
X124840476Y-110233333D01*
X124888095Y-110138095D01*
X124602381Y-111328571D02*
X124602381Y-111423810D01*
X124650000Y-111519048D01*
X124697619Y-111566667D01*
X124792857Y-111614286D01*
X124983333Y-111661905D01*
X125221429Y-111661905D01*
X125411905Y-111614286D01*
X125507143Y-111566667D01*
X125554762Y-111519048D01*
X125602381Y-111423810D01*
X125602381Y-111328571D01*
X125554762Y-111233333D01*
X125507143Y-111185714D01*
X125411905Y-111138095D01*
X125221429Y-111090476D01*
X124983333Y-111090476D01*
X124792857Y-111138095D01*
X124697619Y-111185714D01*
X124650000Y-111233333D01*
X124602381Y-111328571D01*
X125602381Y-112090476D02*
X124602381Y-112090476D01*
X125602381Y-112661905D02*
X125030952Y-112233333D01*
X124602381Y-112661905D02*
X125173810Y-112090476D01*
X125302381Y-109376191D02*
X125302381Y-109995239D01*
X125683333Y-109661905D01*
X125683333Y-109804763D01*
X125730952Y-109900001D01*
X125778571Y-109947620D01*
X125873810Y-109995239D01*
X126111905Y-109995239D01*
X126207143Y-109947620D01*
X126254762Y-109900001D01*
X126302381Y-109804763D01*
X126302381Y-109519048D01*
X126254762Y-109423810D01*
X126207143Y-109376191D01*
X126207143Y-110423810D02*
X126254762Y-110471429D01*
X126302381Y-110423810D01*
X126254762Y-110376191D01*
X126207143Y-110423810D01*
X126302381Y-110423810D01*
X125397619Y-110852381D02*
X125350000Y-110900000D01*
X125302381Y-110995238D01*
X125302381Y-111233334D01*
X125350000Y-111328572D01*
X125397619Y-111376191D01*
X125492857Y-111423810D01*
X125588095Y-111423810D01*
X125730952Y-111376191D01*
X126302381Y-110804762D01*
X126302381Y-111423810D01*
X125635714Y-112280953D02*
X126302381Y-112280953D01*
X125254762Y-112042857D02*
X125969048Y-111804762D01*
X125969048Y-112423810D01*
X126302381Y-112804762D02*
X125302381Y-112804762D01*
X126302381Y-113376191D02*
X125730952Y-112947619D01*
X125302381Y-113376191D02*
X125873810Y-112804762D01*
X125872381Y-101203581D02*
X125872381Y-100632152D01*
X125872381Y-100917866D02*
X124872381Y-100917866D01*
X125015238Y-100822628D01*
X125110476Y-100727390D01*
X125158095Y-100632152D01*
X125300952Y-101775009D02*
X125253333Y-101679771D01*
X125205714Y-101632152D01*
X125110476Y-101584533D01*
X125062857Y-101584533D01*
X124967619Y-101632152D01*
X124920000Y-101679771D01*
X124872381Y-101775009D01*
X124872381Y-101965486D01*
X124920000Y-102060724D01*
X124967619Y-102108343D01*
X125062857Y-102155962D01*
X125110476Y-102155962D01*
X125205714Y-102108343D01*
X125253333Y-102060724D01*
X125300952Y-101965486D01*
X125300952Y-101775009D01*
X125348571Y-101679771D01*
X125396190Y-101632152D01*
X125491429Y-101584533D01*
X125681905Y-101584533D01*
X125777143Y-101632152D01*
X125824762Y-101679771D01*
X125872381Y-101775009D01*
X125872381Y-101965486D01*
X125824762Y-102060724D01*
X125777143Y-102108343D01*
X125681905Y-102155962D01*
X125491429Y-102155962D01*
X125396190Y-102108343D01*
X125348571Y-102060724D01*
X125300952Y-101965486D01*
X124872381Y-102775009D02*
X124872381Y-102870248D01*
X124920000Y-102965486D01*
X124967619Y-103013105D01*
X125062857Y-103060724D01*
X125253333Y-103108343D01*
X125491429Y-103108343D01*
X125681905Y-103060724D01*
X125777143Y-103013105D01*
X125824762Y-102965486D01*
X125872381Y-102870248D01*
X125872381Y-102775009D01*
X125824762Y-102679771D01*
X125777143Y-102632152D01*
X125681905Y-102584533D01*
X125491429Y-102536914D01*
X125253333Y-102536914D01*
X125062857Y-102584533D01*
X124967619Y-102632152D01*
X124920000Y-102679771D01*
X124872381Y-102775009D01*
X125205714Y-103965486D02*
X125872381Y-103965486D01*
X125205714Y-103536914D02*
X125729524Y-103536914D01*
X125824762Y-103584533D01*
X125872381Y-103679771D01*
X125872381Y-103822629D01*
X125824762Y-103917867D01*
X125777143Y-103965486D01*
X125348571Y-104775010D02*
X125348571Y-104441676D01*
X125872381Y-104441676D02*
X124872381Y-104441676D01*
X124872381Y-104917867D01*
X151852381Y-94928572D02*
X151852381Y-94357143D01*
X151852381Y-94642857D02*
X150852381Y-94642857D01*
X150995238Y-94547619D01*
X151090476Y-94452381D01*
X151138095Y-94357143D01*
X150852381Y-95547619D02*
X150852381Y-95642858D01*
X150900000Y-95738096D01*
X150947619Y-95785715D01*
X151042857Y-95833334D01*
X151233333Y-95880953D01*
X151471429Y-95880953D01*
X151661905Y-95833334D01*
X151757143Y-95785715D01*
X151804762Y-95738096D01*
X151852381Y-95642858D01*
X151852381Y-95547619D01*
X151804762Y-95452381D01*
X151757143Y-95404762D01*
X151661905Y-95357143D01*
X151471429Y-95309524D01*
X151233333Y-95309524D01*
X151042857Y-95357143D01*
X150947619Y-95404762D01*
X150900000Y-95452381D01*
X150852381Y-95547619D01*
X151185714Y-96738096D02*
X151852381Y-96738096D01*
X151185714Y-96309524D02*
X151709524Y-96309524D01*
X151804762Y-96357143D01*
X151852381Y-96452381D01*
X151852381Y-96595239D01*
X151804762Y-96690477D01*
X151757143Y-96738096D01*
X151328571Y-97547620D02*
X151328571Y-97214286D01*
X151852381Y-97214286D02*
X150852381Y-97214286D01*
X150852381Y-97690477D01*
M02*
