G04 #@! TF.FileFunction,Drawing*
%FSLAX46Y46*%
G04 Gerber Fmt 4.6, Leading zero omitted, Abs format (unit mm)*
G04 Created by KiCad (PCBNEW 4.0.1-stable) date 17.05.2016 13:35:18*
%MOMM*%
G01*
G04 APERTURE LIST*
%ADD10C,0.100000*%
%ADD11C,0.152400*%
G04 APERTURE END LIST*
D10*
D11*
X119231200Y-109323600D02*
X119231200Y-108866400D01*
X119231200Y-108866400D02*
X120348800Y-108866400D01*
X120348800Y-108866400D02*
X120348800Y-109349000D01*
X120348800Y-109349000D02*
X119231200Y-109323600D01*
X119231200Y-110593600D02*
X119231200Y-110136400D01*
X119231200Y-110136400D02*
X120348800Y-110136400D01*
X120348800Y-110136400D02*
X120348800Y-110619000D01*
X120348800Y-110619000D02*
X119231200Y-110593600D01*
X119231200Y-111863600D02*
X119231200Y-111406400D01*
X119231200Y-111406400D02*
X120348800Y-111406400D01*
X120348800Y-111406400D02*
X120348800Y-111889000D01*
X120348800Y-111889000D02*
X119231200Y-111863600D01*
X119231200Y-113133600D02*
X119231200Y-112676400D01*
X119231200Y-112676400D02*
X120348800Y-112676400D01*
X120348800Y-112676400D02*
X120348800Y-113159000D01*
X120348800Y-113159000D02*
X119231200Y-113133600D01*
X115268800Y-112676400D02*
X115268800Y-113133600D01*
X115268800Y-113133600D02*
X114151200Y-113133600D01*
X114151200Y-113133600D02*
X114151200Y-112651000D01*
X114151200Y-112651000D02*
X115268800Y-112676400D01*
X115268800Y-111406400D02*
X115268800Y-111863600D01*
X115268800Y-111863600D02*
X114151200Y-111863600D01*
X114151200Y-111863600D02*
X114151200Y-111381000D01*
X114151200Y-111381000D02*
X115268800Y-111406400D01*
X115268800Y-110136400D02*
X115268800Y-110593600D01*
X115268800Y-110593600D02*
X114151200Y-110593600D01*
X114151200Y-110593600D02*
X114151200Y-110111000D01*
X114151200Y-110111000D02*
X115268800Y-110136400D01*
X115268800Y-108866400D02*
X115268800Y-109323600D01*
X115268800Y-109323600D02*
X114151200Y-109323600D01*
X114151200Y-109323600D02*
X114151200Y-108841000D01*
X114151200Y-108841000D02*
X115268800Y-108866400D01*
X119231200Y-108510800D02*
X119231200Y-113489200D01*
X115268800Y-108510800D02*
X116945200Y-108510800D01*
X116945200Y-108510800D02*
X117554800Y-108510800D01*
X117554800Y-108510800D02*
X119231200Y-108510800D01*
X115268800Y-113489200D02*
X115268800Y-108510800D01*
X119231200Y-113489200D02*
X115268800Y-113489200D01*
X116945200Y-108510800D02*
G75*
G03X117554800Y-108510800I304800J0D01*
G01*
M02*
