G04 #@! TF.FileFunction,Legend,Bot*
%FSLAX46Y46*%
G04 Gerber Fmt 4.6, Leading zero omitted, Abs format (unit mm)*
G04 Created by KiCad (PCBNEW 4.0.1-stable) date 17.05.2016 13:35:17*
%MOMM*%
G01*
G04 APERTURE LIST*
%ADD10C,0.100000*%
%ADD11C,0.150000*%
%ADD12C,0.152400*%
%ADD13C,0.050000*%
G04 APERTURE END LIST*
D10*
D11*
X90638000Y-112068000D02*
X89876000Y-112068000D01*
X89876000Y-112068000D02*
X89876000Y-103432000D01*
X89876000Y-103432000D02*
X90638000Y-103432000D01*
X93686000Y-112068000D02*
X93686000Y-103432000D01*
X103338000Y-112068000D02*
X103338000Y-103432000D01*
X90638000Y-103432000D02*
X103338000Y-103432000D01*
X90638000Y-112068000D02*
X103338000Y-112068000D01*
X164250000Y-73450000D02*
G75*
G03X164250000Y-73450000I-100000J0D01*
G01*
X163900000Y-72900000D02*
X163900000Y-73400000D01*
X161000000Y-72900000D02*
X163900000Y-72900000D01*
X161000000Y-73400000D02*
X161000000Y-72900000D01*
X163900000Y-73400000D02*
X161000000Y-73400000D01*
X103398980Y-87616000D02*
X94762980Y-87616000D01*
X111780980Y-87616000D02*
X106700980Y-87616000D01*
X103398980Y-75424000D02*
X94762980Y-75424000D01*
X111780980Y-75424000D02*
X106700980Y-75424000D01*
X94762980Y-75424000D02*
X94762980Y-87616000D01*
X111780980Y-87616000D02*
X111780980Y-75424000D01*
X132760000Y-62350000D02*
X132760000Y-59300000D01*
X127040000Y-62350000D02*
X127040000Y-59300000D01*
X127040000Y-62350000D02*
X132760000Y-62350000D01*
X127040000Y-53500000D02*
X127040000Y-49336500D01*
X127040000Y-49336500D02*
X132760000Y-49336500D01*
X132760000Y-53500000D02*
X132760000Y-49336500D01*
X152760000Y-62350000D02*
X152760000Y-59300000D01*
X147040000Y-62350000D02*
X147040000Y-59300000D01*
X147040000Y-62350000D02*
X152760000Y-62350000D01*
X147040000Y-53500000D02*
X147040000Y-49336500D01*
X147040000Y-49336500D02*
X152760000Y-49336500D01*
X152760000Y-53500000D02*
X152760000Y-49336500D01*
X162760000Y-62350000D02*
X162760000Y-59300000D01*
X157040000Y-62350000D02*
X157040000Y-59300000D01*
X157040000Y-62350000D02*
X162760000Y-62350000D01*
X157040000Y-53500000D02*
X157040000Y-49336500D01*
X157040000Y-49336500D02*
X162760000Y-49336500D01*
X162760000Y-53500000D02*
X162760000Y-49336500D01*
X142760000Y-62350000D02*
X142760000Y-59300000D01*
X137040000Y-62350000D02*
X137040000Y-59300000D01*
X137040000Y-62350000D02*
X142760000Y-62350000D01*
X137040000Y-53500000D02*
X137040000Y-49336500D01*
X137040000Y-49336500D02*
X142760000Y-49336500D01*
X142760000Y-53500000D02*
X142760000Y-49336500D01*
X122760000Y-62350000D02*
X122760000Y-59300000D01*
X117040000Y-62350000D02*
X117040000Y-59300000D01*
X117040000Y-62350000D02*
X122760000Y-62350000D01*
X117040000Y-53500000D02*
X117040000Y-49336500D01*
X117040000Y-49336500D02*
X122760000Y-49336500D01*
X122760000Y-53500000D02*
X122760000Y-49336500D01*
X112760000Y-62350000D02*
X112760000Y-59300000D01*
X107040000Y-62350000D02*
X107040000Y-59300000D01*
X107040000Y-62350000D02*
X112760000Y-62350000D01*
X107040000Y-53500000D02*
X107040000Y-49336500D01*
X107040000Y-49336500D02*
X112760000Y-49336500D01*
X112760000Y-53500000D02*
X112760000Y-49336500D01*
X104964888Y-94524904D02*
G75*
G02X104980000Y-91500000I-2484888J1524904D01*
G01*
X104980000Y-94500000D02*
X104980000Y-91500000D01*
X104997936Y-93000000D02*
G75*
G03X104997936Y-93000000I-2517936J0D01*
G01*
X151150000Y-77000000D02*
X151150000Y-76000000D01*
X152850000Y-76000000D02*
X152850000Y-77000000D01*
X153500000Y-101100000D02*
X152500000Y-101100000D01*
X152500000Y-99400000D02*
X153500000Y-99400000D01*
X146000000Y-84850000D02*
X145000000Y-84850000D01*
X145000000Y-83150000D02*
X146000000Y-83150000D01*
X151150000Y-68750000D02*
X151150000Y-67750000D01*
X152850000Y-67750000D02*
X152850000Y-68750000D01*
X158150000Y-78250000D02*
X158150000Y-77250000D01*
X159850000Y-77250000D02*
X159850000Y-78250000D01*
X143900000Y-75750000D02*
X143900000Y-74750000D01*
X145600000Y-74750000D02*
X145600000Y-75750000D01*
X158150000Y-70000000D02*
X158150000Y-69000000D01*
X159850000Y-69000000D02*
X159850000Y-70000000D01*
X143900000Y-67500000D02*
X143900000Y-66500000D01*
X145600000Y-66500000D02*
X145600000Y-67500000D01*
X146150000Y-80875000D02*
X144950000Y-80875000D01*
X144950000Y-82625000D02*
X146150000Y-82625000D01*
X146300000Y-85375000D02*
X145100000Y-85375000D01*
X145100000Y-87125000D02*
X146300000Y-87125000D01*
X155375000Y-77150000D02*
X155375000Y-75950000D01*
X153625000Y-75950000D02*
X153625000Y-77150000D01*
X152875000Y-72550000D02*
X152875000Y-71350000D01*
X151125000Y-71350000D02*
X151125000Y-72550000D01*
X154700000Y-69625000D02*
X155900000Y-69625000D01*
X155900000Y-67875000D02*
X154700000Y-67875000D01*
X162375000Y-78300000D02*
X162375000Y-77100000D01*
X160625000Y-77100000D02*
X160625000Y-78300000D01*
X148125000Y-75800000D02*
X148125000Y-74600000D01*
X146375000Y-74600000D02*
X146375000Y-75800000D01*
X159875000Y-73900000D02*
X159875000Y-72700000D01*
X158125000Y-72700000D02*
X158125000Y-73900000D01*
X161850000Y-70875000D02*
X163050000Y-70875000D01*
X163050000Y-69125000D02*
X161850000Y-69125000D01*
X145625000Y-71300000D02*
X145625000Y-70100000D01*
X143875000Y-70100000D02*
X143875000Y-71300000D01*
X147700000Y-68375000D02*
X148900000Y-68375000D01*
X148900000Y-66625000D02*
X147700000Y-66625000D01*
X159424000Y-101306000D02*
X156376000Y-101306000D01*
X156376000Y-101306000D02*
X156376000Y-94194000D01*
X156376000Y-94194000D02*
X159424000Y-94194000D01*
X162472000Y-101306000D02*
X163234000Y-101306000D01*
X163234000Y-101306000D02*
X165520000Y-99782000D01*
X165520000Y-99782000D02*
X165520000Y-95718000D01*
X165520000Y-95718000D02*
X163234000Y-94194000D01*
X163234000Y-94194000D02*
X162472000Y-94194000D01*
X157100000Y-72200000D02*
G75*
G03X157100000Y-72200000I-100000J0D01*
G01*
X156750000Y-71650000D02*
X156750000Y-72150000D01*
X153850000Y-71650000D02*
X156750000Y-71650000D01*
X153850000Y-72150000D02*
X153850000Y-71650000D01*
X156750000Y-72150000D02*
X153850000Y-72150000D01*
X150100000Y-70950000D02*
G75*
G03X150100000Y-70950000I-100000J0D01*
G01*
X149750000Y-70400000D02*
X149750000Y-70900000D01*
X146850000Y-70400000D02*
X149750000Y-70400000D01*
X146850000Y-70900000D02*
X146850000Y-70400000D01*
X149750000Y-70900000D02*
X146850000Y-70900000D01*
X138467000Y-110163000D02*
X137197000Y-110163000D01*
X137197000Y-110163000D02*
X137197000Y-104321000D01*
X137197000Y-104321000D02*
X138467000Y-104321000D01*
X158533000Y-110163000D02*
X159803000Y-110163000D01*
X158533000Y-104321000D02*
X159803000Y-104321000D01*
X159803000Y-110163000D02*
X159803000Y-104321000D01*
X138467000Y-104321000D02*
X158533000Y-104321000D01*
X158533000Y-110163000D02*
X138467000Y-110163000D01*
X161071000Y-100880000D02*
X161071000Y-111040000D01*
X166913000Y-111040000D02*
X166913000Y-100880000D01*
X166913000Y-100880000D02*
X161071000Y-100880000D01*
X166913000Y-111040000D02*
X161071000Y-111040000D01*
X107225000Y-112500000D02*
X107225000Y-110500000D01*
X109275000Y-110500000D02*
X109275000Y-112500000D01*
X109975000Y-112500000D02*
X109975000Y-110500000D01*
X112025000Y-110500000D02*
X112025000Y-112500000D01*
X117750000Y-107350000D02*
X116750000Y-107350000D01*
X116750000Y-105650000D02*
X117750000Y-105650000D01*
X116703320Y-99050360D02*
X115801620Y-99050360D01*
X118001260Y-99050360D02*
X118999480Y-99050360D01*
X114249820Y-97848940D02*
X114249820Y-99050360D01*
X114249820Y-104651060D02*
X114249820Y-103449640D01*
X120998460Y-97848940D02*
X120998460Y-99050360D01*
X120998460Y-104651060D02*
X120998460Y-103449640D01*
X113800100Y-97848940D02*
X113800100Y-99101160D01*
X113800100Y-104651060D02*
X113800100Y-103398840D01*
X116703320Y-99850460D02*
X116703320Y-98250260D01*
X117851400Y-98301060D02*
X117851400Y-99850460D01*
X116700780Y-99050360D02*
X117851400Y-98301060D01*
X116703320Y-99050360D02*
X117853940Y-99850460D01*
X113800100Y-97848940D02*
X120998460Y-97848940D01*
X113800100Y-104651060D02*
X120998460Y-104651060D01*
X126375000Y-110800000D02*
X126375000Y-112000000D01*
X128125000Y-112000000D02*
X128125000Y-110800000D01*
X124625000Y-112000000D02*
X124625000Y-110800000D01*
X122875000Y-110800000D02*
X122875000Y-112000000D01*
D12*
X115116400Y-108383800D02*
X119383600Y-108383800D01*
X119383600Y-113616200D02*
X115116400Y-113616200D01*
D11*
X131516000Y-106561200D02*
X129484000Y-106561200D01*
X129103000Y-106434200D02*
X131897000Y-106434200D01*
X132151000Y-106307200D02*
X128849000Y-106307200D01*
X128595000Y-106180200D02*
X132405000Y-106180200D01*
X128468000Y-106053200D02*
X132532000Y-106053200D01*
X132786000Y-105926200D02*
X128214000Y-105926200D01*
X134691000Y-106942200D02*
X126309000Y-106942200D01*
X126309000Y-106942200D02*
X126309000Y-99322200D01*
X126309000Y-99322200D02*
X127071000Y-98560200D01*
X127071000Y-98560200D02*
X133929000Y-98560200D01*
X133929000Y-98560200D02*
X134691000Y-99322200D01*
X134691000Y-99322200D02*
X134691000Y-106942200D01*
X130500000Y-99068200D02*
X130500000Y-99830200D01*
X130881000Y-99449200D02*
X130119000Y-99449200D01*
X134437000Y-102751200D02*
G75*
G03X134437000Y-102751200I-3937000J0D01*
G01*
X154350000Y-95500000D02*
X154350000Y-96500000D01*
X152650000Y-96500000D02*
X152650000Y-95500000D01*
X99218285Y-113695143D02*
X99265904Y-113742762D01*
X99408761Y-113790381D01*
X99503999Y-113790381D01*
X99646857Y-113742762D01*
X99742095Y-113647524D01*
X99789714Y-113552286D01*
X99837333Y-113361810D01*
X99837333Y-113218952D01*
X99789714Y-113028476D01*
X99742095Y-112933238D01*
X99646857Y-112838000D01*
X99503999Y-112790381D01*
X99408761Y-112790381D01*
X99265904Y-112838000D01*
X99218285Y-112885619D01*
X98599238Y-112790381D02*
X98408761Y-112790381D01*
X98313523Y-112838000D01*
X98218285Y-112933238D01*
X98170666Y-113123714D01*
X98170666Y-113457048D01*
X98218285Y-113647524D01*
X98313523Y-113742762D01*
X98408761Y-113790381D01*
X98599238Y-113790381D01*
X98694476Y-113742762D01*
X98789714Y-113647524D01*
X98837333Y-113457048D01*
X98837333Y-113123714D01*
X98789714Y-112933238D01*
X98694476Y-112838000D01*
X98599238Y-112790381D01*
X97742095Y-113790381D02*
X97742095Y-112790381D01*
X97170666Y-113790381D01*
X97170666Y-112790381D01*
X96170666Y-113790381D02*
X96742095Y-113790381D01*
X96456381Y-113790381D02*
X96456381Y-112790381D01*
X96551619Y-112933238D01*
X96646857Y-113028476D01*
X96742095Y-113076095D01*
X164452381Y-72438095D02*
X165261905Y-72438095D01*
X165357143Y-72485714D01*
X165404762Y-72533333D01*
X165452381Y-72628571D01*
X165452381Y-72819048D01*
X165404762Y-72914286D01*
X165357143Y-72961905D01*
X165261905Y-73009524D01*
X164452381Y-73009524D01*
X164452381Y-73390476D02*
X164452381Y-74009524D01*
X164833333Y-73676190D01*
X164833333Y-73819048D01*
X164880952Y-73914286D01*
X164928571Y-73961905D01*
X165023810Y-74009524D01*
X165261905Y-74009524D01*
X165357143Y-73961905D01*
X165404762Y-73914286D01*
X165452381Y-73819048D01*
X165452381Y-73533333D01*
X165404762Y-73438095D01*
X165357143Y-73390476D01*
X113702381Y-80035714D02*
X112702381Y-80035714D01*
X112702381Y-80416667D01*
X112750000Y-80511905D01*
X112797619Y-80559524D01*
X112892857Y-80607143D01*
X113035714Y-80607143D01*
X113130952Y-80559524D01*
X113178571Y-80511905D01*
X113226190Y-80416667D01*
X113226190Y-80035714D01*
X113702381Y-81559524D02*
X113702381Y-80988095D01*
X113702381Y-81273809D02*
X112702381Y-81273809D01*
X112845238Y-81178571D01*
X112940476Y-81083333D01*
X112988095Y-80988095D01*
X112702381Y-82178571D02*
X112702381Y-82273810D01*
X112750000Y-82369048D01*
X112797619Y-82416667D01*
X112892857Y-82464286D01*
X113083333Y-82511905D01*
X113321429Y-82511905D01*
X113511905Y-82464286D01*
X113607143Y-82416667D01*
X113654762Y-82369048D01*
X113702381Y-82273810D01*
X113702381Y-82178571D01*
X113654762Y-82083333D01*
X113607143Y-82035714D01*
X113511905Y-81988095D01*
X113321429Y-81940476D01*
X113083333Y-81940476D01*
X112892857Y-81988095D01*
X112797619Y-82035714D01*
X112750000Y-82083333D01*
X112702381Y-82178571D01*
X135488095Y-50202381D02*
X135488095Y-49202381D01*
X135107142Y-49202381D01*
X135011904Y-49250000D01*
X134964285Y-49297619D01*
X134916666Y-49392857D01*
X134916666Y-49535714D01*
X134964285Y-49630952D01*
X135011904Y-49678571D01*
X135107142Y-49726190D01*
X135488095Y-49726190D01*
X134535714Y-49297619D02*
X134488095Y-49250000D01*
X134392857Y-49202381D01*
X134154761Y-49202381D01*
X134059523Y-49250000D01*
X134011904Y-49297619D01*
X133964285Y-49392857D01*
X133964285Y-49488095D01*
X134011904Y-49630952D01*
X134583333Y-50202381D01*
X133964285Y-50202381D01*
X155238095Y-50202381D02*
X155238095Y-49202381D01*
X154857142Y-49202381D01*
X154761904Y-49250000D01*
X154714285Y-49297619D01*
X154666666Y-49392857D01*
X154666666Y-49535714D01*
X154714285Y-49630952D01*
X154761904Y-49678571D01*
X154857142Y-49726190D01*
X155238095Y-49726190D01*
X154333333Y-49202381D02*
X153714285Y-49202381D01*
X154047619Y-49583333D01*
X153904761Y-49583333D01*
X153809523Y-49630952D01*
X153761904Y-49678571D01*
X153714285Y-49773810D01*
X153714285Y-50011905D01*
X153761904Y-50107143D01*
X153809523Y-50154762D01*
X153904761Y-50202381D01*
X154190476Y-50202381D01*
X154285714Y-50154762D01*
X154333333Y-50107143D01*
X165238095Y-50202381D02*
X165238095Y-49202381D01*
X164857142Y-49202381D01*
X164761904Y-49250000D01*
X164714285Y-49297619D01*
X164666666Y-49392857D01*
X164666666Y-49535714D01*
X164714285Y-49630952D01*
X164761904Y-49678571D01*
X164857142Y-49726190D01*
X165238095Y-49726190D01*
X163761904Y-49202381D02*
X164238095Y-49202381D01*
X164285714Y-49678571D01*
X164238095Y-49630952D01*
X164142857Y-49583333D01*
X163904761Y-49583333D01*
X163809523Y-49630952D01*
X163761904Y-49678571D01*
X163714285Y-49773810D01*
X163714285Y-50011905D01*
X163761904Y-50107143D01*
X163809523Y-50154762D01*
X163904761Y-50202381D01*
X164142857Y-50202381D01*
X164238095Y-50154762D01*
X164285714Y-50107143D01*
X145238095Y-50202381D02*
X145238095Y-49202381D01*
X144857142Y-49202381D01*
X144761904Y-49250000D01*
X144714285Y-49297619D01*
X144666666Y-49392857D01*
X144666666Y-49535714D01*
X144714285Y-49630952D01*
X144761904Y-49678571D01*
X144857142Y-49726190D01*
X145238095Y-49726190D01*
X143809523Y-49202381D02*
X144000000Y-49202381D01*
X144095238Y-49250000D01*
X144142857Y-49297619D01*
X144238095Y-49440476D01*
X144285714Y-49630952D01*
X144285714Y-50011905D01*
X144238095Y-50107143D01*
X144190476Y-50154762D01*
X144095238Y-50202381D01*
X143904761Y-50202381D01*
X143809523Y-50154762D01*
X143761904Y-50107143D01*
X143714285Y-50011905D01*
X143714285Y-49773810D01*
X143761904Y-49678571D01*
X143809523Y-49630952D01*
X143904761Y-49583333D01*
X144095238Y-49583333D01*
X144190476Y-49630952D01*
X144238095Y-49678571D01*
X144285714Y-49773810D01*
X124988095Y-50202381D02*
X124988095Y-49202381D01*
X124607142Y-49202381D01*
X124511904Y-49250000D01*
X124464285Y-49297619D01*
X124416666Y-49392857D01*
X124416666Y-49535714D01*
X124464285Y-49630952D01*
X124511904Y-49678571D01*
X124607142Y-49726190D01*
X124988095Y-49726190D01*
X123559523Y-49535714D02*
X123559523Y-50202381D01*
X123797619Y-49154762D02*
X124035714Y-49869048D01*
X123416666Y-49869048D01*
X115488095Y-50202381D02*
X115488095Y-49202381D01*
X115107142Y-49202381D01*
X115011904Y-49250000D01*
X114964285Y-49297619D01*
X114916666Y-49392857D01*
X114916666Y-49535714D01*
X114964285Y-49630952D01*
X115011904Y-49678571D01*
X115107142Y-49726190D01*
X115488095Y-49726190D01*
X113964285Y-50202381D02*
X114535714Y-50202381D01*
X114250000Y-50202381D02*
X114250000Y-49202381D01*
X114345238Y-49345238D01*
X114440476Y-49440476D01*
X114535714Y-49488095D01*
X102964095Y-97516381D02*
X102964095Y-96516381D01*
X102726000Y-96516381D01*
X102583142Y-96564000D01*
X102487904Y-96659238D01*
X102440285Y-96754476D01*
X102392666Y-96944952D01*
X102392666Y-97087810D01*
X102440285Y-97278286D01*
X102487904Y-97373524D01*
X102583142Y-97468762D01*
X102726000Y-97516381D01*
X102964095Y-97516381D01*
X101440285Y-97516381D02*
X102011714Y-97516381D01*
X101726000Y-97516381D02*
X101726000Y-96516381D01*
X101821238Y-96659238D01*
X101916476Y-96754476D01*
X102011714Y-96802095D01*
X106011905Y-95702381D02*
X106011905Y-94702381D01*
X105440476Y-95702381D02*
X105869048Y-95130952D01*
X105440476Y-94702381D02*
X106011905Y-95273810D01*
X150557143Y-76683334D02*
X150604762Y-76635715D01*
X150652381Y-76492858D01*
X150652381Y-76397620D01*
X150604762Y-76254762D01*
X150509524Y-76159524D01*
X150414286Y-76111905D01*
X150223810Y-76064286D01*
X150080952Y-76064286D01*
X149890476Y-76111905D01*
X149795238Y-76159524D01*
X149700000Y-76254762D01*
X149652381Y-76397620D01*
X149652381Y-76492858D01*
X149700000Y-76635715D01*
X149747619Y-76683334D01*
X149747619Y-77064286D02*
X149700000Y-77111905D01*
X149652381Y-77207143D01*
X149652381Y-77445239D01*
X149700000Y-77540477D01*
X149747619Y-77588096D01*
X149842857Y-77635715D01*
X149938095Y-77635715D01*
X150080952Y-77588096D01*
X150652381Y-77016667D01*
X150652381Y-77635715D01*
X153216666Y-102607143D02*
X153264285Y-102654762D01*
X153407142Y-102702381D01*
X153502380Y-102702381D01*
X153645238Y-102654762D01*
X153740476Y-102559524D01*
X153788095Y-102464286D01*
X153835714Y-102273810D01*
X153835714Y-102130952D01*
X153788095Y-101940476D01*
X153740476Y-101845238D01*
X153645238Y-101750000D01*
X153502380Y-101702381D01*
X153407142Y-101702381D01*
X153264285Y-101750000D01*
X153216666Y-101797619D01*
X152311904Y-101702381D02*
X152788095Y-101702381D01*
X152835714Y-102178571D01*
X152788095Y-102130952D01*
X152692857Y-102083333D01*
X152454761Y-102083333D01*
X152359523Y-102130952D01*
X152311904Y-102178571D01*
X152264285Y-102273810D01*
X152264285Y-102511905D01*
X152311904Y-102607143D01*
X152359523Y-102654762D01*
X152454761Y-102702381D01*
X152692857Y-102702381D01*
X152788095Y-102654762D01*
X152835714Y-102607143D01*
X148416666Y-84357143D02*
X148464285Y-84404762D01*
X148607142Y-84452381D01*
X148702380Y-84452381D01*
X148845238Y-84404762D01*
X148940476Y-84309524D01*
X148988095Y-84214286D01*
X149035714Y-84023810D01*
X149035714Y-83880952D01*
X148988095Y-83690476D01*
X148940476Y-83595238D01*
X148845238Y-83500000D01*
X148702380Y-83452381D01*
X148607142Y-83452381D01*
X148464285Y-83500000D01*
X148416666Y-83547619D01*
X148083333Y-83452381D02*
X147416666Y-83452381D01*
X147845238Y-84452381D01*
X152357143Y-64107143D02*
X152404762Y-64059524D01*
X152452381Y-63916667D01*
X152452381Y-63821429D01*
X152404762Y-63678571D01*
X152309524Y-63583333D01*
X152214286Y-63535714D01*
X152023810Y-63488095D01*
X151880952Y-63488095D01*
X151690476Y-63535714D01*
X151595238Y-63583333D01*
X151500000Y-63678571D01*
X151452381Y-63821429D01*
X151452381Y-63916667D01*
X151500000Y-64059524D01*
X151547619Y-64107143D01*
X152452381Y-65059524D02*
X152452381Y-64488095D01*
X152452381Y-64773809D02*
X151452381Y-64773809D01*
X151595238Y-64678571D01*
X151690476Y-64583333D01*
X151738095Y-64488095D01*
X151452381Y-65678571D02*
X151452381Y-65773810D01*
X151500000Y-65869048D01*
X151547619Y-65916667D01*
X151642857Y-65964286D01*
X151833333Y-66011905D01*
X152071429Y-66011905D01*
X152261905Y-65964286D01*
X152357143Y-65916667D01*
X152404762Y-65869048D01*
X152452381Y-65773810D01*
X152452381Y-65678571D01*
X152404762Y-65583333D01*
X152357143Y-65535714D01*
X152261905Y-65488095D01*
X152071429Y-65440476D01*
X151833333Y-65440476D01*
X151642857Y-65488095D01*
X151547619Y-65535714D01*
X151500000Y-65583333D01*
X151452381Y-65678571D01*
X157582143Y-77557143D02*
X157629762Y-77509524D01*
X157677381Y-77366667D01*
X157677381Y-77271429D01*
X157629762Y-77128571D01*
X157534524Y-77033333D01*
X157439286Y-76985714D01*
X157248810Y-76938095D01*
X157105952Y-76938095D01*
X156915476Y-76985714D01*
X156820238Y-77033333D01*
X156725000Y-77128571D01*
X156677381Y-77271429D01*
X156677381Y-77366667D01*
X156725000Y-77509524D01*
X156772619Y-77557143D01*
X157677381Y-78509524D02*
X157677381Y-77938095D01*
X157677381Y-78223809D02*
X156677381Y-78223809D01*
X156820238Y-78128571D01*
X156915476Y-78033333D01*
X156963095Y-77938095D01*
X156772619Y-78890476D02*
X156725000Y-78938095D01*
X156677381Y-79033333D01*
X156677381Y-79271429D01*
X156725000Y-79366667D01*
X156772619Y-79414286D01*
X156867857Y-79461905D01*
X156963095Y-79461905D01*
X157105952Y-79414286D01*
X157677381Y-78842857D01*
X157677381Y-79461905D01*
X143182143Y-74807143D02*
X143229762Y-74759524D01*
X143277381Y-74616667D01*
X143277381Y-74521429D01*
X143229762Y-74378571D01*
X143134524Y-74283333D01*
X143039286Y-74235714D01*
X142848810Y-74188095D01*
X142705952Y-74188095D01*
X142515476Y-74235714D01*
X142420238Y-74283333D01*
X142325000Y-74378571D01*
X142277381Y-74521429D01*
X142277381Y-74616667D01*
X142325000Y-74759524D01*
X142372619Y-74807143D01*
X143277381Y-75759524D02*
X143277381Y-75188095D01*
X143277381Y-75473809D02*
X142277381Y-75473809D01*
X142420238Y-75378571D01*
X142515476Y-75283333D01*
X142563095Y-75188095D01*
X142610714Y-76616667D02*
X143277381Y-76616667D01*
X142229762Y-76378571D02*
X142944048Y-76140476D01*
X142944048Y-76759524D01*
X159607143Y-65357143D02*
X159654762Y-65309524D01*
X159702381Y-65166667D01*
X159702381Y-65071429D01*
X159654762Y-64928571D01*
X159559524Y-64833333D01*
X159464286Y-64785714D01*
X159273810Y-64738095D01*
X159130952Y-64738095D01*
X158940476Y-64785714D01*
X158845238Y-64833333D01*
X158750000Y-64928571D01*
X158702381Y-65071429D01*
X158702381Y-65166667D01*
X158750000Y-65309524D01*
X158797619Y-65357143D01*
X159702381Y-66309524D02*
X159702381Y-65738095D01*
X159702381Y-66023809D02*
X158702381Y-66023809D01*
X158845238Y-65928571D01*
X158940476Y-65833333D01*
X158988095Y-65738095D01*
X158702381Y-67214286D02*
X158702381Y-66738095D01*
X159178571Y-66690476D01*
X159130952Y-66738095D01*
X159083333Y-66833333D01*
X159083333Y-67071429D01*
X159130952Y-67166667D01*
X159178571Y-67214286D01*
X159273810Y-67261905D01*
X159511905Y-67261905D01*
X159607143Y-67214286D01*
X159654762Y-67166667D01*
X159702381Y-67071429D01*
X159702381Y-66833333D01*
X159654762Y-66738095D01*
X159607143Y-66690476D01*
X143357143Y-66607143D02*
X143404762Y-66559524D01*
X143452381Y-66416667D01*
X143452381Y-66321429D01*
X143404762Y-66178571D01*
X143309524Y-66083333D01*
X143214286Y-66035714D01*
X143023810Y-65988095D01*
X142880952Y-65988095D01*
X142690476Y-66035714D01*
X142595238Y-66083333D01*
X142500000Y-66178571D01*
X142452381Y-66321429D01*
X142452381Y-66416667D01*
X142500000Y-66559524D01*
X142547619Y-66607143D01*
X143452381Y-67559524D02*
X143452381Y-66988095D01*
X143452381Y-67273809D02*
X142452381Y-67273809D01*
X142595238Y-67178571D01*
X142690476Y-67083333D01*
X142738095Y-66988095D01*
X142452381Y-67892857D02*
X142452381Y-68559524D01*
X143452381Y-68130952D01*
X148366666Y-82152381D02*
X148700000Y-81676190D01*
X148938095Y-82152381D02*
X148938095Y-81152381D01*
X148557142Y-81152381D01*
X148461904Y-81200000D01*
X148414285Y-81247619D01*
X148366666Y-81342857D01*
X148366666Y-81485714D01*
X148414285Y-81580952D01*
X148461904Y-81628571D01*
X148557142Y-81676190D01*
X148938095Y-81676190D01*
X147509523Y-81485714D02*
X147509523Y-82152381D01*
X147747619Y-81104762D02*
X147985714Y-81819048D01*
X147366666Y-81819048D01*
X148756666Y-86757381D02*
X149090000Y-86281190D01*
X149328095Y-86757381D02*
X149328095Y-85757381D01*
X148947142Y-85757381D01*
X148851904Y-85805000D01*
X148804285Y-85852619D01*
X148756666Y-85947857D01*
X148756666Y-86090714D01*
X148804285Y-86185952D01*
X148851904Y-86233571D01*
X148947142Y-86281190D01*
X149328095Y-86281190D01*
X147851904Y-85757381D02*
X148328095Y-85757381D01*
X148375714Y-86233571D01*
X148328095Y-86185952D01*
X148232857Y-86138333D01*
X147994761Y-86138333D01*
X147899523Y-86185952D01*
X147851904Y-86233571D01*
X147804285Y-86328810D01*
X147804285Y-86566905D01*
X147851904Y-86662143D01*
X147899523Y-86709762D01*
X147994761Y-86757381D01*
X148232857Y-86757381D01*
X148328095Y-86709762D01*
X148375714Y-86662143D01*
X156752381Y-76283334D02*
X156276190Y-75950000D01*
X156752381Y-75711905D02*
X155752381Y-75711905D01*
X155752381Y-76092858D01*
X155800000Y-76188096D01*
X155847619Y-76235715D01*
X155942857Y-76283334D01*
X156085714Y-76283334D01*
X156180952Y-76235715D01*
X156228571Y-76188096D01*
X156276190Y-76092858D01*
X156276190Y-75711905D01*
X155752381Y-76616667D02*
X155752381Y-77283334D01*
X156752381Y-76854762D01*
X150952381Y-73333334D02*
X150476190Y-73000000D01*
X150952381Y-72761905D02*
X149952381Y-72761905D01*
X149952381Y-73142858D01*
X150000000Y-73238096D01*
X150047619Y-73285715D01*
X150142857Y-73333334D01*
X150285714Y-73333334D01*
X150380952Y-73285715D01*
X150428571Y-73238096D01*
X150476190Y-73142858D01*
X150476190Y-72761905D01*
X150952381Y-73809524D02*
X150952381Y-74000000D01*
X150904762Y-74095239D01*
X150857143Y-74142858D01*
X150714286Y-74238096D01*
X150523810Y-74285715D01*
X150142857Y-74285715D01*
X150047619Y-74238096D01*
X150000000Y-74190477D01*
X149952381Y-74095239D01*
X149952381Y-73904762D01*
X150000000Y-73809524D01*
X150047619Y-73761905D01*
X150142857Y-73714286D01*
X150380952Y-73714286D01*
X150476190Y-73761905D01*
X150523810Y-73809524D01*
X150571429Y-73904762D01*
X150571429Y-74095239D01*
X150523810Y-74190477D01*
X150476190Y-74238096D01*
X150380952Y-74285715D01*
X155892857Y-67202381D02*
X156226191Y-66726190D01*
X156464286Y-67202381D02*
X156464286Y-66202381D01*
X156083333Y-66202381D01*
X155988095Y-66250000D01*
X155940476Y-66297619D01*
X155892857Y-66392857D01*
X155892857Y-66535714D01*
X155940476Y-66630952D01*
X155988095Y-66678571D01*
X156083333Y-66726190D01*
X156464286Y-66726190D01*
X154940476Y-67202381D02*
X155511905Y-67202381D01*
X155226191Y-67202381D02*
X155226191Y-66202381D01*
X155321429Y-66345238D01*
X155416667Y-66440476D01*
X155511905Y-66488095D01*
X153988095Y-67202381D02*
X154559524Y-67202381D01*
X154273810Y-67202381D02*
X154273810Y-66202381D01*
X154369048Y-66345238D01*
X154464286Y-66440476D01*
X154559524Y-66488095D01*
X163602381Y-77032143D02*
X163126190Y-76698809D01*
X163602381Y-76460714D02*
X162602381Y-76460714D01*
X162602381Y-76841667D01*
X162650000Y-76936905D01*
X162697619Y-76984524D01*
X162792857Y-77032143D01*
X162935714Y-77032143D01*
X163030952Y-76984524D01*
X163078571Y-76936905D01*
X163126190Y-76841667D01*
X163126190Y-76460714D01*
X163602381Y-77984524D02*
X163602381Y-77413095D01*
X163602381Y-77698809D02*
X162602381Y-77698809D01*
X162745238Y-77603571D01*
X162840476Y-77508333D01*
X162888095Y-77413095D01*
X162602381Y-78317857D02*
X162602381Y-78936905D01*
X162983333Y-78603571D01*
X162983333Y-78746429D01*
X163030952Y-78841667D01*
X163078571Y-78889286D01*
X163173810Y-78936905D01*
X163411905Y-78936905D01*
X163507143Y-78889286D01*
X163554762Y-78841667D01*
X163602381Y-78746429D01*
X163602381Y-78460714D01*
X163554762Y-78365476D01*
X163507143Y-78317857D01*
X149352381Y-74357143D02*
X148876190Y-74023809D01*
X149352381Y-73785714D02*
X148352381Y-73785714D01*
X148352381Y-74166667D01*
X148400000Y-74261905D01*
X148447619Y-74309524D01*
X148542857Y-74357143D01*
X148685714Y-74357143D01*
X148780952Y-74309524D01*
X148828571Y-74261905D01*
X148876190Y-74166667D01*
X148876190Y-73785714D01*
X149352381Y-75309524D02*
X149352381Y-74738095D01*
X149352381Y-75023809D02*
X148352381Y-75023809D01*
X148495238Y-74928571D01*
X148590476Y-74833333D01*
X148638095Y-74738095D01*
X148352381Y-76214286D02*
X148352381Y-75738095D01*
X148828571Y-75690476D01*
X148780952Y-75738095D01*
X148733333Y-75833333D01*
X148733333Y-76071429D01*
X148780952Y-76166667D01*
X148828571Y-76214286D01*
X148923810Y-76261905D01*
X149161905Y-76261905D01*
X149257143Y-76214286D01*
X149304762Y-76166667D01*
X149352381Y-76071429D01*
X149352381Y-75833333D01*
X149304762Y-75738095D01*
X149257143Y-75690476D01*
X157952381Y-73607143D02*
X157476190Y-73273809D01*
X157952381Y-73035714D02*
X156952381Y-73035714D01*
X156952381Y-73416667D01*
X157000000Y-73511905D01*
X157047619Y-73559524D01*
X157142857Y-73607143D01*
X157285714Y-73607143D01*
X157380952Y-73559524D01*
X157428571Y-73511905D01*
X157476190Y-73416667D01*
X157476190Y-73035714D01*
X157952381Y-74559524D02*
X157952381Y-73988095D01*
X157952381Y-74273809D02*
X156952381Y-74273809D01*
X157095238Y-74178571D01*
X157190476Y-74083333D01*
X157238095Y-73988095D01*
X156952381Y-75416667D02*
X156952381Y-75226190D01*
X157000000Y-75130952D01*
X157047619Y-75083333D01*
X157190476Y-74988095D01*
X157380952Y-74940476D01*
X157761905Y-74940476D01*
X157857143Y-74988095D01*
X157904762Y-75035714D01*
X157952381Y-75130952D01*
X157952381Y-75321429D01*
X157904762Y-75416667D01*
X157857143Y-75464286D01*
X157761905Y-75511905D01*
X157523810Y-75511905D01*
X157428571Y-75464286D01*
X157380952Y-75416667D01*
X157333333Y-75321429D01*
X157333333Y-75130952D01*
X157380952Y-75035714D01*
X157428571Y-74988095D01*
X157523810Y-74940476D01*
X163392857Y-68702381D02*
X163726191Y-68226190D01*
X163964286Y-68702381D02*
X163964286Y-67702381D01*
X163583333Y-67702381D01*
X163488095Y-67750000D01*
X163440476Y-67797619D01*
X163392857Y-67892857D01*
X163392857Y-68035714D01*
X163440476Y-68130952D01*
X163488095Y-68178571D01*
X163583333Y-68226190D01*
X163964286Y-68226190D01*
X162440476Y-68702381D02*
X163011905Y-68702381D01*
X162726191Y-68702381D02*
X162726191Y-67702381D01*
X162821429Y-67845238D01*
X162916667Y-67940476D01*
X163011905Y-67988095D01*
X161869048Y-68130952D02*
X161964286Y-68083333D01*
X162011905Y-68035714D01*
X162059524Y-67940476D01*
X162059524Y-67892857D01*
X162011905Y-67797619D01*
X161964286Y-67750000D01*
X161869048Y-67702381D01*
X161678571Y-67702381D01*
X161583333Y-67750000D01*
X161535714Y-67797619D01*
X161488095Y-67892857D01*
X161488095Y-67940476D01*
X161535714Y-68035714D01*
X161583333Y-68083333D01*
X161678571Y-68130952D01*
X161869048Y-68130952D01*
X161964286Y-68178571D01*
X162011905Y-68226190D01*
X162059524Y-68321429D01*
X162059524Y-68511905D01*
X162011905Y-68607143D01*
X161964286Y-68654762D01*
X161869048Y-68702381D01*
X161678571Y-68702381D01*
X161583333Y-68654762D01*
X161535714Y-68607143D01*
X161488095Y-68511905D01*
X161488095Y-68321429D01*
X161535714Y-68226190D01*
X161583333Y-68178571D01*
X161678571Y-68130952D01*
X143452381Y-70107143D02*
X142976190Y-69773809D01*
X143452381Y-69535714D02*
X142452381Y-69535714D01*
X142452381Y-69916667D01*
X142500000Y-70011905D01*
X142547619Y-70059524D01*
X142642857Y-70107143D01*
X142785714Y-70107143D01*
X142880952Y-70059524D01*
X142928571Y-70011905D01*
X142976190Y-69916667D01*
X142976190Y-69535714D01*
X143452381Y-71059524D02*
X143452381Y-70488095D01*
X143452381Y-70773809D02*
X142452381Y-70773809D01*
X142595238Y-70678571D01*
X142690476Y-70583333D01*
X142738095Y-70488095D01*
X143452381Y-71535714D02*
X143452381Y-71726190D01*
X143404762Y-71821429D01*
X143357143Y-71869048D01*
X143214286Y-71964286D01*
X143023810Y-72011905D01*
X142642857Y-72011905D01*
X142547619Y-71964286D01*
X142500000Y-71916667D01*
X142452381Y-71821429D01*
X142452381Y-71630952D01*
X142500000Y-71535714D01*
X142547619Y-71488095D01*
X142642857Y-71440476D01*
X142880952Y-71440476D01*
X142976190Y-71488095D01*
X143023810Y-71535714D01*
X143071429Y-71630952D01*
X143071429Y-71821429D01*
X143023810Y-71916667D01*
X142976190Y-71964286D01*
X142880952Y-72011905D01*
X148642857Y-65952381D02*
X148976191Y-65476190D01*
X149214286Y-65952381D02*
X149214286Y-64952381D01*
X148833333Y-64952381D01*
X148738095Y-65000000D01*
X148690476Y-65047619D01*
X148642857Y-65142857D01*
X148642857Y-65285714D01*
X148690476Y-65380952D01*
X148738095Y-65428571D01*
X148833333Y-65476190D01*
X149214286Y-65476190D01*
X148261905Y-65047619D02*
X148214286Y-65000000D01*
X148119048Y-64952381D01*
X147880952Y-64952381D01*
X147785714Y-65000000D01*
X147738095Y-65047619D01*
X147690476Y-65142857D01*
X147690476Y-65238095D01*
X147738095Y-65380952D01*
X148309524Y-65952381D01*
X147690476Y-65952381D01*
X146738095Y-65952381D02*
X147309524Y-65952381D01*
X147023810Y-65952381D02*
X147023810Y-64952381D01*
X147119048Y-65095238D01*
X147214286Y-65190476D01*
X147309524Y-65238095D01*
X155100381Y-94638095D02*
X155909905Y-94638095D01*
X156005143Y-94685714D01*
X156052762Y-94733333D01*
X156100381Y-94828571D01*
X156100381Y-95019048D01*
X156052762Y-95114286D01*
X156005143Y-95161905D01*
X155909905Y-95209524D01*
X155100381Y-95209524D01*
X156100381Y-96209524D02*
X156100381Y-95638095D01*
X156100381Y-95923809D02*
X155100381Y-95923809D01*
X155243238Y-95828571D01*
X155338476Y-95733333D01*
X155386095Y-95638095D01*
X156952381Y-68988095D02*
X157761905Y-68988095D01*
X157857143Y-69035714D01*
X157904762Y-69083333D01*
X157952381Y-69178571D01*
X157952381Y-69369048D01*
X157904762Y-69464286D01*
X157857143Y-69511905D01*
X157761905Y-69559524D01*
X156952381Y-69559524D01*
X157285714Y-70464286D02*
X157952381Y-70464286D01*
X156904762Y-70226190D02*
X157619048Y-69988095D01*
X157619048Y-70607143D01*
X149952381Y-68488095D02*
X150761905Y-68488095D01*
X150857143Y-68535714D01*
X150904762Y-68583333D01*
X150952381Y-68678571D01*
X150952381Y-68869048D01*
X150904762Y-68964286D01*
X150857143Y-69011905D01*
X150761905Y-69059524D01*
X149952381Y-69059524D01*
X149952381Y-70011905D02*
X149952381Y-69535714D01*
X150428571Y-69488095D01*
X150380952Y-69535714D01*
X150333333Y-69630952D01*
X150333333Y-69869048D01*
X150380952Y-69964286D01*
X150428571Y-70011905D01*
X150523810Y-70059524D01*
X150761905Y-70059524D01*
X150857143Y-70011905D01*
X150904762Y-69964286D01*
X150952381Y-69869048D01*
X150952381Y-69630952D01*
X150904762Y-69535714D01*
X150857143Y-69488095D01*
X135995095Y-110192381D02*
X135995095Y-109192381D01*
X135614142Y-109192381D01*
X135518904Y-109240000D01*
X135471285Y-109287619D01*
X135423666Y-109382857D01*
X135423666Y-109525714D01*
X135471285Y-109620952D01*
X135518904Y-109668571D01*
X135614142Y-109716190D01*
X135995095Y-109716190D01*
X135090333Y-109192381D02*
X134423666Y-109192381D01*
X134852238Y-110192381D01*
X163702381Y-112011905D02*
X162702381Y-112011905D01*
X162702381Y-112392858D01*
X162750000Y-112488096D01*
X162797619Y-112535715D01*
X162892857Y-112583334D01*
X163035714Y-112583334D01*
X163130952Y-112535715D01*
X163178571Y-112488096D01*
X163226190Y-112392858D01*
X163226190Y-112011905D01*
X163130952Y-113154762D02*
X163083333Y-113059524D01*
X163035714Y-113011905D01*
X162940476Y-112964286D01*
X162892857Y-112964286D01*
X162797619Y-113011905D01*
X162750000Y-113059524D01*
X162702381Y-113154762D01*
X162702381Y-113345239D01*
X162750000Y-113440477D01*
X162797619Y-113488096D01*
X162892857Y-113535715D01*
X162940476Y-113535715D01*
X163035714Y-113488096D01*
X163083333Y-113440477D01*
X163130952Y-113345239D01*
X163130952Y-113154762D01*
X163178571Y-113059524D01*
X163226190Y-113011905D01*
X163321429Y-112964286D01*
X163511905Y-112964286D01*
X163607143Y-113011905D01*
X163654762Y-113059524D01*
X163702381Y-113154762D01*
X163702381Y-113345239D01*
X163654762Y-113440477D01*
X163607143Y-113488096D01*
X163511905Y-113535715D01*
X163321429Y-113535715D01*
X163226190Y-113488096D01*
X163178571Y-113440477D01*
X163130952Y-113345239D01*
X108357143Y-106107143D02*
X108404762Y-106059524D01*
X108452381Y-105916667D01*
X108452381Y-105821429D01*
X108404762Y-105678571D01*
X108309524Y-105583333D01*
X108214286Y-105535714D01*
X108023810Y-105488095D01*
X107880952Y-105488095D01*
X107690476Y-105535714D01*
X107595238Y-105583333D01*
X107500000Y-105678571D01*
X107452381Y-105821429D01*
X107452381Y-105916667D01*
X107500000Y-106059524D01*
X107547619Y-106107143D01*
X107452381Y-106440476D02*
X107452381Y-107059524D01*
X107833333Y-106726190D01*
X107833333Y-106869048D01*
X107880952Y-106964286D01*
X107928571Y-107011905D01*
X108023810Y-107059524D01*
X108261905Y-107059524D01*
X108357143Y-107011905D01*
X108404762Y-106964286D01*
X108452381Y-106869048D01*
X108452381Y-106583333D01*
X108404762Y-106488095D01*
X108357143Y-106440476D01*
X107547619Y-107440476D02*
X107500000Y-107488095D01*
X107452381Y-107583333D01*
X107452381Y-107821429D01*
X107500000Y-107916667D01*
X107547619Y-107964286D01*
X107642857Y-108011905D01*
X107738095Y-108011905D01*
X107880952Y-107964286D01*
X108452381Y-107392857D01*
X108452381Y-108011905D01*
X111107143Y-105857143D02*
X111154762Y-105809524D01*
X111202381Y-105666667D01*
X111202381Y-105571429D01*
X111154762Y-105428571D01*
X111059524Y-105333333D01*
X110964286Y-105285714D01*
X110773810Y-105238095D01*
X110630952Y-105238095D01*
X110440476Y-105285714D01*
X110345238Y-105333333D01*
X110250000Y-105428571D01*
X110202381Y-105571429D01*
X110202381Y-105666667D01*
X110250000Y-105809524D01*
X110297619Y-105857143D01*
X110202381Y-106190476D02*
X110202381Y-106809524D01*
X110583333Y-106476190D01*
X110583333Y-106619048D01*
X110630952Y-106714286D01*
X110678571Y-106761905D01*
X110773810Y-106809524D01*
X111011905Y-106809524D01*
X111107143Y-106761905D01*
X111154762Y-106714286D01*
X111202381Y-106619048D01*
X111202381Y-106333333D01*
X111154762Y-106238095D01*
X111107143Y-106190476D01*
X110202381Y-107142857D02*
X110202381Y-107761905D01*
X110583333Y-107428571D01*
X110583333Y-107571429D01*
X110630952Y-107666667D01*
X110678571Y-107714286D01*
X110773810Y-107761905D01*
X111011905Y-107761905D01*
X111107143Y-107714286D01*
X111154762Y-107666667D01*
X111202381Y-107571429D01*
X111202381Y-107285714D01*
X111154762Y-107190476D01*
X111107143Y-107142857D01*
X121642857Y-108107143D02*
X121690476Y-108154762D01*
X121833333Y-108202381D01*
X121928571Y-108202381D01*
X122071429Y-108154762D01*
X122166667Y-108059524D01*
X122214286Y-107964286D01*
X122261905Y-107773810D01*
X122261905Y-107630952D01*
X122214286Y-107440476D01*
X122166667Y-107345238D01*
X122071429Y-107250000D01*
X121928571Y-107202381D01*
X121833333Y-107202381D01*
X121690476Y-107250000D01*
X121642857Y-107297619D01*
X121309524Y-107202381D02*
X120690476Y-107202381D01*
X121023810Y-107583333D01*
X120880952Y-107583333D01*
X120785714Y-107630952D01*
X120738095Y-107678571D01*
X120690476Y-107773810D01*
X120690476Y-108011905D01*
X120738095Y-108107143D01*
X120785714Y-108154762D01*
X120880952Y-108202381D01*
X121166667Y-108202381D01*
X121261905Y-108154762D01*
X121309524Y-108107143D01*
X119833333Y-107535714D02*
X119833333Y-108202381D01*
X120071429Y-107154762D02*
X120309524Y-107869048D01*
X119690476Y-107869048D01*
X110238095Y-98702381D02*
X110238095Y-97702381D01*
X110000000Y-97702381D01*
X109857142Y-97750000D01*
X109761904Y-97845238D01*
X109714285Y-97940476D01*
X109666666Y-98130952D01*
X109666666Y-98273810D01*
X109714285Y-98464286D01*
X109761904Y-98559524D01*
X109857142Y-98654762D01*
X110000000Y-98702381D01*
X110238095Y-98702381D01*
X109095238Y-98130952D02*
X109190476Y-98083333D01*
X109238095Y-98035714D01*
X109285714Y-97940476D01*
X109285714Y-97892857D01*
X109238095Y-97797619D01*
X109190476Y-97750000D01*
X109095238Y-97702381D01*
X108904761Y-97702381D01*
X108809523Y-97750000D01*
X108761904Y-97797619D01*
X108714285Y-97892857D01*
X108714285Y-97940476D01*
X108761904Y-98035714D01*
X108809523Y-98083333D01*
X108904761Y-98130952D01*
X109095238Y-98130952D01*
X109190476Y-98178571D01*
X109238095Y-98226190D01*
X109285714Y-98321429D01*
X109285714Y-98511905D01*
X109238095Y-98607143D01*
X109190476Y-98654762D01*
X109095238Y-98702381D01*
X108904761Y-98702381D01*
X108809523Y-98654762D01*
X108761904Y-98607143D01*
X108714285Y-98511905D01*
X108714285Y-98321429D01*
X108761904Y-98226190D01*
X108809523Y-98178571D01*
X108904761Y-98130952D01*
X129802381Y-112857143D02*
X129326190Y-112523809D01*
X129802381Y-112285714D02*
X128802381Y-112285714D01*
X128802381Y-112666667D01*
X128850000Y-112761905D01*
X128897619Y-112809524D01*
X128992857Y-112857143D01*
X129135714Y-112857143D01*
X129230952Y-112809524D01*
X129278571Y-112761905D01*
X129326190Y-112666667D01*
X129326190Y-112285714D01*
X128802381Y-113190476D02*
X128802381Y-113809524D01*
X129183333Y-113476190D01*
X129183333Y-113619048D01*
X129230952Y-113714286D01*
X129278571Y-113761905D01*
X129373810Y-113809524D01*
X129611905Y-113809524D01*
X129707143Y-113761905D01*
X129754762Y-113714286D01*
X129802381Y-113619048D01*
X129802381Y-113333333D01*
X129754762Y-113238095D01*
X129707143Y-113190476D01*
X129802381Y-114761905D02*
X129802381Y-114190476D01*
X129802381Y-114476190D02*
X128802381Y-114476190D01*
X128945238Y-114380952D01*
X129040476Y-114285714D01*
X129088095Y-114190476D01*
X122452381Y-112607143D02*
X121976190Y-112273809D01*
X122452381Y-112035714D02*
X121452381Y-112035714D01*
X121452381Y-112416667D01*
X121500000Y-112511905D01*
X121547619Y-112559524D01*
X121642857Y-112607143D01*
X121785714Y-112607143D01*
X121880952Y-112559524D01*
X121928571Y-112511905D01*
X121976190Y-112416667D01*
X121976190Y-112035714D01*
X121452381Y-112940476D02*
X121452381Y-113559524D01*
X121833333Y-113226190D01*
X121833333Y-113369048D01*
X121880952Y-113464286D01*
X121928571Y-113511905D01*
X122023810Y-113559524D01*
X122261905Y-113559524D01*
X122357143Y-113511905D01*
X122404762Y-113464286D01*
X122452381Y-113369048D01*
X122452381Y-113083333D01*
X122404762Y-112988095D01*
X122357143Y-112940476D01*
X121547619Y-113940476D02*
X121500000Y-113988095D01*
X121452381Y-114083333D01*
X121452381Y-114321429D01*
X121500000Y-114416667D01*
X121547619Y-114464286D01*
X121642857Y-114511905D01*
X121738095Y-114511905D01*
X121880952Y-114464286D01*
X122452381Y-113892857D01*
X122452381Y-114511905D01*
D13*
X118818295Y-110452381D02*
X118818295Y-111261905D01*
X118770676Y-111357143D01*
X118723057Y-111404762D01*
X118627819Y-111452381D01*
X118437342Y-111452381D01*
X118342104Y-111404762D01*
X118294485Y-111357143D01*
X118246866Y-111261905D01*
X118246866Y-110452381D01*
X117246866Y-111452381D02*
X117818295Y-111452381D01*
X117532581Y-111452381D02*
X117532581Y-110452381D01*
X117627819Y-110595238D01*
X117723057Y-110690476D01*
X117818295Y-110738095D01*
X116627819Y-110452381D02*
X116532580Y-110452381D01*
X116437342Y-110500000D01*
X116389723Y-110547619D01*
X116342104Y-110642857D01*
X116294485Y-110833333D01*
X116294485Y-111071429D01*
X116342104Y-111261905D01*
X116389723Y-111357143D01*
X116437342Y-111404762D01*
X116532580Y-111452381D01*
X116627819Y-111452381D01*
X116723057Y-111404762D01*
X116770676Y-111357143D01*
X116818295Y-111261905D01*
X116865914Y-111071429D01*
X116865914Y-110833333D01*
X116818295Y-110642857D01*
X116770676Y-110547619D01*
X116723057Y-110500000D01*
X116627819Y-110452381D01*
X124934162Y-110452381D02*
X124362733Y-110452381D01*
X124648448Y-111452381D02*
X124648448Y-110452381D01*
X124029400Y-111452381D02*
X124029400Y-110452381D01*
X123648447Y-110452381D01*
X123553209Y-110500000D01*
X123505590Y-110547619D01*
X123457971Y-110642857D01*
X123457971Y-110785714D01*
X123505590Y-110880952D01*
X123553209Y-110928571D01*
X123648447Y-110976190D01*
X124029400Y-110976190D01*
X123077019Y-111404762D02*
X122934162Y-111452381D01*
X122696066Y-111452381D01*
X122600828Y-111404762D01*
X122553209Y-111357143D01*
X122505590Y-111261905D01*
X122505590Y-111166667D01*
X122553209Y-111071429D01*
X122600828Y-111023810D01*
X122696066Y-110976190D01*
X122886543Y-110928571D01*
X122981781Y-110880952D01*
X123029400Y-110833333D01*
X123077019Y-110738095D01*
X123077019Y-110642857D01*
X123029400Y-110547619D01*
X122981781Y-110500000D01*
X122886543Y-110452381D01*
X122648447Y-110452381D01*
X122505590Y-110500000D01*
X121600828Y-110452381D02*
X122077019Y-110452381D01*
X122124638Y-110928571D01*
X122077019Y-110880952D01*
X121981781Y-110833333D01*
X121743685Y-110833333D01*
X121648447Y-110880952D01*
X121600828Y-110928571D01*
X121553209Y-111023810D01*
X121553209Y-111261905D01*
X121600828Y-111357143D01*
X121648447Y-111404762D01*
X121743685Y-111452381D01*
X121981781Y-111452381D01*
X122077019Y-111404762D01*
X122124638Y-111357143D01*
X120696066Y-110785714D02*
X120696066Y-111452381D01*
X120934162Y-110404762D02*
X121172257Y-111119048D01*
X120553209Y-111119048D01*
X119696066Y-110452381D02*
X120172257Y-110452381D01*
X120219876Y-110928571D01*
X120172257Y-110880952D01*
X120077019Y-110833333D01*
X119838923Y-110833333D01*
X119743685Y-110880952D01*
X119696066Y-110928571D01*
X119648447Y-111023810D01*
X119648447Y-111261905D01*
X119696066Y-111357143D01*
X119743685Y-111404762D01*
X119838923Y-111452381D01*
X120077019Y-111452381D01*
X120172257Y-111404762D01*
X120219876Y-111357143D01*
X119029400Y-110452381D02*
X118934161Y-110452381D01*
X118838923Y-110500000D01*
X118791304Y-110547619D01*
X118743685Y-110642857D01*
X118696066Y-110833333D01*
X118696066Y-111071429D01*
X118743685Y-111261905D01*
X118791304Y-111357143D01*
X118838923Y-111404762D01*
X118934161Y-111452381D01*
X119029400Y-111452381D01*
X119124638Y-111404762D01*
X119172257Y-111357143D01*
X119219876Y-111261905D01*
X119267495Y-111071429D01*
X119267495Y-110833333D01*
X119219876Y-110642857D01*
X119172257Y-110547619D01*
X119124638Y-110500000D01*
X119029400Y-110452381D01*
X118267495Y-111071429D02*
X117505590Y-111071429D01*
X117029400Y-110928571D02*
X116696066Y-110928571D01*
X116553209Y-111452381D02*
X117029400Y-111452381D01*
X117029400Y-110452381D01*
X116553209Y-110452381D01*
X116124638Y-111452381D02*
X116124638Y-110452381D01*
X115743685Y-110452381D01*
X115648447Y-110500000D01*
X115600828Y-110547619D01*
X115553209Y-110642857D01*
X115553209Y-110785714D01*
X115600828Y-110880952D01*
X115648447Y-110928571D01*
X115743685Y-110976190D01*
X116124638Y-110976190D01*
X115362733Y-111547619D02*
X114600828Y-111547619D01*
X114362733Y-111452381D02*
X114362733Y-110452381D01*
X114124638Y-110452381D01*
X113981780Y-110500000D01*
X113886542Y-110595238D01*
X113838923Y-110690476D01*
X113791304Y-110880952D01*
X113791304Y-111023810D01*
X113838923Y-111214286D01*
X113886542Y-111309524D01*
X113981780Y-111404762D01*
X114124638Y-111452381D01*
X114362733Y-111452381D01*
X113362733Y-111452381D02*
X113362733Y-110452381D01*
X113124638Y-110452381D01*
X112981780Y-110500000D01*
X112886542Y-110595238D01*
X112838923Y-110690476D01*
X112791304Y-110880952D01*
X112791304Y-111023810D01*
X112838923Y-111214286D01*
X112886542Y-111309524D01*
X112981780Y-111404762D01*
X113124638Y-111452381D01*
X113362733Y-111452381D01*
X112410352Y-111166667D02*
X111934161Y-111166667D01*
X112505590Y-111452381D02*
X112172257Y-110452381D01*
X111838923Y-111452381D01*
X111743685Y-111547619D02*
X110981780Y-111547619D01*
X110600828Y-110880952D02*
X110696066Y-110833333D01*
X110743685Y-110785714D01*
X110791304Y-110690476D01*
X110791304Y-110642857D01*
X110743685Y-110547619D01*
X110696066Y-110500000D01*
X110600828Y-110452381D01*
X110410351Y-110452381D01*
X110315113Y-110500000D01*
X110267494Y-110547619D01*
X110219875Y-110642857D01*
X110219875Y-110690476D01*
X110267494Y-110785714D01*
X110315113Y-110833333D01*
X110410351Y-110880952D01*
X110600828Y-110880952D01*
X110696066Y-110928571D01*
X110743685Y-110976190D01*
X110791304Y-111071429D01*
X110791304Y-111261905D01*
X110743685Y-111357143D01*
X110696066Y-111404762D01*
X110600828Y-111452381D01*
X110410351Y-111452381D01*
X110315113Y-111404762D01*
X110267494Y-111357143D01*
X110219875Y-111261905D01*
X110219875Y-111071429D01*
X110267494Y-110976190D01*
X110315113Y-110928571D01*
X110410351Y-110880952D01*
D11*
X136357143Y-102107143D02*
X136404762Y-102059524D01*
X136452381Y-101916667D01*
X136452381Y-101821429D01*
X136404762Y-101678571D01*
X136309524Y-101583333D01*
X136214286Y-101535714D01*
X136023810Y-101488095D01*
X135880952Y-101488095D01*
X135690476Y-101535714D01*
X135595238Y-101583333D01*
X135500000Y-101678571D01*
X135452381Y-101821429D01*
X135452381Y-101916667D01*
X135500000Y-102059524D01*
X135547619Y-102107143D01*
X135452381Y-102440476D02*
X135452381Y-103059524D01*
X135833333Y-102726190D01*
X135833333Y-102869048D01*
X135880952Y-102964286D01*
X135928571Y-103011905D01*
X136023810Y-103059524D01*
X136261905Y-103059524D01*
X136357143Y-103011905D01*
X136404762Y-102964286D01*
X136452381Y-102869048D01*
X136452381Y-102583333D01*
X136404762Y-102488095D01*
X136357143Y-102440476D01*
X135452381Y-103964286D02*
X135452381Y-103488095D01*
X135928571Y-103440476D01*
X135880952Y-103488095D01*
X135833333Y-103583333D01*
X135833333Y-103821429D01*
X135880952Y-103916667D01*
X135928571Y-103964286D01*
X136023810Y-104011905D01*
X136261905Y-104011905D01*
X136357143Y-103964286D01*
X136404762Y-103916667D01*
X136452381Y-103821429D01*
X136452381Y-103583333D01*
X136404762Y-103488095D01*
X136357143Y-103440476D01*
X155957143Y-95833334D02*
X156004762Y-95785715D01*
X156052381Y-95642858D01*
X156052381Y-95547620D01*
X156004762Y-95404762D01*
X155909524Y-95309524D01*
X155814286Y-95261905D01*
X155623810Y-95214286D01*
X155480952Y-95214286D01*
X155290476Y-95261905D01*
X155195238Y-95309524D01*
X155100000Y-95404762D01*
X155052381Y-95547620D01*
X155052381Y-95642858D01*
X155100000Y-95785715D01*
X155147619Y-95833334D01*
X155052381Y-96690477D02*
X155052381Y-96500000D01*
X155100000Y-96404762D01*
X155147619Y-96357143D01*
X155290476Y-96261905D01*
X155480952Y-96214286D01*
X155861905Y-96214286D01*
X155957143Y-96261905D01*
X156004762Y-96309524D01*
X156052381Y-96404762D01*
X156052381Y-96595239D01*
X156004762Y-96690477D01*
X155957143Y-96738096D01*
X155861905Y-96785715D01*
X155623810Y-96785715D01*
X155528571Y-96738096D01*
X155480952Y-96690477D01*
X155433333Y-96595239D01*
X155433333Y-96404762D01*
X155480952Y-96309524D01*
X155528571Y-96261905D01*
X155623810Y-96214286D01*
M02*
