M48
;DRILL file {KiCad 4.0.1-stable} date 17.05.2016 13:35:21
;FORMAT={2:4/ absolute / inch / suppress leading zeros}
FMAT,2
INCH,TZ
T1C0.010
T2C0.016
T3C0.032
T4C0.035
T5C0.039
T6C0.040
T7C0.047
T8C0.091
%
G90
G05
M72
T1
X42382Y-24256
X42933Y-24256
X43484Y-24256
X44035Y-24256
X46319Y-24256
X46870Y-24256
X47421Y-24256
X47972Y-24256
X50256Y-24256
X50807Y-24256
X51358Y-24256
X51909Y-24256
X54193Y-24256
X54744Y-24256
X55295Y-24256
X55846Y-24256
X58130Y-24256
X58681Y-24256
X59232Y-24256
X59783Y-24256
X62067Y-24256
X62618Y-24256
X63169Y-24256
X63720Y-24256
T2
X38681Y-34154
X39665Y-38780
X39961Y-19882
X40354Y-28839
X43307Y-19882
X43701Y-20669
X44291Y-22309
X44783Y-29232
X44783Y-32283
X45965Y-36024
X45965Y-37402
X45965Y-37402
X47952Y-42717
X48228Y-22309
X49213Y-35689
X49606Y-30256
X49774Y-35585
X50098Y-39705
X50098Y-42746
X50689Y-35413
X52067Y-22309
X53839Y-35630
X56004Y-22309
X57484Y-26835
X57677Y-28543
X57677Y-34646
X57972Y-34449
X58169Y-24902
X58583Y-29823
X58760Y-35701
X58760Y-38299
X59252Y-26850
X59252Y-38386
X59350Y-35335
X59440Y-26222
X60039Y-22309
X60138Y-31496
X60335Y-30512
X60443Y-27953
X60827Y-24902
X61122Y-28150
X61319Y-26575
X61614Y-34646
X61909Y-29232
X62008Y-27756
X62008Y-34154
X62034Y-28175
X62500Y-26476
X62697Y-39961
X62795Y-34843
X62894Y-38484
X63681Y-25984
X63878Y-28740
X63976Y-22309
X64567Y-25591
X64567Y-26870
X64567Y-37008
T3
X42421Y-31594
X42421Y-32594
X43208Y-31594
X43208Y-32594
T5
X39846Y-36614
X40846Y-36614
T7
X55015Y-42421
X56004Y-42421
X56988Y-42421
X57972Y-42421
X58957Y-42421
X59941Y-42421
X60925Y-42421
X61909Y-42421
X64764Y-40732
X64764Y-41717
X64764Y-42717
T8
X41358Y-29732
X41358Y-34456
T4
X42315Y-21417G85X42315Y-21496
G05
X42315Y-22929G85X42315Y-23008
G05
X44220Y-21417G85X44220Y-21496
G05
X44220Y-22929G85X44220Y-23008
G05
X46252Y-21417G85X46252Y-21496
G05
X46252Y-22929G85X46252Y-23008
G05
X48157Y-21417G85X48157Y-21496
G05
X48157Y-22929G85X48157Y-23008
G05
X50189Y-21417G85X50189Y-21496
G05
X50189Y-22929G85X50189Y-23008
G05
X52094Y-21417G85X52094Y-21496
G05
X52094Y-22929G85X52094Y-23008
G05
X54126Y-21417G85X54126Y-21496
G05
X54126Y-22929G85X54126Y-23008
G05
X56031Y-21417G85X56031Y-21496
G05
X56031Y-22929G85X56031Y-23008
G05
X58063Y-21417G85X58063Y-21496
G05
X58063Y-22929G85X58063Y-23008
G05
X59969Y-21417G85X59969Y-21496
G05
X59969Y-22929G85X59969Y-23008
G05
X62000Y-21417G85X62000Y-21496
G05
X62000Y-22929G85X62000Y-23008
G05
X63906Y-21417G85X63906Y-21496
G05
X63906Y-22929G85X63906Y-23008
G05
T6
X38484Y-42121G85X38484Y-42721
G05
X39084Y-40421G85X39684Y-40421
G05
X40884Y-42121G85X40884Y-42721
G05
T0
M30
