M48
;DRILL file {KiCad 4.0.5} date 02/02/17 00:29:07
;FORMAT={-:-/ absolute / inch / decimal}
FMAT,2
INCH,TZ
T1C0.016
T2C0.024
T3C0.026
T4C0.032
T5C0.039
T6C0.040
T7C0.043
T8C0.091
%
G90
G05
M72
T1
X3.7893Y-3.5784
X3.8012Y-3.5492
X3.8346Y-2.4935
X3.8346Y-2.7035
X3.8819Y-3.626
X4.0244Y-3.5165
X4.0693Y-2.0189
X4.1004Y-3.626
X4.1004Y-3.626
X4.2264Y-3.7362
X4.2441Y-1.9583
X4.348Y-1.9909
X4.4961Y-2.7307
X4.4961Y-2.776
X4.5197Y-2.711
X4.5197Y-2.8016
X4.5906Y-3.9764
X4.5969Y-3.776
X4.6858Y-4.3118
X4.689Y-4.1949
X4.6909Y-4.3622
X4.6909Y-4.3965
X4.6969Y-4.2618
X4.7579Y-3.2815
X4.7598Y-3.6634
X4.7697Y-3.3169
X4.7807Y-1.9449
X4.8022Y-2.9104
X4.8024Y-3.1756
X4.8209Y-3.7362
X4.8283Y-3.1756
X4.8539Y-3.1516
X4.8539Y-3.1756
X4.8701Y-3.122
X4.9134Y-3.124
X4.9213Y-3.7835
X5.0043Y-2.6988
X5.0177Y-4.0059
X5.0303Y-2.6996
X5.0394Y-4.0423
X5.0512Y-2.873
X5.0528Y-2.6992
X5.0594Y-2.7228
X5.0594Y-2.7476
X5.0669Y-3.5197
X5.0669Y-3.5197
X5.0768Y-2.6988
X5.0866Y-2.873
X5.124Y-2.873
X5.1299Y-2.6732
X5.1299Y-2.6988
X5.1339Y-2.7685
X5.1339Y-2.7937
X5.1339Y-2.8189
X5.1571Y-2.661
X5.1594Y-3.3071
X5.1693Y-3.185
X5.2043Y-2.9291
X5.2047Y-4.1181
X5.433Y-3.7199
X5.5323Y-3.3492
X5.5339Y-2.0146
X5.5756Y-3.3492
X5.6319Y-3.6063
X5.6516Y-2.7894
X5.652Y-3.3291
X5.6791Y-2.7028
X5.7008Y-4.2051
X5.7067Y-2.7028
X5.7067Y-2.7465
X5.7447Y-4.1789
X5.7657Y-3.4783
X5.7823Y-3.2598
X5.7894Y-3.0583
X5.7906Y-3.1024
X5.7972Y-3.4449
X5.8319Y-2.6894
X5.8366Y-4.1094
X5.8622Y-3.5838
X5.876Y-3.8299
X5.9059Y-4.137
X5.9287Y-2.4083
X5.9438Y-4.0311
X5.9587Y-3.0736
X5.9901Y-3.9207
X5.9984Y-2.7921
X6.0138Y-3.3126
X6.015Y-3.5232
X6.0307Y-3.8787
X6.0531Y-3.5687
X6.0726Y-3.838
X6.0744Y-4.1154
X6.0854Y-3.3224
X6.0976Y-3.3984
X6.1091Y-3.7421
X6.1189Y-2.5413
X6.1346Y-3.8583
X6.1413Y-2.772
X6.1614Y-3.4646
X6.1854Y-3.0638
X6.2008Y-3.4154
X6.2063Y-2.7669
X6.248Y-3.5197
X6.2559Y-3.5551
X6.2697Y-3.9961
X6.2709Y-3.8142
X6.2795Y-3.4843
X6.2815Y-4.4594
X6.2894Y-3.8484
X6.3484Y-4.4067
X6.378Y-3.6988
X6.3811Y-3.1378
X6.4567Y-3.7059
X6.5996Y-4.4594
X6.676Y-4.0535
X6.765Y-3.5846
X6.7965Y-3.6106
X6.7969Y-3.8197
X6.8Y-3.7508
X6.9795Y-3.9024
X7.1457Y-3.9795
X7.1778Y-3.9154
X7.2063Y-4.1339
X7.289Y-3.5228
X7.3516Y-3.2815
T2
X3.8819Y-3.626
X3.9205Y-2.3555
X3.9547Y-2.3866
X4.0449Y-2.3157
X4.0795Y-2.2197
X4.1004Y-3.626
X4.1201Y-2.2189
X4.1323Y-3.2772
X4.1327Y-3.3193
X4.1327Y-3.3626
X4.1331Y-3.0551
X4.1331Y-3.2331
X4.1335Y-3.0996
X4.1335Y-3.1902
X4.1339Y-3.1449
X4.135Y-3.9067
X4.1642Y-2.2193
X4.1772Y-3.9488
X4.1776Y-3.1898
X4.178Y-3.0543
X4.178Y-3.098
X4.1787Y-3.1441
X4.2228Y-3.0543
X4.2228Y-3.0988
X4.2512Y-4.0957
X4.2512Y-4.1543
X4.3559Y-2.3319
X4.3559Y-2.3949
X4.4248Y-4.0126
X4.4469Y-2.3484
X4.4654Y-3.9673
X4.5362Y-2.3157
X4.8437Y-2.3508
X4.8437Y-2.4043
X4.9299Y-2.3894
X4.9303Y-2.3508
X5.0201Y-2.3185
X5.0906Y-2.2177
X5.1374Y-2.2189
X5.1858Y-2.2193
X5.3276Y-2.3433
X5.3276Y-2.4012
X5.4185Y-2.3909
X5.4189Y-2.3524
X5.433Y-3.7199
X5.5087Y-2.3201
X5.6791Y-2.7028
X5.6961Y-2.6484
X5.7067Y-2.7028
X5.7067Y-2.7465
X5.7264Y-2.6134
X5.7331Y-2.6689
X5.7343Y-2.5748
X5.7343Y-2.5748
X5.7831Y-2.5673
X5.7984Y-2.1435
X5.9024Y-2.0075
X5.9504Y-2.4697
X5.961Y-2.5083
X5.961Y-2.6504
X5.961Y-2.6874
X5.9933Y-2.4783
X5.9988Y-2.6512
X6.0177Y-2.5697
X6.0528Y-2.6047
X6.0878Y-2.6398
X6.4441Y-2.9307
X6.4441Y-2.9307
X6.4449Y-2.8803
X6.4898Y-2.8803
X6.4898Y-2.9248
X6.535Y-2.2303
X6.5492Y-3.6976
X6.5492Y-3.7453
X6.5496Y-3.8406
X6.55Y-3.8886
X6.5504Y-3.7909
X6.5512Y-3.9362
X6.5815Y-2.2319
X6.6236Y-2.2327
X6.8087Y-3.1512
X6.8087Y-3.1917
X6.8087Y-3.2327
X6.9835Y-2.2283
X7.0248Y-2.2283
X7.0693Y-2.2283
T3
X3.9547Y-2.4236
X4.0098Y-2.4236
X4.065Y-2.4236
X4.1201Y-2.4236
X4.4469Y-2.4236
X4.502Y-2.4236
X4.5571Y-2.4236
X4.6122Y-2.4236
X4.9331Y-2.4236
X4.9882Y-2.4236
X5.0433Y-2.4236
X5.0984Y-2.4236
X5.4193Y-2.4256
X5.4744Y-2.4256
X5.5295Y-2.4256
X5.5846Y-2.4256
X6.3815Y-2.4346
X6.4366Y-2.4346
X6.4917Y-2.4346
X6.5469Y-2.4346
X6.8512Y-2.4331
X6.9063Y-2.4331
X6.9614Y-2.4331
X7.0165Y-2.4331
T4
X4.2421Y-3.1594
X4.2421Y-3.2594
X4.3208Y-3.1594
X4.3208Y-3.2594
T5
X3.9449Y-3.813
X3.9449Y-3.913
X3.9469Y-2.6618
X3.9469Y-2.7618
X6.1953Y-3.2264
X6.2953Y-3.2264
X6.4232Y-3.2264
X6.5232Y-3.2264
T6
X5.4384Y-4.3205
X5.5384Y-4.3205
X5.6384Y-4.3205
X5.7384Y-4.3205
X5.8384Y-4.3205
X5.9384Y-4.3205
X6.0384Y-4.3205
X6.1384Y-4.3205
X6.2384Y-4.3205
X6.4031Y-2.6272
X6.4031Y-2.7272
X6.4764Y-4.0717
X6.4764Y-4.1717
X6.4764Y-4.2717
X6.5031Y-2.6272
X6.5031Y-2.7272
X6.6031Y-2.6272
X6.6031Y-2.7272
X6.7031Y-2.6272
X6.7031Y-2.7272
X6.8673Y-2.6256
X6.8673Y-2.7256
X6.9673Y-2.6256
X6.9673Y-2.7256
X7.035Y-3.2079
X7.0673Y-2.6256
X7.0673Y-2.7256
X7.135Y-3.2079
X7.1673Y-2.6256
X7.1673Y-2.7256
T8
X4.1358Y-2.9732
X4.1358Y-3.4456
T6
X3.9671Y-4.2487G85X3.9671Y-4.3087
G05
X4.0271Y-4.0787G85X4.0871Y-4.0787
G05
X4.2071Y-4.2487G85X4.2071Y-4.3087
G05
T7
X3.948Y-2.1358G85X3.948Y-2.1516
G05
X3.948Y-2.287G85X3.948Y-2.3028
G05
X4.1386Y-2.1358G85X4.1386Y-2.1516
G05
X4.1386Y-2.287G85X4.1386Y-2.3028
G05
X4.4402Y-2.1358G85X4.4402Y-2.1516
G05
X4.4402Y-2.287G85X4.4402Y-2.3028
G05
X4.6307Y-2.1358G85X4.6307Y-2.1516
G05
X4.6307Y-2.287G85X4.6307Y-2.3028
G05
X4.9264Y-2.1358G85X4.9264Y-2.1516
G05
X4.9264Y-2.287G85X4.9264Y-2.3028
G05
X5.1169Y-2.1358G85X5.1169Y-2.1516
G05
X5.1169Y-2.287G85X5.1169Y-2.3028
G05
X5.4126Y-2.1378G85X5.4126Y-2.1535
G05
X5.4126Y-2.289G85X5.4126Y-2.3047
G05
X5.6031Y-2.1378G85X5.6031Y-2.1535
G05
X5.6031Y-2.289G85X5.6031Y-2.3047
G05
X6.3748Y-2.1469G85X6.3748Y-2.1626
G05
X6.3748Y-2.298G85X6.3748Y-2.3138
G05
X6.5654Y-2.1469G85X6.5654Y-2.1626
G05
X6.5654Y-2.298G85X6.5654Y-2.3138
G05
X6.8445Y-2.1453G85X6.8445Y-2.161
G05
X6.8445Y-2.2965G85X6.8445Y-2.3122
G05
X7.035Y-2.1453G85X7.035Y-2.161
G05
X7.035Y-2.2965G85X7.035Y-2.3122
G05
T0
M30
