G04 #@! TF.FileFunction,Legend,Bot*
%FSLAX46Y46*%
G04 Gerber Fmt 4.6, Leading zero omitted, Abs format (unit mm)*
G04 Created by KiCad (PCBNEW 4.0.1-stable) date 07.06.2016 17:51:43*
%MOMM*%
G01*
G04 APERTURE LIST*
%ADD10C,0.100000*%
%ADD11C,0.150000*%
%ADD12C,0.250000*%
G04 APERTURE END LIST*
D10*
D11*
X134294000Y-86724000D02*
X134294000Y-83676000D01*
X134294000Y-83676000D02*
X141406000Y-83676000D01*
X141406000Y-83676000D02*
X141406000Y-86724000D01*
X134294000Y-89772000D02*
X134294000Y-90534000D01*
X134294000Y-90534000D02*
X135818000Y-92820000D01*
X135818000Y-92820000D02*
X139882000Y-92820000D01*
X139882000Y-92820000D02*
X141406000Y-90534000D01*
X141406000Y-90534000D02*
X141406000Y-89772000D01*
X154350000Y-95500000D02*
X154350000Y-96500000D01*
X152650000Y-96500000D02*
X152650000Y-95500000D01*
X161114888Y-83474904D02*
G75*
G02X161130000Y-80450000I-2484888J1524904D01*
G01*
X161130000Y-83450000D02*
X161130000Y-80450000D01*
X161147936Y-81950000D02*
G75*
G03X161147936Y-81950000I-2517936J0D01*
G01*
X127851260Y-105798740D02*
G75*
G03X127851260Y-105798740I-5001260J0D01*
G01*
X122850000Y-111798220D02*
X127851260Y-111798220D01*
X127851260Y-111798220D02*
X128849480Y-110800000D01*
X128849480Y-110800000D02*
X128849480Y-100797480D01*
X128849480Y-100797480D02*
X127851260Y-99799260D01*
X127851260Y-99799260D02*
X117848740Y-99799260D01*
X117848740Y-99799260D02*
X116850520Y-100797480D01*
X116850520Y-100797480D02*
X116850520Y-110800000D01*
X116850520Y-110800000D02*
X117848740Y-111798220D01*
X117848740Y-111798220D02*
X122850000Y-111798220D01*
X161935112Y-80425096D02*
G75*
G02X161920000Y-83450000I2484888J-1524904D01*
G01*
X161920000Y-80450000D02*
X161920000Y-83450000D01*
X166937936Y-81950000D02*
G75*
G03X166937936Y-81950000I-2517936J0D01*
G01*
X142499180Y-102099360D02*
X142499180Y-99600000D01*
X139999820Y-103600500D02*
X139999820Y-100600760D01*
X141498420Y-102101900D02*
X139999820Y-103600500D01*
X139999820Y-100600760D02*
X141498420Y-102101900D01*
X141498420Y-103600500D02*
X141498420Y-100600760D01*
X141498420Y-102101900D02*
X142499180Y-102101900D01*
X139999820Y-102101900D02*
X138999060Y-102101900D01*
X139999820Y-97100640D02*
X138999060Y-97100640D01*
X141498420Y-97100640D02*
X142499180Y-97100640D01*
X142499180Y-97100640D02*
X142499180Y-99600000D01*
X142499180Y-99600000D02*
X142999560Y-99600000D01*
X141498420Y-98599240D02*
X141498420Y-95599500D01*
X139999820Y-95599500D02*
X141498420Y-97100640D01*
X141498420Y-97100640D02*
X139999820Y-98599240D01*
X139999820Y-98599240D02*
X139999820Y-95599500D01*
X137000080Y-95599500D02*
X137000080Y-93600520D01*
X137000080Y-93600520D02*
X145999300Y-93600520D01*
X145999300Y-105599480D02*
X137000080Y-105599480D01*
X137000080Y-105599480D02*
X137000080Y-103600500D01*
X98675096Y-100604888D02*
G75*
G02X101700000Y-100620000I1524904J2484888D01*
G01*
X98700000Y-100620000D02*
X101700000Y-100620000D01*
X102717936Y-98120000D02*
G75*
G03X102717936Y-98120000I-2517936J0D01*
G01*
X93652000Y-112998000D02*
X92890000Y-112998000D01*
X92890000Y-112998000D02*
X92890000Y-104362000D01*
X92890000Y-104362000D02*
X93652000Y-104362000D01*
X96700000Y-112998000D02*
X96700000Y-104362000D01*
X106352000Y-112998000D02*
X106352000Y-104362000D01*
X93652000Y-104362000D02*
X106352000Y-104362000D01*
X93652000Y-112998000D02*
X106352000Y-112998000D01*
X164250000Y-73450000D02*
G75*
G03X164250000Y-73450000I-100000J0D01*
G01*
X163900000Y-72900000D02*
X163900000Y-73400000D01*
X161000000Y-72900000D02*
X163900000Y-72900000D01*
X161000000Y-73400000D02*
X161000000Y-72900000D01*
X163900000Y-73400000D02*
X161000000Y-73400000D01*
X103398980Y-87616000D02*
X94762980Y-87616000D01*
X111780980Y-87616000D02*
X106700980Y-87616000D01*
X103398980Y-75424000D02*
X94762980Y-75424000D01*
X111780980Y-75424000D02*
X106700980Y-75424000D01*
X94762980Y-75424000D02*
X94762980Y-87616000D01*
X111780980Y-87616000D02*
X111780980Y-75424000D01*
X132760000Y-62350000D02*
X132760000Y-59300000D01*
X127040000Y-62350000D02*
X127040000Y-59300000D01*
X127040000Y-62350000D02*
X132760000Y-62350000D01*
X127040000Y-53500000D02*
X127040000Y-49336500D01*
X127040000Y-49336500D02*
X132760000Y-49336500D01*
X132760000Y-53500000D02*
X132760000Y-49336500D01*
X152760000Y-62350000D02*
X152760000Y-59300000D01*
X147040000Y-62350000D02*
X147040000Y-59300000D01*
X147040000Y-62350000D02*
X152760000Y-62350000D01*
X147040000Y-53500000D02*
X147040000Y-49336500D01*
X147040000Y-49336500D02*
X152760000Y-49336500D01*
X152760000Y-53500000D02*
X152760000Y-49336500D01*
X142760000Y-62350000D02*
X142760000Y-59300000D01*
X137040000Y-62350000D02*
X137040000Y-59300000D01*
X137040000Y-62350000D02*
X142760000Y-62350000D01*
X137040000Y-53500000D02*
X137040000Y-49336500D01*
X137040000Y-49336500D02*
X142760000Y-49336500D01*
X142760000Y-53500000D02*
X142760000Y-49336500D01*
X122760000Y-62350000D02*
X122760000Y-59300000D01*
X117040000Y-62350000D02*
X117040000Y-59300000D01*
X117040000Y-62350000D02*
X122760000Y-62350000D01*
X117040000Y-53500000D02*
X117040000Y-49336500D01*
X117040000Y-49336500D02*
X122760000Y-49336500D01*
X122760000Y-53500000D02*
X122760000Y-49336500D01*
X138700000Y-80050000D02*
X138700000Y-81050000D01*
X137000000Y-81050000D02*
X137000000Y-80050000D01*
X98625096Y-71514888D02*
G75*
G02X101650000Y-71530000I1524904J2484888D01*
G01*
X98650000Y-71530000D02*
X101650000Y-71530000D01*
X102667936Y-69030000D02*
G75*
G03X102667936Y-69030000I-2517936J0D01*
G01*
X151150000Y-77000000D02*
X151150000Y-76000000D01*
X152850000Y-76000000D02*
X152850000Y-77000000D01*
X153500000Y-101100000D02*
X152500000Y-101100000D01*
X152500000Y-99400000D02*
X153500000Y-99400000D01*
X146000000Y-84850000D02*
X145000000Y-84850000D01*
X145000000Y-83150000D02*
X146000000Y-83150000D01*
X151150000Y-68750000D02*
X151150000Y-67750000D01*
X152850000Y-67750000D02*
X152850000Y-68750000D01*
X158150000Y-78250000D02*
X158150000Y-77250000D01*
X159850000Y-77250000D02*
X159850000Y-78250000D01*
X143900000Y-75750000D02*
X143900000Y-74750000D01*
X145600000Y-74750000D02*
X145600000Y-75750000D01*
X158150000Y-70000000D02*
X158150000Y-69000000D01*
X159850000Y-69000000D02*
X159850000Y-70000000D01*
X143900000Y-67500000D02*
X143900000Y-66500000D01*
X145600000Y-66500000D02*
X145600000Y-67500000D01*
X146300000Y-85375000D02*
X145100000Y-85375000D01*
X145100000Y-87125000D02*
X146300000Y-87125000D01*
X152875000Y-72550000D02*
X152875000Y-71350000D01*
X151125000Y-71350000D02*
X151125000Y-72550000D01*
X154700000Y-69625000D02*
X155900000Y-69625000D01*
X155900000Y-67875000D02*
X154700000Y-67875000D01*
X159875000Y-73900000D02*
X159875000Y-72700000D01*
X158125000Y-72700000D02*
X158125000Y-73900000D01*
X161850000Y-70875000D02*
X163050000Y-70875000D01*
X163050000Y-69125000D02*
X161850000Y-69125000D01*
X145625000Y-71300000D02*
X145625000Y-70100000D01*
X143875000Y-70100000D02*
X143875000Y-71300000D01*
X147700000Y-68375000D02*
X148900000Y-68375000D01*
X148900000Y-66625000D02*
X147700000Y-66625000D01*
X159424000Y-101306000D02*
X156376000Y-101306000D01*
X156376000Y-101306000D02*
X156376000Y-94194000D01*
X156376000Y-94194000D02*
X159424000Y-94194000D01*
X162472000Y-101306000D02*
X163234000Y-101306000D01*
X163234000Y-101306000D02*
X165520000Y-99782000D01*
X165520000Y-99782000D02*
X165520000Y-95718000D01*
X165520000Y-95718000D02*
X163234000Y-94194000D01*
X163234000Y-94194000D02*
X162472000Y-94194000D01*
X157100000Y-72200000D02*
G75*
G03X157100000Y-72200000I-100000J0D01*
G01*
X156750000Y-71650000D02*
X156750000Y-72150000D01*
X153850000Y-71650000D02*
X156750000Y-71650000D01*
X153850000Y-72150000D02*
X153850000Y-71650000D01*
X156750000Y-72150000D02*
X153850000Y-72150000D01*
X150100000Y-70950000D02*
G75*
G03X150100000Y-70950000I-100000J0D01*
G01*
X149750000Y-70400000D02*
X149750000Y-70900000D01*
X146850000Y-70400000D02*
X149750000Y-70400000D01*
X146850000Y-70900000D02*
X146850000Y-70400000D01*
X149750000Y-70900000D02*
X146850000Y-70900000D01*
X161071000Y-100880000D02*
X161071000Y-111040000D01*
X166913000Y-111040000D02*
X166913000Y-100880000D01*
X166913000Y-100880000D02*
X161071000Y-100880000D01*
X166913000Y-111040000D02*
X161071000Y-111040000D01*
X117476000Y-95147000D02*
X120651000Y-95147000D01*
X120651000Y-95147000D02*
X120651000Y-96925000D01*
X120651000Y-96925000D02*
X117476000Y-96925000D01*
X117476000Y-90575000D02*
X120651000Y-90575000D01*
X120651000Y-90575000D02*
X120651000Y-92353000D01*
X120651000Y-92353000D02*
X117476000Y-92353000D01*
X111380000Y-97179000D02*
X117476000Y-97179000D01*
X117476000Y-97179000D02*
X117476000Y-90321000D01*
X117476000Y-90321000D02*
X109602000Y-90321000D01*
X109475000Y-90321000D02*
X109475000Y-97179000D01*
X109602000Y-97179000D02*
X111380000Y-97179000D01*
D12*
X126791421Y-93700000D02*
G75*
G03X126791421Y-93700000I-141421J0D01*
G01*
D11*
X127100000Y-94200000D02*
X127100000Y-92600000D01*
X127100000Y-92600000D02*
X124200000Y-92600000D01*
X124200000Y-92600000D02*
X124200000Y-94200000D01*
X124200000Y-94200000D02*
X127100000Y-94200000D01*
X159830000Y-106271000D02*
X149670000Y-106271000D01*
X149670000Y-112113000D02*
X159830000Y-112113000D01*
X159830000Y-112113000D02*
X159830000Y-106271000D01*
X149670000Y-112113000D02*
X149670000Y-106271000D01*
X162760000Y-62350000D02*
X162760000Y-59300000D01*
X157040000Y-62350000D02*
X157040000Y-59300000D01*
X157040000Y-62350000D02*
X162760000Y-62350000D01*
X157040000Y-53500000D02*
X157040000Y-49336500D01*
X157040000Y-49336500D02*
X162760000Y-49336500D01*
X162760000Y-53500000D02*
X162760000Y-49336500D01*
X112760000Y-62350000D02*
X112760000Y-59300000D01*
X107040000Y-62350000D02*
X107040000Y-59300000D01*
X107040000Y-62350000D02*
X112760000Y-62350000D01*
X107040000Y-53500000D02*
X107040000Y-49336500D01*
X107040000Y-49336500D02*
X112760000Y-49336500D01*
X112760000Y-53500000D02*
X112760000Y-49336500D01*
X146150000Y-80875000D02*
X144950000Y-80875000D01*
X144950000Y-82625000D02*
X146150000Y-82625000D01*
X155375000Y-77150000D02*
X155375000Y-75950000D01*
X153625000Y-75950000D02*
X153625000Y-77150000D01*
X162375000Y-78300000D02*
X162375000Y-77100000D01*
X160625000Y-77100000D02*
X160625000Y-78300000D01*
X148125000Y-75800000D02*
X148125000Y-74600000D01*
X146375000Y-74600000D02*
X146375000Y-75800000D01*
X152263000Y-106271000D02*
X134737000Y-106271000D01*
X134737000Y-112113000D02*
X152263000Y-112113000D01*
X152263000Y-112113000D02*
X152263000Y-106271000D01*
X134737000Y-112113000D02*
X134737000Y-106271000D01*
X139350000Y-81200000D02*
X139350000Y-80200000D01*
X141050000Y-80200000D02*
X141050000Y-81200000D01*
X125450000Y-81700000D02*
X125450000Y-82700000D01*
X123750000Y-82700000D02*
X123750000Y-81700000D01*
X130500000Y-91300000D02*
X129500000Y-91300000D01*
X129500000Y-89600000D02*
X130500000Y-89600000D01*
X160525000Y-86650000D02*
X160525000Y-87850000D01*
X162275000Y-87850000D02*
X162275000Y-86650000D01*
X163025000Y-86600000D02*
X163025000Y-87800000D01*
X164775000Y-87800000D02*
X164775000Y-86600000D01*
X123425000Y-92150000D02*
X123425000Y-90950000D01*
X121675000Y-90950000D02*
X121675000Y-92150000D01*
X143511905Y-85502381D02*
X143511905Y-86311905D01*
X143464286Y-86407143D01*
X143416667Y-86454762D01*
X143321429Y-86502381D01*
X143130952Y-86502381D01*
X143035714Y-86454762D01*
X142988095Y-86407143D01*
X142940476Y-86311905D01*
X142940476Y-85502381D01*
X142321429Y-85930952D02*
X142416667Y-85883333D01*
X142464286Y-85835714D01*
X142511905Y-85740476D01*
X142511905Y-85692857D01*
X142464286Y-85597619D01*
X142416667Y-85550000D01*
X142321429Y-85502381D01*
X142130952Y-85502381D01*
X142035714Y-85550000D01*
X141988095Y-85597619D01*
X141940476Y-85692857D01*
X141940476Y-85740476D01*
X141988095Y-85835714D01*
X142035714Y-85883333D01*
X142130952Y-85930952D01*
X142321429Y-85930952D01*
X142416667Y-85978571D01*
X142464286Y-86026190D01*
X142511905Y-86121429D01*
X142511905Y-86311905D01*
X142464286Y-86407143D01*
X142416667Y-86454762D01*
X142321429Y-86502381D01*
X142130952Y-86502381D01*
X142035714Y-86454762D01*
X141988095Y-86407143D01*
X141940476Y-86311905D01*
X141940476Y-86121429D01*
X141988095Y-86026190D01*
X142035714Y-85978571D01*
X142130952Y-85930952D01*
X155957143Y-95833334D02*
X156004762Y-95785715D01*
X156052381Y-95642858D01*
X156052381Y-95547620D01*
X156004762Y-95404762D01*
X155909524Y-95309524D01*
X155814286Y-95261905D01*
X155623810Y-95214286D01*
X155480952Y-95214286D01*
X155290476Y-95261905D01*
X155195238Y-95309524D01*
X155100000Y-95404762D01*
X155052381Y-95547620D01*
X155052381Y-95642858D01*
X155100000Y-95785715D01*
X155147619Y-95833334D01*
X155052381Y-96690477D02*
X155052381Y-96500000D01*
X155100000Y-96404762D01*
X155147619Y-96357143D01*
X155290476Y-96261905D01*
X155480952Y-96214286D01*
X155861905Y-96214286D01*
X155957143Y-96261905D01*
X156004762Y-96309524D01*
X156052381Y-96404762D01*
X156052381Y-96595239D01*
X156004762Y-96690477D01*
X155957143Y-96738096D01*
X155861905Y-96785715D01*
X155623810Y-96785715D01*
X155528571Y-96738096D01*
X155480952Y-96690477D01*
X155433333Y-96595239D01*
X155433333Y-96404762D01*
X155480952Y-96309524D01*
X155528571Y-96261905D01*
X155623810Y-96214286D01*
X156188095Y-85652381D02*
X156188095Y-84652381D01*
X155950000Y-84652381D01*
X155807142Y-84700000D01*
X155711904Y-84795238D01*
X155664285Y-84890476D01*
X155616666Y-85080952D01*
X155616666Y-85223810D01*
X155664285Y-85414286D01*
X155711904Y-85509524D01*
X155807142Y-85604762D01*
X155950000Y-85652381D01*
X156188095Y-85652381D01*
X155045238Y-85080952D02*
X155140476Y-85033333D01*
X155188095Y-84985714D01*
X155235714Y-84890476D01*
X155235714Y-84842857D01*
X155188095Y-84747619D01*
X155140476Y-84700000D01*
X155045238Y-84652381D01*
X154854761Y-84652381D01*
X154759523Y-84700000D01*
X154711904Y-84747619D01*
X154664285Y-84842857D01*
X154664285Y-84890476D01*
X154711904Y-84985714D01*
X154759523Y-85033333D01*
X154854761Y-85080952D01*
X155045238Y-85080952D01*
X155140476Y-85128571D01*
X155188095Y-85176190D01*
X155235714Y-85271429D01*
X155235714Y-85461905D01*
X155188095Y-85557143D01*
X155140476Y-85604762D01*
X155045238Y-85652381D01*
X154854761Y-85652381D01*
X154759523Y-85604762D01*
X154711904Y-85557143D01*
X154664285Y-85461905D01*
X154664285Y-85271429D01*
X154711904Y-85176190D01*
X154759523Y-85128571D01*
X154854761Y-85080952D01*
X130166666Y-107202381D02*
X130642857Y-107202381D01*
X130642857Y-106202381D01*
X129928571Y-106202381D02*
X129309523Y-106202381D01*
X129642857Y-106583333D01*
X129499999Y-106583333D01*
X129404761Y-106630952D01*
X129357142Y-106678571D01*
X129309523Y-106773810D01*
X129309523Y-107011905D01*
X129357142Y-107107143D01*
X129404761Y-107154762D01*
X129499999Y-107202381D01*
X129785714Y-107202381D01*
X129880952Y-107154762D01*
X129928571Y-107107143D01*
X167714286Y-78652381D02*
X167714286Y-77652381D01*
X167476191Y-77652381D01*
X167333333Y-77700000D01*
X167238095Y-77795238D01*
X167190476Y-77890476D01*
X167142857Y-78080952D01*
X167142857Y-78223810D01*
X167190476Y-78414286D01*
X167238095Y-78509524D01*
X167333333Y-78604762D01*
X167476191Y-78652381D01*
X167714286Y-78652381D01*
X166190476Y-78652381D02*
X166761905Y-78652381D01*
X166476191Y-78652381D02*
X166476191Y-77652381D01*
X166571429Y-77795238D01*
X166666667Y-77890476D01*
X166761905Y-77938095D01*
X165809524Y-77747619D02*
X165761905Y-77700000D01*
X165666667Y-77652381D01*
X165428571Y-77652381D01*
X165333333Y-77700000D01*
X165285714Y-77747619D01*
X165238095Y-77842857D01*
X165238095Y-77938095D01*
X165285714Y-78080952D01*
X165857143Y-78652381D01*
X165238095Y-78652381D01*
X148900241Y-98586374D02*
X147900241Y-98586374D01*
X147900241Y-98824469D01*
X147947860Y-98967327D01*
X148043098Y-99062565D01*
X148138336Y-99110184D01*
X148328812Y-99157803D01*
X148471670Y-99157803D01*
X148662146Y-99110184D01*
X148757384Y-99062565D01*
X148852622Y-98967327D01*
X148900241Y-98824469D01*
X148900241Y-98586374D01*
X148900241Y-100110184D02*
X148900241Y-99538755D01*
X148900241Y-99824469D02*
X147900241Y-99824469D01*
X148043098Y-99729231D01*
X148138336Y-99633993D01*
X148185955Y-99538755D01*
X148900241Y-101062565D02*
X148900241Y-100491136D01*
X148900241Y-100776850D02*
X147900241Y-100776850D01*
X148043098Y-100681612D01*
X148138336Y-100586374D01*
X148185955Y-100491136D01*
X98552381Y-93761905D02*
X97552381Y-93761905D01*
X97552381Y-94000000D01*
X97600000Y-94142858D01*
X97695238Y-94238096D01*
X97790476Y-94285715D01*
X97980952Y-94333334D01*
X98123810Y-94333334D01*
X98314286Y-94285715D01*
X98409524Y-94238096D01*
X98504762Y-94142858D01*
X98552381Y-94000000D01*
X98552381Y-93761905D01*
X98552381Y-94809524D02*
X98552381Y-95000000D01*
X98504762Y-95095239D01*
X98457143Y-95142858D01*
X98314286Y-95238096D01*
X98123810Y-95285715D01*
X97742857Y-95285715D01*
X97647619Y-95238096D01*
X97600000Y-95190477D01*
X97552381Y-95095239D01*
X97552381Y-94904762D01*
X97600000Y-94809524D01*
X97647619Y-94761905D01*
X97742857Y-94714286D01*
X97980952Y-94714286D01*
X98076190Y-94761905D01*
X98123810Y-94809524D01*
X98171429Y-94904762D01*
X98171429Y-95095239D01*
X98123810Y-95190477D01*
X98076190Y-95238096D01*
X97980952Y-95285715D01*
X102232285Y-114625143D02*
X102279904Y-114672762D01*
X102422761Y-114720381D01*
X102517999Y-114720381D01*
X102660857Y-114672762D01*
X102756095Y-114577524D01*
X102803714Y-114482286D01*
X102851333Y-114291810D01*
X102851333Y-114148952D01*
X102803714Y-113958476D01*
X102756095Y-113863238D01*
X102660857Y-113768000D01*
X102517999Y-113720381D01*
X102422761Y-113720381D01*
X102279904Y-113768000D01*
X102232285Y-113815619D01*
X101613238Y-113720381D02*
X101422761Y-113720381D01*
X101327523Y-113768000D01*
X101232285Y-113863238D01*
X101184666Y-114053714D01*
X101184666Y-114387048D01*
X101232285Y-114577524D01*
X101327523Y-114672762D01*
X101422761Y-114720381D01*
X101613238Y-114720381D01*
X101708476Y-114672762D01*
X101803714Y-114577524D01*
X101851333Y-114387048D01*
X101851333Y-114053714D01*
X101803714Y-113863238D01*
X101708476Y-113768000D01*
X101613238Y-113720381D01*
X100756095Y-114720381D02*
X100756095Y-113720381D01*
X100184666Y-114720381D01*
X100184666Y-113720381D01*
X99756095Y-113815619D02*
X99708476Y-113768000D01*
X99613238Y-113720381D01*
X99375142Y-113720381D01*
X99279904Y-113768000D01*
X99232285Y-113815619D01*
X99184666Y-113910857D01*
X99184666Y-114006095D01*
X99232285Y-114148952D01*
X99803714Y-114720381D01*
X99184666Y-114720381D01*
X164452381Y-72438095D02*
X165261905Y-72438095D01*
X165357143Y-72485714D01*
X165404762Y-72533333D01*
X165452381Y-72628571D01*
X165452381Y-72819048D01*
X165404762Y-72914286D01*
X165357143Y-72961905D01*
X165261905Y-73009524D01*
X164452381Y-73009524D01*
X164452381Y-73390476D02*
X164452381Y-74009524D01*
X164833333Y-73676190D01*
X164833333Y-73819048D01*
X164880952Y-73914286D01*
X164928571Y-73961905D01*
X165023810Y-74009524D01*
X165261905Y-74009524D01*
X165357143Y-73961905D01*
X165404762Y-73914286D01*
X165452381Y-73819048D01*
X165452381Y-73533333D01*
X165404762Y-73438095D01*
X165357143Y-73390476D01*
X113652381Y-80585714D02*
X112652381Y-80585714D01*
X112652381Y-80966667D01*
X112700000Y-81061905D01*
X112747619Y-81109524D01*
X112842857Y-81157143D01*
X112985714Y-81157143D01*
X113080952Y-81109524D01*
X113128571Y-81061905D01*
X113176190Y-80966667D01*
X113176190Y-80585714D01*
X113652381Y-82109524D02*
X113652381Y-81538095D01*
X113652381Y-81823809D02*
X112652381Y-81823809D01*
X112795238Y-81728571D01*
X112890476Y-81633333D01*
X112938095Y-81538095D01*
X112652381Y-82728571D02*
X112652381Y-82823810D01*
X112700000Y-82919048D01*
X112747619Y-82966667D01*
X112842857Y-83014286D01*
X113033333Y-83061905D01*
X113271429Y-83061905D01*
X113461905Y-83014286D01*
X113557143Y-82966667D01*
X113604762Y-82919048D01*
X113652381Y-82823810D01*
X113652381Y-82728571D01*
X113604762Y-82633333D01*
X113557143Y-82585714D01*
X113461905Y-82538095D01*
X113271429Y-82490476D01*
X113033333Y-82490476D01*
X112842857Y-82538095D01*
X112747619Y-82585714D01*
X112700000Y-82633333D01*
X112652381Y-82728571D01*
X135338095Y-49902381D02*
X135338095Y-48902381D01*
X134957142Y-48902381D01*
X134861904Y-48950000D01*
X134814285Y-48997619D01*
X134766666Y-49092857D01*
X134766666Y-49235714D01*
X134814285Y-49330952D01*
X134861904Y-49378571D01*
X134957142Y-49426190D01*
X135338095Y-49426190D01*
X134385714Y-48997619D02*
X134338095Y-48950000D01*
X134242857Y-48902381D01*
X134004761Y-48902381D01*
X133909523Y-48950000D01*
X133861904Y-48997619D01*
X133814285Y-49092857D01*
X133814285Y-49188095D01*
X133861904Y-49330952D01*
X134433333Y-49902381D01*
X133814285Y-49902381D01*
X155138095Y-50052381D02*
X155138095Y-49052381D01*
X154757142Y-49052381D01*
X154661904Y-49100000D01*
X154614285Y-49147619D01*
X154566666Y-49242857D01*
X154566666Y-49385714D01*
X154614285Y-49480952D01*
X154661904Y-49528571D01*
X154757142Y-49576190D01*
X155138095Y-49576190D01*
X154233333Y-49052381D02*
X153614285Y-49052381D01*
X153947619Y-49433333D01*
X153804761Y-49433333D01*
X153709523Y-49480952D01*
X153661904Y-49528571D01*
X153614285Y-49623810D01*
X153614285Y-49861905D01*
X153661904Y-49957143D01*
X153709523Y-50004762D01*
X153804761Y-50052381D01*
X154090476Y-50052381D01*
X154185714Y-50004762D01*
X154233333Y-49957143D01*
X145238095Y-50052381D02*
X145238095Y-49052381D01*
X144857142Y-49052381D01*
X144761904Y-49100000D01*
X144714285Y-49147619D01*
X144666666Y-49242857D01*
X144666666Y-49385714D01*
X144714285Y-49480952D01*
X144761904Y-49528571D01*
X144857142Y-49576190D01*
X145238095Y-49576190D01*
X143809523Y-49052381D02*
X144000000Y-49052381D01*
X144095238Y-49100000D01*
X144142857Y-49147619D01*
X144238095Y-49290476D01*
X144285714Y-49480952D01*
X144285714Y-49861905D01*
X144238095Y-49957143D01*
X144190476Y-50004762D01*
X144095238Y-50052381D01*
X143904761Y-50052381D01*
X143809523Y-50004762D01*
X143761904Y-49957143D01*
X143714285Y-49861905D01*
X143714285Y-49623810D01*
X143761904Y-49528571D01*
X143809523Y-49480952D01*
X143904761Y-49433333D01*
X144095238Y-49433333D01*
X144190476Y-49480952D01*
X144238095Y-49528571D01*
X144285714Y-49623810D01*
X125188095Y-49902381D02*
X125188095Y-48902381D01*
X124807142Y-48902381D01*
X124711904Y-48950000D01*
X124664285Y-48997619D01*
X124616666Y-49092857D01*
X124616666Y-49235714D01*
X124664285Y-49330952D01*
X124711904Y-49378571D01*
X124807142Y-49426190D01*
X125188095Y-49426190D01*
X123759523Y-49235714D02*
X123759523Y-49902381D01*
X123997619Y-48854762D02*
X124235714Y-49569048D01*
X123616666Y-49569048D01*
X142507143Y-79957143D02*
X142554762Y-79909524D01*
X142602381Y-79766667D01*
X142602381Y-79671429D01*
X142554762Y-79528571D01*
X142459524Y-79433333D01*
X142364286Y-79385714D01*
X142173810Y-79338095D01*
X142030952Y-79338095D01*
X141840476Y-79385714D01*
X141745238Y-79433333D01*
X141650000Y-79528571D01*
X141602381Y-79671429D01*
X141602381Y-79766667D01*
X141650000Y-79909524D01*
X141697619Y-79957143D01*
X141697619Y-80338095D02*
X141650000Y-80385714D01*
X141602381Y-80480952D01*
X141602381Y-80719048D01*
X141650000Y-80814286D01*
X141697619Y-80861905D01*
X141792857Y-80909524D01*
X141888095Y-80909524D01*
X142030952Y-80861905D01*
X142602381Y-80290476D01*
X142602381Y-80909524D01*
X141602381Y-81814286D02*
X141602381Y-81338095D01*
X142078571Y-81290476D01*
X142030952Y-81338095D01*
X141983333Y-81433333D01*
X141983333Y-81671429D01*
X142030952Y-81766667D01*
X142078571Y-81814286D01*
X142173810Y-81861905D01*
X142411905Y-81861905D01*
X142507143Y-81814286D01*
X142554762Y-81766667D01*
X142602381Y-81671429D01*
X142602381Y-81433333D01*
X142554762Y-81338095D01*
X142507143Y-81290476D01*
X96538381Y-68037905D02*
X95538381Y-68037905D01*
X95538381Y-68276000D01*
X95586000Y-68418858D01*
X95681238Y-68514096D01*
X95776476Y-68561715D01*
X95966952Y-68609334D01*
X96109810Y-68609334D01*
X96300286Y-68561715D01*
X96395524Y-68514096D01*
X96490762Y-68418858D01*
X96538381Y-68276000D01*
X96538381Y-68037905D01*
X96538381Y-69561715D02*
X96538381Y-68990286D01*
X96538381Y-69276000D02*
X95538381Y-69276000D01*
X95681238Y-69180762D01*
X95776476Y-69085524D01*
X95824095Y-68990286D01*
X98697381Y-71943095D02*
X97697381Y-71943095D01*
X98697381Y-72514524D02*
X98125952Y-72085952D01*
X97697381Y-72514524D02*
X98268810Y-71943095D01*
X150257143Y-76333334D02*
X150304762Y-76285715D01*
X150352381Y-76142858D01*
X150352381Y-76047620D01*
X150304762Y-75904762D01*
X150209524Y-75809524D01*
X150114286Y-75761905D01*
X149923810Y-75714286D01*
X149780952Y-75714286D01*
X149590476Y-75761905D01*
X149495238Y-75809524D01*
X149400000Y-75904762D01*
X149352381Y-76047620D01*
X149352381Y-76142858D01*
X149400000Y-76285715D01*
X149447619Y-76333334D01*
X149447619Y-76714286D02*
X149400000Y-76761905D01*
X149352381Y-76857143D01*
X149352381Y-77095239D01*
X149400000Y-77190477D01*
X149447619Y-77238096D01*
X149542857Y-77285715D01*
X149638095Y-77285715D01*
X149780952Y-77238096D01*
X150352381Y-76666667D01*
X150352381Y-77285715D01*
X153166666Y-102707143D02*
X153214285Y-102754762D01*
X153357142Y-102802381D01*
X153452380Y-102802381D01*
X153595238Y-102754762D01*
X153690476Y-102659524D01*
X153738095Y-102564286D01*
X153785714Y-102373810D01*
X153785714Y-102230952D01*
X153738095Y-102040476D01*
X153690476Y-101945238D01*
X153595238Y-101850000D01*
X153452380Y-101802381D01*
X153357142Y-101802381D01*
X153214285Y-101850000D01*
X153166666Y-101897619D01*
X152261904Y-101802381D02*
X152738095Y-101802381D01*
X152785714Y-102278571D01*
X152738095Y-102230952D01*
X152642857Y-102183333D01*
X152404761Y-102183333D01*
X152309523Y-102230952D01*
X152261904Y-102278571D01*
X152214285Y-102373810D01*
X152214285Y-102611905D01*
X152261904Y-102707143D01*
X152309523Y-102754762D01*
X152404761Y-102802381D01*
X152642857Y-102802381D01*
X152738095Y-102754762D01*
X152785714Y-102707143D01*
X148516666Y-84457143D02*
X148564285Y-84504762D01*
X148707142Y-84552381D01*
X148802380Y-84552381D01*
X148945238Y-84504762D01*
X149040476Y-84409524D01*
X149088095Y-84314286D01*
X149135714Y-84123810D01*
X149135714Y-83980952D01*
X149088095Y-83790476D01*
X149040476Y-83695238D01*
X148945238Y-83600000D01*
X148802380Y-83552381D01*
X148707142Y-83552381D01*
X148564285Y-83600000D01*
X148516666Y-83647619D01*
X148183333Y-83552381D02*
X147516666Y-83552381D01*
X147945238Y-84552381D01*
X152307143Y-64157143D02*
X152354762Y-64109524D01*
X152402381Y-63966667D01*
X152402381Y-63871429D01*
X152354762Y-63728571D01*
X152259524Y-63633333D01*
X152164286Y-63585714D01*
X151973810Y-63538095D01*
X151830952Y-63538095D01*
X151640476Y-63585714D01*
X151545238Y-63633333D01*
X151450000Y-63728571D01*
X151402381Y-63871429D01*
X151402381Y-63966667D01*
X151450000Y-64109524D01*
X151497619Y-64157143D01*
X152402381Y-65109524D02*
X152402381Y-64538095D01*
X152402381Y-64823809D02*
X151402381Y-64823809D01*
X151545238Y-64728571D01*
X151640476Y-64633333D01*
X151688095Y-64538095D01*
X151402381Y-65728571D02*
X151402381Y-65823810D01*
X151450000Y-65919048D01*
X151497619Y-65966667D01*
X151592857Y-66014286D01*
X151783333Y-66061905D01*
X152021429Y-66061905D01*
X152211905Y-66014286D01*
X152307143Y-65966667D01*
X152354762Y-65919048D01*
X152402381Y-65823810D01*
X152402381Y-65728571D01*
X152354762Y-65633333D01*
X152307143Y-65585714D01*
X152211905Y-65538095D01*
X152021429Y-65490476D01*
X151783333Y-65490476D01*
X151592857Y-65538095D01*
X151497619Y-65585714D01*
X151450000Y-65633333D01*
X151402381Y-65728571D01*
X157657143Y-76757143D02*
X157704762Y-76709524D01*
X157752381Y-76566667D01*
X157752381Y-76471429D01*
X157704762Y-76328571D01*
X157609524Y-76233333D01*
X157514286Y-76185714D01*
X157323810Y-76138095D01*
X157180952Y-76138095D01*
X156990476Y-76185714D01*
X156895238Y-76233333D01*
X156800000Y-76328571D01*
X156752381Y-76471429D01*
X156752381Y-76566667D01*
X156800000Y-76709524D01*
X156847619Y-76757143D01*
X157752381Y-77709524D02*
X157752381Y-77138095D01*
X157752381Y-77423809D02*
X156752381Y-77423809D01*
X156895238Y-77328571D01*
X156990476Y-77233333D01*
X157038095Y-77138095D01*
X156847619Y-78090476D02*
X156800000Y-78138095D01*
X156752381Y-78233333D01*
X156752381Y-78471429D01*
X156800000Y-78566667D01*
X156847619Y-78614286D01*
X156942857Y-78661905D01*
X157038095Y-78661905D01*
X157180952Y-78614286D01*
X157752381Y-78042857D01*
X157752381Y-78661905D01*
X143257143Y-74557143D02*
X143304762Y-74509524D01*
X143352381Y-74366667D01*
X143352381Y-74271429D01*
X143304762Y-74128571D01*
X143209524Y-74033333D01*
X143114286Y-73985714D01*
X142923810Y-73938095D01*
X142780952Y-73938095D01*
X142590476Y-73985714D01*
X142495238Y-74033333D01*
X142400000Y-74128571D01*
X142352381Y-74271429D01*
X142352381Y-74366667D01*
X142400000Y-74509524D01*
X142447619Y-74557143D01*
X143352381Y-75509524D02*
X143352381Y-74938095D01*
X143352381Y-75223809D02*
X142352381Y-75223809D01*
X142495238Y-75128571D01*
X142590476Y-75033333D01*
X142638095Y-74938095D01*
X142685714Y-76366667D02*
X143352381Y-76366667D01*
X142304762Y-76128571D02*
X143019048Y-75890476D01*
X143019048Y-76509524D01*
X159357143Y-65507143D02*
X159404762Y-65459524D01*
X159452381Y-65316667D01*
X159452381Y-65221429D01*
X159404762Y-65078571D01*
X159309524Y-64983333D01*
X159214286Y-64935714D01*
X159023810Y-64888095D01*
X158880952Y-64888095D01*
X158690476Y-64935714D01*
X158595238Y-64983333D01*
X158500000Y-65078571D01*
X158452381Y-65221429D01*
X158452381Y-65316667D01*
X158500000Y-65459524D01*
X158547619Y-65507143D01*
X159452381Y-66459524D02*
X159452381Y-65888095D01*
X159452381Y-66173809D02*
X158452381Y-66173809D01*
X158595238Y-66078571D01*
X158690476Y-65983333D01*
X158738095Y-65888095D01*
X158452381Y-67364286D02*
X158452381Y-66888095D01*
X158928571Y-66840476D01*
X158880952Y-66888095D01*
X158833333Y-66983333D01*
X158833333Y-67221429D01*
X158880952Y-67316667D01*
X158928571Y-67364286D01*
X159023810Y-67411905D01*
X159261905Y-67411905D01*
X159357143Y-67364286D01*
X159404762Y-67316667D01*
X159452381Y-67221429D01*
X159452381Y-66983333D01*
X159404762Y-66888095D01*
X159357143Y-66840476D01*
X145157143Y-63057143D02*
X145204762Y-63009524D01*
X145252381Y-62866667D01*
X145252381Y-62771429D01*
X145204762Y-62628571D01*
X145109524Y-62533333D01*
X145014286Y-62485714D01*
X144823810Y-62438095D01*
X144680952Y-62438095D01*
X144490476Y-62485714D01*
X144395238Y-62533333D01*
X144300000Y-62628571D01*
X144252381Y-62771429D01*
X144252381Y-62866667D01*
X144300000Y-63009524D01*
X144347619Y-63057143D01*
X145252381Y-64009524D02*
X145252381Y-63438095D01*
X145252381Y-63723809D02*
X144252381Y-63723809D01*
X144395238Y-63628571D01*
X144490476Y-63533333D01*
X144538095Y-63438095D01*
X144252381Y-64342857D02*
X144252381Y-65009524D01*
X145252381Y-64580952D01*
X145216666Y-88502381D02*
X145550000Y-88026190D01*
X145788095Y-88502381D02*
X145788095Y-87502381D01*
X145407142Y-87502381D01*
X145311904Y-87550000D01*
X145264285Y-87597619D01*
X145216666Y-87692857D01*
X145216666Y-87835714D01*
X145264285Y-87930952D01*
X145311904Y-87978571D01*
X145407142Y-88026190D01*
X145788095Y-88026190D01*
X144311904Y-87502381D02*
X144788095Y-87502381D01*
X144835714Y-87978571D01*
X144788095Y-87930952D01*
X144692857Y-87883333D01*
X144454761Y-87883333D01*
X144359523Y-87930952D01*
X144311904Y-87978571D01*
X144264285Y-88073810D01*
X144264285Y-88311905D01*
X144311904Y-88407143D01*
X144359523Y-88454762D01*
X144454761Y-88502381D01*
X144692857Y-88502381D01*
X144788095Y-88454762D01*
X144835714Y-88407143D01*
X150752381Y-73733334D02*
X150276190Y-73400000D01*
X150752381Y-73161905D02*
X149752381Y-73161905D01*
X149752381Y-73542858D01*
X149800000Y-73638096D01*
X149847619Y-73685715D01*
X149942857Y-73733334D01*
X150085714Y-73733334D01*
X150180952Y-73685715D01*
X150228571Y-73638096D01*
X150276190Y-73542858D01*
X150276190Y-73161905D01*
X150752381Y-74209524D02*
X150752381Y-74400000D01*
X150704762Y-74495239D01*
X150657143Y-74542858D01*
X150514286Y-74638096D01*
X150323810Y-74685715D01*
X149942857Y-74685715D01*
X149847619Y-74638096D01*
X149800000Y-74590477D01*
X149752381Y-74495239D01*
X149752381Y-74304762D01*
X149800000Y-74209524D01*
X149847619Y-74161905D01*
X149942857Y-74114286D01*
X150180952Y-74114286D01*
X150276190Y-74161905D01*
X150323810Y-74209524D01*
X150371429Y-74304762D01*
X150371429Y-74495239D01*
X150323810Y-74590477D01*
X150276190Y-74638096D01*
X150180952Y-74685715D01*
X155692857Y-67502381D02*
X156026191Y-67026190D01*
X156264286Y-67502381D02*
X156264286Y-66502381D01*
X155883333Y-66502381D01*
X155788095Y-66550000D01*
X155740476Y-66597619D01*
X155692857Y-66692857D01*
X155692857Y-66835714D01*
X155740476Y-66930952D01*
X155788095Y-66978571D01*
X155883333Y-67026190D01*
X156264286Y-67026190D01*
X154740476Y-67502381D02*
X155311905Y-67502381D01*
X155026191Y-67502381D02*
X155026191Y-66502381D01*
X155121429Y-66645238D01*
X155216667Y-66740476D01*
X155311905Y-66788095D01*
X153788095Y-67502381D02*
X154359524Y-67502381D01*
X154073810Y-67502381D02*
X154073810Y-66502381D01*
X154169048Y-66645238D01*
X154264286Y-66740476D01*
X154359524Y-66788095D01*
X157902381Y-73857143D02*
X157426190Y-73523809D01*
X157902381Y-73285714D02*
X156902381Y-73285714D01*
X156902381Y-73666667D01*
X156950000Y-73761905D01*
X156997619Y-73809524D01*
X157092857Y-73857143D01*
X157235714Y-73857143D01*
X157330952Y-73809524D01*
X157378571Y-73761905D01*
X157426190Y-73666667D01*
X157426190Y-73285714D01*
X157902381Y-74809524D02*
X157902381Y-74238095D01*
X157902381Y-74523809D02*
X156902381Y-74523809D01*
X157045238Y-74428571D01*
X157140476Y-74333333D01*
X157188095Y-74238095D01*
X156902381Y-75666667D02*
X156902381Y-75476190D01*
X156950000Y-75380952D01*
X156997619Y-75333333D01*
X157140476Y-75238095D01*
X157330952Y-75190476D01*
X157711905Y-75190476D01*
X157807143Y-75238095D01*
X157854762Y-75285714D01*
X157902381Y-75380952D01*
X157902381Y-75571429D01*
X157854762Y-75666667D01*
X157807143Y-75714286D01*
X157711905Y-75761905D01*
X157473810Y-75761905D01*
X157378571Y-75714286D01*
X157330952Y-75666667D01*
X157283333Y-75571429D01*
X157283333Y-75380952D01*
X157330952Y-75285714D01*
X157378571Y-75238095D01*
X157473810Y-75190476D01*
X163092857Y-68352381D02*
X163426191Y-67876190D01*
X163664286Y-68352381D02*
X163664286Y-67352381D01*
X163283333Y-67352381D01*
X163188095Y-67400000D01*
X163140476Y-67447619D01*
X163092857Y-67542857D01*
X163092857Y-67685714D01*
X163140476Y-67780952D01*
X163188095Y-67828571D01*
X163283333Y-67876190D01*
X163664286Y-67876190D01*
X162140476Y-68352381D02*
X162711905Y-68352381D01*
X162426191Y-68352381D02*
X162426191Y-67352381D01*
X162521429Y-67495238D01*
X162616667Y-67590476D01*
X162711905Y-67638095D01*
X161569048Y-67780952D02*
X161664286Y-67733333D01*
X161711905Y-67685714D01*
X161759524Y-67590476D01*
X161759524Y-67542857D01*
X161711905Y-67447619D01*
X161664286Y-67400000D01*
X161569048Y-67352381D01*
X161378571Y-67352381D01*
X161283333Y-67400000D01*
X161235714Y-67447619D01*
X161188095Y-67542857D01*
X161188095Y-67590476D01*
X161235714Y-67685714D01*
X161283333Y-67733333D01*
X161378571Y-67780952D01*
X161569048Y-67780952D01*
X161664286Y-67828571D01*
X161711905Y-67876190D01*
X161759524Y-67971429D01*
X161759524Y-68161905D01*
X161711905Y-68257143D01*
X161664286Y-68304762D01*
X161569048Y-68352381D01*
X161378571Y-68352381D01*
X161283333Y-68304762D01*
X161235714Y-68257143D01*
X161188095Y-68161905D01*
X161188095Y-67971429D01*
X161235714Y-67876190D01*
X161283333Y-67828571D01*
X161378571Y-67780952D01*
X143402381Y-70057143D02*
X142926190Y-69723809D01*
X143402381Y-69485714D02*
X142402381Y-69485714D01*
X142402381Y-69866667D01*
X142450000Y-69961905D01*
X142497619Y-70009524D01*
X142592857Y-70057143D01*
X142735714Y-70057143D01*
X142830952Y-70009524D01*
X142878571Y-69961905D01*
X142926190Y-69866667D01*
X142926190Y-69485714D01*
X143402381Y-71009524D02*
X143402381Y-70438095D01*
X143402381Y-70723809D02*
X142402381Y-70723809D01*
X142545238Y-70628571D01*
X142640476Y-70533333D01*
X142688095Y-70438095D01*
X143402381Y-71485714D02*
X143402381Y-71676190D01*
X143354762Y-71771429D01*
X143307143Y-71819048D01*
X143164286Y-71914286D01*
X142973810Y-71961905D01*
X142592857Y-71961905D01*
X142497619Y-71914286D01*
X142450000Y-71866667D01*
X142402381Y-71771429D01*
X142402381Y-71580952D01*
X142450000Y-71485714D01*
X142497619Y-71438095D01*
X142592857Y-71390476D01*
X142830952Y-71390476D01*
X142926190Y-71438095D01*
X142973810Y-71485714D01*
X143021429Y-71580952D01*
X143021429Y-71771429D01*
X142973810Y-71866667D01*
X142926190Y-71914286D01*
X142830952Y-71961905D01*
X148942857Y-65852381D02*
X149276191Y-65376190D01*
X149514286Y-65852381D02*
X149514286Y-64852381D01*
X149133333Y-64852381D01*
X149038095Y-64900000D01*
X148990476Y-64947619D01*
X148942857Y-65042857D01*
X148942857Y-65185714D01*
X148990476Y-65280952D01*
X149038095Y-65328571D01*
X149133333Y-65376190D01*
X149514286Y-65376190D01*
X148561905Y-64947619D02*
X148514286Y-64900000D01*
X148419048Y-64852381D01*
X148180952Y-64852381D01*
X148085714Y-64900000D01*
X148038095Y-64947619D01*
X147990476Y-65042857D01*
X147990476Y-65138095D01*
X148038095Y-65280952D01*
X148609524Y-65852381D01*
X147990476Y-65852381D01*
X147038095Y-65852381D02*
X147609524Y-65852381D01*
X147323810Y-65852381D02*
X147323810Y-64852381D01*
X147419048Y-64995238D01*
X147514286Y-65090476D01*
X147609524Y-65138095D01*
X161162381Y-96988095D02*
X161971905Y-96988095D01*
X162067143Y-97035714D01*
X162114762Y-97083333D01*
X162162381Y-97178571D01*
X162162381Y-97369048D01*
X162114762Y-97464286D01*
X162067143Y-97511905D01*
X161971905Y-97559524D01*
X161162381Y-97559524D01*
X162162381Y-98559524D02*
X162162381Y-97988095D01*
X162162381Y-98273809D02*
X161162381Y-98273809D01*
X161305238Y-98178571D01*
X161400476Y-98083333D01*
X161448095Y-97988095D01*
X157052381Y-70638095D02*
X157861905Y-70638095D01*
X157957143Y-70685714D01*
X158004762Y-70733333D01*
X158052381Y-70828571D01*
X158052381Y-71019048D01*
X158004762Y-71114286D01*
X157957143Y-71161905D01*
X157861905Y-71209524D01*
X157052381Y-71209524D01*
X157385714Y-72114286D02*
X158052381Y-72114286D01*
X157004762Y-71876190D02*
X157719048Y-71638095D01*
X157719048Y-72257143D01*
X150002381Y-69088095D02*
X150811905Y-69088095D01*
X150907143Y-69135714D01*
X150954762Y-69183333D01*
X151002381Y-69278571D01*
X151002381Y-69469048D01*
X150954762Y-69564286D01*
X150907143Y-69611905D01*
X150811905Y-69659524D01*
X150002381Y-69659524D01*
X150002381Y-70611905D02*
X150002381Y-70135714D01*
X150478571Y-70088095D01*
X150430952Y-70135714D01*
X150383333Y-70230952D01*
X150383333Y-70469048D01*
X150430952Y-70564286D01*
X150478571Y-70611905D01*
X150573810Y-70659524D01*
X150811905Y-70659524D01*
X150907143Y-70611905D01*
X150954762Y-70564286D01*
X151002381Y-70469048D01*
X151002381Y-70230952D01*
X150954762Y-70135714D01*
X150907143Y-70088095D01*
X168762381Y-105221905D02*
X167762381Y-105221905D01*
X167762381Y-105602858D01*
X167810000Y-105698096D01*
X167857619Y-105745715D01*
X167952857Y-105793334D01*
X168095714Y-105793334D01*
X168190952Y-105745715D01*
X168238571Y-105698096D01*
X168286190Y-105602858D01*
X168286190Y-105221905D01*
X168190952Y-106364762D02*
X168143333Y-106269524D01*
X168095714Y-106221905D01*
X168000476Y-106174286D01*
X167952857Y-106174286D01*
X167857619Y-106221905D01*
X167810000Y-106269524D01*
X167762381Y-106364762D01*
X167762381Y-106555239D01*
X167810000Y-106650477D01*
X167857619Y-106698096D01*
X167952857Y-106745715D01*
X168000476Y-106745715D01*
X168095714Y-106698096D01*
X168143333Y-106650477D01*
X168190952Y-106555239D01*
X168190952Y-106364762D01*
X168238571Y-106269524D01*
X168286190Y-106221905D01*
X168381429Y-106174286D01*
X168571905Y-106174286D01*
X168667143Y-106221905D01*
X168714762Y-106269524D01*
X168762381Y-106364762D01*
X168762381Y-106555239D01*
X168714762Y-106650477D01*
X168667143Y-106698096D01*
X168571905Y-106745715D01*
X168381429Y-106745715D01*
X168286190Y-106698096D01*
X168238571Y-106650477D01*
X168190952Y-106555239D01*
X109133619Y-93654762D02*
X109086000Y-93559524D01*
X108990762Y-93464286D01*
X108847905Y-93321429D01*
X108800286Y-93226190D01*
X108800286Y-93130952D01*
X109038381Y-93178571D02*
X108990762Y-93083333D01*
X108895524Y-92988095D01*
X108705048Y-92940476D01*
X108371714Y-92940476D01*
X108181238Y-92988095D01*
X108086000Y-93083333D01*
X108038381Y-93178571D01*
X108038381Y-93369048D01*
X108086000Y-93464286D01*
X108181238Y-93559524D01*
X108371714Y-93607143D01*
X108705048Y-93607143D01*
X108895524Y-93559524D01*
X108990762Y-93464286D01*
X109038381Y-93369048D01*
X109038381Y-93178571D01*
X109038381Y-94559524D02*
X109038381Y-93988095D01*
X109038381Y-94273809D02*
X108038381Y-94273809D01*
X108181238Y-94178571D01*
X108276476Y-94083333D01*
X108324095Y-93988095D01*
X127757142Y-95678571D02*
X127757142Y-96892857D01*
X127685714Y-97035714D01*
X127614285Y-97107143D01*
X127471428Y-97178571D01*
X127185714Y-97178571D01*
X127042856Y-97107143D01*
X126971428Y-97035714D01*
X126899999Y-96892857D01*
X126899999Y-95678571D01*
X125399999Y-97178571D02*
X126257142Y-97178571D01*
X125828570Y-97178571D02*
X125828570Y-95678571D01*
X125971427Y-95892857D01*
X126114285Y-96035714D01*
X126257142Y-96107143D01*
X123971428Y-97178571D02*
X124828571Y-97178571D01*
X124399999Y-97178571D02*
X124399999Y-95678571D01*
X124542856Y-95892857D01*
X124685714Y-96035714D01*
X124828571Y-96107143D01*
X155488095Y-113962381D02*
X155488095Y-112962381D01*
X155107142Y-112962381D01*
X155011904Y-113010000D01*
X154964285Y-113057619D01*
X154916666Y-113152857D01*
X154916666Y-113295714D01*
X154964285Y-113390952D01*
X155011904Y-113438571D01*
X155107142Y-113486190D01*
X155488095Y-113486190D01*
X154440476Y-113962381D02*
X154250000Y-113962381D01*
X154154761Y-113914762D01*
X154107142Y-113867143D01*
X154011904Y-113724286D01*
X153964285Y-113533810D01*
X153964285Y-113152857D01*
X154011904Y-113057619D01*
X154059523Y-113010000D01*
X154154761Y-112962381D01*
X154345238Y-112962381D01*
X154440476Y-113010000D01*
X154488095Y-113057619D01*
X154535714Y-113152857D01*
X154535714Y-113390952D01*
X154488095Y-113486190D01*
X154440476Y-113533810D01*
X154345238Y-113581429D01*
X154154761Y-113581429D01*
X154059523Y-113533810D01*
X154011904Y-113486190D01*
X153964285Y-113390952D01*
X165288095Y-50302381D02*
X165288095Y-49302381D01*
X164907142Y-49302381D01*
X164811904Y-49350000D01*
X164764285Y-49397619D01*
X164716666Y-49492857D01*
X164716666Y-49635714D01*
X164764285Y-49730952D01*
X164811904Y-49778571D01*
X164907142Y-49826190D01*
X165288095Y-49826190D01*
X163811904Y-49302381D02*
X164288095Y-49302381D01*
X164335714Y-49778571D01*
X164288095Y-49730952D01*
X164192857Y-49683333D01*
X163954761Y-49683333D01*
X163859523Y-49730952D01*
X163811904Y-49778571D01*
X163764285Y-49873810D01*
X163764285Y-50111905D01*
X163811904Y-50207143D01*
X163859523Y-50254762D01*
X163954761Y-50302381D01*
X164192857Y-50302381D01*
X164288095Y-50254762D01*
X164335714Y-50207143D01*
X115338095Y-50002381D02*
X115338095Y-49002381D01*
X114957142Y-49002381D01*
X114861904Y-49050000D01*
X114814285Y-49097619D01*
X114766666Y-49192857D01*
X114766666Y-49335714D01*
X114814285Y-49430952D01*
X114861904Y-49478571D01*
X114957142Y-49526190D01*
X115338095Y-49526190D01*
X113814285Y-50002381D02*
X114385714Y-50002381D01*
X114100000Y-50002381D02*
X114100000Y-49002381D01*
X114195238Y-49145238D01*
X114290476Y-49240476D01*
X114385714Y-49288095D01*
X145666666Y-80452381D02*
X146000000Y-79976190D01*
X146238095Y-80452381D02*
X146238095Y-79452381D01*
X145857142Y-79452381D01*
X145761904Y-79500000D01*
X145714285Y-79547619D01*
X145666666Y-79642857D01*
X145666666Y-79785714D01*
X145714285Y-79880952D01*
X145761904Y-79928571D01*
X145857142Y-79976190D01*
X146238095Y-79976190D01*
X144809523Y-79785714D02*
X144809523Y-80452381D01*
X145047619Y-79404762D02*
X145285714Y-80119048D01*
X144666666Y-80119048D01*
X154802381Y-79083334D02*
X154326190Y-78750000D01*
X154802381Y-78511905D02*
X153802381Y-78511905D01*
X153802381Y-78892858D01*
X153850000Y-78988096D01*
X153897619Y-79035715D01*
X153992857Y-79083334D01*
X154135714Y-79083334D01*
X154230952Y-79035715D01*
X154278571Y-78988096D01*
X154326190Y-78892858D01*
X154326190Y-78511905D01*
X153802381Y-79416667D02*
X153802381Y-80083334D01*
X154802381Y-79654762D01*
X163852381Y-76457143D02*
X163376190Y-76123809D01*
X163852381Y-75885714D02*
X162852381Y-75885714D01*
X162852381Y-76266667D01*
X162900000Y-76361905D01*
X162947619Y-76409524D01*
X163042857Y-76457143D01*
X163185714Y-76457143D01*
X163280952Y-76409524D01*
X163328571Y-76361905D01*
X163376190Y-76266667D01*
X163376190Y-75885714D01*
X163852381Y-77409524D02*
X163852381Y-76838095D01*
X163852381Y-77123809D02*
X162852381Y-77123809D01*
X162995238Y-77028571D01*
X163090476Y-76933333D01*
X163138095Y-76838095D01*
X162852381Y-77742857D02*
X162852381Y-78361905D01*
X163233333Y-78028571D01*
X163233333Y-78171429D01*
X163280952Y-78266667D01*
X163328571Y-78314286D01*
X163423810Y-78361905D01*
X163661905Y-78361905D01*
X163757143Y-78314286D01*
X163804762Y-78266667D01*
X163852381Y-78171429D01*
X163852381Y-77885714D01*
X163804762Y-77790476D01*
X163757143Y-77742857D01*
X148202381Y-77657143D02*
X147726190Y-77323809D01*
X148202381Y-77085714D02*
X147202381Y-77085714D01*
X147202381Y-77466667D01*
X147250000Y-77561905D01*
X147297619Y-77609524D01*
X147392857Y-77657143D01*
X147535714Y-77657143D01*
X147630952Y-77609524D01*
X147678571Y-77561905D01*
X147726190Y-77466667D01*
X147726190Y-77085714D01*
X148202381Y-78609524D02*
X148202381Y-78038095D01*
X148202381Y-78323809D02*
X147202381Y-78323809D01*
X147345238Y-78228571D01*
X147440476Y-78133333D01*
X147488095Y-78038095D01*
X147202381Y-79514286D02*
X147202381Y-79038095D01*
X147678571Y-78990476D01*
X147630952Y-79038095D01*
X147583333Y-79133333D01*
X147583333Y-79371429D01*
X147630952Y-79466667D01*
X147678571Y-79514286D01*
X147773810Y-79561905D01*
X148011905Y-79561905D01*
X148107143Y-79514286D01*
X148154762Y-79466667D01*
X148202381Y-79371429D01*
X148202381Y-79133333D01*
X148154762Y-79038095D01*
X148107143Y-78990476D01*
X144238095Y-113962381D02*
X144238095Y-112962381D01*
X143857142Y-112962381D01*
X143761904Y-113010000D01*
X143714285Y-113057619D01*
X143666666Y-113152857D01*
X143666666Y-113295714D01*
X143714285Y-113390952D01*
X143761904Y-113438571D01*
X143857142Y-113486190D01*
X144238095Y-113486190D01*
X143333333Y-112962381D02*
X142666666Y-112962381D01*
X143095238Y-113962381D01*
X136357143Y-80207143D02*
X136404762Y-80159524D01*
X136452381Y-80016667D01*
X136452381Y-79921429D01*
X136404762Y-79778571D01*
X136309524Y-79683333D01*
X136214286Y-79635714D01*
X136023810Y-79588095D01*
X135880952Y-79588095D01*
X135690476Y-79635714D01*
X135595238Y-79683333D01*
X135500000Y-79778571D01*
X135452381Y-79921429D01*
X135452381Y-80016667D01*
X135500000Y-80159524D01*
X135547619Y-80207143D01*
X135547619Y-80588095D02*
X135500000Y-80635714D01*
X135452381Y-80730952D01*
X135452381Y-80969048D01*
X135500000Y-81064286D01*
X135547619Y-81111905D01*
X135642857Y-81159524D01*
X135738095Y-81159524D01*
X135880952Y-81111905D01*
X136452381Y-80540476D01*
X136452381Y-81159524D01*
X135785714Y-82016667D02*
X136452381Y-82016667D01*
X135404762Y-81778571D02*
X136119048Y-81540476D01*
X136119048Y-82159524D01*
X127057143Y-81557143D02*
X127104762Y-81509524D01*
X127152381Y-81366667D01*
X127152381Y-81271429D01*
X127104762Y-81128571D01*
X127009524Y-81033333D01*
X126914286Y-80985714D01*
X126723810Y-80938095D01*
X126580952Y-80938095D01*
X126390476Y-80985714D01*
X126295238Y-81033333D01*
X126200000Y-81128571D01*
X126152381Y-81271429D01*
X126152381Y-81366667D01*
X126200000Y-81509524D01*
X126247619Y-81557143D01*
X126247619Y-81938095D02*
X126200000Y-81985714D01*
X126152381Y-82080952D01*
X126152381Y-82319048D01*
X126200000Y-82414286D01*
X126247619Y-82461905D01*
X126342857Y-82509524D01*
X126438095Y-82509524D01*
X126580952Y-82461905D01*
X127152381Y-81890476D01*
X127152381Y-82509524D01*
X126580952Y-83080952D02*
X126533333Y-82985714D01*
X126485714Y-82938095D01*
X126390476Y-82890476D01*
X126342857Y-82890476D01*
X126247619Y-82938095D01*
X126200000Y-82985714D01*
X126152381Y-83080952D01*
X126152381Y-83271429D01*
X126200000Y-83366667D01*
X126247619Y-83414286D01*
X126342857Y-83461905D01*
X126390476Y-83461905D01*
X126485714Y-83414286D01*
X126533333Y-83366667D01*
X126580952Y-83271429D01*
X126580952Y-83080952D01*
X126628571Y-82985714D01*
X126676190Y-82938095D01*
X126771429Y-82890476D01*
X126961905Y-82890476D01*
X127057143Y-82938095D01*
X127104762Y-82985714D01*
X127152381Y-83080952D01*
X127152381Y-83271429D01*
X127104762Y-83366667D01*
X127057143Y-83414286D01*
X126961905Y-83461905D01*
X126771429Y-83461905D01*
X126676190Y-83414286D01*
X126628571Y-83366667D01*
X126580952Y-83271429D01*
X131442857Y-92757143D02*
X131490476Y-92804762D01*
X131633333Y-92852381D01*
X131728571Y-92852381D01*
X131871429Y-92804762D01*
X131966667Y-92709524D01*
X132014286Y-92614286D01*
X132061905Y-92423810D01*
X132061905Y-92280952D01*
X132014286Y-92090476D01*
X131966667Y-91995238D01*
X131871429Y-91900000D01*
X131728571Y-91852381D01*
X131633333Y-91852381D01*
X131490476Y-91900000D01*
X131442857Y-91947619D01*
X131109524Y-91852381D02*
X130490476Y-91852381D01*
X130823810Y-92233333D01*
X130680952Y-92233333D01*
X130585714Y-92280952D01*
X130538095Y-92328571D01*
X130490476Y-92423810D01*
X130490476Y-92661905D01*
X130538095Y-92757143D01*
X130585714Y-92804762D01*
X130680952Y-92852381D01*
X130966667Y-92852381D01*
X131061905Y-92804762D01*
X131109524Y-92757143D01*
X129633333Y-91852381D02*
X129823810Y-91852381D01*
X129919048Y-91900000D01*
X129966667Y-91947619D01*
X130061905Y-92090476D01*
X130109524Y-92280952D01*
X130109524Y-92661905D01*
X130061905Y-92757143D01*
X130014286Y-92804762D01*
X129919048Y-92852381D01*
X129728571Y-92852381D01*
X129633333Y-92804762D01*
X129585714Y-92757143D01*
X129538095Y-92661905D01*
X129538095Y-92423810D01*
X129585714Y-92328571D01*
X129633333Y-92280952D01*
X129728571Y-92233333D01*
X129919048Y-92233333D01*
X130014286Y-92280952D01*
X130061905Y-92328571D01*
X130109524Y-92423810D01*
X160002381Y-85907143D02*
X159526190Y-85573809D01*
X160002381Y-85335714D02*
X159002381Y-85335714D01*
X159002381Y-85716667D01*
X159050000Y-85811905D01*
X159097619Y-85859524D01*
X159192857Y-85907143D01*
X159335714Y-85907143D01*
X159430952Y-85859524D01*
X159478571Y-85811905D01*
X159526190Y-85716667D01*
X159526190Y-85335714D01*
X159002381Y-86240476D02*
X159002381Y-86859524D01*
X159383333Y-86526190D01*
X159383333Y-86669048D01*
X159430952Y-86764286D01*
X159478571Y-86811905D01*
X159573810Y-86859524D01*
X159811905Y-86859524D01*
X159907143Y-86811905D01*
X159954762Y-86764286D01*
X160002381Y-86669048D01*
X160002381Y-86383333D01*
X159954762Y-86288095D01*
X159907143Y-86240476D01*
X160002381Y-87811905D02*
X160002381Y-87240476D01*
X160002381Y-87526190D02*
X159002381Y-87526190D01*
X159145238Y-87430952D01*
X159240476Y-87335714D01*
X159288095Y-87240476D01*
X166302381Y-86507143D02*
X165826190Y-86173809D01*
X166302381Y-85935714D02*
X165302381Y-85935714D01*
X165302381Y-86316667D01*
X165350000Y-86411905D01*
X165397619Y-86459524D01*
X165492857Y-86507143D01*
X165635714Y-86507143D01*
X165730952Y-86459524D01*
X165778571Y-86411905D01*
X165826190Y-86316667D01*
X165826190Y-85935714D01*
X165302381Y-86840476D02*
X165302381Y-87459524D01*
X165683333Y-87126190D01*
X165683333Y-87269048D01*
X165730952Y-87364286D01*
X165778571Y-87411905D01*
X165873810Y-87459524D01*
X166111905Y-87459524D01*
X166207143Y-87411905D01*
X166254762Y-87364286D01*
X166302381Y-87269048D01*
X166302381Y-86983333D01*
X166254762Y-86888095D01*
X166207143Y-86840476D01*
X165397619Y-87840476D02*
X165350000Y-87888095D01*
X165302381Y-87983333D01*
X165302381Y-88221429D01*
X165350000Y-88316667D01*
X165397619Y-88364286D01*
X165492857Y-88411905D01*
X165588095Y-88411905D01*
X165730952Y-88364286D01*
X166302381Y-87792857D01*
X166302381Y-88411905D01*
X124852381Y-89107143D02*
X124376190Y-88773809D01*
X124852381Y-88535714D02*
X123852381Y-88535714D01*
X123852381Y-88916667D01*
X123900000Y-89011905D01*
X123947619Y-89059524D01*
X124042857Y-89107143D01*
X124185714Y-89107143D01*
X124280952Y-89059524D01*
X124328571Y-89011905D01*
X124376190Y-88916667D01*
X124376190Y-88535714D01*
X123852381Y-89440476D02*
X123852381Y-90059524D01*
X124233333Y-89726190D01*
X124233333Y-89869048D01*
X124280952Y-89964286D01*
X124328571Y-90011905D01*
X124423810Y-90059524D01*
X124661905Y-90059524D01*
X124757143Y-90011905D01*
X124804762Y-89964286D01*
X124852381Y-89869048D01*
X124852381Y-89583333D01*
X124804762Y-89488095D01*
X124757143Y-89440476D01*
X123852381Y-90392857D02*
X123852381Y-91011905D01*
X124233333Y-90678571D01*
X124233333Y-90821429D01*
X124280952Y-90916667D01*
X124328571Y-90964286D01*
X124423810Y-91011905D01*
X124661905Y-91011905D01*
X124757143Y-90964286D01*
X124804762Y-90916667D01*
X124852381Y-90821429D01*
X124852381Y-90535714D01*
X124804762Y-90440476D01*
X124757143Y-90392857D01*
M02*
