<?xml version="1.0" standalone="no"?>
 <!DOCTYPE svg PUBLIC "-//W3C//DTD SVG 1.1//EN" 
 "http://www.w3.org/Graphics/SVG/1.1/DTD/svg11.dtd"> 
<svg xmlns="http://www.w3.org/2000/svg" version="1.1" 
    width="29.7002cm" height="21.0007cm" viewBox="0 0 116930 82680 ">
<title>SVG Picture created as 6xUSB_PowMet-F.SilkS.svg date 2017/01/17 01:06:25 </title>
  <desc>Picture generated by PCBNEW </desc>
<g style="fill:#000000; fill-opacity:1;stroke:#000000; stroke-opacity:1;
stroke-linecap:round; stroke-linejoin:round; "
 transform="translate(0 0) scale(1 1)">
</g>
<g style="fill:#000000; fill-opacity:0.0; 
stroke:#000000; stroke-width:-0.000393701; stroke-opacity:1; 
stroke-linecap:round; stroke-linejoin:round;">
</g>
<g style="fill:#000000; fill-opacity:0.0; 
stroke:#000000; stroke-width:39.3701; stroke-opacity:1; 
stroke-linecap:round; stroke-linejoin:round;">
</g>
<g style="fill:#000000; fill-opacity:0.0; 
stroke:#000000; stroke-width:59.0551; stroke-opacity:1; 
stroke-linecap:round; stroke-linejoin:round;">
<rect x="69685.9" y="65357.2" width="42519.7" height="12598.4" rx="0" />
</g>
<g style="fill:#000000; fill-opacity:0.0; 
stroke:#000000; stroke-width:39.3701; stroke-opacity:1; 
stroke-linecap:round; stroke-linejoin:round;">
</g>
<g style="fill:#000000; fill-opacity:0.0; 
stroke:#000000; stroke-width:59.0551; stroke-opacity:1; 
stroke-linecap:round; stroke-linejoin:round;">
<rect x="3937.01" y="3937.01" width="109056" height="74806" rx="0" />
</g>
<g style="fill:#000000; fill-opacity:0.0; 
stroke:#000000; stroke-width:39.3701; stroke-opacity:1; 
stroke-linecap:round; stroke-linejoin:round;">
</g>
<g style="fill:#000000; fill-opacity:0.0; 
stroke:#000000; stroke-width:59.0551; stroke-opacity:1; 
stroke-linecap:round; stroke-linejoin:round;">
<rect x="4724.41" y="4724.41" width="107481" height="73231.2" rx="0" />
</g>
<g style="fill:#000000; fill-opacity:0.0; 
stroke:#000000; stroke-width:39.3701; stroke-opacity:1; 
stroke-linecap:round; stroke-linejoin:round;">
</g>
<g style="fill:#000000; fill-opacity:0.0; 
stroke:#000000; stroke-width:59.0551; stroke-opacity:1; 
stroke-linecap:round; stroke-linejoin:round;">
<path d="M23622 4724
L23622 3937
" />
</g>
<g style="fill:#000000; fill-opacity:0.0; 
stroke:#000000; stroke-width:39.3701; stroke-opacity:1; 
stroke-linecap:round; stroke-linejoin:round;">
</g>
<g style="fill:#000000; fill-opacity:0.0; 
stroke:#000000; stroke-width:59.0551; stroke-opacity:1; 
stroke-linecap:round; stroke-linejoin:round;">
<path d="M43307 4724
L43307 3937
" />
</g>
<g style="fill:#000000; fill-opacity:0.0; 
stroke:#000000; stroke-width:39.3701; stroke-opacity:1; 
stroke-linecap:round; stroke-linejoin:round;">
</g>
<g style="fill:#000000; fill-opacity:0.0; 
stroke:#000000; stroke-width:59.0551; stroke-opacity:1; 
stroke-linecap:round; stroke-linejoin:round;">
<path d="M62992 4724
L62992 3937
" />
</g>
<g style="fill:#000000; fill-opacity:0.0; 
stroke:#000000; stroke-width:39.3701; stroke-opacity:1; 
stroke-linecap:round; stroke-linejoin:round;">
</g>
<g style="fill:#000000; fill-opacity:0.0; 
stroke:#000000; stroke-width:59.0551; stroke-opacity:1; 
stroke-linecap:round; stroke-linejoin:round;">
<path d="M82677 4724
L82677 3937
" />
</g>
<g style="fill:#000000; fill-opacity:0.0; 
stroke:#000000; stroke-width:39.3701; stroke-opacity:1; 
stroke-linecap:round; stroke-linejoin:round;">
</g>
<g style="fill:#000000; fill-opacity:0.0; 
stroke:#000000; stroke-width:59.0551; stroke-opacity:1; 
stroke-linecap:round; stroke-linejoin:round;">
<path d="M102362 4724
L102362 3937
" />
</g>
<g style="fill:#000000; fill-opacity:0.0; 
stroke:#000000; stroke-width:39.3701; stroke-opacity:1; 
stroke-linecap:round; stroke-linejoin:round;">
</g>
<g style="fill:#000000; fill-opacity:0.0; 
stroke:#000000; stroke-width:59.0551; stroke-opacity:1; 
stroke-linecap:round; stroke-linejoin:round;">
<path d="M14169 4562
L13877 4562
" />
<path d="M14023 4562
L14023 4050
L13974 4123
L13925 4172
L13877 4196
" />
</g>
<g style="fill:#000000; fill-opacity:0.0; 
stroke:#000000; stroke-width:39.3701; stroke-opacity:1; 
stroke-linecap:round; stroke-linejoin:round;">
</g>
<g style="fill:#000000; fill-opacity:0.0; 
stroke:#000000; stroke-width:59.0551; stroke-opacity:1; 
stroke-linecap:round; stroke-linejoin:round;">
<path d="M33562 4099
L33586 4074
L33635 4050
L33757 4050
L33805 4074
L33830 4099
L33854 4147
L33854 4196
L33830 4269
L33537 4562
L33854 4562
" />
</g>
<g style="fill:#000000; fill-opacity:0.0; 
stroke:#000000; stroke-width:39.3701; stroke-opacity:1; 
stroke-linecap:round; stroke-linejoin:round;">
</g>
<g style="fill:#000000; fill-opacity:0.0; 
stroke:#000000; stroke-width:59.0551; stroke-opacity:1; 
stroke-linecap:round; stroke-linejoin:round;">
<path d="M53222 4050
L53539 4050
L53368 4245
L53442 4245
L53490 4269
L53515 4294
L53539 4342
L53539 4464
L53515 4513
L53490 4537
L53442 4562
L53295 4562
L53247 4537
L53222 4513
" />
</g>
<g style="fill:#000000; fill-opacity:0.0; 
stroke:#000000; stroke-width:39.3701; stroke-opacity:1; 
stroke-linecap:round; stroke-linejoin:round;">
</g>
<g style="fill:#000000; fill-opacity:0.0; 
stroke:#000000; stroke-width:59.0551; stroke-opacity:1; 
stroke-linecap:round; stroke-linejoin:round;">
<path d="M73175 4221
L73175 4562
" />
<path d="M73053 4026
L72932 4391
L73248 4391
" />
</g>
<g style="fill:#000000; fill-opacity:0.0; 
stroke:#000000; stroke-width:39.3701; stroke-opacity:1; 
stroke-linecap:round; stroke-linejoin:round;">
</g>
<g style="fill:#000000; fill-opacity:0.0; 
stroke:#000000; stroke-width:59.0551; stroke-opacity:1; 
stroke-linecap:round; stroke-linejoin:round;">
<path d="M92885 4050
L92641 4050
L92617 4294
L92641 4269
L92690 4245
L92812 4245
L92860 4269
L92885 4294
L92909 4342
L92909 4464
L92885 4513
L92860 4537
L92812 4562
L92690 4562
L92641 4537
L92617 4513
" />
</g>
<g style="fill:#000000; fill-opacity:0.0; 
stroke:#000000; stroke-width:39.3701; stroke-opacity:1; 
stroke-linecap:round; stroke-linejoin:round;">
</g>
<g style="fill:#000000; fill-opacity:0.0; 
stroke:#000000; stroke-width:59.0551; stroke-opacity:1; 
stroke-linecap:round; stroke-linejoin:round;">
<path d="M112545 4050
L112448 4050
L112399 4074
L112375 4099
L112326 4172
L112302 4269
L112302 4464
L112326 4513
L112350 4537
L112399 4562
L112497 4562
L112545 4537
L112570 4513
L112594 4464
L112594 4342
L112570 4294
L112545 4269
L112497 4245
L112399 4245
L112350 4269
L112326 4294
L112302 4342
" />
</g>
<g style="fill:#000000; fill-opacity:0.0; 
stroke:#000000; stroke-width:39.3701; stroke-opacity:1; 
stroke-linecap:round; stroke-linejoin:round;">
</g>
<g style="fill:#000000; fill-opacity:0.0; 
stroke:#000000; stroke-width:59.0551; stroke-opacity:1; 
stroke-linecap:round; stroke-linejoin:round;">
<path d="M23622 77955
L23622 78742
" />
</g>
<g style="fill:#000000; fill-opacity:0.0; 
stroke:#000000; stroke-width:39.3701; stroke-opacity:1; 
stroke-linecap:round; stroke-linejoin:round;">
</g>
<g style="fill:#000000; fill-opacity:0.0; 
stroke:#000000; stroke-width:59.0551; stroke-opacity:1; 
stroke-linecap:round; stroke-linejoin:round;">
<path d="M43307 77955
L43307 78742
" />
</g>
<g style="fill:#000000; fill-opacity:0.0; 
stroke:#000000; stroke-width:39.3701; stroke-opacity:1; 
stroke-linecap:round; stroke-linejoin:round;">
</g>
<g style="fill:#000000; fill-opacity:0.0; 
stroke:#000000; stroke-width:59.0551; stroke-opacity:1; 
stroke-linecap:round; stroke-linejoin:round;">
<path d="M62992 77955
L62992 78742
" />
</g>
<g style="fill:#000000; fill-opacity:0.0; 
stroke:#000000; stroke-width:39.3701; stroke-opacity:1; 
stroke-linecap:round; stroke-linejoin:round;">
</g>
<g style="fill:#000000; fill-opacity:0.0; 
stroke:#000000; stroke-width:59.0551; stroke-opacity:1; 
stroke-linecap:round; stroke-linejoin:round;">
<path d="M82677 77955
L82677 78742
" />
</g>
<g style="fill:#000000; fill-opacity:0.0; 
stroke:#000000; stroke-width:39.3701; stroke-opacity:1; 
stroke-linecap:round; stroke-linejoin:round;">
</g>
<g style="fill:#000000; fill-opacity:0.0; 
stroke:#000000; stroke-width:59.0551; stroke-opacity:1; 
stroke-linecap:round; stroke-linejoin:round;">
<path d="M102362 77955
L102362 78742
" />
</g>
<g style="fill:#000000; fill-opacity:0.0; 
stroke:#000000; stroke-width:39.3701; stroke-opacity:1; 
stroke-linecap:round; stroke-linejoin:round;">
</g>
<g style="fill:#000000; fill-opacity:0.0; 
stroke:#000000; stroke-width:59.0551; stroke-opacity:1; 
stroke-linecap:round; stroke-linejoin:round;">
<path d="M14169 78580
L13877 78580
" />
<path d="M14023 78580
L14023 78069
L13974 78142
L13925 78190
L13877 78215
" />
</g>
<g style="fill:#000000; fill-opacity:0.0; 
stroke:#000000; stroke-width:39.3701; stroke-opacity:1; 
stroke-linecap:round; stroke-linejoin:round;">
</g>
<g style="fill:#000000; fill-opacity:0.0; 
stroke:#000000; stroke-width:59.0551; stroke-opacity:1; 
stroke-linecap:round; stroke-linejoin:round;">
<path d="M33562 78117
L33586 78093
L33635 78069
L33757 78069
L33805 78093
L33830 78117
L33854 78166
L33854 78215
L33830 78288
L33537 78580
L33854 78580
" />
</g>
<g style="fill:#000000; fill-opacity:0.0; 
stroke:#000000; stroke-width:39.3701; stroke-opacity:1; 
stroke-linecap:round; stroke-linejoin:round;">
</g>
<g style="fill:#000000; fill-opacity:0.0; 
stroke:#000000; stroke-width:59.0551; stroke-opacity:1; 
stroke-linecap:round; stroke-linejoin:round;">
<path d="M53222 78069
L53539 78069
L53368 78263
L53442 78263
L53490 78288
L53515 78312
L53539 78361
L53539 78483
L53515 78532
L53490 78556
L53442 78580
L53295 78580
L53247 78556
L53222 78532
" />
</g>
<g style="fill:#000000; fill-opacity:0.0; 
stroke:#000000; stroke-width:39.3701; stroke-opacity:1; 
stroke-linecap:round; stroke-linejoin:round;">
</g>
<g style="fill:#000000; fill-opacity:0.0; 
stroke:#000000; stroke-width:59.0551; stroke-opacity:1; 
stroke-linecap:round; stroke-linejoin:round;">
<path d="M73175 78239
L73175 78580
" />
<path d="M73053 78044
L72932 78410
L73248 78410
" />
</g>
<g style="fill:#000000; fill-opacity:0.0; 
stroke:#000000; stroke-width:39.3701; stroke-opacity:1; 
stroke-linecap:round; stroke-linejoin:round;">
</g>
<g style="fill:#000000; fill-opacity:0.0; 
stroke:#000000; stroke-width:59.0551; stroke-opacity:1; 
stroke-linecap:round; stroke-linejoin:round;">
<path d="M92885 78069
L92641 78069
L92617 78312
L92641 78288
L92690 78263
L92812 78263
L92860 78288
L92885 78312
L92909 78361
L92909 78483
L92885 78532
L92860 78556
L92812 78580
L92690 78580
L92641 78556
L92617 78532
" />
</g>
<g style="fill:#000000; fill-opacity:0.0; 
stroke:#000000; stroke-width:39.3701; stroke-opacity:1; 
stroke-linecap:round; stroke-linejoin:round;">
</g>
<g style="fill:#000000; fill-opacity:0.0; 
stroke:#000000; stroke-width:59.0551; stroke-opacity:1; 
stroke-linecap:round; stroke-linejoin:round;">
<path d="M112545 78069
L112448 78069
L112399 78093
L112375 78117
L112326 78190
L112302 78288
L112302 78483
L112326 78532
L112350 78556
L112399 78580
L112497 78580
L112545 78556
L112570 78532
L112594 78483
L112594 78361
L112570 78312
L112545 78288
L112497 78263
L112399 78263
L112350 78288
L112326 78312
L112302 78361
" />
</g>
<g style="fill:#000000; fill-opacity:0.0; 
stroke:#000000; stroke-width:39.3701; stroke-opacity:1; 
stroke-linecap:round; stroke-linejoin:round;">
</g>
<g style="fill:#000000; fill-opacity:0.0; 
stroke:#000000; stroke-width:59.0551; stroke-opacity:1; 
stroke-linecap:round; stroke-linejoin:round;">
<path d="M3937 23622
L4724 23622
" />
</g>
<g style="fill:#000000; fill-opacity:0.0; 
stroke:#000000; stroke-width:39.3701; stroke-opacity:1; 
stroke-linecap:round; stroke-linejoin:round;">
</g>
<g style="fill:#000000; fill-opacity:0.0; 
stroke:#000000; stroke-width:59.0551; stroke-opacity:1; 
stroke-linecap:round; stroke-linejoin:round;">
<path d="M3937 43307
L4724 43307
" />
</g>
<g style="fill:#000000; fill-opacity:0.0; 
stroke:#000000; stroke-width:39.3701; stroke-opacity:1; 
stroke-linecap:round; stroke-linejoin:round;">
</g>
<g style="fill:#000000; fill-opacity:0.0; 
stroke:#000000; stroke-width:59.0551; stroke-opacity:1; 
stroke-linecap:round; stroke-linejoin:round;">
<path d="M3937 62992
L4724 62992
" />
</g>
<g style="fill:#000000; fill-opacity:0.0; 
stroke:#000000; stroke-width:39.3701; stroke-opacity:1; 
stroke-linecap:round; stroke-linejoin:round;">
</g>
<g style="fill:#000000; fill-opacity:0.0; 
stroke:#000000; stroke-width:59.0551; stroke-opacity:1; 
stroke-linecap:round; stroke-linejoin:round;">
<path d="M4208 13864
L4452 13864
" />
<path d="M4160 14011
L4330 13499
L4501 14011
" />
</g>
<g style="fill:#000000; fill-opacity:0.0; 
stroke:#000000; stroke-width:39.3701; stroke-opacity:1; 
stroke-linecap:round; stroke-linejoin:round;">
</g>
<g style="fill:#000000; fill-opacity:0.0; 
stroke:#000000; stroke-width:59.0551; stroke-opacity:1; 
stroke-linecap:round; stroke-linejoin:round;">
<path d="M4367 33428
L4440 33452
L4464 33476
L4489 33525
L4489 33598
L4464 33647
L4440 33671
L4391 33696
L4196 33696
L4196 33184
L4367 33184
L4416 33208
L4440 33233
L4464 33281
L4464 33330
L4440 33379
L4416 33403
L4367 33428
L4196 33428
" />
</g>
<g style="fill:#000000; fill-opacity:0.0; 
stroke:#000000; stroke-width:39.3701; stroke-opacity:1; 
stroke-linecap:round; stroke-linejoin:round;">
</g>
<g style="fill:#000000; fill-opacity:0.0; 
stroke:#000000; stroke-width:59.0551; stroke-opacity:1; 
stroke-linecap:round; stroke-linejoin:round;">
<path d="M4489 53332
L4464 53356
L4391 53381
L4342 53381
L4269 53356
L4221 53308
L4196 53259
L4172 53161
L4172 53088
L4196 52991
L4221 52942
L4269 52893
L4342 52869
L4391 52869
L4464 52893
L4489 52918
" />
</g>
<g style="fill:#000000; fill-opacity:0.0; 
stroke:#000000; stroke-width:39.3701; stroke-opacity:1; 
stroke-linecap:round; stroke-linejoin:round;">
</g>
<g style="fill:#000000; fill-opacity:0.0; 
stroke:#000000; stroke-width:59.0551; stroke-opacity:1; 
stroke-linecap:round; stroke-linejoin:round;">
<path d="M4196 73066
L4196 72554
L4318 72554
L4391 72578
L4440 72627
L4464 72676
L4489 72773
L4489 72846
L4464 72944
L4440 72993
L4391 73041
L4318 73066
L4196 73066
" />
</g>
<g style="fill:#000000; fill-opacity:0.0; 
stroke:#000000; stroke-width:39.3701; stroke-opacity:1; 
stroke-linecap:round; stroke-linejoin:round;">
</g>
<g style="fill:#000000; fill-opacity:0.0; 
stroke:#000000; stroke-width:59.0551; stroke-opacity:1; 
stroke-linecap:round; stroke-linejoin:round;">
<path d="M112992 23622
L112205 23622
" />
</g>
<g style="fill:#000000; fill-opacity:0.0; 
stroke:#000000; stroke-width:39.3701; stroke-opacity:1; 
stroke-linecap:round; stroke-linejoin:round;">
</g>
<g style="fill:#000000; fill-opacity:0.0; 
stroke:#000000; stroke-width:59.0551; stroke-opacity:1; 
stroke-linecap:round; stroke-linejoin:round;">
<path d="M112992 43307
L112205 43307
" />
</g>
<g style="fill:#000000; fill-opacity:0.0; 
stroke:#000000; stroke-width:39.3701; stroke-opacity:1; 
stroke-linecap:round; stroke-linejoin:round;">
</g>
<g style="fill:#000000; fill-opacity:0.0; 
stroke:#000000; stroke-width:59.0551; stroke-opacity:1; 
stroke-linecap:round; stroke-linejoin:round;">
<path d="M112992 62992
L112205 62992
" />
</g>
<g style="fill:#000000; fill-opacity:0.0; 
stroke:#000000; stroke-width:39.3701; stroke-opacity:1; 
stroke-linecap:round; stroke-linejoin:round;">
</g>
<g style="fill:#000000; fill-opacity:0.0; 
stroke:#000000; stroke-width:59.0551; stroke-opacity:1; 
stroke-linecap:round; stroke-linejoin:round;">
<path d="M112477 13864
L112721 13864
" />
<path d="M112428 14011
L112599 13499
L112769 14011
" />
</g>
<g style="fill:#000000; fill-opacity:0.0; 
stroke:#000000; stroke-width:39.3701; stroke-opacity:1; 
stroke-linecap:round; stroke-linejoin:round;">
</g>
<g style="fill:#000000; fill-opacity:0.0; 
stroke:#000000; stroke-width:59.0551; stroke-opacity:1; 
stroke-linecap:round; stroke-linejoin:round;">
<path d="M112635 33428
L112708 33452
L112733 33476
L112757 33525
L112757 33598
L112733 33647
L112708 33671
L112660 33696
L112465 33696
L112465 33184
L112635 33184
L112684 33208
L112708 33233
L112733 33281
L112733 33330
L112708 33379
L112684 33403
L112635 33428
L112465 33428
" />
</g>
<g style="fill:#000000; fill-opacity:0.0; 
stroke:#000000; stroke-width:39.3701; stroke-opacity:1; 
stroke-linecap:round; stroke-linejoin:round;">
</g>
<g style="fill:#000000; fill-opacity:0.0; 
stroke:#000000; stroke-width:59.0551; stroke-opacity:1; 
stroke-linecap:round; stroke-linejoin:round;">
<path d="M112757 53332
L112733 53356
L112660 53381
L112611 53381
L112538 53356
L112489 53308
L112465 53259
L112440 53161
L112440 53088
L112465 52991
L112489 52942
L112538 52893
L112611 52869
L112660 52869
L112733 52893
L112757 52918
" />
</g>
<g style="fill:#000000; fill-opacity:0.0; 
stroke:#000000; stroke-width:39.3701; stroke-opacity:1; 
stroke-linecap:round; stroke-linejoin:round;">
</g>
<g style="fill:#000000; fill-opacity:0.0; 
stroke:#000000; stroke-width:59.0551; stroke-opacity:1; 
stroke-linecap:round; stroke-linejoin:round;">
<path d="M112465 73066
L112465 72554
L112587 72554
L112660 72578
L112708 72627
L112733 72676
L112757 72773
L112757 72846
L112733 72944
L112708 72993
L112660 73041
L112587 73066
L112465 73066
" />
</g>
<g style="fill:#000000; fill-opacity:0.0; 
stroke:#000000; stroke-width:39.3701; stroke-opacity:1; 
stroke-linecap:round; stroke-linejoin:round;">
</g>
<g style="fill:#000000; fill-opacity:0.0; 
stroke:#000000; stroke-width:59.0551; stroke-opacity:1; 
stroke-linecap:round; stroke-linejoin:round;">
<path d="M78881 76293
L78881 75703
L79022 75703
L79106 75731
L79162 75787
L79190 75843
L79219 75956
L79219 76040
L79190 76153
L79162 76209
L79106 76265
L79022 76293
L78881 76293
" />
<path d="M79725 76293
L79725 75984
L79697 75928
L79640 75899
L79528 75899
L79472 75928
" />
<path d="M79725 76265
L79669 76293
L79528 76293
L79472 76265
L79444 76209
L79444 76153
L79472 76096
L79528 76068
L79669 76068
L79725 76040
" />
<path d="M79922 75899
L80147 75899
" />
<path d="M80006 75703
L80006 76209
L80034 76265
L80090 76293
L80147 76293
" />
<path d="M80568 76265
L80512 76293
L80400 76293
L80343 76265
L80315 76209
L80315 75984
L80343 75928
L80400 75899
L80512 75899
L80568 75928
L80597 75984
L80597 76040
L80315 76096
" />
<path d="M80850 76237
L80878 76265
L80850 76293
L80822 76265
L80850 76237
L80850 76293
" />
<path d="M80850 75928
L80878 75956
L80850 75984
L80822 75956
L80850 75928
L80850 75984
" />
<path d="M81553 75759
L81581 75731
L81637 75703
L81778 75703
L81834 75731
L81862 75759
L81890 75815
L81890 75871
L81862 75956
L81525 76293
L81890 76293
" />
<path d="M82256 75703
L82312 75703
L82368 75731
L82396 75759
L82424 75815
L82453 75928
L82453 76068
L82424 76181
L82396 76237
L82368 76265
L82312 76293
L82256 76293
L82199 76265
L82171 76237
L82143 76181
L82115 76068
L82115 75928
L82143 75815
L82171 75759
L82199 75731
L82256 75703
" />
<path d="M83015 76293
L82678 76293
" />
<path d="M82846 76293
L82846 75703
L82790 75787
L82734 75843
L82678 75871
" />
<path d="M83521 75703
L83409 75703
L83352 75731
L83324 75759
L83268 75843
L83240 75956
L83240 76181
L83268 76237
L83296 76265
L83352 76293
L83465 76293
L83521 76265
L83549 76237
L83577 76181
L83577 76040
L83549 75984
L83521 75956
L83465 75928
L83352 75928
L83296 75956
L83268 75984
L83240 76040
" />
<path d="M83831 76068
L84280 76068
" />
<path d="M84674 75703
L84730 75703
L84787 75731
L84815 75759
L84843 75815
L84871 75928
L84871 76068
L84843 76181
L84815 76237
L84787 76265
L84730 76293
L84674 76293
L84618 76265
L84590 76237
L84562 76181
L84534 76068
L84534 75928
L84562 75815
L84590 75759
L84618 75731
L84674 75703
" />
<path d="M85377 75899
L85377 76293
" />
<path d="M85237 75674
L85096 76096
L85462 76096
" />
<path d="M85687 76068
L86136 76068
" />
<path d="M86727 76293
L86390 76293
" />
<path d="M86558 76293
L86558 75703
L86502 75787
L86446 75843
L86390 75871
" />
<path d="M87064 75956
L87008 75928
L86980 75899
L86952 75843
L86952 75815
L86980 75759
L87008 75731
L87064 75703
L87177 75703
L87233 75731
L87261 75759
L87289 75815
L87289 75843
L87261 75899
L87233 75928
L87177 75956
L87064 75956
L87008 75984
L86980 76012
L86952 76068
L86952 76181
L86980 76237
L87008 76265
L87064 76293
L87177 76293
L87233 76265
L87261 76237
L87289 76181
L87289 76068
L87261 76012
L87233 75984
L87177 75956
" />
</g>
<g style="fill:#000000; fill-opacity:0.0; 
stroke:#000000; stroke-width:39.3701; stroke-opacity:1; 
stroke-linecap:round; stroke-linejoin:round;">
</g>
<g style="fill:#000000; fill-opacity:0.0; 
stroke:#000000; stroke-width:59.0551; stroke-opacity:1; 
stroke-linecap:round; stroke-linejoin:round;">
<path d="M69685 76577
L112205 76577
" />
</g>
<g style="fill:#000000; fill-opacity:0.0; 
stroke:#000000; stroke-width:39.3701; stroke-opacity:1; 
stroke-linecap:round; stroke-linejoin:round;">
</g>
<g style="fill:#000000; fill-opacity:0.0; 
stroke:#000000; stroke-width:59.0551; stroke-opacity:1; 
stroke-linecap:round; stroke-linejoin:round;">
<path d="M70220 77395
L70220 76805
" />
<path d="M70557 77395
L70304 77058
" />
<path d="M70557 76805
L70220 77142
" />
<path d="M70810 77395
L70810 77002
" />
<path d="M70810 76805
L70782 76833
L70810 76861
L70838 76833
L70810 76805
L70810 76861
" />
<path d="M71429 77339
L71401 77367
L71316 77395
L71260 77395
L71176 77367
L71120 77311
L71091 77255
L71063 77142
L71063 77058
L71091 76946
L71120 76889
L71176 76833
L71260 76805
L71316 76805
L71401 76833
L71429 76861
" />
<path d="M71935 77395
L71935 77086
L71907 77030
L71851 77002
L71738 77002
L71682 77030
" />
<path d="M71935 77367
L71879 77395
L71738 77395
L71682 77367
L71654 77311
L71654 77255
L71682 77199
L71738 77171
L71879 77171
L71935 77142
" />
<path d="M72469 77395
L72469 76805
" />
<path d="M72469 77367
L72413 77395
L72301 77395
L72244 77367
L72216 77339
L72188 77283
L72188 77114
L72216 77058
L72244 77030
L72301 77002
L72413 77002
L72469 77030
" />
<path d="M73201 77086
L73397 77086
" />
<path d="M73482 77395
L73201 77395
L73201 76805
L73482 76805
" />
<path d="M73735 77339
L73763 77367
L73735 77395
L73707 77367
L73735 77339
L73735 77395
" />
<path d="M74016 77395
L74016 76805
L74157 76805
L74241 76833
L74297 76889
L74325 76946
L74354 77058
L74354 77142
L74325 77255
L74297 77311
L74241 77367
L74157 77395
L74016 77395
" />
<path d="M74607 77339
L74635 77367
L74607 77395
L74579 77367
L74607 77339
L74607 77395
" />
<path d="M74860 77227
L75141 77227
" />
<path d="M74804 77395
L75000 76805
L75197 77395
" />
<path d="M75394 77339
L75422 77367
L75394 77395
L75366 77367
L75394 77339
L75394 77395
" />
<path d="M76575 77395
L76575 76805
" />
<path d="M76631 77171
L76800 77395
" />
<path d="M76800 77002
L76575 77227
" />
<path d="M77053 77395
L77053 77002
" />
<path d="M77053 76805
L77025 76833
L77053 76861
L77081 76833
L77053 76805
L77053 76861
" />
<path d="M77588 77367
L77531 77395
L77419 77395
L77363 77367
L77334 77339
L77306 77283
L77306 77114
L77334 77058
L77363 77030
L77419 77002
L77531 77002
L77588 77030
" />
<path d="M78094 77395
L78094 77086
L78066 77030
L78009 77002
L77897 77002
L77841 77030
" />
<path d="M78094 77367
L78037 77395
L77897 77395
L77841 77367
L77813 77311
L77813 77255
L77841 77199
L77897 77171
L78037 77171
L78094 77142
" />
<path d="M78628 77395
L78628 76805
" />
<path d="M78628 77367
L78572 77395
L78459 77395
L78403 77367
L78375 77339
L78347 77283
L78347 77114
L78375 77058
L78403 77030
L78459 77002
L78572 77002
L78628 77030
" />
<path d="M79612 77002
L79612 77395
" />
<path d="M79472 76777
L79331 77199
L79697 77199
" />
<path d="M79922 77339
L79950 77367
L79922 77395
L79894 77367
L79922 77339
L79922 77395
" />
<path d="M80315 76805
L80372 76805
L80428 76833
L80456 76861
L80484 76917
L80512 77030
L80512 77171
L80484 77283
L80456 77339
L80428 77367
L80372 77395
L80315 77395
L80259 77367
L80231 77339
L80203 77283
L80175 77171
L80175 77030
L80203 76917
L80231 76861
L80259 76833
L80315 76805
" />
<path d="M80765 77339
L80793 77367
L80765 77395
L80737 77367
L80765 77339
L80765 77395
" />
<path d="M81328 76805
L81046 76805
L81018 77086
L81046 77058
L81103 77030
L81243 77030
L81300 77058
L81328 77086
L81356 77142
L81356 77283
L81328 77339
L81300 77367
L81243 77395
L81103 77395
L81046 77367
L81018 77339
" />
</g>
<g style="fill:#000000; fill-opacity:0.0; 
stroke:#000000; stroke-width:39.3701; stroke-opacity:1; 
stroke-linecap:round; stroke-linejoin:round;">
</g>
<g style="fill:#000000; fill-opacity:0.0; 
stroke:#000000; stroke-width:59.0551; stroke-opacity:1; 
stroke-linecap:round; stroke-linejoin:round;">
<path d="M69685 75396
L112205 75396
" />
</g>
<g style="fill:#000000; fill-opacity:0.0; 
stroke:#000000; stroke-width:39.3701; stroke-opacity:1; 
stroke-linecap:round; stroke-linejoin:round;">
</g>
<g style="fill:#000000; fill-opacity:0.0; 
stroke:#000000; stroke-width:118.11; stroke-opacity:1; 
stroke-linecap:round; stroke-linejoin:round;">
<path d="M104022 76293
L103825 76012
" />
<path d="M103684 76293
L103684 75703
L103909 75703
L103965 75731
L103994 75759
L104022 75815
L104022 75899
L103994 75956
L103965 75984
L103909 76012
L103684 76012
" />
<path d="M104500 76265
L104444 76293
L104331 76293
L104275 76265
L104247 76209
L104247 75984
L104275 75928
L104331 75899
L104444 75899
L104500 75928
L104528 75984
L104528 76040
L104247 76096
" />
<path d="M104725 75899
L104865 76293
L105006 75899
" />
<path d="M105231 76237
L105259 76265
L105231 76293
L105203 76265
L105231 76237
L105231 76293
" />
<path d="M105231 75928
L105259 75956
L105231 75984
L105203 75956
L105231 75928
L105231 75984
" />
</g>
<g style="fill:#000000; fill-opacity:0.0; 
stroke:#000000; stroke-width:39.3701; stroke-opacity:1; 
stroke-linecap:round; stroke-linejoin:round;">
</g>
<g style="fill:#000000; fill-opacity:0.0; 
stroke:#000000; stroke-width:59.0551; stroke-opacity:1; 
stroke-linecap:round; stroke-linejoin:round;">
<path d="M70192 76265
L70276 76293
L70417 76293
L70473 76265
L70501 76237
L70529 76181
L70529 76124
L70501 76068
L70473 76040
L70417 76012
L70304 75984
L70248 75956
L70220 75928
L70192 75871
L70192 75815
L70220 75759
L70248 75731
L70304 75703
L70445 75703
L70529 75731
" />
<path d="M70782 76293
L70782 75899
" />
<path d="M70782 75703
L70754 75731
L70782 75759
L70810 75731
L70782 75703
L70782 75759
" />
<path d="M71007 75899
L71316 75899
L71007 76293
L71316 76293
" />
<path d="M71766 76265
L71710 76293
L71598 76293
L71541 76265
L71513 76209
L71513 75984
L71541 75928
L71598 75899
L71710 75899
L71766 75928
L71795 75984
L71795 76040
L71513 76096
" />
<path d="M72048 76237
L72076 76265
L72048 76293
L72019 76265
L72048 76237
L72048 76293
" />
<path d="M72048 75928
L72076 75956
L72048 75984
L72019 75956
L72048 75928
L72048 75984
" />
<path d="M72751 76124
L73032 76124
" />
<path d="M72694 76293
L72891 75703
L73088 76293
" />
<path d="M73538 75899
L73538 76293
" />
<path d="M73397 75674
L73257 76096
L73622 76096
" />
</g>
<g style="fill:#000000; fill-opacity:0.0; 
stroke:#000000; stroke-width:39.3701; stroke-opacity:1; 
stroke-linecap:round; stroke-linejoin:round;">
</g>
<g style="fill:#000000; fill-opacity:0.0; 
stroke:#000000; stroke-width:59.0551; stroke-opacity:1; 
stroke-linecap:round; stroke-linejoin:round;">
<path d="M103684 77395
L103684 76805
" />
<path d="M104219 77395
L104219 76805
" />
<path d="M104219 77367
L104162 77395
L104050 77395
L103994 77367
L103965 77339
L103937 77283
L103937 77114
L103965 77058
L103994 77030
L104050 77002
L104162 77002
L104219 77030
" />
<path d="M104500 77339
L104528 77367
L104500 77395
L104472 77367
L104500 77339
L104500 77395
" />
<path d="M104500 77030
L104528 77058
L104500 77086
L104472 77058
L104500 77030
L104500 77086
" />
<path d="M105540 77395
L105203 77395
" />
<path d="M105372 77395
L105372 76805
L105315 76889
L105259 76946
L105203 76974
" />
<path d="M106215 76777
L105709 77536
" />
<path d="M106721 77395
L106384 77395
" />
<path d="M106553 77395
L106553 76805
L106496 76889
L106440 76946
L106384 76974
" />
</g>
<g style="fill:#000000; fill-opacity:0.0; 
stroke:#000000; stroke-width:39.3701; stroke-opacity:1; 
stroke-linecap:round; stroke-linejoin:round;">
</g>
<g style="fill:#000000; fill-opacity:0.0; 
stroke:#000000; stroke-width:59.0551; stroke-opacity:1; 
stroke-linecap:round; stroke-linejoin:round;">
<path d="M69685 73821
L112205 73821
" />
</g>
<g style="fill:#000000; fill-opacity:0.0; 
stroke:#000000; stroke-width:39.3701; stroke-opacity:1; 
stroke-linecap:round; stroke-linejoin:round;">
</g>
<g style="fill:#000000; fill-opacity:0.0; 
stroke:#000000; stroke-width:157.48; stroke-opacity:1; 
stroke-linecap:round; stroke-linejoin:round;">
<path d="M70257 74099
L70707 74099
" />
<path d="M70384 74886
L70482 74099
" />
<path d="M70871 74886
L70937 74361
" />
<path d="M70970 74099
L70927 74136
L70960 74174
L71002 74136
L70970 74099
L70960 74174
" />
<path d="M71199 74361
L71499 74361
" />
<path d="M71345 74099
L71260 74774
L71288 74849
L71359 74886
L71434 74886
" />
<path d="M71809 74886
L71738 74849
L71710 74774
L71795 74099
" />
<path d="M72413 74849
L72334 74886
L72184 74886
L72113 74849
L72085 74774
L72123 74474
L72169 74399
L72249 74361
L72399 74361
L72469 74399
L72498 74474
L72488 74549
L72104 74624
" />
<path d="M72793 74811
L72826 74849
L72783 74886
L72751 74849
L72793 74811
L72783 74886
" />
<path d="M72844 74399
L72877 74436
L72835 74474
L72802 74436
L72844 74399
L72835 74474
" />
</g>
<g style="fill:#000000; fill-opacity:0.0; 
stroke:#000000; stroke-width:39.3701; stroke-opacity:1; 
stroke-linecap:round; stroke-linejoin:round;">
</g>
<g style="fill:#000000; fill-opacity:0.0; 
stroke:#000000; stroke-width:59.0551; stroke-opacity:1; 
stroke-linecap:round; stroke-linejoin:round;">
<path d="M70417 73070
L70220 73070
" />
<path d="M70220 73380
L70220 72789
L70501 72789
" />
<path d="M70726 73380
L70726 72986
" />
<path d="M70726 72789
L70698 72817
L70726 72845
L70754 72817
L70726 72789
L70726 72845
" />
<path d="M71091 73380
L71035 73352
L71007 73295
L71007 72789
" />
<path d="M71541 73352
L71485 73380
L71373 73380
L71316 73352
L71288 73295
L71288 73070
L71316 73014
L71373 72986
L71485 72986
L71541 73014
L71570 73070
L71570 73127
L71288 73183
" />
<path d="M71823 73323
L71851 73352
L71823 73380
L71795 73352
L71823 73323
L71823 73380
" />
<path d="M71823 73014
L71851 73042
L71823 73070
L71795 73042
L71823 73014
L71823 73070
" />
<path d="M72807 72789
L72694 72789
L72638 72817
L72610 72845
L72554 72930
L72526 73042
L72526 73267
L72554 73323
L72582 73352
L72638 73380
L72751 73380
L72807 73352
L72835 73323
L72863 73267
L72863 73127
L72835 73070
L72807 73042
L72751 73014
L72638 73014
L72582 73042
L72554 73070
L72526 73127
" />
<path d="M73060 73380
L73369 72986
" />
<path d="M73060 72986
L73369 73380
" />
<path d="M73594 72789
L73594 73267
L73622 73323
L73651 73352
L73707 73380
L73819 73380
L73876 73352
L73904 73323
L73932 73267
L73932 72789
" />
<path d="M74185 73352
L74269 73380
L74410 73380
L74466 73352
L74494 73323
L74522 73267
L74522 73211
L74494 73155
L74466 73127
L74410 73099
L74297 73070
L74241 73042
L74213 73014
L74185 72958
L74185 72902
L74213 72845
L74241 72817
L74297 72789
L74438 72789
L74522 72817
" />
<path d="M74972 73070
L75057 73099
L75085 73127
L75113 73183
L75113 73267
L75085 73323
L75057 73352
L75000 73380
L74775 73380
L74775 72789
L74972 72789
L75028 72817
L75057 72845
L75085 72902
L75085 72958
L75057 73014
L75028 73042
L74972 73070
L74775 73070
" />
<path d="M75225 73436
L75675 73436
" />
<path d="M75816 73380
L75816 72789
L76041 72789
L76097 72817
L76125 72845
L76153 72902
L76153 72986
L76125 73042
L76097 73070
L76041 73099
L75816 73099
" />
<path d="M76491 73380
L76435 73352
L76406 73323
L76378 73267
L76378 73099
L76406 73042
L76435 73014
L76491 72986
L76575 72986
L76631 73014
L76660 73042
L76688 73099
L76688 73267
L76660 73323
L76631 73352
L76575 73380
L76491 73380
" />
<path d="M76885 72986
L76997 73380
L77109 73099
L77222 73380
L77334 72986
" />
<path d="M77559 73380
L77559 72789
L77756 73211
L77953 72789
L77953 73380
" />
<path d="M78459 73352
L78403 73380
L78291 73380
L78234 73352
L78206 73295
L78206 73070
L78234 73014
L78291 72986
L78403 72986
L78459 73014
L78487 73070
L78487 73127
L78206 73183
" />
<path d="M78656 72986
L78881 72986
" />
<path d="M78741 72789
L78741 73295
L78769 73352
L78825 73380
L78881 73380
" />
<path d="M79078 73323
L79106 73352
L79078 73380
L79050 73352
L79078 73323
L79078 73380
" />
<path d="M79359 73380
L79359 72789
" />
<path d="M79415 73155
L79584 73380
" />
<path d="M79584 72986
L79359 73211
" />
<path d="M79837 73380
L79837 72986
" />
<path d="M79837 72789
L79809 72817
L79837 72845
L79865 72817
L79837 72789
L79837 72845
" />
<path d="M80372 73352
L80315 73380
L80203 73380
L80147 73352
L80118 73323
L80090 73267
L80090 73099
L80118 73042
L80147 73014
L80203 72986
L80315 72986
L80372 73014
" />
<path d="M80878 73380
L80878 73070
L80850 73014
L80793 72986
L80681 72986
L80625 73014
" />
<path d="M80878 73352
L80822 73380
L80681 73380
L80625 73352
L80597 73295
L80597 73239
L80625 73183
L80681 73155
L80822 73155
L80878 73127
" />
<path d="M81412 73380
L81412 72789
" />
<path d="M81412 73352
L81356 73380
L81243 73380
L81187 73352
L81159 73323
L81131 73267
L81131 73099
L81159 73042
L81187 73014
L81243 72986
L81356 72986
L81412 73014
" />
<path d="M81553 73436
L82003 73436
" />
<path d="M82143 72986
L82143 73577
" />
<path d="M82143 73014
L82199 72986
L82312 72986
L82368 73014
L82396 73042
L82424 73099
L82424 73267
L82396 73323
L82368 73352
L82312 73380
L82199 73380
L82143 73352
" />
<path d="M82931 73352
L82874 73380
L82762 73380
L82706 73352
L82678 73323
L82649 73267
L82649 73099
L82678 73042
L82706 73014
L82762 72986
L82874 72986
L82931 73014
" />
<path d="M83184 73380
L83184 72789
" />
<path d="M83184 73014
L83240 72986
L83352 72986
L83409 73014
L83437 73042
L83465 73099
L83465 73267
L83437 73323
L83409 73352
L83352 73380
L83240 73380
L83184 73352
" />
</g>
<g style="fill:#000000; fill-opacity:0.0; 
stroke:#000000; stroke-width:39.3701; stroke-opacity:1; 
stroke-linecap:round; stroke-linejoin:round;">
</g>
<g style="fill:#000000; fill-opacity:0.0; 
stroke:#000000; stroke-width:59.0551; stroke-opacity:1; 
stroke-linecap:round; stroke-linejoin:round;">
<path d="M69685 71459
L112205 71459
" />
</g>
<g style="fill:#000000; fill-opacity:0.0; 
stroke:#000000; stroke-width:39.3701; stroke-opacity:1; 
stroke-linecap:round; stroke-linejoin:round;">
</g>
<g style="fill:#000000; fill-opacity:0.0; 
stroke:#000000; stroke-width:59.0551; stroke-opacity:1; 
stroke-linecap:round; stroke-linejoin:round;">
<path d="M70192 72289
L70276 72317
L70417 72317
L70473 72289
L70501 72260
L70529 72204
L70529 72148
L70501 72092
L70473 72064
L70417 72036
L70304 72007
L70248 71979
L70220 71951
L70192 71895
L70192 71839
L70220 71782
L70248 71754
L70304 71726
L70445 71726
L70529 71754
" />
<path d="M70782 72317
L70782 71726
" />
<path d="M71035 72317
L71035 72007
L71007 71951
L70951 71923
L70867 71923
L70810 71951
L70782 71979
" />
<path d="M71541 72289
L71485 72317
L71373 72317
L71316 72289
L71288 72232
L71288 72007
L71316 71951
L71373 71923
L71485 71923
L71541 71951
L71570 72007
L71570 72064
L71288 72120
" />
<path d="M72048 72289
L71991 72317
L71879 72317
L71823 72289
L71795 72232
L71795 72007
L71823 71951
L71879 71923
L71991 71923
L72048 71951
L72076 72007
L72076 72064
L71795 72120
" />
<path d="M72244 71923
L72469 71923
" />
<path d="M72329 71726
L72329 72232
L72357 72289
L72413 72317
L72469 72317
" />
<path d="M72666 72260
L72694 72289
L72666 72317
L72638 72289
L72666 72260
L72666 72317
" />
<path d="M72666 71951
L72694 71979
L72666 72007
L72638 71979
L72666 71951
L72666 72007
" />
</g>
<g style="fill:#000000; fill-opacity:0.0; 
stroke:#000000; stroke-width:39.3701; stroke-opacity:1; 
stroke-linecap:round; stroke-linejoin:round;">
</g>
<g style="fill:#000000; fill-opacity:0.0; 
stroke:#000000; stroke-width:59.0551; stroke-opacity:1; 
stroke-linecap:round; stroke-linejoin:round;">
<path d="M77559 75396
L77559 76577
" />
</g>
<g style="fill:#000000; fill-opacity:0.0; 
stroke:#000000; stroke-width:39.3701; stroke-opacity:1; 
stroke-linecap:round; stroke-linejoin:round;">
</g>
<g style="fill:#000000; fill-opacity:0.0; 
stroke:#000000; stroke-width:59.0551; stroke-opacity:1; 
stroke-linecap:round; stroke-linejoin:round;">
<path d="M102756 75396
L102756 77955
" />
</g>
<g style="fill:#C2C200; fill-opacity:0.0; 
stroke:#C2C200; stroke-width:59.0551; stroke-opacity:1; 
stroke-linecap:round; stroke-linejoin:round;">
<path d="M37500 19094
L73791 19094
" />
<path d="M37500 45673
L37500 19094
" />
<path d="M73791 45673
L37500 45673
" />
<path d="M73791 19094
L73791 45673
" />
</g>
<g style="fill:#008484; fill-opacity:0.0; 
stroke:#008484; stroke-width:59.0551; stroke-opacity:1; 
stroke-linecap:round; stroke-linejoin:round;">
</g>
<g style="fill:#008484; fill-opacity:0.0; 
stroke:#008484; stroke-width:118.11; stroke-opacity:1; 
stroke-linecap:round; stroke-linejoin:round;">
<path d="M52878 44633
L52766 44633
L52709 44661
L52681 44689
L52625 44773
L52597 44886
L52597 45111
L52625 45167
L52653 45195
L52709 45223
L52822 45223
L52878 45195
L52906 45167
L52934 45111
L52934 44970
L52906 44914
L52878 44886
L52822 44858
L52709 44858
L52653 44886
L52625 44914
L52597 44970
" />
<path d="M53637 44830
L53637 45420
" />
<path d="M53637 44858
L53694 44830
L53806 44830
L53862 44858
L53890 44886
L53919 44942
L53919 45111
L53890 45167
L53862 45195
L53806 45223
L53694 45223
L53637 45195
" />
<path d="M54256 45223
L54200 45195
L54172 45167
L54143 45111
L54143 44942
L54172 44886
L54200 44858
L54256 44830
L54340 44830
L54397 44858
L54425 44886
L54453 44942
L54453 45111
L54425 45167
L54397 45195
L54340 45223
L54256 45223
" />
<path d="M54706 45223
L54706 44830
" />
<path d="M54706 44942
L54734 44886
L54762 44858
L54818 44830
L54875 44830
" />
<path d="M54987 44830
L55212 44830
" />
<path d="M55071 44633
L55071 45139
L55100 45195
L55156 45223
L55212 45223
" />
<path d="M55859 44633
L55859 45111
L55887 45167
L55915 45195
L55971 45223
L56084 45223
L56140 45195
L56168 45167
L56196 45111
L56196 44633
" />
<path d="M56449 45195
L56534 45223
L56674 45223
L56731 45195
L56759 45167
L56787 45111
L56787 45055
L56759 44998
L56731 44970
L56674 44942
L56562 44914
L56506 44886
L56478 44858
L56449 44802
L56449 44745
L56478 44689
L56506 44661
L56562 44633
L56703 44633
L56787 44661
" />
<path d="M57237 44914
L57321 44942
L57349 44970
L57377 45026
L57377 45111
L57349 45167
L57321 45195
L57265 45223
L57040 45223
L57040 44633
L57237 44633
L57293 44661
L57321 44689
L57349 44745
L57349 44802
L57321 44858
L57293 44886
L57237 44914
L57040 44914
" />
<path d="M58080 45223
L58080 44633
L58305 44633
L58362 44661
L58390 44689
L58418 44745
L58418 44830
L58390 44886
L58362 44914
L58305 44942
L58080 44942
" />
<path d="M58755 45223
L58699 45195
L58671 45167
L58643 45111
L58643 44942
L58671 44886
L58699 44858
L58755 44830
L58840 44830
L58896 44858
L58924 44886
L58952 44942
L58952 45111
L58924 45167
L58896 45195
L58840 45223
L58755 45223
" />
<path d="M59149 44830
L59262 45223
L59374 44942
L59487 45223
L59599 44830
" />
<path d="M60049 45195
L59993 45223
L59880 45223
L59824 45195
L59796 45139
L59796 44914
L59824 44858
L59880 44830
L59993 44830
L60049 44858
L60077 44914
L60077 44970
L59796 45026
" />
<path d="M60330 45223
L60330 44830
" />
<path d="M60330 44942
L60358 44886
L60386 44858
L60443 44830
L60499 44830
" />
<path d="M61146 45223
L61146 44830
" />
<path d="M61146 44886
L61174 44858
L61230 44830
L61314 44830
L61371 44858
L61399 44914
L61399 45223
" />
<path d="M61399 44914
L61427 44858
L61483 44830
L61568 44830
L61624 44858
L61652 44914
L61652 45223
" />
<path d="M62158 45195
L62102 45223
L61989 45223
L61933 45195
L61905 45139
L61905 44914
L61933 44858
L61989 44830
L62102 44830
L62158 44858
L62186 44914
L62186 44970
L61905 45026
" />
<path d="M62355 44830
L62580 44830
" />
<path d="M62439 44633
L62439 45139
L62467 45195
L62524 45223
L62580 45223
" />
<path d="M63002 45195
L62946 45223
L62833 45223
L62777 45195
L62749 45139
L62749 44914
L62777 44858
L62833 44830
L62946 44830
L63002 44858
L63030 44914
L63030 44970
L62749 45026
" />
<path d="M63283 45223
L63283 44830
" />
<path d="M63283 44942
L63311 44886
L63339 44858
L63395 44830
L63452 44830
" />
<path d="M64042 44830
L64183 45223
L64323 44830
" />
<path d="M64520 44689
L64548 44661
L64605 44633
L64745 44633
L64802 44661
L64830 44689
L64858 44745
L64858 44802
L64830 44886
L64492 45223
L64858 45223
" />
<path d="M65111 45167
L65139 45195
L65111 45223
L65083 45195
L65111 45167
L65111 45223
" />
<path d="M65364 44689
L65392 44661
L65448 44633
L65589 44633
L65645 44661
L65673 44689
L65701 44745
L65701 44802
L65673 44886
L65336 45223
L65701 45223
" />
</g>
<g style="fill:#C2C200; fill-opacity:0.0; 
stroke:#C2C200; stroke-width:118.11; stroke-opacity:1; 
stroke-linecap:round; stroke-linejoin:round;">
</g>
<g style="fill:#C2C200; fill-opacity:0.0; 
stroke:#C2C200; stroke-width:59.0551; stroke-opacity:1; 
stroke-linecap:round; stroke-linejoin:round;">
<path d="M58097 26398
L57966 26211
" />
<path d="M57872 26398
L57872 26004
L58022 26004
L58059 26023
L58078 26042
L58097 26079
L58097 26136
L58078 26173
L58059 26192
L58022 26211
L57872 26211
" />
<path d="M58247 26042
L58266 26023
L58303 26004
L58397 26004
L58434 26023
L58453 26042
L58472 26079
L58472 26117
L58453 26173
L58228 26398
L58472 26398
" />
<path d="M58847 26398
L58622 26398
" />
<path d="M58734 26398
L58734 26004
L58697 26061
L58659 26098
L58622 26117
" />
<path d="M72104 32158
L72122 32102
L72122 32008
L72104 31971
L72085 31952
L72047 31933
L72010 31933
L71973 31952
L71954 31971
L71935 32008
L71916 32083
L71898 32121
L71879 32140
L71841 32158
L71804 32158
L71766 32140
L71748 32121
L71729 32083
L71729 31990
L71748 31933
" />
<path d="M71729 31802
L72122 31708
L71841 31633
L72122 31558
L71729 31465
" />
<path d="M72122 31108
L72122 31333
" />
<path d="M72122 31221
L71729 31221
L71785 31258
L71823 31296
L71841 31333
" />
<path d="M73359 41894
L73359 42213
L73377 42250
L73396 42269
L73434 42288
L73508 42288
L73546 42269
L73565 42250
L73583 42213
L73583 41894
" />
<path d="M73977 42288
L73752 42288
" />
<path d="M73865 42288
L73865 41894
L73827 41950
L73790 41988
L73752 42007
" />
<path d="M74221 41894
L74258 41894
L74296 41913
L74315 41932
L74333 41969
L74352 42044
L74352 42138
L74333 42213
L74315 42250
L74296 42269
L74258 42288
L74221 42288
L74183 42269
L74165 42250
L74146 42213
L74127 42138
L74127 42044
L74146 41969
L74165 41932
L74183 41913
L74221 41894
" />
</g>
<g style="fill:#008484; fill-opacity:0.0; 
stroke:#008484; stroke-width:59.0551; stroke-opacity:1; 
stroke-linecap:round; stroke-linejoin:round;">
</g>
<g style="fill:#008484; fill-opacity:0.0; 
stroke:#008484; stroke-width:30; stroke-opacity:1; 
stroke-linecap:round; stroke-linejoin:round;">
<path d="M43493 44683
L43462 44667
L43432 44637
L43386 44591
L43356 44576
L43325 44576
" />
<path d="M43340 44652
L43310 44637
L43279 44606
L43264 44545
L43264 44439
L43279 44378
L43310 44347
L43340 44332
L43401 44332
L43432 44347
L43462 44378
L43477 44439
L43477 44545
L43462 44606
L43432 44637
L43401 44652
L43340 44652
" />
<path d="M43599 44363
L43615 44347
L43645 44332
L43721 44332
L43752 44347
L43767 44363
L43782 44393
L43782 44424
L43767 44469
L43584 44652
L43782 44652
" />
</g>
<g style="fill:#C2C200; fill-opacity:0.0; 
stroke:#C2C200; stroke-width:30; stroke-opacity:1; 
stroke-linecap:round; stroke-linejoin:round;">
</g>
<g style="fill:#C2C200; fill-opacity:0.0; 
stroke:#C2C200; stroke-width:59.0551; stroke-opacity:1; 
stroke-linecap:round; stroke-linejoin:round;">
<path d="M56390 40211
L56165 40171
" />
<path d="M56231 40370
L55953 40092
L56059 39986
L56098 39973
L56125 39973
L56165 39986
L56204 40026
L56218 40065
L56218 40092
L56204 40132
L56098 40238
" />
<path d="M56350 39694
L56297 39747
L56284 39787
L56284 39814
L56297 39880
L56337 39946
L56443 40052
L56483 40065
L56509 40065
L56549 40052
L56602 39999
L56615 39959
L56615 39933
L56602 39893
L56536 39827
L56496 39814
L56470 39814
L56430 39827
L56377 39880
L56364 39920
L56364 39946
L56377 39986
" />
<path d="M64880 20788
L64899 20807
L64918 20863
L64918 20901
L64899 20957
L64862 20994
L64824 21013
L64749 21032
L64693 21032
L64618 21013
L64580 20994
L64543 20957
L64524 20901
L64524 20863
L64543 20807
L64562 20788
" />
<path d="M64562 20638
L64543 20619
L64524 20582
L64524 20488
L64543 20451
L64562 20432
L64599 20413
L64637 20413
L64693 20432
L64918 20657
L64918 20413
" />
<path d="M64562 20263
L64543 20244
L64524 20207
L64524 20113
L64543 20076
L64562 20057
L64599 20038
L64637 20038
L64693 20057
L64918 20282
L64918 20038
" />
<path d="M67534 23335
L67534 23467
" />
<path d="M67741 23467
L67347 23467
L67347 23279
" />
<path d="M67347 22942
L67347 23129
L67534 23148
L67516 23129
L67497 23092
L67497 22998
L67516 22961
L67534 22942
L67572 22923
L67666 22923
L67703 22942
L67722 22961
L67741 22998
L67741 23092
L67722 23129
L67703 23148
" />
<path d="M56783 35988
L56504 35709
" />
<path d="M57048 35670
L57048 35696
L57021 35749
L56995 35776
L56942 35802
L56889 35802
L56849 35789
L56783 35749
L56743 35709
L56703 35643
L56690 35603
L56690 35550
L56717 35497
L56743 35471
L56796 35444
L56823 35444
" />
<path d="M57340 35431
L57181 35590
" />
<path d="M57260 35511
L56982 35232
L56995 35298
L56995 35351
L56982 35391
" />
<path d="M56136 29959
L56117 29978
L56061 29997
L56024 29997
L55967 29978
L55930 29940
L55911 29903
L55892 29828
L55892 29772
L55911 29697
L55930 29659
L55967 29622
L56024 29603
L56061 29603
L56117 29622
L56136 29640
" />
<path d="M56511 29997
L56286 29997
" />
<path d="M56399 29997
L56399 29603
L56361 29659
L56324 29697
L56286 29715
" />
<path d="M56849 29734
L56849 29997
" />
<path d="M56755 29584
L56661 29865
L56905 29865
" />
<path d="M59184 27481
L59184 27799
L59203 27837
L59221 27856
L59259 27874
L59334 27874
L59371 27856
L59390 27837
L59409 27799
L59409 27481
" />
<path d="M59784 27481
L59596 27481
L59577 27668
L59596 27649
L59634 27631
L59727 27631
L59765 27649
L59784 27668
L59802 27706
L59802 27799
L59784 27837
L59765 27856
L59727 27874
L59634 27874
L59596 27856
L59577 27837
" />
<path d="M62751 27607
L62751 27925
L62769 27963
L62788 27982
L62826 28000
L62901 28000
L62938 27982
L62957 27963
L62976 27925
L62976 27607
" />
<path d="M63126 27607
L63369 27607
L63238 27757
L63294 27757
L63332 27775
L63351 27794
L63369 27832
L63369 27925
L63351 27963
L63332 27982
L63294 28000
L63182 28000
L63144 27982
L63126 27963
" />
<path d="M63374 30182
L63187 30313
" />
<path d="M63374 30407
L62981 30407
L62981 30257
L63000 30219
L63018 30200
L63056 30182
L63112 30182
L63149 30200
L63168 30219
L63187 30257
L63187 30407
" />
<path d="M63374 29807
L63374 30032
" />
<path d="M63374 29919
L62981 29919
L63037 29957
L63074 29994
L63093 30032
" />
<path d="M62981 29469
L62981 29544
L63000 29582
L63018 29601
L63074 29638
L63149 29657
L63299 29657
L63337 29638
L63356 29619
L63374 29582
L63374 29507
L63356 29469
L63337 29451
L63299 29432
L63206 29432
L63168 29451
L63149 29469
L63131 29507
L63131 29582
L63149 29619
L63168 29638
L63206 29657
" />
<path d="M60128 29190
L60147 29208
L60166 29265
L60166 29302
L60147 29358
L60110 29396
L60072 29415
L59997 29433
L59941 29433
L59866 29415
L59828 29396
L59791 29358
L59772 29302
L59772 29265
L59791 29208
L59810 29190
" />
<path d="M60166 28815
L60166 29040
" />
<path d="M60166 28927
L59772 28927
L59828 28965
L59866 29002
L59885 29040
" />
<path d="M59772 28458
L59772 28646
L59960 28665
L59941 28646
L59922 28608
L59922 28515
L59941 28477
L59960 28458
L59997 28440
L60091 28440
L60128 28458
L60147 28477
L60166 28515
L60166 28608
L60147 28646
L60128 28665
" />
<path d="M60384 26615
L60253 26427
" />
<path d="M60159 26615
L60159 26221
L60309 26221
L60347 26240
L60365 26258
L60384 26296
L60384 26352
L60365 26390
L60347 26408
L60309 26427
L60159 26427
" />
<path d="M60759 26615
L60534 26615
" />
<path d="M60647 26615
L60647 26221
L60609 26277
L60572 26315
L60534 26333
" />
<path d="M60984 26390
L60947 26371
L60928 26352
L60909 26315
L60909 26296
L60928 26258
L60947 26240
L60984 26221
L61059 26221
L61097 26240
L61115 26258
L61134 26296
L61134 26315
L61115 26352
L61097 26371
L61059 26390
L60984 26390
L60947 26408
L60928 26427
L60909 26465
L60909 26540
L60928 26577
L60947 26596
L60984 26615
L61059 26615
L61097 26596
L61115 26577
L61134 26540
L61134 26465
L61115 26427
L61097 26408
L61059 26390
" />
<path d="M57487 31689
L57355 31502
" />
<path d="M57262 31689
L57262 31296
L57412 31296
L57449 31314
L57468 31333
L57487 31371
L57487 31427
L57468 31464
L57449 31483
L57412 31502
L57262 31502
" />
<path d="M57862 31689
L57637 31689
" />
<path d="M57749 31689
L57749 31296
L57712 31352
L57674 31389
L57637 31408
" />
<path d="M58218 31296
L58030 31296
L58011 31483
L58030 31464
L58068 31446
L58161 31446
L58199 31464
L58218 31483
L58236 31521
L58236 31614
L58218 31652
L58199 31671
L58161 31689
L58068 31689
L58030 31671
L58011 31652
" />
<path d="M50394 27323
L50713 27323
L50750 27304
L50769 27286
L50788 27248
L50788 27173
L50769 27136
L50750 27117
L50713 27098
L50394 27098
" />
<path d="M50788 26892
L50788 26817
L50769 26779
L50750 26761
L50694 26723
L50619 26704
L50469 26704
L50432 26723
L50413 26742
L50394 26779
L50394 26854
L50413 26892
L50432 26911
L50469 26929
L50563 26929
L50600 26911
L50619 26892
L50638 26854
L50638 26779
L50619 26742
L50600 26723
L50563 26704
" />
<path d="M54884 26801
L55071 26801
" />
<path d="M54678 26932
L54884 26801
L54678 26670
" />
<path d="M55071 26332
L55071 26557
" />
<path d="M55071 26445
L54678 26445
L54734 26482
L54771 26520
L54790 26557
" />
<path d="M47425 38052
L47425 38370
L47444 38408
L47463 38427
L47500 38445
L47575 38445
L47613 38427
L47632 38408
L47650 38370
L47650 38052
" />
<path d="M48044 38445
L47819 38445
" />
<path d="M47932 38445
L47932 38052
L47894 38108
L47857 38145
L47819 38164
" />
<path d="M48175 38052
L48419 38052
L48288 38202
L48344 38202
L48382 38220
L48400 38239
L48419 38277
L48419 38370
L48400 38408
L48382 38427
L48344 38445
L48232 38445
L48194 38427
L48175 38408
" />
<path d="M38559 20629
L38166 20629
L38166 20535
L38185 20479
L38222 20441
L38260 20422
L38335 20404
L38391 20404
L38466 20422
L38503 20441
L38541 20479
L38559 20535
L38559 20629
" />
<path d="M38166 20066
L38166 20141
L38185 20179
L38203 20197
L38260 20235
L38335 20254
L38485 20254
L38522 20235
L38541 20216
L38559 20179
L38559 20104
L38541 20066
L38522 20047
L38485 20029
L38391 20029
L38353 20047
L38335 20066
L38316 20104
L38316 20179
L38335 20216
L38353 20235
L38391 20254
" />
</g>
<g style="fill:#008484; fill-opacity:0.0; 
stroke:#008484; stroke-width:59.0551; stroke-opacity:1; 
stroke-linecap:round; stroke-linejoin:round;">
</g>
<g style="fill:#008484; fill-opacity:0.0; 
stroke:#008484; stroke-width:30; stroke-opacity:1; 
stroke-linecap:round; stroke-linejoin:round;">
<path d="M51386 37399
L51356 37384
L51325 37353
L51280 37308
L51249 37292
L51219 37292
" />
<path d="M51234 37369
L51203 37353
L51173 37323
L51158 37262
L51158 37155
L51173 37094
L51203 37064
L51234 37049
L51295 37049
L51325 37064
L51356 37094
L51371 37155
L51371 37262
L51356 37323
L51325 37353
L51295 37369
L51234 37369
" />
<path d="M51478 37049
L51676 37049
L51569 37171
L51615 37171
L51645 37186
L51661 37201
L51676 37232
L51676 37308
L51661 37338
L51645 37353
L51615 37369
L51523 37369
L51493 37353
L51478 37338
" />
</g>
<g style="fill:#C2C200; fill-opacity:0.0; 
stroke:#C2C200; stroke-width:30; stroke-opacity:1; 
stroke-linecap:round; stroke-linejoin:round;">
</g>
<g style="fill:#C2C200; fill-opacity:0.0; 
stroke:#C2C200; stroke-width:59.0551; stroke-opacity:1; 
stroke-linecap:round; stroke-linejoin:round;">
<path d="M50463 41926
L50332 41738
" />
<path d="M50238 41926
L50238 41532
L50388 41532
L50425 41551
L50444 41569
L50463 41607
L50463 41663
L50444 41701
L50425 41719
L50388 41738
L50238 41738
" />
<path d="M50594 41532
L50838 41532
L50707 41682
L50763 41682
L50800 41701
L50819 41719
L50838 41757
L50838 41851
L50819 41888
L50800 41907
L50763 41926
L50650 41926
L50613 41907
L50594 41888
" />
<path d="M51194 41532
L51007 41532
L50988 41719
L51007 41701
L51044 41682
L51138 41682
L51175 41701
L51194 41719
L51213 41757
L51213 41851
L51194 41888
L51175 41907
L51138 41926
L51044 41926
L51007 41907
L50988 41888
" />
<path d="M45896 42067
L45765 41880
" />
<path d="M45671 42067
L45671 41674
L45821 41674
L45859 41692
L45877 41711
L45896 41749
L45896 41805
L45877 41842
L45859 41861
L45821 41880
L45671 41880
" />
<path d="M46027 41674
L46271 41674
L46140 41824
L46196 41824
L46233 41842
L46252 41861
L46271 41899
L46271 41992
L46252 42030
L46233 42049
L46196 42067
L46083 42067
L46046 42049
L46027 42030
" />
<path d="M46608 41805
L46608 42067
" />
<path d="M46515 41655
L46421 41936
L46665 41936
" />
<path d="M47620 45219
L47602 45238
L47545 45256
L47508 45256
L47452 45238
L47414 45200
L47395 45163
L47377 45088
L47377 45031
L47395 44956
L47414 44919
L47452 44881
L47508 44863
L47545 44863
L47602 44881
L47620 44900
" />
<path d="M47958 44994
L47958 45256
" />
<path d="M47864 44844
L47770 45125
L48014 45125
" />
<path d="M48145 44900
L48164 44881
L48202 44863
L48295 44863
L48333 44881
L48352 44900
L48370 44938
L48370 44975
L48352 45031
L48127 45256
L48370 45256
" />
<path d="M44471 39556
L44490 39574
L44508 39631
L44508 39668
L44490 39724
L44452 39762
L44415 39781
L44340 39799
L44283 39799
L44208 39781
L44171 39762
L44133 39724
L44115 39668
L44115 39631
L44133 39574
L44152 39556
" />
<path d="M44246 39218
L44508 39218
" />
<path d="M44096 39312
L44377 39406
L44377 39162
" />
<path d="M44508 38806
L44508 39031
" />
<path d="M44508 38918
L44115 38918
L44171 38956
L44208 38993
L44227 39031
" />
<path d="M52644 40089
L52625 40108
L52569 40126
L52532 40126
L52475 40108
L52438 40070
L52419 40033
L52400 39958
L52400 39901
L52419 39826
L52438 39789
L52475 39751
L52532 39733
L52569 39733
L52625 39751
L52644 39770
" />
<path d="M52982 39864
L52982 40126
" />
<path d="M52888 39714
L52794 39995
L53038 39995
" />
<path d="M53263 39733
L53300 39733
L53338 39751
L53356 39770
L53375 39808
L53394 39883
L53394 39976
L53375 40051
L53356 40089
L53338 40108
L53300 40126
L53263 40126
L53225 40108
L53206 40089
L53188 40051
L53169 39976
L53169 39883
L53188 39808
L53206 39770
L53225 39751
L53263 39733
" />
<path d="M44640 41016
L44659 41035
L44678 41091
L44678 41129
L44659 41185
L44621 41223
L44584 41241
L44509 41260
L44453 41260
L44378 41241
L44340 41223
L44303 41185
L44284 41129
L44284 41091
L44303 41035
L44321 41016
" />
<path d="M44284 40885
L44284 40641
L44434 40773
L44434 40716
L44453 40679
L44471 40660
L44509 40641
L44603 40641
L44640 40660
L44659 40679
L44678 40716
L44678 40829
L44659 40866
L44640 40885
" />
<path d="M44678 40454
L44678 40379
L44659 40341
L44640 40323
L44584 40285
L44509 40266
L44359 40266
L44321 40285
L44303 40304
L44284 40341
L44284 40416
L44303 40454
L44321 40473
L44359 40491
L44453 40491
L44490 40473
L44509 40454
L44528 40416
L44528 40341
L44509 40304
L44490 40285
L44453 40266
" />
<path d="M43124 41245
L43143 41263
L43162 41320
L43162 41357
L43143 41413
L43106 41451
L43068 41470
L42993 41488
L42937 41488
L42862 41470
L42824 41451
L42787 41413
L42768 41357
L42768 41320
L42787 41263
L42806 41245
" />
<path d="M42768 41113
L42768 40870
L42918 41001
L42918 40945
L42937 40907
L42956 40889
L42993 40870
L43087 40870
L43124 40889
L43143 40907
L43162 40945
L43162 41057
L43143 41095
L43124 41113
" />
<path d="M42937 40645
L42918 40682
L42899 40701
L42862 40720
L42843 40720
L42806 40701
L42787 40682
L42768 40645
L42768 40570
L42787 40532
L42806 40514
L42843 40495
L42862 40495
L42899 40514
L42918 40532
L42937 40570
L42937 40645
L42956 40682
L42974 40701
L43012 40720
L43087 40720
L43124 40701
L43143 40682
L43162 40645
L43162 40570
L43143 40532
L43124 40514
L43087 40495
L43012 40495
L42974 40514
L42956 40532
L42937 40570
" />
<path d="M65328 36479
L65309 36497
L65253 36516
L65215 36516
L65159 36497
L65121 36460
L65103 36422
L65084 36347
L65084 36291
L65103 36216
L65121 36179
L65159 36141
L65215 36122
L65253 36122
L65309 36141
L65328 36160
" />
<path d="M65553 36291
L65515 36272
L65496 36254
L65478 36216
L65478 36197
L65496 36160
L65515 36141
L65553 36122
L65628 36122
L65665 36141
L65684 36160
L65703 36197
L65703 36216
L65684 36254
L65665 36272
L65628 36291
L65553 36291
L65515 36310
L65496 36329
L65478 36366
L65478 36441
L65496 36479
L65515 36497
L65553 36516
L65628 36516
L65665 36497
L65684 36479
L65703 36441
L65703 36366
L65684 36329
L65665 36310
L65628 36291
" />
<path d="M43306 23174
L43306 23305
" />
<path d="M43512 23305
L43119 23305
L43119 23118
" />
<path d="M43512 22762
L43512 22987
" />
<path d="M43512 22874
L43119 22874
L43175 22912
L43212 22949
L43231 22987
" />
<path d="M48227 23257
L48227 23388
" />
<path d="M48434 23388
L48040 23388
L48040 23200
" />
<path d="M48077 23069
L48059 23050
L48040 23013
L48040 22919
L48059 22882
L48077 22863
L48115 22844
L48152 22844
L48209 22863
L48434 23088
L48434 22844
" />
<path d="M57940 23233
L57940 23364
" />
<path d="M58146 23364
L57752 23364
L57752 23177
" />
<path d="M57752 23064
L57752 22821
L57902 22952
L57902 22896
L57921 22858
L57940 22839
L57977 22821
L58071 22821
L58109 22839
L58127 22858
L58146 22896
L58146 23008
L58127 23046
L58109 23064
" />
<path d="M52999 23241
L52999 23372
" />
<path d="M53205 23372
L52811 23372
L52811 23185
" />
<path d="M52943 22866
L53205 22866
" />
<path d="M52793 22960
L53074 23053
L53074 22810
" />
<path d="M41770 27416
L41639 27416
" />
<path d="M41639 27622
L41639 27229
L41826 27229
" />
<path d="M41939 27229
L42201 27229
L42032 27622
" />
<path d="M71338 21406
L71338 21538
" />
<path d="M71544 21538
L71150 21538
L71150 21350
" />
<path d="M71150 21031
L71150 21106
L71169 21144
L71188 21163
L71244 21200
L71319 21219
L71469 21219
L71506 21200
L71525 21181
L71544 21144
L71544 21069
L71525 21031
L71506 21013
L71469 20994
L71375 20994
L71338 21013
L71319 21031
L71300 21069
L71300 21144
L71319 21181
L71338 21200
L71375 21219
" />
<path d="M62168 34018
L62186 34037
L62205 34093
L62205 34130
L62186 34187
L62149 34224
L62111 34243
L62036 34262
L61980 34262
L61905 34243
L61868 34224
L61830 34187
L61811 34130
L61811 34093
L61830 34037
L61849 34018
" />
<path d="M62205 33830
L62205 33755
L62186 33718
L62168 33699
L62111 33662
L62036 33643
L61886 33643
L61849 33662
L61830 33680
L61811 33718
L61811 33793
L61830 33830
L61849 33849
L61886 33868
L61980 33868
L62018 33849
L62036 33830
L62055 33793
L62055 33718
L62036 33680
L62018 33662
L61980 33643
" />
<path d="M59951 30034
L59932 30053
L59876 30071
L59839 30071
L59782 30053
L59745 30015
L59726 29978
L59707 29903
L59707 29846
L59726 29771
L59745 29734
L59782 29696
L59839 29678
L59876 29678
L59932 29696
L59951 29715
" />
<path d="M60326 30071
L60101 30071
" />
<path d="M60214 30071
L60214 29678
L60176 29734
L60139 29771
L60101 29790
" />
<path d="M60476 29715
L60495 29696
L60532 29678
L60626 29678
L60664 29696
L60682 29715
L60701 29753
L60701 29790
L60682 29846
L60457 30071
L60701 30071
" />
<path d="M56510 28831
L56529 28850
L56548 28906
L56548 28944
L56529 29000
L56491 29038
L56454 29056
L56379 29075
L56323 29075
L56248 29056
L56210 29038
L56173 29000
L56154 28944
L56154 28906
L56173 28850
L56191 28831
" />
<path d="M56548 28456
L56548 28681
" />
<path d="M56548 28569
L56154 28569
L56210 28606
L56248 28644
L56266 28681
" />
<path d="M56154 28325
L56154 28063
L56548 28231
" />
<path d="M59107 31623
L58919 31754
" />
<path d="M59107 31848
L58713 31848
L58713 31698
L58732 31660
L58751 31641
L58788 31623
L58844 31623
L58882 31641
L58901 31660
L58919 31698
L58919 31848
" />
<path d="M59107 31248
L59107 31473
" />
<path d="M59107 31360
L58713 31360
L58769 31398
L58807 31435
L58826 31473
" />
<path d="M59107 31060
L59107 30985
L59088 30948
L59069 30929
L59013 30892
L58938 30873
L58788 30873
L58751 30892
L58732 30910
L58713 30948
L58713 31023
L58732 31060
L58751 31079
L58788 31098
L58882 31098
L58919 31079
L58938 31060
L58957 31023
L58957 30948
L58938 30910
L58919 30892
L58882 30873
" />
<path d="M65701 34522
L65701 34709
L65308 34709
" />
<path d="M65701 34184
L65701 34409
" />
<path d="M65701 34297
L65308 34297
L65364 34334
L65401 34372
L65420 34409
" />
<path d="M61195 31638
L61064 31451
" />
<path d="M60970 31638
L60970 31245
L61120 31245
L61158 31263
L61176 31282
L61195 31320
L61195 31376
L61176 31413
L61158 31432
L61120 31451
L60970 31451
" />
<path d="M61570 31638
L61345 31638
" />
<path d="M61458 31638
L61458 31245
L61420 31301
L61383 31338
L61345 31357
" />
<path d="M61701 31245
L61945 31245
L61814 31395
L61870 31395
L61908 31413
L61926 31432
L61945 31470
L61945 31563
L61926 31601
L61908 31619
L61870 31638
L61758 31638
L61720 31619
L61701 31601
" />
<path d="M55111 36150
L54923 36281
" />
<path d="M55111 36375
L54717 36375
L54717 36225
L54736 36188
L54754 36169
L54792 36150
L54848 36150
L54886 36169
L54904 36188
L54923 36225
L54923 36375
" />
<path d="M54848 35813
L55111 35813
" />
<path d="M54698 35907
L54979 36000
L54979 35757
" />
<path d="M54717 35532
L54717 35494
L54736 35457
L54754 35438
L54792 35419
L54867 35400
L54961 35400
L55036 35419
L55073 35438
L55092 35457
L55111 35494
L55111 35532
L55092 35569
L55073 35588
L55036 35607
L54961 35625
L54867 35625
L54792 35607
L54754 35588
L54736 35569
L54717 35532
" />
<path d="M54843 34457
L54655 34589
" />
<path d="M54843 34682
L54449 34682
L54449 34532
L54468 34495
L54487 34476
L54524 34457
L54580 34457
L54618 34476
L54637 34495
L54655 34532
L54655 34682
" />
<path d="M54580 34120
L54843 34120
" />
<path d="M54431 34214
L54712 34307
L54712 34064
" />
<path d="M54487 33932
L54468 33914
L54449 33876
L54449 33782
L54468 33745
L54487 33726
L54524 33707
L54562 33707
L54618 33726
L54843 33951
L54843 33707
" />
<path d="M47227 32831
L47245 32850
L47264 32906
L47264 32944
L47245 33000
L47208 33038
L47170 33056
L47095 33075
L47039 33075
L46964 33056
L46927 33038
L46889 33000
L46871 32944
L46871 32906
L46889 32850
L46908 32831
" />
<path d="M46871 32700
L46871 32456
L47020 32588
L47020 32531
L47039 32494
L47058 32475
L47095 32456
L47189 32456
L47227 32475
L47245 32494
L47264 32531
L47264 32644
L47245 32681
L47227 32700
" />
<path d="M46871 32213
L46871 32175
L46889 32138
L46908 32119
L46946 32100
L47020 32081
L47114 32081
L47189 32100
L47227 32119
L47245 32138
L47264 32175
L47264 32213
L47245 32250
L47227 32269
L47189 32288
L47114 32306
L47020 32306
L46946 32288
L46908 32269
L46889 32250
L46871 32213
" />
<path d="M38453 19737
L38265 19737
L38265 19343
" />
<path d="M38584 19530
L38715 19530
" />
<path d="M38771 19737
L38584 19737
L38584 19343
L38771 19343
" />
<path d="M38940 19737
L38940 19343
L39034 19343
L39090 19362
L39128 19399
L39146 19437
L39165 19512
L39165 19568
L39146 19643
L39128 19680
L39090 19718
L39034 19737
L38940 19737
" />
<path d="M39540 19737
L39315 19737
" />
<path d="M39428 19737
L39428 19343
L39390 19399
L39353 19437
L39315 19455
" />
<path d="M43413 19756
L43226 19756
L43226 19363
" />
<path d="M43544 19550
L43676 19550
" />
<path d="M43732 19756
L43544 19756
L43544 19363
L43732 19363
" />
<path d="M43901 19756
L43901 19363
L43994 19363
L44051 19381
L44088 19419
L44107 19456
L44126 19531
L44126 19588
L44107 19663
L44088 19700
L44051 19738
L43994 19756
L43901 19756
" />
<path d="M44276 19400
L44294 19381
L44332 19363
L44426 19363
L44463 19381
L44482 19400
L44501 19438
L44501 19475
L44482 19531
L44257 19756
L44501 19756
" />
<path d="M48291 19760
L48104 19760
L48104 19367
" />
<path d="M48422 19554
L48554 19554
" />
<path d="M48610 19760
L48422 19760
L48422 19367
L48610 19367
" />
<path d="M48779 19760
L48779 19367
L48872 19367
L48929 19385
L48966 19423
L48985 19460
L49004 19535
L49004 19592
L48985 19667
L48966 19704
L48929 19742
L48872 19760
L48779 19760
" />
<path d="M49135 19367
L49379 19367
L49247 19517
L49304 19517
L49341 19535
L49360 19554
L49379 19592
L49379 19685
L49360 19723
L49341 19742
L49304 19760
L49191 19760
L49154 19742
L49135 19723
" />
<path d="M53142 19768
L52954 19768
L52954 19374
" />
<path d="M53273 19562
L53404 19562
" />
<path d="M53460 19768
L53273 19768
L53273 19374
L53460 19374
" />
<path d="M53629 19768
L53629 19374
L53723 19374
L53779 19393
L53817 19431
L53835 19468
L53854 19543
L53854 19599
L53835 19674
L53817 19712
L53779 19749
L53723 19768
L53629 19768
" />
<path d="M54191 19506
L54191 19768
" />
<path d="M54098 19356
L54004 19637
L54248 19637
" />
<path d="M47305 31217
L47324 31236
L47343 31292
L47343 31330
L47324 31386
L47287 31423
L47249 31442
L47174 31461
L47118 31461
L47043 31442
L47005 31423
L46968 31386
L46949 31330
L46949 31292
L46968 31236
L46987 31217
" />
<path d="M46987 31067
L46968 31048
L46949 31011
L46949 30917
L46968 30880
L46987 30861
L47024 30842
L47062 30842
L47118 30861
L47343 31086
L47343 30842
" />
<path d="M47118 30617
L47099 30655
L47080 30673
L47043 30692
L47024 30692
L46987 30673
L46968 30655
L46949 30617
L46949 30542
L46968 30505
L46987 30486
L47024 30467
L47043 30467
L47080 30486
L47099 30505
L47118 30542
L47118 30617
L47137 30655
L47155 30673
L47193 30692
L47268 30692
L47305 30673
L47324 30655
L47343 30617
L47343 30542
L47324 30505
L47305 30486
L47268 30467
L47193 30467
L47155 30486
L47137 30505
L47118 30542
" />
<path d="M40624 20709
L40643 20728
L40662 20784
L40662 20822
L40643 20878
L40606 20916
L40568 20934
L40493 20953
L40437 20953
L40362 20934
L40324 20916
L40287 20878
L40268 20822
L40268 20784
L40287 20728
L40306 20709
" />
<path d="M40662 20334
L40662 20559
" />
<path d="M40662 20447
L40268 20447
L40324 20484
L40362 20522
L40381 20559
" />
<path d="M40437 20109
L40418 20147
L40399 20166
L40362 20184
L40343 20184
L40306 20166
L40287 20147
L40268 20109
L40268 20034
L40287 19997
L40306 19978
L40343 19959
L40362 19959
L40399 19978
L40418 19997
L40437 20034
L40437 20109
L40456 20147
L40474 20166
L40512 20184
L40587 20184
L40624 20166
L40643 20147
L40662 20109
L40662 20034
L40643 19997
L40624 19978
L40587 19959
L40512 19959
L40474 19978
L40456 19997
L40437 20034
" />
<path d="M45542 20760
L45560 20779
L45579 20835
L45579 20873
L45560 20929
L45523 20967
L45485 20985
L45410 21004
L45354 21004
L45279 20985
L45242 20967
L45204 20929
L45185 20873
L45185 20835
L45204 20779
L45223 20760
" />
<path d="M45579 20386
L45579 20610
" />
<path d="M45579 20498
L45185 20498
L45242 20535
L45279 20573
L45298 20610
" />
<path d="M45579 20198
L45579 20123
L45560 20086
L45542 20067
L45485 20029
L45410 20011
L45260 20011
L45223 20029
L45204 20048
L45185 20086
L45185 20161
L45204 20198
L45223 20217
L45260 20236
L45354 20236
L45392 20217
L45410 20198
L45429 20161
L45429 20086
L45410 20048
L45392 20029
L45354 20011
" />
<path d="M55250 20772
L55269 20791
L55288 20847
L55288 20885
L55269 20941
L55232 20979
L55194 20997
L55119 21016
L55063 21016
L54988 20997
L54950 20979
L54913 20941
L54894 20885
L54894 20847
L54913 20791
L54932 20772
" />
<path d="M54932 20622
L54913 20604
L54894 20566
L54894 20472
L54913 20435
L54932 20416
L54969 20397
L55007 20397
L55063 20416
L55288 20641
L55288 20397
" />
<path d="M54894 20154
L54894 20116
L54913 20079
L54932 20060
L54969 20041
L55044 20022
L55138 20022
L55213 20041
L55250 20060
L55269 20079
L55288 20116
L55288 20154
L55269 20191
L55250 20210
L55213 20229
L55138 20247
L55044 20247
L54969 20229
L54932 20210
L54913 20191
L54894 20154
" />
<path d="M50380 20627
L50399 20645
L50418 20702
L50418 20739
L50399 20795
L50362 20833
L50324 20852
L50249 20870
L50193 20870
L50118 20852
L50080 20833
L50043 20795
L50024 20739
L50024 20702
L50043 20645
L50062 20627
" />
<path d="M50062 20477
L50043 20458
L50024 20420
L50024 20327
L50043 20289
L50062 20270
L50099 20252
L50137 20252
L50193 20270
L50418 20495
L50418 20252
" />
<path d="M50418 19877
L50418 20102
" />
<path d="M50418 19989
L50024 19989
L50080 20027
L50118 20064
L50137 20102
" />
<path d="M70404 22178
L70423 22197
L70441 22253
L70441 22290
L70423 22347
L70385 22384
L70348 22403
L70273 22422
L70216 22422
L70141 22403
L70104 22384
L70066 22347
L70048 22290
L70048 22253
L70066 22197
L70085 22178
" />
<path d="M70085 22028
L70066 22009
L70048 21972
L70048 21878
L70066 21840
L70085 21822
L70123 21803
L70160 21803
L70216 21822
L70441 22047
L70441 21803
" />
<path d="M70048 21672
L70048 21428
L70198 21559
L70198 21503
L70216 21465
L70235 21447
L70273 21428
L70366 21428
L70404 21447
L70423 21465
L70441 21503
L70441 21615
L70423 21653
L70404 21672
" />
<path d="M51939 26242
L51921 26261
L51864 26280
L51827 26280
L51771 26261
L51733 26224
L51714 26186
L51696 26111
L51696 26055
L51714 25980
L51733 25943
L51771 25905
L51827 25886
L51864 25886
L51921 25905
L51939 25924
" />
<path d="M52089 25924
L52108 25905
L52146 25886
L52239 25886
L52277 25905
L52296 25924
L52314 25961
L52314 25999
L52296 26055
L52071 26280
L52314 26280
" />
<path d="M52652 25886
L52577 25886
L52539 25905
L52520 25924
L52483 25980
L52464 26055
L52464 26205
L52483 26242
L52502 26261
L52539 26280
L52614 26280
L52652 26261
L52670 26242
L52689 26205
L52689 26111
L52670 26074
L52652 26055
L52614 26036
L52539 26036
L52502 26055
L52483 26074
L52464 26111
" />
<path d="M51896 28648
L51877 28667
L51821 28685
L51784 28685
L51727 28667
L51690 28629
L51671 28592
L51652 28517
L51652 28461
L51671 28386
L51690 28348
L51727 28311
L51784 28292
L51821 28292
L51877 28311
L51896 28329
" />
<path d="M52046 28329
L52065 28311
L52102 28292
L52196 28292
L52233 28311
L52252 28329
L52271 28367
L52271 28404
L52252 28461
L52027 28685
L52271 28685
" />
<path d="M52402 28292
L52665 28292
L52496 28685
" />
<path d="M50337 30589
L50318 30608
L50262 30626
L50224 30626
L50168 30608
L50131 30570
L50112 30533
L50093 30458
L50093 30401
L50112 30326
L50131 30289
L50168 30251
L50224 30233
L50262 30233
L50318 30251
L50337 30270
" />
<path d="M50487 30270
L50506 30251
L50543 30233
L50637 30233
L50674 30251
L50693 30270
L50712 30308
L50712 30345
L50693 30401
L50468 30626
L50712 30626
" />
<path d="M50899 30626
L50974 30626
L51012 30608
L51031 30589
L51068 30533
L51087 30458
L51087 30308
L51068 30270
L51049 30251
L51012 30233
L50937 30233
L50899 30251
L50881 30270
L50862 30308
L50862 30401
L50881 30439
L50899 30458
L50937 30476
L51012 30476
L51049 30458
L51068 30439
L51087 30401
" />
<path d="M39288 25061
L39100 25192
" />
<path d="M39288 25286
L38894 25286
L38894 25136
L38913 25099
L38932 25080
L38969 25061
L39025 25061
L39063 25080
L39082 25099
L39100 25136
L39100 25286
" />
<path d="M38932 24911
L38913 24893
L38894 24855
L38894 24761
L38913 24724
L38932 24705
L38969 24686
L39007 24686
L39063 24705
L39288 24930
L39288 24686
" />
<path d="M38932 24536
L38913 24518
L38894 24480
L38894 24386
L38913 24349
L38932 24330
L38969 24311
L39007 24311
L39063 24330
L39288 24555
L39288 24311
" />
<path d="M51975 31528
L51844 31341
" />
<path d="M51750 31528
L51750 31134
L51900 31134
L51937 31153
L51956 31172
L51975 31209
L51975 31266
L51956 31303
L51937 31322
L51900 31341
L51750 31341
" />
<path d="M52125 31172
L52143 31153
L52181 31134
L52275 31134
L52312 31153
L52331 31172
L52350 31209
L52350 31247
L52331 31303
L52106 31528
L52350 31528
" />
<path d="M52481 31134
L52725 31134
L52593 31284
L52650 31284
L52687 31303
L52706 31322
L52725 31359
L52725 31453
L52706 31491
L52687 31509
L52650 31528
L52537 31528
L52500 31509
L52481 31491
" />
<path d="M52067 33359
L51880 33490
" />
<path d="M52067 33584
L51674 33584
L51674 33434
L51692 33396
L51711 33378
L51749 33359
L51805 33359
L51842 33378
L51861 33396
L51880 33434
L51880 33584
" />
<path d="M51711 33209
L51692 33190
L51674 33153
L51674 33059
L51692 33021
L51711 33003
L51749 32984
L51786 32984
L51842 33003
L52067 33228
L52067 32984
" />
<path d="M51805 32646
L52067 32646
" />
<path d="M51655 32740
L51936 32834
L51936 32590
" />
<path d="M38575 24497
L38388 24628
" />
<path d="M38575 24722
L38182 24722
L38182 24572
L38200 24534
L38219 24515
L38257 24497
L38313 24497
L38350 24515
L38369 24534
L38388 24572
L38388 24722
" />
<path d="M38219 24347
L38200 24328
L38182 24290
L38182 24197
L38200 24159
L38219 24140
L38257 24122
L38294 24122
L38350 24140
L38575 24365
L38575 24122
" />
<path d="M38182 23766
L38182 23953
L38369 23972
L38350 23953
L38332 23916
L38332 23822
L38350 23784
L38369 23766
L38407 23747
L38500 23747
L38538 23766
L38556 23784
L38575 23822
L38575 23916
L38556 23953
L38538 23972
" />
<path d="M52642 29910
L52455 30041
" />
<path d="M52642 30135
L52248 30135
L52248 29985
L52267 29948
L52286 29929
L52323 29910
L52380 29910
L52417 29929
L52436 29948
L52455 29985
L52455 30135
" />
<path d="M52286 29760
L52267 29741
L52248 29704
L52248 29610
L52267 29573
L52286 29554
L52323 29535
L52361 29535
L52417 29554
L52642 29779
L52642 29535
" />
<path d="M52248 29198
L52248 29273
L52267 29310
L52286 29329
L52342 29366
L52417 29385
L52567 29385
L52605 29366
L52623 29348
L52642 29310
L52642 29235
L52623 29198
L52605 29179
L52567 29160
L52473 29160
L52436 29179
L52417 29198
L52398 29235
L52398 29310
L52417 29348
L52436 29366
L52473 29385
" />
<path d="M50374 32839
L50187 32970
" />
<path d="M50374 33064
L49981 33064
L49981 32914
L50000 32877
L50018 32858
L50056 32839
L50112 32839
L50149 32858
L50168 32877
L50187 32914
L50187 33064
" />
<path d="M50018 32689
L50000 32670
L49981 32633
L49981 32539
L50000 32502
L50018 32483
L50056 32464
L50093 32464
L50149 32483
L50374 32708
L50374 32464
" />
<path d="M49981 32333
L49981 32071
L50374 32239
" />
<path d="M45089 30642
L44958 30455
" />
<path d="M44864 30642
L44864 30248
L45014 30248
L45051 30267
L45070 30286
L45089 30323
L45089 30380
L45070 30417
L45051 30436
L45014 30455
L44864 30455
" />
<path d="M45239 30286
L45258 30267
L45295 30248
L45389 30248
L45426 30267
L45445 30286
L45464 30323
L45464 30361
L45445 30417
L45220 30642
L45464 30642
" />
<path d="M45689 30417
L45651 30398
L45633 30380
L45614 30342
L45614 30323
L45633 30286
L45651 30267
L45689 30248
L45764 30248
L45801 30267
L45820 30286
L45839 30323
L45839 30342
L45820 30380
L45801 30398
L45764 30417
L45689 30417
L45651 30436
L45633 30455
L45614 30492
L45614 30567
L45633 30605
L45651 30623
L45689 30642
L45764 30642
L45801 30623
L45820 30605
L45839 30567
L45839 30492
L45820 30455
L45801 30436
L45764 30417
" />
<path d="M45337 26973
L45206 26785
" />
<path d="M45112 26973
L45112 26579
L45262 26579
L45299 26598
L45318 26617
L45337 26654
L45337 26710
L45318 26748
L45299 26767
L45262 26785
L45112 26785
" />
<path d="M45487 26617
L45506 26598
L45543 26579
L45637 26579
L45674 26598
L45693 26617
L45712 26654
L45712 26692
L45693 26748
L45468 26973
L45712 26973
" />
<path d="M45899 26973
L45974 26973
L46012 26954
L46031 26935
L46068 26879
L46087 26804
L46087 26654
L46068 26617
L46049 26598
L46012 26579
L45937 26579
L45899 26598
L45881 26617
L45862 26654
L45862 26748
L45881 26785
L45899 26804
L45937 26823
L46012 26823
L46049 26804
L46068 26785
L46087 26748
" />
<path d="M48833 43130
L48702 42943
" />
<path d="M48608 43130
L48608 42737
L48758 42737
L48796 42755
L48814 42774
L48833 42812
L48833 42868
L48814 42905
L48796 42924
L48758 42943
L48608 42943
" />
<path d="M48964 42737
L49208 42737
L49077 42887
L49133 42887
L49170 42905
L49189 42924
L49208 42962
L49208 43055
L49189 43093
L49170 43112
L49133 43130
L49020 43130
L48983 43112
L48964 43093
" />
<path d="M49545 42737
L49470 42737
L49433 42755
L49414 42774
L49377 42830
L49358 42905
L49358 43055
L49377 43093
L49395 43112
L49433 43130
L49508 43130
L49545 43112
L49564 43093
L49583 43055
L49583 42962
L49564 42924
L49545 42905
L49508 42887
L49433 42887
L49395 42905
L49377 42924
L49358 42962
" />
<path d="M48912 42107
L48781 41919
" />
<path d="M48687 42107
L48687 41713
L48837 41713
L48874 41732
L48893 41751
L48912 41788
L48912 41844
L48893 41882
L48874 41901
L48837 41919
L48687 41919
" />
<path d="M49043 41713
L49287 41713
L49155 41863
L49212 41863
L49249 41882
L49268 41901
L49287 41938
L49287 42032
L49268 42069
L49249 42088
L49212 42107
L49099 42107
L49062 42088
L49043 42069
" />
<path d="M49418 41713
L49680 41713
L49512 42107
" />
<path d="M40778 37493
L40647 37305
" />
<path d="M40553 37493
L40553 37099
L40703 37099
L40740 37118
L40759 37136
L40778 37174
L40778 37230
L40759 37268
L40740 37286
L40703 37305
L40553 37305
" />
<path d="M40909 37099
L41153 37099
L41022 37249
L41078 37249
L41115 37268
L41134 37286
L41153 37324
L41153 37418
L41134 37455
L41115 37474
L41078 37493
L40965 37493
L40928 37474
L40909 37455
" />
<path d="M41378 37268
L41340 37249
L41322 37230
L41303 37193
L41303 37174
L41322 37136
L41340 37118
L41378 37099
L41453 37099
L41490 37118
L41509 37136
L41528 37174
L41528 37193
L41509 37230
L41490 37249
L41453 37268
L41378 37268
L41340 37286
L41322 37305
L41303 37343
L41303 37418
L41322 37455
L41340 37474
L41378 37493
L41453 37493
L41490 37474
L41509 37455
L41528 37418
L41528 37343
L41509 37305
L41490 37286
L41453 37268
" />
<path d="M48772 34115
L48585 34246
" />
<path d="M48772 34340
L48378 34340
L48378 34190
L48397 34152
L48416 34134
L48453 34115
L48510 34115
L48547 34134
L48566 34152
L48585 34190
L48585 34340
" />
<path d="M48510 33777
L48772 33777
" />
<path d="M48360 33871
L48641 33965
L48641 33721
" />
<path d="M48510 33402
L48772 33402
" />
<path d="M48360 33496
L48641 33590
L48641 33346
" />
<path d="M43880 28918
L43749 28730
" />
<path d="M43655 28918
L43655 28524
L43805 28524
L43843 28543
L43862 28562
L43880 28599
L43880 28655
L43862 28693
L43843 28712
L43805 28730
L43655 28730
" />
<path d="M44218 28655
L44218 28918
" />
<path d="M44124 28505
L44030 28787
L44274 28787
" />
<path d="M44611 28524
L44424 28524
L44405 28712
L44424 28693
L44461 28674
L44555 28674
L44593 28693
L44611 28712
L44630 28749
L44630 28843
L44611 28880
L44593 28899
L44555 28918
L44461 28918
L44424 28899
L44405 28880
" />
<path d="M61966 24873
L61928 24854
L61891 24816
L61835 24760
L61797 24741
L61760 24741
" />
<path d="M61778 24835
L61741 24816
L61703 24779
L61685 24704
L61685 24573
L61703 24498
L61741 24460
L61778 24441
L61853 24441
L61891 24460
L61928 24498
L61947 24573
L61947 24704
L61928 24779
L61891 24816
L61853 24835
L61778 24835
" />
<path d="M62078 24441
L62341 24441
L62172 24835
" />
<path d="M58990 23605
L58952 23586
L58915 23549
L58858 23492
L58821 23474
L58783 23474
" />
<path d="M58802 23567
L58765 23549
L58727 23511
L58708 23436
L58708 23305
L58727 23230
L58765 23192
L58802 23174
L58877 23174
L58915 23192
L58952 23230
L58971 23305
L58971 23436
L58952 23511
L58915 23549
L58877 23567
L58802 23567
" />
<path d="M59158 23567
L59233 23567
L59271 23549
L59290 23530
L59327 23474
L59346 23399
L59346 23249
L59327 23211
L59308 23192
L59271 23174
L59196 23174
L59158 23192
L59140 23211
L59121 23249
L59121 23342
L59140 23380
L59158 23399
L59196 23417
L59271 23417
L59308 23399
L59327 23380
L59346 23342
" />
<path d="M58119 33973
L57931 34104
" />
<path d="M58119 34198
L57725 34198
L57725 34048
L57744 34011
L57762 33992
L57800 33973
L57856 33973
L57894 33992
L57912 34011
L57931 34048
L57931 34198
" />
<path d="M57725 33842
L57725 33598
L57875 33729
L57875 33673
L57894 33636
L57912 33617
L57950 33598
L58044 33598
L58081 33617
L58100 33636
L58119 33673
L58119 33786
L58100 33823
L58081 33842
" />
<path d="M57725 33354
L57725 33317
L57744 33279
L57762 33261
L57800 33242
L57875 33223
L57969 33223
L58044 33242
L58081 33261
L58100 33279
L58119 33317
L58119 33354
L58100 33392
L58081 33411
L58044 33429
L57969 33448
L57875 33448
L57800 33429
L57762 33411
L57744 33392
L57725 33354
" />
<path d="M56461 33396
L56067 33396
L56067 33303
L56086 33246
L56124 33209
L56161 33190
L56236 33171
L56292 33171
L56367 33190
L56405 33209
L56442 33246
L56461 33303
L56461 33396
" />
<path d="M56105 33021
L56086 33003
L56067 32965
L56067 32871
L56086 32834
L56105 32815
L56142 32796
L56180 32796
L56236 32815
L56461 33040
L56461 32796
" />
<path d="M72203 34335
L72222 34354
L72241 34410
L72241 34448
L72222 34504
L72184 34541
L72147 34560
L72072 34579
L72016 34579
L71941 34560
L71903 34541
L71866 34504
L71847 34448
L71847 34410
L71866 34354
L71884 34335
" />
<path d="M71978 33998
L72241 33998
" />
<path d="M71828 34092
L72109 34185
L72109 33942
" />
<path d="M71978 33623
L72241 33623
" />
<path d="M71828 33717
L72109 33810
L72109 33567
" />
<path d="M41593 40028
L41612 40047
L41630 40103
L41630 40141
L41612 40197
L41574 40234
L41537 40253
L41462 40272
L41405 40272
L41330 40253
L41293 40234
L41255 40197
L41237 40141
L41237 40103
L41255 40047
L41274 40028
" />
<path d="M41237 39897
L41237 39653
L41387 39784
L41387 39728
L41405 39691
L41424 39672
L41462 39653
L41555 39653
L41593 39672
L41612 39691
L41630 39728
L41630 39841
L41612 39878
L41593 39897
" />
<path d="M41237 39522
L41237 39260
L41630 39428
" />
<path d="M56810 40967
L56810 40993
L56783 41046
L56757 41073
L56704 41099
L56651 41099
L56611 41086
L56545 41046
L56505 41007
L56465 40940
L56452 40901
L56452 40848
L56478 40795
L56505 40768
L56558 40742
L56584 40742
" />
<path d="M56651 40622
L56823 40450
L56836 40649
L56876 40609
L56916 40596
L56942 40596
L56982 40609
L57048 40675
L57062 40715
L57062 40742
L57048 40781
L56969 40861
L56929 40874
L56903 40874
" />
<path d="M56956 40370
L56956 40344
L56969 40304
L57035 40238
L57075 40224
L57101 40224
L57141 40238
L57168 40264
L57194 40317
L57194 40635
L57367 40463
" />
<path d="M59369 42313
L59369 42340
L59342 42393
L59316 42419
L59263 42446
L59210 42446
L59170 42433
L59104 42393
L59064 42353
L59024 42287
L59011 42247
L59011 42194
L59037 42141
L59064 42114
L59117 42088
L59143 42088
" />
<path d="M59210 41969
L59382 41796
L59395 41995
L59435 41955
L59475 41942
L59501 41942
L59541 41955
L59607 42022
L59621 42061
L59621 42088
L59607 42128
L59528 42207
L59488 42221
L59462 42221
" />
<path d="M59475 41704
L59647 41531
L59660 41730
L59700 41690
L59740 41677
L59766 41677
L59806 41690
L59873 41757
L59886 41796
L59886 41823
L59873 41863
L59793 41942
L59753 41955
L59727 41955
" />
<path d="M56683 41582
L56816 41715
" />
<path d="M56445 41529
L56683 41582
L56630 41344
" />
<path d="M56736 41290
L56736 41264
L56749 41224
L56816 41158
L56855 41145
L56882 41145
L56922 41158
L56948 41184
L56975 41237
L56975 41556
L57147 41383
" />
</g>
<g style="fill:#008484; fill-opacity:0.0; 
stroke:#008484; stroke-width:59.0551; stroke-opacity:1; 
stroke-linecap:round; stroke-linejoin:round;">
<path d="M58720 27450
L57933 27450
" />
<path d="M57933 26604
L58720 26604
" />
<circle cx="72929.1" cy="31633.9" r="295.276" /> 
<path d="M73362 32283
L73480 32283
" />
<path d="M73480 32283
L73480 30984
" />
<path d="M73480 30984
L73362 30984
" />
<path d="M72496 32283
L72377 32283
" />
<path d="M72377 32283
L72377 30984
" />
<path d="M72377 30984
L72496 30984
" />
</g>
<g style="fill:#008484; fill-opacity:0.0; 
stroke:#008484; stroke-width:50; stroke-opacity:1; 
stroke-linecap:round; stroke-linejoin:round;">
<path d="M46013 44253
L46013 44332
" />
<path d="M45984 44332
L45984 44253
" />
<path d="M45984 44253
L46053 44253
" />
<path d="M46053 44253
L46053 44332
" />
<path d="M44053 42539
L44053 42696
" />
<path d="M44053 43039
L44053 43196
" />
<path d="M44053 43696
L44053 43539
" />
<path d="M44053 44196
L44053 44039
" />
<path d="M46360 42539
L46360 42696
" />
<path d="M46360 43039
L46360 43196
" />
<path d="M46360 43696
L46360 43539
" />
<path d="M46360 44196
L46360 44039
" />
<path d="M44074 42403
L46338 42403
" />
<path d="M46338 42403
L46338 44332
" />
<path d="M46338 44332
L44074 44332
" />
<path d="M44074 44332
L44074 42403
" />
</g>
<g style="fill:#008484; fill-opacity:0.0; 
stroke:#008484; stroke-width:59.0551; stroke-opacity:1; 
stroke-linecap:round; stroke-linejoin:round;">
<path d="M56746 39223
L57080 38889
" />
<path d="M57567 39376
L57233 39710
" />
<path d="M65074 22137
L65074 21744
" />
<path d="M64405 21744
L64405 22137
" />
<path d="M56862 36988
L57050 37176
" />
<path d="M59744 34106
L59932 34294
" />
<path d="M62625 36988
L62437 36800
" />
<path d="M59744 39869
L59556 39681
" />
<path d="M56862 36988
L57050 36800
" />
<path d="M59744 39869
L59932 39681
" />
<path d="M62625 36988
L62437 37176
" />
<path d="M59744 34106
L59556 34294
" />
<path d="M57050 37176
L56695 37531
" />
<path d="M57559 30118
L57952 30118
" />
<path d="M57952 29448
L57559 29448
" />
<circle cx="57657.5" cy="28681.1" r="39.3701" /> 
<path d="M57755 28464
L57755 28661
" />
<path d="M58897 28464
L57755 28464
" />
<path d="M58897 28661
L58897 28464
" />
<path d="M57755 28661
L58897 28661
" />
<circle cx="61366.1" cy="28736.2" r="39.3701" /> 
<path d="M61464 28519
L61464 28716
" />
<path d="M62606 28519
L61464 28519
" />
<path d="M62606 28716
L62606 28519
" />
<path d="M61464 28716
L62606 28716
" />
<path d="M62872 28933
L62872 28460
" />
<path d="M63561 28460
L63561 28933
" />
<path d="M60421 28421
L60421 28814
" />
<path d="M61090 28814
L61090 28421
" />
<path d="M62448 27505
L61661 27505
" />
<path d="M61661 26659
L62448 26659
" />
<path d="M57519 30344
L57992 30344
" />
<path d="M57992 31033
L57519 31033
" />
<path d="M50364 27647
L50236 27647
" />
<path d="M50364 29478
L50236 29478
" />
<path d="M46446 29478
L46574 29478
" />
<path d="M46446 27647
L46574 27647
" />
<path d="M50364 27647
L50364 29478
" />
<path d="M46446 27647
L46446 29478
" />
<path d="M50236 27647
L50236 27224
" />
<path d="M52827 27319
L52827 31925
" />
<path d="M54795 31925
L54795 27319
" />
<path d="M52827 31925
L53161 31925
" />
<path d="M54795 31925
L54461 31925
" />
<path d="M52827 27319
L53161 27319
" />
<path d="M54795 27319
L54461 27319
" />
<path d="M46820 38631
L46820 38986
" />
<path d="M49005 38631
L49005 38986
" />
<path d="M49005 41210
L49005 40856
" />
<path d="M46820 41210
L46820 40856
" />
<path d="M46820 38631
L49005 38631
" />
<path d="M46820 41210
L49005 41210
" />
<path d="M46820 38986
L46318 38986
" />
<path d="M38681 22145
L38681 21082
" />
<path d="M38090 22145
L38090 21082
" />
<path d="M38444 21554
L38346 21554
" />
<path d="M38346 21554
L38405 21613
" />
<path d="M38248 21653
L38523 21653
" />
<path d="M38385 21515
L38385 21377
" />
<path d="M38385 21653
L38248 21515
" />
<path d="M38248 21515
L38523 21515
" />
<path d="M38523 21515
L38385 21653
" />
</g>
<g style="fill:#008484; fill-opacity:0.0; 
stroke:#008484; stroke-width:50; stroke-opacity:1; 
stroke-linecap:round; stroke-linejoin:round;">
<path d="M51328 37588
L51328 37509
" />
<path d="M51358 37509
L51358 37588
" />
<path d="M51358 37588
L51289 37588
" />
<path d="M51289 37588
L51289 37509
" />
<path d="M53289 39303
L53289 39145
" />
<path d="M53289 38803
L53289 38645
" />
<path d="M53289 38145
L53289 38303
" />
<path d="M53289 37645
L53289 37803
" />
<path d="M50982 39303
L50982 39145
" />
<path d="M50982 38803
L50982 38645
" />
<path d="M50982 38145
L50982 38303
" />
<path d="M50982 37645
L50982 37803
" />
<path d="M53267 39438
L51003 39438
" />
<path d="M51003 39438
L51003 37509
" />
<path d="M51003 37509
L53267 37509
" />
<path d="M53267 37509
L53267 39438
" />
</g>
<g style="fill:#008484; fill-opacity:0.0; 
stroke:#008484; stroke-width:59.0551; stroke-opacity:1; 
stroke-linecap:round; stroke-linejoin:round;">
<path d="M50492 40659
L50964 40659
" />
<path d="M50964 41348
L50492 41348
" />
<path d="M44685 41525
L45157 41525
" />
<path d="M45157 42214
L44685 42214
" />
<path d="M47677 44586
L48070 44586
" />
<path d="M48070 43917
L47677 43917
" />
<path d="M43976 39468
L43976 39074
" />
<path d="M43307 39074
L43307 39468
" />
<path d="M51358 40334
L51751 40334
" />
<path d="M51751 39665
L51358 39665
" />
<path d="M44842 40492
L44842 40885
" />
<path d="M45511 40885
L45511 40492
" />
<path d="M43996 41062
L43996 40669
" />
<path d="M43326 40669
L43326 41062
" />
<path d="M64370 35984
L63976 35984
" />
<path d="M63976 36653
L64370 36653
" />
<path d="M62460 33759
L62460 34153
" />
<path d="M63129 34153
L63129 33759
" />
<path d="M61287 30173
L61681 30173
" />
<path d="M61681 29503
L61287 29503
" />
<path d="M56751 28366
L56751 28759
" />
<path d="M57421 28759
L57421 28366
" />
<path d="M59285 29779
L59285 30251
" />
<path d="M58596 30251
L58596 29779
" />
<path d="M64881 35826
L64625 35826
" />
<path d="M64881 35531
L64881 35826
" />
<path d="M64881 33917
L64881 35098
" />
<path d="M63622 35098
L63622 33917
" />
<path d="M61228 30399
L61700 30399
" />
<path d="M61700 31088
L61228 31088
" />
<path d="M56033 35511
L56033 35984
" />
<path d="M55344 35984
L55344 35511
" />
<path d="M55135 34417
L55135 33944
" />
<path d="M55824 33944
L55824 34417
" />
<path d="M47598 32716
L47598 32440
" />
<path d="M48070 32440
L48070 32716
" />
<path d="M39771 19877
L40834 19877
" />
<path d="M39771 19287
L40834 19287
" />
<path d="M40361 19641
L40361 19543
" />
<path d="M40361 19543
L40302 19602
" />
<path d="M40263 19444
L40263 19720
" />
<path d="M40401 19582
L40538 19582
" />
<path d="M40263 19582
L40401 19444
" />
<path d="M40401 19444
L40401 19720
" />
<path d="M40401 19720
L40263 19582
" />
<path d="M44727 19889
L45790 19889
" />
<path d="M44727 19299
L45790 19299
" />
<path d="M45318 19653
L45318 19555
" />
<path d="M45318 19555
L45259 19614
" />
<path d="M45220 19456
L45220 19732
" />
<path d="M45357 19594
L45495 19594
" />
<path d="M45220 19594
L45357 19456
" />
<path d="M45357 19456
L45357 19732
" />
<path d="M45357 19732
L45220 19594
" />
<path d="M49614 19881
L50677 19881
" />
<path d="M49614 19291
L50677 19291
" />
<path d="M50205 19645
L50205 19547
" />
<path d="M50205 19547
L50146 19606
" />
<path d="M50106 19448
L50106 19724
" />
<path d="M50244 19586
L50382 19586
" />
<path d="M50106 19586
L50244 19448
" />
<path d="M50244 19448
L50244 19724
" />
<path d="M50244 19724
L50106 19586
" />
<path d="M54527 19881
L55590 19881
" />
<path d="M54527 19291
L55590 19291
" />
<path d="M55117 19645
L55117 19547
" />
<path d="M55117 19547
L55058 19606
" />
<path d="M55019 19448
L55019 19724
" />
<path d="M55157 19586
L55294 19586
" />
<path d="M55019 19586
L55157 19448
" />
<path d="M55157 19448
L55157 19724
" />
<path d="M55157 19724
L55019 19586
" />
<path d="M47657 30767
L47657 31161
" />
<path d="M48326 31161
L48326 30767
" />
<path d="M40807 22027
L40807 21633
" />
<path d="M40137 21633
L40137 22027
" />
<path d="M45728 22027
L45728 21633
" />
<path d="M45059 21633
L45059 22027
" />
<path d="M55452 22047
L55452 21653
" />
<path d="M54783 21653
L54783 22047
" />
<path d="M50590 22027
L50590 21633
" />
<path d="M49921 21633
L49921 22027
" />
<path d="M69771 22122
L69771 21728
" />
<path d="M69102 21728
L69102 22122
" />
<path d="M52240 26433
L51846 26433
" />
<path d="M51846 27102
L52240 27102
" />
<path d="M52236 27551
L51842 27551
" />
<path d="M51842 28220
L52236 28220
" />
<path d="M50531 29232
L50531 29625
" />
<path d="M51200 29625
L51200 29232
" />
<path d="M38001 26044
L38001 25572
" />
<path d="M38690 25572
L38690 26044
" />
<path d="M50787 30954
L51259 30954
" />
<path d="M51259 31643
L50787 31643
" />
<path d="M51446 32893
L51446 33366
" />
<path d="M50757 33366
L50757 32893
" />
<path d="M38041 23248
L38041 22775
" />
<path d="M38730 22775
L38730 23248
" />
<path d="M51387 29625
L51387 29153
" />
<path d="M52076 29153
L52076 29625
" />
<path d="M49773 32362
L49773 32834
" />
<path d="M49084 32834
L49084 32362
" />
<path d="M45570 30029
L45098 30029
" />
<path d="M45098 29340
L45570 29340
" />
<path d="M45374 27218
L45846 27218
" />
<path d="M45846 27907
L45374 27907
" />
<path d="M48110 43415
L47637 43415
" />
<path d="M47637 42726
L48110 42726
" />
<path d="M47637 41604
L48110 41604
" />
<path d="M48110 42293
L47637 42293
" />
<path d="M40767 37785
L41240 37785
" />
<path d="M41240 38474
L40767 38474
" />
<path d="M48238 32834
L48238 32362
" />
<path d="M48927 32362
L48927 32834
" />
<path d="M45551 29084
L45078 29084
" />
<path d="M45078 28395
L45551 28395
" />
<path d="M62566 25389
L62547 25389
" />
<path d="M61464 25665
L61464 25389
" />
<path d="M61464 25389
L61562 25389
" />
<path d="M62566 25389
L62645 25389
" />
<path d="M62645 25389
L62645 25665
" />
<path d="M58834 24077
L58815 24077
" />
<path d="M57732 24353
L57732 24077
" />
<path d="M57732 24077
L57830 24077
" />
<path d="M58834 24077
L58913 24077
" />
<path d="M58913 24077
L58913 24353
" />
<path d="M57368 34271
L57368 34744
" />
<path d="M56679 34744
L56679 34271
" />
<path d="M56035 33669
L56035 34417
" />
<path d="M56468 33669
L56468 34417
" />
<path d="M56251 34023
L56251 34201
" />
<path d="M56350 34004
L56153 34004
" />
<path d="M56251 34004
L56350 34102
" />
<path d="M56350 34102
L56153 34102
" />
<path d="M56153 34102
L56251 34004
" />
<path d="M72555 33885
L72555 34279
" />
<path d="M73224 34279
L73224 33885
" />
<path d="M43096 39381
L43096 40169
" />
<path d="M41935 40169
L41935 39381
" />
</g>
<g style="fill:#008484; fill-opacity:0.0; 
stroke:#008484; stroke-width:47.2441; stroke-opacity:1; 
stroke-linecap:round; stroke-linejoin:round;">
<path d="M58028 39967
L57833 40161
" />
<path d="M57499 39827
L57694 39633
" />
<path d="M58546 41733
L58741 41538
" />
<path d="M59075 41872
L58880 42067
" />
<path d="M58838 40956
L58115 40232
" />
<path d="M58115 40232
L57224 41123
" />
</g> 
</svg>
