G04 #@! TF.FileFunction,Copper,L1,Top,Signal*
%FSLAX46Y46*%
G04 Gerber Fmt 4.6, Leading zero omitted, Abs format (unit mm)*
G04 Created by KiCad (PCBNEW 4.0.1-stable) date 07.06.2016 17:51:42*
%MOMM*%
G01*
G04 APERTURE LIST*
%ADD10C,0.100000*%
%ADD11C,0.300000*%
%ADD12R,0.400000X1.100000*%
%ADD13R,1.198880X1.198880*%
%ADD14R,1.300480X1.699260*%
%ADD15R,1.200000X0.400000*%
%ADD16R,1.900000X2.000000*%
%ADD17C,1.900000*%
%ADD18R,1.000000X0.675000*%
%ADD19R,4.295000X4.510000*%
%ADD20R,1.000000X1.250000*%
%ADD21R,0.700000X1.300000*%
%ADD22R,2.000000X1.900000*%
%ADD23C,4.800600*%
%ADD24R,4.800600X4.800600*%
%ADD25R,3.599180X1.600200*%
%ADD26R,1.250000X1.000000*%
%ADD27R,1.600000X1.000000*%
%ADD28R,2.000000X1.300000*%
%ADD29R,1.250000X1.500000*%
%ADD30C,1.524000*%
%ADD31C,2.700020*%
%ADD32O,1.850000X1.850000*%
%ADD33C,0.800000*%
%ADD34R,1.500000X1.250000*%
%ADD35R,2.029460X2.651760*%
%ADD36R,2.651760X2.029460*%
%ADD37R,1.300000X0.700000*%
%ADD38R,0.650000X1.060000*%
%ADD39R,2.000000X2.000000*%
%ADD40C,2.000000*%
%ADD41R,2.500000X2.500000*%
%ADD42R,0.910000X1.220000*%
%ADD43R,1.500000X1.300000*%
%ADD44R,1.300000X1.500000*%
%ADD45C,0.600000*%
%ADD46C,0.500000*%
%ADD47C,0.450000*%
%ADD48C,0.700000*%
%ADD49C,0.350000*%
%ADD50C,0.750000*%
%ADD51C,0.600000*%
%ADD52C,0.400000*%
%ADD53C,0.254000*%
G04 APERTURE END LIST*
D10*
D11*
X134321430Y-112878571D02*
X134035716Y-112878571D01*
X133892859Y-112950000D01*
X133821430Y-113021429D01*
X133678573Y-113235714D01*
X133607144Y-113521429D01*
X133607144Y-114092857D01*
X133678573Y-114235714D01*
X133750001Y-114307143D01*
X133892859Y-114378571D01*
X134178573Y-114378571D01*
X134321430Y-114307143D01*
X134392859Y-114235714D01*
X134464287Y-114092857D01*
X134464287Y-113735714D01*
X134392859Y-113592857D01*
X134321430Y-113521429D01*
X134178573Y-113450000D01*
X133892859Y-113450000D01*
X133750001Y-113521429D01*
X133678573Y-113592857D01*
X133607144Y-113735714D01*
X136250001Y-113378571D02*
X136250001Y-114878571D01*
X136250001Y-113450000D02*
X136392858Y-113378571D01*
X136678572Y-113378571D01*
X136821429Y-113450000D01*
X136892858Y-113521429D01*
X136964287Y-113664286D01*
X136964287Y-114092857D01*
X136892858Y-114235714D01*
X136821429Y-114307143D01*
X136678572Y-114378571D01*
X136392858Y-114378571D01*
X136250001Y-114307143D01*
X137821430Y-114378571D02*
X137678572Y-114307143D01*
X137607144Y-114235714D01*
X137535715Y-114092857D01*
X137535715Y-113664286D01*
X137607144Y-113521429D01*
X137678572Y-113450000D01*
X137821430Y-113378571D01*
X138035715Y-113378571D01*
X138178572Y-113450000D01*
X138250001Y-113521429D01*
X138321430Y-113664286D01*
X138321430Y-114092857D01*
X138250001Y-114235714D01*
X138178572Y-114307143D01*
X138035715Y-114378571D01*
X137821430Y-114378571D01*
X138964287Y-114378571D02*
X138964287Y-113378571D01*
X138964287Y-113664286D02*
X139035715Y-113521429D01*
X139107144Y-113450000D01*
X139250001Y-113378571D01*
X139392858Y-113378571D01*
X139678572Y-113378571D02*
X140250001Y-113378571D01*
X139892858Y-112878571D02*
X139892858Y-114164286D01*
X139964286Y-114307143D01*
X140107144Y-114378571D01*
X140250001Y-114378571D01*
X141892858Y-112878571D02*
X141892858Y-114092857D01*
X141964286Y-114235714D01*
X142035715Y-114307143D01*
X142178572Y-114378571D01*
X142464286Y-114378571D01*
X142607144Y-114307143D01*
X142678572Y-114235714D01*
X142750001Y-114092857D01*
X142750001Y-112878571D01*
X143392858Y-114307143D02*
X143607144Y-114378571D01*
X143964287Y-114378571D01*
X144107144Y-114307143D01*
X144178573Y-114235714D01*
X144250001Y-114092857D01*
X144250001Y-113950000D01*
X144178573Y-113807143D01*
X144107144Y-113735714D01*
X143964287Y-113664286D01*
X143678573Y-113592857D01*
X143535715Y-113521429D01*
X143464287Y-113450000D01*
X143392858Y-113307143D01*
X143392858Y-113164286D01*
X143464287Y-113021429D01*
X143535715Y-112950000D01*
X143678573Y-112878571D01*
X144035715Y-112878571D01*
X144250001Y-112950000D01*
X145392858Y-113592857D02*
X145607144Y-113664286D01*
X145678572Y-113735714D01*
X145750001Y-113878571D01*
X145750001Y-114092857D01*
X145678572Y-114235714D01*
X145607144Y-114307143D01*
X145464286Y-114378571D01*
X144892858Y-114378571D01*
X144892858Y-112878571D01*
X145392858Y-112878571D01*
X145535715Y-112950000D01*
X145607144Y-113021429D01*
X145678572Y-113164286D01*
X145678572Y-113307143D01*
X145607144Y-113450000D01*
X145535715Y-113521429D01*
X145392858Y-113592857D01*
X144892858Y-113592857D01*
X147535715Y-114378571D02*
X147535715Y-112878571D01*
X148107143Y-112878571D01*
X148250001Y-112950000D01*
X148321429Y-113021429D01*
X148392858Y-113164286D01*
X148392858Y-113378571D01*
X148321429Y-113521429D01*
X148250001Y-113592857D01*
X148107143Y-113664286D01*
X147535715Y-113664286D01*
X149250001Y-114378571D02*
X149107143Y-114307143D01*
X149035715Y-114235714D01*
X148964286Y-114092857D01*
X148964286Y-113664286D01*
X149035715Y-113521429D01*
X149107143Y-113450000D01*
X149250001Y-113378571D01*
X149464286Y-113378571D01*
X149607143Y-113450000D01*
X149678572Y-113521429D01*
X149750001Y-113664286D01*
X149750001Y-114092857D01*
X149678572Y-114235714D01*
X149607143Y-114307143D01*
X149464286Y-114378571D01*
X149250001Y-114378571D01*
X150250001Y-113378571D02*
X150535715Y-114378571D01*
X150821429Y-113664286D01*
X151107144Y-114378571D01*
X151392858Y-113378571D01*
X152535715Y-114307143D02*
X152392858Y-114378571D01*
X152107144Y-114378571D01*
X151964287Y-114307143D01*
X151892858Y-114164286D01*
X151892858Y-113592857D01*
X151964287Y-113450000D01*
X152107144Y-113378571D01*
X152392858Y-113378571D01*
X152535715Y-113450000D01*
X152607144Y-113592857D01*
X152607144Y-113735714D01*
X151892858Y-113878571D01*
X153250001Y-114378571D02*
X153250001Y-113378571D01*
X153250001Y-113664286D02*
X153321429Y-113521429D01*
X153392858Y-113450000D01*
X153535715Y-113378571D01*
X153678572Y-113378571D01*
X155321429Y-114378571D02*
X155321429Y-113378571D01*
X155321429Y-113521429D02*
X155392857Y-113450000D01*
X155535715Y-113378571D01*
X155750000Y-113378571D01*
X155892857Y-113450000D01*
X155964286Y-113592857D01*
X155964286Y-114378571D01*
X155964286Y-113592857D02*
X156035715Y-113450000D01*
X156178572Y-113378571D01*
X156392857Y-113378571D01*
X156535715Y-113450000D01*
X156607143Y-113592857D01*
X156607143Y-114378571D01*
X157892857Y-114307143D02*
X157750000Y-114378571D01*
X157464286Y-114378571D01*
X157321429Y-114307143D01*
X157250000Y-114164286D01*
X157250000Y-113592857D01*
X157321429Y-113450000D01*
X157464286Y-113378571D01*
X157750000Y-113378571D01*
X157892857Y-113450000D01*
X157964286Y-113592857D01*
X157964286Y-113735714D01*
X157250000Y-113878571D01*
X158392857Y-113378571D02*
X158964286Y-113378571D01*
X158607143Y-112878571D02*
X158607143Y-114164286D01*
X158678571Y-114307143D01*
X158821429Y-114378571D01*
X158964286Y-114378571D01*
X160035714Y-114307143D02*
X159892857Y-114378571D01*
X159607143Y-114378571D01*
X159464286Y-114307143D01*
X159392857Y-114164286D01*
X159392857Y-113592857D01*
X159464286Y-113450000D01*
X159607143Y-113378571D01*
X159892857Y-113378571D01*
X160035714Y-113450000D01*
X160107143Y-113592857D01*
X160107143Y-113735714D01*
X159392857Y-113878571D01*
X160750000Y-114378571D02*
X160750000Y-113378571D01*
X160750000Y-113664286D02*
X160821428Y-113521429D01*
X160892857Y-113450000D01*
X161035714Y-113378571D01*
X161178571Y-113378571D01*
X162678571Y-113378571D02*
X163035714Y-114378571D01*
X163392856Y-113378571D01*
X163892856Y-113021429D02*
X163964285Y-112950000D01*
X164107142Y-112878571D01*
X164464285Y-112878571D01*
X164607142Y-112950000D01*
X164678571Y-113021429D01*
X164749999Y-113164286D01*
X164749999Y-113307143D01*
X164678571Y-113521429D01*
X163821428Y-114378571D01*
X164749999Y-114378571D01*
X165392856Y-114235714D02*
X165464284Y-114307143D01*
X165392856Y-114378571D01*
X165321427Y-114307143D01*
X165392856Y-114235714D01*
X165392856Y-114378571D01*
X166892856Y-114378571D02*
X166035713Y-114378571D01*
X166464285Y-114378571D02*
X166464285Y-112878571D01*
X166321428Y-113092857D01*
X166178570Y-113235714D01*
X166035713Y-113307143D01*
D12*
X129225000Y-71900000D03*
X128575000Y-71900000D03*
X127925000Y-71900000D03*
X127275000Y-71900000D03*
X126625000Y-71900000D03*
X125975000Y-71900000D03*
X125325000Y-71900000D03*
X124675000Y-71900000D03*
X124025000Y-71900000D03*
X123375000Y-71900000D03*
X122725000Y-71900000D03*
X122075000Y-71900000D03*
X121425000Y-71900000D03*
X120775000Y-71900000D03*
X120775000Y-77600000D03*
X121425000Y-77600000D03*
X122075000Y-77600000D03*
X122725000Y-77600000D03*
X123375000Y-77600000D03*
X124025000Y-77600000D03*
X124675000Y-77600000D03*
X125325000Y-77600000D03*
X125975000Y-77600000D03*
X126625000Y-77600000D03*
X127275000Y-77600000D03*
X127925000Y-77600000D03*
X128575000Y-77600000D03*
X129225000Y-77600000D03*
D13*
X102200000Y-55800000D03*
X100101960Y-55800000D03*
D14*
X101400000Y-64350000D03*
X104900120Y-64350000D03*
D13*
X134960000Y-52928880D03*
X134960000Y-50830840D03*
X125000000Y-51370840D03*
X125000000Y-53468880D03*
X115000000Y-53129160D03*
X115000000Y-51031120D03*
X105000000Y-50700000D03*
X105000000Y-52798040D03*
D15*
X118250000Y-99450000D03*
X118250000Y-100100000D03*
X118250000Y-100750000D03*
X118250000Y-101400000D03*
X118250000Y-102050000D03*
X118250000Y-102700000D03*
X118250000Y-103350000D03*
X125150000Y-103350000D03*
X125150000Y-102700000D03*
X125150000Y-102050000D03*
X125150000Y-101400000D03*
X125150000Y-100750000D03*
X125150000Y-100100000D03*
X125150000Y-99450000D03*
D16*
X159900000Y-81950000D03*
D17*
X157360000Y-81950000D03*
D18*
X129800000Y-95820000D03*
X129800000Y-97090000D03*
X129800000Y-98360000D03*
X129800000Y-99630000D03*
X135050000Y-99630000D03*
X135050000Y-98360000D03*
X135050000Y-97090000D03*
X135050000Y-95820000D03*
D19*
X132697500Y-97725000D03*
D18*
X117450000Y-112060000D03*
X117450000Y-110790000D03*
X117450000Y-109520000D03*
X117450000Y-108250000D03*
X112200000Y-108250000D03*
X112200000Y-109520000D03*
X112200000Y-110790000D03*
X112200000Y-112060000D03*
D19*
X114552500Y-110155000D03*
D20*
X122600000Y-106550000D03*
X120600000Y-106550000D03*
X120600000Y-109400000D03*
X122600000Y-109400000D03*
D21*
X129800000Y-104150000D03*
X127900000Y-104150000D03*
X115050000Y-105800000D03*
X113150000Y-105800000D03*
D16*
X163150000Y-81950000D03*
D17*
X165690000Y-81950000D03*
D22*
X100200000Y-99390000D03*
D17*
X100200000Y-96850000D03*
D23*
X100764000Y-108680000D03*
D24*
X106860000Y-108680000D03*
D23*
X103050000Y-103600000D03*
D25*
X131701640Y-111150000D03*
X126200000Y-111150000D03*
D20*
X122600000Y-112400000D03*
X120600000Y-112400000D03*
D26*
X110850000Y-98750000D03*
X110850000Y-100750000D03*
D20*
X131950000Y-101600000D03*
X129950000Y-101600000D03*
D26*
X114750000Y-103550000D03*
X114750000Y-101550000D03*
X110900000Y-102800000D03*
X110900000Y-104800000D03*
D27*
X107950000Y-101750000D03*
X107950000Y-98750000D03*
D28*
X140750000Y-77500000D03*
X136750000Y-77500000D03*
X136750000Y-79900000D03*
X140750000Y-79900000D03*
D29*
X104313575Y-62029999D03*
X104313575Y-59529999D03*
D10*
G36*
X144555188Y-95876866D02*
X144166280Y-95487958D01*
X145226940Y-94427298D01*
X145615848Y-94816206D01*
X144555188Y-95876866D01*
X144555188Y-95876866D01*
G37*
G36*
X145120874Y-96442551D02*
X144731966Y-96053643D01*
X145792626Y-94992983D01*
X146181534Y-95381891D01*
X145120874Y-96442551D01*
X145120874Y-96442551D01*
G37*
G36*
X145686559Y-97008236D02*
X145297651Y-96619328D01*
X146358311Y-95558668D01*
X146747219Y-95947576D01*
X145686559Y-97008236D01*
X145686559Y-97008236D01*
G37*
G36*
X146252244Y-97573922D02*
X145863336Y-97185014D01*
X146923996Y-96124354D01*
X147312904Y-96513262D01*
X146252244Y-97573922D01*
X146252244Y-97573922D01*
G37*
G36*
X146817930Y-98139607D02*
X146429022Y-97750699D01*
X147489682Y-96690039D01*
X147878590Y-97078947D01*
X146817930Y-98139607D01*
X146817930Y-98139607D01*
G37*
G36*
X147383615Y-98705293D02*
X146994707Y-98316385D01*
X148055367Y-97255725D01*
X148444275Y-97644633D01*
X147383615Y-98705293D01*
X147383615Y-98705293D01*
G37*
G36*
X147949301Y-99270978D02*
X147560393Y-98882070D01*
X148621053Y-97821410D01*
X149009961Y-98210318D01*
X147949301Y-99270978D01*
X147949301Y-99270978D01*
G37*
G36*
X148514986Y-99836664D02*
X148126078Y-99447756D01*
X149186738Y-98387096D01*
X149575646Y-98776004D01*
X148514986Y-99836664D01*
X148514986Y-99836664D01*
G37*
G36*
X149080672Y-100402349D02*
X148691764Y-100013441D01*
X149752424Y-98952781D01*
X150141332Y-99341689D01*
X149080672Y-100402349D01*
X149080672Y-100402349D01*
G37*
G36*
X149646357Y-100968034D02*
X149257449Y-100579126D01*
X150318109Y-99518466D01*
X150707017Y-99907374D01*
X149646357Y-100968034D01*
X149646357Y-100968034D01*
G37*
G36*
X150212042Y-101533720D02*
X149823134Y-101144812D01*
X150883794Y-100084152D01*
X151272702Y-100473060D01*
X150212042Y-101533720D01*
X150212042Y-101533720D01*
G37*
G36*
X153676866Y-101144812D02*
X153287958Y-101533720D01*
X152227298Y-100473060D01*
X152616206Y-100084152D01*
X153676866Y-101144812D01*
X153676866Y-101144812D01*
G37*
G36*
X154242551Y-100579126D02*
X153853643Y-100968034D01*
X152792983Y-99907374D01*
X153181891Y-99518466D01*
X154242551Y-100579126D01*
X154242551Y-100579126D01*
G37*
G36*
X154808236Y-100013441D02*
X154419328Y-100402349D01*
X153358668Y-99341689D01*
X153747576Y-98952781D01*
X154808236Y-100013441D01*
X154808236Y-100013441D01*
G37*
G36*
X155373922Y-99447756D02*
X154985014Y-99836664D01*
X153924354Y-98776004D01*
X154313262Y-98387096D01*
X155373922Y-99447756D01*
X155373922Y-99447756D01*
G37*
G36*
X155939607Y-98882070D02*
X155550699Y-99270978D01*
X154490039Y-98210318D01*
X154878947Y-97821410D01*
X155939607Y-98882070D01*
X155939607Y-98882070D01*
G37*
G36*
X156505293Y-98316385D02*
X156116385Y-98705293D01*
X155055725Y-97644633D01*
X155444633Y-97255725D01*
X156505293Y-98316385D01*
X156505293Y-98316385D01*
G37*
G36*
X157070978Y-97750699D02*
X156682070Y-98139607D01*
X155621410Y-97078947D01*
X156010318Y-96690039D01*
X157070978Y-97750699D01*
X157070978Y-97750699D01*
G37*
G36*
X157636664Y-97185014D02*
X157247756Y-97573922D01*
X156187096Y-96513262D01*
X156576004Y-96124354D01*
X157636664Y-97185014D01*
X157636664Y-97185014D01*
G37*
G36*
X158202349Y-96619328D02*
X157813441Y-97008236D01*
X156752781Y-95947576D01*
X157141689Y-95558668D01*
X158202349Y-96619328D01*
X158202349Y-96619328D01*
G37*
G36*
X158768034Y-96053643D02*
X158379126Y-96442551D01*
X157318466Y-95381891D01*
X157707374Y-94992983D01*
X158768034Y-96053643D01*
X158768034Y-96053643D01*
G37*
G36*
X159333720Y-95487958D02*
X158944812Y-95876866D01*
X157884152Y-94816206D01*
X158273060Y-94427298D01*
X159333720Y-95487958D01*
X159333720Y-95487958D01*
G37*
G36*
X158273060Y-93472702D02*
X157884152Y-93083794D01*
X158944812Y-92023134D01*
X159333720Y-92412042D01*
X158273060Y-93472702D01*
X158273060Y-93472702D01*
G37*
G36*
X157707374Y-92907017D02*
X157318466Y-92518109D01*
X158379126Y-91457449D01*
X158768034Y-91846357D01*
X157707374Y-92907017D01*
X157707374Y-92907017D01*
G37*
G36*
X157141689Y-92341332D02*
X156752781Y-91952424D01*
X157813441Y-90891764D01*
X158202349Y-91280672D01*
X157141689Y-92341332D01*
X157141689Y-92341332D01*
G37*
G36*
X156576004Y-91775646D02*
X156187096Y-91386738D01*
X157247756Y-90326078D01*
X157636664Y-90714986D01*
X156576004Y-91775646D01*
X156576004Y-91775646D01*
G37*
G36*
X156010318Y-91209961D02*
X155621410Y-90821053D01*
X156682070Y-89760393D01*
X157070978Y-90149301D01*
X156010318Y-91209961D01*
X156010318Y-91209961D01*
G37*
G36*
X155444633Y-90644275D02*
X155055725Y-90255367D01*
X156116385Y-89194707D01*
X156505293Y-89583615D01*
X155444633Y-90644275D01*
X155444633Y-90644275D01*
G37*
G36*
X154878947Y-90078590D02*
X154490039Y-89689682D01*
X155550699Y-88629022D01*
X155939607Y-89017930D01*
X154878947Y-90078590D01*
X154878947Y-90078590D01*
G37*
G36*
X154313262Y-89512904D02*
X153924354Y-89123996D01*
X154985014Y-88063336D01*
X155373922Y-88452244D01*
X154313262Y-89512904D01*
X154313262Y-89512904D01*
G37*
G36*
X153747576Y-88947219D02*
X153358668Y-88558311D01*
X154419328Y-87497651D01*
X154808236Y-87886559D01*
X153747576Y-88947219D01*
X153747576Y-88947219D01*
G37*
G36*
X153181891Y-88381534D02*
X152792983Y-87992626D01*
X153853643Y-86931966D01*
X154242551Y-87320874D01*
X153181891Y-88381534D01*
X153181891Y-88381534D01*
G37*
G36*
X152616206Y-87815848D02*
X152227298Y-87426940D01*
X153287958Y-86366280D01*
X153676866Y-86755188D01*
X152616206Y-87815848D01*
X152616206Y-87815848D01*
G37*
G36*
X151272702Y-87426940D02*
X150883794Y-87815848D01*
X149823134Y-86755188D01*
X150212042Y-86366280D01*
X151272702Y-87426940D01*
X151272702Y-87426940D01*
G37*
G36*
X150707017Y-87992626D02*
X150318109Y-88381534D01*
X149257449Y-87320874D01*
X149646357Y-86931966D01*
X150707017Y-87992626D01*
X150707017Y-87992626D01*
G37*
G36*
X150141332Y-88558311D02*
X149752424Y-88947219D01*
X148691764Y-87886559D01*
X149080672Y-87497651D01*
X150141332Y-88558311D01*
X150141332Y-88558311D01*
G37*
G36*
X149575646Y-89123996D02*
X149186738Y-89512904D01*
X148126078Y-88452244D01*
X148514986Y-88063336D01*
X149575646Y-89123996D01*
X149575646Y-89123996D01*
G37*
G36*
X149009961Y-89689682D02*
X148621053Y-90078590D01*
X147560393Y-89017930D01*
X147949301Y-88629022D01*
X149009961Y-89689682D01*
X149009961Y-89689682D01*
G37*
G36*
X148444275Y-90255367D02*
X148055367Y-90644275D01*
X146994707Y-89583615D01*
X147383615Y-89194707D01*
X148444275Y-90255367D01*
X148444275Y-90255367D01*
G37*
G36*
X147878590Y-90821053D02*
X147489682Y-91209961D01*
X146429022Y-90149301D01*
X146817930Y-89760393D01*
X147878590Y-90821053D01*
X147878590Y-90821053D01*
G37*
G36*
X147312904Y-91386738D02*
X146923996Y-91775646D01*
X145863336Y-90714986D01*
X146252244Y-90326078D01*
X147312904Y-91386738D01*
X147312904Y-91386738D01*
G37*
G36*
X146747219Y-91952424D02*
X146358311Y-92341332D01*
X145297651Y-91280672D01*
X145686559Y-90891764D01*
X146747219Y-91952424D01*
X146747219Y-91952424D01*
G37*
G36*
X146181534Y-92518109D02*
X145792626Y-92907017D01*
X144731966Y-91846357D01*
X145120874Y-91457449D01*
X146181534Y-92518109D01*
X146181534Y-92518109D01*
G37*
G36*
X145615848Y-93083794D02*
X145226940Y-93472702D01*
X144166280Y-92412042D01*
X144555188Y-92023134D01*
X145615848Y-93083794D01*
X145615848Y-93083794D01*
G37*
D20*
X162000000Y-92250000D03*
X164000000Y-92250000D03*
D21*
X145000000Y-65000000D03*
X146900000Y-65000000D03*
D30*
X109748980Y-82790000D03*
X109748980Y-80250000D03*
X107750000Y-80250000D03*
X107750000Y-82790000D03*
D31*
X105049980Y-87519480D03*
X105049980Y-75520520D03*
D32*
X127480000Y-58340000D03*
X127480000Y-54500000D03*
X132320000Y-54500000D03*
D33*
X131850000Y-61610000D03*
X130450000Y-61610000D03*
X129050000Y-61610000D03*
D32*
X132320000Y-58340000D03*
D33*
X127650000Y-61610000D03*
D32*
X147480000Y-58340000D03*
X147480000Y-54500000D03*
X152320000Y-54500000D03*
D33*
X151850000Y-61610000D03*
X150450000Y-61610000D03*
X149050000Y-61610000D03*
D32*
X152320000Y-58340000D03*
D33*
X147650000Y-61610000D03*
D32*
X137480000Y-58340000D03*
X137480000Y-54500000D03*
X142320000Y-54500000D03*
D33*
X141850000Y-61610000D03*
X140450000Y-61610000D03*
X139050000Y-61610000D03*
D32*
X142320000Y-58340000D03*
D33*
X137650000Y-61610000D03*
D32*
X117480000Y-58340000D03*
X117480000Y-54500000D03*
X122320000Y-54500000D03*
D33*
X121850000Y-61610000D03*
X120450000Y-61610000D03*
X119050000Y-61610000D03*
D32*
X122320000Y-58340000D03*
D33*
X117650000Y-61610000D03*
D34*
X133000000Y-70750000D03*
X135500000Y-70750000D03*
X135500000Y-74500000D03*
X133000000Y-74500000D03*
D35*
X114750000Y-56664660D03*
X114750000Y-60835340D03*
X124750000Y-56664660D03*
X124750000Y-60835340D03*
X144750000Y-60835340D03*
X144750000Y-56664660D03*
X134750000Y-60835340D03*
X134750000Y-56664660D03*
D36*
X108129320Y-72150000D03*
X112300000Y-72150000D03*
D22*
X100150000Y-70300000D03*
D17*
X100150000Y-67760000D03*
D35*
X154750000Y-60835340D03*
X154750000Y-56664660D03*
X164750000Y-60835340D03*
X164750000Y-56664660D03*
D26*
X149500000Y-63750000D03*
X149500000Y-65750000D03*
X155250000Y-72500000D03*
X155250000Y-74500000D03*
X147750000Y-71750000D03*
X147750000Y-73750000D03*
X159500000Y-87250000D03*
X159500000Y-85250000D03*
X157250000Y-63750000D03*
X157250000Y-65750000D03*
X163750000Y-72250000D03*
X163750000Y-74250000D03*
X165500000Y-64000000D03*
X165500000Y-66000000D03*
D37*
X149500000Y-67500000D03*
X149500000Y-69400000D03*
X157250000Y-67500000D03*
X157250000Y-69400000D03*
D21*
X152600000Y-65000000D03*
X154500000Y-65000000D03*
D37*
X165500000Y-67750000D03*
X165500000Y-69650000D03*
D21*
X160850000Y-65000000D03*
X162750000Y-65000000D03*
D38*
X145000000Y-69500000D03*
X145950000Y-69500000D03*
X146900000Y-69500000D03*
X146900000Y-67300000D03*
X145000000Y-67300000D03*
X152600000Y-69450000D03*
X153550000Y-69450000D03*
X154500000Y-69450000D03*
X154500000Y-67250000D03*
X152600000Y-67250000D03*
X160850000Y-69450000D03*
X161800000Y-69450000D03*
X162750000Y-69450000D03*
X162750000Y-67250000D03*
X160850000Y-67250000D03*
D39*
X164500000Y-108500000D03*
D40*
X164500000Y-105960000D03*
X164500000Y-103460000D03*
D41*
X163200000Y-89400000D03*
X163200000Y-85900000D03*
D39*
X152210000Y-109700000D03*
D40*
X154750000Y-109700000D03*
X157250000Y-109700000D03*
D32*
X157480000Y-58340000D03*
X157480000Y-54500000D03*
X162320000Y-54500000D03*
D33*
X161850000Y-61610000D03*
X160450000Y-61610000D03*
X159050000Y-61610000D03*
D32*
X162320000Y-58340000D03*
D33*
X157650000Y-61610000D03*
D32*
X107480000Y-58340000D03*
X107480000Y-54500000D03*
X112320000Y-54500000D03*
D33*
X111850000Y-61610000D03*
X110450000Y-61610000D03*
X109050000Y-61610000D03*
D32*
X112320000Y-58340000D03*
D33*
X107650000Y-61610000D03*
D42*
X107250000Y-69400000D03*
X110520000Y-69400000D03*
D37*
X145500000Y-71750000D03*
X145500000Y-73650000D03*
D10*
G36*
X146457107Y-100287868D02*
X145537868Y-101207107D01*
X145042893Y-100712132D01*
X145962132Y-99792893D01*
X146457107Y-100287868D01*
X146457107Y-100287868D01*
G37*
G36*
X145113605Y-98944366D02*
X144194366Y-99863605D01*
X143699391Y-99368630D01*
X144618630Y-98449391D01*
X145113605Y-98944366D01*
X145113605Y-98944366D01*
G37*
D37*
X153000000Y-72500000D03*
X153000000Y-74400000D03*
X161000000Y-72350000D03*
X161000000Y-74250000D03*
D39*
X137213500Y-109700000D03*
D40*
X139750000Y-109700000D03*
X142250000Y-109700000D03*
X144750000Y-109700000D03*
X147250000Y-109700000D03*
X149750000Y-109700000D03*
D29*
X110000000Y-54250000D03*
X110000000Y-56750000D03*
X120000000Y-54250000D03*
X120000000Y-56750000D03*
X140000000Y-54250000D03*
X140000000Y-56750000D03*
X130000000Y-54250000D03*
X130000000Y-56750000D03*
X150000000Y-54250000D03*
X150000000Y-56750000D03*
X160000000Y-54250000D03*
X160000000Y-56750000D03*
X101813575Y-62029999D03*
X101813575Y-59529999D03*
D34*
X116250000Y-75500000D03*
X113750000Y-75500000D03*
D43*
X109550000Y-66850000D03*
X106850000Y-66850000D03*
X133000000Y-82200000D03*
X130300000Y-82200000D03*
D44*
X131850000Y-87700000D03*
X131850000Y-85000000D03*
X99000000Y-57500000D03*
X99000000Y-60200000D03*
D43*
X133000000Y-80050000D03*
X130300000Y-80050000D03*
D44*
X128950000Y-87750000D03*
X128950000Y-85050000D03*
X124550000Y-87750000D03*
X124550000Y-85050000D03*
D43*
X116350000Y-78250000D03*
X113650000Y-78250000D03*
D44*
X126750000Y-87750000D03*
X126750000Y-85050000D03*
D43*
X105500000Y-96850000D03*
X102800000Y-96850000D03*
D45*
X152350000Y-90655759D03*
X127650000Y-98360000D03*
X114000000Y-76900000D03*
X126400000Y-88250000D03*
X139950000Y-58900000D03*
X130000000Y-58800000D03*
X119950000Y-58900000D03*
X109950000Y-58850000D03*
X106150000Y-63110000D03*
X144600000Y-78100000D03*
X159250000Y-101500000D03*
X149250000Y-90679856D03*
X149250000Y-97279992D03*
X153524998Y-71000000D03*
X159500000Y-88500000D03*
X157500000Y-86750000D03*
X162250000Y-73000000D03*
X157250000Y-74250000D03*
X155250000Y-71500000D03*
X157500000Y-70500000D03*
X158750000Y-67250000D03*
X150978858Y-66603439D03*
X146500000Y-72500000D03*
X153250000Y-77500000D03*
X147250000Y-87500000D03*
X152750000Y-80000000D03*
X148800000Y-75750000D03*
X128950000Y-88400000D03*
X134200000Y-88850000D03*
X140200000Y-83200000D03*
X102500000Y-69400000D03*
X99800000Y-64500000D03*
X164000000Y-94000000D03*
X146500000Y-88000000D03*
X150750000Y-89750000D03*
X150500000Y-97500000D03*
X161750000Y-66000000D03*
X164000000Y-68250000D03*
X157565693Y-71565693D03*
X155750000Y-67500000D03*
X150500000Y-68200000D03*
X146010000Y-68160000D03*
X159750000Y-97750000D03*
X156500000Y-88000000D03*
X112500000Y-56664660D03*
X147750000Y-63250000D03*
X122500000Y-56664660D03*
X142250000Y-56664660D03*
X132250000Y-56664660D03*
X152500000Y-56664660D03*
X154500000Y-63250000D03*
X162500000Y-56664660D03*
X164000000Y-65000000D03*
X125300000Y-76050000D03*
X101238120Y-57500000D03*
X110000000Y-50500000D03*
X101500000Y-50500000D03*
X128000000Y-102675000D03*
X119150000Y-110800000D03*
X132200000Y-104600000D03*
X116800000Y-97700000D03*
X119100000Y-106550000D03*
X116600000Y-101000000D03*
X119300000Y-108250000D03*
X127450000Y-101750000D03*
X128450000Y-82900000D03*
X124700010Y-79400000D03*
X158900000Y-90300000D03*
X158700000Y-89400000D03*
D46*
X145000000Y-66250000D02*
X145000000Y-66455000D01*
X155065349Y-90634651D02*
X152350000Y-90655759D01*
X152350000Y-90655759D02*
X149250000Y-90679856D01*
D47*
X129800000Y-98360000D02*
X127650000Y-98360000D01*
X127650000Y-98360000D02*
X125590000Y-98360000D01*
D46*
X100150000Y-99400000D02*
X100200000Y-99400000D01*
X100200000Y-99400000D02*
X103050000Y-102250000D01*
X103050000Y-102250000D02*
X103050000Y-103600000D01*
X110850000Y-98750000D02*
X120600000Y-98750000D01*
D47*
X125590000Y-98360000D02*
X125150000Y-98800000D01*
X125150000Y-98800000D02*
X125150000Y-99450000D01*
X129800000Y-97090000D02*
X129800000Y-98360000D01*
X129800000Y-95820000D02*
X129800000Y-97090000D01*
X122600000Y-104500000D02*
X122350000Y-104250000D01*
X122600000Y-106550000D02*
X122600000Y-104500000D01*
X114750000Y-101550000D02*
X114275000Y-101550000D01*
X114275000Y-101550000D02*
X111025000Y-104800000D01*
X111025000Y-104800000D02*
X110900000Y-104800000D01*
X114750000Y-101550000D02*
X115250000Y-102050000D01*
X115250000Y-102050000D02*
X118250000Y-102050000D01*
X118250000Y-102050000D02*
X121350000Y-102050000D01*
X121350000Y-102050000D02*
X123550000Y-102050000D01*
X125150000Y-99450000D02*
X123950000Y-99450000D01*
X123950000Y-99450000D02*
X121350000Y-102050000D01*
X123550000Y-102050000D02*
X124224999Y-102724999D01*
X124224999Y-102724999D02*
X125125001Y-102724999D01*
X125125001Y-102724999D02*
X125150000Y-102700000D01*
D48*
X103050000Y-103600000D02*
X103050000Y-106394000D01*
X103050000Y-106394000D02*
X100764000Y-108680000D01*
X107950000Y-98750000D02*
X107650000Y-98750000D01*
X107650000Y-98750000D02*
X103050000Y-103350000D01*
X103050000Y-103350000D02*
X103050000Y-103600000D01*
X110850000Y-98750000D02*
X107950000Y-98750000D01*
D46*
X101813575Y-59779999D02*
X99020001Y-59779999D01*
X99020001Y-59779999D02*
X99000000Y-59800000D01*
X114000000Y-76900000D02*
X114000000Y-78200000D01*
X114000000Y-75500000D02*
X114000000Y-76900000D01*
X114000000Y-78200000D02*
X114050000Y-78250000D01*
D49*
X126750000Y-87350000D02*
X126750000Y-87900000D01*
X126750000Y-87900000D02*
X126400000Y-88250000D01*
D50*
X139950000Y-58340000D02*
X137480000Y-58340000D01*
X142320000Y-58340000D02*
X139950000Y-58340000D01*
X139950000Y-58340000D02*
X139950000Y-58900000D01*
X130000000Y-58340000D02*
X132320000Y-58340000D01*
X127480000Y-58340000D02*
X130000000Y-58340000D01*
X130000000Y-58340000D02*
X130000000Y-58800000D01*
X119950000Y-58340000D02*
X117480000Y-58340000D01*
X122320000Y-58340000D02*
X119950000Y-58340000D01*
X119950000Y-58340000D02*
X119950000Y-58900000D01*
X109950000Y-58340000D02*
X107480000Y-58340000D01*
X109950000Y-58340000D02*
X109950000Y-58850000D01*
X112320000Y-58340000D02*
X109950000Y-58340000D01*
X106150000Y-63110000D02*
X107650000Y-61610000D01*
X104910000Y-64350000D02*
X106150000Y-63110000D01*
X104900120Y-64350000D02*
X104910000Y-64350000D01*
X105049980Y-75520520D02*
X105049980Y-75199980D01*
X105049980Y-75199980D02*
X100150000Y-70300000D01*
D49*
X140750000Y-79900000D02*
X142800000Y-79900000D01*
X142800000Y-79900000D02*
X144600000Y-78100000D01*
D48*
X164500000Y-108500000D02*
X162800000Y-108500000D01*
X162800000Y-108500000D02*
X159250000Y-104950000D01*
X159250000Y-104950000D02*
X159250000Y-101500000D01*
D46*
X149250000Y-90679856D02*
X148328600Y-90634651D01*
X147719491Y-97980509D02*
X148420008Y-97279992D01*
X148420008Y-97279992D02*
X149250000Y-97279992D01*
D51*
X153550000Y-71950000D02*
X153524998Y-71000000D01*
X153524998Y-71000000D02*
X153550000Y-69450000D01*
D48*
X107750000Y-80250000D02*
X106672370Y-80250000D01*
X106672370Y-80250000D02*
X105049980Y-81872390D01*
X105049980Y-81872390D02*
X105049980Y-85610278D01*
X105049980Y-85610278D02*
X105049980Y-87519480D01*
X107750000Y-80250000D02*
X107750000Y-78220540D01*
X107750000Y-78220540D02*
X105049980Y-75520520D01*
D46*
X155171400Y-96240029D02*
X155171400Y-93750000D01*
X155171400Y-93750000D02*
X155171400Y-90528600D01*
X159500000Y-88500000D02*
X159500000Y-88250000D01*
X159500000Y-89625000D02*
X159500000Y-88500000D01*
X162000000Y-92250000D02*
X162000000Y-92125000D01*
X162000000Y-92125000D02*
X159500000Y-89625000D01*
X159500000Y-88250000D02*
X159500000Y-87250000D01*
X155780509Y-89919491D02*
X157500000Y-88200000D01*
X157500000Y-88200000D02*
X157500000Y-86750000D01*
X156346194Y-97414823D02*
X155171400Y-96240029D01*
X155171400Y-90528600D02*
X155179469Y-90520531D01*
X155179469Y-90520531D02*
X155780509Y-89919491D01*
X155780509Y-89919491D02*
X155065349Y-90634651D01*
X148328600Y-90634651D02*
X147719491Y-90025542D01*
X147719491Y-90025542D02*
X147719491Y-89919491D01*
D51*
X161000000Y-72350000D02*
X161600000Y-72350000D01*
X161600000Y-72350000D02*
X162250000Y-73000000D01*
X161000000Y-72350000D02*
X161800000Y-71550000D01*
X161800000Y-71550000D02*
X161800000Y-69450000D01*
X163750000Y-72250000D02*
X161100000Y-72250000D01*
X161100000Y-72250000D02*
X161000000Y-72350000D01*
X157250000Y-63750000D02*
X157250000Y-63000000D01*
X157250000Y-63000000D02*
X157250000Y-62010000D01*
X165500000Y-64000000D02*
X164275000Y-64000000D01*
X164275000Y-64000000D02*
X163275000Y-63000000D01*
X163275000Y-63000000D02*
X157250000Y-63000000D01*
X157250000Y-74250000D02*
X157000000Y-74250000D01*
X157000000Y-74250000D02*
X155250000Y-72500000D01*
X155250000Y-72500000D02*
X155250000Y-71500000D01*
X155250000Y-72500000D02*
X155500000Y-72500000D01*
X155500000Y-72500000D02*
X157500000Y-70500000D01*
X153000000Y-72500000D02*
X153550000Y-71950000D01*
X155250000Y-72500000D02*
X153000000Y-72500000D01*
X157250000Y-63750000D02*
X158750000Y-65250000D01*
X158750000Y-65250000D02*
X158750000Y-67250000D01*
X149500000Y-63750000D02*
X150978858Y-65228858D01*
X150978858Y-65228858D02*
X150978858Y-66603439D01*
X157250000Y-62010000D02*
X157650000Y-61610000D01*
X149500000Y-63750000D02*
X149500000Y-63460000D01*
X149500000Y-63460000D02*
X147650000Y-61610000D01*
D46*
X145750000Y-71750000D02*
X146500000Y-72500000D01*
X145500000Y-71750000D02*
X145750000Y-71750000D01*
X145500000Y-71750000D02*
X145950000Y-71300000D01*
X145950000Y-71300000D02*
X145950000Y-69500000D01*
X147750000Y-71750000D02*
X145500000Y-71750000D01*
D48*
X107480000Y-58340000D02*
X105503574Y-58340000D01*
X105503574Y-58340000D02*
X104313575Y-59529999D01*
D46*
X104313575Y-59529999D02*
X103063575Y-59529999D01*
X101813575Y-59529999D02*
X103063575Y-59529999D01*
D50*
X147480000Y-58340000D02*
X152320000Y-58340000D01*
X157480000Y-58340000D02*
X162320000Y-58340000D01*
X157480000Y-54500000D02*
X162320000Y-54500000D01*
X147480000Y-54500000D02*
X152320000Y-54500000D01*
X137480000Y-54500000D02*
X142320000Y-54500000D01*
X127480000Y-54500000D02*
X132320000Y-54500000D01*
X117480000Y-54500000D02*
X122320000Y-54500000D01*
X112320000Y-54500000D02*
X107480000Y-54500000D01*
X157480000Y-58340000D02*
X157480000Y-54500000D01*
X147480000Y-58340000D02*
X147480000Y-54500000D01*
X137480000Y-58340000D02*
X137480000Y-54500000D01*
X127480000Y-58340000D02*
X127480000Y-54500000D01*
X117480000Y-58340000D02*
X117480000Y-54500000D01*
X107480000Y-58340000D02*
X107480000Y-54500000D01*
X157650000Y-61610000D02*
X157650000Y-58510000D01*
X157650000Y-58510000D02*
X157480000Y-58340000D01*
X147650000Y-61610000D02*
X147650000Y-58510000D01*
X147650000Y-58510000D02*
X147480000Y-58340000D01*
X137650000Y-61610000D02*
X137650000Y-58510000D01*
X137650000Y-58510000D02*
X137480000Y-58340000D01*
X127650000Y-61610000D02*
X127650000Y-58510000D01*
X127650000Y-58510000D02*
X127480000Y-58340000D01*
X117650000Y-61610000D02*
X117650000Y-58510000D01*
X117650000Y-58510000D02*
X117480000Y-58340000D01*
X107650000Y-61610000D02*
X107650000Y-58510000D01*
X107650000Y-58510000D02*
X107480000Y-58340000D01*
X130250000Y-54500000D02*
X130000000Y-54250000D01*
X129750000Y-54500000D02*
X130000000Y-54250000D01*
X122070000Y-54250000D02*
X122320000Y-54500000D01*
X119750000Y-54500000D02*
X120000000Y-54250000D01*
X109750000Y-54500000D02*
X110000000Y-54250000D01*
X112070000Y-54250000D02*
X112320000Y-54500000D01*
D48*
X112250000Y-54430000D02*
X112320000Y-54500000D01*
X122250000Y-54430000D02*
X122320000Y-54500000D01*
X132250000Y-54430000D02*
X132320000Y-54500000D01*
X142250000Y-54430000D02*
X142320000Y-54500000D01*
X152250000Y-54430000D02*
X152320000Y-54500000D01*
X162250000Y-54430000D02*
X162320000Y-54500000D01*
D46*
X150547918Y-80202082D02*
X153250000Y-77500000D01*
X150547918Y-87091064D02*
X150547918Y-80202082D01*
X155250000Y-75500000D02*
X155250000Y-74500000D01*
X154700011Y-76049989D02*
X155250000Y-75500000D01*
X154700011Y-86474506D02*
X154700011Y-76049989D01*
X153517767Y-87656750D02*
X154700011Y-86474506D01*
D51*
X153000000Y-74400000D02*
X152700000Y-74400000D01*
X152700000Y-74400000D02*
X151849999Y-73549999D01*
X152600000Y-70580000D02*
X152600000Y-69450000D01*
X151849999Y-73549999D02*
X151849999Y-71330001D01*
X151849999Y-71330001D02*
X152600000Y-70580000D01*
X155250000Y-74500000D02*
X153100000Y-74500000D01*
X153100000Y-74500000D02*
X153000000Y-74400000D01*
X152600000Y-69655000D02*
X152600000Y-69450000D01*
D46*
X149416548Y-88222435D02*
X148750000Y-87555887D01*
X148750000Y-87555887D02*
X148750000Y-82160642D01*
X148750000Y-82160642D02*
X149500351Y-81410291D01*
X149500351Y-77560353D02*
X147750000Y-75810002D01*
X149500351Y-81410291D02*
X149500351Y-77560353D01*
X147750000Y-75810002D02*
X147750000Y-74750000D01*
X147750000Y-74750000D02*
X147750000Y-73750000D01*
X145500000Y-73650000D02*
X147650000Y-73650000D01*
X147650000Y-73650000D02*
X147750000Y-73750000D01*
X144000000Y-70750000D02*
X144000000Y-72450000D01*
X144000000Y-72450000D02*
X145200000Y-73650000D01*
X145200000Y-73650000D02*
X145500000Y-73650000D01*
X144780000Y-70750000D02*
X144000000Y-70750000D01*
X145000000Y-69500000D02*
X145000000Y-70530000D01*
X145000000Y-70530000D02*
X144780000Y-70750000D01*
D47*
X147250000Y-87500000D02*
X147562742Y-87500000D01*
X147562742Y-87500000D02*
X148850862Y-88788120D01*
D46*
X156346194Y-90485177D02*
X158375000Y-88456371D01*
X158375000Y-88456371D02*
X158375000Y-86250000D01*
X158375000Y-86250000D02*
X159375000Y-85250000D01*
X159375000Y-85250000D02*
X159500000Y-85250000D01*
X159500000Y-85250000D02*
X163000000Y-85250000D01*
X149982233Y-87656750D02*
X150591341Y-88265858D01*
X150591341Y-88265858D02*
X151070196Y-88265858D01*
X151070196Y-88265858D02*
X151722712Y-87613342D01*
X151722712Y-87613342D02*
X151722712Y-81027288D01*
X151722712Y-81027288D02*
X152750000Y-80000000D01*
X161000000Y-75100000D02*
X161000000Y-74250000D01*
X155400022Y-86905865D02*
X155400022Y-80699978D01*
X154083452Y-88222435D02*
X155400022Y-86905865D01*
X155400022Y-80699978D02*
X161000000Y-75100000D01*
D51*
X161000000Y-74250000D02*
X160700000Y-74250000D01*
X160700000Y-74250000D02*
X159849999Y-73399999D01*
X159849999Y-73399999D02*
X159849999Y-71580001D01*
X159849999Y-71580001D02*
X160850000Y-70580000D01*
X160850000Y-70580000D02*
X160850000Y-69450000D01*
X163750000Y-74250000D02*
X161000000Y-74250000D01*
D46*
X152952082Y-87091064D02*
X154000001Y-86043145D01*
X154000001Y-86043145D02*
X154000001Y-77139999D01*
X154000001Y-77139999D02*
X152610002Y-75750000D01*
X152610002Y-75750000D02*
X148800000Y-75750000D01*
X149500000Y-69400000D02*
X147000000Y-69400000D01*
X147000000Y-69400000D02*
X146900000Y-69500000D01*
D51*
X157250000Y-69400000D02*
X154550000Y-69400000D01*
X154550000Y-69400000D02*
X154500000Y-69450000D01*
X162750000Y-69450000D02*
X165300000Y-69450000D01*
X165300000Y-69450000D02*
X165500000Y-69650000D01*
D48*
X165500000Y-67750000D02*
X165800000Y-67750000D01*
X165800000Y-67750000D02*
X167190001Y-69140001D01*
X167190001Y-69140001D02*
X167190001Y-86509999D01*
X167190001Y-86509999D02*
X164950000Y-88750000D01*
X164950000Y-88750000D02*
X163000000Y-88750000D01*
D51*
X125900000Y-89550000D02*
X104342483Y-89550000D01*
X104342483Y-89550000D02*
X98649999Y-83857516D01*
X98649999Y-83857516D02*
X98649999Y-65650001D01*
X98649999Y-65650001D02*
X99500001Y-64799999D01*
X99500001Y-64799999D02*
X99800000Y-64500000D01*
D46*
X134974264Y-88850000D02*
X134200000Y-88850000D01*
X140200000Y-83200000D02*
X140200000Y-83624264D01*
X140200000Y-83624264D02*
X134974264Y-88850000D01*
X136600000Y-83200000D02*
X140200000Y-83200000D01*
X132600000Y-80050000D02*
X133450000Y-80050000D01*
X133450000Y-80050000D02*
X136600000Y-83200000D01*
X124550000Y-87350000D02*
X124550000Y-88200000D01*
X124550000Y-88200000D02*
X125900000Y-89550000D01*
X125900000Y-89550000D02*
X127800000Y-89550000D01*
X127800000Y-89550000D02*
X128950000Y-88400000D01*
X128950000Y-88400000D02*
X128950000Y-87350000D01*
D49*
X129250000Y-87350000D02*
X128950000Y-87350000D01*
X129975001Y-84799999D02*
X129975001Y-86624999D01*
X129349991Y-84174989D02*
X129975001Y-84799999D01*
X127646751Y-84174989D02*
X129349991Y-84174989D01*
X127180650Y-83611294D02*
X127180650Y-83708888D01*
X124025000Y-77350000D02*
X124025000Y-80455644D01*
X124025000Y-80455644D02*
X127180650Y-83611294D01*
X127180650Y-83708888D02*
X127646751Y-84174989D01*
X129975001Y-86624999D02*
X129250000Y-87350000D01*
D50*
X107250000Y-69400000D02*
X102500000Y-69400000D01*
X101400000Y-64350000D02*
X101400000Y-62193574D01*
X101400000Y-62193574D02*
X101813575Y-61779999D01*
X99800000Y-64500000D02*
X101250000Y-64500000D01*
X101250000Y-64500000D02*
X101400000Y-64350000D01*
D48*
X164000000Y-94000000D02*
X164000000Y-102960000D01*
X164000000Y-92250000D02*
X164000000Y-94000000D01*
X164000000Y-102960000D02*
X164500000Y-103460000D01*
X152600000Y-67250000D02*
X152750000Y-67250000D01*
X152750000Y-67250000D02*
X153869999Y-68369999D01*
X153869999Y-68369999D02*
X155304265Y-68369999D01*
X155304265Y-68369999D02*
X155750000Y-67924264D01*
X155750000Y-67924264D02*
X155750000Y-67500000D01*
X149500000Y-67500000D02*
X149200000Y-67500000D01*
X149200000Y-67500000D02*
X148280001Y-68419999D01*
X148280001Y-68419999D02*
X146269999Y-68419999D01*
X146269999Y-68419999D02*
X146010000Y-68160000D01*
D47*
X146500000Y-88000000D02*
X146799999Y-88299999D01*
X146799999Y-88299999D02*
X147231370Y-88299999D01*
X147231370Y-88299999D02*
X147684137Y-88752766D01*
X147684137Y-88752766D02*
X148285177Y-89353806D01*
X145750000Y-100500000D02*
X145750000Y-98818629D01*
X145750000Y-98818629D02*
X147153806Y-97414823D01*
X150750000Y-89750000D02*
X150325736Y-89750000D01*
X150325736Y-89750000D02*
X150120890Y-89954846D01*
X150120890Y-89954846D02*
X148886217Y-89954846D01*
X148886217Y-89954846D02*
X148285177Y-89353806D01*
D46*
X148038647Y-96529982D02*
X150500000Y-96529982D01*
X150500000Y-96529982D02*
X154329982Y-96529982D01*
D48*
X150500000Y-97500000D02*
X150500000Y-96529982D01*
D46*
X164000000Y-92250000D02*
X164000000Y-89750000D01*
X164000000Y-89750000D02*
X163000000Y-88750000D01*
X147153806Y-97414823D02*
X148038647Y-96529982D01*
X154329982Y-96529982D02*
X155780509Y-97980509D01*
D51*
X160850000Y-65000000D02*
X160850000Y-65100000D01*
X160850000Y-65100000D02*
X161750000Y-66000000D01*
X165500000Y-67750000D02*
X164500000Y-67750000D01*
X164500000Y-67750000D02*
X164000000Y-68250000D01*
X158681384Y-68450000D02*
X158681384Y-70450002D01*
X158681384Y-70450002D02*
X157565693Y-71565693D01*
X160850000Y-67250000D02*
X159881384Y-67250000D01*
X159881384Y-67250000D02*
X158681384Y-68450000D01*
X158681384Y-68450000D02*
X158500000Y-68450000D01*
X158500000Y-68450000D02*
X157550000Y-67500000D01*
X157550000Y-67500000D02*
X157250000Y-67500000D01*
X160850000Y-65000000D02*
X160850000Y-67250000D01*
X165500000Y-66000000D02*
X165500000Y-67750000D01*
X157250000Y-67500000D02*
X155750000Y-67500000D01*
X152600000Y-67250000D02*
X151450000Y-67250000D01*
X151450000Y-67250000D02*
X150500000Y-68200000D01*
X157250000Y-65750000D02*
X157250000Y-67500000D01*
X152600000Y-65000000D02*
X152600000Y-67250000D01*
X149500000Y-67500000D02*
X149800000Y-67500000D01*
X149800000Y-67500000D02*
X150500000Y-68200000D01*
X146010000Y-67385000D02*
X146010000Y-68160000D01*
X145000000Y-67300000D02*
X145925000Y-67300000D01*
X145925000Y-67300000D02*
X146010000Y-67385000D01*
D46*
X149500000Y-65750000D02*
X149500000Y-67500000D01*
X145000000Y-65250000D02*
X145000000Y-67250000D01*
D48*
X104313575Y-62029999D02*
X101813575Y-62029999D01*
X160500000Y-98250000D02*
X160250000Y-98250000D01*
X160250000Y-98250000D02*
X159750000Y-97750000D01*
X164500000Y-105960000D02*
X160500000Y-101960000D01*
X160500000Y-101960000D02*
X160500000Y-98250000D01*
D47*
X156500000Y-88000000D02*
X156500000Y-88068629D01*
X156500000Y-88068629D02*
X155214823Y-89353806D01*
D46*
X139706500Y-109700000D02*
X139706500Y-108285787D01*
X139706500Y-108285787D02*
X139750000Y-108242287D01*
X139750000Y-108242287D02*
X139750000Y-100293146D01*
X141599990Y-98443156D02*
X139750000Y-100293146D01*
D47*
X141599990Y-98443156D02*
X144290024Y-95753122D01*
X144290024Y-95753122D02*
X144891064Y-95152082D01*
D46*
X142206500Y-109700000D02*
X142206500Y-98968017D01*
X142206500Y-98968017D02*
X142250000Y-98924517D01*
D47*
X142250000Y-98924517D02*
X144855710Y-96318807D01*
X144855710Y-96318807D02*
X145456750Y-95717767D01*
D46*
X144706500Y-109700000D02*
X143706501Y-108700001D01*
X143706501Y-108700001D02*
X143706501Y-106706501D01*
X143706501Y-106706501D02*
X143249381Y-106249381D01*
X143274381Y-98890102D02*
X143274381Y-99157229D01*
X143274381Y-99157229D02*
X143249381Y-99182229D01*
X143249381Y-99182229D02*
X143249381Y-106249381D01*
D47*
X143274381Y-98890102D02*
X145881031Y-96283452D01*
X145881031Y-96283452D02*
X146022435Y-96283452D01*
D46*
X149706500Y-109700000D02*
X149706500Y-108285787D01*
X149706500Y-108285787D02*
X148523114Y-107102401D01*
X148523114Y-107102401D02*
X148523114Y-106523114D01*
D51*
X148523114Y-106523114D02*
X148523114Y-100570985D01*
X148523114Y-100570985D02*
X148523116Y-100570983D01*
X148523116Y-100570983D02*
X149416541Y-99677558D01*
D46*
X152210000Y-109700000D02*
X152210000Y-108249999D01*
X152210000Y-106150000D02*
X152210000Y-108249999D01*
D51*
X149982233Y-100243250D02*
X149323124Y-100902359D01*
X149323124Y-100902359D02*
X149323124Y-103263124D01*
X149323124Y-103263124D02*
X152210000Y-106150000D01*
D46*
X154750000Y-106335787D02*
X154750000Y-109700000D01*
D47*
X154750000Y-106335787D02*
X157512920Y-103572867D01*
X157512920Y-103572867D02*
X157512920Y-97450178D01*
X157512920Y-97450178D02*
X156911880Y-96849138D01*
D46*
X157250000Y-106335787D02*
X157250000Y-109700000D01*
D47*
X157250000Y-106335787D02*
X158203078Y-105382709D01*
X158203078Y-105382709D02*
X158203078Y-97008965D01*
X158203078Y-97008965D02*
X158078605Y-96884492D01*
X158078605Y-96884492D02*
X157477565Y-96283452D01*
D46*
X137213500Y-109700000D02*
X137213500Y-100425482D01*
X137213500Y-100425482D02*
X139737000Y-97901982D01*
D47*
X139737000Y-97901982D02*
X144891064Y-92747918D01*
D46*
X146900000Y-65250000D02*
X146900000Y-67250000D01*
D50*
X114750000Y-56664660D02*
X112500000Y-56664660D01*
X112500000Y-56664660D02*
X110085340Y-56664660D01*
D46*
X147750000Y-63600000D02*
X147750000Y-63250000D01*
X147100000Y-64250000D02*
X147750000Y-63600000D01*
D50*
X110085340Y-56664660D02*
X110000000Y-56750000D01*
X124750000Y-56664660D02*
X122500000Y-56664660D01*
X122500000Y-56664660D02*
X120085340Y-56664660D01*
X120085340Y-56664660D02*
X120000000Y-56750000D01*
X144750000Y-56664660D02*
X142250000Y-56664660D01*
X142250000Y-56664660D02*
X140085340Y-56664660D01*
X140085340Y-56664660D02*
X140000000Y-56750000D01*
X134750000Y-56664660D02*
X132250000Y-56664660D01*
X132250000Y-56664660D02*
X130085340Y-56664660D01*
X130085340Y-56664660D02*
X130000000Y-56750000D01*
X154750000Y-56664660D02*
X152500000Y-56664660D01*
X152500000Y-56664660D02*
X150335340Y-56664660D01*
D51*
X154500000Y-65000000D02*
X154500000Y-63250000D01*
X154500000Y-65000000D02*
X154500000Y-67250000D01*
D50*
X150335340Y-56664660D02*
X150000000Y-57000000D01*
X164750000Y-56664660D02*
X162500000Y-56664660D01*
X162500000Y-56664660D02*
X160085340Y-56664660D01*
D51*
X162750000Y-65000000D02*
X164000000Y-65000000D01*
X162750000Y-65000000D02*
X162750000Y-67250000D01*
D50*
X160085340Y-56664660D02*
X160000000Y-56750000D01*
D49*
X133000000Y-70750000D02*
X133000000Y-72000000D01*
X133000000Y-70750000D02*
X130125000Y-70750000D01*
X130125000Y-70750000D02*
X129225000Y-71650000D01*
X133000000Y-72000000D02*
X135500000Y-74500000D01*
X137750000Y-73250060D02*
X140750000Y-76250060D01*
X140750000Y-76250060D02*
X140750000Y-77500000D01*
X137750000Y-72875000D02*
X137750000Y-73250060D01*
X135500000Y-70750000D02*
X135625000Y-70750000D01*
X135625000Y-70750000D02*
X137750000Y-72875000D01*
X128575000Y-71650000D02*
X128575000Y-69675000D01*
X128575000Y-69675000D02*
X129000000Y-69250000D01*
X129000000Y-69250000D02*
X134000000Y-69250000D01*
X134000000Y-69250000D02*
X135500000Y-70750000D01*
X133000000Y-74500000D02*
X133000000Y-78197780D01*
X133000000Y-78197780D02*
X134802220Y-80000000D01*
X134802220Y-80000000D02*
X136552280Y-80000000D01*
X127925000Y-71650000D02*
X127925000Y-73675000D01*
X127925000Y-73675000D02*
X128750000Y-74500000D01*
X128750000Y-74500000D02*
X133000000Y-74500000D01*
D50*
X101960000Y-66850000D02*
X101920001Y-66810001D01*
X101920001Y-66810001D02*
X101099999Y-66810001D01*
X101099999Y-66810001D02*
X100150000Y-67760000D01*
X107250000Y-66850000D02*
X101960000Y-66850000D01*
D48*
X126700000Y-53000000D02*
X127450000Y-52250000D01*
D49*
X125325000Y-77600000D02*
X125325000Y-76075000D01*
X125325000Y-76075000D02*
X125300000Y-76050000D01*
D48*
X104898400Y-53839720D02*
X104898400Y-52899640D01*
X104898400Y-52899640D02*
X105000000Y-52798040D01*
D50*
X101238120Y-57500000D02*
X104898400Y-53839720D01*
D48*
X107240000Y-52500000D02*
X111000000Y-52500000D01*
X111000000Y-52500000D02*
X113045787Y-52500000D01*
X127450000Y-52250000D02*
X132795787Y-52250000D01*
X132795787Y-52250000D02*
X133585787Y-53040000D01*
X133585787Y-53040000D02*
X135000000Y-53040000D01*
X125000000Y-53000000D02*
X126700000Y-53000000D01*
X116954213Y-52500000D02*
X122800000Y-52500000D01*
X122800000Y-52500000D02*
X123300000Y-53000000D01*
X123300000Y-53000000D02*
X125000000Y-53000000D01*
X115000000Y-53040000D02*
X116414213Y-53040000D01*
X116414213Y-53040000D02*
X116954213Y-52500000D01*
X113045787Y-52500000D02*
X113585787Y-53040000D01*
X113585787Y-53040000D02*
X115000000Y-53040000D01*
X105000000Y-53040000D02*
X106700000Y-53040000D01*
X106700000Y-53040000D02*
X107240000Y-52500000D01*
D46*
X96500000Y-88600000D02*
X96500000Y-85699967D01*
X131400000Y-92050000D02*
X99950000Y-92050000D01*
X132600000Y-82200000D02*
X132600000Y-83350000D01*
X132600000Y-83350000D02*
X133200000Y-83950000D01*
X133200000Y-83950000D02*
X133200000Y-90250000D01*
X133200000Y-90250000D02*
X131400000Y-92050000D01*
X99950000Y-92050000D02*
X96500000Y-88600000D01*
D48*
X113300000Y-50500000D02*
X110000000Y-50500000D01*
X110000000Y-50500000D02*
X105000000Y-50500000D01*
D46*
X96449558Y-55550442D02*
X101500000Y-50500000D01*
X96449558Y-85649525D02*
X96449558Y-55550442D01*
X96500000Y-85699967D02*
X96449558Y-85649525D01*
D48*
X115000000Y-50500000D02*
X113300000Y-50500000D01*
D46*
X100200000Y-90950000D02*
X129850000Y-90950000D01*
X129850000Y-90950000D02*
X131850000Y-88950000D01*
X97200011Y-87950011D02*
X100200000Y-90950000D01*
X97200011Y-85410013D02*
X97200011Y-87950011D01*
X131850000Y-88950000D02*
X131850000Y-87300000D01*
X123599570Y-51000000D02*
X125000000Y-51000000D01*
X122011019Y-49411449D02*
X123599570Y-51000000D01*
X97149569Y-85359571D02*
X97149569Y-56341169D01*
X97200011Y-85410013D02*
X97149569Y-85359571D01*
X104079289Y-49411449D02*
X122011019Y-49411449D01*
X97149569Y-56341169D02*
X104079289Y-49411449D01*
D48*
X125000000Y-50460000D02*
X134960000Y-50460000D01*
X134960000Y-50460000D02*
X135000000Y-50500000D01*
D46*
X99000000Y-57900000D02*
X99000000Y-56901960D01*
X99000000Y-56901960D02*
X100101960Y-55800000D01*
D48*
X111850000Y-61610000D02*
X113975340Y-61610000D01*
X113975340Y-61610000D02*
X114750000Y-60835340D01*
X121850000Y-61610000D02*
X123975340Y-61610000D01*
X123975340Y-61610000D02*
X124750000Y-60835340D01*
X141850000Y-61610000D02*
X143975340Y-61610000D01*
X143975340Y-61610000D02*
X144750000Y-60835340D01*
X131850000Y-61610000D02*
X133975340Y-61610000D01*
X133975340Y-61610000D02*
X134750000Y-60835340D01*
X151850000Y-61610000D02*
X153975340Y-61610000D01*
X153975340Y-61610000D02*
X154750000Y-60835340D01*
X161850000Y-61610000D02*
X163975340Y-61610000D01*
X163975340Y-61610000D02*
X164750000Y-60835340D01*
X112498528Y-65150000D02*
X118498528Y-65150000D01*
D52*
X122702336Y-66853808D02*
X123374999Y-67526471D01*
X123374999Y-71399999D02*
X123375000Y-71400000D01*
X123374999Y-67526471D02*
X123374999Y-71399999D01*
D48*
X122248528Y-66400000D02*
X122702336Y-66853808D01*
X119748528Y-66400000D02*
X122248528Y-66400000D01*
X118498528Y-65150000D02*
X119748528Y-66400000D01*
X110349999Y-63001471D02*
X112498528Y-65150000D01*
X110450000Y-61610000D02*
X110349999Y-61710001D01*
X110349999Y-61710001D02*
X110349999Y-63001471D01*
D52*
X122205280Y-68053808D02*
X122725001Y-68573529D01*
X122725001Y-68573529D02*
X122725001Y-71399999D01*
X122725001Y-71399999D02*
X122725000Y-71400000D01*
D48*
X121751472Y-67600000D02*
X122205280Y-68053808D01*
X119251472Y-67600000D02*
X121751472Y-67600000D01*
X118001472Y-66350000D02*
X119251472Y-67600000D01*
X112001472Y-66350000D02*
X118001472Y-66350000D01*
X109150001Y-63498529D02*
X112001472Y-66350000D01*
X109050000Y-61610000D02*
X109150001Y-61710001D01*
X109150001Y-61710001D02*
X109150001Y-63498529D01*
D52*
X126701945Y-65646583D02*
X125974999Y-66373529D01*
X125974999Y-66373529D02*
X125974999Y-71399999D01*
X125974999Y-71399999D02*
X125975000Y-71400000D01*
D48*
X126998528Y-65350000D02*
X126701945Y-65646583D01*
X128248528Y-65350000D02*
X126998528Y-65350000D01*
X130349999Y-63248529D02*
X128248528Y-65350000D01*
X130349999Y-61710001D02*
X130349999Y-63248529D01*
X130450000Y-61610000D02*
X130349999Y-61710001D01*
D52*
X126204889Y-64446583D02*
X125325001Y-65326471D01*
X125325001Y-65326471D02*
X125325001Y-71399999D01*
X125325001Y-71399999D02*
X125325000Y-71400000D01*
D48*
X126501472Y-64150000D02*
X126204889Y-64446583D01*
X127751472Y-64150000D02*
X126501472Y-64150000D01*
X129150001Y-62751471D02*
X127751472Y-64150000D01*
X129150001Y-61710001D02*
X129150001Y-62751471D01*
X129050000Y-61610000D02*
X129150001Y-61710001D01*
D52*
X124389962Y-64541434D02*
X124674999Y-64826471D01*
X124692895Y-66072801D02*
X124674999Y-66090697D01*
X124674999Y-71399999D02*
X124675000Y-71400000D01*
X124674999Y-64826471D02*
X124674999Y-65392171D01*
X124674999Y-65392171D02*
X124692895Y-65410067D01*
X124692895Y-65410067D02*
X124692895Y-66072801D01*
X124674999Y-66090697D02*
X124674999Y-71399999D01*
D48*
X123998528Y-64150000D02*
X124389962Y-64541434D01*
X121838528Y-64150000D02*
X123998528Y-64150000D01*
X120349999Y-62661471D02*
X121838528Y-64150000D01*
X120450000Y-61610000D02*
X120349999Y-61710001D01*
X120349999Y-61710001D02*
X120349999Y-62661471D01*
D52*
X123892906Y-65741434D02*
X124025001Y-65873529D01*
X124025001Y-65873529D02*
X124025001Y-71399999D01*
X124025001Y-71399999D02*
X124025000Y-71400000D01*
D48*
X123501472Y-65350000D02*
X123892906Y-65741434D01*
X121341472Y-65350000D02*
X123501472Y-65350000D01*
X119150001Y-63158529D02*
X121341472Y-65350000D01*
X119050000Y-61610000D02*
X119150001Y-61710001D01*
X119150001Y-61710001D02*
X119150001Y-63158529D01*
D52*
X128180434Y-67918094D02*
X127274999Y-68823529D01*
X127274999Y-68823529D02*
X127274999Y-71399999D01*
X127274999Y-71399999D02*
X127275000Y-71400000D01*
D48*
X128498528Y-67600000D02*
X128180434Y-67918094D01*
X130248528Y-67600000D02*
X128498528Y-67600000D01*
X131498528Y-66350000D02*
X130248528Y-67600000D01*
X137498528Y-66350000D02*
X131498528Y-66350000D01*
X140349999Y-63498529D02*
X137498528Y-66350000D01*
X140349999Y-61710001D02*
X140349999Y-63498529D01*
X140450000Y-61610000D02*
X140349999Y-61710001D01*
D52*
X126841336Y-67420314D02*
X126625001Y-67636649D01*
X126625001Y-67636649D02*
X126625001Y-71399999D01*
X126625001Y-71399999D02*
X126625000Y-71400000D01*
D48*
X129751472Y-66400000D02*
X127861650Y-66400000D01*
X139050000Y-61610000D02*
X139150001Y-61710001D01*
X127580089Y-66681561D02*
X126841336Y-67420314D01*
X139150001Y-61710001D02*
X139150001Y-63001471D01*
X139150001Y-63001471D02*
X137001472Y-65150000D01*
X137001472Y-65150000D02*
X131001472Y-65150000D01*
X131001472Y-65150000D02*
X129751472Y-66400000D01*
X127861650Y-66400000D02*
X127580089Y-66681561D01*
D49*
X126625000Y-77600000D02*
X126625000Y-78825000D01*
X126625000Y-78825000D02*
X130000000Y-82200000D01*
X130000000Y-82200000D02*
X130700000Y-82200000D01*
X131850000Y-85400000D02*
X131850000Y-85119337D01*
X131850000Y-85119337D02*
X125975000Y-79244337D01*
X125975000Y-79244337D02*
X125975000Y-78500000D01*
X125975000Y-78500000D02*
X125975000Y-77600000D01*
X127925000Y-77600000D02*
X127925000Y-78500000D01*
X127925000Y-78500000D02*
X129475000Y-80050000D01*
X129475000Y-80050000D02*
X130000000Y-80050000D01*
X130000000Y-80050000D02*
X130700000Y-80050000D01*
X123375000Y-80597171D02*
X126630639Y-83852810D01*
X127418929Y-84725000D02*
X127925000Y-84725000D01*
X128650000Y-85450000D02*
X128950000Y-85450000D01*
X123375000Y-77350000D02*
X123375000Y-80597171D01*
X127925000Y-84725000D02*
X128650000Y-85450000D01*
X126630639Y-83852810D02*
X126630639Y-83936710D01*
X126630639Y-83936710D02*
X127418929Y-84725000D01*
X124550000Y-85450000D02*
X124550000Y-83327832D01*
X124550000Y-83327832D02*
X122075000Y-80852832D01*
X122075000Y-80852832D02*
X122075000Y-78850000D01*
X122075000Y-78850000D02*
X122075000Y-77350000D01*
D47*
X116350000Y-78250000D02*
X117550000Y-78250000D01*
X117550000Y-78250000D02*
X120775000Y-75025000D01*
X120775000Y-75025000D02*
X120775000Y-72975000D01*
X120775000Y-72975000D02*
X120775000Y-71650000D01*
D49*
X125750000Y-84750000D02*
X126450000Y-85450000D01*
X122725000Y-80725001D02*
X125750000Y-83750001D01*
X125750000Y-83750001D02*
X125750000Y-84750000D01*
X122725000Y-77350000D02*
X122725000Y-80725001D01*
X126450000Y-85450000D02*
X126750000Y-85450000D01*
X129225000Y-76475000D02*
X129225000Y-77600000D01*
D46*
X120000000Y-69500000D02*
X116250000Y-73250000D01*
X116250000Y-73250000D02*
X116250000Y-75500000D01*
D47*
X121250000Y-69500000D02*
X120000000Y-69500000D01*
X122075000Y-71650000D02*
X122075000Y-70325000D01*
X122075000Y-70325000D02*
X121250000Y-69500000D01*
D49*
X122075000Y-71650000D02*
X122075000Y-73075000D01*
X128250000Y-75500000D02*
X129225000Y-76475000D01*
X125750000Y-75500000D02*
X128250000Y-75500000D01*
X124250000Y-74000000D02*
X125750000Y-75500000D01*
X123000000Y-74000000D02*
X124250000Y-74000000D01*
X122075000Y-73075000D02*
X123000000Y-74000000D01*
X120775001Y-78850001D02*
X120775000Y-78250000D01*
X120775000Y-78250000D02*
X120775000Y-77350000D01*
X120600000Y-81750000D02*
X120775001Y-81574999D01*
X120775001Y-81574999D02*
X120775001Y-78850001D01*
X120775001Y-78850001D02*
X120775000Y-78850000D01*
D48*
X120600000Y-83730762D02*
X120600000Y-81750000D01*
X119480762Y-84850000D02*
X120600000Y-83730762D01*
X110519238Y-84850000D02*
X119480762Y-84850000D01*
X109399489Y-83730251D02*
X110519238Y-84850000D01*
X109748980Y-82790000D02*
X109399489Y-83139491D01*
X109399489Y-83139491D02*
X109399489Y-83730251D01*
D49*
X121424999Y-78850001D02*
X121425000Y-78250000D01*
X121425000Y-78250000D02*
X121425000Y-77350000D01*
X121900000Y-81750000D02*
X121424999Y-81274999D01*
X121424999Y-81274999D02*
X121424999Y-78850001D01*
X121424999Y-78850001D02*
X121425000Y-78850000D01*
D48*
X121900000Y-84269238D02*
X121900000Y-81750000D01*
X120019238Y-86150000D02*
X121900000Y-84269238D01*
X109980762Y-86150000D02*
X120019238Y-86150000D01*
X108099491Y-84268729D02*
X109980762Y-86150000D01*
X107750000Y-82790000D02*
X108099491Y-83139491D01*
X108099491Y-83139491D02*
X108099491Y-84268729D01*
D46*
X147206500Y-109700000D02*
X147206500Y-108285787D01*
X147206500Y-108285787D02*
X144406498Y-105485785D01*
X144406498Y-105485785D02*
X144406498Y-104906498D01*
X144406498Y-99156498D02*
X144406498Y-104906498D01*
D47*
X146588120Y-96849138D02*
X146588120Y-96974876D01*
X146588120Y-96974876D02*
X144406498Y-99156498D01*
X113150000Y-105800000D02*
X113150000Y-106100000D01*
X113150000Y-106100000D02*
X111979999Y-107270001D01*
X111979999Y-107270001D02*
X111979999Y-107559999D01*
X111979999Y-107559999D02*
X111979999Y-108250000D01*
X114300000Y-100100000D02*
X118250000Y-100100000D01*
D48*
X106860000Y-108680000D02*
X109960300Y-108680000D01*
X109960300Y-108680000D02*
X110420300Y-108220000D01*
X110420300Y-108220000D02*
X113754999Y-108220000D01*
D50*
X110900000Y-102800000D02*
X109000000Y-102800000D01*
X109000000Y-102800000D02*
X107950000Y-101750000D01*
X106860000Y-108680000D02*
X106860000Y-102840000D01*
X106860000Y-102840000D02*
X107950000Y-101750000D01*
D47*
X114300000Y-100100000D02*
X113250000Y-100100000D01*
X113250000Y-100100000D02*
X110900000Y-102450000D01*
X110900000Y-102450000D02*
X110900000Y-102800000D01*
X114750000Y-103550000D02*
X115600000Y-102700000D01*
X115600000Y-102700000D02*
X118250000Y-102700000D01*
X128000000Y-102675000D02*
X129750000Y-102675000D01*
X129750000Y-102675000D02*
X131000000Y-102675000D01*
X129800000Y-102725000D02*
X129750000Y-102675000D01*
X129800000Y-104150000D02*
X129800000Y-102725000D01*
X126825000Y-102675000D02*
X128000000Y-102675000D01*
D46*
X117622500Y-110800000D02*
X119150000Y-110800000D01*
X117450000Y-110790000D02*
X117612500Y-110790000D01*
X117612500Y-110790000D02*
X117622500Y-110800000D01*
D47*
X125150000Y-102050000D02*
X126200000Y-102050000D01*
X131000000Y-102675000D02*
X131950000Y-101725000D01*
X126200000Y-102050000D02*
X126825000Y-102675000D01*
X131950000Y-101725000D02*
X131950000Y-101600000D01*
X135750000Y-99840002D02*
X135270001Y-99840002D01*
X131950000Y-101600000D02*
X133990002Y-101600000D01*
X133990002Y-101600000D02*
X135750000Y-99840002D01*
X117450000Y-110790000D02*
X117450000Y-112060000D01*
X117450000Y-109520000D02*
X117450000Y-110790000D01*
X125150000Y-100750000D02*
X129100000Y-100750000D01*
X129100000Y-100750000D02*
X129950000Y-101600000D01*
X110850000Y-100750000D02*
X112150000Y-99450000D01*
X112150000Y-99450000D02*
X118300000Y-99450000D01*
X118300000Y-99450000D02*
X118250000Y-99450000D01*
D51*
X132200000Y-109251540D02*
X132200000Y-104600000D01*
X131701640Y-109749900D02*
X132200000Y-109251540D01*
X122600000Y-109400000D02*
X131351740Y-109400000D01*
X131701640Y-109749900D02*
X131701640Y-111150000D01*
X131351740Y-109400000D02*
X131701640Y-109749900D01*
X122600000Y-112400000D02*
X122600000Y-109400000D01*
D46*
X112750000Y-97700000D02*
X116800000Y-97700000D01*
X111900000Y-96850000D02*
X112750000Y-97700000D01*
X105100000Y-96850000D02*
X111900000Y-96850000D01*
D51*
X120600000Y-112400000D02*
X120600000Y-112525000D01*
X120600000Y-112525000D02*
X121600001Y-113525001D01*
X121600001Y-113525001D02*
X125225099Y-113525001D01*
X125225099Y-113525001D02*
X126200000Y-112550100D01*
X126200000Y-112550100D02*
X126200000Y-111150000D01*
X120600000Y-109400000D02*
X120600000Y-112400000D01*
X120600000Y-106550000D02*
X120600000Y-109400000D01*
D47*
X119100000Y-106550000D02*
X120600000Y-106550000D01*
X116934998Y-101000000D02*
X116600000Y-101000000D01*
X118250000Y-101400000D02*
X117334998Y-101400000D01*
X117334998Y-101400000D02*
X116934998Y-101000000D01*
D46*
X100150000Y-96860000D02*
X103190000Y-96860000D01*
X103190000Y-96860000D02*
X103200000Y-96850000D01*
D50*
X110520000Y-69400000D02*
X110520000Y-68220000D01*
X110520000Y-68220000D02*
X109150000Y-66850000D01*
X108129320Y-72150000D02*
X108129320Y-71790680D01*
X108129320Y-71790680D02*
X110520000Y-69400000D01*
X112300000Y-72150000D02*
X112300000Y-77698980D01*
X112300000Y-77698980D02*
X109748980Y-80250000D01*
D47*
X115050000Y-105800000D02*
X115800000Y-105800000D01*
X115800000Y-105800000D02*
X118250000Y-103350000D01*
X127900000Y-104150000D02*
X127100000Y-104150000D01*
X127100000Y-104150000D02*
X126300000Y-103350000D01*
X125419252Y-103350000D02*
X125394243Y-103375009D01*
X126300000Y-103350000D02*
X125419252Y-103350000D01*
X125394243Y-103375009D02*
X125150000Y-103375009D01*
X119300000Y-108250000D02*
X117450000Y-108250000D01*
X125150000Y-101400000D02*
X127100000Y-101400000D01*
X127100000Y-101400000D02*
X127450000Y-101750000D01*
X125150000Y-100100000D02*
X126065002Y-100100000D01*
X126065002Y-100100000D02*
X126535002Y-99630000D01*
X126535002Y-99630000D02*
X129800000Y-99630000D01*
D46*
X124700010Y-79400000D02*
X128200010Y-82900000D01*
X128200010Y-82900000D02*
X128450000Y-82900000D01*
D49*
X124675000Y-75675000D02*
X124675000Y-75675998D01*
X124675000Y-75675998D02*
X124624999Y-75725999D01*
X124624999Y-75725999D02*
X124624999Y-76649999D01*
X124624999Y-76649999D02*
X124675000Y-76700000D01*
X124675000Y-77600000D02*
X124700010Y-79400000D01*
X124675000Y-76700000D02*
X124675000Y-77600000D01*
X121425000Y-71650000D02*
X121425000Y-73425000D01*
X123750000Y-74750000D02*
X124675000Y-75675000D01*
X122750000Y-74750000D02*
X123750000Y-74750000D01*
X121425000Y-73425000D02*
X122750000Y-74750000D01*
D46*
X158900000Y-90300000D02*
X158794113Y-90300000D01*
X158794113Y-90300000D02*
X157477565Y-91616548D01*
X158700000Y-89400000D02*
X158562742Y-89400000D01*
X158562742Y-89400000D02*
X156911880Y-91050862D01*
D53*
G36*
X123623000Y-104523000D02*
X119827000Y-104523000D01*
X119827000Y-98277000D01*
X123623000Y-98277000D01*
X123623000Y-104523000D01*
X123623000Y-104523000D01*
G37*
X123623000Y-104523000D02*
X119827000Y-104523000D01*
X119827000Y-98277000D01*
X123623000Y-98277000D01*
X123623000Y-104523000D01*
M02*
