G04 #@! TF.FileFunction,Paste,Top*
%FSLAX46Y46*%
G04 Gerber Fmt 4.6, Leading zero omitted, Abs format (unit mm)*
G04 Created by KiCad (PCBNEW 4.0.1-stable) date 07.06.2016 17:51:43*
%MOMM*%
G01*
G04 APERTURE LIST*
%ADD10C,0.100000*%
%ADD11R,0.400000X1.100000*%
%ADD12R,1.198880X1.198880*%
%ADD13R,1.300480X1.699260*%
%ADD14R,1.200000X0.400000*%
%ADD15R,1.000000X0.675000*%
%ADD16R,4.295000X4.510000*%
%ADD17R,1.000000X1.250000*%
%ADD18R,0.700000X1.300000*%
%ADD19R,3.599180X1.600200*%
%ADD20R,1.250000X1.000000*%
%ADD21R,1.600000X1.000000*%
%ADD22R,2.000000X1.300000*%
%ADD23R,1.250000X1.500000*%
%ADD24R,1.500000X1.250000*%
%ADD25R,2.029460X2.651760*%
%ADD26R,2.651760X2.029460*%
%ADD27R,1.300000X0.700000*%
%ADD28R,0.650000X1.060000*%
%ADD29R,2.500000X2.500000*%
%ADD30R,0.910000X1.220000*%
%ADD31R,1.500000X1.300000*%
%ADD32R,1.300000X1.500000*%
G04 APERTURE END LIST*
D10*
D11*
X129225000Y-71900000D03*
X128575000Y-71900000D03*
X127925000Y-71900000D03*
X127275000Y-71900000D03*
X126625000Y-71900000D03*
X125975000Y-71900000D03*
X125325000Y-71900000D03*
X124675000Y-71900000D03*
X124025000Y-71900000D03*
X123375000Y-71900000D03*
X122725000Y-71900000D03*
X122075000Y-71900000D03*
X121425000Y-71900000D03*
X120775000Y-71900000D03*
X120775000Y-77600000D03*
X121425000Y-77600000D03*
X122075000Y-77600000D03*
X122725000Y-77600000D03*
X123375000Y-77600000D03*
X124025000Y-77600000D03*
X124675000Y-77600000D03*
X125325000Y-77600000D03*
X125975000Y-77600000D03*
X126625000Y-77600000D03*
X127275000Y-77600000D03*
X127925000Y-77600000D03*
X128575000Y-77600000D03*
X129225000Y-77600000D03*
D12*
X102200000Y-55800000D03*
X100101960Y-55800000D03*
D13*
X101400000Y-64350000D03*
X104900120Y-64350000D03*
D12*
X134960000Y-52928880D03*
X134960000Y-50830840D03*
X125000000Y-51370840D03*
X125000000Y-53468880D03*
X115000000Y-53129160D03*
X115000000Y-51031120D03*
X105000000Y-50700000D03*
X105000000Y-52798040D03*
D14*
X118250000Y-99450000D03*
X118250000Y-100100000D03*
X118250000Y-100750000D03*
X118250000Y-101400000D03*
X118250000Y-102050000D03*
X118250000Y-102700000D03*
X118250000Y-103350000D03*
X125150000Y-103350000D03*
X125150000Y-102700000D03*
X125150000Y-102050000D03*
X125150000Y-101400000D03*
X125150000Y-100750000D03*
X125150000Y-100100000D03*
X125150000Y-99450000D03*
D15*
X129800000Y-95820000D03*
X129800000Y-97090000D03*
X129800000Y-98360000D03*
X129800000Y-99630000D03*
X135050000Y-99630000D03*
X135050000Y-98360000D03*
X135050000Y-97090000D03*
X135050000Y-95820000D03*
D16*
X132697500Y-97725000D03*
D15*
X117450000Y-112060000D03*
X117450000Y-110790000D03*
X117450000Y-109520000D03*
X117450000Y-108250000D03*
X112200000Y-108250000D03*
X112200000Y-109520000D03*
X112200000Y-110790000D03*
X112200000Y-112060000D03*
D16*
X114552500Y-110155000D03*
D17*
X122600000Y-106550000D03*
X120600000Y-106550000D03*
X120600000Y-109400000D03*
X122600000Y-109400000D03*
D18*
X129800000Y-104150000D03*
X127900000Y-104150000D03*
X115050000Y-105800000D03*
X113150000Y-105800000D03*
D19*
X131701640Y-111150000D03*
X126200000Y-111150000D03*
D17*
X122600000Y-112400000D03*
X120600000Y-112400000D03*
D20*
X110850000Y-98750000D03*
X110850000Y-100750000D03*
D17*
X131950000Y-101600000D03*
X129950000Y-101600000D03*
D20*
X114750000Y-103550000D03*
X114750000Y-101550000D03*
X110900000Y-102800000D03*
X110900000Y-104800000D03*
D21*
X107950000Y-101750000D03*
X107950000Y-98750000D03*
D22*
X140750000Y-77500000D03*
X136750000Y-77500000D03*
X136750000Y-79900000D03*
X140750000Y-79900000D03*
D23*
X104313575Y-62029999D03*
X104313575Y-59529999D03*
D10*
G36*
X144555188Y-95876866D02*
X144166280Y-95487958D01*
X145226940Y-94427298D01*
X145615848Y-94816206D01*
X144555188Y-95876866D01*
X144555188Y-95876866D01*
G37*
G36*
X145120874Y-96442551D02*
X144731966Y-96053643D01*
X145792626Y-94992983D01*
X146181534Y-95381891D01*
X145120874Y-96442551D01*
X145120874Y-96442551D01*
G37*
G36*
X145686559Y-97008236D02*
X145297651Y-96619328D01*
X146358311Y-95558668D01*
X146747219Y-95947576D01*
X145686559Y-97008236D01*
X145686559Y-97008236D01*
G37*
G36*
X146252244Y-97573922D02*
X145863336Y-97185014D01*
X146923996Y-96124354D01*
X147312904Y-96513262D01*
X146252244Y-97573922D01*
X146252244Y-97573922D01*
G37*
G36*
X146817930Y-98139607D02*
X146429022Y-97750699D01*
X147489682Y-96690039D01*
X147878590Y-97078947D01*
X146817930Y-98139607D01*
X146817930Y-98139607D01*
G37*
G36*
X147383615Y-98705293D02*
X146994707Y-98316385D01*
X148055367Y-97255725D01*
X148444275Y-97644633D01*
X147383615Y-98705293D01*
X147383615Y-98705293D01*
G37*
G36*
X147949301Y-99270978D02*
X147560393Y-98882070D01*
X148621053Y-97821410D01*
X149009961Y-98210318D01*
X147949301Y-99270978D01*
X147949301Y-99270978D01*
G37*
G36*
X148514986Y-99836664D02*
X148126078Y-99447756D01*
X149186738Y-98387096D01*
X149575646Y-98776004D01*
X148514986Y-99836664D01*
X148514986Y-99836664D01*
G37*
G36*
X149080672Y-100402349D02*
X148691764Y-100013441D01*
X149752424Y-98952781D01*
X150141332Y-99341689D01*
X149080672Y-100402349D01*
X149080672Y-100402349D01*
G37*
G36*
X149646357Y-100968034D02*
X149257449Y-100579126D01*
X150318109Y-99518466D01*
X150707017Y-99907374D01*
X149646357Y-100968034D01*
X149646357Y-100968034D01*
G37*
G36*
X150212042Y-101533720D02*
X149823134Y-101144812D01*
X150883794Y-100084152D01*
X151272702Y-100473060D01*
X150212042Y-101533720D01*
X150212042Y-101533720D01*
G37*
G36*
X153676866Y-101144812D02*
X153287958Y-101533720D01*
X152227298Y-100473060D01*
X152616206Y-100084152D01*
X153676866Y-101144812D01*
X153676866Y-101144812D01*
G37*
G36*
X154242551Y-100579126D02*
X153853643Y-100968034D01*
X152792983Y-99907374D01*
X153181891Y-99518466D01*
X154242551Y-100579126D01*
X154242551Y-100579126D01*
G37*
G36*
X154808236Y-100013441D02*
X154419328Y-100402349D01*
X153358668Y-99341689D01*
X153747576Y-98952781D01*
X154808236Y-100013441D01*
X154808236Y-100013441D01*
G37*
G36*
X155373922Y-99447756D02*
X154985014Y-99836664D01*
X153924354Y-98776004D01*
X154313262Y-98387096D01*
X155373922Y-99447756D01*
X155373922Y-99447756D01*
G37*
G36*
X155939607Y-98882070D02*
X155550699Y-99270978D01*
X154490039Y-98210318D01*
X154878947Y-97821410D01*
X155939607Y-98882070D01*
X155939607Y-98882070D01*
G37*
G36*
X156505293Y-98316385D02*
X156116385Y-98705293D01*
X155055725Y-97644633D01*
X155444633Y-97255725D01*
X156505293Y-98316385D01*
X156505293Y-98316385D01*
G37*
G36*
X157070978Y-97750699D02*
X156682070Y-98139607D01*
X155621410Y-97078947D01*
X156010318Y-96690039D01*
X157070978Y-97750699D01*
X157070978Y-97750699D01*
G37*
G36*
X157636664Y-97185014D02*
X157247756Y-97573922D01*
X156187096Y-96513262D01*
X156576004Y-96124354D01*
X157636664Y-97185014D01*
X157636664Y-97185014D01*
G37*
G36*
X158202349Y-96619328D02*
X157813441Y-97008236D01*
X156752781Y-95947576D01*
X157141689Y-95558668D01*
X158202349Y-96619328D01*
X158202349Y-96619328D01*
G37*
G36*
X158768034Y-96053643D02*
X158379126Y-96442551D01*
X157318466Y-95381891D01*
X157707374Y-94992983D01*
X158768034Y-96053643D01*
X158768034Y-96053643D01*
G37*
G36*
X159333720Y-95487958D02*
X158944812Y-95876866D01*
X157884152Y-94816206D01*
X158273060Y-94427298D01*
X159333720Y-95487958D01*
X159333720Y-95487958D01*
G37*
G36*
X158273060Y-93472702D02*
X157884152Y-93083794D01*
X158944812Y-92023134D01*
X159333720Y-92412042D01*
X158273060Y-93472702D01*
X158273060Y-93472702D01*
G37*
G36*
X157707374Y-92907017D02*
X157318466Y-92518109D01*
X158379126Y-91457449D01*
X158768034Y-91846357D01*
X157707374Y-92907017D01*
X157707374Y-92907017D01*
G37*
G36*
X157141689Y-92341332D02*
X156752781Y-91952424D01*
X157813441Y-90891764D01*
X158202349Y-91280672D01*
X157141689Y-92341332D01*
X157141689Y-92341332D01*
G37*
G36*
X156576004Y-91775646D02*
X156187096Y-91386738D01*
X157247756Y-90326078D01*
X157636664Y-90714986D01*
X156576004Y-91775646D01*
X156576004Y-91775646D01*
G37*
G36*
X156010318Y-91209961D02*
X155621410Y-90821053D01*
X156682070Y-89760393D01*
X157070978Y-90149301D01*
X156010318Y-91209961D01*
X156010318Y-91209961D01*
G37*
G36*
X155444633Y-90644275D02*
X155055725Y-90255367D01*
X156116385Y-89194707D01*
X156505293Y-89583615D01*
X155444633Y-90644275D01*
X155444633Y-90644275D01*
G37*
G36*
X154878947Y-90078590D02*
X154490039Y-89689682D01*
X155550699Y-88629022D01*
X155939607Y-89017930D01*
X154878947Y-90078590D01*
X154878947Y-90078590D01*
G37*
G36*
X154313262Y-89512904D02*
X153924354Y-89123996D01*
X154985014Y-88063336D01*
X155373922Y-88452244D01*
X154313262Y-89512904D01*
X154313262Y-89512904D01*
G37*
G36*
X153747576Y-88947219D02*
X153358668Y-88558311D01*
X154419328Y-87497651D01*
X154808236Y-87886559D01*
X153747576Y-88947219D01*
X153747576Y-88947219D01*
G37*
G36*
X153181891Y-88381534D02*
X152792983Y-87992626D01*
X153853643Y-86931966D01*
X154242551Y-87320874D01*
X153181891Y-88381534D01*
X153181891Y-88381534D01*
G37*
G36*
X152616206Y-87815848D02*
X152227298Y-87426940D01*
X153287958Y-86366280D01*
X153676866Y-86755188D01*
X152616206Y-87815848D01*
X152616206Y-87815848D01*
G37*
G36*
X151272702Y-87426940D02*
X150883794Y-87815848D01*
X149823134Y-86755188D01*
X150212042Y-86366280D01*
X151272702Y-87426940D01*
X151272702Y-87426940D01*
G37*
G36*
X150707017Y-87992626D02*
X150318109Y-88381534D01*
X149257449Y-87320874D01*
X149646357Y-86931966D01*
X150707017Y-87992626D01*
X150707017Y-87992626D01*
G37*
G36*
X150141332Y-88558311D02*
X149752424Y-88947219D01*
X148691764Y-87886559D01*
X149080672Y-87497651D01*
X150141332Y-88558311D01*
X150141332Y-88558311D01*
G37*
G36*
X149575646Y-89123996D02*
X149186738Y-89512904D01*
X148126078Y-88452244D01*
X148514986Y-88063336D01*
X149575646Y-89123996D01*
X149575646Y-89123996D01*
G37*
G36*
X149009961Y-89689682D02*
X148621053Y-90078590D01*
X147560393Y-89017930D01*
X147949301Y-88629022D01*
X149009961Y-89689682D01*
X149009961Y-89689682D01*
G37*
G36*
X148444275Y-90255367D02*
X148055367Y-90644275D01*
X146994707Y-89583615D01*
X147383615Y-89194707D01*
X148444275Y-90255367D01*
X148444275Y-90255367D01*
G37*
G36*
X147878590Y-90821053D02*
X147489682Y-91209961D01*
X146429022Y-90149301D01*
X146817930Y-89760393D01*
X147878590Y-90821053D01*
X147878590Y-90821053D01*
G37*
G36*
X147312904Y-91386738D02*
X146923996Y-91775646D01*
X145863336Y-90714986D01*
X146252244Y-90326078D01*
X147312904Y-91386738D01*
X147312904Y-91386738D01*
G37*
G36*
X146747219Y-91952424D02*
X146358311Y-92341332D01*
X145297651Y-91280672D01*
X145686559Y-90891764D01*
X146747219Y-91952424D01*
X146747219Y-91952424D01*
G37*
G36*
X146181534Y-92518109D02*
X145792626Y-92907017D01*
X144731966Y-91846357D01*
X145120874Y-91457449D01*
X146181534Y-92518109D01*
X146181534Y-92518109D01*
G37*
G36*
X145615848Y-93083794D02*
X145226940Y-93472702D01*
X144166280Y-92412042D01*
X144555188Y-92023134D01*
X145615848Y-93083794D01*
X145615848Y-93083794D01*
G37*
D17*
X162000000Y-92250000D03*
X164000000Y-92250000D03*
D18*
X145000000Y-65000000D03*
X146900000Y-65000000D03*
D24*
X133000000Y-70750000D03*
X135500000Y-70750000D03*
X135500000Y-74500000D03*
X133000000Y-74500000D03*
D25*
X114750000Y-56664660D03*
X114750000Y-60835340D03*
X124750000Y-56664660D03*
X124750000Y-60835340D03*
X144750000Y-60835340D03*
X144750000Y-56664660D03*
X134750000Y-60835340D03*
X134750000Y-56664660D03*
D26*
X108129320Y-72150000D03*
X112300000Y-72150000D03*
D25*
X154750000Y-60835340D03*
X154750000Y-56664660D03*
X164750000Y-60835340D03*
X164750000Y-56664660D03*
D20*
X149500000Y-63750000D03*
X149500000Y-65750000D03*
X155250000Y-72500000D03*
X155250000Y-74500000D03*
X147750000Y-71750000D03*
X147750000Y-73750000D03*
X159500000Y-87250000D03*
X159500000Y-85250000D03*
X157250000Y-63750000D03*
X157250000Y-65750000D03*
X163750000Y-72250000D03*
X163750000Y-74250000D03*
X165500000Y-64000000D03*
X165500000Y-66000000D03*
D27*
X149500000Y-67500000D03*
X149500000Y-69400000D03*
X157250000Y-67500000D03*
X157250000Y-69400000D03*
D18*
X152600000Y-65000000D03*
X154500000Y-65000000D03*
D27*
X165500000Y-67750000D03*
X165500000Y-69650000D03*
D18*
X160850000Y-65000000D03*
X162750000Y-65000000D03*
D28*
X145000000Y-69500000D03*
X145950000Y-69500000D03*
X146900000Y-69500000D03*
X146900000Y-67300000D03*
X145000000Y-67300000D03*
X152600000Y-69450000D03*
X153550000Y-69450000D03*
X154500000Y-69450000D03*
X154500000Y-67250000D03*
X152600000Y-67250000D03*
X160850000Y-69450000D03*
X161800000Y-69450000D03*
X162750000Y-69450000D03*
X162750000Y-67250000D03*
X160850000Y-67250000D03*
D29*
X163200000Y-89400000D03*
X163200000Y-85900000D03*
D30*
X107250000Y-69400000D03*
X110520000Y-69400000D03*
D27*
X145500000Y-71750000D03*
X145500000Y-73650000D03*
D10*
G36*
X146457107Y-100287868D02*
X145537868Y-101207107D01*
X145042893Y-100712132D01*
X145962132Y-99792893D01*
X146457107Y-100287868D01*
X146457107Y-100287868D01*
G37*
G36*
X145113605Y-98944366D02*
X144194366Y-99863605D01*
X143699391Y-99368630D01*
X144618630Y-98449391D01*
X145113605Y-98944366D01*
X145113605Y-98944366D01*
G37*
D27*
X153000000Y-72500000D03*
X153000000Y-74400000D03*
X161000000Y-72350000D03*
X161000000Y-74250000D03*
D23*
X110000000Y-54250000D03*
X110000000Y-56750000D03*
X120000000Y-54250000D03*
X120000000Y-56750000D03*
X140000000Y-54250000D03*
X140000000Y-56750000D03*
X130000000Y-54250000D03*
X130000000Y-56750000D03*
X150000000Y-54250000D03*
X150000000Y-56750000D03*
X160000000Y-54250000D03*
X160000000Y-56750000D03*
X101813575Y-62029999D03*
X101813575Y-59529999D03*
D24*
X116250000Y-75500000D03*
X113750000Y-75500000D03*
D31*
X109550000Y-66850000D03*
X106850000Y-66850000D03*
X133000000Y-82200000D03*
X130300000Y-82200000D03*
D32*
X131850000Y-87700000D03*
X131850000Y-85000000D03*
X99000000Y-57500000D03*
X99000000Y-60200000D03*
D31*
X133000000Y-80050000D03*
X130300000Y-80050000D03*
D32*
X128950000Y-87750000D03*
X128950000Y-85050000D03*
X124550000Y-87750000D03*
X124550000Y-85050000D03*
D31*
X116350000Y-78250000D03*
X113650000Y-78250000D03*
D32*
X126750000Y-87750000D03*
X126750000Y-85050000D03*
D31*
X105500000Y-96850000D03*
X102800000Y-96850000D03*
M02*
