G04 #@! TF.FileFunction,Other,Fab,Bot*
%FSLAX46Y46*%
G04 Gerber Fmt 4.6, Leading zero omitted, Abs format (unit mm)*
G04 Created by KiCad (PCBNEW 4.0.1-stable) date 07.06.2016 17:51:43*
%MOMM*%
G01*
G04 APERTURE LIST*
%ADD10C,0.100000*%
%ADD11C,0.150000*%
G04 APERTURE END LIST*
D10*
D11*
X141897619Y-87652667D02*
X141421428Y-87652667D01*
X141992857Y-87938381D02*
X141659524Y-86938381D01*
X141326190Y-87938381D01*
X140992857Y-87938381D02*
X140992857Y-86938381D01*
X140611904Y-86938381D01*
X140516666Y-86986000D01*
X140469047Y-87033619D01*
X140421428Y-87128857D01*
X140421428Y-87271714D01*
X140469047Y-87366952D01*
X140516666Y-87414571D01*
X140611904Y-87462190D01*
X140992857Y-87462190D01*
X139469047Y-87938381D02*
X140040476Y-87938381D01*
X139754762Y-87938381D02*
X139754762Y-86938381D01*
X139850000Y-87081238D01*
X139945238Y-87176476D01*
X140040476Y-87224095D01*
X138516666Y-87938381D02*
X139088095Y-87938381D01*
X138802381Y-87938381D02*
X138802381Y-86938381D01*
X138897619Y-87081238D01*
X138992857Y-87176476D01*
X139088095Y-87224095D01*
X137564285Y-87938381D02*
X138135714Y-87938381D01*
X137850000Y-87938381D02*
X137850000Y-86938381D01*
X137945238Y-87081238D01*
X138040476Y-87176476D01*
X138135714Y-87224095D01*
X137230952Y-86938381D02*
X136564285Y-86938381D01*
X136992857Y-87938381D01*
X136183333Y-87414571D02*
X135849999Y-87414571D01*
X135707142Y-87938381D02*
X136183333Y-87938381D01*
X136183333Y-86938381D01*
X135707142Y-86938381D01*
X135373809Y-86938381D02*
X134754761Y-86938381D01*
X135088095Y-87319333D01*
X134945237Y-87319333D01*
X134849999Y-87366952D01*
X134802380Y-87414571D01*
X134754761Y-87509810D01*
X134754761Y-87747905D01*
X134802380Y-87843143D01*
X134849999Y-87890762D01*
X134945237Y-87938381D01*
X135230952Y-87938381D01*
X135326190Y-87890762D01*
X135373809Y-87843143D01*
X134421428Y-86938381D02*
X133802380Y-86938381D01*
X134135714Y-87319333D01*
X133992856Y-87319333D01*
X133897618Y-87366952D01*
X133849999Y-87414571D01*
X133802380Y-87509810D01*
X133802380Y-87747905D01*
X133849999Y-87843143D01*
X133897618Y-87890762D01*
X133992856Y-87938381D01*
X134278571Y-87938381D01*
X134373809Y-87890762D01*
X134421428Y-87843143D01*
X151852381Y-94928572D02*
X151852381Y-94357143D01*
X151852381Y-94642857D02*
X150852381Y-94642857D01*
X150995238Y-94547619D01*
X151090476Y-94452381D01*
X151138095Y-94357143D01*
X150852381Y-95547619D02*
X150852381Y-95642858D01*
X150900000Y-95738096D01*
X150947619Y-95785715D01*
X151042857Y-95833334D01*
X151233333Y-95880953D01*
X151471429Y-95880953D01*
X151661905Y-95833334D01*
X151757143Y-95785715D01*
X151804762Y-95738096D01*
X151852381Y-95642858D01*
X151852381Y-95547619D01*
X151804762Y-95452381D01*
X151757143Y-95404762D01*
X151661905Y-95357143D01*
X151471429Y-95309524D01*
X151233333Y-95309524D01*
X151042857Y-95357143D01*
X150947619Y-95404762D01*
X150900000Y-95452381D01*
X150852381Y-95547619D01*
X151185714Y-96738096D02*
X151852381Y-96738096D01*
X151185714Y-96309524D02*
X151709524Y-96309524D01*
X151804762Y-96357143D01*
X151852381Y-96452381D01*
X151852381Y-96595239D01*
X151804762Y-96690477D01*
X151757143Y-96738096D01*
X151328571Y-97547620D02*
X151328571Y-97214286D01*
X151852381Y-97214286D02*
X150852381Y-97214286D01*
X150852381Y-97690477D01*
X160352191Y-78465381D02*
X160352191Y-77465381D01*
X159971238Y-77465381D01*
X159876000Y-77513000D01*
X159828381Y-77560619D01*
X159780762Y-77655857D01*
X159780762Y-77798714D01*
X159828381Y-77893952D01*
X159876000Y-77941571D01*
X159971238Y-77989190D01*
X160352191Y-77989190D01*
X159209334Y-78465381D02*
X159304572Y-78417762D01*
X159352191Y-78370143D01*
X159399810Y-78274905D01*
X159399810Y-77989190D01*
X159352191Y-77893952D01*
X159304572Y-77846333D01*
X159209334Y-77798714D01*
X159066476Y-77798714D01*
X158971238Y-77846333D01*
X158923619Y-77893952D01*
X158876000Y-77989190D01*
X158876000Y-78274905D01*
X158923619Y-78370143D01*
X158971238Y-78417762D01*
X159066476Y-78465381D01*
X159209334Y-78465381D01*
X158542667Y-77798714D02*
X158352191Y-78465381D01*
X158161714Y-77989190D01*
X157971238Y-78465381D01*
X157780762Y-77798714D01*
X157018857Y-78417762D02*
X157114095Y-78465381D01*
X157304572Y-78465381D01*
X157399810Y-78417762D01*
X157447429Y-78322524D01*
X157447429Y-77941571D01*
X157399810Y-77846333D01*
X157304572Y-77798714D01*
X157114095Y-77798714D01*
X157018857Y-77846333D01*
X156971238Y-77941571D01*
X156971238Y-78036810D01*
X157447429Y-78132048D01*
X156542667Y-78465381D02*
X156542667Y-77798714D01*
X156542667Y-77989190D02*
X156495048Y-77893952D01*
X156447429Y-77846333D01*
X156352191Y-77798714D01*
X156256952Y-77798714D01*
X124826190Y-103545499D02*
X124778571Y-103497880D01*
X124683333Y-103450261D01*
X124445237Y-103450261D01*
X124349999Y-103497880D01*
X124302380Y-103545499D01*
X124254761Y-103640737D01*
X124254761Y-103735975D01*
X124302380Y-103878832D01*
X124873809Y-104450261D01*
X124254761Y-104450261D01*
X123826190Y-104355023D02*
X123778571Y-104402642D01*
X123826190Y-104450261D01*
X123873809Y-104402642D01*
X123826190Y-104355023D01*
X123826190Y-104450261D01*
X123397619Y-103545499D02*
X123350000Y-103497880D01*
X123254762Y-103450261D01*
X123016666Y-103450261D01*
X122921428Y-103497880D01*
X122873809Y-103545499D01*
X122826190Y-103640737D01*
X122826190Y-103735975D01*
X122873809Y-103878832D01*
X123445238Y-104450261D01*
X122826190Y-104450261D01*
X121969047Y-103783594D02*
X121969047Y-104450261D01*
X122397619Y-103783594D02*
X122397619Y-104307404D01*
X122350000Y-104402642D01*
X122254762Y-104450261D01*
X122111904Y-104450261D01*
X122016666Y-104402642D01*
X121969047Y-104355023D01*
X121492857Y-104450261D02*
X121492857Y-103450261D01*
X121492857Y-103926451D02*
X120921428Y-103926451D01*
X120921428Y-104450261D02*
X120921428Y-103450261D01*
X166650191Y-86339381D02*
X166650191Y-85339381D01*
X166269238Y-85339381D01*
X166174000Y-85387000D01*
X166126381Y-85434619D01*
X166078762Y-85529857D01*
X166078762Y-85672714D01*
X166126381Y-85767952D01*
X166174000Y-85815571D01*
X166269238Y-85863190D01*
X166650191Y-85863190D01*
X165507334Y-86339381D02*
X165602572Y-86291762D01*
X165650191Y-86244143D01*
X165697810Y-86148905D01*
X165697810Y-85863190D01*
X165650191Y-85767952D01*
X165602572Y-85720333D01*
X165507334Y-85672714D01*
X165364476Y-85672714D01*
X165269238Y-85720333D01*
X165221619Y-85767952D01*
X165174000Y-85863190D01*
X165174000Y-86148905D01*
X165221619Y-86244143D01*
X165269238Y-86291762D01*
X165364476Y-86339381D01*
X165507334Y-86339381D01*
X164840667Y-85672714D02*
X164650191Y-86339381D01*
X164459714Y-85863190D01*
X164269238Y-86339381D01*
X164078762Y-85672714D01*
X163316857Y-86291762D02*
X163412095Y-86339381D01*
X163602572Y-86339381D01*
X163697810Y-86291762D01*
X163745429Y-86196524D01*
X163745429Y-85815571D01*
X163697810Y-85720333D01*
X163602572Y-85672714D01*
X163412095Y-85672714D01*
X163316857Y-85720333D01*
X163269238Y-85815571D01*
X163269238Y-85910810D01*
X163745429Y-86006048D01*
X162840667Y-86339381D02*
X162840667Y-85672714D01*
X162840667Y-85863190D02*
X162793048Y-85767952D01*
X162745429Y-85720333D01*
X162650191Y-85672714D01*
X162554952Y-85672714D01*
X129652762Y-95004382D02*
X129700381Y-95147239D01*
X129700381Y-95385335D01*
X129652762Y-95480573D01*
X129605143Y-95528192D01*
X129509905Y-95575811D01*
X129414667Y-95575811D01*
X129319429Y-95528192D01*
X129271810Y-95480573D01*
X129224190Y-95385335D01*
X129176571Y-95194858D01*
X129128952Y-95099620D01*
X129081333Y-95052001D01*
X128986095Y-95004382D01*
X128890857Y-95004382D01*
X128795619Y-95052001D01*
X128748000Y-95099620D01*
X128700381Y-95194858D01*
X128700381Y-95432954D01*
X128748000Y-95575811D01*
X129700381Y-96004382D02*
X128700381Y-96004382D01*
X129700381Y-96575811D02*
X129128952Y-96147239D01*
X128700381Y-96575811D02*
X129271810Y-96004382D01*
X128795619Y-96956763D02*
X128748000Y-97004382D01*
X128700381Y-97099620D01*
X128700381Y-97337716D01*
X128748000Y-97432954D01*
X128795619Y-97480573D01*
X128890857Y-97528192D01*
X128986095Y-97528192D01*
X129128952Y-97480573D01*
X129700381Y-96909144D01*
X129700381Y-97528192D01*
X128700381Y-98147239D02*
X128700381Y-98242478D01*
X128748000Y-98337716D01*
X128795619Y-98385335D01*
X128890857Y-98432954D01*
X129081333Y-98480573D01*
X129319429Y-98480573D01*
X129509905Y-98432954D01*
X129605143Y-98385335D01*
X129652762Y-98337716D01*
X129700381Y-98242478D01*
X129700381Y-98147239D01*
X129652762Y-98052001D01*
X129605143Y-98004382D01*
X129509905Y-97956763D01*
X129319429Y-97909144D01*
X129081333Y-97909144D01*
X128890857Y-97956763D01*
X128795619Y-98004382D01*
X128748000Y-98052001D01*
X128700381Y-98147239D01*
X128700381Y-98813906D02*
X128700381Y-99432954D01*
X129081333Y-99099620D01*
X129081333Y-99242478D01*
X129128952Y-99337716D01*
X129176571Y-99385335D01*
X129271810Y-99432954D01*
X129509905Y-99432954D01*
X129605143Y-99385335D01*
X129652762Y-99337716D01*
X129700381Y-99242478D01*
X129700381Y-98956763D01*
X129652762Y-98861525D01*
X129605143Y-98813906D01*
X128700381Y-100052001D02*
X128700381Y-100147240D01*
X128748000Y-100242478D01*
X128795619Y-100290097D01*
X128890857Y-100337716D01*
X129081333Y-100385335D01*
X129319429Y-100385335D01*
X129509905Y-100337716D01*
X129605143Y-100290097D01*
X129652762Y-100242478D01*
X129700381Y-100147240D01*
X129700381Y-100052001D01*
X129652762Y-99956763D01*
X129605143Y-99909144D01*
X129509905Y-99861525D01*
X129319429Y-99813906D01*
X129081333Y-99813906D01*
X128890857Y-99861525D01*
X128795619Y-99909144D01*
X128748000Y-99956763D01*
X128700381Y-100052001D01*
X129224190Y-101004382D02*
X129700381Y-101004382D01*
X128700381Y-100671049D02*
X129224190Y-101004382D01*
X128700381Y-101337716D01*
X129700381Y-101671049D02*
X128700381Y-101671049D01*
X128700381Y-101909144D01*
X128748000Y-102052002D01*
X128843238Y-102147240D01*
X128938476Y-102194859D01*
X129128952Y-102242478D01*
X129271810Y-102242478D01*
X129462286Y-102194859D01*
X129557524Y-102147240D01*
X129652762Y-102052002D01*
X129700381Y-101909144D01*
X129700381Y-101671049D01*
X128795619Y-102623430D02*
X128748000Y-102671049D01*
X128700381Y-102766287D01*
X128700381Y-103004383D01*
X128748000Y-103099621D01*
X128795619Y-103147240D01*
X128890857Y-103194859D01*
X128986095Y-103194859D01*
X129128952Y-103147240D01*
X129700381Y-102575811D01*
X129700381Y-103194859D01*
X104589381Y-95889809D02*
X103589381Y-95889809D01*
X103589381Y-96270762D01*
X103637000Y-96366000D01*
X103684619Y-96413619D01*
X103779857Y-96461238D01*
X103922714Y-96461238D01*
X104017952Y-96413619D01*
X104065571Y-96366000D01*
X104113190Y-96270762D01*
X104113190Y-95889809D01*
X104589381Y-97032666D02*
X104541762Y-96937428D01*
X104494143Y-96889809D01*
X104398905Y-96842190D01*
X104113190Y-96842190D01*
X104017952Y-96889809D01*
X103970333Y-96937428D01*
X103922714Y-97032666D01*
X103922714Y-97175524D01*
X103970333Y-97270762D01*
X104017952Y-97318381D01*
X104113190Y-97366000D01*
X104398905Y-97366000D01*
X104494143Y-97318381D01*
X104541762Y-97270762D01*
X104589381Y-97175524D01*
X104589381Y-97032666D01*
X103922714Y-97699333D02*
X104589381Y-97889809D01*
X104113190Y-98080286D01*
X104589381Y-98270762D01*
X103922714Y-98461238D01*
X104541762Y-99223143D02*
X104589381Y-99127905D01*
X104589381Y-98937428D01*
X104541762Y-98842190D01*
X104446524Y-98794571D01*
X104065571Y-98794571D01*
X103970333Y-98842190D01*
X103922714Y-98937428D01*
X103922714Y-99127905D01*
X103970333Y-99223143D01*
X104065571Y-99270762D01*
X104160810Y-99270762D01*
X104256048Y-98794571D01*
X104589381Y-99699333D02*
X103922714Y-99699333D01*
X104113190Y-99699333D02*
X104017952Y-99746952D01*
X103970333Y-99794571D01*
X103922714Y-99889809D01*
X103922714Y-99985048D01*
X100088762Y-103020571D02*
X99945905Y-103068190D01*
X99898286Y-103115810D01*
X99850667Y-103211048D01*
X99850667Y-103353905D01*
X99898286Y-103449143D01*
X99945905Y-103496762D01*
X100041143Y-103544381D01*
X100422096Y-103544381D01*
X100422096Y-102544381D01*
X100088762Y-102544381D01*
X99993524Y-102592000D01*
X99945905Y-102639619D01*
X99898286Y-102734857D01*
X99898286Y-102830095D01*
X99945905Y-102925333D01*
X99993524Y-102972952D01*
X100088762Y-103020571D01*
X100422096Y-103020571D01*
X99469715Y-103258667D02*
X98993524Y-103258667D01*
X99564953Y-103544381D02*
X99231620Y-102544381D01*
X98898286Y-103544381D01*
X97993524Y-103544381D02*
X98326858Y-103068190D01*
X98564953Y-103544381D02*
X98564953Y-102544381D01*
X98184000Y-102544381D01*
X98088762Y-102592000D01*
X98041143Y-102639619D01*
X97993524Y-102734857D01*
X97993524Y-102877714D01*
X98041143Y-102972952D01*
X98088762Y-103020571D01*
X98184000Y-103068190D01*
X98564953Y-103068190D01*
X96993524Y-103544381D02*
X97326858Y-103068190D01*
X97564953Y-103544381D02*
X97564953Y-102544381D01*
X97184000Y-102544381D01*
X97088762Y-102592000D01*
X97041143Y-102639619D01*
X96993524Y-102734857D01*
X96993524Y-102877714D01*
X97041143Y-102972952D01*
X97088762Y-103020571D01*
X97184000Y-103068190D01*
X97564953Y-103068190D01*
X96564953Y-103020571D02*
X96231619Y-103020571D01*
X96088762Y-103544381D02*
X96564953Y-103544381D01*
X96564953Y-102544381D01*
X96088762Y-102544381D01*
X95184000Y-103544381D02*
X95660191Y-103544381D01*
X95660191Y-102544381D01*
X95088762Y-103639619D02*
X94326857Y-103639619D01*
X93803047Y-102544381D02*
X93803047Y-103258667D01*
X93850667Y-103401524D01*
X93945905Y-103496762D01*
X94088762Y-103544381D01*
X94184000Y-103544381D01*
X93374476Y-103258667D02*
X92898285Y-103258667D01*
X93469714Y-103544381D02*
X93136381Y-102544381D01*
X92803047Y-103544381D01*
X91898285Y-103449143D02*
X91945904Y-103496762D01*
X92088761Y-103544381D01*
X92183999Y-103544381D01*
X92326857Y-103496762D01*
X92422095Y-103401524D01*
X92469714Y-103306286D01*
X92517333Y-103115810D01*
X92517333Y-102972952D01*
X92469714Y-102782476D01*
X92422095Y-102687238D01*
X92326857Y-102592000D01*
X92183999Y-102544381D01*
X92088761Y-102544381D01*
X91945904Y-102592000D01*
X91898285Y-102639619D01*
X91469714Y-103544381D02*
X91469714Y-102544381D01*
X90898285Y-103544381D02*
X91326857Y-102972952D01*
X90898285Y-102544381D02*
X91469714Y-103115810D01*
X160552381Y-71223810D02*
X160552381Y-70747619D01*
X159552381Y-70747619D01*
X159552381Y-71414286D02*
X159552381Y-71985715D01*
X160552381Y-71700000D02*
X159552381Y-71700000D01*
X159552381Y-72747620D02*
X159552381Y-72557143D01*
X159600000Y-72461905D01*
X159647619Y-72414286D01*
X159790476Y-72319048D01*
X159980952Y-72271429D01*
X160361905Y-72271429D01*
X160457143Y-72319048D01*
X160504762Y-72366667D01*
X160552381Y-72461905D01*
X160552381Y-72652382D01*
X160504762Y-72747620D01*
X160457143Y-72795239D01*
X160361905Y-72842858D01*
X160123810Y-72842858D01*
X160028571Y-72795239D01*
X159980952Y-72747620D01*
X159933333Y-72652382D01*
X159933333Y-72461905D01*
X159980952Y-72366667D01*
X160028571Y-72319048D01*
X160123810Y-72271429D01*
X160552381Y-73795239D02*
X160552381Y-73223810D01*
X160552381Y-73509524D02*
X159552381Y-73509524D01*
X159695238Y-73414286D01*
X159790476Y-73319048D01*
X159838095Y-73223810D01*
X159552381Y-74414286D02*
X159552381Y-74509525D01*
X159600000Y-74604763D01*
X159647619Y-74652382D01*
X159742857Y-74700001D01*
X159933333Y-74747620D01*
X160171429Y-74747620D01*
X160361905Y-74700001D01*
X160457143Y-74652382D01*
X160504762Y-74604763D01*
X160552381Y-74509525D01*
X160552381Y-74414286D01*
X160504762Y-74319048D01*
X160457143Y-74271429D01*
X160361905Y-74223810D01*
X160171429Y-74176191D01*
X159933333Y-74176191D01*
X159742857Y-74223810D01*
X159647619Y-74271429D01*
X159600000Y-74319048D01*
X159552381Y-74414286D01*
X159552381Y-75604763D02*
X159552381Y-75414286D01*
X159600000Y-75319048D01*
X159647619Y-75271429D01*
X159790476Y-75176191D01*
X159980952Y-75128572D01*
X160361905Y-75128572D01*
X160457143Y-75176191D01*
X160504762Y-75223810D01*
X160552381Y-75319048D01*
X160552381Y-75509525D01*
X160504762Y-75604763D01*
X160457143Y-75652382D01*
X160361905Y-75700001D01*
X160123810Y-75700001D01*
X160028571Y-75652382D01*
X159980952Y-75604763D01*
X159933333Y-75509525D01*
X159933333Y-75319048D01*
X159980952Y-75223810D01*
X160028571Y-75176191D01*
X160123810Y-75128572D01*
X104502361Y-79377143D02*
X105311885Y-79377143D01*
X105407123Y-79424762D01*
X105454742Y-79472381D01*
X105502361Y-79567619D01*
X105502361Y-79758096D01*
X105454742Y-79853334D01*
X105407123Y-79900953D01*
X105311885Y-79948572D01*
X104502361Y-79948572D01*
X105454742Y-80377143D02*
X105502361Y-80520000D01*
X105502361Y-80758096D01*
X105454742Y-80853334D01*
X105407123Y-80900953D01*
X105311885Y-80948572D01*
X105216647Y-80948572D01*
X105121409Y-80900953D01*
X105073790Y-80853334D01*
X105026170Y-80758096D01*
X104978551Y-80567619D01*
X104930932Y-80472381D01*
X104883313Y-80424762D01*
X104788075Y-80377143D01*
X104692837Y-80377143D01*
X104597599Y-80424762D01*
X104549980Y-80472381D01*
X104502361Y-80567619D01*
X104502361Y-80805715D01*
X104549980Y-80948572D01*
X104978551Y-81710477D02*
X105026170Y-81853334D01*
X105073790Y-81900953D01*
X105169028Y-81948572D01*
X105311885Y-81948572D01*
X105407123Y-81900953D01*
X105454742Y-81853334D01*
X105502361Y-81758096D01*
X105502361Y-81377143D01*
X104502361Y-81377143D01*
X104502361Y-81710477D01*
X104549980Y-81805715D01*
X104597599Y-81853334D01*
X104692837Y-81900953D01*
X104788075Y-81900953D01*
X104883313Y-81853334D01*
X104930932Y-81805715D01*
X104978551Y-81710477D01*
X104978551Y-81377143D01*
X105597599Y-82139048D02*
X105597599Y-82900953D01*
X104978551Y-83472382D02*
X105026170Y-83615239D01*
X105073790Y-83662858D01*
X105169028Y-83710477D01*
X105311885Y-83710477D01*
X105407123Y-83662858D01*
X105454742Y-83615239D01*
X105502361Y-83520001D01*
X105502361Y-83139048D01*
X104502361Y-83139048D01*
X104502361Y-83472382D01*
X104549980Y-83567620D01*
X104597599Y-83615239D01*
X104692837Y-83662858D01*
X104788075Y-83662858D01*
X104883313Y-83615239D01*
X104930932Y-83567620D01*
X104978551Y-83472382D01*
X104978551Y-83139048D01*
X131771429Y-59752381D02*
X131771429Y-60561905D01*
X131723810Y-60657143D01*
X131676191Y-60704762D01*
X131580953Y-60752381D01*
X131390476Y-60752381D01*
X131295238Y-60704762D01*
X131247619Y-60657143D01*
X131200000Y-60561905D01*
X131200000Y-59752381D01*
X130771429Y-60704762D02*
X130628572Y-60752381D01*
X130390476Y-60752381D01*
X130295238Y-60704762D01*
X130247619Y-60657143D01*
X130200000Y-60561905D01*
X130200000Y-60466667D01*
X130247619Y-60371429D01*
X130295238Y-60323810D01*
X130390476Y-60276190D01*
X130580953Y-60228571D01*
X130676191Y-60180952D01*
X130723810Y-60133333D01*
X130771429Y-60038095D01*
X130771429Y-59942857D01*
X130723810Y-59847619D01*
X130676191Y-59800000D01*
X130580953Y-59752381D01*
X130342857Y-59752381D01*
X130200000Y-59800000D01*
X129438095Y-60228571D02*
X129295238Y-60276190D01*
X129247619Y-60323810D01*
X129200000Y-60419048D01*
X129200000Y-60561905D01*
X129247619Y-60657143D01*
X129295238Y-60704762D01*
X129390476Y-60752381D01*
X129771429Y-60752381D01*
X129771429Y-59752381D01*
X129438095Y-59752381D01*
X129342857Y-59800000D01*
X129295238Y-59847619D01*
X129247619Y-59942857D01*
X129247619Y-60038095D01*
X129295238Y-60133333D01*
X129342857Y-60180952D01*
X129438095Y-60228571D01*
X129771429Y-60228571D01*
X129009524Y-60847619D02*
X128247619Y-60847619D01*
X128057143Y-60466667D02*
X127580952Y-60466667D01*
X128152381Y-60752381D02*
X127819048Y-59752381D01*
X127485714Y-60752381D01*
X151771429Y-59752381D02*
X151771429Y-60561905D01*
X151723810Y-60657143D01*
X151676191Y-60704762D01*
X151580953Y-60752381D01*
X151390476Y-60752381D01*
X151295238Y-60704762D01*
X151247619Y-60657143D01*
X151200000Y-60561905D01*
X151200000Y-59752381D01*
X150771429Y-60704762D02*
X150628572Y-60752381D01*
X150390476Y-60752381D01*
X150295238Y-60704762D01*
X150247619Y-60657143D01*
X150200000Y-60561905D01*
X150200000Y-60466667D01*
X150247619Y-60371429D01*
X150295238Y-60323810D01*
X150390476Y-60276190D01*
X150580953Y-60228571D01*
X150676191Y-60180952D01*
X150723810Y-60133333D01*
X150771429Y-60038095D01*
X150771429Y-59942857D01*
X150723810Y-59847619D01*
X150676191Y-59800000D01*
X150580953Y-59752381D01*
X150342857Y-59752381D01*
X150200000Y-59800000D01*
X149438095Y-60228571D02*
X149295238Y-60276190D01*
X149247619Y-60323810D01*
X149200000Y-60419048D01*
X149200000Y-60561905D01*
X149247619Y-60657143D01*
X149295238Y-60704762D01*
X149390476Y-60752381D01*
X149771429Y-60752381D01*
X149771429Y-59752381D01*
X149438095Y-59752381D01*
X149342857Y-59800000D01*
X149295238Y-59847619D01*
X149247619Y-59942857D01*
X149247619Y-60038095D01*
X149295238Y-60133333D01*
X149342857Y-60180952D01*
X149438095Y-60228571D01*
X149771429Y-60228571D01*
X149009524Y-60847619D02*
X148247619Y-60847619D01*
X148057143Y-60466667D02*
X147580952Y-60466667D01*
X148152381Y-60752381D02*
X147819048Y-59752381D01*
X147485714Y-60752381D01*
X141771429Y-59752381D02*
X141771429Y-60561905D01*
X141723810Y-60657143D01*
X141676191Y-60704762D01*
X141580953Y-60752381D01*
X141390476Y-60752381D01*
X141295238Y-60704762D01*
X141247619Y-60657143D01*
X141200000Y-60561905D01*
X141200000Y-59752381D01*
X140771429Y-60704762D02*
X140628572Y-60752381D01*
X140390476Y-60752381D01*
X140295238Y-60704762D01*
X140247619Y-60657143D01*
X140200000Y-60561905D01*
X140200000Y-60466667D01*
X140247619Y-60371429D01*
X140295238Y-60323810D01*
X140390476Y-60276190D01*
X140580953Y-60228571D01*
X140676191Y-60180952D01*
X140723810Y-60133333D01*
X140771429Y-60038095D01*
X140771429Y-59942857D01*
X140723810Y-59847619D01*
X140676191Y-59800000D01*
X140580953Y-59752381D01*
X140342857Y-59752381D01*
X140200000Y-59800000D01*
X139438095Y-60228571D02*
X139295238Y-60276190D01*
X139247619Y-60323810D01*
X139200000Y-60419048D01*
X139200000Y-60561905D01*
X139247619Y-60657143D01*
X139295238Y-60704762D01*
X139390476Y-60752381D01*
X139771429Y-60752381D01*
X139771429Y-59752381D01*
X139438095Y-59752381D01*
X139342857Y-59800000D01*
X139295238Y-59847619D01*
X139247619Y-59942857D01*
X139247619Y-60038095D01*
X139295238Y-60133333D01*
X139342857Y-60180952D01*
X139438095Y-60228571D01*
X139771429Y-60228571D01*
X139009524Y-60847619D02*
X138247619Y-60847619D01*
X138057143Y-60466667D02*
X137580952Y-60466667D01*
X138152381Y-60752381D02*
X137819048Y-59752381D01*
X137485714Y-60752381D01*
X121771429Y-59752381D02*
X121771429Y-60561905D01*
X121723810Y-60657143D01*
X121676191Y-60704762D01*
X121580953Y-60752381D01*
X121390476Y-60752381D01*
X121295238Y-60704762D01*
X121247619Y-60657143D01*
X121200000Y-60561905D01*
X121200000Y-59752381D01*
X120771429Y-60704762D02*
X120628572Y-60752381D01*
X120390476Y-60752381D01*
X120295238Y-60704762D01*
X120247619Y-60657143D01*
X120200000Y-60561905D01*
X120200000Y-60466667D01*
X120247619Y-60371429D01*
X120295238Y-60323810D01*
X120390476Y-60276190D01*
X120580953Y-60228571D01*
X120676191Y-60180952D01*
X120723810Y-60133333D01*
X120771429Y-60038095D01*
X120771429Y-59942857D01*
X120723810Y-59847619D01*
X120676191Y-59800000D01*
X120580953Y-59752381D01*
X120342857Y-59752381D01*
X120200000Y-59800000D01*
X119438095Y-60228571D02*
X119295238Y-60276190D01*
X119247619Y-60323810D01*
X119200000Y-60419048D01*
X119200000Y-60561905D01*
X119247619Y-60657143D01*
X119295238Y-60704762D01*
X119390476Y-60752381D01*
X119771429Y-60752381D01*
X119771429Y-59752381D01*
X119438095Y-59752381D01*
X119342857Y-59800000D01*
X119295238Y-59847619D01*
X119247619Y-59942857D01*
X119247619Y-60038095D01*
X119295238Y-60133333D01*
X119342857Y-60180952D01*
X119438095Y-60228571D01*
X119771429Y-60228571D01*
X119009524Y-60847619D02*
X118247619Y-60847619D01*
X118057143Y-60466667D02*
X117580952Y-60466667D01*
X118152381Y-60752381D02*
X117819048Y-59752381D01*
X117485714Y-60752381D01*
X135297619Y-78907143D02*
X135250000Y-78954762D01*
X135202381Y-79050000D01*
X135202381Y-79288096D01*
X135250000Y-79383334D01*
X135297619Y-79430953D01*
X135392857Y-79478572D01*
X135488095Y-79478572D01*
X135630952Y-79430953D01*
X136202381Y-78859524D01*
X136202381Y-79478572D01*
X135297619Y-79859524D02*
X135250000Y-79907143D01*
X135202381Y-80002381D01*
X135202381Y-80240477D01*
X135250000Y-80335715D01*
X135297619Y-80383334D01*
X135392857Y-80430953D01*
X135488095Y-80430953D01*
X135630952Y-80383334D01*
X136202381Y-79811905D01*
X136202381Y-80430953D01*
X135535714Y-81288096D02*
X136202381Y-81288096D01*
X135535714Y-80859524D02*
X136059524Y-80859524D01*
X136154762Y-80907143D01*
X136202381Y-81002381D01*
X136202381Y-81145239D01*
X136154762Y-81240477D01*
X136107143Y-81288096D01*
X135678571Y-82097620D02*
X135678571Y-81764286D01*
X136202381Y-81764286D02*
X135202381Y-81764286D01*
X135202381Y-82240477D01*
X104539381Y-66799809D02*
X103539381Y-66799809D01*
X103539381Y-67180762D01*
X103587000Y-67276000D01*
X103634619Y-67323619D01*
X103729857Y-67371238D01*
X103872714Y-67371238D01*
X103967952Y-67323619D01*
X104015571Y-67276000D01*
X104063190Y-67180762D01*
X104063190Y-66799809D01*
X104539381Y-67942666D02*
X104491762Y-67847428D01*
X104444143Y-67799809D01*
X104348905Y-67752190D01*
X104063190Y-67752190D01*
X103967952Y-67799809D01*
X103920333Y-67847428D01*
X103872714Y-67942666D01*
X103872714Y-68085524D01*
X103920333Y-68180762D01*
X103967952Y-68228381D01*
X104063190Y-68276000D01*
X104348905Y-68276000D01*
X104444143Y-68228381D01*
X104491762Y-68180762D01*
X104539381Y-68085524D01*
X104539381Y-67942666D01*
X103872714Y-68609333D02*
X104539381Y-68799809D01*
X104063190Y-68990286D01*
X104539381Y-69180762D01*
X103872714Y-69371238D01*
X104491762Y-70133143D02*
X104539381Y-70037905D01*
X104539381Y-69847428D01*
X104491762Y-69752190D01*
X104396524Y-69704571D01*
X104015571Y-69704571D01*
X103920333Y-69752190D01*
X103872714Y-69847428D01*
X103872714Y-70037905D01*
X103920333Y-70133143D01*
X104015571Y-70180762D01*
X104110810Y-70180762D01*
X104206048Y-69704571D01*
X104539381Y-70609333D02*
X103872714Y-70609333D01*
X104063190Y-70609333D02*
X103967952Y-70656952D01*
X103920333Y-70704571D01*
X103872714Y-70799809D01*
X103872714Y-70895048D01*
X154552381Y-76333334D02*
X154552381Y-75761905D01*
X154552381Y-76047619D02*
X153552381Y-76047619D01*
X153695238Y-75952381D01*
X153790476Y-75857143D01*
X153838095Y-75761905D01*
X153885714Y-76761905D02*
X154552381Y-76761905D01*
X153980952Y-76761905D02*
X153933333Y-76809524D01*
X153885714Y-76904762D01*
X153885714Y-77047620D01*
X153933333Y-77142858D01*
X154028571Y-77190477D01*
X154552381Y-77190477D01*
X154119047Y-98602381D02*
X154690476Y-98602381D01*
X154404762Y-98602381D02*
X154404762Y-97602381D01*
X154500000Y-97745238D01*
X154595238Y-97840476D01*
X154690476Y-97888095D01*
X153500000Y-97602381D02*
X153404761Y-97602381D01*
X153309523Y-97650000D01*
X153261904Y-97697619D01*
X153214285Y-97792857D01*
X153166666Y-97983333D01*
X153166666Y-98221429D01*
X153214285Y-98411905D01*
X153261904Y-98507143D01*
X153309523Y-98554762D01*
X153404761Y-98602381D01*
X153500000Y-98602381D01*
X153595238Y-98554762D01*
X153642857Y-98507143D01*
X153690476Y-98411905D01*
X153738095Y-98221429D01*
X153738095Y-97983333D01*
X153690476Y-97792857D01*
X153642857Y-97697619D01*
X153595238Y-97650000D01*
X153500000Y-97602381D01*
X152547619Y-97602381D02*
X152452380Y-97602381D01*
X152357142Y-97650000D01*
X152309523Y-97697619D01*
X152261904Y-97792857D01*
X152214285Y-97983333D01*
X152214285Y-98221429D01*
X152261904Y-98411905D01*
X152309523Y-98507143D01*
X152357142Y-98554762D01*
X152452380Y-98602381D01*
X152547619Y-98602381D01*
X152642857Y-98554762D01*
X152690476Y-98507143D01*
X152738095Y-98411905D01*
X152785714Y-98221429D01*
X152785714Y-97983333D01*
X152738095Y-97792857D01*
X152690476Y-97697619D01*
X152642857Y-97650000D01*
X152547619Y-97602381D01*
X151785714Y-97935714D02*
X151785714Y-98602381D01*
X151785714Y-98030952D02*
X151738095Y-97983333D01*
X151642857Y-97935714D01*
X151499999Y-97935714D01*
X151404761Y-97983333D01*
X151357142Y-98078571D01*
X151357142Y-98602381D01*
X145666666Y-82352381D02*
X146238095Y-82352381D01*
X145952381Y-82352381D02*
X145952381Y-81352381D01*
X146047619Y-81495238D01*
X146142857Y-81590476D01*
X146238095Y-81638095D01*
X145238095Y-81685714D02*
X145238095Y-82352381D01*
X145238095Y-81780952D02*
X145190476Y-81733333D01*
X145095238Y-81685714D01*
X144952380Y-81685714D01*
X144857142Y-81733333D01*
X144809523Y-81828571D01*
X144809523Y-82352381D01*
X154552381Y-67130953D02*
X154552381Y-66559524D01*
X154552381Y-66845238D02*
X153552381Y-66845238D01*
X153695238Y-66750000D01*
X153790476Y-66654762D01*
X153838095Y-66559524D01*
X153552381Y-67750000D02*
X153552381Y-67845239D01*
X153600000Y-67940477D01*
X153647619Y-67988096D01*
X153742857Y-68035715D01*
X153933333Y-68083334D01*
X154171429Y-68083334D01*
X154361905Y-68035715D01*
X154457143Y-67988096D01*
X154504762Y-67940477D01*
X154552381Y-67845239D01*
X154552381Y-67750000D01*
X154504762Y-67654762D01*
X154457143Y-67607143D01*
X154361905Y-67559524D01*
X154171429Y-67511905D01*
X153933333Y-67511905D01*
X153742857Y-67559524D01*
X153647619Y-67607143D01*
X153600000Y-67654762D01*
X153552381Y-67750000D01*
X153552381Y-68702381D02*
X153552381Y-68797620D01*
X153600000Y-68892858D01*
X153647619Y-68940477D01*
X153742857Y-68988096D01*
X153933333Y-69035715D01*
X154171429Y-69035715D01*
X154361905Y-68988096D01*
X154457143Y-68940477D01*
X154504762Y-68892858D01*
X154552381Y-68797620D01*
X154552381Y-68702381D01*
X154504762Y-68607143D01*
X154457143Y-68559524D01*
X154361905Y-68511905D01*
X154171429Y-68464286D01*
X153933333Y-68464286D01*
X153742857Y-68511905D01*
X153647619Y-68559524D01*
X153600000Y-68607143D01*
X153552381Y-68702381D01*
X153885714Y-69464286D02*
X154552381Y-69464286D01*
X153980952Y-69464286D02*
X153933333Y-69511905D01*
X153885714Y-69607143D01*
X153885714Y-69750001D01*
X153933333Y-69845239D01*
X154028571Y-69892858D01*
X154552381Y-69892858D01*
X161552381Y-77583334D02*
X161552381Y-77011905D01*
X161552381Y-77297619D02*
X160552381Y-77297619D01*
X160695238Y-77202381D01*
X160790476Y-77107143D01*
X160838095Y-77011905D01*
X160885714Y-78011905D02*
X161552381Y-78011905D01*
X160980952Y-78011905D02*
X160933333Y-78059524D01*
X160885714Y-78154762D01*
X160885714Y-78297620D01*
X160933333Y-78392858D01*
X161028571Y-78440477D01*
X161552381Y-78440477D01*
X147302381Y-75083334D02*
X147302381Y-74511905D01*
X147302381Y-74797619D02*
X146302381Y-74797619D01*
X146445238Y-74702381D01*
X146540476Y-74607143D01*
X146588095Y-74511905D01*
X146635714Y-75511905D02*
X147302381Y-75511905D01*
X146730952Y-75511905D02*
X146683333Y-75559524D01*
X146635714Y-75654762D01*
X146635714Y-75797620D01*
X146683333Y-75892858D01*
X146778571Y-75940477D01*
X147302381Y-75940477D01*
X161552381Y-68380953D02*
X161552381Y-67809524D01*
X161552381Y-68095238D02*
X160552381Y-68095238D01*
X160695238Y-68000000D01*
X160790476Y-67904762D01*
X160838095Y-67809524D01*
X160552381Y-69000000D02*
X160552381Y-69095239D01*
X160600000Y-69190477D01*
X160647619Y-69238096D01*
X160742857Y-69285715D01*
X160933333Y-69333334D01*
X161171429Y-69333334D01*
X161361905Y-69285715D01*
X161457143Y-69238096D01*
X161504762Y-69190477D01*
X161552381Y-69095239D01*
X161552381Y-69000000D01*
X161504762Y-68904762D01*
X161457143Y-68857143D01*
X161361905Y-68809524D01*
X161171429Y-68761905D01*
X160933333Y-68761905D01*
X160742857Y-68809524D01*
X160647619Y-68857143D01*
X160600000Y-68904762D01*
X160552381Y-69000000D01*
X160552381Y-69952381D02*
X160552381Y-70047620D01*
X160600000Y-70142858D01*
X160647619Y-70190477D01*
X160742857Y-70238096D01*
X160933333Y-70285715D01*
X161171429Y-70285715D01*
X161361905Y-70238096D01*
X161457143Y-70190477D01*
X161504762Y-70142858D01*
X161552381Y-70047620D01*
X161552381Y-69952381D01*
X161504762Y-69857143D01*
X161457143Y-69809524D01*
X161361905Y-69761905D01*
X161171429Y-69714286D01*
X160933333Y-69714286D01*
X160742857Y-69761905D01*
X160647619Y-69809524D01*
X160600000Y-69857143D01*
X160552381Y-69952381D01*
X160885714Y-70714286D02*
X161552381Y-70714286D01*
X160980952Y-70714286D02*
X160933333Y-70761905D01*
X160885714Y-70857143D01*
X160885714Y-71000001D01*
X160933333Y-71095239D01*
X161028571Y-71142858D01*
X161552381Y-71142858D01*
X147302381Y-65880953D02*
X147302381Y-65309524D01*
X147302381Y-65595238D02*
X146302381Y-65595238D01*
X146445238Y-65500000D01*
X146540476Y-65404762D01*
X146588095Y-65309524D01*
X146302381Y-66500000D02*
X146302381Y-66595239D01*
X146350000Y-66690477D01*
X146397619Y-66738096D01*
X146492857Y-66785715D01*
X146683333Y-66833334D01*
X146921429Y-66833334D01*
X147111905Y-66785715D01*
X147207143Y-66738096D01*
X147254762Y-66690477D01*
X147302381Y-66595239D01*
X147302381Y-66500000D01*
X147254762Y-66404762D01*
X147207143Y-66357143D01*
X147111905Y-66309524D01*
X146921429Y-66261905D01*
X146683333Y-66261905D01*
X146492857Y-66309524D01*
X146397619Y-66357143D01*
X146350000Y-66404762D01*
X146302381Y-66500000D01*
X146302381Y-67452381D02*
X146302381Y-67547620D01*
X146350000Y-67642858D01*
X146397619Y-67690477D01*
X146492857Y-67738096D01*
X146683333Y-67785715D01*
X146921429Y-67785715D01*
X147111905Y-67738096D01*
X147207143Y-67690477D01*
X147254762Y-67642858D01*
X147302381Y-67547620D01*
X147302381Y-67452381D01*
X147254762Y-67357143D01*
X147207143Y-67309524D01*
X147111905Y-67261905D01*
X146921429Y-67214286D01*
X146683333Y-67214286D01*
X146492857Y-67261905D01*
X146397619Y-67309524D01*
X146350000Y-67357143D01*
X146302381Y-67452381D01*
X146635714Y-68214286D02*
X147302381Y-68214286D01*
X146730952Y-68214286D02*
X146683333Y-68261905D01*
X146635714Y-68357143D01*
X146635714Y-68500001D01*
X146683333Y-68595239D01*
X146778571Y-68642858D01*
X147302381Y-68642858D01*
X146390476Y-84602381D02*
X146961905Y-84602381D01*
X146676191Y-84602381D02*
X146676191Y-83602381D01*
X146771429Y-83745238D01*
X146866667Y-83840476D01*
X146961905Y-83888095D01*
X145485714Y-83602381D02*
X145961905Y-83602381D01*
X146009524Y-84078571D01*
X145961905Y-84030952D01*
X145866667Y-83983333D01*
X145628571Y-83983333D01*
X145533333Y-84030952D01*
X145485714Y-84078571D01*
X145438095Y-84173810D01*
X145438095Y-84411905D01*
X145485714Y-84507143D01*
X145533333Y-84554762D01*
X145628571Y-84602381D01*
X145866667Y-84602381D01*
X145961905Y-84554762D01*
X146009524Y-84507143D01*
X145009524Y-84602381D02*
X145009524Y-83602381D01*
X144438095Y-84602381D02*
X144866667Y-84030952D01*
X144438095Y-83602381D02*
X145009524Y-84173810D01*
X154552381Y-70783334D02*
X154552381Y-70211905D01*
X154552381Y-70497619D02*
X153552381Y-70497619D01*
X153695238Y-70402381D01*
X153790476Y-70307143D01*
X153838095Y-70211905D01*
X153552381Y-71402381D02*
X153552381Y-71497620D01*
X153600000Y-71592858D01*
X153647619Y-71640477D01*
X153742857Y-71688096D01*
X153933333Y-71735715D01*
X154171429Y-71735715D01*
X154361905Y-71688096D01*
X154457143Y-71640477D01*
X154504762Y-71592858D01*
X154552381Y-71497620D01*
X154552381Y-71402381D01*
X154504762Y-71307143D01*
X154457143Y-71259524D01*
X154361905Y-71211905D01*
X154171429Y-71164286D01*
X153933333Y-71164286D01*
X153742857Y-71211905D01*
X153647619Y-71259524D01*
X153600000Y-71307143D01*
X153552381Y-71402381D01*
X153552381Y-72354762D02*
X153552381Y-72450001D01*
X153600000Y-72545239D01*
X153647619Y-72592858D01*
X153742857Y-72640477D01*
X153933333Y-72688096D01*
X154171429Y-72688096D01*
X154361905Y-72640477D01*
X154457143Y-72592858D01*
X154504762Y-72545239D01*
X154552381Y-72450001D01*
X154552381Y-72354762D01*
X154504762Y-72259524D01*
X154457143Y-72211905D01*
X154361905Y-72164286D01*
X154171429Y-72116667D01*
X153933333Y-72116667D01*
X153742857Y-72164286D01*
X153647619Y-72211905D01*
X153600000Y-72259524D01*
X153552381Y-72354762D01*
X154552381Y-73688096D02*
X154076190Y-73354762D01*
X154552381Y-73116667D02*
X153552381Y-73116667D01*
X153552381Y-73497620D01*
X153600000Y-73592858D01*
X153647619Y-73640477D01*
X153742857Y-73688096D01*
X153885714Y-73688096D01*
X153980952Y-73640477D01*
X154028571Y-73592858D01*
X154076190Y-73497620D01*
X154076190Y-73116667D01*
X157038095Y-70302381D02*
X156942856Y-70302381D01*
X156847618Y-70350000D01*
X156799999Y-70397619D01*
X156752380Y-70492857D01*
X156704761Y-70683333D01*
X156704761Y-70921429D01*
X156752380Y-71111905D01*
X156799999Y-71207143D01*
X156847618Y-71254762D01*
X156942856Y-71302381D01*
X157038095Y-71302381D01*
X157133333Y-71254762D01*
X157180952Y-71207143D01*
X157228571Y-71111905D01*
X157276190Y-70921429D01*
X157276190Y-70683333D01*
X157228571Y-70492857D01*
X157180952Y-70397619D01*
X157133333Y-70350000D01*
X157038095Y-70302381D01*
X156276190Y-71207143D02*
X156228571Y-71254762D01*
X156276190Y-71302381D01*
X156323809Y-71254762D01*
X156276190Y-71207143D01*
X156276190Y-71302381D01*
X155609524Y-70302381D02*
X155514285Y-70302381D01*
X155419047Y-70350000D01*
X155371428Y-70397619D01*
X155323809Y-70492857D01*
X155276190Y-70683333D01*
X155276190Y-70921429D01*
X155323809Y-71111905D01*
X155371428Y-71207143D01*
X155419047Y-71254762D01*
X155514285Y-71302381D01*
X155609524Y-71302381D01*
X155704762Y-71254762D01*
X155752381Y-71207143D01*
X155800000Y-71111905D01*
X155847619Y-70921429D01*
X155847619Y-70683333D01*
X155800000Y-70492857D01*
X155752381Y-70397619D01*
X155704762Y-70350000D01*
X155609524Y-70302381D01*
X154323809Y-71302381D02*
X154895238Y-71302381D01*
X154609524Y-71302381D02*
X154609524Y-70302381D01*
X154704762Y-70445238D01*
X154800000Y-70540476D01*
X154895238Y-70588095D01*
X153323809Y-71302381D02*
X153657143Y-70826190D01*
X153895238Y-71302381D02*
X153895238Y-70302381D01*
X153514285Y-70302381D01*
X153419047Y-70350000D01*
X153371428Y-70397619D01*
X153323809Y-70492857D01*
X153323809Y-70635714D01*
X153371428Y-70730952D01*
X153419047Y-70778571D01*
X153514285Y-70826190D01*
X153895238Y-70826190D01*
X161552381Y-72133334D02*
X161552381Y-71561905D01*
X161552381Y-71847619D02*
X160552381Y-71847619D01*
X160695238Y-71752381D01*
X160790476Y-71657143D01*
X160838095Y-71561905D01*
X160552381Y-72752381D02*
X160552381Y-72847620D01*
X160600000Y-72942858D01*
X160647619Y-72990477D01*
X160742857Y-73038096D01*
X160933333Y-73085715D01*
X161171429Y-73085715D01*
X161361905Y-73038096D01*
X161457143Y-72990477D01*
X161504762Y-72942858D01*
X161552381Y-72847620D01*
X161552381Y-72752381D01*
X161504762Y-72657143D01*
X161457143Y-72609524D01*
X161361905Y-72561905D01*
X161171429Y-72514286D01*
X160933333Y-72514286D01*
X160742857Y-72561905D01*
X160647619Y-72609524D01*
X160600000Y-72657143D01*
X160552381Y-72752381D01*
X160552381Y-73704762D02*
X160552381Y-73800001D01*
X160600000Y-73895239D01*
X160647619Y-73942858D01*
X160742857Y-73990477D01*
X160933333Y-74038096D01*
X161171429Y-74038096D01*
X161361905Y-73990477D01*
X161457143Y-73942858D01*
X161504762Y-73895239D01*
X161552381Y-73800001D01*
X161552381Y-73704762D01*
X161504762Y-73609524D01*
X161457143Y-73561905D01*
X161361905Y-73514286D01*
X161171429Y-73466667D01*
X160933333Y-73466667D01*
X160742857Y-73514286D01*
X160647619Y-73561905D01*
X160600000Y-73609524D01*
X160552381Y-73704762D01*
X161552381Y-75038096D02*
X161076190Y-74704762D01*
X161552381Y-74466667D02*
X160552381Y-74466667D01*
X160552381Y-74847620D01*
X160600000Y-74942858D01*
X160647619Y-74990477D01*
X160742857Y-75038096D01*
X160885714Y-75038096D01*
X160980952Y-74990477D01*
X161028571Y-74942858D01*
X161076190Y-74847620D01*
X161076190Y-74466667D01*
X164188095Y-71552381D02*
X164092856Y-71552381D01*
X163997618Y-71600000D01*
X163949999Y-71647619D01*
X163902380Y-71742857D01*
X163854761Y-71933333D01*
X163854761Y-72171429D01*
X163902380Y-72361905D01*
X163949999Y-72457143D01*
X163997618Y-72504762D01*
X164092856Y-72552381D01*
X164188095Y-72552381D01*
X164283333Y-72504762D01*
X164330952Y-72457143D01*
X164378571Y-72361905D01*
X164426190Y-72171429D01*
X164426190Y-71933333D01*
X164378571Y-71742857D01*
X164330952Y-71647619D01*
X164283333Y-71600000D01*
X164188095Y-71552381D01*
X163426190Y-72457143D02*
X163378571Y-72504762D01*
X163426190Y-72552381D01*
X163473809Y-72504762D01*
X163426190Y-72457143D01*
X163426190Y-72552381D01*
X162759524Y-71552381D02*
X162664285Y-71552381D01*
X162569047Y-71600000D01*
X162521428Y-71647619D01*
X162473809Y-71742857D01*
X162426190Y-71933333D01*
X162426190Y-72171429D01*
X162473809Y-72361905D01*
X162521428Y-72457143D01*
X162569047Y-72504762D01*
X162664285Y-72552381D01*
X162759524Y-72552381D01*
X162854762Y-72504762D01*
X162902381Y-72457143D01*
X162950000Y-72361905D01*
X162997619Y-72171429D01*
X162997619Y-71933333D01*
X162950000Y-71742857D01*
X162902381Y-71647619D01*
X162854762Y-71600000D01*
X162759524Y-71552381D01*
X161473809Y-72552381D02*
X162045238Y-72552381D01*
X161759524Y-72552381D02*
X161759524Y-71552381D01*
X161854762Y-71695238D01*
X161950000Y-71790476D01*
X162045238Y-71838095D01*
X160473809Y-72552381D02*
X160807143Y-72076190D01*
X161045238Y-72552381D02*
X161045238Y-71552381D01*
X160664285Y-71552381D01*
X160569047Y-71600000D01*
X160521428Y-71647619D01*
X160473809Y-71742857D01*
X160473809Y-71885714D01*
X160521428Y-71980952D01*
X160569047Y-72028571D01*
X160664285Y-72076190D01*
X161045238Y-72076190D01*
X147302381Y-69533334D02*
X147302381Y-68961905D01*
X147302381Y-69247619D02*
X146302381Y-69247619D01*
X146445238Y-69152381D01*
X146540476Y-69057143D01*
X146588095Y-68961905D01*
X146302381Y-70152381D02*
X146302381Y-70247620D01*
X146350000Y-70342858D01*
X146397619Y-70390477D01*
X146492857Y-70438096D01*
X146683333Y-70485715D01*
X146921429Y-70485715D01*
X147111905Y-70438096D01*
X147207143Y-70390477D01*
X147254762Y-70342858D01*
X147302381Y-70247620D01*
X147302381Y-70152381D01*
X147254762Y-70057143D01*
X147207143Y-70009524D01*
X147111905Y-69961905D01*
X146921429Y-69914286D01*
X146683333Y-69914286D01*
X146492857Y-69961905D01*
X146397619Y-70009524D01*
X146350000Y-70057143D01*
X146302381Y-70152381D01*
X146302381Y-71104762D02*
X146302381Y-71200001D01*
X146350000Y-71295239D01*
X146397619Y-71342858D01*
X146492857Y-71390477D01*
X146683333Y-71438096D01*
X146921429Y-71438096D01*
X147111905Y-71390477D01*
X147207143Y-71342858D01*
X147254762Y-71295239D01*
X147302381Y-71200001D01*
X147302381Y-71104762D01*
X147254762Y-71009524D01*
X147207143Y-70961905D01*
X147111905Y-70914286D01*
X146921429Y-70866667D01*
X146683333Y-70866667D01*
X146492857Y-70914286D01*
X146397619Y-70961905D01*
X146350000Y-71009524D01*
X146302381Y-71104762D01*
X147302381Y-72438096D02*
X146826190Y-72104762D01*
X147302381Y-71866667D02*
X146302381Y-71866667D01*
X146302381Y-72247620D01*
X146350000Y-72342858D01*
X146397619Y-72390477D01*
X146492857Y-72438096D01*
X146635714Y-72438096D01*
X146730952Y-72390477D01*
X146778571Y-72342858D01*
X146826190Y-72247620D01*
X146826190Y-71866667D01*
X150038095Y-69052381D02*
X149942856Y-69052381D01*
X149847618Y-69100000D01*
X149799999Y-69147619D01*
X149752380Y-69242857D01*
X149704761Y-69433333D01*
X149704761Y-69671429D01*
X149752380Y-69861905D01*
X149799999Y-69957143D01*
X149847618Y-70004762D01*
X149942856Y-70052381D01*
X150038095Y-70052381D01*
X150133333Y-70004762D01*
X150180952Y-69957143D01*
X150228571Y-69861905D01*
X150276190Y-69671429D01*
X150276190Y-69433333D01*
X150228571Y-69242857D01*
X150180952Y-69147619D01*
X150133333Y-69100000D01*
X150038095Y-69052381D01*
X149276190Y-69957143D02*
X149228571Y-70004762D01*
X149276190Y-70052381D01*
X149323809Y-70004762D01*
X149276190Y-69957143D01*
X149276190Y-70052381D01*
X148609524Y-69052381D02*
X148514285Y-69052381D01*
X148419047Y-69100000D01*
X148371428Y-69147619D01*
X148323809Y-69242857D01*
X148276190Y-69433333D01*
X148276190Y-69671429D01*
X148323809Y-69861905D01*
X148371428Y-69957143D01*
X148419047Y-70004762D01*
X148514285Y-70052381D01*
X148609524Y-70052381D01*
X148704762Y-70004762D01*
X148752381Y-69957143D01*
X148800000Y-69861905D01*
X148847619Y-69671429D01*
X148847619Y-69433333D01*
X148800000Y-69242857D01*
X148752381Y-69147619D01*
X148704762Y-69100000D01*
X148609524Y-69052381D01*
X147323809Y-70052381D02*
X147895238Y-70052381D01*
X147609524Y-70052381D02*
X147609524Y-69052381D01*
X147704762Y-69195238D01*
X147800000Y-69290476D01*
X147895238Y-69338095D01*
X146323809Y-70052381D02*
X146657143Y-69576190D01*
X146895238Y-70052381D02*
X146895238Y-69052381D01*
X146514285Y-69052381D01*
X146419047Y-69100000D01*
X146371428Y-69147619D01*
X146323809Y-69242857D01*
X146323809Y-69385714D01*
X146371428Y-69480952D01*
X146419047Y-69528571D01*
X146514285Y-69576190D01*
X146895238Y-69576190D01*
X160638381Y-92702382D02*
X160638381Y-92226191D01*
X159638381Y-92226191D01*
X160638381Y-93035715D02*
X159638381Y-93035715D01*
X160352667Y-93369049D01*
X159638381Y-93702382D01*
X160638381Y-93702382D01*
X160638381Y-94702382D02*
X160638381Y-94130953D01*
X160638381Y-94416667D02*
X159638381Y-94416667D01*
X159781238Y-94321429D01*
X159876476Y-94226191D01*
X159924095Y-94130953D01*
X160638381Y-95654763D02*
X160638381Y-95083334D01*
X160638381Y-95369048D02*
X159638381Y-95369048D01*
X159781238Y-95273810D01*
X159876476Y-95178572D01*
X159924095Y-95083334D01*
X160638381Y-96607144D02*
X160638381Y-96035715D01*
X160638381Y-96321429D02*
X159638381Y-96321429D01*
X159781238Y-96226191D01*
X159876476Y-96130953D01*
X159924095Y-96035715D01*
X159638381Y-96940477D02*
X159638381Y-97607144D01*
X160638381Y-97178572D01*
X160638381Y-97988096D02*
X159638381Y-97988096D01*
X160352667Y-98321430D01*
X159638381Y-98654763D01*
X160638381Y-98654763D01*
X160638381Y-99130953D02*
X159638381Y-99130953D01*
X159638381Y-99511906D01*
X159686000Y-99607144D01*
X159733619Y-99654763D01*
X159828857Y-99702382D01*
X159971714Y-99702382D01*
X160066952Y-99654763D01*
X160114571Y-99607144D01*
X160162190Y-99511906D01*
X160162190Y-99130953D01*
X160257429Y-100130953D02*
X160257429Y-100892858D01*
X159733619Y-101321429D02*
X159686000Y-101369048D01*
X159638381Y-101464286D01*
X159638381Y-101702382D01*
X159686000Y-101797620D01*
X159733619Y-101845239D01*
X159828857Y-101892858D01*
X159924095Y-101892858D01*
X160066952Y-101845239D01*
X160638381Y-101273810D01*
X160638381Y-101892858D01*
X160543143Y-102321429D02*
X160590762Y-102369048D01*
X160638381Y-102321429D01*
X160590762Y-102273810D01*
X160543143Y-102321429D01*
X160638381Y-102321429D01*
X159638381Y-103273810D02*
X159638381Y-102797619D01*
X160114571Y-102750000D01*
X160066952Y-102797619D01*
X160019333Y-102892857D01*
X160019333Y-103130953D01*
X160066952Y-103226191D01*
X160114571Y-103273810D01*
X160209810Y-103321429D01*
X160447905Y-103321429D01*
X160543143Y-103273810D01*
X160590762Y-103226191D01*
X160638381Y-103130953D01*
X160638381Y-102892857D01*
X160590762Y-102797619D01*
X160543143Y-102750000D01*
X153402381Y-69973810D02*
X153402381Y-69497619D01*
X152402381Y-69497619D01*
X152402381Y-70164286D02*
X152402381Y-70735715D01*
X153402381Y-70450000D02*
X152402381Y-70450000D01*
X152402381Y-71497620D02*
X152402381Y-71307143D01*
X152450000Y-71211905D01*
X152497619Y-71164286D01*
X152640476Y-71069048D01*
X152830952Y-71021429D01*
X153211905Y-71021429D01*
X153307143Y-71069048D01*
X153354762Y-71116667D01*
X153402381Y-71211905D01*
X153402381Y-71402382D01*
X153354762Y-71497620D01*
X153307143Y-71545239D01*
X153211905Y-71592858D01*
X152973810Y-71592858D01*
X152878571Y-71545239D01*
X152830952Y-71497620D01*
X152783333Y-71402382D01*
X152783333Y-71211905D01*
X152830952Y-71116667D01*
X152878571Y-71069048D01*
X152973810Y-71021429D01*
X153402381Y-72545239D02*
X153402381Y-71973810D01*
X153402381Y-72259524D02*
X152402381Y-72259524D01*
X152545238Y-72164286D01*
X152640476Y-72069048D01*
X152688095Y-71973810D01*
X152402381Y-73164286D02*
X152402381Y-73259525D01*
X152450000Y-73354763D01*
X152497619Y-73402382D01*
X152592857Y-73450001D01*
X152783333Y-73497620D01*
X153021429Y-73497620D01*
X153211905Y-73450001D01*
X153307143Y-73402382D01*
X153354762Y-73354763D01*
X153402381Y-73259525D01*
X153402381Y-73164286D01*
X153354762Y-73069048D01*
X153307143Y-73021429D01*
X153211905Y-72973810D01*
X153021429Y-72926191D01*
X152783333Y-72926191D01*
X152592857Y-72973810D01*
X152497619Y-73021429D01*
X152450000Y-73069048D01*
X152402381Y-73164286D01*
X152402381Y-74354763D02*
X152402381Y-74164286D01*
X152450000Y-74069048D01*
X152497619Y-74021429D01*
X152640476Y-73926191D01*
X152830952Y-73878572D01*
X153211905Y-73878572D01*
X153307143Y-73926191D01*
X153354762Y-73973810D01*
X153402381Y-74069048D01*
X153402381Y-74259525D01*
X153354762Y-74354763D01*
X153307143Y-74402382D01*
X153211905Y-74450001D01*
X152973810Y-74450001D01*
X152878571Y-74402382D01*
X152830952Y-74354763D01*
X152783333Y-74259525D01*
X152783333Y-74069048D01*
X152830952Y-73973810D01*
X152878571Y-73926191D01*
X152973810Y-73878572D01*
X146402381Y-68723810D02*
X146402381Y-68247619D01*
X145402381Y-68247619D01*
X145402381Y-68914286D02*
X145402381Y-69485715D01*
X146402381Y-69200000D02*
X145402381Y-69200000D01*
X145402381Y-70247620D02*
X145402381Y-70057143D01*
X145450000Y-69961905D01*
X145497619Y-69914286D01*
X145640476Y-69819048D01*
X145830952Y-69771429D01*
X146211905Y-69771429D01*
X146307143Y-69819048D01*
X146354762Y-69866667D01*
X146402381Y-69961905D01*
X146402381Y-70152382D01*
X146354762Y-70247620D01*
X146307143Y-70295239D01*
X146211905Y-70342858D01*
X145973810Y-70342858D01*
X145878571Y-70295239D01*
X145830952Y-70247620D01*
X145783333Y-70152382D01*
X145783333Y-69961905D01*
X145830952Y-69866667D01*
X145878571Y-69819048D01*
X145973810Y-69771429D01*
X146402381Y-71295239D02*
X146402381Y-70723810D01*
X146402381Y-71009524D02*
X145402381Y-71009524D01*
X145545238Y-70914286D01*
X145640476Y-70819048D01*
X145688095Y-70723810D01*
X145402381Y-71914286D02*
X145402381Y-72009525D01*
X145450000Y-72104763D01*
X145497619Y-72152382D01*
X145592857Y-72200001D01*
X145783333Y-72247620D01*
X146021429Y-72247620D01*
X146211905Y-72200001D01*
X146307143Y-72152382D01*
X146354762Y-72104763D01*
X146402381Y-72009525D01*
X146402381Y-71914286D01*
X146354762Y-71819048D01*
X146307143Y-71771429D01*
X146211905Y-71723810D01*
X146021429Y-71676191D01*
X145783333Y-71676191D01*
X145592857Y-71723810D01*
X145497619Y-71771429D01*
X145450000Y-71819048D01*
X145402381Y-71914286D01*
X145402381Y-73104763D02*
X145402381Y-72914286D01*
X145450000Y-72819048D01*
X145497619Y-72771429D01*
X145640476Y-72676191D01*
X145830952Y-72628572D01*
X146211905Y-72628572D01*
X146307143Y-72676191D01*
X146354762Y-72723810D01*
X146402381Y-72819048D01*
X146402381Y-73009525D01*
X146354762Y-73104763D01*
X146307143Y-73152382D01*
X146211905Y-73200001D01*
X145973810Y-73200001D01*
X145878571Y-73152382D01*
X145830952Y-73104763D01*
X145783333Y-73009525D01*
X145783333Y-72819048D01*
X145830952Y-72723810D01*
X145878571Y-72676191D01*
X145973810Y-72628572D01*
X159777143Y-101936191D02*
X159824762Y-101888572D01*
X159872381Y-101745715D01*
X159872381Y-101650477D01*
X159824762Y-101507619D01*
X159729524Y-101412381D01*
X159634286Y-101364762D01*
X159443810Y-101317143D01*
X159300952Y-101317143D01*
X159110476Y-101364762D01*
X159015238Y-101412381D01*
X158920000Y-101507619D01*
X158872381Y-101650477D01*
X158872381Y-101745715D01*
X158920000Y-101888572D01*
X158967619Y-101936191D01*
X158872381Y-102555238D02*
X158872381Y-102745715D01*
X158920000Y-102840953D01*
X159015238Y-102936191D01*
X159205714Y-102983810D01*
X159539048Y-102983810D01*
X159729524Y-102936191D01*
X159824762Y-102840953D01*
X159872381Y-102745715D01*
X159872381Y-102555238D01*
X159824762Y-102460000D01*
X159729524Y-102364762D01*
X159539048Y-102317143D01*
X159205714Y-102317143D01*
X159015238Y-102364762D01*
X158920000Y-102460000D01*
X158872381Y-102555238D01*
X159872381Y-103412381D02*
X158872381Y-103412381D01*
X159872381Y-103983810D01*
X158872381Y-103983810D01*
X159872381Y-104460000D02*
X158872381Y-104460000D01*
X159872381Y-105031429D01*
X158872381Y-105031429D01*
X159967619Y-105269524D02*
X159967619Y-106031429D01*
X158872381Y-106460000D02*
X158872381Y-106555239D01*
X158920000Y-106650477D01*
X158967619Y-106698096D01*
X159062857Y-106745715D01*
X159253333Y-106793334D01*
X159491429Y-106793334D01*
X159681905Y-106745715D01*
X159777143Y-106698096D01*
X159824762Y-106650477D01*
X159872381Y-106555239D01*
X159872381Y-106460000D01*
X159824762Y-106364762D01*
X159777143Y-106317143D01*
X159681905Y-106269524D01*
X159491429Y-106221905D01*
X159253333Y-106221905D01*
X159062857Y-106269524D01*
X158967619Y-106317143D01*
X158920000Y-106364762D01*
X158872381Y-106460000D01*
X159872381Y-107745715D02*
X159872381Y-107174286D01*
X159872381Y-107460000D02*
X158872381Y-107460000D01*
X159015238Y-107364762D01*
X159110476Y-107269524D01*
X159158095Y-107174286D01*
X158872381Y-108079048D02*
X159872381Y-108745715D01*
X158872381Y-108745715D02*
X159872381Y-108079048D01*
X158872381Y-109317143D02*
X158872381Y-109412382D01*
X158920000Y-109507620D01*
X158967619Y-109555239D01*
X159062857Y-109602858D01*
X159253333Y-109650477D01*
X159491429Y-109650477D01*
X159681905Y-109602858D01*
X159777143Y-109555239D01*
X159824762Y-109507620D01*
X159872381Y-109412382D01*
X159872381Y-109317143D01*
X159824762Y-109221905D01*
X159777143Y-109174286D01*
X159681905Y-109126667D01*
X159491429Y-109079048D01*
X159253333Y-109079048D01*
X159062857Y-109126667D01*
X158967619Y-109174286D01*
X158920000Y-109221905D01*
X158872381Y-109317143D01*
X158872381Y-109983810D02*
X158872381Y-110602858D01*
X159253333Y-110269524D01*
X159253333Y-110412382D01*
X159300952Y-110507620D01*
X159348571Y-110555239D01*
X159443810Y-110602858D01*
X159681905Y-110602858D01*
X159777143Y-110555239D01*
X159824762Y-110507620D01*
X159872381Y-110412382D01*
X159872381Y-110126667D01*
X159824762Y-110031429D01*
X159777143Y-109983810D01*
X117039381Y-88988095D02*
X116039381Y-88988095D01*
X117039381Y-90035714D02*
X116563190Y-89702380D01*
X117039381Y-89464285D02*
X116039381Y-89464285D01*
X116039381Y-89845238D01*
X116087000Y-89940476D01*
X116134619Y-89988095D01*
X116229857Y-90035714D01*
X116372714Y-90035714D01*
X116467952Y-89988095D01*
X116515571Y-89940476D01*
X116563190Y-89845238D01*
X116563190Y-89464285D01*
X116515571Y-90797619D02*
X116515571Y-90464285D01*
X117039381Y-90464285D02*
X116039381Y-90464285D01*
X116039381Y-90940476D01*
X117039381Y-91892857D02*
X116563190Y-91559523D01*
X117039381Y-91321428D02*
X116039381Y-91321428D01*
X116039381Y-91702381D01*
X116087000Y-91797619D01*
X116134619Y-91845238D01*
X116229857Y-91892857D01*
X116372714Y-91892857D01*
X116467952Y-91845238D01*
X116515571Y-91797619D01*
X116563190Y-91702381D01*
X116563190Y-91321428D01*
X116039381Y-92797619D02*
X116039381Y-92321428D01*
X116515571Y-92273809D01*
X116467952Y-92321428D01*
X116420333Y-92416666D01*
X116420333Y-92654762D01*
X116467952Y-92750000D01*
X116515571Y-92797619D01*
X116610810Y-92845238D01*
X116848905Y-92845238D01*
X116944143Y-92797619D01*
X116991762Y-92750000D01*
X117039381Y-92654762D01*
X117039381Y-92416666D01*
X116991762Y-92321428D01*
X116944143Y-92273809D01*
X116039381Y-93178571D02*
X116039381Y-93797619D01*
X116420333Y-93464285D01*
X116420333Y-93607143D01*
X116467952Y-93702381D01*
X116515571Y-93750000D01*
X116610810Y-93797619D01*
X116848905Y-93797619D01*
X116944143Y-93750000D01*
X116991762Y-93702381D01*
X117039381Y-93607143D01*
X117039381Y-93321428D01*
X116991762Y-93226190D01*
X116944143Y-93178571D01*
X116039381Y-94416666D02*
X116039381Y-94511905D01*
X116087000Y-94607143D01*
X116134619Y-94654762D01*
X116229857Y-94702381D01*
X116420333Y-94750000D01*
X116658429Y-94750000D01*
X116848905Y-94702381D01*
X116944143Y-94654762D01*
X116991762Y-94607143D01*
X117039381Y-94511905D01*
X117039381Y-94416666D01*
X116991762Y-94321428D01*
X116944143Y-94273809D01*
X116848905Y-94226190D01*
X116658429Y-94178571D01*
X116420333Y-94178571D01*
X116229857Y-94226190D01*
X116134619Y-94273809D01*
X116087000Y-94321428D01*
X116039381Y-94416666D01*
X116039381Y-95654762D02*
X116039381Y-95178571D01*
X116515571Y-95130952D01*
X116467952Y-95178571D01*
X116420333Y-95273809D01*
X116420333Y-95511905D01*
X116467952Y-95607143D01*
X116515571Y-95654762D01*
X116610810Y-95702381D01*
X116848905Y-95702381D01*
X116944143Y-95654762D01*
X116991762Y-95607143D01*
X117039381Y-95511905D01*
X117039381Y-95273809D01*
X116991762Y-95178571D01*
X116944143Y-95130952D01*
X117039381Y-96130952D02*
X116039381Y-96130952D01*
X116039381Y-96511905D01*
X116087000Y-96607143D01*
X116134619Y-96654762D01*
X116229857Y-96702381D01*
X116372714Y-96702381D01*
X116467952Y-96654762D01*
X116515571Y-96607143D01*
X116563190Y-96511905D01*
X116563190Y-96130952D01*
X116515571Y-97464286D02*
X116563190Y-97607143D01*
X116610810Y-97654762D01*
X116706048Y-97702381D01*
X116848905Y-97702381D01*
X116944143Y-97654762D01*
X116991762Y-97607143D01*
X117039381Y-97511905D01*
X117039381Y-97130952D01*
X116039381Y-97130952D01*
X116039381Y-97464286D01*
X116087000Y-97559524D01*
X116134619Y-97607143D01*
X116229857Y-97654762D01*
X116325095Y-97654762D01*
X116420333Y-97607143D01*
X116467952Y-97559524D01*
X116515571Y-97464286D01*
X116515571Y-97130952D01*
X116515571Y-98464286D02*
X116515571Y-98130952D01*
X117039381Y-98130952D02*
X116039381Y-98130952D01*
X116039381Y-98607143D01*
X158773809Y-104977143D02*
X158821428Y-105024762D01*
X158964285Y-105072381D01*
X159059523Y-105072381D01*
X159202381Y-105024762D01*
X159297619Y-104929524D01*
X159345238Y-104834286D01*
X159392857Y-104643810D01*
X159392857Y-104500952D01*
X159345238Y-104310476D01*
X159297619Y-104215238D01*
X159202381Y-104120000D01*
X159059523Y-104072381D01*
X158964285Y-104072381D01*
X158821428Y-104120000D01*
X158773809Y-104167619D01*
X158154762Y-104072381D02*
X157964285Y-104072381D01*
X157869047Y-104120000D01*
X157773809Y-104215238D01*
X157726190Y-104405714D01*
X157726190Y-104739048D01*
X157773809Y-104929524D01*
X157869047Y-105024762D01*
X157964285Y-105072381D01*
X158154762Y-105072381D01*
X158250000Y-105024762D01*
X158345238Y-104929524D01*
X158392857Y-104739048D01*
X158392857Y-104405714D01*
X158345238Y-104215238D01*
X158250000Y-104120000D01*
X158154762Y-104072381D01*
X157297619Y-105072381D02*
X157297619Y-104072381D01*
X156726190Y-105072381D01*
X156726190Y-104072381D01*
X156250000Y-105072381D02*
X156250000Y-104072381D01*
X155678571Y-105072381D01*
X155678571Y-104072381D01*
X155440476Y-105167619D02*
X154678571Y-105167619D01*
X154250000Y-104072381D02*
X154154761Y-104072381D01*
X154059523Y-104120000D01*
X154011904Y-104167619D01*
X153964285Y-104262857D01*
X153916666Y-104453333D01*
X153916666Y-104691429D01*
X153964285Y-104881905D01*
X154011904Y-104977143D01*
X154059523Y-105024762D01*
X154154761Y-105072381D01*
X154250000Y-105072381D01*
X154345238Y-105024762D01*
X154392857Y-104977143D01*
X154440476Y-104881905D01*
X154488095Y-104691429D01*
X154488095Y-104453333D01*
X154440476Y-104262857D01*
X154392857Y-104167619D01*
X154345238Y-104120000D01*
X154250000Y-104072381D01*
X152964285Y-105072381D02*
X153535714Y-105072381D01*
X153250000Y-105072381D02*
X153250000Y-104072381D01*
X153345238Y-104215238D01*
X153440476Y-104310476D01*
X153535714Y-104358095D01*
X152630952Y-104072381D02*
X151964285Y-105072381D01*
X151964285Y-104072381D02*
X152630952Y-105072381D01*
X151392857Y-104072381D02*
X151297618Y-104072381D01*
X151202380Y-104120000D01*
X151154761Y-104167619D01*
X151107142Y-104262857D01*
X151059523Y-104453333D01*
X151059523Y-104691429D01*
X151107142Y-104881905D01*
X151154761Y-104977143D01*
X151202380Y-105024762D01*
X151297618Y-105072381D01*
X151392857Y-105072381D01*
X151488095Y-105024762D01*
X151535714Y-104977143D01*
X151583333Y-104881905D01*
X151630952Y-104691429D01*
X151630952Y-104453333D01*
X151583333Y-104262857D01*
X151535714Y-104167619D01*
X151488095Y-104120000D01*
X151392857Y-104072381D01*
X150726190Y-104072381D02*
X150107142Y-104072381D01*
X150440476Y-104453333D01*
X150297618Y-104453333D01*
X150202380Y-104500952D01*
X150154761Y-104548571D01*
X150107142Y-104643810D01*
X150107142Y-104881905D01*
X150154761Y-104977143D01*
X150202380Y-105024762D01*
X150297618Y-105072381D01*
X150583333Y-105072381D01*
X150678571Y-105024762D01*
X150726190Y-104977143D01*
X161771429Y-59752381D02*
X161771429Y-60561905D01*
X161723810Y-60657143D01*
X161676191Y-60704762D01*
X161580953Y-60752381D01*
X161390476Y-60752381D01*
X161295238Y-60704762D01*
X161247619Y-60657143D01*
X161200000Y-60561905D01*
X161200000Y-59752381D01*
X160771429Y-60704762D02*
X160628572Y-60752381D01*
X160390476Y-60752381D01*
X160295238Y-60704762D01*
X160247619Y-60657143D01*
X160200000Y-60561905D01*
X160200000Y-60466667D01*
X160247619Y-60371429D01*
X160295238Y-60323810D01*
X160390476Y-60276190D01*
X160580953Y-60228571D01*
X160676191Y-60180952D01*
X160723810Y-60133333D01*
X160771429Y-60038095D01*
X160771429Y-59942857D01*
X160723810Y-59847619D01*
X160676191Y-59800000D01*
X160580953Y-59752381D01*
X160342857Y-59752381D01*
X160200000Y-59800000D01*
X159438095Y-60228571D02*
X159295238Y-60276190D01*
X159247619Y-60323810D01*
X159200000Y-60419048D01*
X159200000Y-60561905D01*
X159247619Y-60657143D01*
X159295238Y-60704762D01*
X159390476Y-60752381D01*
X159771429Y-60752381D01*
X159771429Y-59752381D01*
X159438095Y-59752381D01*
X159342857Y-59800000D01*
X159295238Y-59847619D01*
X159247619Y-59942857D01*
X159247619Y-60038095D01*
X159295238Y-60133333D01*
X159342857Y-60180952D01*
X159438095Y-60228571D01*
X159771429Y-60228571D01*
X159009524Y-60847619D02*
X158247619Y-60847619D01*
X158057143Y-60466667D02*
X157580952Y-60466667D01*
X158152381Y-60752381D02*
X157819048Y-59752381D01*
X157485714Y-60752381D01*
X111771429Y-59752381D02*
X111771429Y-60561905D01*
X111723810Y-60657143D01*
X111676191Y-60704762D01*
X111580953Y-60752381D01*
X111390476Y-60752381D01*
X111295238Y-60704762D01*
X111247619Y-60657143D01*
X111200000Y-60561905D01*
X111200000Y-59752381D01*
X110771429Y-60704762D02*
X110628572Y-60752381D01*
X110390476Y-60752381D01*
X110295238Y-60704762D01*
X110247619Y-60657143D01*
X110200000Y-60561905D01*
X110200000Y-60466667D01*
X110247619Y-60371429D01*
X110295238Y-60323810D01*
X110390476Y-60276190D01*
X110580953Y-60228571D01*
X110676191Y-60180952D01*
X110723810Y-60133333D01*
X110771429Y-60038095D01*
X110771429Y-59942857D01*
X110723810Y-59847619D01*
X110676191Y-59800000D01*
X110580953Y-59752381D01*
X110342857Y-59752381D01*
X110200000Y-59800000D01*
X109438095Y-60228571D02*
X109295238Y-60276190D01*
X109247619Y-60323810D01*
X109200000Y-60419048D01*
X109200000Y-60561905D01*
X109247619Y-60657143D01*
X109295238Y-60704762D01*
X109390476Y-60752381D01*
X109771429Y-60752381D01*
X109771429Y-59752381D01*
X109438095Y-59752381D01*
X109342857Y-59800000D01*
X109295238Y-59847619D01*
X109247619Y-59942857D01*
X109247619Y-60038095D01*
X109295238Y-60133333D01*
X109342857Y-60180952D01*
X109438095Y-60228571D01*
X109771429Y-60228571D01*
X109009524Y-60847619D02*
X108247619Y-60847619D01*
X108057143Y-60466667D02*
X107580952Y-60466667D01*
X108152381Y-60752381D02*
X107819048Y-59752381D01*
X107485714Y-60752381D01*
X146240476Y-80102381D02*
X146811905Y-80102381D01*
X146526191Y-80102381D02*
X146526191Y-79102381D01*
X146621429Y-79245238D01*
X146716667Y-79340476D01*
X146811905Y-79388095D01*
X145621429Y-79102381D02*
X145526190Y-79102381D01*
X145430952Y-79150000D01*
X145383333Y-79197619D01*
X145335714Y-79292857D01*
X145288095Y-79483333D01*
X145288095Y-79721429D01*
X145335714Y-79911905D01*
X145383333Y-80007143D01*
X145430952Y-80054762D01*
X145526190Y-80102381D01*
X145621429Y-80102381D01*
X145716667Y-80054762D01*
X145764286Y-80007143D01*
X145811905Y-79911905D01*
X145859524Y-79721429D01*
X145859524Y-79483333D01*
X145811905Y-79292857D01*
X145764286Y-79197619D01*
X145716667Y-79150000D01*
X145621429Y-79102381D01*
X144859524Y-80102381D02*
X144859524Y-79102381D01*
X144288095Y-80102381D02*
X144716667Y-79530952D01*
X144288095Y-79102381D02*
X144859524Y-79673810D01*
X157052381Y-75859524D02*
X157052381Y-75288095D01*
X157052381Y-75573809D02*
X156052381Y-75573809D01*
X156195238Y-75478571D01*
X156290476Y-75383333D01*
X156338095Y-75288095D01*
X156052381Y-76478571D02*
X156052381Y-76573810D01*
X156100000Y-76669048D01*
X156147619Y-76716667D01*
X156242857Y-76764286D01*
X156433333Y-76811905D01*
X156671429Y-76811905D01*
X156861905Y-76764286D01*
X156957143Y-76716667D01*
X157004762Y-76669048D01*
X157052381Y-76573810D01*
X157052381Y-76478571D01*
X157004762Y-76383333D01*
X156957143Y-76335714D01*
X156861905Y-76288095D01*
X156671429Y-76240476D01*
X156433333Y-76240476D01*
X156242857Y-76288095D01*
X156147619Y-76335714D01*
X156100000Y-76383333D01*
X156052381Y-76478571D01*
X157052381Y-77240476D02*
X156052381Y-77240476D01*
X157052381Y-77811905D02*
X156480952Y-77383333D01*
X156052381Y-77811905D02*
X156623810Y-77240476D01*
X164052381Y-77009524D02*
X164052381Y-76438095D01*
X164052381Y-76723809D02*
X163052381Y-76723809D01*
X163195238Y-76628571D01*
X163290476Y-76533333D01*
X163338095Y-76438095D01*
X163052381Y-77628571D02*
X163052381Y-77723810D01*
X163100000Y-77819048D01*
X163147619Y-77866667D01*
X163242857Y-77914286D01*
X163433333Y-77961905D01*
X163671429Y-77961905D01*
X163861905Y-77914286D01*
X163957143Y-77866667D01*
X164004762Y-77819048D01*
X164052381Y-77723810D01*
X164052381Y-77628571D01*
X164004762Y-77533333D01*
X163957143Y-77485714D01*
X163861905Y-77438095D01*
X163671429Y-77390476D01*
X163433333Y-77390476D01*
X163242857Y-77438095D01*
X163147619Y-77485714D01*
X163100000Y-77533333D01*
X163052381Y-77628571D01*
X164052381Y-78390476D02*
X163052381Y-78390476D01*
X164052381Y-78961905D02*
X163480952Y-78533333D01*
X163052381Y-78961905D02*
X163623810Y-78390476D01*
X149802381Y-74509524D02*
X149802381Y-73938095D01*
X149802381Y-74223809D02*
X148802381Y-74223809D01*
X148945238Y-74128571D01*
X149040476Y-74033333D01*
X149088095Y-73938095D01*
X148802381Y-75128571D02*
X148802381Y-75223810D01*
X148850000Y-75319048D01*
X148897619Y-75366667D01*
X148992857Y-75414286D01*
X149183333Y-75461905D01*
X149421429Y-75461905D01*
X149611905Y-75414286D01*
X149707143Y-75366667D01*
X149754762Y-75319048D01*
X149802381Y-75223810D01*
X149802381Y-75128571D01*
X149754762Y-75033333D01*
X149707143Y-74985714D01*
X149611905Y-74938095D01*
X149421429Y-74890476D01*
X149183333Y-74890476D01*
X148992857Y-74938095D01*
X148897619Y-74985714D01*
X148850000Y-75033333D01*
X148802381Y-75128571D01*
X149802381Y-75890476D02*
X148802381Y-75890476D01*
X149802381Y-76461905D02*
X149230952Y-76033333D01*
X148802381Y-76461905D02*
X149373810Y-75890476D01*
X147523809Y-104977143D02*
X147571428Y-105024762D01*
X147714285Y-105072381D01*
X147809523Y-105072381D01*
X147952381Y-105024762D01*
X148047619Y-104929524D01*
X148095238Y-104834286D01*
X148142857Y-104643810D01*
X148142857Y-104500952D01*
X148095238Y-104310476D01*
X148047619Y-104215238D01*
X147952381Y-104120000D01*
X147809523Y-104072381D01*
X147714285Y-104072381D01*
X147571428Y-104120000D01*
X147523809Y-104167619D01*
X146904762Y-104072381D02*
X146714285Y-104072381D01*
X146619047Y-104120000D01*
X146523809Y-104215238D01*
X146476190Y-104405714D01*
X146476190Y-104739048D01*
X146523809Y-104929524D01*
X146619047Y-105024762D01*
X146714285Y-105072381D01*
X146904762Y-105072381D01*
X147000000Y-105024762D01*
X147095238Y-104929524D01*
X147142857Y-104739048D01*
X147142857Y-104405714D01*
X147095238Y-104215238D01*
X147000000Y-104120000D01*
X146904762Y-104072381D01*
X146047619Y-105072381D02*
X146047619Y-104072381D01*
X145476190Y-105072381D01*
X145476190Y-104072381D01*
X145000000Y-105072381D02*
X145000000Y-104072381D01*
X144428571Y-105072381D01*
X144428571Y-104072381D01*
X144190476Y-105167619D02*
X143428571Y-105167619D01*
X143000000Y-104072381D02*
X142904761Y-104072381D01*
X142809523Y-104120000D01*
X142761904Y-104167619D01*
X142714285Y-104262857D01*
X142666666Y-104453333D01*
X142666666Y-104691429D01*
X142714285Y-104881905D01*
X142761904Y-104977143D01*
X142809523Y-105024762D01*
X142904761Y-105072381D01*
X143000000Y-105072381D01*
X143095238Y-105024762D01*
X143142857Y-104977143D01*
X143190476Y-104881905D01*
X143238095Y-104691429D01*
X143238095Y-104453333D01*
X143190476Y-104262857D01*
X143142857Y-104167619D01*
X143095238Y-104120000D01*
X143000000Y-104072381D01*
X141714285Y-105072381D02*
X142285714Y-105072381D01*
X142000000Y-105072381D02*
X142000000Y-104072381D01*
X142095238Y-104215238D01*
X142190476Y-104310476D01*
X142285714Y-104358095D01*
X141380952Y-104072381D02*
X140714285Y-105072381D01*
X140714285Y-104072381D02*
X141380952Y-105072381D01*
X140142857Y-104072381D02*
X140047618Y-104072381D01*
X139952380Y-104120000D01*
X139904761Y-104167619D01*
X139857142Y-104262857D01*
X139809523Y-104453333D01*
X139809523Y-104691429D01*
X139857142Y-104881905D01*
X139904761Y-104977143D01*
X139952380Y-105024762D01*
X140047618Y-105072381D01*
X140142857Y-105072381D01*
X140238095Y-105024762D01*
X140285714Y-104977143D01*
X140333333Y-104881905D01*
X140380952Y-104691429D01*
X140380952Y-104453333D01*
X140333333Y-104262857D01*
X140285714Y-104167619D01*
X140238095Y-104120000D01*
X140142857Y-104072381D01*
X138952380Y-104072381D02*
X139142857Y-104072381D01*
X139238095Y-104120000D01*
X139285714Y-104167619D01*
X139380952Y-104310476D01*
X139428571Y-104500952D01*
X139428571Y-104881905D01*
X139380952Y-104977143D01*
X139333333Y-105024762D01*
X139238095Y-105072381D01*
X139047618Y-105072381D01*
X138952380Y-105024762D01*
X138904761Y-104977143D01*
X138857142Y-104881905D01*
X138857142Y-104643810D01*
X138904761Y-104548571D01*
X138952380Y-104500952D01*
X139047618Y-104453333D01*
X139238095Y-104453333D01*
X139333333Y-104500952D01*
X139380952Y-104548571D01*
X139428571Y-104643810D01*
X142752381Y-79628572D02*
X142752381Y-79057143D01*
X142752381Y-79342857D02*
X141752381Y-79342857D01*
X141895238Y-79247619D01*
X141990476Y-79152381D01*
X142038095Y-79057143D01*
X141752381Y-80247619D02*
X141752381Y-80342858D01*
X141800000Y-80438096D01*
X141847619Y-80485715D01*
X141942857Y-80533334D01*
X142133333Y-80580953D01*
X142371429Y-80580953D01*
X142561905Y-80533334D01*
X142657143Y-80485715D01*
X142704762Y-80438096D01*
X142752381Y-80342858D01*
X142752381Y-80247619D01*
X142704762Y-80152381D01*
X142657143Y-80104762D01*
X142561905Y-80057143D01*
X142371429Y-80009524D01*
X142133333Y-80009524D01*
X141942857Y-80057143D01*
X141847619Y-80104762D01*
X141800000Y-80152381D01*
X141752381Y-80247619D01*
X142085714Y-81438096D02*
X142752381Y-81438096D01*
X142085714Y-81009524D02*
X142609524Y-81009524D01*
X142704762Y-81057143D01*
X142752381Y-81152381D01*
X142752381Y-81295239D01*
X142704762Y-81390477D01*
X142657143Y-81438096D01*
X142228571Y-82247620D02*
X142228571Y-81914286D01*
X142752381Y-81914286D02*
X141752381Y-81914286D01*
X141752381Y-82390477D01*
X122952381Y-81128572D02*
X122952381Y-80557143D01*
X122952381Y-80842857D02*
X121952381Y-80842857D01*
X122095238Y-80747619D01*
X122190476Y-80652381D01*
X122238095Y-80557143D01*
X121952381Y-81747619D02*
X121952381Y-81842858D01*
X122000000Y-81938096D01*
X122047619Y-81985715D01*
X122142857Y-82033334D01*
X122333333Y-82080953D01*
X122571429Y-82080953D01*
X122761905Y-82033334D01*
X122857143Y-81985715D01*
X122904762Y-81938096D01*
X122952381Y-81842858D01*
X122952381Y-81747619D01*
X122904762Y-81652381D01*
X122857143Y-81604762D01*
X122761905Y-81557143D01*
X122571429Y-81509524D01*
X122333333Y-81509524D01*
X122142857Y-81557143D01*
X122047619Y-81604762D01*
X122000000Y-81652381D01*
X121952381Y-81747619D01*
X122285714Y-82938096D02*
X122952381Y-82938096D01*
X122285714Y-82509524D02*
X122809524Y-82509524D01*
X122904762Y-82557143D01*
X122952381Y-82652381D01*
X122952381Y-82795239D01*
X122904762Y-82890477D01*
X122857143Y-82938096D01*
X122428571Y-83747620D02*
X122428571Y-83414286D01*
X122952381Y-83414286D02*
X121952381Y-83414286D01*
X121952381Y-83890477D01*
X131547619Y-88802381D02*
X132119048Y-88802381D01*
X131833334Y-88802381D02*
X131833334Y-87802381D01*
X131928572Y-87945238D01*
X132023810Y-88040476D01*
X132119048Y-88088095D01*
X130928572Y-87802381D02*
X130833333Y-87802381D01*
X130738095Y-87850000D01*
X130690476Y-87897619D01*
X130642857Y-87992857D01*
X130595238Y-88183333D01*
X130595238Y-88421429D01*
X130642857Y-88611905D01*
X130690476Y-88707143D01*
X130738095Y-88754762D01*
X130833333Y-88802381D01*
X130928572Y-88802381D01*
X131023810Y-88754762D01*
X131071429Y-88707143D01*
X131119048Y-88611905D01*
X131166667Y-88421429D01*
X131166667Y-88183333D01*
X131119048Y-87992857D01*
X131071429Y-87897619D01*
X131023810Y-87850000D01*
X130928572Y-87802381D01*
X129976191Y-87802381D02*
X129880952Y-87802381D01*
X129785714Y-87850000D01*
X129738095Y-87897619D01*
X129690476Y-87992857D01*
X129642857Y-88183333D01*
X129642857Y-88421429D01*
X129690476Y-88611905D01*
X129738095Y-88707143D01*
X129785714Y-88754762D01*
X129880952Y-88802381D01*
X129976191Y-88802381D01*
X130071429Y-88754762D01*
X130119048Y-88707143D01*
X130166667Y-88611905D01*
X130214286Y-88421429D01*
X130214286Y-88183333D01*
X130166667Y-87992857D01*
X130119048Y-87897619D01*
X130071429Y-87850000D01*
X129976191Y-87802381D01*
X129214286Y-88135714D02*
X129214286Y-88802381D01*
X129214286Y-88230952D02*
X129166667Y-88183333D01*
X129071429Y-88135714D01*
X128928571Y-88135714D01*
X128833333Y-88183333D01*
X128785714Y-88278571D01*
X128785714Y-88802381D01*
X127976190Y-88278571D02*
X128309524Y-88278571D01*
X128309524Y-88802381D02*
X128309524Y-87802381D01*
X127833333Y-87802381D01*
X158752381Y-85964286D02*
X158752381Y-86583334D01*
X159133333Y-86250000D01*
X159133333Y-86392858D01*
X159180952Y-86488096D01*
X159228571Y-86535715D01*
X159323810Y-86583334D01*
X159561905Y-86583334D01*
X159657143Y-86535715D01*
X159704762Y-86488096D01*
X159752381Y-86392858D01*
X159752381Y-86107143D01*
X159704762Y-86011905D01*
X159657143Y-85964286D01*
X158752381Y-86916667D02*
X158752381Y-87535715D01*
X159133333Y-87202381D01*
X159133333Y-87345239D01*
X159180952Y-87440477D01*
X159228571Y-87488096D01*
X159323810Y-87535715D01*
X159561905Y-87535715D01*
X159657143Y-87488096D01*
X159704762Y-87440477D01*
X159752381Y-87345239D01*
X159752381Y-87059524D01*
X159704762Y-86964286D01*
X159657143Y-86916667D01*
X158752381Y-88154762D02*
X158752381Y-88250001D01*
X158800000Y-88345239D01*
X158847619Y-88392858D01*
X158942857Y-88440477D01*
X159133333Y-88488096D01*
X159371429Y-88488096D01*
X159561905Y-88440477D01*
X159657143Y-88392858D01*
X159704762Y-88345239D01*
X159752381Y-88250001D01*
X159752381Y-88154762D01*
X159704762Y-88059524D01*
X159657143Y-88011905D01*
X159561905Y-87964286D01*
X159371429Y-87916667D01*
X159133333Y-87916667D01*
X158942857Y-87964286D01*
X158847619Y-88011905D01*
X158800000Y-88059524D01*
X158752381Y-88154762D01*
X161252381Y-85914286D02*
X161252381Y-86533334D01*
X161633333Y-86200000D01*
X161633333Y-86342858D01*
X161680952Y-86438096D01*
X161728571Y-86485715D01*
X161823810Y-86533334D01*
X162061905Y-86533334D01*
X162157143Y-86485715D01*
X162204762Y-86438096D01*
X162252381Y-86342858D01*
X162252381Y-86057143D01*
X162204762Y-85961905D01*
X162157143Y-85914286D01*
X161252381Y-86866667D02*
X161252381Y-87485715D01*
X161633333Y-87152381D01*
X161633333Y-87295239D01*
X161680952Y-87390477D01*
X161728571Y-87438096D01*
X161823810Y-87485715D01*
X162061905Y-87485715D01*
X162157143Y-87438096D01*
X162204762Y-87390477D01*
X162252381Y-87295239D01*
X162252381Y-87009524D01*
X162204762Y-86914286D01*
X162157143Y-86866667D01*
X161252381Y-88104762D02*
X161252381Y-88200001D01*
X161300000Y-88295239D01*
X161347619Y-88342858D01*
X161442857Y-88390477D01*
X161633333Y-88438096D01*
X161871429Y-88438096D01*
X162061905Y-88390477D01*
X162157143Y-88342858D01*
X162204762Y-88295239D01*
X162252381Y-88200001D01*
X162252381Y-88104762D01*
X162204762Y-88009524D01*
X162157143Y-87961905D01*
X162061905Y-87914286D01*
X161871429Y-87866667D01*
X161633333Y-87866667D01*
X161442857Y-87914286D01*
X161347619Y-87961905D01*
X161300000Y-88009524D01*
X161252381Y-88104762D01*
X124435714Y-90288096D02*
X125102381Y-90288096D01*
X124054762Y-90050000D02*
X124769048Y-89811905D01*
X124769048Y-90430953D01*
X124102381Y-90716667D02*
X124102381Y-91383334D01*
X125102381Y-90954762D01*
X124102381Y-91954762D02*
X124102381Y-92050001D01*
X124150000Y-92145239D01*
X124197619Y-92192858D01*
X124292857Y-92240477D01*
X124483333Y-92288096D01*
X124721429Y-92288096D01*
X124911905Y-92240477D01*
X125007143Y-92192858D01*
X125054762Y-92145239D01*
X125102381Y-92050001D01*
X125102381Y-91954762D01*
X125054762Y-91859524D01*
X125007143Y-91811905D01*
X124911905Y-91764286D01*
X124721429Y-91716667D01*
X124483333Y-91716667D01*
X124292857Y-91764286D01*
X124197619Y-91811905D01*
X124150000Y-91859524D01*
X124102381Y-91954762D01*
X125102381Y-92716667D02*
X124102381Y-92716667D01*
X125102381Y-93288096D02*
X124530952Y-92859524D01*
X124102381Y-93288096D02*
X124673810Y-92716667D01*
M02*
