%FSLAX45Y45*%
G04 Gerber Fmt 4.5, Leading zero omitted, Abs format (unit mm)*
G04 Created by KiCad (PCBNEW 4.0.1-stable) date 07.06.2016 17:51:53*
%MOMM*%
G01*
G04 APERTURE LIST*
%ADD10C,0.127000*%
%ADD11C,0.150000*%
%ADD12C,0.200000*%
%ADD13C,0.300000*%
G04 APERTURE END LIST*
D10*
D11*
X9525000Y-4850000D02*
X16850000Y-4850000D01*
X9525000Y-11525000D02*
X9525000Y-4850000D01*
X16850000Y-11525000D02*
X9525000Y-11525000D01*
X16850000Y-4850000D02*
X16850000Y-11525000D01*
D12*
X9960000Y-6430000D02*
X10000000Y-6470000D01*
X10000000Y-6430000D02*
X9960000Y-6470000D01*
X10103812Y-5730000D02*
X10143812Y-5770000D01*
X10143812Y-5730000D02*
X10103812Y-5770000D01*
X10130000Y-5030000D02*
X10170000Y-5070000D01*
X10170000Y-5030000D02*
X10130000Y-5070000D01*
X10230000Y-6920000D02*
X10270000Y-6960000D01*
X10270000Y-6920000D02*
X10230000Y-6960000D01*
X10595000Y-6291000D02*
X10635000Y-6331000D01*
X10635000Y-6291000D02*
X10595000Y-6331000D01*
X10975000Y-5865000D02*
X11015000Y-5905000D01*
X11015000Y-5865000D02*
X10975000Y-5905000D01*
X10980000Y-5030000D02*
X11020000Y-5070000D01*
X11020000Y-5030000D02*
X10980000Y-5070000D01*
X11230000Y-5646466D02*
X11270000Y-5686466D01*
X11270000Y-5646466D02*
X11230000Y-5686466D01*
X11380000Y-7670000D02*
X11420000Y-7710000D01*
X11420000Y-7670000D02*
X11380000Y-7710000D01*
X11640000Y-10080000D02*
X11680000Y-10120000D01*
X11680000Y-10080000D02*
X11640000Y-10120000D01*
X11660000Y-9750000D02*
X11700000Y-9790000D01*
X11700000Y-9750000D02*
X11660000Y-9790000D01*
X11890000Y-10635000D02*
X11930000Y-10675000D01*
X11930000Y-10635000D02*
X11890000Y-10675000D01*
X11895000Y-11060000D02*
X11935000Y-11100000D01*
X11935000Y-11060000D02*
X11895000Y-11100000D01*
X11910000Y-10805000D02*
X11950000Y-10845000D01*
X11950000Y-10805000D02*
X11910000Y-10845000D01*
X11975000Y-5870000D02*
X12015000Y-5910000D01*
X12015000Y-5870000D02*
X11975000Y-5910000D01*
X12230000Y-5646466D02*
X12270000Y-5686466D01*
X12270000Y-5646466D02*
X12230000Y-5686466D01*
X12450001Y-7920000D02*
X12490001Y-7960000D01*
X12490001Y-7920000D02*
X12450001Y-7960000D01*
X12510000Y-7585000D02*
X12550000Y-7625000D01*
X12550000Y-7585000D02*
X12510000Y-7625000D01*
X12620000Y-8805000D02*
X12660000Y-8845000D01*
X12660000Y-8805000D02*
X12620000Y-8845000D01*
X12725000Y-10155000D02*
X12765000Y-10195000D01*
X12765000Y-10155000D02*
X12725000Y-10195000D01*
X12745000Y-9816000D02*
X12785000Y-9856000D01*
X12785000Y-9816000D02*
X12745000Y-9856000D01*
X12780000Y-10247500D02*
X12820000Y-10287500D01*
X12820000Y-10247500D02*
X12780000Y-10287500D01*
X12825000Y-8270000D02*
X12865000Y-8310000D01*
X12865000Y-8270000D02*
X12825000Y-8310000D01*
X12875000Y-8820000D02*
X12915000Y-8860000D01*
X12915000Y-8820000D02*
X12875000Y-8860000D01*
X12980000Y-5860000D02*
X13020000Y-5900000D01*
X13020000Y-5860000D02*
X12980000Y-5900000D01*
X13200000Y-10440000D02*
X13240000Y-10480000D01*
X13240000Y-10440000D02*
X13200000Y-10480000D01*
X13205000Y-5646466D02*
X13245000Y-5686466D01*
X13245000Y-5646466D02*
X13205000Y-5686466D01*
X13400000Y-8865000D02*
X13440000Y-8905000D01*
X13440000Y-8865000D02*
X13400000Y-8905000D01*
X13975000Y-5870000D02*
X14015000Y-5910000D01*
X14015000Y-5870000D02*
X13975000Y-5910000D01*
X14000000Y-8300000D02*
X14040000Y-8340000D01*
X14040000Y-8300000D02*
X14000000Y-8340000D01*
X14205000Y-5646466D02*
X14245000Y-5686466D01*
X14245000Y-5646466D02*
X14205000Y-5686466D01*
X14440000Y-7790000D02*
X14480000Y-7830000D01*
X14480000Y-7790000D02*
X14440000Y-7830000D01*
X14581000Y-6796000D02*
X14621000Y-6836000D01*
X14621000Y-6796000D02*
X14581000Y-6836000D01*
X14630000Y-7230000D02*
X14670000Y-7270000D01*
X14670000Y-7230000D02*
X14630000Y-7270000D01*
X14630000Y-8780000D02*
X14670000Y-8820000D01*
X14670000Y-8780000D02*
X14630000Y-8820000D01*
X14705000Y-8730000D02*
X14745000Y-8770000D01*
X14745000Y-8730000D02*
X14705000Y-8770000D01*
X14755000Y-6305000D02*
X14795000Y-6345000D01*
X14795000Y-6305000D02*
X14755000Y-6345000D01*
X14860000Y-7555000D02*
X14900000Y-7595000D01*
X14900000Y-7555000D02*
X14860000Y-7595000D01*
X14905000Y-9047986D02*
X14945000Y-9087986D01*
X14945000Y-9047986D02*
X14905000Y-9087986D01*
X14905000Y-9707999D02*
X14945000Y-9747999D01*
X14945000Y-9707999D02*
X14905000Y-9747999D01*
X15030000Y-6800000D02*
X15070000Y-6840000D01*
X15070000Y-6800000D02*
X15030000Y-6840000D01*
X15030000Y-9730000D02*
X15070000Y-9770000D01*
X15070000Y-9730000D02*
X15030000Y-9770000D01*
X15055000Y-8955000D02*
X15095000Y-8995000D01*
X15095000Y-8955000D02*
X15055000Y-8995000D01*
X15077886Y-6640344D02*
X15117886Y-6680344D01*
X15117886Y-6640344D02*
X15077886Y-6680344D01*
X15215000Y-9045576D02*
X15255000Y-9085576D01*
X15255000Y-9045576D02*
X15215000Y-9085576D01*
X15230000Y-5646466D02*
X15270000Y-5686466D01*
X15270000Y-5646466D02*
X15230000Y-5686466D01*
X15255000Y-7980000D02*
X15295000Y-8020000D01*
X15295000Y-7980000D02*
X15255000Y-8020000D01*
X15305000Y-7730000D02*
X15345000Y-7770000D01*
X15345000Y-7730000D02*
X15305000Y-7770000D01*
X15332500Y-7080000D02*
X15372500Y-7120000D01*
X15372500Y-7080000D02*
X15332500Y-7120000D01*
X15430000Y-6305000D02*
X15470000Y-6345000D01*
X15470000Y-6305000D02*
X15430000Y-6345000D01*
X15505000Y-7130000D02*
X15545000Y-7170000D01*
X15545000Y-7130000D02*
X15505000Y-7170000D01*
X15555000Y-6730000D02*
X15595000Y-6770000D01*
X15595000Y-6730000D02*
X15555000Y-6770000D01*
X15630000Y-8780000D02*
X15670000Y-8820000D01*
X15670000Y-8780000D02*
X15630000Y-8820000D01*
X15705000Y-7405000D02*
X15745000Y-7445000D01*
X15745000Y-7405000D02*
X15705000Y-7445000D01*
X15730000Y-7030000D02*
X15770000Y-7070000D01*
X15770000Y-7030000D02*
X15730000Y-7070000D01*
X15730000Y-8655000D02*
X15770000Y-8695000D01*
X15770000Y-8655000D02*
X15730000Y-8695000D01*
X15736569Y-7136569D02*
X15776569Y-7176569D01*
X15776569Y-7136569D02*
X15736569Y-7176569D01*
X15850000Y-8920000D02*
X15890000Y-8960000D01*
X15890000Y-8920000D02*
X15850000Y-8960000D01*
X15855000Y-6705000D02*
X15895000Y-6745000D01*
X15895000Y-6705000D02*
X15855000Y-6745000D01*
X15870000Y-9010000D02*
X15910000Y-9050000D01*
X15910000Y-9010000D02*
X15870000Y-9050000D01*
X15905000Y-10130000D02*
X15945000Y-10170000D01*
X15945000Y-10130000D02*
X15905000Y-10170000D01*
X15930000Y-8830000D02*
X15970000Y-8870000D01*
X15970000Y-8830000D02*
X15930000Y-8870000D01*
X15955000Y-9755000D02*
X15995000Y-9795000D01*
X15995000Y-9755000D02*
X15955000Y-9795000D01*
X16155000Y-6580000D02*
X16195000Y-6620000D01*
X16195000Y-6580000D02*
X16155000Y-6620000D01*
X16205000Y-7280000D02*
X16245000Y-7320000D01*
X16245000Y-7280000D02*
X16205000Y-7320000D01*
X16230000Y-5646466D02*
X16270000Y-5686466D01*
X16270000Y-5646466D02*
X16230000Y-5686466D01*
X16380000Y-6480000D02*
X16420000Y-6520000D01*
X16420000Y-6480000D02*
X16380000Y-6520000D01*
X16380000Y-6805000D02*
X16420000Y-6845000D01*
X16420000Y-6805000D02*
X16380000Y-6845000D01*
X16380000Y-9380000D02*
X16420000Y-9420000D01*
X16420000Y-9380000D02*
X16380000Y-9420000D01*
X10790000Y-6161000D02*
G75*
G03X10790000Y-6161000I-25000J0D01*
G01*
X10930000Y-6161000D02*
G75*
G03X10930000Y-6161000I-25000J0D01*
G01*
X11070000Y-6161000D02*
G75*
G03X11070000Y-6161000I-25000J0D01*
G01*
X11210000Y-6161000D02*
G75*
G03X11210000Y-6161000I-25000J0D01*
G01*
X11790000Y-6161000D02*
G75*
G03X11790000Y-6161000I-25000J0D01*
G01*
X11930000Y-6161000D02*
G75*
G03X11930000Y-6161000I-25000J0D01*
G01*
X12070000Y-6161000D02*
G75*
G03X12070000Y-6161000I-25000J0D01*
G01*
X12210000Y-6161000D02*
G75*
G03X12210000Y-6161000I-25000J0D01*
G01*
X12790000Y-6161000D02*
G75*
G03X12790000Y-6161000I-25000J0D01*
G01*
X12930000Y-6161000D02*
G75*
G03X12930000Y-6161000I-25000J0D01*
G01*
X13070000Y-6161000D02*
G75*
G03X13070000Y-6161000I-25000J0D01*
G01*
X13210000Y-6161000D02*
G75*
G03X13210000Y-6161000I-25000J0D01*
G01*
X13790000Y-6161000D02*
G75*
G03X13790000Y-6161000I-25000J0D01*
G01*
X13930000Y-6161000D02*
G75*
G03X13930000Y-6161000I-25000J0D01*
G01*
X14070000Y-6161000D02*
G75*
G03X14070000Y-6161000I-25000J0D01*
G01*
X14210000Y-6161000D02*
G75*
G03X14210000Y-6161000I-25000J0D01*
G01*
X14790000Y-6161000D02*
G75*
G03X14790000Y-6161000I-25000J0D01*
G01*
X14930000Y-6161000D02*
G75*
G03X14930000Y-6161000I-25000J0D01*
G01*
X15070000Y-6161000D02*
G75*
G03X15070000Y-6161000I-25000J0D01*
G01*
X15210000Y-6161000D02*
G75*
G03X15210000Y-6161000I-25000J0D01*
G01*
X15790000Y-6161000D02*
G75*
G03X15790000Y-6161000I-25000J0D01*
G01*
X15930000Y-6161000D02*
G75*
G03X15930000Y-6161000I-25000J0D01*
G01*
X16070000Y-6161000D02*
G75*
G03X16070000Y-6161000I-25000J0D01*
G01*
X16210000Y-6161000D02*
G75*
G03X16210000Y-6161000I-25000J0D01*
G01*
X10775000Y-7984360D02*
X10775000Y-8065640D01*
X10734360Y-8025000D02*
X10815640Y-8025000D01*
X10775000Y-8238360D02*
X10775000Y-8319640D01*
X10734360Y-8279000D02*
X10815640Y-8279000D01*
X10974898Y-7984360D02*
X10974898Y-8065640D01*
X10934258Y-8025000D02*
X11015538Y-8025000D01*
X10974898Y-8238360D02*
X10974898Y-8319640D01*
X10934258Y-8279000D02*
X11015538Y-8279000D01*
X10779820Y-5481820D02*
X10779820Y-5418180D01*
X10716180Y-5418180D01*
X10716180Y-5481820D01*
X10779820Y-5481820D01*
X10713000Y-5440000D02*
X10713000Y-5460000D01*
X10783000Y-5440000D02*
X10783000Y-5460000D01*
X10713000Y-5460000D02*
G75*
G03X10783000Y-5460000I35000J0D01*
G01*
X10783000Y-5440000D02*
G75*
G03X10713000Y-5440000I-35000J0D01*
G01*
X11263820Y-5481820D02*
X11263820Y-5418180D01*
X11200180Y-5418180D01*
X11200180Y-5481820D01*
X11263820Y-5481820D01*
X11197000Y-5440000D02*
X11197000Y-5460000D01*
X11267000Y-5440000D02*
X11267000Y-5460000D01*
X11197000Y-5460000D02*
G75*
G03X11267000Y-5460000I35000J0D01*
G01*
X11267000Y-5440000D02*
G75*
G03X11197000Y-5440000I-35000J0D01*
G01*
X11263820Y-5865820D02*
X11263820Y-5802180D01*
X11200180Y-5802180D01*
X11200180Y-5865820D01*
X11263820Y-5865820D01*
X11197000Y-5824000D02*
X11197000Y-5844000D01*
X11267000Y-5824000D02*
X11267000Y-5844000D01*
X11197000Y-5844000D02*
G75*
G03X11267000Y-5844000I35000J0D01*
G01*
X11267000Y-5824000D02*
G75*
G03X11197000Y-5824000I-35000J0D01*
G01*
X11779820Y-5481820D02*
X11779820Y-5418180D01*
X11716180Y-5418180D01*
X11716180Y-5481820D01*
X11779820Y-5481820D01*
X11713000Y-5440000D02*
X11713000Y-5460000D01*
X11783000Y-5440000D02*
X11783000Y-5460000D01*
X11713000Y-5460000D02*
G75*
G03X11783000Y-5460000I35000J0D01*
G01*
X11783000Y-5440000D02*
G75*
G03X11713000Y-5440000I-35000J0D01*
G01*
X12263820Y-5481820D02*
X12263820Y-5418180D01*
X12200180Y-5418180D01*
X12200180Y-5481820D01*
X12263820Y-5481820D01*
X12197000Y-5440000D02*
X12197000Y-5460000D01*
X12267000Y-5440000D02*
X12267000Y-5460000D01*
X12197000Y-5460000D02*
G75*
G03X12267000Y-5460000I35000J0D01*
G01*
X12267000Y-5440000D02*
G75*
G03X12197000Y-5440000I-35000J0D01*
G01*
X12263820Y-5865820D02*
X12263820Y-5802180D01*
X12200180Y-5802180D01*
X12200180Y-5865820D01*
X12263820Y-5865820D01*
X12197000Y-5824000D02*
X12197000Y-5844000D01*
X12267000Y-5824000D02*
X12267000Y-5844000D01*
X12197000Y-5844000D02*
G75*
G03X12267000Y-5844000I35000J0D01*
G01*
X12267000Y-5824000D02*
G75*
G03X12197000Y-5824000I-35000J0D01*
G01*
X12779820Y-5481820D02*
X12779820Y-5418180D01*
X12716180Y-5418180D01*
X12716180Y-5481820D01*
X12779820Y-5481820D01*
X12713000Y-5440000D02*
X12713000Y-5460000D01*
X12783000Y-5440000D02*
X12783000Y-5460000D01*
X12713000Y-5460000D02*
G75*
G03X12783000Y-5460000I35000J0D01*
G01*
X12783000Y-5440000D02*
G75*
G03X12713000Y-5440000I-35000J0D01*
G01*
X13263820Y-5481820D02*
X13263820Y-5418180D01*
X13200180Y-5418180D01*
X13200180Y-5481820D01*
X13263820Y-5481820D01*
X13197000Y-5440000D02*
X13197000Y-5460000D01*
X13267000Y-5440000D02*
X13267000Y-5460000D01*
X13197000Y-5460000D02*
G75*
G03X13267000Y-5460000I35000J0D01*
G01*
X13267000Y-5440000D02*
G75*
G03X13197000Y-5440000I-35000J0D01*
G01*
X13263820Y-5865820D02*
X13263820Y-5802180D01*
X13200180Y-5802180D01*
X13200180Y-5865820D01*
X13263820Y-5865820D01*
X13197000Y-5824000D02*
X13197000Y-5844000D01*
X13267000Y-5824000D02*
X13267000Y-5844000D01*
X13197000Y-5844000D02*
G75*
G03X13267000Y-5844000I35000J0D01*
G01*
X13267000Y-5824000D02*
G75*
G03X13197000Y-5824000I-35000J0D01*
G01*
X13779820Y-5481820D02*
X13779820Y-5418180D01*
X13716180Y-5418180D01*
X13716180Y-5481820D01*
X13779820Y-5481820D01*
X13713000Y-5440000D02*
X13713000Y-5460000D01*
X13783000Y-5440000D02*
X13783000Y-5460000D01*
X13713000Y-5460000D02*
G75*
G03X13783000Y-5460000I35000J0D01*
G01*
X13783000Y-5440000D02*
G75*
G03X13713000Y-5440000I-35000J0D01*
G01*
X14263820Y-5481820D02*
X14263820Y-5418180D01*
X14200180Y-5418180D01*
X14200180Y-5481820D01*
X14263820Y-5481820D01*
X14197000Y-5440000D02*
X14197000Y-5460000D01*
X14267000Y-5440000D02*
X14267000Y-5460000D01*
X14197000Y-5460000D02*
G75*
G03X14267000Y-5460000I35000J0D01*
G01*
X14267000Y-5440000D02*
G75*
G03X14197000Y-5440000I-35000J0D01*
G01*
X14263820Y-5865820D02*
X14263820Y-5802180D01*
X14200180Y-5802180D01*
X14200180Y-5865820D01*
X14263820Y-5865820D01*
X14197000Y-5824000D02*
X14197000Y-5844000D01*
X14267000Y-5824000D02*
X14267000Y-5844000D01*
X14197000Y-5844000D02*
G75*
G03X14267000Y-5844000I35000J0D01*
G01*
X14267000Y-5824000D02*
G75*
G03X14197000Y-5824000I-35000J0D01*
G01*
X14779820Y-5481820D02*
X14779820Y-5418180D01*
X14716180Y-5418180D01*
X14716180Y-5481820D01*
X14779820Y-5481820D01*
X14713000Y-5440000D02*
X14713000Y-5460000D01*
X14783000Y-5440000D02*
X14783000Y-5460000D01*
X14713000Y-5460000D02*
G75*
G03X14783000Y-5460000I35000J0D01*
G01*
X14783000Y-5440000D02*
G75*
G03X14713000Y-5440000I-35000J0D01*
G01*
X15263820Y-5481820D02*
X15263820Y-5418180D01*
X15200180Y-5418180D01*
X15200180Y-5481820D01*
X15263820Y-5481820D01*
X15197000Y-5440000D02*
X15197000Y-5460000D01*
X15267000Y-5440000D02*
X15267000Y-5460000D01*
X15197000Y-5460000D02*
G75*
G03X15267000Y-5460000I35000J0D01*
G01*
X15267000Y-5440000D02*
G75*
G03X15197000Y-5440000I-35000J0D01*
G01*
X15263820Y-5865820D02*
X15263820Y-5802180D01*
X15200180Y-5802180D01*
X15200180Y-5865820D01*
X15263820Y-5865820D01*
X15197000Y-5824000D02*
X15197000Y-5844000D01*
X15267000Y-5824000D02*
X15267000Y-5844000D01*
X15197000Y-5844000D02*
G75*
G03X15267000Y-5844000I35000J0D01*
G01*
X15267000Y-5824000D02*
G75*
G03X15197000Y-5824000I-35000J0D01*
G01*
X15779820Y-5481820D02*
X15779820Y-5418180D01*
X15716180Y-5418180D01*
X15716180Y-5481820D01*
X15779820Y-5481820D01*
X15713000Y-5440000D02*
X15713000Y-5460000D01*
X15783000Y-5440000D02*
X15783000Y-5460000D01*
X15713000Y-5460000D02*
G75*
G03X15783000Y-5460000I35000J0D01*
G01*
X15783000Y-5440000D02*
G75*
G03X15713000Y-5440000I-35000J0D01*
G01*
X16263820Y-5481820D02*
X16263820Y-5418180D01*
X16200180Y-5418180D01*
X16200180Y-5481820D01*
X16263820Y-5481820D01*
X16197000Y-5440000D02*
X16197000Y-5460000D01*
X16267000Y-5440000D02*
X16267000Y-5460000D01*
X16197000Y-5460000D02*
G75*
G03X16267000Y-5460000I35000J0D01*
G01*
X16267000Y-5440000D02*
G75*
G03X16197000Y-5440000I-35000J0D01*
G01*
X16263820Y-5865820D02*
X16263820Y-5802180D01*
X16200180Y-5802180D01*
X16200180Y-5865820D01*
X16263820Y-5865820D01*
X16197000Y-5824000D02*
X16197000Y-5844000D01*
X16267000Y-5824000D02*
X16267000Y-5844000D01*
X16197000Y-5844000D02*
G75*
G03X16267000Y-5844000I35000J0D01*
G01*
X16267000Y-5824000D02*
G75*
G03X16197000Y-5824000I-35000J0D01*
G01*
X10015000Y-6826038D02*
X10065038Y-6776000D01*
X10015000Y-6725962D01*
X9964962Y-6776000D01*
X10015000Y-6826038D01*
X10015000Y-7080038D02*
X10065038Y-7030000D01*
X10015000Y-6979962D01*
X9964962Y-7030000D01*
X10015000Y-7080038D01*
X10020000Y-9735038D02*
X10070038Y-9685000D01*
X10020000Y-9634962D01*
X9969962Y-9685000D01*
X10020000Y-9735038D01*
X10020000Y-9989038D02*
X10070038Y-9939000D01*
X10020000Y-9888962D01*
X9969962Y-9939000D01*
X10020000Y-9989038D01*
X15736000Y-8245038D02*
X15786038Y-8195000D01*
X15736000Y-8144962D01*
X15685962Y-8195000D01*
X15736000Y-8245038D01*
X15990000Y-8245038D02*
X16040038Y-8195000D01*
X15990000Y-8144962D01*
X15939962Y-8195000D01*
X15990000Y-8245038D01*
X16315000Y-8245038D02*
X16365038Y-8195000D01*
X16315000Y-8144962D01*
X16264962Y-8195000D01*
X16315000Y-8245038D01*
X16569000Y-8245038D02*
X16619038Y-8195000D01*
X16569000Y-8144962D01*
X16518962Y-8195000D01*
X16569000Y-8245038D01*
X10025600Y-10817200D02*
X10127200Y-10918800D01*
X10127200Y-10817200D02*
X10025600Y-10918800D01*
X10127200Y-10868000D02*
G75*
G03X10127200Y-10868000I-50800J0D01*
G01*
X10035600Y-10791800D02*
X10035600Y-10944200D01*
X10117200Y-10791800D02*
X10117200Y-10944200D01*
X10035600Y-10944200D02*
G75*
G03X10117200Y-10944200I40800J0D01*
G01*
X10117200Y-10791800D02*
G75*
G03X10035600Y-10791800I-40800J0D01*
G01*
X10254200Y-10309200D02*
X10355800Y-10410800D01*
X10355800Y-10309200D02*
X10254200Y-10410800D01*
X10355800Y-10360000D02*
G75*
G03X10355800Y-10360000I-50800J0D01*
G01*
X10228800Y-10400800D02*
X10381200Y-10400800D01*
X10228800Y-10319200D02*
X10381200Y-10319200D01*
X10381200Y-10400800D02*
G75*
G03X10381200Y-10319200I0J40800D01*
G01*
X10228800Y-10319200D02*
G75*
G03X10228800Y-10400800I0J-40800D01*
G01*
X10635200Y-10817200D02*
X10736800Y-10918800D01*
X10736800Y-10817200D02*
X10635200Y-10918800D01*
X10736800Y-10868000D02*
G75*
G03X10736800Y-10868000I-50800J0D01*
G01*
X10645200Y-10791800D02*
X10645200Y-10944200D01*
X10726800Y-10791800D02*
X10726800Y-10944200D01*
X10645200Y-10944200D02*
G75*
G03X10726800Y-10944200I40800J0D01*
G01*
X10726800Y-10791800D02*
G75*
G03X10645200Y-10791800I-40800J0D01*
G01*
X10693000Y-5779000D02*
X10803000Y-5889000D01*
X10803000Y-5779000D02*
X10693000Y-5889000D01*
X10748000Y-5779000D02*
X10748000Y-5889000D01*
X10693000Y-5834000D02*
X10803000Y-5834000D01*
X10703000Y-5814000D02*
X10703000Y-5854000D01*
X10793000Y-5814000D02*
X10793000Y-5854000D01*
X10703000Y-5854000D02*
G75*
G03X10793000Y-5854000I45000J0D01*
G01*
X10793000Y-5814000D02*
G75*
G03X10703000Y-5814000I-45000J0D01*
G01*
X11693000Y-5779000D02*
X11803000Y-5889000D01*
X11803000Y-5779000D02*
X11693000Y-5889000D01*
X11748000Y-5779000D02*
X11748000Y-5889000D01*
X11693000Y-5834000D02*
X11803000Y-5834000D01*
X11703000Y-5814000D02*
X11703000Y-5854000D01*
X11793000Y-5814000D02*
X11793000Y-5854000D01*
X11703000Y-5854000D02*
G75*
G03X11793000Y-5854000I45000J0D01*
G01*
X11793000Y-5814000D02*
G75*
G03X11703000Y-5814000I-45000J0D01*
G01*
X12693000Y-5779000D02*
X12803000Y-5889000D01*
X12803000Y-5779000D02*
X12693000Y-5889000D01*
X12748000Y-5779000D02*
X12748000Y-5889000D01*
X12693000Y-5834000D02*
X12803000Y-5834000D01*
X12703000Y-5814000D02*
X12703000Y-5854000D01*
X12793000Y-5814000D02*
X12793000Y-5854000D01*
X12703000Y-5854000D02*
G75*
G03X12793000Y-5854000I45000J0D01*
G01*
X12793000Y-5814000D02*
G75*
G03X12703000Y-5814000I-45000J0D01*
G01*
X13693000Y-5779000D02*
X13803000Y-5889000D01*
X13803000Y-5779000D02*
X13693000Y-5889000D01*
X13748000Y-5779000D02*
X13748000Y-5889000D01*
X13693000Y-5834000D02*
X13803000Y-5834000D01*
X13703000Y-5814000D02*
X13703000Y-5854000D01*
X13793000Y-5814000D02*
X13793000Y-5854000D01*
X13703000Y-5854000D02*
G75*
G03X13793000Y-5854000I45000J0D01*
G01*
X13793000Y-5814000D02*
G75*
G03X13703000Y-5814000I-45000J0D01*
G01*
X14693000Y-5779000D02*
X14803000Y-5889000D01*
X14803000Y-5779000D02*
X14693000Y-5889000D01*
X14748000Y-5779000D02*
X14748000Y-5889000D01*
X14693000Y-5834000D02*
X14803000Y-5834000D01*
X14703000Y-5814000D02*
X14703000Y-5854000D01*
X14793000Y-5814000D02*
X14793000Y-5854000D01*
X14703000Y-5854000D02*
G75*
G03X14793000Y-5854000I45000J0D01*
G01*
X14793000Y-5814000D02*
G75*
G03X14703000Y-5814000I-45000J0D01*
G01*
X15693000Y-5779000D02*
X15803000Y-5889000D01*
X15803000Y-5779000D02*
X15693000Y-5889000D01*
X15748000Y-5779000D02*
X15748000Y-5889000D01*
X15693000Y-5834000D02*
X15803000Y-5834000D01*
X15703000Y-5814000D02*
X15703000Y-5854000D01*
X15793000Y-5814000D02*
X15793000Y-5854000D01*
X15703000Y-5854000D02*
G75*
G03X15793000Y-5854000I45000J0D01*
G01*
X15793000Y-5814000D02*
G75*
G03X15703000Y-5814000I-45000J0D01*
G01*
X13661350Y-10910000D02*
X13781350Y-11030000D01*
X13781350Y-10910000D02*
X13661350Y-11030000D01*
X13763777Y-11012427D02*
X13763777Y-10927573D01*
X13678923Y-10927573D01*
X13678923Y-11012427D01*
X13763777Y-11012427D01*
X13915000Y-10910000D02*
X14035000Y-11030000D01*
X14035000Y-10910000D02*
X13915000Y-11030000D01*
X14017427Y-11012427D02*
X14017427Y-10927573D01*
X13932573Y-10927573D01*
X13932573Y-11012427D01*
X14017427Y-11012427D01*
X14165000Y-10910000D02*
X14285000Y-11030000D01*
X14285000Y-10910000D02*
X14165000Y-11030000D01*
X14267427Y-11012427D02*
X14267427Y-10927573D01*
X14182573Y-10927573D01*
X14182573Y-11012427D01*
X14267427Y-11012427D01*
X14415000Y-10910000D02*
X14535000Y-11030000D01*
X14535000Y-10910000D02*
X14415000Y-11030000D01*
X14517427Y-11012427D02*
X14517427Y-10927573D01*
X14432573Y-10927573D01*
X14432573Y-11012427D01*
X14517427Y-11012427D01*
X14665000Y-10910000D02*
X14785000Y-11030000D01*
X14785000Y-10910000D02*
X14665000Y-11030000D01*
X14767427Y-11012427D02*
X14767427Y-10927573D01*
X14682573Y-10927573D01*
X14682573Y-11012427D01*
X14767427Y-11012427D01*
X14915000Y-10910000D02*
X15035000Y-11030000D01*
X15035000Y-10910000D02*
X14915000Y-11030000D01*
X15017427Y-11012427D02*
X15017427Y-10927573D01*
X14932573Y-10927573D01*
X14932573Y-11012427D01*
X15017427Y-11012427D01*
X15161000Y-10910000D02*
X15281000Y-11030000D01*
X15281000Y-10910000D02*
X15161000Y-11030000D01*
X15263427Y-11012427D02*
X15263427Y-10927573D01*
X15178573Y-10927573D01*
X15178573Y-11012427D01*
X15263427Y-11012427D01*
X15415000Y-10910000D02*
X15535000Y-11030000D01*
X15535000Y-10910000D02*
X15415000Y-11030000D01*
X15517427Y-11012427D02*
X15517427Y-10927573D01*
X15432573Y-10927573D01*
X15432573Y-11012427D01*
X15517427Y-11012427D01*
X15665000Y-10910000D02*
X15785000Y-11030000D01*
X15785000Y-10910000D02*
X15665000Y-11030000D01*
X15767427Y-11012427D02*
X15767427Y-10927573D01*
X15682573Y-10927573D01*
X15682573Y-11012427D01*
X15767427Y-11012427D01*
X16390000Y-10286000D02*
X16510000Y-10406000D01*
X16510000Y-10286000D02*
X16390000Y-10406000D01*
X16492427Y-10388427D02*
X16492427Y-10303573D01*
X16407573Y-10303573D01*
X16407573Y-10388427D01*
X16492427Y-10388427D01*
X16390000Y-10536000D02*
X16510000Y-10656000D01*
X16510000Y-10536000D02*
X16390000Y-10656000D01*
X16492427Y-10638427D02*
X16492427Y-10553573D01*
X16407573Y-10553573D01*
X16407573Y-10638427D01*
X16492427Y-10638427D01*
X16390000Y-10790000D02*
X16510000Y-10910000D01*
X16510000Y-10790000D02*
X16390000Y-10910000D01*
X16492427Y-10892427D02*
X16492427Y-10807573D01*
X16407573Y-10807573D01*
X16407573Y-10892427D01*
X16492427Y-10892427D01*
X10389936Y-7436990D02*
X10620060Y-7667114D01*
X10620060Y-7436990D02*
X10389936Y-7667114D01*
X10504998Y-7667114D02*
X10620060Y-7552052D01*
X10504998Y-7436990D01*
X10389936Y-7552052D01*
X10504998Y-7667114D01*
X10389936Y-8636886D02*
X10620060Y-8867010D01*
X10620060Y-8636886D02*
X10389936Y-8867010D01*
X10504998Y-8867010D02*
X10620060Y-8751948D01*
X10504998Y-8636886D01*
X10389936Y-8751948D01*
X10504998Y-8867010D01*
D13*
X9788929Y-11998214D02*
X9788929Y-11698214D01*
X9860357Y-11698214D01*
X9903214Y-11712500D01*
X9931786Y-11741071D01*
X9946071Y-11769643D01*
X9960357Y-11826786D01*
X9960357Y-11869643D01*
X9946071Y-11926786D01*
X9931786Y-11955357D01*
X9903214Y-11983929D01*
X9860357Y-11998214D01*
X9788929Y-11998214D01*
X10088929Y-11998214D02*
X10088929Y-11798214D01*
X10088929Y-11855357D02*
X10103214Y-11826786D01*
X10117500Y-11812500D01*
X10146071Y-11798214D01*
X10174643Y-11798214D01*
X10274643Y-11998214D02*
X10274643Y-11798214D01*
X10274643Y-11698214D02*
X10260357Y-11712500D01*
X10274643Y-11726786D01*
X10288929Y-11712500D01*
X10274643Y-11698214D01*
X10274643Y-11726786D01*
X10460357Y-11998214D02*
X10431786Y-11983929D01*
X10417500Y-11955357D01*
X10417500Y-11698214D01*
X10617500Y-11998214D02*
X10588929Y-11983929D01*
X10574643Y-11955357D01*
X10574643Y-11698214D01*
X10960357Y-11998214D02*
X10960357Y-11698214D01*
X11060357Y-11912500D01*
X11160357Y-11698214D01*
X11160357Y-11998214D01*
X11431786Y-11998214D02*
X11431786Y-11841071D01*
X11417500Y-11812500D01*
X11388928Y-11798214D01*
X11331786Y-11798214D01*
X11303214Y-11812500D01*
X11431786Y-11983929D02*
X11403214Y-11998214D01*
X11331786Y-11998214D01*
X11303214Y-11983929D01*
X11288928Y-11955357D01*
X11288928Y-11926786D01*
X11303214Y-11898214D01*
X11331786Y-11883929D01*
X11403214Y-11883929D01*
X11431786Y-11869643D01*
X11574643Y-11798214D02*
X11574643Y-12098214D01*
X11574643Y-11812500D02*
X11603214Y-11798214D01*
X11660357Y-11798214D01*
X11688928Y-11812500D01*
X11703214Y-11826786D01*
X11717500Y-11855357D01*
X11717500Y-11941071D01*
X11703214Y-11969643D01*
X11688928Y-11983929D01*
X11660357Y-11998214D01*
X11603214Y-11998214D01*
X11574643Y-11983929D01*
X11846071Y-11969643D02*
X11860357Y-11983929D01*
X11846071Y-11998214D01*
X11831786Y-11983929D01*
X11846071Y-11969643D01*
X11846071Y-11998214D01*
X11846071Y-11812500D02*
X11860357Y-11826786D01*
X11846071Y-11841071D01*
X11831786Y-11826786D01*
X11846071Y-11812500D01*
X11846071Y-11841071D01*
X9477500Y-12472500D02*
X9517500Y-12512500D01*
X9517500Y-12472500D02*
X9477500Y-12512500D01*
X9846071Y-12328214D02*
X9874643Y-12328214D01*
X9903214Y-12342500D01*
X9917500Y-12356786D01*
X9931786Y-12385357D01*
X9946071Y-12442500D01*
X9946071Y-12513929D01*
X9931786Y-12571071D01*
X9917500Y-12599643D01*
X9903214Y-12613929D01*
X9874643Y-12628214D01*
X9846071Y-12628214D01*
X9817500Y-12613929D01*
X9803214Y-12599643D01*
X9788929Y-12571071D01*
X9774643Y-12513929D01*
X9774643Y-12442500D01*
X9788929Y-12385357D01*
X9803214Y-12356786D01*
X9817500Y-12342500D01*
X9846071Y-12328214D01*
X10074643Y-12599643D02*
X10088929Y-12613929D01*
X10074643Y-12628214D01*
X10060357Y-12613929D01*
X10074643Y-12599643D01*
X10074643Y-12628214D01*
X10346071Y-12428214D02*
X10346071Y-12628214D01*
X10274643Y-12313929D02*
X10203214Y-12528214D01*
X10388928Y-12528214D01*
X10560357Y-12328214D02*
X10588929Y-12328214D01*
X10617500Y-12342500D01*
X10631786Y-12356786D01*
X10646071Y-12385357D01*
X10660357Y-12442500D01*
X10660357Y-12513929D01*
X10646071Y-12571071D01*
X10631786Y-12599643D01*
X10617500Y-12613929D01*
X10588929Y-12628214D01*
X10560357Y-12628214D01*
X10531786Y-12613929D01*
X10517500Y-12599643D01*
X10503214Y-12571071D01*
X10488929Y-12513929D01*
X10488929Y-12442500D01*
X10503214Y-12385357D01*
X10517500Y-12356786D01*
X10531786Y-12342500D01*
X10560357Y-12328214D01*
X10788929Y-12628214D02*
X10788929Y-12428214D01*
X10788929Y-12456786D02*
X10803214Y-12442500D01*
X10831786Y-12428214D01*
X10874643Y-12428214D01*
X10903214Y-12442500D01*
X10917500Y-12471071D01*
X10917500Y-12628214D01*
X10917500Y-12471071D02*
X10931786Y-12442500D01*
X10960357Y-12428214D01*
X11003214Y-12428214D01*
X11031786Y-12442500D01*
X11046071Y-12471071D01*
X11046071Y-12628214D01*
X11188928Y-12628214D02*
X11188928Y-12428214D01*
X11188928Y-12456786D02*
X11203214Y-12442500D01*
X11231786Y-12428214D01*
X11274643Y-12428214D01*
X11303214Y-12442500D01*
X11317500Y-12471071D01*
X11317500Y-12628214D01*
X11317500Y-12471071D02*
X11331786Y-12442500D01*
X11360357Y-12428214D01*
X11403214Y-12428214D01*
X11431786Y-12442500D01*
X11446071Y-12471071D01*
X11446071Y-12628214D01*
X12031786Y-12313929D02*
X11774643Y-12699643D01*
X12417500Y-12328214D02*
X12446071Y-12328214D01*
X12474643Y-12342500D01*
X12488928Y-12356786D01*
X12503214Y-12385357D01*
X12517500Y-12442500D01*
X12517500Y-12513929D01*
X12503214Y-12571071D01*
X12488928Y-12599643D01*
X12474643Y-12613929D01*
X12446071Y-12628214D01*
X12417500Y-12628214D01*
X12388928Y-12613929D01*
X12374643Y-12599643D01*
X12360357Y-12571071D01*
X12346071Y-12513929D01*
X12346071Y-12442500D01*
X12360357Y-12385357D01*
X12374643Y-12356786D01*
X12388928Y-12342500D01*
X12417500Y-12328214D01*
X12646071Y-12599643D02*
X12660357Y-12613929D01*
X12646071Y-12628214D01*
X12631786Y-12613929D01*
X12646071Y-12599643D01*
X12646071Y-12628214D01*
X12846071Y-12328214D02*
X12874643Y-12328214D01*
X12903214Y-12342500D01*
X12917500Y-12356786D01*
X12931785Y-12385357D01*
X12946071Y-12442500D01*
X12946071Y-12513929D01*
X12931785Y-12571071D01*
X12917500Y-12599643D01*
X12903214Y-12613929D01*
X12874643Y-12628214D01*
X12846071Y-12628214D01*
X12817500Y-12613929D01*
X12803214Y-12599643D01*
X12788928Y-12571071D01*
X12774643Y-12513929D01*
X12774643Y-12442500D01*
X12788928Y-12385357D01*
X12803214Y-12356786D01*
X12817500Y-12342500D01*
X12846071Y-12328214D01*
X13231785Y-12628214D02*
X13060357Y-12628214D01*
X13146071Y-12628214D02*
X13146071Y-12328214D01*
X13117500Y-12371071D01*
X13088928Y-12399643D01*
X13060357Y-12413929D01*
X13488928Y-12328214D02*
X13431785Y-12328214D01*
X13403214Y-12342500D01*
X13388928Y-12356786D01*
X13360357Y-12399643D01*
X13346071Y-12456786D01*
X13346071Y-12571071D01*
X13360357Y-12599643D01*
X13374643Y-12613929D01*
X13403214Y-12628214D01*
X13460357Y-12628214D01*
X13488928Y-12613929D01*
X13503214Y-12599643D01*
X13517500Y-12571071D01*
X13517500Y-12499643D01*
X13503214Y-12471071D01*
X13488928Y-12456786D01*
X13460357Y-12442500D01*
X13403214Y-12442500D01*
X13374643Y-12456786D01*
X13360357Y-12471071D01*
X13346071Y-12499643D01*
X13631786Y-12328214D02*
X13631786Y-12385357D01*
X13746071Y-12328214D02*
X13746071Y-12385357D01*
X14188928Y-12742500D02*
X14174643Y-12728214D01*
X14146071Y-12685357D01*
X14131785Y-12656786D01*
X14117500Y-12613929D01*
X14103214Y-12542500D01*
X14103214Y-12485357D01*
X14117500Y-12413929D01*
X14131785Y-12371071D01*
X14146071Y-12342500D01*
X14174643Y-12299643D01*
X14188928Y-12285357D01*
X14431785Y-12328214D02*
X14374643Y-12328214D01*
X14346071Y-12342500D01*
X14331785Y-12356786D01*
X14303214Y-12399643D01*
X14288928Y-12456786D01*
X14288928Y-12571071D01*
X14303214Y-12599643D01*
X14317500Y-12613929D01*
X14346071Y-12628214D01*
X14403214Y-12628214D01*
X14431785Y-12613929D01*
X14446071Y-12599643D01*
X14460357Y-12571071D01*
X14460357Y-12499643D01*
X14446071Y-12471071D01*
X14431785Y-12456786D01*
X14403214Y-12442500D01*
X14346071Y-12442500D01*
X14317500Y-12456786D01*
X14303214Y-12471071D01*
X14288928Y-12499643D01*
X14603214Y-12628214D02*
X14660357Y-12628214D01*
X14688928Y-12613929D01*
X14703214Y-12599643D01*
X14731785Y-12556786D01*
X14746071Y-12499643D01*
X14746071Y-12385357D01*
X14731785Y-12356786D01*
X14717500Y-12342500D01*
X14688928Y-12328214D01*
X14631785Y-12328214D01*
X14603214Y-12342500D01*
X14588928Y-12356786D01*
X14574643Y-12385357D01*
X14574643Y-12456786D01*
X14588928Y-12485357D01*
X14603214Y-12499643D01*
X14631785Y-12513929D01*
X14688928Y-12513929D01*
X14717500Y-12499643D01*
X14731785Y-12485357D01*
X14746071Y-12456786D01*
X15103214Y-12628214D02*
X15103214Y-12328214D01*
X15231785Y-12628214D02*
X15231785Y-12471071D01*
X15217500Y-12442500D01*
X15188928Y-12428214D01*
X15146071Y-12428214D01*
X15117500Y-12442500D01*
X15103214Y-12456786D01*
X15417500Y-12628214D02*
X15388928Y-12613929D01*
X15374643Y-12599643D01*
X15360357Y-12571071D01*
X15360357Y-12485357D01*
X15374643Y-12456786D01*
X15388928Y-12442500D01*
X15417500Y-12428214D01*
X15460357Y-12428214D01*
X15488928Y-12442500D01*
X15503214Y-12456786D01*
X15517500Y-12485357D01*
X15517500Y-12571071D01*
X15503214Y-12599643D01*
X15488928Y-12613929D01*
X15460357Y-12628214D01*
X15417500Y-12628214D01*
X15688928Y-12628214D02*
X15660357Y-12613929D01*
X15646071Y-12585357D01*
X15646071Y-12328214D01*
X15917500Y-12613929D02*
X15888928Y-12628214D01*
X15831786Y-12628214D01*
X15803214Y-12613929D01*
X15788928Y-12585357D01*
X15788928Y-12471071D01*
X15803214Y-12442500D01*
X15831786Y-12428214D01*
X15888928Y-12428214D01*
X15917500Y-12442500D01*
X15931786Y-12471071D01*
X15931786Y-12499643D01*
X15788928Y-12528214D01*
X16046071Y-12613929D02*
X16074643Y-12628214D01*
X16131786Y-12628214D01*
X16160357Y-12613929D01*
X16174643Y-12585357D01*
X16174643Y-12571071D01*
X16160357Y-12542500D01*
X16131786Y-12528214D01*
X16088928Y-12528214D01*
X16060357Y-12513929D01*
X16046071Y-12485357D01*
X16046071Y-12471071D01*
X16060357Y-12442500D01*
X16088928Y-12428214D01*
X16131786Y-12428214D01*
X16160357Y-12442500D01*
X16274643Y-12742500D02*
X16288928Y-12728214D01*
X16317500Y-12685357D01*
X16331786Y-12656786D01*
X16346071Y-12613929D01*
X16360357Y-12542500D01*
X16360357Y-12485357D01*
X16346071Y-12413929D01*
X16331786Y-12371071D01*
X16317500Y-12342500D01*
X16288928Y-12299643D01*
X16274643Y-12285357D01*
X9517500Y-12888500D02*
G75*
G03X9517500Y-12888500I-25000J0D01*
G01*
X9846071Y-12724214D02*
X9874643Y-12724214D01*
X9903214Y-12738500D01*
X9917500Y-12752786D01*
X9931786Y-12781357D01*
X9946071Y-12838500D01*
X9946071Y-12909929D01*
X9931786Y-12967071D01*
X9917500Y-12995643D01*
X9903214Y-13009929D01*
X9874643Y-13024214D01*
X9846071Y-13024214D01*
X9817500Y-13009929D01*
X9803214Y-12995643D01*
X9788929Y-12967071D01*
X9774643Y-12909929D01*
X9774643Y-12838500D01*
X9788929Y-12781357D01*
X9803214Y-12752786D01*
X9817500Y-12738500D01*
X9846071Y-12724214D01*
X10074643Y-12995643D02*
X10088929Y-13009929D01*
X10074643Y-13024214D01*
X10060357Y-13009929D01*
X10074643Y-12995643D01*
X10074643Y-13024214D01*
X10360357Y-12724214D02*
X10217500Y-12724214D01*
X10203214Y-12867071D01*
X10217500Y-12852786D01*
X10246071Y-12838500D01*
X10317500Y-12838500D01*
X10346071Y-12852786D01*
X10360357Y-12867071D01*
X10374643Y-12895643D01*
X10374643Y-12967071D01*
X10360357Y-12995643D01*
X10346071Y-13009929D01*
X10317500Y-13024214D01*
X10246071Y-13024214D01*
X10217500Y-13009929D01*
X10203214Y-12995643D01*
X10560357Y-12724214D02*
X10588929Y-12724214D01*
X10617500Y-12738500D01*
X10631786Y-12752786D01*
X10646071Y-12781357D01*
X10660357Y-12838500D01*
X10660357Y-12909929D01*
X10646071Y-12967071D01*
X10631786Y-12995643D01*
X10617500Y-13009929D01*
X10588929Y-13024214D01*
X10560357Y-13024214D01*
X10531786Y-13009929D01*
X10517500Y-12995643D01*
X10503214Y-12967071D01*
X10488929Y-12909929D01*
X10488929Y-12838500D01*
X10503214Y-12781357D01*
X10517500Y-12752786D01*
X10531786Y-12738500D01*
X10560357Y-12724214D01*
X10788929Y-13024214D02*
X10788929Y-12824214D01*
X10788929Y-12852786D02*
X10803214Y-12838500D01*
X10831786Y-12824214D01*
X10874643Y-12824214D01*
X10903214Y-12838500D01*
X10917500Y-12867071D01*
X10917500Y-13024214D01*
X10917500Y-12867071D02*
X10931786Y-12838500D01*
X10960357Y-12824214D01*
X11003214Y-12824214D01*
X11031786Y-12838500D01*
X11046071Y-12867071D01*
X11046071Y-13024214D01*
X11188928Y-13024214D02*
X11188928Y-12824214D01*
X11188928Y-12852786D02*
X11203214Y-12838500D01*
X11231786Y-12824214D01*
X11274643Y-12824214D01*
X11303214Y-12838500D01*
X11317500Y-12867071D01*
X11317500Y-13024214D01*
X11317500Y-12867071D02*
X11331786Y-12838500D01*
X11360357Y-12824214D01*
X11403214Y-12824214D01*
X11431786Y-12838500D01*
X11446071Y-12867071D01*
X11446071Y-13024214D01*
X12031786Y-12709929D02*
X11774643Y-13095643D01*
X12417500Y-12724214D02*
X12446071Y-12724214D01*
X12474643Y-12738500D01*
X12488928Y-12752786D01*
X12503214Y-12781357D01*
X12517500Y-12838500D01*
X12517500Y-12909929D01*
X12503214Y-12967071D01*
X12488928Y-12995643D01*
X12474643Y-13009929D01*
X12446071Y-13024214D01*
X12417500Y-13024214D01*
X12388928Y-13009929D01*
X12374643Y-12995643D01*
X12360357Y-12967071D01*
X12346071Y-12909929D01*
X12346071Y-12838500D01*
X12360357Y-12781357D01*
X12374643Y-12752786D01*
X12388928Y-12738500D01*
X12417500Y-12724214D01*
X12646071Y-12995643D02*
X12660357Y-13009929D01*
X12646071Y-13024214D01*
X12631786Y-13009929D01*
X12646071Y-12995643D01*
X12646071Y-13024214D01*
X12846071Y-12724214D02*
X12874643Y-12724214D01*
X12903214Y-12738500D01*
X12917500Y-12752786D01*
X12931785Y-12781357D01*
X12946071Y-12838500D01*
X12946071Y-12909929D01*
X12931785Y-12967071D01*
X12917500Y-12995643D01*
X12903214Y-13009929D01*
X12874643Y-13024214D01*
X12846071Y-13024214D01*
X12817500Y-13009929D01*
X12803214Y-12995643D01*
X12788928Y-12967071D01*
X12774643Y-12909929D01*
X12774643Y-12838500D01*
X12788928Y-12781357D01*
X12803214Y-12752786D01*
X12817500Y-12738500D01*
X12846071Y-12724214D01*
X13060357Y-12752786D02*
X13074643Y-12738500D01*
X13103214Y-12724214D01*
X13174643Y-12724214D01*
X13203214Y-12738500D01*
X13217500Y-12752786D01*
X13231785Y-12781357D01*
X13231785Y-12809929D01*
X13217500Y-12852786D01*
X13046071Y-13024214D01*
X13231785Y-13024214D01*
X13417500Y-12724214D02*
X13446071Y-12724214D01*
X13474643Y-12738500D01*
X13488928Y-12752786D01*
X13503214Y-12781357D01*
X13517500Y-12838500D01*
X13517500Y-12909929D01*
X13503214Y-12967071D01*
X13488928Y-12995643D01*
X13474643Y-13009929D01*
X13446071Y-13024214D01*
X13417500Y-13024214D01*
X13388928Y-13009929D01*
X13374643Y-12995643D01*
X13360357Y-12967071D01*
X13346071Y-12909929D01*
X13346071Y-12838500D01*
X13360357Y-12781357D01*
X13374643Y-12752786D01*
X13388928Y-12738500D01*
X13417500Y-12724214D01*
X13631786Y-12724214D02*
X13631786Y-12781357D01*
X13746071Y-12724214D02*
X13746071Y-12781357D01*
X14188928Y-13138500D02*
X14174643Y-13124214D01*
X14146071Y-13081357D01*
X14131785Y-13052786D01*
X14117500Y-13009929D01*
X14103214Y-12938500D01*
X14103214Y-12881357D01*
X14117500Y-12809929D01*
X14131785Y-12767071D01*
X14146071Y-12738500D01*
X14174643Y-12695643D01*
X14188928Y-12681357D01*
X14288928Y-12752786D02*
X14303214Y-12738500D01*
X14331785Y-12724214D01*
X14403214Y-12724214D01*
X14431785Y-12738500D01*
X14446071Y-12752786D01*
X14460357Y-12781357D01*
X14460357Y-12809929D01*
X14446071Y-12852786D01*
X14274643Y-13024214D01*
X14460357Y-13024214D01*
X14717500Y-12824214D02*
X14717500Y-13024214D01*
X14646071Y-12709929D02*
X14574643Y-12924214D01*
X14760357Y-12924214D01*
X15103214Y-13024214D02*
X15103214Y-12724214D01*
X15231785Y-13024214D02*
X15231785Y-12867071D01*
X15217500Y-12838500D01*
X15188928Y-12824214D01*
X15146071Y-12824214D01*
X15117500Y-12838500D01*
X15103214Y-12852786D01*
X15417500Y-13024214D02*
X15388928Y-13009929D01*
X15374643Y-12995643D01*
X15360357Y-12967071D01*
X15360357Y-12881357D01*
X15374643Y-12852786D01*
X15388928Y-12838500D01*
X15417500Y-12824214D01*
X15460357Y-12824214D01*
X15488928Y-12838500D01*
X15503214Y-12852786D01*
X15517500Y-12881357D01*
X15517500Y-12967071D01*
X15503214Y-12995643D01*
X15488928Y-13009929D01*
X15460357Y-13024214D01*
X15417500Y-13024214D01*
X15688928Y-13024214D02*
X15660357Y-13009929D01*
X15646071Y-12981357D01*
X15646071Y-12724214D01*
X15917500Y-13009929D02*
X15888928Y-13024214D01*
X15831786Y-13024214D01*
X15803214Y-13009929D01*
X15788928Y-12981357D01*
X15788928Y-12867071D01*
X15803214Y-12838500D01*
X15831786Y-12824214D01*
X15888928Y-12824214D01*
X15917500Y-12838500D01*
X15931786Y-12867071D01*
X15931786Y-12895643D01*
X15788928Y-12924214D01*
X16046071Y-13009929D02*
X16074643Y-13024214D01*
X16131786Y-13024214D01*
X16160357Y-13009929D01*
X16174643Y-12981357D01*
X16174643Y-12967071D01*
X16160357Y-12938500D01*
X16131786Y-12924214D01*
X16088928Y-12924214D01*
X16060357Y-12909929D01*
X16046071Y-12881357D01*
X16046071Y-12867071D01*
X16060357Y-12838500D01*
X16088928Y-12824214D01*
X16131786Y-12824214D01*
X16160357Y-12838500D01*
X16274643Y-13138500D02*
X16288928Y-13124214D01*
X16317500Y-13081357D01*
X16331786Y-13052786D01*
X16346071Y-13009929D01*
X16360357Y-12938500D01*
X16360357Y-12881357D01*
X16346071Y-12809929D01*
X16331786Y-12767071D01*
X16317500Y-12738500D01*
X16288928Y-12695643D01*
X16274643Y-12681357D01*
X9476860Y-13243860D02*
X9476860Y-13325140D01*
X9436220Y-13284500D02*
X9517500Y-13284500D01*
X9846071Y-13120214D02*
X9874643Y-13120214D01*
X9903214Y-13134500D01*
X9917500Y-13148786D01*
X9931786Y-13177357D01*
X9946071Y-13234500D01*
X9946071Y-13305929D01*
X9931786Y-13363071D01*
X9917500Y-13391643D01*
X9903214Y-13405929D01*
X9874643Y-13420214D01*
X9846071Y-13420214D01*
X9817500Y-13405929D01*
X9803214Y-13391643D01*
X9788929Y-13363071D01*
X9774643Y-13305929D01*
X9774643Y-13234500D01*
X9788929Y-13177357D01*
X9803214Y-13148786D01*
X9817500Y-13134500D01*
X9846071Y-13120214D01*
X10074643Y-13391643D02*
X10088929Y-13405929D01*
X10074643Y-13420214D01*
X10060357Y-13405929D01*
X10074643Y-13391643D01*
X10074643Y-13420214D01*
X10260357Y-13248786D02*
X10231786Y-13234500D01*
X10217500Y-13220214D01*
X10203214Y-13191643D01*
X10203214Y-13177357D01*
X10217500Y-13148786D01*
X10231786Y-13134500D01*
X10260357Y-13120214D01*
X10317500Y-13120214D01*
X10346071Y-13134500D01*
X10360357Y-13148786D01*
X10374643Y-13177357D01*
X10374643Y-13191643D01*
X10360357Y-13220214D01*
X10346071Y-13234500D01*
X10317500Y-13248786D01*
X10260357Y-13248786D01*
X10231786Y-13263071D01*
X10217500Y-13277357D01*
X10203214Y-13305929D01*
X10203214Y-13363071D01*
X10217500Y-13391643D01*
X10231786Y-13405929D01*
X10260357Y-13420214D01*
X10317500Y-13420214D01*
X10346071Y-13405929D01*
X10360357Y-13391643D01*
X10374643Y-13363071D01*
X10374643Y-13305929D01*
X10360357Y-13277357D01*
X10346071Y-13263071D01*
X10317500Y-13248786D01*
X10660357Y-13420214D02*
X10488929Y-13420214D01*
X10574643Y-13420214D02*
X10574643Y-13120214D01*
X10546071Y-13163071D01*
X10517500Y-13191643D01*
X10488929Y-13205929D01*
X10788929Y-13420214D02*
X10788929Y-13220214D01*
X10788929Y-13248786D02*
X10803214Y-13234500D01*
X10831786Y-13220214D01*
X10874643Y-13220214D01*
X10903214Y-13234500D01*
X10917500Y-13263071D01*
X10917500Y-13420214D01*
X10917500Y-13263071D02*
X10931786Y-13234500D01*
X10960357Y-13220214D01*
X11003214Y-13220214D01*
X11031786Y-13234500D01*
X11046071Y-13263071D01*
X11046071Y-13420214D01*
X11188928Y-13420214D02*
X11188928Y-13220214D01*
X11188928Y-13248786D02*
X11203214Y-13234500D01*
X11231786Y-13220214D01*
X11274643Y-13220214D01*
X11303214Y-13234500D01*
X11317500Y-13263071D01*
X11317500Y-13420214D01*
X11317500Y-13263071D02*
X11331786Y-13234500D01*
X11360357Y-13220214D01*
X11403214Y-13220214D01*
X11431786Y-13234500D01*
X11446071Y-13263071D01*
X11446071Y-13420214D01*
X12031786Y-13105929D02*
X11774643Y-13491643D01*
X12417500Y-13120214D02*
X12446071Y-13120214D01*
X12474643Y-13134500D01*
X12488928Y-13148786D01*
X12503214Y-13177357D01*
X12517500Y-13234500D01*
X12517500Y-13305929D01*
X12503214Y-13363071D01*
X12488928Y-13391643D01*
X12474643Y-13405929D01*
X12446071Y-13420214D01*
X12417500Y-13420214D01*
X12388928Y-13405929D01*
X12374643Y-13391643D01*
X12360357Y-13363071D01*
X12346071Y-13305929D01*
X12346071Y-13234500D01*
X12360357Y-13177357D01*
X12374643Y-13148786D01*
X12388928Y-13134500D01*
X12417500Y-13120214D01*
X12646071Y-13391643D02*
X12660357Y-13405929D01*
X12646071Y-13420214D01*
X12631786Y-13405929D01*
X12646071Y-13391643D01*
X12646071Y-13420214D01*
X12846071Y-13120214D02*
X12874643Y-13120214D01*
X12903214Y-13134500D01*
X12917500Y-13148786D01*
X12931785Y-13177357D01*
X12946071Y-13234500D01*
X12946071Y-13305929D01*
X12931785Y-13363071D01*
X12917500Y-13391643D01*
X12903214Y-13405929D01*
X12874643Y-13420214D01*
X12846071Y-13420214D01*
X12817500Y-13405929D01*
X12803214Y-13391643D01*
X12788928Y-13363071D01*
X12774643Y-13305929D01*
X12774643Y-13234500D01*
X12788928Y-13177357D01*
X12803214Y-13148786D01*
X12817500Y-13134500D01*
X12846071Y-13120214D01*
X13046071Y-13120214D02*
X13231785Y-13120214D01*
X13131785Y-13234500D01*
X13174643Y-13234500D01*
X13203214Y-13248786D01*
X13217500Y-13263071D01*
X13231785Y-13291643D01*
X13231785Y-13363071D01*
X13217500Y-13391643D01*
X13203214Y-13405929D01*
X13174643Y-13420214D01*
X13088928Y-13420214D01*
X13060357Y-13405929D01*
X13046071Y-13391643D01*
X13346071Y-13148786D02*
X13360357Y-13134500D01*
X13388928Y-13120214D01*
X13460357Y-13120214D01*
X13488928Y-13134500D01*
X13503214Y-13148786D01*
X13517500Y-13177357D01*
X13517500Y-13205929D01*
X13503214Y-13248786D01*
X13331785Y-13420214D01*
X13517500Y-13420214D01*
X13631786Y-13120214D02*
X13631786Y-13177357D01*
X13746071Y-13120214D02*
X13746071Y-13177357D01*
X14188928Y-13534500D02*
X14174643Y-13520214D01*
X14146071Y-13477357D01*
X14131785Y-13448786D01*
X14117500Y-13405929D01*
X14103214Y-13334500D01*
X14103214Y-13277357D01*
X14117500Y-13205929D01*
X14131785Y-13163071D01*
X14146071Y-13134500D01*
X14174643Y-13091643D01*
X14188928Y-13077357D01*
X14431785Y-13220214D02*
X14431785Y-13420214D01*
X14360357Y-13105929D02*
X14288928Y-13320214D01*
X14474643Y-13320214D01*
X14817500Y-13420214D02*
X14817500Y-13120214D01*
X14946071Y-13420214D02*
X14946071Y-13263071D01*
X14931785Y-13234500D01*
X14903214Y-13220214D01*
X14860357Y-13220214D01*
X14831785Y-13234500D01*
X14817500Y-13248786D01*
X15131785Y-13420214D02*
X15103214Y-13405929D01*
X15088928Y-13391643D01*
X15074643Y-13363071D01*
X15074643Y-13277357D01*
X15088928Y-13248786D01*
X15103214Y-13234500D01*
X15131785Y-13220214D01*
X15174643Y-13220214D01*
X15203214Y-13234500D01*
X15217500Y-13248786D01*
X15231785Y-13277357D01*
X15231785Y-13363071D01*
X15217500Y-13391643D01*
X15203214Y-13405929D01*
X15174643Y-13420214D01*
X15131785Y-13420214D01*
X15403214Y-13420214D02*
X15374643Y-13405929D01*
X15360357Y-13377357D01*
X15360357Y-13120214D01*
X15631786Y-13405929D02*
X15603214Y-13420214D01*
X15546071Y-13420214D01*
X15517500Y-13405929D01*
X15503214Y-13377357D01*
X15503214Y-13263071D01*
X15517500Y-13234500D01*
X15546071Y-13220214D01*
X15603214Y-13220214D01*
X15631786Y-13234500D01*
X15646071Y-13263071D01*
X15646071Y-13291643D01*
X15503214Y-13320214D01*
X15760357Y-13405929D02*
X15788928Y-13420214D01*
X15846071Y-13420214D01*
X15874643Y-13405929D01*
X15888928Y-13377357D01*
X15888928Y-13363071D01*
X15874643Y-13334500D01*
X15846071Y-13320214D01*
X15803214Y-13320214D01*
X15774643Y-13305929D01*
X15760357Y-13277357D01*
X15760357Y-13263071D01*
X15774643Y-13234500D01*
X15803214Y-13220214D01*
X15846071Y-13220214D01*
X15874643Y-13234500D01*
X15988928Y-13534500D02*
X16003214Y-13520214D01*
X16031786Y-13477357D01*
X16046071Y-13448786D01*
X16060357Y-13405929D01*
X16074643Y-13334500D01*
X16074643Y-13277357D01*
X16060357Y-13205929D01*
X16046071Y-13163071D01*
X16031786Y-13134500D01*
X16003214Y-13091643D01*
X15988928Y-13077357D01*
X9504320Y-13712320D02*
X9504320Y-13648680D01*
X9440680Y-13648680D01*
X9440680Y-13712320D01*
X9504320Y-13712320D01*
X9846071Y-13516214D02*
X9874643Y-13516214D01*
X9903214Y-13530500D01*
X9917500Y-13544786D01*
X9931786Y-13573357D01*
X9946071Y-13630500D01*
X9946071Y-13701929D01*
X9931786Y-13759071D01*
X9917500Y-13787643D01*
X9903214Y-13801929D01*
X9874643Y-13816214D01*
X9846071Y-13816214D01*
X9817500Y-13801929D01*
X9803214Y-13787643D01*
X9788929Y-13759071D01*
X9774643Y-13701929D01*
X9774643Y-13630500D01*
X9788929Y-13573357D01*
X9803214Y-13544786D01*
X9817500Y-13530500D01*
X9846071Y-13516214D01*
X10074643Y-13787643D02*
X10088929Y-13801929D01*
X10074643Y-13816214D01*
X10060357Y-13801929D01*
X10074643Y-13787643D01*
X10074643Y-13816214D01*
X10231786Y-13816214D02*
X10288928Y-13816214D01*
X10317500Y-13801929D01*
X10331786Y-13787643D01*
X10360357Y-13744786D01*
X10374643Y-13687643D01*
X10374643Y-13573357D01*
X10360357Y-13544786D01*
X10346071Y-13530500D01*
X10317500Y-13516214D01*
X10260357Y-13516214D01*
X10231786Y-13530500D01*
X10217500Y-13544786D01*
X10203214Y-13573357D01*
X10203214Y-13644786D01*
X10217500Y-13673357D01*
X10231786Y-13687643D01*
X10260357Y-13701929D01*
X10317500Y-13701929D01*
X10346071Y-13687643D01*
X10360357Y-13673357D01*
X10374643Y-13644786D01*
X10560357Y-13516214D02*
X10588929Y-13516214D01*
X10617500Y-13530500D01*
X10631786Y-13544786D01*
X10646071Y-13573357D01*
X10660357Y-13630500D01*
X10660357Y-13701929D01*
X10646071Y-13759071D01*
X10631786Y-13787643D01*
X10617500Y-13801929D01*
X10588929Y-13816214D01*
X10560357Y-13816214D01*
X10531786Y-13801929D01*
X10517500Y-13787643D01*
X10503214Y-13759071D01*
X10488929Y-13701929D01*
X10488929Y-13630500D01*
X10503214Y-13573357D01*
X10517500Y-13544786D01*
X10531786Y-13530500D01*
X10560357Y-13516214D01*
X10788929Y-13816214D02*
X10788929Y-13616214D01*
X10788929Y-13644786D02*
X10803214Y-13630500D01*
X10831786Y-13616214D01*
X10874643Y-13616214D01*
X10903214Y-13630500D01*
X10917500Y-13659071D01*
X10917500Y-13816214D01*
X10917500Y-13659071D02*
X10931786Y-13630500D01*
X10960357Y-13616214D01*
X11003214Y-13616214D01*
X11031786Y-13630500D01*
X11046071Y-13659071D01*
X11046071Y-13816214D01*
X11188928Y-13816214D02*
X11188928Y-13616214D01*
X11188928Y-13644786D02*
X11203214Y-13630500D01*
X11231786Y-13616214D01*
X11274643Y-13616214D01*
X11303214Y-13630500D01*
X11317500Y-13659071D01*
X11317500Y-13816214D01*
X11317500Y-13659071D02*
X11331786Y-13630500D01*
X11360357Y-13616214D01*
X11403214Y-13616214D01*
X11431786Y-13630500D01*
X11446071Y-13659071D01*
X11446071Y-13816214D01*
X12031786Y-13501929D02*
X11774643Y-13887643D01*
X12417500Y-13516214D02*
X12446071Y-13516214D01*
X12474643Y-13530500D01*
X12488928Y-13544786D01*
X12503214Y-13573357D01*
X12517500Y-13630500D01*
X12517500Y-13701929D01*
X12503214Y-13759071D01*
X12488928Y-13787643D01*
X12474643Y-13801929D01*
X12446071Y-13816214D01*
X12417500Y-13816214D01*
X12388928Y-13801929D01*
X12374643Y-13787643D01*
X12360357Y-13759071D01*
X12346071Y-13701929D01*
X12346071Y-13630500D01*
X12360357Y-13573357D01*
X12374643Y-13544786D01*
X12388928Y-13530500D01*
X12417500Y-13516214D01*
X12646071Y-13787643D02*
X12660357Y-13801929D01*
X12646071Y-13816214D01*
X12631786Y-13801929D01*
X12646071Y-13787643D01*
X12646071Y-13816214D01*
X12846071Y-13516214D02*
X12874643Y-13516214D01*
X12903214Y-13530500D01*
X12917500Y-13544786D01*
X12931785Y-13573357D01*
X12946071Y-13630500D01*
X12946071Y-13701929D01*
X12931785Y-13759071D01*
X12917500Y-13787643D01*
X12903214Y-13801929D01*
X12874643Y-13816214D01*
X12846071Y-13816214D01*
X12817500Y-13801929D01*
X12803214Y-13787643D01*
X12788928Y-13759071D01*
X12774643Y-13701929D01*
X12774643Y-13630500D01*
X12788928Y-13573357D01*
X12803214Y-13544786D01*
X12817500Y-13530500D01*
X12846071Y-13516214D01*
X13046071Y-13516214D02*
X13231785Y-13516214D01*
X13131785Y-13630500D01*
X13174643Y-13630500D01*
X13203214Y-13644786D01*
X13217500Y-13659071D01*
X13231785Y-13687643D01*
X13231785Y-13759071D01*
X13217500Y-13787643D01*
X13203214Y-13801929D01*
X13174643Y-13816214D01*
X13088928Y-13816214D01*
X13060357Y-13801929D01*
X13046071Y-13787643D01*
X13503214Y-13516214D02*
X13360357Y-13516214D01*
X13346071Y-13659071D01*
X13360357Y-13644786D01*
X13388928Y-13630500D01*
X13460357Y-13630500D01*
X13488928Y-13644786D01*
X13503214Y-13659071D01*
X13517500Y-13687643D01*
X13517500Y-13759071D01*
X13503214Y-13787643D01*
X13488928Y-13801929D01*
X13460357Y-13816214D01*
X13388928Y-13816214D01*
X13360357Y-13801929D01*
X13346071Y-13787643D01*
X13631786Y-13516214D02*
X13631786Y-13573357D01*
X13746071Y-13516214D02*
X13746071Y-13573357D01*
X14188928Y-13930500D02*
X14174643Y-13916214D01*
X14146071Y-13873357D01*
X14131785Y-13844786D01*
X14117500Y-13801929D01*
X14103214Y-13730500D01*
X14103214Y-13673357D01*
X14117500Y-13601929D01*
X14131785Y-13559071D01*
X14146071Y-13530500D01*
X14174643Y-13487643D01*
X14188928Y-13473357D01*
X14360357Y-13516214D02*
X14388928Y-13516214D01*
X14417500Y-13530500D01*
X14431785Y-13544786D01*
X14446071Y-13573357D01*
X14460357Y-13630500D01*
X14460357Y-13701929D01*
X14446071Y-13759071D01*
X14431785Y-13787643D01*
X14417500Y-13801929D01*
X14388928Y-13816214D01*
X14360357Y-13816214D01*
X14331785Y-13801929D01*
X14317500Y-13787643D01*
X14303214Y-13759071D01*
X14288928Y-13701929D01*
X14288928Y-13630500D01*
X14303214Y-13573357D01*
X14317500Y-13544786D01*
X14331785Y-13530500D01*
X14360357Y-13516214D01*
X14817500Y-13816214D02*
X14817500Y-13516214D01*
X14946071Y-13816214D02*
X14946071Y-13659071D01*
X14931785Y-13630500D01*
X14903214Y-13616214D01*
X14860357Y-13616214D01*
X14831785Y-13630500D01*
X14817500Y-13644786D01*
X15131785Y-13816214D02*
X15103214Y-13801929D01*
X15088928Y-13787643D01*
X15074643Y-13759071D01*
X15074643Y-13673357D01*
X15088928Y-13644786D01*
X15103214Y-13630500D01*
X15131785Y-13616214D01*
X15174643Y-13616214D01*
X15203214Y-13630500D01*
X15217500Y-13644786D01*
X15231785Y-13673357D01*
X15231785Y-13759071D01*
X15217500Y-13787643D01*
X15203214Y-13801929D01*
X15174643Y-13816214D01*
X15131785Y-13816214D01*
X15403214Y-13816214D02*
X15374643Y-13801929D01*
X15360357Y-13773357D01*
X15360357Y-13516214D01*
X15631786Y-13801929D02*
X15603214Y-13816214D01*
X15546071Y-13816214D01*
X15517500Y-13801929D01*
X15503214Y-13773357D01*
X15503214Y-13659071D01*
X15517500Y-13630500D01*
X15546071Y-13616214D01*
X15603214Y-13616214D01*
X15631786Y-13630500D01*
X15646071Y-13659071D01*
X15646071Y-13687643D01*
X15503214Y-13716214D01*
X15760357Y-13801929D02*
X15788928Y-13816214D01*
X15846071Y-13816214D01*
X15874643Y-13801929D01*
X15888928Y-13773357D01*
X15888928Y-13759071D01*
X15874643Y-13730500D01*
X15846071Y-13716214D01*
X15803214Y-13716214D01*
X15774643Y-13701929D01*
X15760357Y-13673357D01*
X15760357Y-13659071D01*
X15774643Y-13630500D01*
X15803214Y-13616214D01*
X15846071Y-13616214D01*
X15874643Y-13630500D01*
X16246071Y-13701929D02*
X16474643Y-13701929D01*
X16360357Y-13816214D02*
X16360357Y-13587643D01*
X17003214Y-13816214D02*
X16831786Y-13816214D01*
X16917500Y-13816214D02*
X16917500Y-13516214D01*
X16888928Y-13559071D01*
X16860357Y-13587643D01*
X16831786Y-13601929D01*
X17174643Y-13644786D02*
X17146071Y-13630500D01*
X17131786Y-13616214D01*
X17117500Y-13587643D01*
X17117500Y-13573357D01*
X17131786Y-13544786D01*
X17146071Y-13530500D01*
X17174643Y-13516214D01*
X17231786Y-13516214D01*
X17260357Y-13530500D01*
X17274643Y-13544786D01*
X17288928Y-13573357D01*
X17288928Y-13587643D01*
X17274643Y-13616214D01*
X17260357Y-13630500D01*
X17231786Y-13644786D01*
X17174643Y-13644786D01*
X17146071Y-13659071D01*
X17131786Y-13673357D01*
X17117500Y-13701929D01*
X17117500Y-13759071D01*
X17131786Y-13787643D01*
X17146071Y-13801929D01*
X17174643Y-13816214D01*
X17231786Y-13816214D01*
X17260357Y-13801929D01*
X17274643Y-13787643D01*
X17288928Y-13759071D01*
X17288928Y-13701929D01*
X17274643Y-13673357D01*
X17260357Y-13659071D01*
X17231786Y-13644786D01*
X17631786Y-13801929D02*
X17660357Y-13816214D01*
X17717500Y-13816214D01*
X17746071Y-13801929D01*
X17760357Y-13773357D01*
X17760357Y-13759071D01*
X17746071Y-13730500D01*
X17717500Y-13716214D01*
X17674643Y-13716214D01*
X17646071Y-13701929D01*
X17631786Y-13673357D01*
X17631786Y-13659071D01*
X17646071Y-13630500D01*
X17674643Y-13616214D01*
X17717500Y-13616214D01*
X17746071Y-13630500D01*
X17931786Y-13816214D02*
X17903214Y-13801929D01*
X17888928Y-13773357D01*
X17888928Y-13516214D01*
X18088928Y-13816214D02*
X18060357Y-13801929D01*
X18046071Y-13787643D01*
X18031786Y-13759071D01*
X18031786Y-13673357D01*
X18046071Y-13644786D01*
X18060357Y-13630500D01*
X18088928Y-13616214D01*
X18131786Y-13616214D01*
X18160357Y-13630500D01*
X18174643Y-13644786D01*
X18188928Y-13673357D01*
X18188928Y-13759071D01*
X18174643Y-13787643D01*
X18160357Y-13801929D01*
X18131786Y-13816214D01*
X18088928Y-13816214D01*
X18274643Y-13616214D02*
X18388928Y-13616214D01*
X18317500Y-13516214D02*
X18317500Y-13773357D01*
X18331786Y-13801929D01*
X18360357Y-13816214D01*
X18388928Y-13816214D01*
X18474643Y-13801929D02*
X18503214Y-13816214D01*
X18560357Y-13816214D01*
X18588929Y-13801929D01*
X18603214Y-13773357D01*
X18603214Y-13759071D01*
X18588929Y-13730500D01*
X18560357Y-13716214D01*
X18517500Y-13716214D01*
X18488929Y-13701929D01*
X18474643Y-13673357D01*
X18474643Y-13659071D01*
X18488929Y-13630500D01*
X18517500Y-13616214D01*
X18560357Y-13616214D01*
X18588929Y-13630500D01*
X18703214Y-13930500D02*
X18717500Y-13916214D01*
X18746071Y-13873357D01*
X18760357Y-13844786D01*
X18774643Y-13801929D01*
X18788928Y-13730500D01*
X18788928Y-13673357D01*
X18774643Y-13601929D01*
X18760357Y-13559071D01*
X18746071Y-13530500D01*
X18717500Y-13487643D01*
X18703214Y-13473357D01*
X9467462Y-14126538D02*
X9517500Y-14076500D01*
X9467462Y-14026462D01*
X9417424Y-14076500D01*
X9467462Y-14126538D01*
X9946071Y-14212214D02*
X9774643Y-14212214D01*
X9860357Y-14212214D02*
X9860357Y-13912214D01*
X9831786Y-13955071D01*
X9803214Y-13983643D01*
X9774643Y-13997929D01*
X10074643Y-14183643D02*
X10088929Y-14197929D01*
X10074643Y-14212214D01*
X10060357Y-14197929D01*
X10074643Y-14183643D01*
X10074643Y-14212214D01*
X10274643Y-13912214D02*
X10303214Y-13912214D01*
X10331786Y-13926500D01*
X10346071Y-13940786D01*
X10360357Y-13969357D01*
X10374643Y-14026500D01*
X10374643Y-14097929D01*
X10360357Y-14155071D01*
X10346071Y-14183643D01*
X10331786Y-14197929D01*
X10303214Y-14212214D01*
X10274643Y-14212214D01*
X10246071Y-14197929D01*
X10231786Y-14183643D01*
X10217500Y-14155071D01*
X10203214Y-14097929D01*
X10203214Y-14026500D01*
X10217500Y-13969357D01*
X10231786Y-13940786D01*
X10246071Y-13926500D01*
X10274643Y-13912214D01*
X10560357Y-13912214D02*
X10588929Y-13912214D01*
X10617500Y-13926500D01*
X10631786Y-13940786D01*
X10646071Y-13969357D01*
X10660357Y-14026500D01*
X10660357Y-14097929D01*
X10646071Y-14155071D01*
X10631786Y-14183643D01*
X10617500Y-14197929D01*
X10588929Y-14212214D01*
X10560357Y-14212214D01*
X10531786Y-14197929D01*
X10517500Y-14183643D01*
X10503214Y-14155071D01*
X10488929Y-14097929D01*
X10488929Y-14026500D01*
X10503214Y-13969357D01*
X10517500Y-13940786D01*
X10531786Y-13926500D01*
X10560357Y-13912214D01*
X10788929Y-14212214D02*
X10788929Y-14012214D01*
X10788929Y-14040786D02*
X10803214Y-14026500D01*
X10831786Y-14012214D01*
X10874643Y-14012214D01*
X10903214Y-14026500D01*
X10917500Y-14055071D01*
X10917500Y-14212214D01*
X10917500Y-14055071D02*
X10931786Y-14026500D01*
X10960357Y-14012214D01*
X11003214Y-14012214D01*
X11031786Y-14026500D01*
X11046071Y-14055071D01*
X11046071Y-14212214D01*
X11188928Y-14212214D02*
X11188928Y-14012214D01*
X11188928Y-14040786D02*
X11203214Y-14026500D01*
X11231786Y-14012214D01*
X11274643Y-14012214D01*
X11303214Y-14026500D01*
X11317500Y-14055071D01*
X11317500Y-14212214D01*
X11317500Y-14055071D02*
X11331786Y-14026500D01*
X11360357Y-14012214D01*
X11403214Y-14012214D01*
X11431786Y-14026500D01*
X11446071Y-14055071D01*
X11446071Y-14212214D01*
X12031786Y-13897929D02*
X11774643Y-14283643D01*
X12417500Y-13912214D02*
X12446071Y-13912214D01*
X12474643Y-13926500D01*
X12488928Y-13940786D01*
X12503214Y-13969357D01*
X12517500Y-14026500D01*
X12517500Y-14097929D01*
X12503214Y-14155071D01*
X12488928Y-14183643D01*
X12474643Y-14197929D01*
X12446071Y-14212214D01*
X12417500Y-14212214D01*
X12388928Y-14197929D01*
X12374643Y-14183643D01*
X12360357Y-14155071D01*
X12346071Y-14097929D01*
X12346071Y-14026500D01*
X12360357Y-13969357D01*
X12374643Y-13940786D01*
X12388928Y-13926500D01*
X12417500Y-13912214D01*
X12646071Y-14183643D02*
X12660357Y-14197929D01*
X12646071Y-14212214D01*
X12631786Y-14197929D01*
X12646071Y-14183643D01*
X12646071Y-14212214D01*
X12846071Y-13912214D02*
X12874643Y-13912214D01*
X12903214Y-13926500D01*
X12917500Y-13940786D01*
X12931785Y-13969357D01*
X12946071Y-14026500D01*
X12946071Y-14097929D01*
X12931785Y-14155071D01*
X12917500Y-14183643D01*
X12903214Y-14197929D01*
X12874643Y-14212214D01*
X12846071Y-14212214D01*
X12817500Y-14197929D01*
X12803214Y-14183643D01*
X12788928Y-14155071D01*
X12774643Y-14097929D01*
X12774643Y-14026500D01*
X12788928Y-13969357D01*
X12803214Y-13940786D01*
X12817500Y-13926500D01*
X12846071Y-13912214D01*
X13046071Y-13912214D02*
X13231785Y-13912214D01*
X13131785Y-14026500D01*
X13174643Y-14026500D01*
X13203214Y-14040786D01*
X13217500Y-14055071D01*
X13231785Y-14083643D01*
X13231785Y-14155071D01*
X13217500Y-14183643D01*
X13203214Y-14197929D01*
X13174643Y-14212214D01*
X13088928Y-14212214D01*
X13060357Y-14197929D01*
X13046071Y-14183643D01*
X13374643Y-14212214D02*
X13431785Y-14212214D01*
X13460357Y-14197929D01*
X13474643Y-14183643D01*
X13503214Y-14140786D01*
X13517500Y-14083643D01*
X13517500Y-13969357D01*
X13503214Y-13940786D01*
X13488928Y-13926500D01*
X13460357Y-13912214D01*
X13403214Y-13912214D01*
X13374643Y-13926500D01*
X13360357Y-13940786D01*
X13346071Y-13969357D01*
X13346071Y-14040786D01*
X13360357Y-14069357D01*
X13374643Y-14083643D01*
X13403214Y-14097929D01*
X13460357Y-14097929D01*
X13488928Y-14083643D01*
X13503214Y-14069357D01*
X13517500Y-14040786D01*
X13631786Y-13912214D02*
X13631786Y-13969357D01*
X13746071Y-13912214D02*
X13746071Y-13969357D01*
X14188928Y-14326500D02*
X14174643Y-14312214D01*
X14146071Y-14269357D01*
X14131785Y-14240786D01*
X14117500Y-14197929D01*
X14103214Y-14126500D01*
X14103214Y-14069357D01*
X14117500Y-13997929D01*
X14131785Y-13955071D01*
X14146071Y-13926500D01*
X14174643Y-13883643D01*
X14188928Y-13869357D01*
X14346071Y-14040786D02*
X14317500Y-14026500D01*
X14303214Y-14012214D01*
X14288928Y-13983643D01*
X14288928Y-13969357D01*
X14303214Y-13940786D01*
X14317500Y-13926500D01*
X14346071Y-13912214D01*
X14403214Y-13912214D01*
X14431785Y-13926500D01*
X14446071Y-13940786D01*
X14460357Y-13969357D01*
X14460357Y-13983643D01*
X14446071Y-14012214D01*
X14431785Y-14026500D01*
X14403214Y-14040786D01*
X14346071Y-14040786D01*
X14317500Y-14055071D01*
X14303214Y-14069357D01*
X14288928Y-14097929D01*
X14288928Y-14155071D01*
X14303214Y-14183643D01*
X14317500Y-14197929D01*
X14346071Y-14212214D01*
X14403214Y-14212214D01*
X14431785Y-14197929D01*
X14446071Y-14183643D01*
X14460357Y-14155071D01*
X14460357Y-14097929D01*
X14446071Y-14069357D01*
X14431785Y-14055071D01*
X14403214Y-14040786D01*
X14817500Y-14212214D02*
X14817500Y-13912214D01*
X14946071Y-14212214D02*
X14946071Y-14055071D01*
X14931785Y-14026500D01*
X14903214Y-14012214D01*
X14860357Y-14012214D01*
X14831785Y-14026500D01*
X14817500Y-14040786D01*
X15131785Y-14212214D02*
X15103214Y-14197929D01*
X15088928Y-14183643D01*
X15074643Y-14155071D01*
X15074643Y-14069357D01*
X15088928Y-14040786D01*
X15103214Y-14026500D01*
X15131785Y-14012214D01*
X15174643Y-14012214D01*
X15203214Y-14026500D01*
X15217500Y-14040786D01*
X15231785Y-14069357D01*
X15231785Y-14155071D01*
X15217500Y-14183643D01*
X15203214Y-14197929D01*
X15174643Y-14212214D01*
X15131785Y-14212214D01*
X15403214Y-14212214D02*
X15374643Y-14197929D01*
X15360357Y-14169357D01*
X15360357Y-13912214D01*
X15631786Y-14197929D02*
X15603214Y-14212214D01*
X15546071Y-14212214D01*
X15517500Y-14197929D01*
X15503214Y-14169357D01*
X15503214Y-14055071D01*
X15517500Y-14026500D01*
X15546071Y-14012214D01*
X15603214Y-14012214D01*
X15631786Y-14026500D01*
X15646071Y-14055071D01*
X15646071Y-14083643D01*
X15503214Y-14112214D01*
X15760357Y-14197929D02*
X15788928Y-14212214D01*
X15846071Y-14212214D01*
X15874643Y-14197929D01*
X15888928Y-14169357D01*
X15888928Y-14155071D01*
X15874643Y-14126500D01*
X15846071Y-14112214D01*
X15803214Y-14112214D01*
X15774643Y-14097929D01*
X15760357Y-14069357D01*
X15760357Y-14055071D01*
X15774643Y-14026500D01*
X15803214Y-14012214D01*
X15846071Y-14012214D01*
X15874643Y-14026500D01*
X15988928Y-14326500D02*
X16003214Y-14312214D01*
X16031786Y-14269357D01*
X16046071Y-14240786D01*
X16060357Y-14197929D01*
X16074643Y-14126500D01*
X16074643Y-14069357D01*
X16060357Y-13997929D01*
X16046071Y-13955071D01*
X16031786Y-13926500D01*
X16003214Y-13883643D01*
X15988928Y-13869357D01*
X9415900Y-14421700D02*
X9517500Y-14523300D01*
X9517500Y-14421700D02*
X9415900Y-14523300D01*
X9517500Y-14472500D02*
G75*
G03X9517500Y-14472500I-50800J0D01*
G01*
X9946071Y-14608214D02*
X9774643Y-14608214D01*
X9860357Y-14608214D02*
X9860357Y-14308214D01*
X9831786Y-14351071D01*
X9803214Y-14379643D01*
X9774643Y-14393929D01*
X10074643Y-14579643D02*
X10088929Y-14593929D01*
X10074643Y-14608214D01*
X10060357Y-14593929D01*
X10074643Y-14579643D01*
X10074643Y-14608214D01*
X10274643Y-14308214D02*
X10303214Y-14308214D01*
X10331786Y-14322500D01*
X10346071Y-14336786D01*
X10360357Y-14365357D01*
X10374643Y-14422500D01*
X10374643Y-14493929D01*
X10360357Y-14551071D01*
X10346071Y-14579643D01*
X10331786Y-14593929D01*
X10303214Y-14608214D01*
X10274643Y-14608214D01*
X10246071Y-14593929D01*
X10231786Y-14579643D01*
X10217500Y-14551071D01*
X10203214Y-14493929D01*
X10203214Y-14422500D01*
X10217500Y-14365357D01*
X10231786Y-14336786D01*
X10246071Y-14322500D01*
X10274643Y-14308214D01*
X10488929Y-14336786D02*
X10503214Y-14322500D01*
X10531786Y-14308214D01*
X10603214Y-14308214D01*
X10631786Y-14322500D01*
X10646071Y-14336786D01*
X10660357Y-14365357D01*
X10660357Y-14393929D01*
X10646071Y-14436786D01*
X10474643Y-14608214D01*
X10660357Y-14608214D01*
X10788929Y-14608214D02*
X10788929Y-14408214D01*
X10788929Y-14436786D02*
X10803214Y-14422500D01*
X10831786Y-14408214D01*
X10874643Y-14408214D01*
X10903214Y-14422500D01*
X10917500Y-14451071D01*
X10917500Y-14608214D01*
X10917500Y-14451071D02*
X10931786Y-14422500D01*
X10960357Y-14408214D01*
X11003214Y-14408214D01*
X11031786Y-14422500D01*
X11046071Y-14451071D01*
X11046071Y-14608214D01*
X11188928Y-14608214D02*
X11188928Y-14408214D01*
X11188928Y-14436786D02*
X11203214Y-14422500D01*
X11231786Y-14408214D01*
X11274643Y-14408214D01*
X11303214Y-14422500D01*
X11317500Y-14451071D01*
X11317500Y-14608214D01*
X11317500Y-14451071D02*
X11331786Y-14422500D01*
X11360357Y-14408214D01*
X11403214Y-14408214D01*
X11431786Y-14422500D01*
X11446071Y-14451071D01*
X11446071Y-14608214D01*
X12031786Y-14293929D02*
X11774643Y-14679643D01*
X12417500Y-14308214D02*
X12446071Y-14308214D01*
X12474643Y-14322500D01*
X12488928Y-14336786D01*
X12503214Y-14365357D01*
X12517500Y-14422500D01*
X12517500Y-14493929D01*
X12503214Y-14551071D01*
X12488928Y-14579643D01*
X12474643Y-14593929D01*
X12446071Y-14608214D01*
X12417500Y-14608214D01*
X12388928Y-14593929D01*
X12374643Y-14579643D01*
X12360357Y-14551071D01*
X12346071Y-14493929D01*
X12346071Y-14422500D01*
X12360357Y-14365357D01*
X12374643Y-14336786D01*
X12388928Y-14322500D01*
X12417500Y-14308214D01*
X12646071Y-14579643D02*
X12660357Y-14593929D01*
X12646071Y-14608214D01*
X12631786Y-14593929D01*
X12646071Y-14579643D01*
X12646071Y-14608214D01*
X12846071Y-14308214D02*
X12874643Y-14308214D01*
X12903214Y-14322500D01*
X12917500Y-14336786D01*
X12931785Y-14365357D01*
X12946071Y-14422500D01*
X12946071Y-14493929D01*
X12931785Y-14551071D01*
X12917500Y-14579643D01*
X12903214Y-14593929D01*
X12874643Y-14608214D01*
X12846071Y-14608214D01*
X12817500Y-14593929D01*
X12803214Y-14579643D01*
X12788928Y-14551071D01*
X12774643Y-14493929D01*
X12774643Y-14422500D01*
X12788928Y-14365357D01*
X12803214Y-14336786D01*
X12817500Y-14322500D01*
X12846071Y-14308214D01*
X13203214Y-14408214D02*
X13203214Y-14608214D01*
X13131785Y-14293929D02*
X13060357Y-14508214D01*
X13246071Y-14508214D01*
X13417500Y-14308214D02*
X13446071Y-14308214D01*
X13474643Y-14322500D01*
X13488928Y-14336786D01*
X13503214Y-14365357D01*
X13517500Y-14422500D01*
X13517500Y-14493929D01*
X13503214Y-14551071D01*
X13488928Y-14579643D01*
X13474643Y-14593929D01*
X13446071Y-14608214D01*
X13417500Y-14608214D01*
X13388928Y-14593929D01*
X13374643Y-14579643D01*
X13360357Y-14551071D01*
X13346071Y-14493929D01*
X13346071Y-14422500D01*
X13360357Y-14365357D01*
X13374643Y-14336786D01*
X13388928Y-14322500D01*
X13417500Y-14308214D01*
X13631786Y-14308214D02*
X13631786Y-14365357D01*
X13746071Y-14308214D02*
X13746071Y-14365357D01*
X14188928Y-14722500D02*
X14174643Y-14708214D01*
X14146071Y-14665357D01*
X14131785Y-14636786D01*
X14117500Y-14593929D01*
X14103214Y-14522500D01*
X14103214Y-14465357D01*
X14117500Y-14393929D01*
X14131785Y-14351071D01*
X14146071Y-14322500D01*
X14174643Y-14279643D01*
X14188928Y-14265357D01*
X14360357Y-14308214D02*
X14388928Y-14308214D01*
X14417500Y-14322500D01*
X14431785Y-14336786D01*
X14446071Y-14365357D01*
X14460357Y-14422500D01*
X14460357Y-14493929D01*
X14446071Y-14551071D01*
X14431785Y-14579643D01*
X14417500Y-14593929D01*
X14388928Y-14608214D01*
X14360357Y-14608214D01*
X14331785Y-14593929D01*
X14317500Y-14579643D01*
X14303214Y-14551071D01*
X14288928Y-14493929D01*
X14288928Y-14422500D01*
X14303214Y-14365357D01*
X14317500Y-14336786D01*
X14331785Y-14322500D01*
X14360357Y-14308214D01*
X14817500Y-14608214D02*
X14817500Y-14308214D01*
X14946071Y-14608214D02*
X14946071Y-14451071D01*
X14931785Y-14422500D01*
X14903214Y-14408214D01*
X14860357Y-14408214D01*
X14831785Y-14422500D01*
X14817500Y-14436786D01*
X15131785Y-14608214D02*
X15103214Y-14593929D01*
X15088928Y-14579643D01*
X15074643Y-14551071D01*
X15074643Y-14465357D01*
X15088928Y-14436786D01*
X15103214Y-14422500D01*
X15131785Y-14408214D01*
X15174643Y-14408214D01*
X15203214Y-14422500D01*
X15217500Y-14436786D01*
X15231785Y-14465357D01*
X15231785Y-14551071D01*
X15217500Y-14579643D01*
X15203214Y-14593929D01*
X15174643Y-14608214D01*
X15131785Y-14608214D01*
X15403214Y-14608214D02*
X15374643Y-14593929D01*
X15360357Y-14565357D01*
X15360357Y-14308214D01*
X15631786Y-14593929D02*
X15603214Y-14608214D01*
X15546071Y-14608214D01*
X15517500Y-14593929D01*
X15503214Y-14565357D01*
X15503214Y-14451071D01*
X15517500Y-14422500D01*
X15546071Y-14408214D01*
X15603214Y-14408214D01*
X15631786Y-14422500D01*
X15646071Y-14451071D01*
X15646071Y-14479643D01*
X15503214Y-14508214D01*
X15760357Y-14593929D02*
X15788928Y-14608214D01*
X15846071Y-14608214D01*
X15874643Y-14593929D01*
X15888928Y-14565357D01*
X15888928Y-14551071D01*
X15874643Y-14522500D01*
X15846071Y-14508214D01*
X15803214Y-14508214D01*
X15774643Y-14493929D01*
X15760357Y-14465357D01*
X15760357Y-14451071D01*
X15774643Y-14422500D01*
X15803214Y-14408214D01*
X15846071Y-14408214D01*
X15874643Y-14422500D01*
X16246071Y-14493929D02*
X16474643Y-14493929D01*
X16360357Y-14608214D02*
X16360357Y-14379643D01*
X16817500Y-14308214D02*
X17003214Y-14308214D01*
X16903214Y-14422500D01*
X16946071Y-14422500D01*
X16974643Y-14436786D01*
X16988928Y-14451071D01*
X17003214Y-14479643D01*
X17003214Y-14551071D01*
X16988928Y-14579643D01*
X16974643Y-14593929D01*
X16946071Y-14608214D01*
X16860357Y-14608214D01*
X16831786Y-14593929D01*
X16817500Y-14579643D01*
X17346071Y-14593929D02*
X17374643Y-14608214D01*
X17431786Y-14608214D01*
X17460357Y-14593929D01*
X17474643Y-14565357D01*
X17474643Y-14551071D01*
X17460357Y-14522500D01*
X17431786Y-14508214D01*
X17388928Y-14508214D01*
X17360357Y-14493929D01*
X17346071Y-14465357D01*
X17346071Y-14451071D01*
X17360357Y-14422500D01*
X17388928Y-14408214D01*
X17431786Y-14408214D01*
X17460357Y-14422500D01*
X17646071Y-14608214D02*
X17617500Y-14593929D01*
X17603214Y-14565357D01*
X17603214Y-14308214D01*
X17803214Y-14608214D02*
X17774643Y-14593929D01*
X17760357Y-14579643D01*
X17746071Y-14551071D01*
X17746071Y-14465357D01*
X17760357Y-14436786D01*
X17774643Y-14422500D01*
X17803214Y-14408214D01*
X17846071Y-14408214D01*
X17874643Y-14422500D01*
X17888928Y-14436786D01*
X17903214Y-14465357D01*
X17903214Y-14551071D01*
X17888928Y-14579643D01*
X17874643Y-14593929D01*
X17846071Y-14608214D01*
X17803214Y-14608214D01*
X17988928Y-14408214D02*
X18103214Y-14408214D01*
X18031786Y-14308214D02*
X18031786Y-14565357D01*
X18046071Y-14593929D01*
X18074643Y-14608214D01*
X18103214Y-14608214D01*
X18188929Y-14593929D02*
X18217500Y-14608214D01*
X18274643Y-14608214D01*
X18303214Y-14593929D01*
X18317500Y-14565357D01*
X18317500Y-14551071D01*
X18303214Y-14522500D01*
X18274643Y-14508214D01*
X18231786Y-14508214D01*
X18203214Y-14493929D01*
X18188929Y-14465357D01*
X18188929Y-14451071D01*
X18203214Y-14422500D01*
X18231786Y-14408214D01*
X18274643Y-14408214D01*
X18303214Y-14422500D01*
X18417500Y-14722500D02*
X18431786Y-14708214D01*
X18460357Y-14665357D01*
X18474643Y-14636786D01*
X18488928Y-14593929D01*
X18503214Y-14522500D01*
X18503214Y-14465357D01*
X18488928Y-14393929D01*
X18474643Y-14351071D01*
X18460357Y-14322500D01*
X18431786Y-14279643D01*
X18417500Y-14265357D01*
X9407500Y-14813500D02*
X9517500Y-14923500D01*
X9517500Y-14813500D02*
X9407500Y-14923500D01*
X9462500Y-14813500D02*
X9462500Y-14923500D01*
X9407500Y-14868500D02*
X9517500Y-14868500D01*
X9946071Y-15004214D02*
X9774643Y-15004214D01*
X9860357Y-15004214D02*
X9860357Y-14704214D01*
X9831786Y-14747071D01*
X9803214Y-14775643D01*
X9774643Y-14789929D01*
X10074643Y-14975643D02*
X10088929Y-14989929D01*
X10074643Y-15004214D01*
X10060357Y-14989929D01*
X10074643Y-14975643D01*
X10074643Y-15004214D01*
X10374643Y-15004214D02*
X10203214Y-15004214D01*
X10288928Y-15004214D02*
X10288928Y-14704214D01*
X10260357Y-14747071D01*
X10231786Y-14775643D01*
X10203214Y-14789929D01*
X10560357Y-14704214D02*
X10588929Y-14704214D01*
X10617500Y-14718500D01*
X10631786Y-14732786D01*
X10646071Y-14761357D01*
X10660357Y-14818500D01*
X10660357Y-14889929D01*
X10646071Y-14947071D01*
X10631786Y-14975643D01*
X10617500Y-14989929D01*
X10588929Y-15004214D01*
X10560357Y-15004214D01*
X10531786Y-14989929D01*
X10517500Y-14975643D01*
X10503214Y-14947071D01*
X10488929Y-14889929D01*
X10488929Y-14818500D01*
X10503214Y-14761357D01*
X10517500Y-14732786D01*
X10531786Y-14718500D01*
X10560357Y-14704214D01*
X10788929Y-15004214D02*
X10788929Y-14804214D01*
X10788929Y-14832786D02*
X10803214Y-14818500D01*
X10831786Y-14804214D01*
X10874643Y-14804214D01*
X10903214Y-14818500D01*
X10917500Y-14847071D01*
X10917500Y-15004214D01*
X10917500Y-14847071D02*
X10931786Y-14818500D01*
X10960357Y-14804214D01*
X11003214Y-14804214D01*
X11031786Y-14818500D01*
X11046071Y-14847071D01*
X11046071Y-15004214D01*
X11188928Y-15004214D02*
X11188928Y-14804214D01*
X11188928Y-14832786D02*
X11203214Y-14818500D01*
X11231786Y-14804214D01*
X11274643Y-14804214D01*
X11303214Y-14818500D01*
X11317500Y-14847071D01*
X11317500Y-15004214D01*
X11317500Y-14847071D02*
X11331786Y-14818500D01*
X11360357Y-14804214D01*
X11403214Y-14804214D01*
X11431786Y-14818500D01*
X11446071Y-14847071D01*
X11446071Y-15004214D01*
X12031786Y-14689929D02*
X11774643Y-15075643D01*
X12417500Y-14704214D02*
X12446071Y-14704214D01*
X12474643Y-14718500D01*
X12488928Y-14732786D01*
X12503214Y-14761357D01*
X12517500Y-14818500D01*
X12517500Y-14889929D01*
X12503214Y-14947071D01*
X12488928Y-14975643D01*
X12474643Y-14989929D01*
X12446071Y-15004214D01*
X12417500Y-15004214D01*
X12388928Y-14989929D01*
X12374643Y-14975643D01*
X12360357Y-14947071D01*
X12346071Y-14889929D01*
X12346071Y-14818500D01*
X12360357Y-14761357D01*
X12374643Y-14732786D01*
X12388928Y-14718500D01*
X12417500Y-14704214D01*
X12646071Y-14975643D02*
X12660357Y-14989929D01*
X12646071Y-15004214D01*
X12631786Y-14989929D01*
X12646071Y-14975643D01*
X12646071Y-15004214D01*
X12846071Y-14704214D02*
X12874643Y-14704214D01*
X12903214Y-14718500D01*
X12917500Y-14732786D01*
X12931785Y-14761357D01*
X12946071Y-14818500D01*
X12946071Y-14889929D01*
X12931785Y-14947071D01*
X12917500Y-14975643D01*
X12903214Y-14989929D01*
X12874643Y-15004214D01*
X12846071Y-15004214D01*
X12817500Y-14989929D01*
X12803214Y-14975643D01*
X12788928Y-14947071D01*
X12774643Y-14889929D01*
X12774643Y-14818500D01*
X12788928Y-14761357D01*
X12803214Y-14732786D01*
X12817500Y-14718500D01*
X12846071Y-14704214D01*
X13203214Y-14804214D02*
X13203214Y-15004214D01*
X13131785Y-14689929D02*
X13060357Y-14904214D01*
X13246071Y-14904214D01*
X13331785Y-14704214D02*
X13517500Y-14704214D01*
X13417500Y-14818500D01*
X13460357Y-14818500D01*
X13488928Y-14832786D01*
X13503214Y-14847071D01*
X13517500Y-14875643D01*
X13517500Y-14947071D01*
X13503214Y-14975643D01*
X13488928Y-14989929D01*
X13460357Y-15004214D01*
X13374643Y-15004214D01*
X13346071Y-14989929D01*
X13331785Y-14975643D01*
X13631786Y-14704214D02*
X13631786Y-14761357D01*
X13746071Y-14704214D02*
X13746071Y-14761357D01*
X14188928Y-15118500D02*
X14174643Y-15104214D01*
X14146071Y-15061357D01*
X14131785Y-15032786D01*
X14117500Y-14989929D01*
X14103214Y-14918500D01*
X14103214Y-14861357D01*
X14117500Y-14789929D01*
X14131785Y-14747071D01*
X14146071Y-14718500D01*
X14174643Y-14675643D01*
X14188928Y-14661357D01*
X14360357Y-14704214D02*
X14388928Y-14704214D01*
X14417500Y-14718500D01*
X14431785Y-14732786D01*
X14446071Y-14761357D01*
X14460357Y-14818500D01*
X14460357Y-14889929D01*
X14446071Y-14947071D01*
X14431785Y-14975643D01*
X14417500Y-14989929D01*
X14388928Y-15004214D01*
X14360357Y-15004214D01*
X14331785Y-14989929D01*
X14317500Y-14975643D01*
X14303214Y-14947071D01*
X14288928Y-14889929D01*
X14288928Y-14818500D01*
X14303214Y-14761357D01*
X14317500Y-14732786D01*
X14331785Y-14718500D01*
X14360357Y-14704214D01*
X14817500Y-15004214D02*
X14817500Y-14704214D01*
X14946071Y-15004214D02*
X14946071Y-14847071D01*
X14931785Y-14818500D01*
X14903214Y-14804214D01*
X14860357Y-14804214D01*
X14831785Y-14818500D01*
X14817500Y-14832786D01*
X15131785Y-15004214D02*
X15103214Y-14989929D01*
X15088928Y-14975643D01*
X15074643Y-14947071D01*
X15074643Y-14861357D01*
X15088928Y-14832786D01*
X15103214Y-14818500D01*
X15131785Y-14804214D01*
X15174643Y-14804214D01*
X15203214Y-14818500D01*
X15217500Y-14832786D01*
X15231785Y-14861357D01*
X15231785Y-14947071D01*
X15217500Y-14975643D01*
X15203214Y-14989929D01*
X15174643Y-15004214D01*
X15131785Y-15004214D01*
X15403214Y-15004214D02*
X15374643Y-14989929D01*
X15360357Y-14961357D01*
X15360357Y-14704214D01*
X15631786Y-14989929D02*
X15603214Y-15004214D01*
X15546071Y-15004214D01*
X15517500Y-14989929D01*
X15503214Y-14961357D01*
X15503214Y-14847071D01*
X15517500Y-14818500D01*
X15546071Y-14804214D01*
X15603214Y-14804214D01*
X15631786Y-14818500D01*
X15646071Y-14847071D01*
X15646071Y-14875643D01*
X15503214Y-14904214D01*
X15760357Y-14989929D02*
X15788928Y-15004214D01*
X15846071Y-15004214D01*
X15874643Y-14989929D01*
X15888928Y-14961357D01*
X15888928Y-14947071D01*
X15874643Y-14918500D01*
X15846071Y-14904214D01*
X15803214Y-14904214D01*
X15774643Y-14889929D01*
X15760357Y-14861357D01*
X15760357Y-14847071D01*
X15774643Y-14818500D01*
X15803214Y-14804214D01*
X15846071Y-14804214D01*
X15874643Y-14818500D01*
X16246071Y-14889929D02*
X16474643Y-14889929D01*
X16360357Y-15004214D02*
X16360357Y-14775643D01*
X16974643Y-14704214D02*
X16917500Y-14704214D01*
X16888928Y-14718500D01*
X16874643Y-14732786D01*
X16846071Y-14775643D01*
X16831786Y-14832786D01*
X16831786Y-14947071D01*
X16846071Y-14975643D01*
X16860357Y-14989929D01*
X16888928Y-15004214D01*
X16946071Y-15004214D01*
X16974643Y-14989929D01*
X16988928Y-14975643D01*
X17003214Y-14947071D01*
X17003214Y-14875643D01*
X16988928Y-14847071D01*
X16974643Y-14832786D01*
X16946071Y-14818500D01*
X16888928Y-14818500D01*
X16860357Y-14832786D01*
X16846071Y-14847071D01*
X16831786Y-14875643D01*
X17346071Y-14989929D02*
X17374643Y-15004214D01*
X17431786Y-15004214D01*
X17460357Y-14989929D01*
X17474643Y-14961357D01*
X17474643Y-14947071D01*
X17460357Y-14918500D01*
X17431786Y-14904214D01*
X17388928Y-14904214D01*
X17360357Y-14889929D01*
X17346071Y-14861357D01*
X17346071Y-14847071D01*
X17360357Y-14818500D01*
X17388928Y-14804214D01*
X17431786Y-14804214D01*
X17460357Y-14818500D01*
X17646071Y-15004214D02*
X17617500Y-14989929D01*
X17603214Y-14961357D01*
X17603214Y-14704214D01*
X17803214Y-15004214D02*
X17774643Y-14989929D01*
X17760357Y-14975643D01*
X17746071Y-14947071D01*
X17746071Y-14861357D01*
X17760357Y-14832786D01*
X17774643Y-14818500D01*
X17803214Y-14804214D01*
X17846071Y-14804214D01*
X17874643Y-14818500D01*
X17888928Y-14832786D01*
X17903214Y-14861357D01*
X17903214Y-14947071D01*
X17888928Y-14975643D01*
X17874643Y-14989929D01*
X17846071Y-15004214D01*
X17803214Y-15004214D01*
X17988928Y-14804214D02*
X18103214Y-14804214D01*
X18031786Y-14704214D02*
X18031786Y-14961357D01*
X18046071Y-14989929D01*
X18074643Y-15004214D01*
X18103214Y-15004214D01*
X18188929Y-14989929D02*
X18217500Y-15004214D01*
X18274643Y-15004214D01*
X18303214Y-14989929D01*
X18317500Y-14961357D01*
X18317500Y-14947071D01*
X18303214Y-14918500D01*
X18274643Y-14904214D01*
X18231786Y-14904214D01*
X18203214Y-14889929D01*
X18188929Y-14861357D01*
X18188929Y-14847071D01*
X18203214Y-14818500D01*
X18231786Y-14804214D01*
X18274643Y-14804214D01*
X18303214Y-14818500D01*
X18417500Y-15118500D02*
X18431786Y-15104214D01*
X18460357Y-15061357D01*
X18474643Y-15032786D01*
X18488928Y-14989929D01*
X18503214Y-14918500D01*
X18503214Y-14861357D01*
X18488928Y-14789929D01*
X18474643Y-14747071D01*
X18460357Y-14718500D01*
X18431786Y-14675643D01*
X18417500Y-14661357D01*
X9397500Y-15204500D02*
X9517500Y-15324500D01*
X9517500Y-15204500D02*
X9397500Y-15324500D01*
X9499927Y-15306927D02*
X9499927Y-15222073D01*
X9415073Y-15222073D01*
X9415073Y-15306927D01*
X9499927Y-15306927D01*
X9946071Y-15400214D02*
X9774643Y-15400214D01*
X9860357Y-15400214D02*
X9860357Y-15100214D01*
X9831786Y-15143071D01*
X9803214Y-15171643D01*
X9774643Y-15185929D01*
X10074643Y-15371643D02*
X10088929Y-15385929D01*
X10074643Y-15400214D01*
X10060357Y-15385929D01*
X10074643Y-15371643D01*
X10074643Y-15400214D01*
X10203214Y-15128786D02*
X10217500Y-15114500D01*
X10246071Y-15100214D01*
X10317500Y-15100214D01*
X10346071Y-15114500D01*
X10360357Y-15128786D01*
X10374643Y-15157357D01*
X10374643Y-15185929D01*
X10360357Y-15228786D01*
X10188928Y-15400214D01*
X10374643Y-15400214D01*
X10560357Y-15100214D02*
X10588929Y-15100214D01*
X10617500Y-15114500D01*
X10631786Y-15128786D01*
X10646071Y-15157357D01*
X10660357Y-15214500D01*
X10660357Y-15285929D01*
X10646071Y-15343071D01*
X10631786Y-15371643D01*
X10617500Y-15385929D01*
X10588929Y-15400214D01*
X10560357Y-15400214D01*
X10531786Y-15385929D01*
X10517500Y-15371643D01*
X10503214Y-15343071D01*
X10488929Y-15285929D01*
X10488929Y-15214500D01*
X10503214Y-15157357D01*
X10517500Y-15128786D01*
X10531786Y-15114500D01*
X10560357Y-15100214D01*
X10788929Y-15400214D02*
X10788929Y-15200214D01*
X10788929Y-15228786D02*
X10803214Y-15214500D01*
X10831786Y-15200214D01*
X10874643Y-15200214D01*
X10903214Y-15214500D01*
X10917500Y-15243071D01*
X10917500Y-15400214D01*
X10917500Y-15243071D02*
X10931786Y-15214500D01*
X10960357Y-15200214D01*
X11003214Y-15200214D01*
X11031786Y-15214500D01*
X11046071Y-15243071D01*
X11046071Y-15400214D01*
X11188928Y-15400214D02*
X11188928Y-15200214D01*
X11188928Y-15228786D02*
X11203214Y-15214500D01*
X11231786Y-15200214D01*
X11274643Y-15200214D01*
X11303214Y-15214500D01*
X11317500Y-15243071D01*
X11317500Y-15400214D01*
X11317500Y-15243071D02*
X11331786Y-15214500D01*
X11360357Y-15200214D01*
X11403214Y-15200214D01*
X11431786Y-15214500D01*
X11446071Y-15243071D01*
X11446071Y-15400214D01*
X12031786Y-15085929D02*
X11774643Y-15471643D01*
X12417500Y-15100214D02*
X12446071Y-15100214D01*
X12474643Y-15114500D01*
X12488928Y-15128786D01*
X12503214Y-15157357D01*
X12517500Y-15214500D01*
X12517500Y-15285929D01*
X12503214Y-15343071D01*
X12488928Y-15371643D01*
X12474643Y-15385929D01*
X12446071Y-15400214D01*
X12417500Y-15400214D01*
X12388928Y-15385929D01*
X12374643Y-15371643D01*
X12360357Y-15343071D01*
X12346071Y-15285929D01*
X12346071Y-15214500D01*
X12360357Y-15157357D01*
X12374643Y-15128786D01*
X12388928Y-15114500D01*
X12417500Y-15100214D01*
X12646071Y-15371643D02*
X12660357Y-15385929D01*
X12646071Y-15400214D01*
X12631786Y-15385929D01*
X12646071Y-15371643D01*
X12646071Y-15400214D01*
X12846071Y-15100214D02*
X12874643Y-15100214D01*
X12903214Y-15114500D01*
X12917500Y-15128786D01*
X12931785Y-15157357D01*
X12946071Y-15214500D01*
X12946071Y-15285929D01*
X12931785Y-15343071D01*
X12917500Y-15371643D01*
X12903214Y-15385929D01*
X12874643Y-15400214D01*
X12846071Y-15400214D01*
X12817500Y-15385929D01*
X12803214Y-15371643D01*
X12788928Y-15343071D01*
X12774643Y-15285929D01*
X12774643Y-15214500D01*
X12788928Y-15157357D01*
X12803214Y-15128786D01*
X12817500Y-15114500D01*
X12846071Y-15100214D01*
X13203214Y-15200214D02*
X13203214Y-15400214D01*
X13131785Y-15085929D02*
X13060357Y-15300214D01*
X13246071Y-15300214D01*
X13331785Y-15100214D02*
X13531785Y-15100214D01*
X13403214Y-15400214D01*
X13631786Y-15100214D02*
X13631786Y-15157357D01*
X13746071Y-15100214D02*
X13746071Y-15157357D01*
X14188928Y-15514500D02*
X14174643Y-15500214D01*
X14146071Y-15457357D01*
X14131785Y-15428786D01*
X14117500Y-15385929D01*
X14103214Y-15314500D01*
X14103214Y-15257357D01*
X14117500Y-15185929D01*
X14131785Y-15143071D01*
X14146071Y-15114500D01*
X14174643Y-15071643D01*
X14188928Y-15057357D01*
X14460357Y-15400214D02*
X14288928Y-15400214D01*
X14374643Y-15400214D02*
X14374643Y-15100214D01*
X14346071Y-15143071D01*
X14317500Y-15171643D01*
X14288928Y-15185929D01*
X14574643Y-15128786D02*
X14588928Y-15114500D01*
X14617500Y-15100214D01*
X14688928Y-15100214D01*
X14717500Y-15114500D01*
X14731785Y-15128786D01*
X14746071Y-15157357D01*
X14746071Y-15185929D01*
X14731785Y-15228786D01*
X14560357Y-15400214D01*
X14746071Y-15400214D01*
X15103214Y-15400214D02*
X15103214Y-15100214D01*
X15231785Y-15400214D02*
X15231785Y-15243071D01*
X15217500Y-15214500D01*
X15188928Y-15200214D01*
X15146071Y-15200214D01*
X15117500Y-15214500D01*
X15103214Y-15228786D01*
X15417500Y-15400214D02*
X15388928Y-15385929D01*
X15374643Y-15371643D01*
X15360357Y-15343071D01*
X15360357Y-15257357D01*
X15374643Y-15228786D01*
X15388928Y-15214500D01*
X15417500Y-15200214D01*
X15460357Y-15200214D01*
X15488928Y-15214500D01*
X15503214Y-15228786D01*
X15517500Y-15257357D01*
X15517500Y-15343071D01*
X15503214Y-15371643D01*
X15488928Y-15385929D01*
X15460357Y-15400214D01*
X15417500Y-15400214D01*
X15688928Y-15400214D02*
X15660357Y-15385929D01*
X15646071Y-15357357D01*
X15646071Y-15100214D01*
X15917500Y-15385929D02*
X15888928Y-15400214D01*
X15831786Y-15400214D01*
X15803214Y-15385929D01*
X15788928Y-15357357D01*
X15788928Y-15243071D01*
X15803214Y-15214500D01*
X15831786Y-15200214D01*
X15888928Y-15200214D01*
X15917500Y-15214500D01*
X15931786Y-15243071D01*
X15931786Y-15271643D01*
X15788928Y-15300214D01*
X16046071Y-15385929D02*
X16074643Y-15400214D01*
X16131786Y-15400214D01*
X16160357Y-15385929D01*
X16174643Y-15357357D01*
X16174643Y-15343071D01*
X16160357Y-15314500D01*
X16131786Y-15300214D01*
X16088928Y-15300214D01*
X16060357Y-15285929D01*
X16046071Y-15257357D01*
X16046071Y-15243071D01*
X16060357Y-15214500D01*
X16088928Y-15200214D01*
X16131786Y-15200214D01*
X16160357Y-15214500D01*
X16274643Y-15514500D02*
X16288928Y-15500214D01*
X16317500Y-15457357D01*
X16331786Y-15428786D01*
X16346071Y-15385929D01*
X16360357Y-15314500D01*
X16360357Y-15257357D01*
X16346071Y-15185929D01*
X16331786Y-15143071D01*
X16317500Y-15114500D01*
X16288928Y-15071643D01*
X16274643Y-15057357D01*
X9287376Y-15545438D02*
X9517500Y-15775562D01*
X9517500Y-15545438D02*
X9287376Y-15775562D01*
X9402438Y-15775562D02*
X9517500Y-15660500D01*
X9402438Y-15545438D01*
X9287376Y-15660500D01*
X9402438Y-15775562D01*
X9774643Y-15524786D02*
X9788929Y-15510500D01*
X9817500Y-15496214D01*
X9888929Y-15496214D01*
X9917500Y-15510500D01*
X9931786Y-15524786D01*
X9946071Y-15553357D01*
X9946071Y-15581929D01*
X9931786Y-15624786D01*
X9760357Y-15796214D01*
X9946071Y-15796214D01*
X10074643Y-15767643D02*
X10088929Y-15781929D01*
X10074643Y-15796214D01*
X10060357Y-15781929D01*
X10074643Y-15767643D01*
X10074643Y-15796214D01*
X10188928Y-15496214D02*
X10374643Y-15496214D01*
X10274643Y-15610500D01*
X10317500Y-15610500D01*
X10346071Y-15624786D01*
X10360357Y-15639071D01*
X10374643Y-15667643D01*
X10374643Y-15739071D01*
X10360357Y-15767643D01*
X10346071Y-15781929D01*
X10317500Y-15796214D01*
X10231786Y-15796214D01*
X10203214Y-15781929D01*
X10188928Y-15767643D01*
X10560357Y-15496214D02*
X10588929Y-15496214D01*
X10617500Y-15510500D01*
X10631786Y-15524786D01*
X10646071Y-15553357D01*
X10660357Y-15610500D01*
X10660357Y-15681929D01*
X10646071Y-15739071D01*
X10631786Y-15767643D01*
X10617500Y-15781929D01*
X10588929Y-15796214D01*
X10560357Y-15796214D01*
X10531786Y-15781929D01*
X10517500Y-15767643D01*
X10503214Y-15739071D01*
X10488929Y-15681929D01*
X10488929Y-15610500D01*
X10503214Y-15553357D01*
X10517500Y-15524786D01*
X10531786Y-15510500D01*
X10560357Y-15496214D01*
X10788929Y-15796214D02*
X10788929Y-15596214D01*
X10788929Y-15624786D02*
X10803214Y-15610500D01*
X10831786Y-15596214D01*
X10874643Y-15596214D01*
X10903214Y-15610500D01*
X10917500Y-15639071D01*
X10917500Y-15796214D01*
X10917500Y-15639071D02*
X10931786Y-15610500D01*
X10960357Y-15596214D01*
X11003214Y-15596214D01*
X11031786Y-15610500D01*
X11046071Y-15639071D01*
X11046071Y-15796214D01*
X11188928Y-15796214D02*
X11188928Y-15596214D01*
X11188928Y-15624786D02*
X11203214Y-15610500D01*
X11231786Y-15596214D01*
X11274643Y-15596214D01*
X11303214Y-15610500D01*
X11317500Y-15639071D01*
X11317500Y-15796214D01*
X11317500Y-15639071D02*
X11331786Y-15610500D01*
X11360357Y-15596214D01*
X11403214Y-15596214D01*
X11431786Y-15610500D01*
X11446071Y-15639071D01*
X11446071Y-15796214D01*
X12031786Y-15481929D02*
X11774643Y-15867643D01*
X12417500Y-15496214D02*
X12446071Y-15496214D01*
X12474643Y-15510500D01*
X12488928Y-15524786D01*
X12503214Y-15553357D01*
X12517500Y-15610500D01*
X12517500Y-15681929D01*
X12503214Y-15739071D01*
X12488928Y-15767643D01*
X12474643Y-15781929D01*
X12446071Y-15796214D01*
X12417500Y-15796214D01*
X12388928Y-15781929D01*
X12374643Y-15767643D01*
X12360357Y-15739071D01*
X12346071Y-15681929D01*
X12346071Y-15610500D01*
X12360357Y-15553357D01*
X12374643Y-15524786D01*
X12388928Y-15510500D01*
X12417500Y-15496214D01*
X12646071Y-15767643D02*
X12660357Y-15781929D01*
X12646071Y-15796214D01*
X12631786Y-15781929D01*
X12646071Y-15767643D01*
X12646071Y-15796214D01*
X12846071Y-15496214D02*
X12874643Y-15496214D01*
X12903214Y-15510500D01*
X12917500Y-15524786D01*
X12931785Y-15553357D01*
X12946071Y-15610500D01*
X12946071Y-15681929D01*
X12931785Y-15739071D01*
X12917500Y-15767643D01*
X12903214Y-15781929D01*
X12874643Y-15796214D01*
X12846071Y-15796214D01*
X12817500Y-15781929D01*
X12803214Y-15767643D01*
X12788928Y-15739071D01*
X12774643Y-15681929D01*
X12774643Y-15610500D01*
X12788928Y-15553357D01*
X12803214Y-15524786D01*
X12817500Y-15510500D01*
X12846071Y-15496214D01*
X13088928Y-15796214D02*
X13146071Y-15796214D01*
X13174643Y-15781929D01*
X13188928Y-15767643D01*
X13217500Y-15724786D01*
X13231785Y-15667643D01*
X13231785Y-15553357D01*
X13217500Y-15524786D01*
X13203214Y-15510500D01*
X13174643Y-15496214D01*
X13117500Y-15496214D01*
X13088928Y-15510500D01*
X13074643Y-15524786D01*
X13060357Y-15553357D01*
X13060357Y-15624786D01*
X13074643Y-15653357D01*
X13088928Y-15667643D01*
X13117500Y-15681929D01*
X13174643Y-15681929D01*
X13203214Y-15667643D01*
X13217500Y-15653357D01*
X13231785Y-15624786D01*
X13517500Y-15796214D02*
X13346071Y-15796214D01*
X13431785Y-15796214D02*
X13431785Y-15496214D01*
X13403214Y-15539071D01*
X13374643Y-15567643D01*
X13346071Y-15581929D01*
X13631786Y-15496214D02*
X13631786Y-15553357D01*
X13746071Y-15496214D02*
X13746071Y-15553357D01*
X14188928Y-15910500D02*
X14174643Y-15896214D01*
X14146071Y-15853357D01*
X14131785Y-15824786D01*
X14117500Y-15781929D01*
X14103214Y-15710500D01*
X14103214Y-15653357D01*
X14117500Y-15581929D01*
X14131785Y-15539071D01*
X14146071Y-15510500D01*
X14174643Y-15467643D01*
X14188928Y-15453357D01*
X14288928Y-15524786D02*
X14303214Y-15510500D01*
X14331785Y-15496214D01*
X14403214Y-15496214D01*
X14431785Y-15510500D01*
X14446071Y-15524786D01*
X14460357Y-15553357D01*
X14460357Y-15581929D01*
X14446071Y-15624786D01*
X14274643Y-15796214D01*
X14460357Y-15796214D01*
X14817500Y-15796214D02*
X14817500Y-15496214D01*
X14946071Y-15796214D02*
X14946071Y-15639071D01*
X14931785Y-15610500D01*
X14903214Y-15596214D01*
X14860357Y-15596214D01*
X14831785Y-15610500D01*
X14817500Y-15624786D01*
X15131785Y-15796214D02*
X15103214Y-15781929D01*
X15088928Y-15767643D01*
X15074643Y-15739071D01*
X15074643Y-15653357D01*
X15088928Y-15624786D01*
X15103214Y-15610500D01*
X15131785Y-15596214D01*
X15174643Y-15596214D01*
X15203214Y-15610500D01*
X15217500Y-15624786D01*
X15231785Y-15653357D01*
X15231785Y-15739071D01*
X15217500Y-15767643D01*
X15203214Y-15781929D01*
X15174643Y-15796214D01*
X15131785Y-15796214D01*
X15403214Y-15796214D02*
X15374643Y-15781929D01*
X15360357Y-15753357D01*
X15360357Y-15496214D01*
X15631786Y-15781929D02*
X15603214Y-15796214D01*
X15546071Y-15796214D01*
X15517500Y-15781929D01*
X15503214Y-15753357D01*
X15503214Y-15639071D01*
X15517500Y-15610500D01*
X15546071Y-15596214D01*
X15603214Y-15596214D01*
X15631786Y-15610500D01*
X15646071Y-15639071D01*
X15646071Y-15667643D01*
X15503214Y-15696214D01*
X15760357Y-15781929D02*
X15788928Y-15796214D01*
X15846071Y-15796214D01*
X15874643Y-15781929D01*
X15888928Y-15753357D01*
X15888928Y-15739071D01*
X15874643Y-15710500D01*
X15846071Y-15696214D01*
X15803214Y-15696214D01*
X15774643Y-15681929D01*
X15760357Y-15653357D01*
X15760357Y-15639071D01*
X15774643Y-15610500D01*
X15803214Y-15596214D01*
X15846071Y-15596214D01*
X15874643Y-15610500D01*
X15988928Y-15910500D02*
X16003214Y-15896214D01*
X16031786Y-15853357D01*
X16046071Y-15824786D01*
X16060357Y-15781929D01*
X16074643Y-15710500D01*
X16074643Y-15653357D01*
X16060357Y-15581929D01*
X16046071Y-15539071D01*
X16031786Y-15510500D01*
X16003214Y-15467643D01*
X15988928Y-15453357D01*
M02*
