G04 #@! TF.FileFunction,Legend,Bot*
%FSLAX46Y46*%
G04 Gerber Fmt 4.6, Leading zero omitted, Abs format (unit mm)*
G04 Created by KiCad (PCBNEW 4.0.5) date 02/02/17 00:28:59*
%MOMM*%
%LPD*%
G01*
G04 APERTURE LIST*
%ADD10C,0.100000*%
%ADD11C,0.700000*%
%ADD12C,0.300000*%
%ADD13C,0.200000*%
%ADD14C,0.150000*%
G04 APERTURE END LIST*
D10*
D11*
X136391547Y-66406667D02*
X134010595Y-66406667D01*
X137010595Y-67549524D02*
X134843928Y-63549524D01*
X133677261Y-67549524D01*
X131296309Y-67549524D02*
X131748691Y-67359048D01*
X131939167Y-66978095D01*
X131510595Y-63549524D01*
X127462976Y-67359048D02*
X127962975Y-67549524D01*
X128915356Y-67549524D01*
X129367738Y-67359048D01*
X129558214Y-66978095D01*
X129367738Y-65454286D01*
X129082024Y-65073333D01*
X128582023Y-64882857D01*
X127629642Y-64882857D01*
X127177262Y-65073333D01*
X126986786Y-65454286D01*
X127034405Y-65835238D01*
X129462976Y-66216190D01*
X125105833Y-67549524D02*
X124605833Y-63549524D01*
X124439166Y-66025714D02*
X123201071Y-67549524D01*
X122867738Y-64882857D02*
X124962976Y-66406667D01*
X121272500Y-67359048D02*
X120820119Y-67549524D01*
X119867738Y-67549524D01*
X119367738Y-67359048D01*
X119082024Y-66978095D01*
X119058214Y-66787619D01*
X119248690Y-66406667D01*
X119701072Y-66216190D01*
X120415357Y-66216190D01*
X120867738Y-66025714D01*
X121058214Y-65644762D01*
X121034405Y-65454286D01*
X120748691Y-65073333D01*
X120248690Y-64882857D01*
X119534405Y-64882857D01*
X119082024Y-65073333D01*
X113201071Y-67549524D02*
X112701071Y-63549524D01*
X107915357Y-67168571D02*
X108177262Y-67359048D01*
X108915357Y-67549524D01*
X109391547Y-67549524D01*
X110082024Y-67359048D01*
X110510596Y-66978095D01*
X110701072Y-66597143D01*
X110843929Y-65835238D01*
X110772500Y-65263810D01*
X110439167Y-64501905D01*
X110153453Y-64120952D01*
X109629643Y-63740000D01*
X108891547Y-63549524D01*
X108415357Y-63549524D01*
X107724881Y-63740000D01*
X107510595Y-63930476D01*
D12*
X172799999Y-106037143D02*
X171657142Y-106037143D01*
X172228571Y-106608571D02*
X172228571Y-105465714D01*
X170299999Y-105608571D02*
X170299999Y-106608571D01*
X170657142Y-105037143D02*
X171014285Y-106108571D01*
X170085713Y-106108571D01*
X169514285Y-106465714D02*
X169442857Y-106537143D01*
X169514285Y-106608571D01*
X169585714Y-106537143D01*
X169514285Y-106465714D01*
X169514285Y-106608571D01*
X168014285Y-106608571D02*
X168871428Y-106608571D01*
X168442856Y-106608571D02*
X168442856Y-105108571D01*
X168585713Y-105322857D01*
X168728571Y-105465714D01*
X168871428Y-105537143D01*
X167585714Y-105108571D02*
X167085714Y-106608571D01*
X166585714Y-105108571D01*
D13*
X136860000Y-110330000D02*
X136860000Y-115230000D01*
X139460000Y-110330000D02*
X139460000Y-115230000D01*
X141960000Y-110330000D02*
X141960000Y-115230000D01*
X144460000Y-110330000D02*
X144460000Y-115230000D01*
X146960000Y-110330000D02*
X146960000Y-115230000D01*
X149460000Y-110330000D02*
X149460000Y-115230000D01*
X151860000Y-110330000D02*
X151860000Y-115230000D01*
X154560000Y-110330000D02*
X154560000Y-115230000D01*
X159560000Y-110380000D02*
X159560000Y-115280000D01*
X157010000Y-110380000D02*
X157010000Y-115280000D01*
X166500000Y-102400000D02*
X166150000Y-102600000D01*
X166500000Y-102400000D02*
X166500000Y-102800000D01*
X165850000Y-103500000D02*
X166500000Y-102400000D01*
X166300000Y-106000000D02*
X166150000Y-106150000D01*
X166300000Y-106000000D02*
X166150000Y-105850000D01*
X165800000Y-106000000D02*
X166300000Y-106000000D01*
X166400000Y-109850000D02*
X166000000Y-109600000D01*
X166400000Y-109850000D02*
X166500000Y-109350000D01*
X165900000Y-108600000D02*
X166400000Y-109850000D01*
D12*
X170888571Y-103457143D02*
X169745714Y-103457143D01*
X170317143Y-104028571D02*
X170317143Y-102885714D01*
X168317142Y-102528571D02*
X169031428Y-102528571D01*
X169102857Y-103242857D01*
X169031428Y-103171429D01*
X168888571Y-103100000D01*
X168531428Y-103100000D01*
X168388571Y-103171429D01*
X168317142Y-103242857D01*
X168245714Y-103385714D01*
X168245714Y-103742857D01*
X168317142Y-103885714D01*
X168388571Y-103957143D01*
X168531428Y-104028571D01*
X168888571Y-104028571D01*
X169031428Y-103957143D01*
X169102857Y-103885714D01*
X167817143Y-102528571D02*
X167317143Y-104028571D01*
X166817143Y-102528571D01*
X169782857Y-107790000D02*
X169925714Y-107718571D01*
X170140000Y-107718571D01*
X170354285Y-107790000D01*
X170497143Y-107932857D01*
X170568571Y-108075714D01*
X170640000Y-108361429D01*
X170640000Y-108575714D01*
X170568571Y-108861429D01*
X170497143Y-109004286D01*
X170354285Y-109147143D01*
X170140000Y-109218571D01*
X169997143Y-109218571D01*
X169782857Y-109147143D01*
X169711428Y-109075714D01*
X169711428Y-108575714D01*
X169997143Y-108575714D01*
X169068571Y-109218571D02*
X169068571Y-107718571D01*
X168211428Y-109218571D01*
X168211428Y-107718571D01*
X167497142Y-109218571D02*
X167497142Y-107718571D01*
X167139999Y-107718571D01*
X166925714Y-107790000D01*
X166782856Y-107932857D01*
X166711428Y-108075714D01*
X166639999Y-108361429D01*
X166639999Y-108575714D01*
X166711428Y-108861429D01*
X166782856Y-109004286D01*
X166925714Y-109147143D01*
X167139999Y-109218571D01*
X167497142Y-109218571D01*
X157652857Y-114851428D02*
X157581429Y-114637142D01*
X157581429Y-114279999D01*
X157652857Y-114137142D01*
X157724286Y-114065713D01*
X157867143Y-113994285D01*
X158010000Y-113994285D01*
X158152857Y-114065713D01*
X158224286Y-114137142D01*
X158295714Y-114279999D01*
X158367143Y-114565713D01*
X158438571Y-114708571D01*
X158510000Y-114779999D01*
X158652857Y-114851428D01*
X158795714Y-114851428D01*
X158938571Y-114779999D01*
X159010000Y-114708571D01*
X159081429Y-114565713D01*
X159081429Y-114208571D01*
X159010000Y-113994285D01*
X157581429Y-113351428D02*
X159081429Y-113351428D01*
X159081429Y-112994285D01*
X159010000Y-112780000D01*
X158867143Y-112637142D01*
X158724286Y-112565714D01*
X158438571Y-112494285D01*
X158224286Y-112494285D01*
X157938571Y-112565714D01*
X157795714Y-112637142D01*
X157652857Y-112780000D01*
X157581429Y-112994285D01*
X157581429Y-113351428D01*
X158010000Y-111922857D02*
X158010000Y-111208571D01*
X157581429Y-112065714D02*
X159081429Y-111565714D01*
X157581429Y-111065714D01*
X155152857Y-114815714D02*
X155081429Y-114601428D01*
X155081429Y-114244285D01*
X155152857Y-114101428D01*
X155224286Y-114029999D01*
X155367143Y-113958571D01*
X155510000Y-113958571D01*
X155652857Y-114029999D01*
X155724286Y-114101428D01*
X155795714Y-114244285D01*
X155867143Y-114529999D01*
X155938571Y-114672857D01*
X156010000Y-114744285D01*
X156152857Y-114815714D01*
X156295714Y-114815714D01*
X156438571Y-114744285D01*
X156510000Y-114672857D01*
X156581429Y-114529999D01*
X156581429Y-114172857D01*
X156510000Y-113958571D01*
X155224286Y-112458571D02*
X155152857Y-112530000D01*
X155081429Y-112744286D01*
X155081429Y-112887143D01*
X155152857Y-113101428D01*
X155295714Y-113244286D01*
X155438571Y-113315714D01*
X155724286Y-113387143D01*
X155938571Y-113387143D01*
X156224286Y-113315714D01*
X156367143Y-113244286D01*
X156510000Y-113101428D01*
X156581429Y-112887143D01*
X156581429Y-112744286D01*
X156510000Y-112530000D01*
X156438571Y-112458571D01*
X155081429Y-111101428D02*
X155081429Y-111815714D01*
X156581429Y-111815714D01*
X154031429Y-114272857D02*
X154031429Y-113415714D01*
X152531429Y-113844285D02*
X154031429Y-113844285D01*
X154031429Y-113058571D02*
X152531429Y-112058571D01*
X154031429Y-112058571D02*
X152531429Y-113058571D01*
X149981429Y-113379999D02*
X150695714Y-113879999D01*
X149981429Y-114237142D02*
X151481429Y-114237142D01*
X151481429Y-113665714D01*
X151410000Y-113522856D01*
X151338571Y-113451428D01*
X151195714Y-113379999D01*
X150981429Y-113379999D01*
X150838571Y-113451428D01*
X150767143Y-113522856D01*
X150695714Y-113665714D01*
X150695714Y-114237142D01*
X151481429Y-112879999D02*
X149981429Y-111879999D01*
X151481429Y-111879999D02*
X149981429Y-112879999D01*
X147481429Y-114001428D02*
X148195714Y-114501428D01*
X147481429Y-114858571D02*
X148981429Y-114858571D01*
X148981429Y-114287143D01*
X148910000Y-114144285D01*
X148838571Y-114072857D01*
X148695714Y-114001428D01*
X148481429Y-114001428D01*
X148338571Y-114072857D01*
X148267143Y-114144285D01*
X148195714Y-114287143D01*
X148195714Y-114858571D01*
X147552857Y-113430000D02*
X147481429Y-113215714D01*
X147481429Y-112858571D01*
X147552857Y-112715714D01*
X147624286Y-112644285D01*
X147767143Y-112572857D01*
X147910000Y-112572857D01*
X148052857Y-112644285D01*
X148124286Y-112715714D01*
X148195714Y-112858571D01*
X148267143Y-113144285D01*
X148338571Y-113287143D01*
X148410000Y-113358571D01*
X148552857Y-113430000D01*
X148695714Y-113430000D01*
X148838571Y-113358571D01*
X148910000Y-113287143D01*
X148981429Y-113144285D01*
X148981429Y-112787143D01*
X148910000Y-112572857D01*
X148981429Y-112144286D02*
X148981429Y-111287143D01*
X147481429Y-111715714D02*
X148981429Y-111715714D01*
X145052857Y-114908571D02*
X144981429Y-114694285D01*
X144981429Y-114337142D01*
X145052857Y-114194285D01*
X145124286Y-114122856D01*
X145267143Y-114051428D01*
X145410000Y-114051428D01*
X145552857Y-114122856D01*
X145624286Y-114194285D01*
X145695714Y-114337142D01*
X145767143Y-114622856D01*
X145838571Y-114765714D01*
X145910000Y-114837142D01*
X146052857Y-114908571D01*
X146195714Y-114908571D01*
X146338571Y-114837142D01*
X146410000Y-114765714D01*
X146481429Y-114622856D01*
X146481429Y-114265714D01*
X146410000Y-114051428D01*
X145124286Y-112551428D02*
X145052857Y-112622857D01*
X144981429Y-112837143D01*
X144981429Y-112980000D01*
X145052857Y-113194285D01*
X145195714Y-113337143D01*
X145338571Y-113408571D01*
X145624286Y-113480000D01*
X145838571Y-113480000D01*
X146124286Y-113408571D01*
X146267143Y-113337143D01*
X146410000Y-113194285D01*
X146481429Y-112980000D01*
X146481429Y-112837143D01*
X146410000Y-112622857D01*
X146338571Y-112551428D01*
X144981429Y-111908571D02*
X146481429Y-111908571D01*
X144981429Y-111051428D02*
X145838571Y-111694285D01*
X146481429Y-111051428D02*
X145624286Y-111908571D01*
X142431429Y-114037143D02*
X143931429Y-114037143D01*
X142860000Y-113537143D01*
X143931429Y-113037143D01*
X142431429Y-113037143D01*
X142431429Y-112322857D02*
X143931429Y-112322857D01*
X140031429Y-114315714D02*
X141531429Y-114315714D01*
X140460000Y-113815714D01*
X141531429Y-113315714D01*
X140031429Y-113315714D01*
X141531429Y-112315714D02*
X141531429Y-112030000D01*
X141460000Y-111887142D01*
X141317143Y-111744285D01*
X141031429Y-111672857D01*
X140531429Y-111672857D01*
X140245714Y-111744285D01*
X140102857Y-111887142D01*
X140031429Y-112030000D01*
X140031429Y-112315714D01*
X140102857Y-112458571D01*
X140245714Y-112601428D01*
X140531429Y-112672857D01*
X141031429Y-112672857D01*
X141317143Y-112601428D01*
X141460000Y-112458571D01*
X141531429Y-112315714D01*
X138767143Y-111987143D02*
X138838571Y-112201429D01*
X138838571Y-112558572D01*
X138767143Y-112701429D01*
X138695714Y-112772858D01*
X138552857Y-112844286D01*
X138410000Y-112844286D01*
X138267143Y-112772858D01*
X138195714Y-112701429D01*
X138124286Y-112558572D01*
X138052857Y-112272858D01*
X137981429Y-112130000D01*
X137910000Y-112058572D01*
X137767143Y-111987143D01*
X137624286Y-111987143D01*
X137481429Y-112058572D01*
X137410000Y-112130000D01*
X137338571Y-112272858D01*
X137338571Y-112630000D01*
X137410000Y-112844286D01*
X138767143Y-113415714D02*
X138838571Y-113630000D01*
X138838571Y-113987143D01*
X138767143Y-114130000D01*
X138695714Y-114201429D01*
X138552857Y-114272857D01*
X138410000Y-114272857D01*
X138267143Y-114201429D01*
X138195714Y-114130000D01*
X138124286Y-113987143D01*
X138052857Y-113701429D01*
X137981429Y-113558571D01*
X137910000Y-113487143D01*
X137767143Y-113415714D01*
X137624286Y-113415714D01*
X137481429Y-113487143D01*
X137410000Y-113558571D01*
X137338571Y-113701429D01*
X137338571Y-114058571D01*
X137410000Y-114272857D01*
D14*
X105560000Y-62300000D02*
X105560000Y-59250000D01*
X99840000Y-62300000D02*
X99840000Y-59250000D01*
X99840000Y-62300000D02*
X105560000Y-62300000D01*
X99840000Y-53450000D02*
X99840000Y-49286500D01*
X99840000Y-49286500D02*
X105560000Y-49286500D01*
X105560000Y-53450000D02*
X105560000Y-49286500D01*
X118060000Y-62300000D02*
X118060000Y-59250000D01*
X112340000Y-62300000D02*
X112340000Y-59250000D01*
X112340000Y-62300000D02*
X118060000Y-62300000D01*
X112340000Y-53450000D02*
X112340000Y-49286500D01*
X112340000Y-49286500D02*
X118060000Y-49286500D01*
X118060000Y-53450000D02*
X118060000Y-49286500D01*
X133552000Y-111890180D02*
X132028000Y-111890180D01*
X131647000Y-111763180D02*
X133933000Y-111763180D01*
X134187000Y-111636180D02*
X131393000Y-111636180D01*
X131139000Y-111509180D02*
X134441000Y-111509180D01*
X134568000Y-111382180D02*
X131012000Y-111382180D01*
X136092000Y-112271180D02*
X129488000Y-112271180D01*
X129488000Y-112271180D02*
X129488000Y-106429180D01*
X129488000Y-106429180D02*
X130250000Y-105667180D01*
X130250000Y-105667180D02*
X135330000Y-105667180D01*
X135330000Y-105667180D02*
X136092000Y-106429180D01*
X136092000Y-106429180D02*
X136092000Y-112271180D01*
X132790000Y-106810180D02*
X132790000Y-107572180D01*
X133171000Y-107191180D02*
X132409000Y-107191180D01*
X135838000Y-108969180D02*
G75*
G03X135838000Y-108969180I-3048000J0D01*
G01*
X171865000Y-76300000D02*
X171865000Y-78300000D01*
X174015000Y-78300000D02*
X174015000Y-76300000D01*
X148705000Y-80560000D02*
X148705000Y-81760000D01*
X150455000Y-81760000D02*
X150455000Y-80560000D01*
X150260000Y-55045000D02*
X149060000Y-55045000D01*
X149060000Y-56795000D02*
X150260000Y-56795000D01*
X156235000Y-56580000D02*
X156235000Y-58580000D01*
X158385000Y-58580000D02*
X158385000Y-56580000D01*
X165090000Y-79100000D02*
X165090000Y-78100000D01*
X166790000Y-78100000D02*
X166790000Y-79100000D01*
X169590000Y-81400000D02*
X168590000Y-81400000D01*
X168590000Y-79700000D02*
X169590000Y-79700000D01*
X168840000Y-79000000D02*
G75*
G03X168840000Y-79000000I-100000J0D01*
G01*
X169290000Y-78750000D02*
X168790000Y-78750000D01*
X169290000Y-75850000D02*
X169290000Y-78750000D01*
X168790000Y-75850000D02*
X169290000Y-75850000D01*
X168790000Y-78750000D02*
X168790000Y-75850000D01*
X168240000Y-75175000D02*
X169440000Y-75175000D01*
X169440000Y-73425000D02*
X168240000Y-73425000D01*
X164515000Y-79200000D02*
X164515000Y-78000000D01*
X162765000Y-78000000D02*
X162765000Y-79200000D01*
X153310000Y-81995000D02*
X152110000Y-81995000D01*
X152110000Y-83745000D02*
X153310000Y-83745000D01*
X149410000Y-59480000D02*
X149410000Y-58480000D01*
X151110000Y-58480000D02*
X151110000Y-59480000D01*
X153210000Y-59280000D02*
G75*
G03X153210000Y-59280000I-100000J0D01*
G01*
X153660000Y-59030000D02*
X153160000Y-59030000D01*
X153660000Y-56130000D02*
X153660000Y-59030000D01*
X153160000Y-56130000D02*
X153660000Y-56130000D01*
X153160000Y-59030000D02*
X153160000Y-56130000D01*
X153260000Y-81420000D02*
X152260000Y-81420000D01*
X152260000Y-79720000D02*
X153260000Y-79720000D01*
X153160000Y-77770000D02*
G75*
G03X153160000Y-77770000I-100000J0D01*
G01*
X152810000Y-77220000D02*
X152810000Y-77720000D01*
X149910000Y-77220000D02*
X152810000Y-77220000D01*
X149910000Y-77720000D02*
X149910000Y-77220000D01*
X152810000Y-77720000D02*
X149910000Y-77720000D01*
X148735000Y-59580000D02*
X148735000Y-58380000D01*
X146985000Y-58380000D02*
X146985000Y-59580000D01*
X144500000Y-81925000D02*
X143300000Y-81925000D01*
X143300000Y-83675000D02*
X144500000Y-83675000D01*
X146600000Y-76900000D02*
X146600000Y-77900000D01*
X144900000Y-77900000D02*
X144900000Y-76900000D01*
X139925000Y-80500000D02*
X139925000Y-81700000D01*
X141675000Y-81700000D02*
X141675000Y-80500000D01*
X141550000Y-74575000D02*
X143550000Y-74575000D01*
X143550000Y-72425000D02*
X141550000Y-72425000D01*
X144400000Y-77700000D02*
G75*
G03X144400000Y-77700000I-100000J0D01*
G01*
X144050000Y-77150000D02*
X144050000Y-77650000D01*
X141150000Y-77150000D02*
X144050000Y-77150000D01*
X141150000Y-77650000D02*
X141150000Y-77150000D01*
X144050000Y-77650000D02*
X141150000Y-77650000D01*
X144400000Y-81350000D02*
X143400000Y-81350000D01*
X143400000Y-79650000D02*
X144400000Y-79650000D01*
X153960000Y-61630000D02*
X152960000Y-61630000D01*
X152960000Y-59930000D02*
X153960000Y-59930000D01*
X150360000Y-74645000D02*
X152360000Y-74645000D01*
X152360000Y-72495000D02*
X150360000Y-72495000D01*
X163025000Y-86900000D02*
X163025000Y-88100000D01*
X164775000Y-88100000D02*
X164775000Y-86900000D01*
X103398980Y-87616000D02*
X94762980Y-87616000D01*
X111780980Y-87616000D02*
X106700980Y-87616000D01*
X103398980Y-75424000D02*
X94762980Y-75424000D01*
X111780980Y-75424000D02*
X106700980Y-75424000D01*
X94762980Y-75424000D02*
X94762980Y-87616000D01*
X111780980Y-87616000D02*
X111780980Y-75424000D01*
X161114888Y-83474904D02*
G75*
G02X161130000Y-80450000I-2484888J1524904D01*
G01*
X161130000Y-83450000D02*
X161130000Y-80450000D01*
X161147936Y-81950000D02*
G75*
G03X161147936Y-81950000I-2517936J0D01*
G01*
X127851260Y-105798740D02*
G75*
G03X127851260Y-105798740I-5001260J0D01*
G01*
X122850000Y-111798220D02*
X127851260Y-111798220D01*
X127851260Y-111798220D02*
X128849480Y-110800000D01*
X128849480Y-110800000D02*
X128849480Y-100797480D01*
X128849480Y-100797480D02*
X127851260Y-99799260D01*
X127851260Y-99799260D02*
X117848740Y-99799260D01*
X117848740Y-99799260D02*
X116850520Y-100797480D01*
X116850520Y-100797480D02*
X116850520Y-110800000D01*
X116850520Y-110800000D02*
X117848740Y-111798220D01*
X117848740Y-111798220D02*
X122850000Y-111798220D01*
X161935112Y-80425096D02*
G75*
G02X161920000Y-83450000I2484888J-1524904D01*
G01*
X161920000Y-80450000D02*
X161920000Y-83450000D01*
X166937936Y-81950000D02*
G75*
G03X166937936Y-81950000I-2517936J0D01*
G01*
X142499180Y-102099360D02*
X142499180Y-99600000D01*
X139999820Y-103600500D02*
X139999820Y-100600760D01*
X141498420Y-102101900D02*
X139999820Y-103600500D01*
X139999820Y-100600760D02*
X141498420Y-102101900D01*
X141498420Y-103600500D02*
X141498420Y-100600760D01*
X141498420Y-102101900D02*
X142499180Y-102101900D01*
X139999820Y-102101900D02*
X138999060Y-102101900D01*
X139999820Y-97100640D02*
X138999060Y-97100640D01*
X141498420Y-97100640D02*
X142499180Y-97100640D01*
X142499180Y-97100640D02*
X142499180Y-99600000D01*
X142499180Y-99600000D02*
X142999560Y-99600000D01*
X141498420Y-98599240D02*
X141498420Y-95599500D01*
X139999820Y-95599500D02*
X141498420Y-97100640D01*
X141498420Y-97100640D02*
X139999820Y-98599240D01*
X139999820Y-98599240D02*
X139999820Y-95599500D01*
X137000080Y-95599500D02*
X137000080Y-93600520D01*
X137000080Y-93600520D02*
X145999300Y-93600520D01*
X145999300Y-105599480D02*
X137000080Y-105599480D01*
X137000080Y-105599480D02*
X137000080Y-103600500D01*
X98675096Y-100604888D02*
G75*
G02X101700000Y-100620000I1524904J2484888D01*
G01*
X98700000Y-100620000D02*
X101700000Y-100620000D01*
X102717936Y-98120000D02*
G75*
G03X102717936Y-98120000I-2517936J0D01*
G01*
X93652000Y-112998000D02*
X92890000Y-112998000D01*
X92890000Y-112998000D02*
X92890000Y-104362000D01*
X92890000Y-104362000D02*
X93652000Y-104362000D01*
X96700000Y-112998000D02*
X96700000Y-104362000D01*
X106352000Y-112998000D02*
X106352000Y-104362000D01*
X93652000Y-104362000D02*
X106352000Y-104362000D01*
X93652000Y-112998000D02*
X106352000Y-112998000D01*
X98725096Y-71364888D02*
G75*
G02X101750000Y-71380000I1524904J2484888D01*
G01*
X98750000Y-71380000D02*
X101750000Y-71380000D01*
X102767936Y-68880000D02*
G75*
G03X102767936Y-68880000I-2517936J0D01*
G01*
X155360000Y-76970000D02*
X155360000Y-77970000D01*
X153660000Y-77970000D02*
X153660000Y-76970000D01*
X143800000Y-87350000D02*
X143800000Y-88350000D01*
X142100000Y-88350000D02*
X142100000Y-87350000D01*
X144325000Y-87050000D02*
X144325000Y-88250000D01*
X146075000Y-88250000D02*
X146075000Y-87050000D01*
X107874000Y-93003000D02*
X104699000Y-93003000D01*
X104699000Y-93003000D02*
X104699000Y-91225000D01*
X104699000Y-91225000D02*
X107874000Y-91225000D01*
X107874000Y-97575000D02*
X104699000Y-97575000D01*
X104699000Y-97575000D02*
X104699000Y-95797000D01*
X104699000Y-95797000D02*
X107874000Y-95797000D01*
X113970000Y-90971000D02*
X107874000Y-90971000D01*
X107874000Y-90971000D02*
X107874000Y-97829000D01*
X107874000Y-97829000D02*
X115748000Y-97829000D01*
X115875000Y-97829000D02*
X115875000Y-90971000D01*
X115748000Y-90971000D02*
X113970000Y-90971000D01*
X97400000Y-70747500D02*
X97400000Y-70366500D01*
X97400000Y-71763500D02*
X97400000Y-71382500D01*
X97400000Y-71382500D02*
X97781000Y-70747500D01*
X97781000Y-70747500D02*
X97019000Y-70747500D01*
X97019000Y-70747500D02*
X97400000Y-71382500D01*
X97908000Y-71382500D02*
X96892000Y-71382500D01*
X96500000Y-73065000D02*
X96500000Y-69525000D01*
X98300000Y-73065000D02*
X98300000Y-69525000D01*
X139825000Y-87200000D02*
X139825000Y-88400000D01*
X141575000Y-88400000D02*
X141575000Y-87200000D01*
X155850000Y-95250000D02*
X156850000Y-95250000D01*
X156850000Y-96950000D02*
X155850000Y-96950000D01*
X155650000Y-89450000D02*
X156650000Y-89450000D01*
X156650000Y-91150000D02*
X155650000Y-91150000D01*
X96525000Y-65354000D02*
X96525000Y-66554000D01*
X98275000Y-66554000D02*
X98275000Y-65354000D01*
X158025000Y-93850000D02*
X158025000Y-92650000D01*
X156275000Y-92650000D02*
X156275000Y-93850000D01*
X126840000Y-77575000D02*
X126985000Y-77575000D01*
X126840000Y-81725000D02*
X126985000Y-81725000D01*
X131990000Y-81725000D02*
X131845000Y-81725000D01*
X131990000Y-77575000D02*
X131845000Y-77575000D01*
X126840000Y-77575000D02*
X126840000Y-81725000D01*
X131990000Y-77575000D02*
X131990000Y-81725000D01*
X126985000Y-77575000D02*
X126985000Y-76175000D01*
X153449000Y-94549160D02*
X153449000Y-94500900D01*
X154150040Y-91750180D02*
X153449000Y-91750180D01*
X153449000Y-91750180D02*
X153449000Y-91999100D01*
X153449000Y-94549160D02*
X153449000Y-94749820D01*
X153449000Y-94749820D02*
X154150040Y-94749820D01*
X124150000Y-73300000D02*
X124150000Y-74000000D01*
X125350000Y-74000000D02*
X125350000Y-73300000D01*
X122550000Y-73300000D02*
X122550000Y-74000000D01*
X123750000Y-74000000D02*
X123750000Y-73300000D01*
X130500000Y-91300000D02*
X129500000Y-91300000D01*
X129500000Y-89600000D02*
X130500000Y-89600000D01*
X160575000Y-86950000D02*
X160575000Y-88150000D01*
X162325000Y-88150000D02*
X162325000Y-86950000D01*
X121150000Y-91625000D02*
X119950000Y-91625000D01*
X119950000Y-93375000D02*
X121150000Y-93375000D01*
X150110840Y-69269000D02*
X150159100Y-69269000D01*
X152909820Y-69970040D02*
X152909820Y-69269000D01*
X152909820Y-69269000D02*
X152660900Y-69269000D01*
X150110840Y-69269000D02*
X149910180Y-69269000D01*
X149910180Y-69269000D02*
X149910180Y-69970040D01*
X141300840Y-69199760D02*
X141349100Y-69199760D01*
X144099820Y-69900800D02*
X144099820Y-69199760D01*
X144099820Y-69199760D02*
X143850900Y-69199760D01*
X141300840Y-69199760D02*
X141100180Y-69199760D01*
X141100180Y-69199760D02*
X141100180Y-69900800D01*
X156970840Y-52499000D02*
X157019100Y-52499000D01*
X159769820Y-53200040D02*
X159769820Y-52499000D01*
X159769820Y-52499000D02*
X159520900Y-52499000D01*
X156970840Y-52499000D02*
X156770180Y-52499000D01*
X156770180Y-52499000D02*
X156770180Y-53200040D01*
X177240240Y-75950840D02*
X177240240Y-75999100D01*
X176539200Y-78749820D02*
X177240240Y-78749820D01*
X177240240Y-78749820D02*
X177240240Y-78500900D01*
X177240240Y-75950840D02*
X177240240Y-75750180D01*
X177240240Y-75750180D02*
X176539200Y-75750180D01*
X175700000Y-70500000D02*
X183320000Y-70500000D01*
X183320000Y-70500000D02*
X183320000Y-65420000D01*
X183320000Y-65420000D02*
X173160000Y-65420000D01*
X173160000Y-65420000D02*
X173160000Y-67960000D01*
X174430000Y-70780000D02*
X172880000Y-70780000D01*
X173160000Y-67960000D02*
X175700000Y-67960000D01*
X175700000Y-67960000D02*
X175700000Y-70500000D01*
X172880000Y-70780000D02*
X172880000Y-69230000D01*
X163910000Y-70540000D02*
X171530000Y-70540000D01*
X171530000Y-70540000D02*
X171530000Y-65460000D01*
X171530000Y-65460000D02*
X161370000Y-65460000D01*
X161370000Y-65460000D02*
X161370000Y-68000000D01*
X162640000Y-70820000D02*
X161090000Y-70820000D01*
X161370000Y-68000000D02*
X163910000Y-68000000D01*
X163910000Y-68000000D02*
X163910000Y-70540000D01*
X161090000Y-70820000D02*
X161090000Y-69270000D01*
X179185000Y-103450000D02*
X179185000Y-104650000D01*
X180935000Y-104650000D02*
X180935000Y-103450000D01*
X180925000Y-100690000D02*
X180925000Y-99490000D01*
X179175000Y-99490000D02*
X179175000Y-100690000D01*
X178125000Y-104650000D02*
X178125000Y-103450000D01*
X176375000Y-103450000D02*
X176375000Y-104650000D01*
X173305000Y-90150000D02*
X173305000Y-91350000D01*
X175055000Y-91350000D02*
X175055000Y-90150000D01*
X173305000Y-97370000D02*
X173305000Y-98570000D01*
X175055000Y-98570000D02*
X175055000Y-97370000D01*
X175055000Y-94940000D02*
X175055000Y-93740000D01*
X173305000Y-93740000D02*
X173305000Y-94940000D01*
X127460000Y-93560000D02*
G75*
G03X127460000Y-93560000I-100000J0D01*
G01*
X127110000Y-92910000D02*
X127110000Y-93410000D01*
X124210000Y-92910000D02*
X127110000Y-92910000D01*
X124210000Y-93410000D02*
X124210000Y-92910000D01*
X127110000Y-93410000D02*
X124210000Y-93410000D01*
X182780000Y-81480000D02*
X182780000Y-79930000D01*
X181230000Y-79930000D02*
X182780000Y-79930000D01*
X182500000Y-82750000D02*
X179960000Y-82750000D01*
X177420000Y-80210000D02*
X179960000Y-80210000D01*
X179960000Y-80210000D02*
X179960000Y-82750000D01*
X179960000Y-82750000D02*
X177420000Y-82750000D01*
X177420000Y-82750000D02*
X177420000Y-80210000D01*
X139406000Y-111010000D02*
X159726000Y-111010000D01*
X159726000Y-111010000D02*
X159726000Y-108470000D01*
X159726000Y-108470000D02*
X139406000Y-108470000D01*
X136586000Y-111290000D02*
X138136000Y-111290000D01*
X139406000Y-111010000D02*
X139406000Y-108470000D01*
X138136000Y-108190000D02*
X136586000Y-108190000D01*
X136586000Y-108190000D02*
X136586000Y-111290000D01*
X163230000Y-107230000D02*
X163230000Y-102150000D01*
X163230000Y-102150000D02*
X165770000Y-102150000D01*
X165770000Y-102150000D02*
X165770000Y-107230000D01*
X166050000Y-110050000D02*
X166050000Y-108500000D01*
X165770000Y-107230000D02*
X163230000Y-107230000D01*
X162950000Y-108500000D02*
X162950000Y-110050000D01*
X162950000Y-110050000D02*
X166050000Y-110050000D01*
X174280000Y-104550000D02*
X174280000Y-103550000D01*
X175980000Y-103550000D02*
X175980000Y-104550000D01*
X184256000Y-89896000D02*
X184256000Y-92944000D01*
X184256000Y-92944000D02*
X177144000Y-92944000D01*
X177144000Y-92944000D02*
X177144000Y-89896000D01*
X184256000Y-86848000D02*
X184256000Y-86086000D01*
X184256000Y-86086000D02*
X182732000Y-83800000D01*
X182732000Y-83800000D02*
X178668000Y-83800000D01*
X178668000Y-83800000D02*
X177144000Y-86086000D01*
X177144000Y-86086000D02*
X177144000Y-86848000D01*
X178630000Y-95810000D02*
X178630000Y-94810000D01*
X180330000Y-94810000D02*
X180330000Y-95810000D01*
X181050000Y-95830000D02*
X181050000Y-94830000D01*
X182750000Y-94830000D02*
X182750000Y-95830000D01*
X179130000Y-62540000D02*
X179130000Y-59490000D01*
X173410000Y-62540000D02*
X173410000Y-59490000D01*
X173410000Y-62540000D02*
X179130000Y-62540000D01*
X173410000Y-53690000D02*
X173410000Y-49526500D01*
X173410000Y-49526500D02*
X179130000Y-49526500D01*
X179130000Y-53690000D02*
X179130000Y-49526500D01*
X167200000Y-62580000D02*
X167200000Y-59530000D01*
X161480000Y-62580000D02*
X161480000Y-59530000D01*
X161480000Y-62580000D02*
X167200000Y-62580000D01*
X161480000Y-53730000D02*
X161480000Y-49566500D01*
X161480000Y-49566500D02*
X167200000Y-49566500D01*
X167200000Y-53730000D02*
X167200000Y-49566500D01*
X142760000Y-62350000D02*
X142760000Y-59300000D01*
X137040000Y-62350000D02*
X137040000Y-59300000D01*
X137040000Y-62350000D02*
X142760000Y-62350000D01*
X137040000Y-53500000D02*
X137040000Y-49336500D01*
X137040000Y-49336500D02*
X142760000Y-49336500D01*
X142760000Y-53500000D02*
X142760000Y-49336500D01*
X130410000Y-62300000D02*
X130410000Y-59250000D01*
X124690000Y-62300000D02*
X124690000Y-59250000D01*
X124690000Y-62300000D02*
X130410000Y-62300000D01*
X124690000Y-53450000D02*
X124690000Y-49286500D01*
X124690000Y-49286500D02*
X130410000Y-49286500D01*
X130410000Y-53450000D02*
X130410000Y-49286500D01*
X106515000Y-100020000D02*
X106515000Y-102020000D01*
X109465000Y-102020000D02*
X109465000Y-100020000D01*
D10*
X99280000Y-58290000D02*
X99280000Y-58290000D01*
X101280000Y-58290000D02*
X101280000Y-58290000D01*
X99280000Y-58290000D02*
G75*
G03X101280000Y-58290000I1000000J0D01*
G01*
X101280000Y-58290000D02*
G75*
G03X99280000Y-58290000I-1000000J0D01*
G01*
X99280000Y-54450000D02*
X99280000Y-54450000D01*
X101280000Y-54450000D02*
X101280000Y-54450000D01*
X99280000Y-54450000D02*
G75*
G03X101280000Y-54450000I1000000J0D01*
G01*
X101280000Y-54450000D02*
G75*
G03X99280000Y-54450000I-1000000J0D01*
G01*
X104120000Y-54450000D02*
X104120000Y-54450000D01*
X106120000Y-54450000D02*
X106120000Y-54450000D01*
X104120000Y-54450000D02*
G75*
G03X106120000Y-54450000I1000000J0D01*
G01*
X106120000Y-54450000D02*
G75*
G03X104120000Y-54450000I-1000000J0D01*
G01*
X104120000Y-58290000D02*
X104120000Y-58290000D01*
X106120000Y-58290000D02*
X106120000Y-58290000D01*
X104120000Y-58290000D02*
G75*
G03X106120000Y-58290000I1000000J0D01*
G01*
X106120000Y-58290000D02*
G75*
G03X104120000Y-58290000I-1000000J0D01*
G01*
X111780000Y-58290000D02*
X111780000Y-58290000D01*
X113780000Y-58290000D02*
X113780000Y-58290000D01*
X111780000Y-58290000D02*
G75*
G03X113780000Y-58290000I1000000J0D01*
G01*
X113780000Y-58290000D02*
G75*
G03X111780000Y-58290000I-1000000J0D01*
G01*
X111780000Y-54450000D02*
X111780000Y-54450000D01*
X113780000Y-54450000D02*
X113780000Y-54450000D01*
X111780000Y-54450000D02*
G75*
G03X113780000Y-54450000I1000000J0D01*
G01*
X113780000Y-54450000D02*
G75*
G03X111780000Y-54450000I-1000000J0D01*
G01*
X116620000Y-54450000D02*
X116620000Y-54450000D01*
X118620000Y-54450000D02*
X118620000Y-54450000D01*
X116620000Y-54450000D02*
G75*
G03X118620000Y-54450000I1000000J0D01*
G01*
X118620000Y-54450000D02*
G75*
G03X116620000Y-54450000I-1000000J0D01*
G01*
X116620000Y-58290000D02*
X116620000Y-58290000D01*
X118620000Y-58290000D02*
X118620000Y-58290000D01*
X116620000Y-58290000D02*
G75*
G03X118620000Y-58290000I1000000J0D01*
G01*
X118620000Y-58290000D02*
G75*
G03X116620000Y-58290000I-1000000J0D01*
G01*
X110460980Y-82790000D02*
G75*
G03X110460980Y-82790000I-712000J0D01*
G01*
X110460980Y-80250000D02*
G75*
G03X110460980Y-80250000I-712000J0D01*
G01*
X108462000Y-80250000D02*
G75*
G03X108462000Y-80250000I-712000J0D01*
G01*
X108462000Y-82790000D02*
G75*
G03X108462000Y-82790000I-712000J0D01*
G01*
X106349990Y-87519480D02*
G75*
G03X106349990Y-87519480I-1300010J0D01*
G01*
X106349990Y-75520520D02*
G75*
G03X106349990Y-75520520I-1300010J0D01*
G01*
X158260000Y-81950000D02*
G75*
G03X158260000Y-81950000I-900000J0D01*
G01*
X166590000Y-81950000D02*
G75*
G03X166590000Y-81950000I-900000J0D01*
G01*
X101100000Y-96850000D02*
G75*
G03X101100000Y-96850000I-900000J0D01*
G01*
X103114300Y-108680000D02*
G75*
G03X103114300Y-108680000I-2350300J0D01*
G01*
X105400300Y-103600000D02*
G75*
G03X105400300Y-103600000I-2350300J0D01*
G01*
X101150000Y-67610000D02*
G75*
G03X101150000Y-67610000I-900000J0D01*
G01*
X173616400Y-66690000D02*
X173616400Y-66690000D01*
X175243600Y-66690000D02*
X175243600Y-66690000D01*
X173616400Y-66690000D02*
G75*
G03X175243600Y-66690000I813600J0D01*
G01*
X175243600Y-66690000D02*
G75*
G03X173616400Y-66690000I-813600J0D01*
G01*
X176156400Y-69230000D02*
X176156400Y-69230000D01*
X177783600Y-69230000D02*
X177783600Y-69230000D01*
X176156400Y-69230000D02*
G75*
G03X177783600Y-69230000I813600J0D01*
G01*
X177783600Y-69230000D02*
G75*
G03X176156400Y-69230000I-813600J0D01*
G01*
X176156400Y-66690000D02*
X176156400Y-66690000D01*
X177783600Y-66690000D02*
X177783600Y-66690000D01*
X176156400Y-66690000D02*
G75*
G03X177783600Y-66690000I813600J0D01*
G01*
X177783600Y-66690000D02*
G75*
G03X176156400Y-66690000I-813600J0D01*
G01*
X178696400Y-69230000D02*
X178696400Y-69230000D01*
X180323600Y-69230000D02*
X180323600Y-69230000D01*
X178696400Y-69230000D02*
G75*
G03X180323600Y-69230000I813600J0D01*
G01*
X180323600Y-69230000D02*
G75*
G03X178696400Y-69230000I-813600J0D01*
G01*
X178696400Y-66690000D02*
X178696400Y-66690000D01*
X180323600Y-66690000D02*
X180323600Y-66690000D01*
X178696400Y-66690000D02*
G75*
G03X180323600Y-66690000I813600J0D01*
G01*
X180323600Y-66690000D02*
G75*
G03X178696400Y-66690000I-813600J0D01*
G01*
X181236400Y-69230000D02*
X181236400Y-69230000D01*
X182863600Y-69230000D02*
X182863600Y-69230000D01*
X181236400Y-69230000D02*
G75*
G03X182863600Y-69230000I813600J0D01*
G01*
X182863600Y-69230000D02*
G75*
G03X181236400Y-69230000I-813600J0D01*
G01*
X181236400Y-66690000D02*
X181236400Y-66690000D01*
X182863600Y-66690000D02*
X182863600Y-66690000D01*
X181236400Y-66690000D02*
G75*
G03X182863600Y-66690000I813600J0D01*
G01*
X182863600Y-66690000D02*
G75*
G03X181236400Y-66690000I-813600J0D01*
G01*
X161826400Y-66730000D02*
X161826400Y-66730000D01*
X163453600Y-66730000D02*
X163453600Y-66730000D01*
X161826400Y-66730000D02*
G75*
G03X163453600Y-66730000I813600J0D01*
G01*
X163453600Y-66730000D02*
G75*
G03X161826400Y-66730000I-813600J0D01*
G01*
X164366400Y-69270000D02*
X164366400Y-69270000D01*
X165993600Y-69270000D02*
X165993600Y-69270000D01*
X164366400Y-69270000D02*
G75*
G03X165993600Y-69270000I813600J0D01*
G01*
X165993600Y-69270000D02*
G75*
G03X164366400Y-69270000I-813600J0D01*
G01*
X164366400Y-66730000D02*
X164366400Y-66730000D01*
X165993600Y-66730000D02*
X165993600Y-66730000D01*
X164366400Y-66730000D02*
G75*
G03X165993600Y-66730000I813600J0D01*
G01*
X165993600Y-66730000D02*
G75*
G03X164366400Y-66730000I-813600J0D01*
G01*
X166906400Y-69270000D02*
X166906400Y-69270000D01*
X168533600Y-69270000D02*
X168533600Y-69270000D01*
X166906400Y-69270000D02*
G75*
G03X168533600Y-69270000I813600J0D01*
G01*
X168533600Y-69270000D02*
G75*
G03X166906400Y-69270000I-813600J0D01*
G01*
X166906400Y-66730000D02*
X166906400Y-66730000D01*
X168533600Y-66730000D02*
X168533600Y-66730000D01*
X166906400Y-66730000D02*
G75*
G03X168533600Y-66730000I813600J0D01*
G01*
X168533600Y-66730000D02*
G75*
G03X166906400Y-66730000I-813600J0D01*
G01*
X169446400Y-69270000D02*
X169446400Y-69270000D01*
X171073600Y-69270000D02*
X171073600Y-69270000D01*
X169446400Y-69270000D02*
G75*
G03X171073600Y-69270000I813600J0D01*
G01*
X171073600Y-69270000D02*
G75*
G03X169446400Y-69270000I-813600J0D01*
G01*
X169446400Y-66730000D02*
X169446400Y-66730000D01*
X171073600Y-66730000D02*
X171073600Y-66730000D01*
X169446400Y-66730000D02*
G75*
G03X171073600Y-66730000I813600J0D01*
G01*
X171073600Y-66730000D02*
G75*
G03X169446400Y-66730000I-813600J0D01*
G01*
X179503600Y-81480000D02*
X179503600Y-81480000D01*
X177876400Y-81480000D02*
X177876400Y-81480000D01*
X179503600Y-81480000D02*
G75*
G03X177876400Y-81480000I-813600J0D01*
G01*
X177876400Y-81480000D02*
G75*
G03X179503600Y-81480000I813600J0D01*
G01*
X139862400Y-109587600D02*
X139862400Y-109892400D01*
X141489600Y-109587600D02*
X141489600Y-109892400D01*
X139862400Y-109892400D02*
G75*
G03X141489600Y-109892400I813600J0D01*
G01*
X141489600Y-109587600D02*
G75*
G03X139862400Y-109587600I-813600J0D01*
G01*
X142402400Y-109587600D02*
X142402400Y-109892400D01*
X144029600Y-109587600D02*
X144029600Y-109892400D01*
X142402400Y-109892400D02*
G75*
G03X144029600Y-109892400I813600J0D01*
G01*
X144029600Y-109587600D02*
G75*
G03X142402400Y-109587600I-813600J0D01*
G01*
X144942400Y-109587600D02*
X144942400Y-109892400D01*
X146569600Y-109587600D02*
X146569600Y-109892400D01*
X144942400Y-109892400D02*
G75*
G03X146569600Y-109892400I813600J0D01*
G01*
X146569600Y-109587600D02*
G75*
G03X144942400Y-109587600I-813600J0D01*
G01*
X147482400Y-109587600D02*
X147482400Y-109892400D01*
X149109600Y-109587600D02*
X149109600Y-109892400D01*
X147482400Y-109892400D02*
G75*
G03X149109600Y-109892400I813600J0D01*
G01*
X149109600Y-109587600D02*
G75*
G03X147482400Y-109587600I-813600J0D01*
G01*
X150022400Y-109587600D02*
X150022400Y-109892400D01*
X151649600Y-109587600D02*
X151649600Y-109892400D01*
X150022400Y-109892400D02*
G75*
G03X151649600Y-109892400I813600J0D01*
G01*
X151649600Y-109587600D02*
G75*
G03X150022400Y-109587600I-813600J0D01*
G01*
X152562400Y-109587600D02*
X152562400Y-109892400D01*
X154189600Y-109587600D02*
X154189600Y-109892400D01*
X152562400Y-109892400D02*
G75*
G03X154189600Y-109892400I813600J0D01*
G01*
X154189600Y-109587600D02*
G75*
G03X152562400Y-109587600I-813600J0D01*
G01*
X155102400Y-109587600D02*
X155102400Y-109892400D01*
X156729600Y-109587600D02*
X156729600Y-109892400D01*
X155102400Y-109892400D02*
G75*
G03X156729600Y-109892400I813600J0D01*
G01*
X156729600Y-109587600D02*
G75*
G03X155102400Y-109587600I-813600J0D01*
G01*
X157642400Y-109587600D02*
X157642400Y-109892400D01*
X159269600Y-109587600D02*
X159269600Y-109892400D01*
X157642400Y-109892400D02*
G75*
G03X159269600Y-109892400I813600J0D01*
G01*
X159269600Y-109587600D02*
G75*
G03X157642400Y-109587600I-813600J0D01*
G01*
X164347600Y-106773600D02*
X164652400Y-106773600D01*
X164347600Y-105146400D02*
X164652400Y-105146400D01*
X164652400Y-106773600D02*
G75*
G03X164652400Y-105146400I0J813600D01*
G01*
X164347600Y-105146400D02*
G75*
G03X164347600Y-106773600I0J-813600D01*
G01*
X164347600Y-104233600D02*
X164652400Y-104233600D01*
X164347600Y-102606400D02*
X164652400Y-102606400D01*
X164652400Y-104233600D02*
G75*
G03X164652400Y-102606400I0J813600D01*
G01*
X164347600Y-102606400D02*
G75*
G03X164347600Y-104233600I0J-813600D01*
G01*
X172850000Y-58530000D02*
X172850000Y-58530000D01*
X174850000Y-58530000D02*
X174850000Y-58530000D01*
X172850000Y-58530000D02*
G75*
G03X174850000Y-58530000I1000000J0D01*
G01*
X174850000Y-58530000D02*
G75*
G03X172850000Y-58530000I-1000000J0D01*
G01*
X172850000Y-54690000D02*
X172850000Y-54690000D01*
X174850000Y-54690000D02*
X174850000Y-54690000D01*
X172850000Y-54690000D02*
G75*
G03X174850000Y-54690000I1000000J0D01*
G01*
X174850000Y-54690000D02*
G75*
G03X172850000Y-54690000I-1000000J0D01*
G01*
X177690000Y-54690000D02*
X177690000Y-54690000D01*
X179690000Y-54690000D02*
X179690000Y-54690000D01*
X177690000Y-54690000D02*
G75*
G03X179690000Y-54690000I1000000J0D01*
G01*
X179690000Y-54690000D02*
G75*
G03X177690000Y-54690000I-1000000J0D01*
G01*
X177690000Y-58530000D02*
X177690000Y-58530000D01*
X179690000Y-58530000D02*
X179690000Y-58530000D01*
X177690000Y-58530000D02*
G75*
G03X179690000Y-58530000I1000000J0D01*
G01*
X179690000Y-58530000D02*
G75*
G03X177690000Y-58530000I-1000000J0D01*
G01*
X160920000Y-58570000D02*
X160920000Y-58570000D01*
X162920000Y-58570000D02*
X162920000Y-58570000D01*
X160920000Y-58570000D02*
G75*
G03X162920000Y-58570000I1000000J0D01*
G01*
X162920000Y-58570000D02*
G75*
G03X160920000Y-58570000I-1000000J0D01*
G01*
X160920000Y-54730000D02*
X160920000Y-54730000D01*
X162920000Y-54730000D02*
X162920000Y-54730000D01*
X160920000Y-54730000D02*
G75*
G03X162920000Y-54730000I1000000J0D01*
G01*
X162920000Y-54730000D02*
G75*
G03X160920000Y-54730000I-1000000J0D01*
G01*
X165760000Y-54730000D02*
X165760000Y-54730000D01*
X167760000Y-54730000D02*
X167760000Y-54730000D01*
X165760000Y-54730000D02*
G75*
G03X167760000Y-54730000I1000000J0D01*
G01*
X167760000Y-54730000D02*
G75*
G03X165760000Y-54730000I-1000000J0D01*
G01*
X165760000Y-58570000D02*
X165760000Y-58570000D01*
X167760000Y-58570000D02*
X167760000Y-58570000D01*
X165760000Y-58570000D02*
G75*
G03X167760000Y-58570000I1000000J0D01*
G01*
X167760000Y-58570000D02*
G75*
G03X165760000Y-58570000I-1000000J0D01*
G01*
X136480000Y-58340000D02*
X136480000Y-58340000D01*
X138480000Y-58340000D02*
X138480000Y-58340000D01*
X136480000Y-58340000D02*
G75*
G03X138480000Y-58340000I1000000J0D01*
G01*
X138480000Y-58340000D02*
G75*
G03X136480000Y-58340000I-1000000J0D01*
G01*
X136480000Y-54500000D02*
X136480000Y-54500000D01*
X138480000Y-54500000D02*
X138480000Y-54500000D01*
X136480000Y-54500000D02*
G75*
G03X138480000Y-54500000I1000000J0D01*
G01*
X138480000Y-54500000D02*
G75*
G03X136480000Y-54500000I-1000000J0D01*
G01*
X141320000Y-54500000D02*
X141320000Y-54500000D01*
X143320000Y-54500000D02*
X143320000Y-54500000D01*
X141320000Y-54500000D02*
G75*
G03X143320000Y-54500000I1000000J0D01*
G01*
X143320000Y-54500000D02*
G75*
G03X141320000Y-54500000I-1000000J0D01*
G01*
X141320000Y-58340000D02*
X141320000Y-58340000D01*
X143320000Y-58340000D02*
X143320000Y-58340000D01*
X141320000Y-58340000D02*
G75*
G03X143320000Y-58340000I1000000J0D01*
G01*
X143320000Y-58340000D02*
G75*
G03X141320000Y-58340000I-1000000J0D01*
G01*
X124130000Y-58290000D02*
X124130000Y-58290000D01*
X126130000Y-58290000D02*
X126130000Y-58290000D01*
X124130000Y-58290000D02*
G75*
G03X126130000Y-58290000I1000000J0D01*
G01*
X126130000Y-58290000D02*
G75*
G03X124130000Y-58290000I-1000000J0D01*
G01*
X124130000Y-54450000D02*
X124130000Y-54450000D01*
X126130000Y-54450000D02*
X126130000Y-54450000D01*
X124130000Y-54450000D02*
G75*
G03X126130000Y-54450000I1000000J0D01*
G01*
X126130000Y-54450000D02*
G75*
G03X124130000Y-54450000I-1000000J0D01*
G01*
X128970000Y-54450000D02*
X128970000Y-54450000D01*
X130970000Y-54450000D02*
X130970000Y-54450000D01*
X128970000Y-54450000D02*
G75*
G03X130970000Y-54450000I1000000J0D01*
G01*
X130970000Y-54450000D02*
G75*
G03X128970000Y-54450000I-1000000J0D01*
G01*
X128970000Y-58290000D02*
X128970000Y-58290000D01*
X130970000Y-58290000D02*
X130970000Y-58290000D01*
X128970000Y-58290000D02*
G75*
G03X130970000Y-58290000I1000000J0D01*
G01*
X130970000Y-58290000D02*
G75*
G03X128970000Y-58290000I-1000000J0D01*
G01*
D14*
X108138095Y-49952381D02*
X108138095Y-48952381D01*
X107757142Y-48952381D01*
X107661904Y-49000000D01*
X107614285Y-49047619D01*
X107566666Y-49142857D01*
X107566666Y-49285714D01*
X107614285Y-49380952D01*
X107661904Y-49428571D01*
X107757142Y-49476190D01*
X108138095Y-49476190D01*
X106614285Y-49952381D02*
X107185714Y-49952381D01*
X106900000Y-49952381D02*
X106900000Y-48952381D01*
X106995238Y-49095238D01*
X107090476Y-49190476D01*
X107185714Y-49238095D01*
X120638095Y-49952381D02*
X120638095Y-48952381D01*
X120257142Y-48952381D01*
X120161904Y-49000000D01*
X120114285Y-49047619D01*
X120066666Y-49142857D01*
X120066666Y-49285714D01*
X120114285Y-49380952D01*
X120161904Y-49428571D01*
X120257142Y-49476190D01*
X120638095Y-49476190D01*
X119209523Y-49285714D02*
X119209523Y-49952381D01*
X119447619Y-48904762D02*
X119685714Y-49619048D01*
X119066666Y-49619048D01*
X131722857Y-115147143D02*
X131770476Y-115194762D01*
X131913333Y-115242381D01*
X132008571Y-115242381D01*
X132151429Y-115194762D01*
X132246667Y-115099524D01*
X132294286Y-115004286D01*
X132341905Y-114813810D01*
X132341905Y-114670952D01*
X132294286Y-114480476D01*
X132246667Y-114385238D01*
X132151429Y-114290000D01*
X132008571Y-114242381D01*
X131913333Y-114242381D01*
X131770476Y-114290000D01*
X131722857Y-114337619D01*
X130865714Y-114575714D02*
X130865714Y-115242381D01*
X131103810Y-114194762D02*
X131341905Y-114909048D01*
X130722857Y-114909048D01*
X130437143Y-114242381D02*
X129818095Y-114242381D01*
X130151429Y-114623333D01*
X130008571Y-114623333D01*
X129913333Y-114670952D01*
X129865714Y-114718571D01*
X129818095Y-114813810D01*
X129818095Y-115051905D01*
X129865714Y-115147143D01*
X129913333Y-115194762D01*
X130008571Y-115242381D01*
X130294286Y-115242381D01*
X130389524Y-115194762D01*
X130437143Y-115147143D01*
X173432381Y-80347143D02*
X172956190Y-80013809D01*
X173432381Y-79775714D02*
X172432381Y-79775714D01*
X172432381Y-80156667D01*
X172480000Y-80251905D01*
X172527619Y-80299524D01*
X172622857Y-80347143D01*
X172765714Y-80347143D01*
X172860952Y-80299524D01*
X172908571Y-80251905D01*
X172956190Y-80156667D01*
X172956190Y-79775714D01*
X172527619Y-80728095D02*
X172480000Y-80775714D01*
X172432381Y-80870952D01*
X172432381Y-81109048D01*
X172480000Y-81204286D01*
X172527619Y-81251905D01*
X172622857Y-81299524D01*
X172718095Y-81299524D01*
X172860952Y-81251905D01*
X173432381Y-80680476D01*
X173432381Y-81299524D01*
X172432381Y-81918571D02*
X172432381Y-82013810D01*
X172480000Y-82109048D01*
X172527619Y-82156667D01*
X172622857Y-82204286D01*
X172813333Y-82251905D01*
X173051429Y-82251905D01*
X173241905Y-82204286D01*
X173337143Y-82156667D01*
X173384762Y-82109048D01*
X173432381Y-82013810D01*
X173432381Y-81918571D01*
X173384762Y-81823333D01*
X173337143Y-81775714D01*
X173241905Y-81728095D01*
X173051429Y-81680476D01*
X172813333Y-81680476D01*
X172622857Y-81728095D01*
X172527619Y-81775714D01*
X172480000Y-81823333D01*
X172432381Y-81918571D01*
X149572381Y-83583334D02*
X149096190Y-83250000D01*
X149572381Y-83011905D02*
X148572381Y-83011905D01*
X148572381Y-83392858D01*
X148620000Y-83488096D01*
X148667619Y-83535715D01*
X148762857Y-83583334D01*
X148905714Y-83583334D01*
X149000952Y-83535715D01*
X149048571Y-83488096D01*
X149096190Y-83392858D01*
X149096190Y-83011905D01*
X149572381Y-84535715D02*
X149572381Y-83964286D01*
X149572381Y-84250000D02*
X148572381Y-84250000D01*
X148715238Y-84154762D01*
X148810476Y-84059524D01*
X148858095Y-83964286D01*
X150452857Y-54422381D02*
X150786191Y-53946190D01*
X151024286Y-54422381D02*
X151024286Y-53422381D01*
X150643333Y-53422381D01*
X150548095Y-53470000D01*
X150500476Y-53517619D01*
X150452857Y-53612857D01*
X150452857Y-53755714D01*
X150500476Y-53850952D01*
X150548095Y-53898571D01*
X150643333Y-53946190D01*
X151024286Y-53946190D01*
X149500476Y-54422381D02*
X150071905Y-54422381D01*
X149786191Y-54422381D02*
X149786191Y-53422381D01*
X149881429Y-53565238D01*
X149976667Y-53660476D01*
X150071905Y-53708095D01*
X148881429Y-53422381D02*
X148786190Y-53422381D01*
X148690952Y-53470000D01*
X148643333Y-53517619D01*
X148595714Y-53612857D01*
X148548095Y-53803333D01*
X148548095Y-54041429D01*
X148595714Y-54231905D01*
X148643333Y-54327143D01*
X148690952Y-54374762D01*
X148786190Y-54422381D01*
X148881429Y-54422381D01*
X148976667Y-54374762D01*
X149024286Y-54327143D01*
X149071905Y-54231905D01*
X149119524Y-54041429D01*
X149119524Y-53803333D01*
X149071905Y-53612857D01*
X149024286Y-53517619D01*
X148976667Y-53470000D01*
X148881429Y-53422381D01*
X160062381Y-56937143D02*
X159586190Y-56603809D01*
X160062381Y-56365714D02*
X159062381Y-56365714D01*
X159062381Y-56746667D01*
X159110000Y-56841905D01*
X159157619Y-56889524D01*
X159252857Y-56937143D01*
X159395714Y-56937143D01*
X159490952Y-56889524D01*
X159538571Y-56841905D01*
X159586190Y-56746667D01*
X159586190Y-56365714D01*
X160062381Y-57889524D02*
X160062381Y-57318095D01*
X160062381Y-57603809D02*
X159062381Y-57603809D01*
X159205238Y-57508571D01*
X159300476Y-57413333D01*
X159348095Y-57318095D01*
X159157619Y-58270476D02*
X159110000Y-58318095D01*
X159062381Y-58413333D01*
X159062381Y-58651429D01*
X159110000Y-58746667D01*
X159157619Y-58794286D01*
X159252857Y-58841905D01*
X159348095Y-58841905D01*
X159490952Y-58794286D01*
X160062381Y-58222857D01*
X160062381Y-58841905D01*
X166327143Y-74337143D02*
X166374762Y-74289524D01*
X166422381Y-74146667D01*
X166422381Y-74051429D01*
X166374762Y-73908571D01*
X166279524Y-73813333D01*
X166184286Y-73765714D01*
X165993810Y-73718095D01*
X165850952Y-73718095D01*
X165660476Y-73765714D01*
X165565238Y-73813333D01*
X165470000Y-73908571D01*
X165422381Y-74051429D01*
X165422381Y-74146667D01*
X165470000Y-74289524D01*
X165517619Y-74337143D01*
X166422381Y-75289524D02*
X166422381Y-74718095D01*
X166422381Y-75003809D02*
X165422381Y-75003809D01*
X165565238Y-74908571D01*
X165660476Y-74813333D01*
X165708095Y-74718095D01*
X165422381Y-75622857D02*
X165422381Y-76241905D01*
X165803333Y-75908571D01*
X165803333Y-76051429D01*
X165850952Y-76146667D01*
X165898571Y-76194286D01*
X165993810Y-76241905D01*
X166231905Y-76241905D01*
X166327143Y-76194286D01*
X166374762Y-76146667D01*
X166422381Y-76051429D01*
X166422381Y-75765714D01*
X166374762Y-75670476D01*
X166327143Y-75622857D01*
X170602857Y-82697143D02*
X170650476Y-82744762D01*
X170793333Y-82792381D01*
X170888571Y-82792381D01*
X171031429Y-82744762D01*
X171126667Y-82649524D01*
X171174286Y-82554286D01*
X171221905Y-82363810D01*
X171221905Y-82220952D01*
X171174286Y-82030476D01*
X171126667Y-81935238D01*
X171031429Y-81840000D01*
X170888571Y-81792381D01*
X170793333Y-81792381D01*
X170650476Y-81840000D01*
X170602857Y-81887619D01*
X169650476Y-82792381D02*
X170221905Y-82792381D01*
X169936191Y-82792381D02*
X169936191Y-81792381D01*
X170031429Y-81935238D01*
X170126667Y-82030476D01*
X170221905Y-82078095D01*
X168793333Y-81792381D02*
X168983810Y-81792381D01*
X169079048Y-81840000D01*
X169126667Y-81887619D01*
X169221905Y-82030476D01*
X169269524Y-82220952D01*
X169269524Y-82601905D01*
X169221905Y-82697143D01*
X169174286Y-82744762D01*
X169079048Y-82792381D01*
X168888571Y-82792381D01*
X168793333Y-82744762D01*
X168745714Y-82697143D01*
X168698095Y-82601905D01*
X168698095Y-82363810D01*
X168745714Y-82268571D01*
X168793333Y-82220952D01*
X168888571Y-82173333D01*
X169079048Y-82173333D01*
X169174286Y-82220952D01*
X169221905Y-82268571D01*
X169269524Y-82363810D01*
X172361905Y-73782381D02*
X172361905Y-74591905D01*
X172314286Y-74687143D01*
X172266667Y-74734762D01*
X172171429Y-74782381D01*
X171980952Y-74782381D01*
X171885714Y-74734762D01*
X171838095Y-74687143D01*
X171790476Y-74591905D01*
X171790476Y-73782381D01*
X171409524Y-73782381D02*
X170742857Y-73782381D01*
X171171429Y-74782381D01*
X169502857Y-73012381D02*
X169836191Y-72536190D01*
X170074286Y-73012381D02*
X170074286Y-72012381D01*
X169693333Y-72012381D01*
X169598095Y-72060000D01*
X169550476Y-72107619D01*
X169502857Y-72202857D01*
X169502857Y-72345714D01*
X169550476Y-72440952D01*
X169598095Y-72488571D01*
X169693333Y-72536190D01*
X170074286Y-72536190D01*
X168550476Y-73012381D02*
X169121905Y-73012381D01*
X168836191Y-73012381D02*
X168836191Y-72012381D01*
X168931429Y-72155238D01*
X169026667Y-72250476D01*
X169121905Y-72298095D01*
X168217143Y-72012381D02*
X167550476Y-72012381D01*
X167979048Y-73012381D01*
X162092381Y-77757143D02*
X161616190Y-77423809D01*
X162092381Y-77185714D02*
X161092381Y-77185714D01*
X161092381Y-77566667D01*
X161140000Y-77661905D01*
X161187619Y-77709524D01*
X161282857Y-77757143D01*
X161425714Y-77757143D01*
X161520952Y-77709524D01*
X161568571Y-77661905D01*
X161616190Y-77566667D01*
X161616190Y-77185714D01*
X162092381Y-78709524D02*
X162092381Y-78138095D01*
X162092381Y-78423809D02*
X161092381Y-78423809D01*
X161235238Y-78328571D01*
X161330476Y-78233333D01*
X161378095Y-78138095D01*
X161425714Y-79566667D02*
X162092381Y-79566667D01*
X161044762Y-79328571D02*
X161759048Y-79090476D01*
X161759048Y-79709524D01*
X151446666Y-85212381D02*
X151780000Y-84736190D01*
X152018095Y-85212381D02*
X152018095Y-84212381D01*
X151637142Y-84212381D01*
X151541904Y-84260000D01*
X151494285Y-84307619D01*
X151446666Y-84402857D01*
X151446666Y-84545714D01*
X151494285Y-84640952D01*
X151541904Y-84688571D01*
X151637142Y-84736190D01*
X152018095Y-84736190D01*
X151113333Y-84212381D02*
X150494285Y-84212381D01*
X150827619Y-84593333D01*
X150684761Y-84593333D01*
X150589523Y-84640952D01*
X150541904Y-84688571D01*
X150494285Y-84783810D01*
X150494285Y-85021905D01*
X150541904Y-85117143D01*
X150589523Y-85164762D01*
X150684761Y-85212381D01*
X150970476Y-85212381D01*
X151065714Y-85164762D01*
X151113333Y-85117143D01*
X150627143Y-61923334D02*
X150674762Y-61875715D01*
X150722381Y-61732858D01*
X150722381Y-61637620D01*
X150674762Y-61494762D01*
X150579524Y-61399524D01*
X150484286Y-61351905D01*
X150293810Y-61304286D01*
X150150952Y-61304286D01*
X149960476Y-61351905D01*
X149865238Y-61399524D01*
X149770000Y-61494762D01*
X149722381Y-61637620D01*
X149722381Y-61732858D01*
X149770000Y-61875715D01*
X149817619Y-61923334D01*
X149722381Y-62256667D02*
X149722381Y-62875715D01*
X150103333Y-62542381D01*
X150103333Y-62685239D01*
X150150952Y-62780477D01*
X150198571Y-62828096D01*
X150293810Y-62875715D01*
X150531905Y-62875715D01*
X150627143Y-62828096D01*
X150674762Y-62780477D01*
X150722381Y-62685239D01*
X150722381Y-62399524D01*
X150674762Y-62304286D01*
X150627143Y-62256667D01*
X154791905Y-54382381D02*
X154791905Y-55191905D01*
X154744286Y-55287143D01*
X154696667Y-55334762D01*
X154601429Y-55382381D01*
X154410952Y-55382381D01*
X154315714Y-55334762D01*
X154268095Y-55287143D01*
X154220476Y-55191905D01*
X154220476Y-54382381D01*
X153315714Y-54382381D02*
X153506191Y-54382381D01*
X153601429Y-54430000D01*
X153649048Y-54477619D01*
X153744286Y-54620476D01*
X153791905Y-54810952D01*
X153791905Y-55191905D01*
X153744286Y-55287143D01*
X153696667Y-55334762D01*
X153601429Y-55382381D01*
X153410952Y-55382381D01*
X153315714Y-55334762D01*
X153268095Y-55287143D01*
X153220476Y-55191905D01*
X153220476Y-54953810D01*
X153268095Y-54858571D01*
X153315714Y-54810952D01*
X153410952Y-54763333D01*
X153601429Y-54763333D01*
X153696667Y-54810952D01*
X153744286Y-54858571D01*
X153791905Y-54953810D01*
X155746666Y-79807143D02*
X155794285Y-79854762D01*
X155937142Y-79902381D01*
X156032380Y-79902381D01*
X156175238Y-79854762D01*
X156270476Y-79759524D01*
X156318095Y-79664286D01*
X156365714Y-79473810D01*
X156365714Y-79330952D01*
X156318095Y-79140476D01*
X156270476Y-79045238D01*
X156175238Y-78950000D01*
X156032380Y-78902381D01*
X155937142Y-78902381D01*
X155794285Y-78950000D01*
X155746666Y-78997619D01*
X154889523Y-79235714D02*
X154889523Y-79902381D01*
X155127619Y-78854762D02*
X155365714Y-79569048D01*
X154746666Y-79569048D01*
X148522381Y-76718095D02*
X149331905Y-76718095D01*
X149427143Y-76765714D01*
X149474762Y-76813333D01*
X149522381Y-76908571D01*
X149522381Y-77099048D01*
X149474762Y-77194286D01*
X149427143Y-77241905D01*
X149331905Y-77289524D01*
X148522381Y-77289524D01*
X148617619Y-77718095D02*
X148570000Y-77765714D01*
X148522381Y-77860952D01*
X148522381Y-78099048D01*
X148570000Y-78194286D01*
X148617619Y-78241905D01*
X148712857Y-78289524D01*
X148808095Y-78289524D01*
X148950952Y-78241905D01*
X149522381Y-77670476D01*
X149522381Y-78289524D01*
X146422381Y-58833334D02*
X145946190Y-58500000D01*
X146422381Y-58261905D02*
X145422381Y-58261905D01*
X145422381Y-58642858D01*
X145470000Y-58738096D01*
X145517619Y-58785715D01*
X145612857Y-58833334D01*
X145755714Y-58833334D01*
X145850952Y-58785715D01*
X145898571Y-58738096D01*
X145946190Y-58642858D01*
X145946190Y-58261905D01*
X145850952Y-59404762D02*
X145803333Y-59309524D01*
X145755714Y-59261905D01*
X145660476Y-59214286D01*
X145612857Y-59214286D01*
X145517619Y-59261905D01*
X145470000Y-59309524D01*
X145422381Y-59404762D01*
X145422381Y-59595239D01*
X145470000Y-59690477D01*
X145517619Y-59738096D01*
X145612857Y-59785715D01*
X145660476Y-59785715D01*
X145755714Y-59738096D01*
X145803333Y-59690477D01*
X145850952Y-59595239D01*
X145850952Y-59404762D01*
X145898571Y-59309524D01*
X145946190Y-59261905D01*
X146041429Y-59214286D01*
X146231905Y-59214286D01*
X146327143Y-59261905D01*
X146374762Y-59309524D01*
X146422381Y-59404762D01*
X146422381Y-59595239D01*
X146374762Y-59690477D01*
X146327143Y-59738096D01*
X146231905Y-59785715D01*
X146041429Y-59785715D01*
X145946190Y-59738096D01*
X145898571Y-59690477D01*
X145850952Y-59595239D01*
X146886666Y-84502381D02*
X147220000Y-84026190D01*
X147458095Y-84502381D02*
X147458095Y-83502381D01*
X147077142Y-83502381D01*
X146981904Y-83550000D01*
X146934285Y-83597619D01*
X146886666Y-83692857D01*
X146886666Y-83835714D01*
X146934285Y-83930952D01*
X146981904Y-83978571D01*
X147077142Y-84026190D01*
X147458095Y-84026190D01*
X146553333Y-83502381D02*
X145886666Y-83502381D01*
X146315238Y-84502381D01*
X147877143Y-76697143D02*
X147924762Y-76649524D01*
X147972381Y-76506667D01*
X147972381Y-76411429D01*
X147924762Y-76268571D01*
X147829524Y-76173333D01*
X147734286Y-76125714D01*
X147543810Y-76078095D01*
X147400952Y-76078095D01*
X147210476Y-76125714D01*
X147115238Y-76173333D01*
X147020000Y-76268571D01*
X146972381Y-76411429D01*
X146972381Y-76506667D01*
X147020000Y-76649524D01*
X147067619Y-76697143D01*
X147972381Y-77649524D02*
X147972381Y-77078095D01*
X147972381Y-77363809D02*
X146972381Y-77363809D01*
X147115238Y-77268571D01*
X147210476Y-77173333D01*
X147258095Y-77078095D01*
X146972381Y-78268571D02*
X146972381Y-78363810D01*
X147020000Y-78459048D01*
X147067619Y-78506667D01*
X147162857Y-78554286D01*
X147353333Y-78601905D01*
X147591429Y-78601905D01*
X147781905Y-78554286D01*
X147877143Y-78506667D01*
X147924762Y-78459048D01*
X147972381Y-78363810D01*
X147972381Y-78268571D01*
X147924762Y-78173333D01*
X147877143Y-78125714D01*
X147781905Y-78078095D01*
X147591429Y-78030476D01*
X147353333Y-78030476D01*
X147162857Y-78078095D01*
X147067619Y-78125714D01*
X147020000Y-78173333D01*
X146972381Y-78268571D01*
X139482381Y-80933334D02*
X139006190Y-80600000D01*
X139482381Y-80361905D02*
X138482381Y-80361905D01*
X138482381Y-80742858D01*
X138530000Y-80838096D01*
X138577619Y-80885715D01*
X138672857Y-80933334D01*
X138815714Y-80933334D01*
X138910952Y-80885715D01*
X138958571Y-80838096D01*
X139006190Y-80742858D01*
X139006190Y-80361905D01*
X139482381Y-81409524D02*
X139482381Y-81600000D01*
X139434762Y-81695239D01*
X139387143Y-81742858D01*
X139244286Y-81838096D01*
X139053810Y-81885715D01*
X138672857Y-81885715D01*
X138577619Y-81838096D01*
X138530000Y-81790477D01*
X138482381Y-81695239D01*
X138482381Y-81504762D01*
X138530000Y-81409524D01*
X138577619Y-81361905D01*
X138672857Y-81314286D01*
X138910952Y-81314286D01*
X139006190Y-81361905D01*
X139053810Y-81409524D01*
X139101429Y-81504762D01*
X139101429Y-81695239D01*
X139053810Y-81790477D01*
X139006190Y-81838096D01*
X138910952Y-81885715D01*
X139172857Y-73922381D02*
X139506191Y-73446190D01*
X139744286Y-73922381D02*
X139744286Y-72922381D01*
X139363333Y-72922381D01*
X139268095Y-72970000D01*
X139220476Y-73017619D01*
X139172857Y-73112857D01*
X139172857Y-73255714D01*
X139220476Y-73350952D01*
X139268095Y-73398571D01*
X139363333Y-73446190D01*
X139744286Y-73446190D01*
X138220476Y-73922381D02*
X138791905Y-73922381D01*
X138506191Y-73922381D02*
X138506191Y-72922381D01*
X138601429Y-73065238D01*
X138696667Y-73160476D01*
X138791905Y-73208095D01*
X137268095Y-73922381D02*
X137839524Y-73922381D01*
X137553810Y-73922381D02*
X137553810Y-72922381D01*
X137649048Y-73065238D01*
X137744286Y-73160476D01*
X137839524Y-73208095D01*
X139742381Y-76498095D02*
X140551905Y-76498095D01*
X140647143Y-76545714D01*
X140694762Y-76593333D01*
X140742381Y-76688571D01*
X140742381Y-76879048D01*
X140694762Y-76974286D01*
X140647143Y-77021905D01*
X140551905Y-77069524D01*
X139742381Y-77069524D01*
X140075714Y-77974286D02*
X140742381Y-77974286D01*
X139694762Y-77736190D02*
X140409048Y-77498095D01*
X140409048Y-78117143D01*
X147026666Y-80837143D02*
X147074285Y-80884762D01*
X147217142Y-80932381D01*
X147312380Y-80932381D01*
X147455238Y-80884762D01*
X147550476Y-80789524D01*
X147598095Y-80694286D01*
X147645714Y-80503810D01*
X147645714Y-80360952D01*
X147598095Y-80170476D01*
X147550476Y-80075238D01*
X147455238Y-79980000D01*
X147312380Y-79932381D01*
X147217142Y-79932381D01*
X147074285Y-79980000D01*
X147026666Y-80027619D01*
X146645714Y-80027619D02*
X146598095Y-79980000D01*
X146502857Y-79932381D01*
X146264761Y-79932381D01*
X146169523Y-79980000D01*
X146121904Y-80027619D01*
X146074285Y-80122857D01*
X146074285Y-80218095D01*
X146121904Y-80360952D01*
X146693333Y-80932381D01*
X146074285Y-80932381D01*
X154002857Y-62987143D02*
X154050476Y-63034762D01*
X154193333Y-63082381D01*
X154288571Y-63082381D01*
X154431429Y-63034762D01*
X154526667Y-62939524D01*
X154574286Y-62844286D01*
X154621905Y-62653810D01*
X154621905Y-62510952D01*
X154574286Y-62320476D01*
X154526667Y-62225238D01*
X154431429Y-62130000D01*
X154288571Y-62082381D01*
X154193333Y-62082381D01*
X154050476Y-62130000D01*
X154002857Y-62177619D01*
X153050476Y-63082381D02*
X153621905Y-63082381D01*
X153336191Y-63082381D02*
X153336191Y-62082381D01*
X153431429Y-62225238D01*
X153526667Y-62320476D01*
X153621905Y-62368095D01*
X152098095Y-63082381D02*
X152669524Y-63082381D01*
X152383810Y-63082381D02*
X152383810Y-62082381D01*
X152479048Y-62225238D01*
X152574286Y-62320476D01*
X152669524Y-62368095D01*
X148296666Y-74032381D02*
X148630000Y-73556190D01*
X148868095Y-74032381D02*
X148868095Y-73032381D01*
X148487142Y-73032381D01*
X148391904Y-73080000D01*
X148344285Y-73127619D01*
X148296666Y-73222857D01*
X148296666Y-73365714D01*
X148344285Y-73460952D01*
X148391904Y-73508571D01*
X148487142Y-73556190D01*
X148868095Y-73556190D01*
X147915714Y-73127619D02*
X147868095Y-73080000D01*
X147772857Y-73032381D01*
X147534761Y-73032381D01*
X147439523Y-73080000D01*
X147391904Y-73127619D01*
X147344285Y-73222857D01*
X147344285Y-73318095D01*
X147391904Y-73460952D01*
X147963333Y-74032381D01*
X147344285Y-74032381D01*
X166462381Y-86877143D02*
X165986190Y-86543809D01*
X166462381Y-86305714D02*
X165462381Y-86305714D01*
X165462381Y-86686667D01*
X165510000Y-86781905D01*
X165557619Y-86829524D01*
X165652857Y-86877143D01*
X165795714Y-86877143D01*
X165890952Y-86829524D01*
X165938571Y-86781905D01*
X165986190Y-86686667D01*
X165986190Y-86305714D01*
X165462381Y-87210476D02*
X165462381Y-87829524D01*
X165843333Y-87496190D01*
X165843333Y-87639048D01*
X165890952Y-87734286D01*
X165938571Y-87781905D01*
X166033810Y-87829524D01*
X166271905Y-87829524D01*
X166367143Y-87781905D01*
X166414762Y-87734286D01*
X166462381Y-87639048D01*
X166462381Y-87353333D01*
X166414762Y-87258095D01*
X166367143Y-87210476D01*
X165557619Y-88210476D02*
X165510000Y-88258095D01*
X165462381Y-88353333D01*
X165462381Y-88591429D01*
X165510000Y-88686667D01*
X165557619Y-88734286D01*
X165652857Y-88781905D01*
X165748095Y-88781905D01*
X165890952Y-88734286D01*
X166462381Y-88162857D01*
X166462381Y-88781905D01*
X113652381Y-80585714D02*
X112652381Y-80585714D01*
X112652381Y-80966667D01*
X112700000Y-81061905D01*
X112747619Y-81109524D01*
X112842857Y-81157143D01*
X112985714Y-81157143D01*
X113080952Y-81109524D01*
X113128571Y-81061905D01*
X113176190Y-80966667D01*
X113176190Y-80585714D01*
X113652381Y-82109524D02*
X113652381Y-81538095D01*
X113652381Y-81823809D02*
X112652381Y-81823809D01*
X112795238Y-81728571D01*
X112890476Y-81633333D01*
X112938095Y-81538095D01*
X112652381Y-82728571D02*
X112652381Y-82823810D01*
X112700000Y-82919048D01*
X112747619Y-82966667D01*
X112842857Y-83014286D01*
X113033333Y-83061905D01*
X113271429Y-83061905D01*
X113461905Y-83014286D01*
X113557143Y-82966667D01*
X113604762Y-82919048D01*
X113652381Y-82823810D01*
X113652381Y-82728571D01*
X113604762Y-82633333D01*
X113557143Y-82585714D01*
X113461905Y-82538095D01*
X113271429Y-82490476D01*
X113033333Y-82490476D01*
X112842857Y-82538095D01*
X112747619Y-82585714D01*
X112700000Y-82633333D01*
X112652381Y-82728571D01*
X156188095Y-85652381D02*
X156188095Y-84652381D01*
X155950000Y-84652381D01*
X155807142Y-84700000D01*
X155711904Y-84795238D01*
X155664285Y-84890476D01*
X155616666Y-85080952D01*
X155616666Y-85223810D01*
X155664285Y-85414286D01*
X155711904Y-85509524D01*
X155807142Y-85604762D01*
X155950000Y-85652381D01*
X156188095Y-85652381D01*
X155045238Y-85080952D02*
X155140476Y-85033333D01*
X155188095Y-84985714D01*
X155235714Y-84890476D01*
X155235714Y-84842857D01*
X155188095Y-84747619D01*
X155140476Y-84700000D01*
X155045238Y-84652381D01*
X154854761Y-84652381D01*
X154759523Y-84700000D01*
X154711904Y-84747619D01*
X154664285Y-84842857D01*
X154664285Y-84890476D01*
X154711904Y-84985714D01*
X154759523Y-85033333D01*
X154854761Y-85080952D01*
X155045238Y-85080952D01*
X155140476Y-85128571D01*
X155188095Y-85176190D01*
X155235714Y-85271429D01*
X155235714Y-85461905D01*
X155188095Y-85557143D01*
X155140476Y-85604762D01*
X155045238Y-85652381D01*
X154854761Y-85652381D01*
X154759523Y-85604762D01*
X154711904Y-85557143D01*
X154664285Y-85461905D01*
X154664285Y-85271429D01*
X154711904Y-85176190D01*
X154759523Y-85128571D01*
X154854761Y-85080952D01*
X130186666Y-103582381D02*
X130662857Y-103582381D01*
X130662857Y-102582381D01*
X129948571Y-102582381D02*
X129329523Y-102582381D01*
X129662857Y-102963333D01*
X129519999Y-102963333D01*
X129424761Y-103010952D01*
X129377142Y-103058571D01*
X129329523Y-103153810D01*
X129329523Y-103391905D01*
X129377142Y-103487143D01*
X129424761Y-103534762D01*
X129519999Y-103582381D01*
X129805714Y-103582381D01*
X129900952Y-103534762D01*
X129948571Y-103487143D01*
X169274286Y-85402381D02*
X169274286Y-84402381D01*
X169036191Y-84402381D01*
X168893333Y-84450000D01*
X168798095Y-84545238D01*
X168750476Y-84640476D01*
X168702857Y-84830952D01*
X168702857Y-84973810D01*
X168750476Y-85164286D01*
X168798095Y-85259524D01*
X168893333Y-85354762D01*
X169036191Y-85402381D01*
X169274286Y-85402381D01*
X167750476Y-85402381D02*
X168321905Y-85402381D01*
X168036191Y-85402381D02*
X168036191Y-84402381D01*
X168131429Y-84545238D01*
X168226667Y-84640476D01*
X168321905Y-84688095D01*
X167369524Y-84497619D02*
X167321905Y-84450000D01*
X167226667Y-84402381D01*
X166988571Y-84402381D01*
X166893333Y-84450000D01*
X166845714Y-84497619D01*
X166798095Y-84592857D01*
X166798095Y-84688095D01*
X166845714Y-84830952D01*
X167417143Y-85402381D01*
X166798095Y-85402381D01*
X148900241Y-98586374D02*
X147900241Y-98586374D01*
X147900241Y-98824469D01*
X147947860Y-98967327D01*
X148043098Y-99062565D01*
X148138336Y-99110184D01*
X148328812Y-99157803D01*
X148471670Y-99157803D01*
X148662146Y-99110184D01*
X148757384Y-99062565D01*
X148852622Y-98967327D01*
X148900241Y-98824469D01*
X148900241Y-98586374D01*
X148900241Y-100110184D02*
X148900241Y-99538755D01*
X148900241Y-99824469D02*
X147900241Y-99824469D01*
X148043098Y-99729231D01*
X148138336Y-99633993D01*
X148185955Y-99538755D01*
X148900241Y-101062565D02*
X148900241Y-100491136D01*
X148900241Y-100776850D02*
X147900241Y-100776850D01*
X148043098Y-100681612D01*
X148138336Y-100586374D01*
X148185955Y-100491136D01*
X98552381Y-93761905D02*
X97552381Y-93761905D01*
X97552381Y-94000000D01*
X97600000Y-94142858D01*
X97695238Y-94238096D01*
X97790476Y-94285715D01*
X97980952Y-94333334D01*
X98123810Y-94333334D01*
X98314286Y-94285715D01*
X98409524Y-94238096D01*
X98504762Y-94142858D01*
X98552381Y-94000000D01*
X98552381Y-93761905D01*
X98552381Y-94809524D02*
X98552381Y-95000000D01*
X98504762Y-95095239D01*
X98457143Y-95142858D01*
X98314286Y-95238096D01*
X98123810Y-95285715D01*
X97742857Y-95285715D01*
X97647619Y-95238096D01*
X97600000Y-95190477D01*
X97552381Y-95095239D01*
X97552381Y-94904762D01*
X97600000Y-94809524D01*
X97647619Y-94761905D01*
X97742857Y-94714286D01*
X97980952Y-94714286D01*
X98076190Y-94761905D01*
X98123810Y-94809524D01*
X98171429Y-94904762D01*
X98171429Y-95095239D01*
X98123810Y-95190477D01*
X98076190Y-95238096D01*
X97980952Y-95285715D01*
X102232285Y-114625143D02*
X102279904Y-114672762D01*
X102422761Y-114720381D01*
X102517999Y-114720381D01*
X102660857Y-114672762D01*
X102756095Y-114577524D01*
X102803714Y-114482286D01*
X102851333Y-114291810D01*
X102851333Y-114148952D01*
X102803714Y-113958476D01*
X102756095Y-113863238D01*
X102660857Y-113768000D01*
X102517999Y-113720381D01*
X102422761Y-113720381D01*
X102279904Y-113768000D01*
X102232285Y-113815619D01*
X101613238Y-113720381D02*
X101422761Y-113720381D01*
X101327523Y-113768000D01*
X101232285Y-113863238D01*
X101184666Y-114053714D01*
X101184666Y-114387048D01*
X101232285Y-114577524D01*
X101327523Y-114672762D01*
X101422761Y-114720381D01*
X101613238Y-114720381D01*
X101708476Y-114672762D01*
X101803714Y-114577524D01*
X101851333Y-114387048D01*
X101851333Y-114053714D01*
X101803714Y-113863238D01*
X101708476Y-113768000D01*
X101613238Y-113720381D01*
X100756095Y-114720381D02*
X100756095Y-113720381D01*
X100184666Y-114720381D01*
X100184666Y-113720381D01*
X99756095Y-113815619D02*
X99708476Y-113768000D01*
X99613238Y-113720381D01*
X99375142Y-113720381D01*
X99279904Y-113768000D01*
X99232285Y-113815619D01*
X99184666Y-113910857D01*
X99184666Y-114006095D01*
X99232285Y-114148952D01*
X99803714Y-114720381D01*
X99184666Y-114720381D01*
X104962381Y-68541905D02*
X103962381Y-68541905D01*
X103962381Y-68780000D01*
X104010000Y-68922858D01*
X104105238Y-69018096D01*
X104200476Y-69065715D01*
X104390952Y-69113334D01*
X104533810Y-69113334D01*
X104724286Y-69065715D01*
X104819524Y-69018096D01*
X104914762Y-68922858D01*
X104962381Y-68780000D01*
X104962381Y-68541905D01*
X104962381Y-70065715D02*
X104962381Y-69494286D01*
X104962381Y-69780000D02*
X103962381Y-69780000D01*
X104105238Y-69684762D01*
X104200476Y-69589524D01*
X104248095Y-69494286D01*
X102642381Y-71908095D02*
X101642381Y-71908095D01*
X102642381Y-72479524D02*
X102070952Y-72050952D01*
X101642381Y-72479524D02*
X102213810Y-71908095D01*
X156617143Y-77403334D02*
X156664762Y-77355715D01*
X156712381Y-77212858D01*
X156712381Y-77117620D01*
X156664762Y-76974762D01*
X156569524Y-76879524D01*
X156474286Y-76831905D01*
X156283810Y-76784286D01*
X156140952Y-76784286D01*
X155950476Y-76831905D01*
X155855238Y-76879524D01*
X155760000Y-76974762D01*
X155712381Y-77117620D01*
X155712381Y-77212858D01*
X155760000Y-77355715D01*
X155807619Y-77403334D01*
X156712381Y-78355715D02*
X156712381Y-77784286D01*
X156712381Y-78070000D02*
X155712381Y-78070000D01*
X155855238Y-77974762D01*
X155950476Y-77879524D01*
X155998095Y-77784286D01*
X143407143Y-84833334D02*
X143454762Y-84785715D01*
X143502381Y-84642858D01*
X143502381Y-84547620D01*
X143454762Y-84404762D01*
X143359524Y-84309524D01*
X143264286Y-84261905D01*
X143073810Y-84214286D01*
X142930952Y-84214286D01*
X142740476Y-84261905D01*
X142645238Y-84309524D01*
X142550000Y-84404762D01*
X142502381Y-84547620D01*
X142502381Y-84642858D01*
X142550000Y-84785715D01*
X142597619Y-84833334D01*
X142502381Y-85166667D02*
X142502381Y-85833334D01*
X143502381Y-85404762D01*
X145672381Y-90153334D02*
X145196190Y-89820000D01*
X145672381Y-89581905D02*
X144672381Y-89581905D01*
X144672381Y-89962858D01*
X144720000Y-90058096D01*
X144767619Y-90105715D01*
X144862857Y-90153334D01*
X145005714Y-90153334D01*
X145100952Y-90105715D01*
X145148571Y-90058096D01*
X145196190Y-89962858D01*
X145196190Y-89581905D01*
X144672381Y-91058096D02*
X144672381Y-90581905D01*
X145148571Y-90534286D01*
X145100952Y-90581905D01*
X145053333Y-90677143D01*
X145053333Y-90915239D01*
X145100952Y-91010477D01*
X145148571Y-91058096D01*
X145243810Y-91105715D01*
X145481905Y-91105715D01*
X145577143Y-91058096D01*
X145624762Y-91010477D01*
X145672381Y-90915239D01*
X145672381Y-90677143D01*
X145624762Y-90581905D01*
X145577143Y-90534286D01*
X117311619Y-94304762D02*
X117264000Y-94209524D01*
X117168762Y-94114286D01*
X117025905Y-93971429D01*
X116978286Y-93876190D01*
X116978286Y-93780952D01*
X117216381Y-93828571D02*
X117168762Y-93733333D01*
X117073524Y-93638095D01*
X116883048Y-93590476D01*
X116549714Y-93590476D01*
X116359238Y-93638095D01*
X116264000Y-93733333D01*
X116216381Y-93828571D01*
X116216381Y-94019048D01*
X116264000Y-94114286D01*
X116359238Y-94209524D01*
X116549714Y-94257143D01*
X116883048Y-94257143D01*
X117073524Y-94209524D01*
X117168762Y-94114286D01*
X117216381Y-94019048D01*
X117216381Y-93828571D01*
X117216381Y-95209524D02*
X117216381Y-94638095D01*
X117216381Y-94923809D02*
X116216381Y-94923809D01*
X116359238Y-94828571D01*
X116454476Y-94733333D01*
X116502095Y-94638095D01*
X100162381Y-69885714D02*
X99162381Y-69885714D01*
X99162381Y-70123809D01*
X99210000Y-70266667D01*
X99305238Y-70361905D01*
X99400476Y-70409524D01*
X99590952Y-70457143D01*
X99733810Y-70457143D01*
X99924286Y-70409524D01*
X100019524Y-70361905D01*
X100114762Y-70266667D01*
X100162381Y-70123809D01*
X100162381Y-69885714D01*
X100162381Y-71409524D02*
X100162381Y-70838095D01*
X100162381Y-71123809D02*
X99162381Y-71123809D01*
X99305238Y-71028571D01*
X99400476Y-70933333D01*
X99448095Y-70838095D01*
X99162381Y-72028571D02*
X99162381Y-72123810D01*
X99210000Y-72219048D01*
X99257619Y-72266667D01*
X99352857Y-72314286D01*
X99543333Y-72361905D01*
X99781429Y-72361905D01*
X99971905Y-72314286D01*
X100067143Y-72266667D01*
X100114762Y-72219048D01*
X100162381Y-72123810D01*
X100162381Y-72028571D01*
X100114762Y-71933333D01*
X100067143Y-71885714D01*
X99971905Y-71838095D01*
X99781429Y-71790476D01*
X99543333Y-71790476D01*
X99352857Y-71838095D01*
X99257619Y-71885714D01*
X99210000Y-71933333D01*
X99162381Y-72028571D01*
X139242381Y-87593334D02*
X138766190Y-87260000D01*
X139242381Y-87021905D02*
X138242381Y-87021905D01*
X138242381Y-87402858D01*
X138290000Y-87498096D01*
X138337619Y-87545715D01*
X138432857Y-87593334D01*
X138575714Y-87593334D01*
X138670952Y-87545715D01*
X138718571Y-87498096D01*
X138766190Y-87402858D01*
X138766190Y-87021905D01*
X138575714Y-88450477D02*
X139242381Y-88450477D01*
X138194762Y-88212381D02*
X138909048Y-87974286D01*
X138909048Y-88593334D01*
X156516666Y-98107143D02*
X156564285Y-98154762D01*
X156707142Y-98202381D01*
X156802380Y-98202381D01*
X156945238Y-98154762D01*
X157040476Y-98059524D01*
X157088095Y-97964286D01*
X157135714Y-97773810D01*
X157135714Y-97630952D01*
X157088095Y-97440476D01*
X157040476Y-97345238D01*
X156945238Y-97250000D01*
X156802380Y-97202381D01*
X156707142Y-97202381D01*
X156564285Y-97250000D01*
X156516666Y-97297619D01*
X155611904Y-97202381D02*
X156088095Y-97202381D01*
X156135714Y-97678571D01*
X156088095Y-97630952D01*
X155992857Y-97583333D01*
X155754761Y-97583333D01*
X155659523Y-97630952D01*
X155611904Y-97678571D01*
X155564285Y-97773810D01*
X155564285Y-98011905D01*
X155611904Y-98107143D01*
X155659523Y-98154762D01*
X155754761Y-98202381D01*
X155992857Y-98202381D01*
X156088095Y-98154762D01*
X156135714Y-98107143D01*
X156336666Y-88947143D02*
X156384285Y-88994762D01*
X156527142Y-89042381D01*
X156622380Y-89042381D01*
X156765238Y-88994762D01*
X156860476Y-88899524D01*
X156908095Y-88804286D01*
X156955714Y-88613810D01*
X156955714Y-88470952D01*
X156908095Y-88280476D01*
X156860476Y-88185238D01*
X156765238Y-88090000D01*
X156622380Y-88042381D01*
X156527142Y-88042381D01*
X156384285Y-88090000D01*
X156336666Y-88137619D01*
X155479523Y-88042381D02*
X155670000Y-88042381D01*
X155765238Y-88090000D01*
X155812857Y-88137619D01*
X155908095Y-88280476D01*
X155955714Y-88470952D01*
X155955714Y-88851905D01*
X155908095Y-88947143D01*
X155860476Y-88994762D01*
X155765238Y-89042381D01*
X155574761Y-89042381D01*
X155479523Y-88994762D01*
X155431904Y-88947143D01*
X155384285Y-88851905D01*
X155384285Y-88613810D01*
X155431904Y-88518571D01*
X155479523Y-88470952D01*
X155574761Y-88423333D01*
X155765238Y-88423333D01*
X155860476Y-88470952D01*
X155908095Y-88518571D01*
X155955714Y-88613810D01*
X97842381Y-62387334D02*
X97842381Y-61911143D01*
X96842381Y-61911143D01*
X97175714Y-63149239D02*
X97842381Y-63149239D01*
X96794762Y-62911143D02*
X97509048Y-62673048D01*
X97509048Y-63292096D01*
X159652381Y-92607143D02*
X159176190Y-92273809D01*
X159652381Y-92035714D02*
X158652381Y-92035714D01*
X158652381Y-92416667D01*
X158700000Y-92511905D01*
X158747619Y-92559524D01*
X158842857Y-92607143D01*
X158985714Y-92607143D01*
X159080952Y-92559524D01*
X159128571Y-92511905D01*
X159176190Y-92416667D01*
X159176190Y-92035714D01*
X158985714Y-93464286D02*
X159652381Y-93464286D01*
X158604762Y-93226190D02*
X159319048Y-92988095D01*
X159319048Y-93607143D01*
X158652381Y-93892857D02*
X158652381Y-94511905D01*
X159033333Y-94178571D01*
X159033333Y-94321429D01*
X159080952Y-94416667D01*
X159128571Y-94464286D01*
X159223810Y-94511905D01*
X159461905Y-94511905D01*
X159557143Y-94464286D01*
X159604762Y-94416667D01*
X159652381Y-94321429D01*
X159652381Y-94035714D01*
X159604762Y-93940476D01*
X159557143Y-93892857D01*
X125367381Y-78888095D02*
X126176905Y-78888095D01*
X126272143Y-78935714D01*
X126319762Y-78983333D01*
X126367381Y-79078571D01*
X126367381Y-79269048D01*
X126319762Y-79364286D01*
X126272143Y-79411905D01*
X126176905Y-79459524D01*
X125367381Y-79459524D01*
X126367381Y-80459524D02*
X126367381Y-79888095D01*
X126367381Y-80173809D02*
X125367381Y-80173809D01*
X125510238Y-80078571D01*
X125605476Y-79983333D01*
X125653095Y-79888095D01*
X151301621Y-92488095D02*
X152111145Y-92488095D01*
X152206383Y-92535714D01*
X152254002Y-92583333D01*
X152301621Y-92678571D01*
X152301621Y-92869048D01*
X152254002Y-92964286D01*
X152206383Y-93011905D01*
X152111145Y-93059524D01*
X151301621Y-93059524D01*
X151730192Y-93678571D02*
X151682573Y-93583333D01*
X151634954Y-93535714D01*
X151539716Y-93488095D01*
X151492097Y-93488095D01*
X151396859Y-93535714D01*
X151349240Y-93583333D01*
X151301621Y-93678571D01*
X151301621Y-93869048D01*
X151349240Y-93964286D01*
X151396859Y-94011905D01*
X151492097Y-94059524D01*
X151539716Y-94059524D01*
X151634954Y-94011905D01*
X151682573Y-93964286D01*
X151730192Y-93869048D01*
X151730192Y-93678571D01*
X151777811Y-93583333D01*
X151825430Y-93535714D01*
X151920669Y-93488095D01*
X152111145Y-93488095D01*
X152206383Y-93535714D01*
X152254002Y-93583333D01*
X152301621Y-93678571D01*
X152301621Y-93869048D01*
X152254002Y-93964286D01*
X152206383Y-94011905D01*
X152111145Y-94059524D01*
X151920669Y-94059524D01*
X151825430Y-94011905D01*
X151777811Y-93964286D01*
X151730192Y-93869048D01*
X125107143Y-69957143D02*
X125154762Y-69909524D01*
X125202381Y-69766667D01*
X125202381Y-69671429D01*
X125154762Y-69528571D01*
X125059524Y-69433333D01*
X124964286Y-69385714D01*
X124773810Y-69338095D01*
X124630952Y-69338095D01*
X124440476Y-69385714D01*
X124345238Y-69433333D01*
X124250000Y-69528571D01*
X124202381Y-69671429D01*
X124202381Y-69766667D01*
X124250000Y-69909524D01*
X124297619Y-69957143D01*
X124297619Y-70338095D02*
X124250000Y-70385714D01*
X124202381Y-70480952D01*
X124202381Y-70719048D01*
X124250000Y-70814286D01*
X124297619Y-70861905D01*
X124392857Y-70909524D01*
X124488095Y-70909524D01*
X124630952Y-70861905D01*
X125202381Y-70290476D01*
X125202381Y-70909524D01*
X124535714Y-71766667D02*
X125202381Y-71766667D01*
X124154762Y-71528571D02*
X124869048Y-71290476D01*
X124869048Y-71909524D01*
X123507143Y-69907143D02*
X123554762Y-69859524D01*
X123602381Y-69716667D01*
X123602381Y-69621429D01*
X123554762Y-69478571D01*
X123459524Y-69383333D01*
X123364286Y-69335714D01*
X123173810Y-69288095D01*
X123030952Y-69288095D01*
X122840476Y-69335714D01*
X122745238Y-69383333D01*
X122650000Y-69478571D01*
X122602381Y-69621429D01*
X122602381Y-69716667D01*
X122650000Y-69859524D01*
X122697619Y-69907143D01*
X122697619Y-70288095D02*
X122650000Y-70335714D01*
X122602381Y-70430952D01*
X122602381Y-70669048D01*
X122650000Y-70764286D01*
X122697619Y-70811905D01*
X122792857Y-70859524D01*
X122888095Y-70859524D01*
X123030952Y-70811905D01*
X123602381Y-70240476D01*
X123602381Y-70859524D01*
X122602381Y-71764286D02*
X122602381Y-71288095D01*
X123078571Y-71240476D01*
X123030952Y-71288095D01*
X122983333Y-71383333D01*
X122983333Y-71621429D01*
X123030952Y-71716667D01*
X123078571Y-71764286D01*
X123173810Y-71811905D01*
X123411905Y-71811905D01*
X123507143Y-71764286D01*
X123554762Y-71716667D01*
X123602381Y-71621429D01*
X123602381Y-71383333D01*
X123554762Y-71288095D01*
X123507143Y-71240476D01*
X130712857Y-92587143D02*
X130760476Y-92634762D01*
X130903333Y-92682381D01*
X130998571Y-92682381D01*
X131141429Y-92634762D01*
X131236667Y-92539524D01*
X131284286Y-92444286D01*
X131331905Y-92253810D01*
X131331905Y-92110952D01*
X131284286Y-91920476D01*
X131236667Y-91825238D01*
X131141429Y-91730000D01*
X130998571Y-91682381D01*
X130903333Y-91682381D01*
X130760476Y-91730000D01*
X130712857Y-91777619D01*
X130379524Y-91682381D02*
X129760476Y-91682381D01*
X130093810Y-92063333D01*
X129950952Y-92063333D01*
X129855714Y-92110952D01*
X129808095Y-92158571D01*
X129760476Y-92253810D01*
X129760476Y-92491905D01*
X129808095Y-92587143D01*
X129855714Y-92634762D01*
X129950952Y-92682381D01*
X130236667Y-92682381D01*
X130331905Y-92634762D01*
X130379524Y-92587143D01*
X128903333Y-91682381D02*
X129093810Y-91682381D01*
X129189048Y-91730000D01*
X129236667Y-91777619D01*
X129331905Y-91920476D01*
X129379524Y-92110952D01*
X129379524Y-92491905D01*
X129331905Y-92587143D01*
X129284286Y-92634762D01*
X129189048Y-92682381D01*
X128998571Y-92682381D01*
X128903333Y-92634762D01*
X128855714Y-92587143D01*
X128808095Y-92491905D01*
X128808095Y-92253810D01*
X128855714Y-92158571D01*
X128903333Y-92110952D01*
X128998571Y-92063333D01*
X129189048Y-92063333D01*
X129284286Y-92110952D01*
X129331905Y-92158571D01*
X129379524Y-92253810D01*
X161912381Y-90017143D02*
X161436190Y-89683809D01*
X161912381Y-89445714D02*
X160912381Y-89445714D01*
X160912381Y-89826667D01*
X160960000Y-89921905D01*
X161007619Y-89969524D01*
X161102857Y-90017143D01*
X161245714Y-90017143D01*
X161340952Y-89969524D01*
X161388571Y-89921905D01*
X161436190Y-89826667D01*
X161436190Y-89445714D01*
X160912381Y-90350476D02*
X160912381Y-90969524D01*
X161293333Y-90636190D01*
X161293333Y-90779048D01*
X161340952Y-90874286D01*
X161388571Y-90921905D01*
X161483810Y-90969524D01*
X161721905Y-90969524D01*
X161817143Y-90921905D01*
X161864762Y-90874286D01*
X161912381Y-90779048D01*
X161912381Y-90493333D01*
X161864762Y-90398095D01*
X161817143Y-90350476D01*
X161912381Y-91921905D02*
X161912381Y-91350476D01*
X161912381Y-91636190D02*
X160912381Y-91636190D01*
X161055238Y-91540952D01*
X161150476Y-91445714D01*
X161198095Y-91350476D01*
X121192857Y-95052381D02*
X121526191Y-94576190D01*
X121764286Y-95052381D02*
X121764286Y-94052381D01*
X121383333Y-94052381D01*
X121288095Y-94100000D01*
X121240476Y-94147619D01*
X121192857Y-94242857D01*
X121192857Y-94385714D01*
X121240476Y-94480952D01*
X121288095Y-94528571D01*
X121383333Y-94576190D01*
X121764286Y-94576190D01*
X120859524Y-94052381D02*
X120240476Y-94052381D01*
X120573810Y-94433333D01*
X120430952Y-94433333D01*
X120335714Y-94480952D01*
X120288095Y-94528571D01*
X120240476Y-94623810D01*
X120240476Y-94861905D01*
X120288095Y-94957143D01*
X120335714Y-95004762D01*
X120430952Y-95052381D01*
X120716667Y-95052381D01*
X120811905Y-95004762D01*
X120859524Y-94957143D01*
X119907143Y-94052381D02*
X119288095Y-94052381D01*
X119621429Y-94433333D01*
X119478571Y-94433333D01*
X119383333Y-94480952D01*
X119335714Y-94528571D01*
X119288095Y-94623810D01*
X119288095Y-94861905D01*
X119335714Y-94957143D01*
X119383333Y-95004762D01*
X119478571Y-95052381D01*
X119764286Y-95052381D01*
X119859524Y-95004762D01*
X119907143Y-94957143D01*
X149875238Y-68187619D02*
X149970476Y-68140000D01*
X150065714Y-68044762D01*
X150208571Y-67901905D01*
X150303810Y-67854286D01*
X150399048Y-67854286D01*
X150351429Y-68092381D02*
X150446667Y-68044762D01*
X150541905Y-67949524D01*
X150589524Y-67759048D01*
X150589524Y-67425714D01*
X150541905Y-67235238D01*
X150446667Y-67140000D01*
X150351429Y-67092381D01*
X150160952Y-67092381D01*
X150065714Y-67140000D01*
X149970476Y-67235238D01*
X149922857Y-67425714D01*
X149922857Y-67759048D01*
X149970476Y-67949524D01*
X150065714Y-68044762D01*
X150160952Y-68092381D01*
X150351429Y-68092381D01*
X149065714Y-67425714D02*
X149065714Y-68092381D01*
X149303810Y-67044762D02*
X149541905Y-67759048D01*
X148922857Y-67759048D01*
X142685238Y-68137619D02*
X142780476Y-68090000D01*
X142875714Y-67994762D01*
X143018571Y-67851905D01*
X143113810Y-67804286D01*
X143209048Y-67804286D01*
X143161429Y-68042381D02*
X143256667Y-67994762D01*
X143351905Y-67899524D01*
X143399524Y-67709048D01*
X143399524Y-67375714D01*
X143351905Y-67185238D01*
X143256667Y-67090000D01*
X143161429Y-67042381D01*
X142970952Y-67042381D01*
X142875714Y-67090000D01*
X142780476Y-67185238D01*
X142732857Y-67375714D01*
X142732857Y-67709048D01*
X142780476Y-67899524D01*
X142875714Y-67994762D01*
X142970952Y-68042381D01*
X143161429Y-68042381D01*
X141828095Y-67042381D02*
X142304286Y-67042381D01*
X142351905Y-67518571D01*
X142304286Y-67470952D01*
X142209048Y-67423333D01*
X141970952Y-67423333D01*
X141875714Y-67470952D01*
X141828095Y-67518571D01*
X141780476Y-67613810D01*
X141780476Y-67851905D01*
X141828095Y-67947143D01*
X141875714Y-67994762D01*
X141970952Y-68042381D01*
X142209048Y-68042381D01*
X142304286Y-67994762D01*
X142351905Y-67947143D01*
X158365238Y-51446859D02*
X158460476Y-51399240D01*
X158555714Y-51304002D01*
X158698571Y-51161145D01*
X158793810Y-51113526D01*
X158889048Y-51113526D01*
X158841429Y-51351621D02*
X158936667Y-51304002D01*
X159031905Y-51208764D01*
X159079524Y-51018288D01*
X159079524Y-50684954D01*
X159031905Y-50494478D01*
X158936667Y-50399240D01*
X158841429Y-50351621D01*
X158650952Y-50351621D01*
X158555714Y-50399240D01*
X158460476Y-50494478D01*
X158412857Y-50684954D01*
X158412857Y-51018288D01*
X158460476Y-51208764D01*
X158555714Y-51304002D01*
X158650952Y-51351621D01*
X158841429Y-51351621D01*
X157555714Y-50351621D02*
X157746191Y-50351621D01*
X157841429Y-50399240D01*
X157889048Y-50446859D01*
X157984286Y-50589716D01*
X158031905Y-50780192D01*
X158031905Y-51161145D01*
X157984286Y-51256383D01*
X157936667Y-51304002D01*
X157841429Y-51351621D01*
X157650952Y-51351621D01*
X157555714Y-51304002D01*
X157508095Y-51256383D01*
X157460476Y-51161145D01*
X157460476Y-50923050D01*
X157508095Y-50827811D01*
X157555714Y-50780192D01*
X157650952Y-50732573D01*
X157841429Y-50732573D01*
X157936667Y-50780192D01*
X157984286Y-50827811D01*
X158031905Y-50923050D01*
X179537619Y-77194762D02*
X179490000Y-77099524D01*
X179394762Y-77004286D01*
X179251905Y-76861429D01*
X179204286Y-76766190D01*
X179204286Y-76670952D01*
X179442381Y-76718571D02*
X179394762Y-76623333D01*
X179299524Y-76528095D01*
X179109048Y-76480476D01*
X178775714Y-76480476D01*
X178585238Y-76528095D01*
X178490000Y-76623333D01*
X178442381Y-76718571D01*
X178442381Y-76909048D01*
X178490000Y-77004286D01*
X178585238Y-77099524D01*
X178775714Y-77147143D01*
X179109048Y-77147143D01*
X179299524Y-77099524D01*
X179394762Y-77004286D01*
X179442381Y-76909048D01*
X179442381Y-76718571D01*
X178870952Y-77718571D02*
X178823333Y-77623333D01*
X178775714Y-77575714D01*
X178680476Y-77528095D01*
X178632857Y-77528095D01*
X178537619Y-77575714D01*
X178490000Y-77623333D01*
X178442381Y-77718571D01*
X178442381Y-77909048D01*
X178490000Y-78004286D01*
X178537619Y-78051905D01*
X178632857Y-78099524D01*
X178680476Y-78099524D01*
X178775714Y-78051905D01*
X178823333Y-78004286D01*
X178870952Y-77909048D01*
X178870952Y-77718571D01*
X178918571Y-77623333D01*
X178966190Y-77575714D01*
X179061429Y-77528095D01*
X179251905Y-77528095D01*
X179347143Y-77575714D01*
X179394762Y-77623333D01*
X179442381Y-77718571D01*
X179442381Y-77909048D01*
X179394762Y-78004286D01*
X179347143Y-78051905D01*
X179251905Y-78099524D01*
X179061429Y-78099524D01*
X178966190Y-78051905D01*
X178918571Y-78004286D01*
X178870952Y-77909048D01*
X175464286Y-72332381D02*
X175464286Y-71332381D01*
X175083333Y-71332381D01*
X174988095Y-71380000D01*
X174940476Y-71427619D01*
X174892857Y-71522857D01*
X174892857Y-71665714D01*
X174940476Y-71760952D01*
X174988095Y-71808571D01*
X175083333Y-71856190D01*
X175464286Y-71856190D01*
X173940476Y-72332381D02*
X174511905Y-72332381D01*
X174226191Y-72332381D02*
X174226191Y-71332381D01*
X174321429Y-71475238D01*
X174416667Y-71570476D01*
X174511905Y-71618095D01*
X173559524Y-71427619D02*
X173511905Y-71380000D01*
X173416667Y-71332381D01*
X173178571Y-71332381D01*
X173083333Y-71380000D01*
X173035714Y-71427619D01*
X172988095Y-71522857D01*
X172988095Y-71618095D01*
X173035714Y-71760952D01*
X173607143Y-72332381D01*
X172988095Y-72332381D01*
X163074286Y-72362381D02*
X163074286Y-71362381D01*
X162693333Y-71362381D01*
X162598095Y-71410000D01*
X162550476Y-71457619D01*
X162502857Y-71552857D01*
X162502857Y-71695714D01*
X162550476Y-71790952D01*
X162598095Y-71838571D01*
X162693333Y-71886190D01*
X163074286Y-71886190D01*
X161550476Y-72362381D02*
X162121905Y-72362381D01*
X161836191Y-72362381D02*
X161836191Y-71362381D01*
X161931429Y-71505238D01*
X162026667Y-71600476D01*
X162121905Y-71648095D01*
X160598095Y-72362381D02*
X161169524Y-72362381D01*
X160883810Y-72362381D02*
X160883810Y-71362381D01*
X160979048Y-71505238D01*
X161074286Y-71600476D01*
X161169524Y-71648095D01*
X182612381Y-103407143D02*
X182136190Y-103073809D01*
X182612381Y-102835714D02*
X181612381Y-102835714D01*
X181612381Y-103216667D01*
X181660000Y-103311905D01*
X181707619Y-103359524D01*
X181802857Y-103407143D01*
X181945714Y-103407143D01*
X182040952Y-103359524D01*
X182088571Y-103311905D01*
X182136190Y-103216667D01*
X182136190Y-102835714D01*
X181612381Y-103740476D02*
X181612381Y-104359524D01*
X181993333Y-104026190D01*
X181993333Y-104169048D01*
X182040952Y-104264286D01*
X182088571Y-104311905D01*
X182183810Y-104359524D01*
X182421905Y-104359524D01*
X182517143Y-104311905D01*
X182564762Y-104264286D01*
X182612381Y-104169048D01*
X182612381Y-103883333D01*
X182564762Y-103788095D01*
X182517143Y-103740476D01*
X182612381Y-104835714D02*
X182612381Y-105026190D01*
X182564762Y-105121429D01*
X182517143Y-105169048D01*
X182374286Y-105264286D01*
X182183810Y-105311905D01*
X181802857Y-105311905D01*
X181707619Y-105264286D01*
X181660000Y-105216667D01*
X181612381Y-105121429D01*
X181612381Y-104930952D01*
X181660000Y-104835714D01*
X181707619Y-104788095D01*
X181802857Y-104740476D01*
X182040952Y-104740476D01*
X182136190Y-104788095D01*
X182183810Y-104835714D01*
X182231429Y-104930952D01*
X182231429Y-105121429D01*
X182183810Y-105216667D01*
X182136190Y-105264286D01*
X182040952Y-105311905D01*
X178402381Y-99447143D02*
X177926190Y-99113809D01*
X178402381Y-98875714D02*
X177402381Y-98875714D01*
X177402381Y-99256667D01*
X177450000Y-99351905D01*
X177497619Y-99399524D01*
X177592857Y-99447143D01*
X177735714Y-99447143D01*
X177830952Y-99399524D01*
X177878571Y-99351905D01*
X177926190Y-99256667D01*
X177926190Y-98875714D01*
X177735714Y-100304286D02*
X178402381Y-100304286D01*
X177354762Y-100066190D02*
X178069048Y-99828095D01*
X178069048Y-100447143D01*
X178402381Y-101351905D02*
X178402381Y-100780476D01*
X178402381Y-101066190D02*
X177402381Y-101066190D01*
X177545238Y-100970952D01*
X177640476Y-100875714D01*
X177688095Y-100780476D01*
X177842381Y-106627143D02*
X177366190Y-106293809D01*
X177842381Y-106055714D02*
X176842381Y-106055714D01*
X176842381Y-106436667D01*
X176890000Y-106531905D01*
X176937619Y-106579524D01*
X177032857Y-106627143D01*
X177175714Y-106627143D01*
X177270952Y-106579524D01*
X177318571Y-106531905D01*
X177366190Y-106436667D01*
X177366190Y-106055714D01*
X177175714Y-107484286D02*
X177842381Y-107484286D01*
X176794762Y-107246190D02*
X177509048Y-107008095D01*
X177509048Y-107627143D01*
X176842381Y-108436667D02*
X176842381Y-108246190D01*
X176890000Y-108150952D01*
X176937619Y-108103333D01*
X177080476Y-108008095D01*
X177270952Y-107960476D01*
X177651905Y-107960476D01*
X177747143Y-108008095D01*
X177794762Y-108055714D01*
X177842381Y-108150952D01*
X177842381Y-108341429D01*
X177794762Y-108436667D01*
X177747143Y-108484286D01*
X177651905Y-108531905D01*
X177413810Y-108531905D01*
X177318571Y-108484286D01*
X177270952Y-108436667D01*
X177223333Y-108341429D01*
X177223333Y-108150952D01*
X177270952Y-108055714D01*
X177318571Y-108008095D01*
X177413810Y-107960476D01*
X176732381Y-90107143D02*
X176256190Y-89773809D01*
X176732381Y-89535714D02*
X175732381Y-89535714D01*
X175732381Y-89916667D01*
X175780000Y-90011905D01*
X175827619Y-90059524D01*
X175922857Y-90107143D01*
X176065714Y-90107143D01*
X176160952Y-90059524D01*
X176208571Y-90011905D01*
X176256190Y-89916667D01*
X176256190Y-89535714D01*
X176065714Y-90964286D02*
X176732381Y-90964286D01*
X175684762Y-90726190D02*
X176399048Y-90488095D01*
X176399048Y-91107143D01*
X175732381Y-91392857D02*
X175732381Y-92059524D01*
X176732381Y-91630952D01*
X176572381Y-97407143D02*
X176096190Y-97073809D01*
X176572381Y-96835714D02*
X175572381Y-96835714D01*
X175572381Y-97216667D01*
X175620000Y-97311905D01*
X175667619Y-97359524D01*
X175762857Y-97407143D01*
X175905714Y-97407143D01*
X176000952Y-97359524D01*
X176048571Y-97311905D01*
X176096190Y-97216667D01*
X176096190Y-96835714D01*
X175905714Y-98264286D02*
X176572381Y-98264286D01*
X175524762Y-98026190D02*
X176239048Y-97788095D01*
X176239048Y-98407143D01*
X176000952Y-98930952D02*
X175953333Y-98835714D01*
X175905714Y-98788095D01*
X175810476Y-98740476D01*
X175762857Y-98740476D01*
X175667619Y-98788095D01*
X175620000Y-98835714D01*
X175572381Y-98930952D01*
X175572381Y-99121429D01*
X175620000Y-99216667D01*
X175667619Y-99264286D01*
X175762857Y-99311905D01*
X175810476Y-99311905D01*
X175905714Y-99264286D01*
X175953333Y-99216667D01*
X176000952Y-99121429D01*
X176000952Y-98930952D01*
X176048571Y-98835714D01*
X176096190Y-98788095D01*
X176191429Y-98740476D01*
X176381905Y-98740476D01*
X176477143Y-98788095D01*
X176524762Y-98835714D01*
X176572381Y-98930952D01*
X176572381Y-99121429D01*
X176524762Y-99216667D01*
X176477143Y-99264286D01*
X176381905Y-99311905D01*
X176191429Y-99311905D01*
X176096190Y-99264286D01*
X176048571Y-99216667D01*
X176000952Y-99121429D01*
X172532381Y-93697143D02*
X172056190Y-93363809D01*
X172532381Y-93125714D02*
X171532381Y-93125714D01*
X171532381Y-93506667D01*
X171580000Y-93601905D01*
X171627619Y-93649524D01*
X171722857Y-93697143D01*
X171865714Y-93697143D01*
X171960952Y-93649524D01*
X172008571Y-93601905D01*
X172056190Y-93506667D01*
X172056190Y-93125714D01*
X171865714Y-94554286D02*
X172532381Y-94554286D01*
X171484762Y-94316190D02*
X172199048Y-94078095D01*
X172199048Y-94697143D01*
X172532381Y-95125714D02*
X172532381Y-95316190D01*
X172484762Y-95411429D01*
X172437143Y-95459048D01*
X172294286Y-95554286D01*
X172103810Y-95601905D01*
X171722857Y-95601905D01*
X171627619Y-95554286D01*
X171580000Y-95506667D01*
X171532381Y-95411429D01*
X171532381Y-95220952D01*
X171580000Y-95125714D01*
X171627619Y-95078095D01*
X171722857Y-95030476D01*
X171960952Y-95030476D01*
X172056190Y-95078095D01*
X172103810Y-95125714D01*
X172151429Y-95220952D01*
X172151429Y-95411429D01*
X172103810Y-95506667D01*
X172056190Y-95554286D01*
X171960952Y-95601905D01*
X128012381Y-91921905D02*
X128821905Y-91921905D01*
X128917143Y-91969524D01*
X128964762Y-92017143D01*
X129012381Y-92112381D01*
X129012381Y-92302858D01*
X128964762Y-92398096D01*
X128917143Y-92445715D01*
X128821905Y-92493334D01*
X128012381Y-92493334D01*
X129012381Y-93493334D02*
X129012381Y-92921905D01*
X129012381Y-93207619D02*
X128012381Y-93207619D01*
X128155238Y-93112381D01*
X128250476Y-93017143D01*
X128298095Y-92921905D01*
X129012381Y-94445715D02*
X129012381Y-93874286D01*
X129012381Y-94160000D02*
X128012381Y-94160000D01*
X128155238Y-94064762D01*
X128250476Y-93969524D01*
X128298095Y-93874286D01*
X182444286Y-76832381D02*
X182444286Y-75832381D01*
X182063333Y-75832381D01*
X181968095Y-75880000D01*
X181920476Y-75927619D01*
X181872857Y-76022857D01*
X181872857Y-76165714D01*
X181920476Y-76260952D01*
X181968095Y-76308571D01*
X182063333Y-76356190D01*
X182444286Y-76356190D01*
X180920476Y-76832381D02*
X181491905Y-76832381D01*
X181206191Y-76832381D02*
X181206191Y-75832381D01*
X181301429Y-75975238D01*
X181396667Y-76070476D01*
X181491905Y-76118095D01*
X180587143Y-75832381D02*
X179968095Y-75832381D01*
X180301429Y-76213333D01*
X180158571Y-76213333D01*
X180063333Y-76260952D01*
X180015714Y-76308571D01*
X179968095Y-76403810D01*
X179968095Y-76641905D01*
X180015714Y-76737143D01*
X180063333Y-76784762D01*
X180158571Y-76832381D01*
X180444286Y-76832381D01*
X180539524Y-76784762D01*
X180587143Y-76737143D01*
X133488381Y-109001905D02*
X132488381Y-109001905D01*
X132488381Y-109382858D01*
X132536000Y-109478096D01*
X132583619Y-109525715D01*
X132678857Y-109573334D01*
X132821714Y-109573334D01*
X132916952Y-109525715D01*
X132964571Y-109478096D01*
X133012190Y-109382858D01*
X133012190Y-109001905D01*
X132488381Y-109906667D02*
X132488381Y-110573334D01*
X133488381Y-110144762D01*
X165238095Y-114052381D02*
X165238095Y-113052381D01*
X164857142Y-113052381D01*
X164761904Y-113100000D01*
X164714285Y-113147619D01*
X164666666Y-113242857D01*
X164666666Y-113385714D01*
X164714285Y-113480952D01*
X164761904Y-113528571D01*
X164857142Y-113576190D01*
X165238095Y-113576190D01*
X164095238Y-113480952D02*
X164190476Y-113433333D01*
X164238095Y-113385714D01*
X164285714Y-113290476D01*
X164285714Y-113242857D01*
X164238095Y-113147619D01*
X164190476Y-113100000D01*
X164095238Y-113052381D01*
X163904761Y-113052381D01*
X163809523Y-113100000D01*
X163761904Y-113147619D01*
X163714285Y-113242857D01*
X163714285Y-113290476D01*
X163761904Y-113385714D01*
X163809523Y-113433333D01*
X163904761Y-113480952D01*
X164095238Y-113480952D01*
X164190476Y-113528571D01*
X164238095Y-113576190D01*
X164285714Y-113671429D01*
X164285714Y-113861905D01*
X164238095Y-113957143D01*
X164190476Y-114004762D01*
X164095238Y-114052381D01*
X163904761Y-114052381D01*
X163809523Y-114004762D01*
X163761904Y-113957143D01*
X163714285Y-113861905D01*
X163714285Y-113671429D01*
X163761904Y-113576190D01*
X163809523Y-113528571D01*
X163904761Y-113480952D01*
X173387143Y-103407143D02*
X173434762Y-103359524D01*
X173482381Y-103216667D01*
X173482381Y-103121429D01*
X173434762Y-102978571D01*
X173339524Y-102883333D01*
X173244286Y-102835714D01*
X173053810Y-102788095D01*
X172910952Y-102788095D01*
X172720476Y-102835714D01*
X172625238Y-102883333D01*
X172530000Y-102978571D01*
X172482381Y-103121429D01*
X172482381Y-103216667D01*
X172530000Y-103359524D01*
X172577619Y-103407143D01*
X172482381Y-103740476D02*
X172482381Y-104359524D01*
X172863333Y-104026190D01*
X172863333Y-104169048D01*
X172910952Y-104264286D01*
X172958571Y-104311905D01*
X173053810Y-104359524D01*
X173291905Y-104359524D01*
X173387143Y-104311905D01*
X173434762Y-104264286D01*
X173482381Y-104169048D01*
X173482381Y-103883333D01*
X173434762Y-103788095D01*
X173387143Y-103740476D01*
X172815714Y-105216667D02*
X173482381Y-105216667D01*
X172434762Y-104978571D02*
X173149048Y-104740476D01*
X173149048Y-105359524D01*
X181938095Y-87062381D02*
X181938095Y-87871905D01*
X181890476Y-87967143D01*
X181842857Y-88014762D01*
X181747619Y-88062381D01*
X181557142Y-88062381D01*
X181461904Y-88014762D01*
X181414285Y-87967143D01*
X181366666Y-87871905D01*
X181366666Y-87062381D01*
X180366666Y-88062381D02*
X180938095Y-88062381D01*
X180652381Y-88062381D02*
X180652381Y-87062381D01*
X180747619Y-87205238D01*
X180842857Y-87300476D01*
X180938095Y-87348095D01*
X179985714Y-87157619D02*
X179938095Y-87110000D01*
X179842857Y-87062381D01*
X179604761Y-87062381D01*
X179509523Y-87110000D01*
X179461904Y-87157619D01*
X179414285Y-87252857D01*
X179414285Y-87348095D01*
X179461904Y-87490952D01*
X180033333Y-88062381D01*
X179414285Y-88062381D01*
X178037143Y-94687143D02*
X178084762Y-94639524D01*
X178132381Y-94496667D01*
X178132381Y-94401429D01*
X178084762Y-94258571D01*
X177989524Y-94163333D01*
X177894286Y-94115714D01*
X177703810Y-94068095D01*
X177560952Y-94068095D01*
X177370476Y-94115714D01*
X177275238Y-94163333D01*
X177180000Y-94258571D01*
X177132381Y-94401429D01*
X177132381Y-94496667D01*
X177180000Y-94639524D01*
X177227619Y-94687143D01*
X177132381Y-95020476D02*
X177132381Y-95639524D01*
X177513333Y-95306190D01*
X177513333Y-95449048D01*
X177560952Y-95544286D01*
X177608571Y-95591905D01*
X177703810Y-95639524D01*
X177941905Y-95639524D01*
X178037143Y-95591905D01*
X178084762Y-95544286D01*
X178132381Y-95449048D01*
X178132381Y-95163333D01*
X178084762Y-95068095D01*
X178037143Y-95020476D01*
X177132381Y-96544286D02*
X177132381Y-96068095D01*
X177608571Y-96020476D01*
X177560952Y-96068095D01*
X177513333Y-96163333D01*
X177513333Y-96401429D01*
X177560952Y-96496667D01*
X177608571Y-96544286D01*
X177703810Y-96591905D01*
X177941905Y-96591905D01*
X178037143Y-96544286D01*
X178084762Y-96496667D01*
X178132381Y-96401429D01*
X178132381Y-96163333D01*
X178084762Y-96068095D01*
X178037143Y-96020476D01*
X184127143Y-94637143D02*
X184174762Y-94589524D01*
X184222381Y-94446667D01*
X184222381Y-94351429D01*
X184174762Y-94208571D01*
X184079524Y-94113333D01*
X183984286Y-94065714D01*
X183793810Y-94018095D01*
X183650952Y-94018095D01*
X183460476Y-94065714D01*
X183365238Y-94113333D01*
X183270000Y-94208571D01*
X183222381Y-94351429D01*
X183222381Y-94446667D01*
X183270000Y-94589524D01*
X183317619Y-94637143D01*
X183555714Y-95494286D02*
X184222381Y-95494286D01*
X183174762Y-95256190D02*
X183889048Y-95018095D01*
X183889048Y-95637143D01*
X183222381Y-96494286D02*
X183222381Y-96018095D01*
X183698571Y-95970476D01*
X183650952Y-96018095D01*
X183603333Y-96113333D01*
X183603333Y-96351429D01*
X183650952Y-96446667D01*
X183698571Y-96494286D01*
X183793810Y-96541905D01*
X184031905Y-96541905D01*
X184127143Y-96494286D01*
X184174762Y-96446667D01*
X184222381Y-96351429D01*
X184222381Y-96113333D01*
X184174762Y-96018095D01*
X184127143Y-95970476D01*
X181708095Y-50192381D02*
X181708095Y-49192381D01*
X181327142Y-49192381D01*
X181231904Y-49240000D01*
X181184285Y-49287619D01*
X181136666Y-49382857D01*
X181136666Y-49525714D01*
X181184285Y-49620952D01*
X181231904Y-49668571D01*
X181327142Y-49716190D01*
X181708095Y-49716190D01*
X180231904Y-49192381D02*
X180708095Y-49192381D01*
X180755714Y-49668571D01*
X180708095Y-49620952D01*
X180612857Y-49573333D01*
X180374761Y-49573333D01*
X180279523Y-49620952D01*
X180231904Y-49668571D01*
X180184285Y-49763810D01*
X180184285Y-50001905D01*
X180231904Y-50097143D01*
X180279523Y-50144762D01*
X180374761Y-50192381D01*
X180612857Y-50192381D01*
X180708095Y-50144762D01*
X180755714Y-50097143D01*
X169778095Y-50232381D02*
X169778095Y-49232381D01*
X169397142Y-49232381D01*
X169301904Y-49280000D01*
X169254285Y-49327619D01*
X169206666Y-49422857D01*
X169206666Y-49565714D01*
X169254285Y-49660952D01*
X169301904Y-49708571D01*
X169397142Y-49756190D01*
X169778095Y-49756190D01*
X168873333Y-49232381D02*
X168254285Y-49232381D01*
X168587619Y-49613333D01*
X168444761Y-49613333D01*
X168349523Y-49660952D01*
X168301904Y-49708571D01*
X168254285Y-49803810D01*
X168254285Y-50041905D01*
X168301904Y-50137143D01*
X168349523Y-50184762D01*
X168444761Y-50232381D01*
X168730476Y-50232381D01*
X168825714Y-50184762D01*
X168873333Y-50137143D01*
X145338095Y-50002381D02*
X145338095Y-49002381D01*
X144957142Y-49002381D01*
X144861904Y-49050000D01*
X144814285Y-49097619D01*
X144766666Y-49192857D01*
X144766666Y-49335714D01*
X144814285Y-49430952D01*
X144861904Y-49478571D01*
X144957142Y-49526190D01*
X145338095Y-49526190D01*
X143909523Y-49002381D02*
X144100000Y-49002381D01*
X144195238Y-49050000D01*
X144242857Y-49097619D01*
X144338095Y-49240476D01*
X144385714Y-49430952D01*
X144385714Y-49811905D01*
X144338095Y-49907143D01*
X144290476Y-49954762D01*
X144195238Y-50002381D01*
X144004761Y-50002381D01*
X143909523Y-49954762D01*
X143861904Y-49907143D01*
X143814285Y-49811905D01*
X143814285Y-49573810D01*
X143861904Y-49478571D01*
X143909523Y-49430952D01*
X144004761Y-49383333D01*
X144195238Y-49383333D01*
X144290476Y-49430952D01*
X144338095Y-49478571D01*
X144385714Y-49573810D01*
X132988095Y-49952381D02*
X132988095Y-48952381D01*
X132607142Y-48952381D01*
X132511904Y-49000000D01*
X132464285Y-49047619D01*
X132416666Y-49142857D01*
X132416666Y-49285714D01*
X132464285Y-49380952D01*
X132511904Y-49428571D01*
X132607142Y-49476190D01*
X132988095Y-49476190D01*
X132035714Y-49047619D02*
X131988095Y-49000000D01*
X131892857Y-48952381D01*
X131654761Y-48952381D01*
X131559523Y-49000000D01*
X131511904Y-49047619D01*
X131464285Y-49142857D01*
X131464285Y-49238095D01*
X131511904Y-49380952D01*
X132083333Y-49952381D01*
X131464285Y-49952381D01*
X111047143Y-100377143D02*
X111094762Y-100329524D01*
X111142381Y-100186667D01*
X111142381Y-100091429D01*
X111094762Y-99948571D01*
X110999524Y-99853333D01*
X110904286Y-99805714D01*
X110713810Y-99758095D01*
X110570952Y-99758095D01*
X110380476Y-99805714D01*
X110285238Y-99853333D01*
X110190000Y-99948571D01*
X110142381Y-100091429D01*
X110142381Y-100186667D01*
X110190000Y-100329524D01*
X110237619Y-100377143D01*
X110142381Y-100710476D02*
X110142381Y-101329524D01*
X110523333Y-100996190D01*
X110523333Y-101139048D01*
X110570952Y-101234286D01*
X110618571Y-101281905D01*
X110713810Y-101329524D01*
X110951905Y-101329524D01*
X111047143Y-101281905D01*
X111094762Y-101234286D01*
X111142381Y-101139048D01*
X111142381Y-100853333D01*
X111094762Y-100758095D01*
X111047143Y-100710476D01*
X111142381Y-102281905D02*
X111142381Y-101710476D01*
X111142381Y-101996190D02*
X110142381Y-101996190D01*
X110285238Y-101900952D01*
X110380476Y-101805714D01*
X110428095Y-101710476D01*
X171740000Y-99771429D02*
X170978095Y-99771429D01*
X171359047Y-100152381D02*
X171359047Y-99390476D01*
X170597143Y-99152381D02*
X169978095Y-99152381D01*
X170311429Y-99533333D01*
X170168571Y-99533333D01*
X170073333Y-99580952D01*
X170025714Y-99628571D01*
X169978095Y-99723810D01*
X169978095Y-99961905D01*
X170025714Y-100057143D01*
X170073333Y-100104762D01*
X170168571Y-100152381D01*
X170454286Y-100152381D01*
X170549524Y-100104762D01*
X170597143Y-100057143D01*
X169549524Y-100057143D02*
X169501905Y-100104762D01*
X169549524Y-100152381D01*
X169597143Y-100104762D01*
X169549524Y-100057143D01*
X169549524Y-100152381D01*
X169168572Y-99152381D02*
X168549524Y-99152381D01*
X168882858Y-99533333D01*
X168740000Y-99533333D01*
X168644762Y-99580952D01*
X168597143Y-99628571D01*
X168549524Y-99723810D01*
X168549524Y-99961905D01*
X168597143Y-100057143D01*
X168644762Y-100104762D01*
X168740000Y-100152381D01*
X169025715Y-100152381D01*
X169120953Y-100104762D01*
X169168572Y-100057143D01*
X168263810Y-99152381D02*
X167930477Y-100152381D01*
X167597143Y-99152381D01*
X170601905Y-99232381D02*
X170030476Y-99232381D01*
X170316191Y-100232381D02*
X170316191Y-99232381D01*
X169697143Y-100232381D02*
X169697143Y-99232381D01*
X169316190Y-99232381D01*
X169220952Y-99280000D01*
X169173333Y-99327619D01*
X169125714Y-99422857D01*
X169125714Y-99565714D01*
X169173333Y-99660952D01*
X169220952Y-99708571D01*
X169316190Y-99756190D01*
X169697143Y-99756190D01*
X168173333Y-100232381D02*
X168744762Y-100232381D01*
X168459048Y-100232381D02*
X168459048Y-99232381D01*
X168554286Y-99375238D01*
X168649524Y-99470476D01*
X168744762Y-99518095D01*
M02*
