G04 #@! TF.FileFunction,Other,Fab,Top*
%FSLAX46Y46*%
G04 Gerber Fmt 4.6, Leading zero omitted, Abs format (unit mm)*
G04 Created by KiCad (PCBNEW 4.0.5) date 02/02/17 00:28:59*
%MOMM*%
%LPD*%
G01*
G04 APERTURE LIST*
%ADD10C,0.100000*%
%ADD11C,0.150000*%
%ADD12C,0.152400*%
G04 APERTURE END LIST*
D10*
D11*
X183990000Y-81850000D02*
X183990000Y-78850000D01*
X183990000Y-78850000D02*
X186490000Y-78850000D01*
X186490000Y-78850000D02*
X186490000Y-81850000D01*
X186490000Y-81850000D02*
X183990000Y-81850000D01*
D12*
X169570000Y-113360000D02*
X169570000Y-89360000D01*
X169570000Y-89360000D02*
X185570000Y-89360000D01*
X185570000Y-89360000D02*
X185570000Y-113360000D01*
X185570000Y-113360000D02*
X169570000Y-113360000D01*
D10*
X147003173Y-100491142D02*
X147568858Y-101056827D01*
X145871802Y-101622513D02*
X147003173Y-100491142D01*
X146437487Y-102188198D02*
X145871802Y-101622513D01*
X147568858Y-101056827D02*
X146437487Y-102188198D01*
X149096827Y-107028858D02*
X148531142Y-106463173D01*
X150228198Y-105897487D02*
X149096827Y-107028858D01*
X149662513Y-105331802D02*
X150228198Y-105897487D01*
X148531142Y-106463173D02*
X149662513Y-105331802D01*
X148920331Y-104135355D02*
X147293985Y-105761701D01*
X147293985Y-105761701D02*
X147152564Y-105761701D01*
X147152564Y-105761701D02*
X145879771Y-104488908D01*
X145879771Y-104488908D02*
X145879771Y-104347487D01*
X145879771Y-104347487D02*
X147506117Y-102721141D01*
X147506117Y-102721141D02*
X147647538Y-102721141D01*
X147647538Y-102721141D02*
X148920331Y-103993934D01*
X148920331Y-103993934D02*
X148920331Y-104135355D01*
X148283934Y-103357538D02*
X146869721Y-103357538D01*
D11*
X146411905Y-70402381D02*
X146507144Y-70402381D01*
X146602382Y-70450000D01*
X146650001Y-70497619D01*
X146697620Y-70592857D01*
X146745239Y-70783333D01*
X146745239Y-71021429D01*
X146697620Y-71211905D01*
X146650001Y-71307143D01*
X146602382Y-71354762D01*
X146507144Y-71402381D01*
X146411905Y-71402381D01*
X146316667Y-71354762D01*
X146269048Y-71307143D01*
X146221429Y-71211905D01*
X146173810Y-71021429D01*
X146173810Y-70783333D01*
X146221429Y-70592857D01*
X146269048Y-70497619D01*
X146316667Y-70450000D01*
X146411905Y-70402381D01*
X147173810Y-71307143D02*
X147221429Y-71354762D01*
X147173810Y-71402381D01*
X147126191Y-71354762D01*
X147173810Y-71307143D01*
X147173810Y-71402381D01*
X147840476Y-70402381D02*
X147935715Y-70402381D01*
X148030953Y-70450000D01*
X148078572Y-70497619D01*
X148126191Y-70592857D01*
X148173810Y-70783333D01*
X148173810Y-71021429D01*
X148126191Y-71211905D01*
X148078572Y-71307143D01*
X148030953Y-71354762D01*
X147935715Y-71402381D01*
X147840476Y-71402381D01*
X147745238Y-71354762D01*
X147697619Y-71307143D01*
X147650000Y-71211905D01*
X147602381Y-71021429D01*
X147602381Y-70783333D01*
X147650000Y-70592857D01*
X147697619Y-70497619D01*
X147745238Y-70450000D01*
X147840476Y-70402381D01*
X148554762Y-70497619D02*
X148602381Y-70450000D01*
X148697619Y-70402381D01*
X148935715Y-70402381D01*
X149030953Y-70450000D01*
X149078572Y-70497619D01*
X149126191Y-70592857D01*
X149126191Y-70688095D01*
X149078572Y-70830952D01*
X148507143Y-71402381D01*
X149126191Y-71402381D01*
X150126191Y-71402381D02*
X149792857Y-70926190D01*
X149554762Y-71402381D02*
X149554762Y-70402381D01*
X149935715Y-70402381D01*
X150030953Y-70450000D01*
X150078572Y-70497619D01*
X150126191Y-70592857D01*
X150126191Y-70735714D01*
X150078572Y-70830952D01*
X150030953Y-70878571D01*
X149935715Y-70926190D01*
X149554762Y-70926190D01*
X188192381Y-81588095D02*
X187716190Y-81921429D01*
X188192381Y-82159524D02*
X187192381Y-82159524D01*
X187192381Y-81778571D01*
X187240000Y-81683333D01*
X187287619Y-81635714D01*
X187382857Y-81588095D01*
X187525714Y-81588095D01*
X187620952Y-81635714D01*
X187668571Y-81683333D01*
X187716190Y-81778571D01*
X187716190Y-82159524D01*
X188144762Y-80778571D02*
X188192381Y-80873809D01*
X188192381Y-81064286D01*
X188144762Y-81159524D01*
X188049524Y-81207143D01*
X187668571Y-81207143D01*
X187573333Y-81159524D01*
X187525714Y-81064286D01*
X187525714Y-80873809D01*
X187573333Y-80778571D01*
X187668571Y-80730952D01*
X187763810Y-80730952D01*
X187859048Y-81207143D01*
X188144762Y-80350000D02*
X188192381Y-80254762D01*
X188192381Y-80064286D01*
X188144762Y-79969047D01*
X188049524Y-79921428D01*
X188001905Y-79921428D01*
X187906667Y-79969047D01*
X187859048Y-80064286D01*
X187859048Y-80207143D01*
X187811429Y-80302381D01*
X187716190Y-80350000D01*
X187668571Y-80350000D01*
X187573333Y-80302381D01*
X187525714Y-80207143D01*
X187525714Y-80064286D01*
X187573333Y-79969047D01*
X188144762Y-79111904D02*
X188192381Y-79207142D01*
X188192381Y-79397619D01*
X188144762Y-79492857D01*
X188049524Y-79540476D01*
X187668571Y-79540476D01*
X187573333Y-79492857D01*
X187525714Y-79397619D01*
X187525714Y-79207142D01*
X187573333Y-79111904D01*
X187668571Y-79064285D01*
X187763810Y-79064285D01*
X187859048Y-79540476D01*
X187525714Y-78778571D02*
X187525714Y-78397619D01*
X187192381Y-78635714D02*
X188049524Y-78635714D01*
X188144762Y-78588095D01*
X188192381Y-78492857D01*
X188192381Y-78397619D01*
X173950952Y-103888571D02*
X174284286Y-103888571D01*
X174427143Y-104412381D02*
X173950952Y-104412381D01*
X173950952Y-103412381D01*
X174427143Y-103412381D01*
X174808095Y-104364762D02*
X174950952Y-104412381D01*
X175189048Y-104412381D01*
X175284286Y-104364762D01*
X175331905Y-104317143D01*
X175379524Y-104221905D01*
X175379524Y-104126667D01*
X175331905Y-104031429D01*
X175284286Y-103983810D01*
X175189048Y-103936190D01*
X174998571Y-103888571D01*
X174903333Y-103840952D01*
X174855714Y-103793333D01*
X174808095Y-103698095D01*
X174808095Y-103602857D01*
X174855714Y-103507619D01*
X174903333Y-103460000D01*
X174998571Y-103412381D01*
X175236667Y-103412381D01*
X175379524Y-103460000D01*
X175808095Y-104412381D02*
X175808095Y-103412381D01*
X176189048Y-103412381D01*
X176284286Y-103460000D01*
X176331905Y-103507619D01*
X176379524Y-103602857D01*
X176379524Y-103745714D01*
X176331905Y-103840952D01*
X176284286Y-103888571D01*
X176189048Y-103936190D01*
X175808095Y-103936190D01*
X176808095Y-104031429D02*
X177570000Y-104031429D01*
X178236666Y-103412381D02*
X178331905Y-103412381D01*
X178427143Y-103460000D01*
X178474762Y-103507619D01*
X178522381Y-103602857D01*
X178570000Y-103793333D01*
X178570000Y-104031429D01*
X178522381Y-104221905D01*
X178474762Y-104317143D01*
X178427143Y-104364762D01*
X178331905Y-104412381D01*
X178236666Y-104412381D01*
X178141428Y-104364762D01*
X178093809Y-104317143D01*
X178046190Y-104221905D01*
X177998571Y-104031429D01*
X177998571Y-103793333D01*
X178046190Y-103602857D01*
X178093809Y-103507619D01*
X178141428Y-103460000D01*
X178236666Y-103412381D01*
X178903333Y-103412381D02*
X179570000Y-103412381D01*
X179141428Y-104412381D01*
X179855714Y-103745714D02*
X180093809Y-104412381D01*
X180331905Y-103745714D01*
X180665238Y-103507619D02*
X180712857Y-103460000D01*
X180808095Y-103412381D01*
X181046191Y-103412381D01*
X181141429Y-103460000D01*
X181189048Y-103507619D01*
X181236667Y-103602857D01*
X181236667Y-103698095D01*
X181189048Y-103840952D01*
X180617619Y-104412381D01*
X181236667Y-104412381D01*
X143592310Y-99077605D02*
X143188249Y-99481667D01*
X143390279Y-99279637D02*
X142683172Y-98572530D01*
X142716844Y-98740888D01*
X142716844Y-98875575D01*
X142683172Y-98976590D01*
X143322935Y-97932766D02*
X143390280Y-97865422D01*
X143491295Y-97831751D01*
X143558638Y-97831751D01*
X143659653Y-97865422D01*
X143828012Y-97966437D01*
X143996371Y-98134797D01*
X144097386Y-98303155D01*
X144131058Y-98404170D01*
X144131058Y-98471514D01*
X144097386Y-98572529D01*
X144030042Y-98639873D01*
X143929027Y-98673545D01*
X143861684Y-98673545D01*
X143760668Y-98639873D01*
X143592310Y-98538858D01*
X143423951Y-98370499D01*
X143322935Y-98202140D01*
X143289264Y-98101125D01*
X143289264Y-98033782D01*
X143322935Y-97932766D01*
X144568790Y-98101125D02*
X143861684Y-97394018D01*
X144366760Y-97764408D02*
X144838165Y-97831751D01*
X144366760Y-97360346D02*
X144366760Y-97899095D01*
X162792381Y-56801428D02*
X162792381Y-57372857D01*
X162792381Y-57087143D02*
X161792381Y-57087143D01*
X161935238Y-57182381D01*
X162030476Y-57277619D01*
X162078095Y-57372857D01*
X161792381Y-56182381D02*
X161792381Y-56087142D01*
X161840000Y-55991904D01*
X161887619Y-55944285D01*
X161982857Y-55896666D01*
X162173333Y-55849047D01*
X162411429Y-55849047D01*
X162601905Y-55896666D01*
X162697143Y-55944285D01*
X162744762Y-55991904D01*
X162792381Y-56087142D01*
X162792381Y-56182381D01*
X162744762Y-56277619D01*
X162697143Y-56325238D01*
X162601905Y-56372857D01*
X162411429Y-56420476D01*
X162173333Y-56420476D01*
X161982857Y-56372857D01*
X161887619Y-56325238D01*
X161840000Y-56277619D01*
X161792381Y-56182381D01*
X162125714Y-54991904D02*
X162792381Y-54991904D01*
X162125714Y-55420476D02*
X162649524Y-55420476D01*
X162744762Y-55372857D01*
X162792381Y-55277619D01*
X162792381Y-55134761D01*
X162744762Y-55039523D01*
X162697143Y-54991904D01*
X162268571Y-54182380D02*
X162268571Y-54515714D01*
X162792381Y-54515714D02*
X161792381Y-54515714D01*
X161792381Y-54039523D01*
X171617931Y-61487003D02*
X171617931Y-61820337D01*
X172141741Y-61820337D02*
X171141741Y-61820337D01*
X171141741Y-61344146D01*
X172236979Y-61201289D02*
X172236979Y-60439384D01*
X172094122Y-60248908D02*
X172141741Y-60106051D01*
X172141741Y-59867955D01*
X172094122Y-59772717D01*
X172046503Y-59725098D01*
X171951265Y-59677479D01*
X171856027Y-59677479D01*
X171760789Y-59725098D01*
X171713170Y-59772717D01*
X171665550Y-59867955D01*
X171617931Y-60058432D01*
X171570312Y-60153670D01*
X171522693Y-60201289D01*
X171427455Y-60248908D01*
X171332217Y-60248908D01*
X171236979Y-60201289D01*
X171189360Y-60153670D01*
X171141741Y-60058432D01*
X171141741Y-59820336D01*
X171189360Y-59677479D01*
X172141741Y-59248908D02*
X171475074Y-59248908D01*
X171570312Y-59248908D02*
X171522693Y-59201289D01*
X171475074Y-59106051D01*
X171475074Y-58963193D01*
X171522693Y-58867955D01*
X171617931Y-58820336D01*
X172141741Y-58820336D01*
X171617931Y-58820336D02*
X171522693Y-58772717D01*
X171475074Y-58677479D01*
X171475074Y-58534622D01*
X171522693Y-58439384D01*
X171617931Y-58391765D01*
X172141741Y-58391765D01*
X172141741Y-57487003D02*
X171617931Y-57487003D01*
X171522693Y-57534622D01*
X171475074Y-57629860D01*
X171475074Y-57820337D01*
X171522693Y-57915575D01*
X172094122Y-57487003D02*
X172141741Y-57582241D01*
X172141741Y-57820337D01*
X172094122Y-57915575D01*
X171998884Y-57963194D01*
X171903646Y-57963194D01*
X171808408Y-57915575D01*
X171760789Y-57820337D01*
X171760789Y-57582241D01*
X171713170Y-57487003D01*
X172141741Y-56867956D02*
X172094122Y-56963194D01*
X171998884Y-57010813D01*
X171141741Y-57010813D01*
X172141741Y-56344146D02*
X172094122Y-56439384D01*
X171998884Y-56487003D01*
X171141741Y-56487003D01*
X152489095Y-103982499D02*
X152825813Y-103645781D01*
X152623782Y-104251873D02*
X152152377Y-103309064D01*
X153095187Y-103780468D01*
X152522767Y-102938675D02*
X152926828Y-102534613D01*
X153431904Y-103443751D02*
X152724797Y-102736644D01*
X153869637Y-103006018D02*
X153398232Y-102534613D01*
X153465576Y-102601957D02*
X153465576Y-102534613D01*
X153499248Y-102433598D01*
X153600263Y-102332582D01*
X153701279Y-102298911D01*
X153802294Y-102332582D01*
X154172683Y-102702972D01*
X153802294Y-102332582D02*
X153768622Y-102231567D01*
X153802294Y-102130552D01*
X153903309Y-102029537D01*
X154004324Y-101995865D01*
X154105339Y-102029537D01*
X154475729Y-102399927D01*
X155048149Y-101760163D02*
X155014477Y-101861178D01*
X154879789Y-101995866D01*
X154778774Y-102029538D01*
X154677759Y-101995866D01*
X154408385Y-101726491D01*
X154374713Y-101625476D01*
X154408385Y-101524461D01*
X154543072Y-101389774D01*
X154644087Y-101356102D01*
X154745103Y-101389774D01*
X154812447Y-101457118D01*
X154543072Y-101861179D01*
X155250179Y-100682667D02*
X155822599Y-101255087D01*
X155856271Y-101356102D01*
X155856271Y-101423445D01*
X155822598Y-101524461D01*
X155721583Y-101625476D01*
X155620568Y-101659148D01*
X155687912Y-101120400D02*
X155654240Y-101221415D01*
X155519553Y-101356103D01*
X155418538Y-101389774D01*
X155351194Y-101389774D01*
X155250179Y-101356103D01*
X155048148Y-101154072D01*
X155014476Y-101053056D01*
X155014476Y-100985713D01*
X155048148Y-100884698D01*
X155182836Y-100750010D01*
X155283851Y-100716339D01*
X156361347Y-100514308D02*
X155990958Y-100143919D01*
X155889942Y-100110247D01*
X155788927Y-100143919D01*
X155654240Y-100278606D01*
X155620568Y-100379621D01*
X156327675Y-100480636D02*
X156294004Y-100581652D01*
X156125644Y-100750011D01*
X156024629Y-100783683D01*
X155923614Y-100750011D01*
X155856271Y-100682667D01*
X155822599Y-100581652D01*
X155856271Y-100480637D01*
X156024630Y-100312278D01*
X156058302Y-100211263D01*
X156294004Y-99167438D02*
X156159316Y-99302126D01*
X156125644Y-99403141D01*
X156125644Y-99470484D01*
X156159316Y-99638843D01*
X156260331Y-99807201D01*
X156529706Y-100076576D01*
X156630721Y-100110248D01*
X156698064Y-100110248D01*
X156799079Y-100076576D01*
X156933767Y-99941888D01*
X156967439Y-99840873D01*
X156967439Y-99773530D01*
X156933767Y-99672515D01*
X156765408Y-99504156D01*
X156664393Y-99470484D01*
X156597049Y-99470484D01*
X156496034Y-99504155D01*
X156361346Y-99638843D01*
X156327675Y-99739858D01*
X156327675Y-99807201D01*
X156361347Y-99908217D01*
X157203141Y-98729705D02*
X157674546Y-99201110D01*
X156765408Y-98628691D02*
X157102126Y-99302126D01*
X157539859Y-98864393D01*
X157876576Y-98056270D02*
X158347981Y-98527675D01*
X157438843Y-97955256D02*
X157775561Y-98628691D01*
X158213294Y-98190958D01*
X158448996Y-97887912D02*
X158987744Y-97349164D01*
X158920400Y-96675729D02*
X158920400Y-96608385D01*
X158954072Y-96507370D01*
X159122431Y-96339011D01*
X159223446Y-96305339D01*
X159290789Y-96305339D01*
X159391805Y-96339011D01*
X159459148Y-96406354D01*
X159526491Y-96541041D01*
X159526491Y-97349164D01*
X159964224Y-96911431D01*
X159694850Y-95766592D02*
X159762194Y-95699248D01*
X159863209Y-95665576D01*
X159930553Y-95665576D01*
X160031568Y-95699248D01*
X160199927Y-95800263D01*
X160368286Y-95968622D01*
X160469301Y-96136981D01*
X160502973Y-96237996D01*
X160502973Y-96305339D01*
X160469301Y-96406354D01*
X160401957Y-96473699D01*
X160300942Y-96507370D01*
X160233598Y-96507370D01*
X160132583Y-96473699D01*
X159964224Y-96372683D01*
X159795865Y-96204324D01*
X159694850Y-96035965D01*
X159661178Y-95934950D01*
X159661178Y-95867607D01*
X159694850Y-95766592D01*
X160705003Y-95766592D02*
X161041721Y-95429874D01*
X160839690Y-96035965D02*
X160368285Y-95093157D01*
X161311095Y-95564561D01*
X160839690Y-94621752D02*
X161412110Y-95194172D01*
X161513125Y-95227844D01*
X161580468Y-95227844D01*
X161681484Y-95194172D01*
X161816171Y-95059484D01*
X161849843Y-94958469D01*
X161849843Y-94891126D01*
X161816171Y-94790111D01*
X161243751Y-94217691D01*
X146533334Y-74002381D02*
X145961905Y-74002381D01*
X146247619Y-74002381D02*
X146247619Y-73002381D01*
X146152381Y-73145238D01*
X146057143Y-73240476D01*
X145961905Y-73288095D01*
X146961905Y-73335714D02*
X146961905Y-74002381D01*
X146961905Y-73430952D02*
X147009524Y-73383333D01*
X147104762Y-73335714D01*
X147247620Y-73335714D01*
X147342858Y-73383333D01*
X147390477Y-73478571D01*
X147390477Y-74002381D01*
X150952381Y-74576190D02*
X150952381Y-75052381D01*
X149952381Y-75052381D01*
X149952381Y-74385714D02*
X149952381Y-73814285D01*
X150952381Y-74100000D02*
X149952381Y-74100000D01*
X149952381Y-73052380D02*
X149952381Y-73242857D01*
X150000000Y-73338095D01*
X150047619Y-73385714D01*
X150190476Y-73480952D01*
X150380952Y-73528571D01*
X150761905Y-73528571D01*
X150857143Y-73480952D01*
X150904762Y-73433333D01*
X150952381Y-73338095D01*
X150952381Y-73147618D01*
X150904762Y-73052380D01*
X150857143Y-73004761D01*
X150761905Y-72957142D01*
X150523810Y-72957142D01*
X150428571Y-73004761D01*
X150380952Y-73052380D01*
X150333333Y-73147618D01*
X150333333Y-73338095D01*
X150380952Y-73433333D01*
X150428571Y-73480952D01*
X150523810Y-73528571D01*
X150952381Y-72004761D02*
X150952381Y-72576190D01*
X150952381Y-72290476D02*
X149952381Y-72290476D01*
X150095238Y-72385714D01*
X150190476Y-72480952D01*
X150238095Y-72576190D01*
X149952381Y-71385714D02*
X149952381Y-71290475D01*
X150000000Y-71195237D01*
X150047619Y-71147618D01*
X150142857Y-71099999D01*
X150333333Y-71052380D01*
X150571429Y-71052380D01*
X150761905Y-71099999D01*
X150857143Y-71147618D01*
X150904762Y-71195237D01*
X150952381Y-71290475D01*
X150952381Y-71385714D01*
X150904762Y-71480952D01*
X150857143Y-71528571D01*
X150761905Y-71576190D01*
X150571429Y-71623809D01*
X150333333Y-71623809D01*
X150142857Y-71576190D01*
X150047619Y-71528571D01*
X150000000Y-71480952D01*
X149952381Y-71385714D01*
X149952381Y-70195237D02*
X149952381Y-70385714D01*
X150000000Y-70480952D01*
X150047619Y-70528571D01*
X150190476Y-70623809D01*
X150380952Y-70671428D01*
X150761905Y-70671428D01*
X150857143Y-70623809D01*
X150904762Y-70576190D01*
X150952381Y-70480952D01*
X150952381Y-70290475D01*
X150904762Y-70195237D01*
X150857143Y-70147618D01*
X150761905Y-70099999D01*
X150523810Y-70099999D01*
X150428571Y-70147618D01*
X150380952Y-70195237D01*
X150333333Y-70290475D01*
X150333333Y-70480952D01*
X150380952Y-70576190D01*
X150428571Y-70623809D01*
X150523810Y-70671428D01*
X160372381Y-74716190D02*
X160372381Y-75192381D01*
X159372381Y-75192381D01*
X159372381Y-74525714D02*
X159372381Y-73954285D01*
X160372381Y-74240000D02*
X159372381Y-74240000D01*
X159372381Y-73192380D02*
X159372381Y-73382857D01*
X159420000Y-73478095D01*
X159467619Y-73525714D01*
X159610476Y-73620952D01*
X159800952Y-73668571D01*
X160181905Y-73668571D01*
X160277143Y-73620952D01*
X160324762Y-73573333D01*
X160372381Y-73478095D01*
X160372381Y-73287618D01*
X160324762Y-73192380D01*
X160277143Y-73144761D01*
X160181905Y-73097142D01*
X159943810Y-73097142D01*
X159848571Y-73144761D01*
X159800952Y-73192380D01*
X159753333Y-73287618D01*
X159753333Y-73478095D01*
X159800952Y-73573333D01*
X159848571Y-73620952D01*
X159943810Y-73668571D01*
X160372381Y-72144761D02*
X160372381Y-72716190D01*
X160372381Y-72430476D02*
X159372381Y-72430476D01*
X159515238Y-72525714D01*
X159610476Y-72620952D01*
X159658095Y-72716190D01*
X159372381Y-71525714D02*
X159372381Y-71430475D01*
X159420000Y-71335237D01*
X159467619Y-71287618D01*
X159562857Y-71239999D01*
X159753333Y-71192380D01*
X159991429Y-71192380D01*
X160181905Y-71239999D01*
X160277143Y-71287618D01*
X160324762Y-71335237D01*
X160372381Y-71430475D01*
X160372381Y-71525714D01*
X160324762Y-71620952D01*
X160277143Y-71668571D01*
X160181905Y-71716190D01*
X159991429Y-71763809D01*
X159753333Y-71763809D01*
X159562857Y-71716190D01*
X159467619Y-71668571D01*
X159420000Y-71620952D01*
X159372381Y-71525714D01*
X159372381Y-70335237D02*
X159372381Y-70525714D01*
X159420000Y-70620952D01*
X159467619Y-70668571D01*
X159610476Y-70763809D01*
X159800952Y-70811428D01*
X160181905Y-70811428D01*
X160277143Y-70763809D01*
X160324762Y-70716190D01*
X160372381Y-70620952D01*
X160372381Y-70430475D01*
X160324762Y-70335237D01*
X160277143Y-70287618D01*
X160181905Y-70239999D01*
X159943810Y-70239999D01*
X159848571Y-70287618D01*
X159800952Y-70335237D01*
X159753333Y-70430475D01*
X159753333Y-70620952D01*
X159800952Y-70716190D01*
X159848571Y-70763809D01*
X159943810Y-70811428D01*
X158922381Y-74056666D02*
X158922381Y-74628095D01*
X158922381Y-74342381D02*
X157922381Y-74342381D01*
X158065238Y-74437619D01*
X158160476Y-74532857D01*
X158208095Y-74628095D01*
X157922381Y-73437619D02*
X157922381Y-73342380D01*
X157970000Y-73247142D01*
X158017619Y-73199523D01*
X158112857Y-73151904D01*
X158303333Y-73104285D01*
X158541429Y-73104285D01*
X158731905Y-73151904D01*
X158827143Y-73199523D01*
X158874762Y-73247142D01*
X158922381Y-73342380D01*
X158922381Y-73437619D01*
X158874762Y-73532857D01*
X158827143Y-73580476D01*
X158731905Y-73628095D01*
X158541429Y-73675714D01*
X158303333Y-73675714D01*
X158112857Y-73628095D01*
X158017619Y-73580476D01*
X157970000Y-73532857D01*
X157922381Y-73437619D01*
X157922381Y-72485238D02*
X157922381Y-72389999D01*
X157970000Y-72294761D01*
X158017619Y-72247142D01*
X158112857Y-72199523D01*
X158303333Y-72151904D01*
X158541429Y-72151904D01*
X158731905Y-72199523D01*
X158827143Y-72247142D01*
X158874762Y-72294761D01*
X158922381Y-72389999D01*
X158922381Y-72485238D01*
X158874762Y-72580476D01*
X158827143Y-72628095D01*
X158731905Y-72675714D01*
X158541429Y-72723333D01*
X158303333Y-72723333D01*
X158112857Y-72675714D01*
X158017619Y-72628095D01*
X157970000Y-72580476D01*
X157922381Y-72485238D01*
X158922381Y-71151904D02*
X158446190Y-71485238D01*
X158922381Y-71723333D02*
X157922381Y-71723333D01*
X157922381Y-71342380D01*
X157970000Y-71247142D01*
X158017619Y-71199523D01*
X158112857Y-71151904D01*
X158255714Y-71151904D01*
X158350952Y-71199523D01*
X158398571Y-71247142D01*
X158446190Y-71342380D01*
X158446190Y-71723333D01*
X156872381Y-73809047D02*
X156872381Y-74380476D01*
X156872381Y-74094762D02*
X155872381Y-74094762D01*
X156015238Y-74190000D01*
X156110476Y-74285238D01*
X156158095Y-74380476D01*
X155872381Y-73190000D02*
X155872381Y-73094761D01*
X155920000Y-72999523D01*
X155967619Y-72951904D01*
X156062857Y-72904285D01*
X156253333Y-72856666D01*
X156491429Y-72856666D01*
X156681905Y-72904285D01*
X156777143Y-72951904D01*
X156824762Y-72999523D01*
X156872381Y-73094761D01*
X156872381Y-73190000D01*
X156824762Y-73285238D01*
X156777143Y-73332857D01*
X156681905Y-73380476D01*
X156491429Y-73428095D01*
X156253333Y-73428095D01*
X156062857Y-73380476D01*
X155967619Y-73332857D01*
X155920000Y-73285238D01*
X155872381Y-73190000D01*
X155872381Y-72237619D02*
X155872381Y-72142380D01*
X155920000Y-72047142D01*
X155967619Y-71999523D01*
X156062857Y-71951904D01*
X156253333Y-71904285D01*
X156491429Y-71904285D01*
X156681905Y-71951904D01*
X156777143Y-71999523D01*
X156824762Y-72047142D01*
X156872381Y-72142380D01*
X156872381Y-72237619D01*
X156824762Y-72332857D01*
X156777143Y-72380476D01*
X156681905Y-72428095D01*
X156491429Y-72475714D01*
X156253333Y-72475714D01*
X156062857Y-72428095D01*
X155967619Y-72380476D01*
X155920000Y-72332857D01*
X155872381Y-72237619D01*
X156205714Y-71475714D02*
X156872381Y-71475714D01*
X156300952Y-71475714D02*
X156253333Y-71428095D01*
X156205714Y-71332857D01*
X156205714Y-71189999D01*
X156253333Y-71094761D01*
X156348571Y-71047142D01*
X156872381Y-71047142D01*
X155881905Y-70542381D02*
X155977144Y-70542381D01*
X156072382Y-70590000D01*
X156120001Y-70637619D01*
X156167620Y-70732857D01*
X156215239Y-70923333D01*
X156215239Y-71161429D01*
X156167620Y-71351905D01*
X156120001Y-71447143D01*
X156072382Y-71494762D01*
X155977144Y-71542381D01*
X155881905Y-71542381D01*
X155786667Y-71494762D01*
X155739048Y-71447143D01*
X155691429Y-71351905D01*
X155643810Y-71161429D01*
X155643810Y-70923333D01*
X155691429Y-70732857D01*
X155739048Y-70637619D01*
X155786667Y-70590000D01*
X155881905Y-70542381D01*
X156643810Y-71447143D02*
X156691429Y-71494762D01*
X156643810Y-71542381D01*
X156596191Y-71494762D01*
X156643810Y-71447143D01*
X156643810Y-71542381D01*
X157310476Y-70542381D02*
X157405715Y-70542381D01*
X157500953Y-70590000D01*
X157548572Y-70637619D01*
X157596191Y-70732857D01*
X157643810Y-70923333D01*
X157643810Y-71161429D01*
X157596191Y-71351905D01*
X157548572Y-71447143D01*
X157500953Y-71494762D01*
X157405715Y-71542381D01*
X157310476Y-71542381D01*
X157215238Y-71494762D01*
X157167619Y-71447143D01*
X157120000Y-71351905D01*
X157072381Y-71161429D01*
X157072381Y-70923333D01*
X157120000Y-70732857D01*
X157167619Y-70637619D01*
X157215238Y-70590000D01*
X157310476Y-70542381D01*
X158024762Y-70637619D02*
X158072381Y-70590000D01*
X158167619Y-70542381D01*
X158405715Y-70542381D01*
X158500953Y-70590000D01*
X158548572Y-70637619D01*
X158596191Y-70732857D01*
X158596191Y-70828095D01*
X158548572Y-70970952D01*
X157977143Y-71542381D01*
X158596191Y-71542381D01*
X159596191Y-71542381D02*
X159262857Y-71066190D01*
X159024762Y-71542381D02*
X159024762Y-70542381D01*
X159405715Y-70542381D01*
X159500953Y-70590000D01*
X159548572Y-70637619D01*
X159596191Y-70732857D01*
X159596191Y-70875714D01*
X159548572Y-70970952D01*
X159500953Y-71018571D01*
X159405715Y-71066190D01*
X159024762Y-71066190D01*
X146009524Y-76302381D02*
X145438095Y-76302381D01*
X145723809Y-76302381D02*
X145723809Y-75302381D01*
X145628571Y-75445238D01*
X145533333Y-75540476D01*
X145438095Y-75588095D01*
X146628571Y-75302381D02*
X146723810Y-75302381D01*
X146819048Y-75350000D01*
X146866667Y-75397619D01*
X146914286Y-75492857D01*
X146961905Y-75683333D01*
X146961905Y-75921429D01*
X146914286Y-76111905D01*
X146866667Y-76207143D01*
X146819048Y-76254762D01*
X146723810Y-76302381D01*
X146628571Y-76302381D01*
X146533333Y-76254762D01*
X146485714Y-76207143D01*
X146438095Y-76111905D01*
X146390476Y-75921429D01*
X146390476Y-75683333D01*
X146438095Y-75492857D01*
X146485714Y-75397619D01*
X146533333Y-75350000D01*
X146628571Y-75302381D01*
X147390476Y-76302381D02*
X147390476Y-75302381D01*
X147961905Y-76302381D02*
X147533333Y-75730952D01*
X147961905Y-75302381D02*
X147390476Y-75873810D01*
X116978571Y-74454761D02*
X116978571Y-74788095D01*
X117502381Y-74788095D02*
X116502381Y-74788095D01*
X116502381Y-74311904D01*
X116978571Y-73930952D02*
X116978571Y-73597618D01*
X117502381Y-73454761D02*
X117502381Y-73930952D01*
X116502381Y-73930952D01*
X116502381Y-73454761D01*
X117502381Y-72502380D02*
X117502381Y-73073809D01*
X117502381Y-72788095D02*
X116502381Y-72788095D01*
X116645238Y-72883333D01*
X116740476Y-72978571D01*
X116788095Y-73073809D01*
X117407143Y-72073809D02*
X117454762Y-72026190D01*
X117502381Y-72073809D01*
X117454762Y-72121428D01*
X117407143Y-72073809D01*
X117502381Y-72073809D01*
X117502381Y-71073809D02*
X117502381Y-71645238D01*
X117502381Y-71359524D02*
X116502381Y-71359524D01*
X116645238Y-71454762D01*
X116740476Y-71550000D01*
X116788095Y-71645238D01*
X117454762Y-70692857D02*
X117502381Y-70597619D01*
X117502381Y-70407143D01*
X117454762Y-70311904D01*
X117359524Y-70264285D01*
X117311905Y-70264285D01*
X117216667Y-70311904D01*
X117169048Y-70407143D01*
X117169048Y-70550000D01*
X117121429Y-70645238D01*
X117026190Y-70692857D01*
X116978571Y-70692857D01*
X116883333Y-70645238D01*
X116835714Y-70550000D01*
X116835714Y-70407143D01*
X116883333Y-70311904D01*
X132052381Y-79399047D02*
X132052381Y-79970476D01*
X132052381Y-79684762D02*
X131052381Y-79684762D01*
X131195238Y-79780000D01*
X131290476Y-79875238D01*
X131338095Y-79970476D01*
X131147619Y-79018095D02*
X131100000Y-78970476D01*
X131052381Y-78875238D01*
X131052381Y-78637142D01*
X131100000Y-78541904D01*
X131147619Y-78494285D01*
X131242857Y-78446666D01*
X131338095Y-78446666D01*
X131480952Y-78494285D01*
X132052381Y-79065714D01*
X132052381Y-78446666D01*
X132052381Y-78018095D02*
X131052381Y-78018095D01*
X131766667Y-77684761D01*
X131052381Y-77351428D01*
X132052381Y-77351428D01*
X132052381Y-76875238D02*
X131052381Y-76875238D01*
X132052381Y-76446666D02*
X131528571Y-76446666D01*
X131433333Y-76494285D01*
X131385714Y-76589523D01*
X131385714Y-76732381D01*
X131433333Y-76827619D01*
X131480952Y-76875238D01*
X131385714Y-76065714D02*
X131385714Y-75541904D01*
X132052381Y-76065714D01*
X132052381Y-75541904D01*
X119533334Y-106052381D02*
X119057143Y-106052381D01*
X119057143Y-105052381D01*
X119866667Y-106052381D02*
X119866667Y-105052381D01*
X120200001Y-105766667D01*
X120533334Y-105052381D01*
X120533334Y-106052381D01*
X120914286Y-105052381D02*
X121533334Y-105052381D01*
X121200000Y-105433333D01*
X121342858Y-105433333D01*
X121438096Y-105480952D01*
X121485715Y-105528571D01*
X121533334Y-105623810D01*
X121533334Y-105861905D01*
X121485715Y-105957143D01*
X121438096Y-106004762D01*
X121342858Y-106052381D01*
X121057143Y-106052381D01*
X120961905Y-106004762D01*
X120914286Y-105957143D01*
X122485715Y-106052381D02*
X121914286Y-106052381D01*
X122200000Y-106052381D02*
X122200000Y-105052381D01*
X122104762Y-105195238D01*
X122009524Y-105290476D01*
X121914286Y-105338095D01*
X123390477Y-105052381D02*
X122914286Y-105052381D01*
X122866667Y-105528571D01*
X122914286Y-105480952D01*
X123009524Y-105433333D01*
X123247620Y-105433333D01*
X123342858Y-105480952D01*
X123390477Y-105528571D01*
X123438096Y-105623810D01*
X123438096Y-105861905D01*
X123390477Y-105957143D01*
X123342858Y-106004762D01*
X123247620Y-106052381D01*
X123009524Y-106052381D01*
X122914286Y-106004762D01*
X122866667Y-105957143D01*
X124057143Y-105052381D02*
X124152382Y-105052381D01*
X124247620Y-105100000D01*
X124295239Y-105147619D01*
X124342858Y-105242857D01*
X124390477Y-105433333D01*
X124390477Y-105671429D01*
X124342858Y-105861905D01*
X124295239Y-105957143D01*
X124247620Y-106004762D01*
X124152382Y-106052381D01*
X124057143Y-106052381D01*
X123961905Y-106004762D01*
X123914286Y-105957143D01*
X123866667Y-105861905D01*
X123819048Y-105671429D01*
X123819048Y-105433333D01*
X123866667Y-105242857D01*
X123914286Y-105147619D01*
X123961905Y-105100000D01*
X124057143Y-105052381D01*
X99702381Y-57720449D02*
X99702381Y-58196640D01*
X98702381Y-58196640D01*
X99654762Y-57006163D02*
X99702381Y-57101401D01*
X99702381Y-57291878D01*
X99654762Y-57387116D01*
X99559524Y-57434735D01*
X99178571Y-57434735D01*
X99083333Y-57387116D01*
X99035714Y-57291878D01*
X99035714Y-57101401D01*
X99083333Y-57006163D01*
X99178571Y-56958544D01*
X99273810Y-56958544D01*
X99369048Y-57434735D01*
X99702381Y-56101401D02*
X98702381Y-56101401D01*
X99654762Y-56101401D02*
X99702381Y-56196639D01*
X99702381Y-56387116D01*
X99654762Y-56482354D01*
X99607143Y-56529973D01*
X99511905Y-56577592D01*
X99226190Y-56577592D01*
X99130952Y-56529973D01*
X99083333Y-56482354D01*
X99035714Y-56387116D01*
X99035714Y-56196639D01*
X99083333Y-56101401D01*
X99797619Y-55863306D02*
X99797619Y-55101401D01*
X99654762Y-54910925D02*
X99702381Y-54768068D01*
X99702381Y-54529972D01*
X99654762Y-54434734D01*
X99607143Y-54387115D01*
X99511905Y-54339496D01*
X99416667Y-54339496D01*
X99321429Y-54387115D01*
X99273810Y-54434734D01*
X99226190Y-54529972D01*
X99178571Y-54720449D01*
X99130952Y-54815687D01*
X99083333Y-54863306D01*
X98988095Y-54910925D01*
X98892857Y-54910925D01*
X98797619Y-54863306D01*
X98750000Y-54815687D01*
X98702381Y-54720449D01*
X98702381Y-54482353D01*
X98750000Y-54339496D01*
X99702381Y-53910925D02*
X99035714Y-53910925D01*
X99130952Y-53910925D02*
X99083333Y-53863306D01*
X99035714Y-53768068D01*
X99035714Y-53625210D01*
X99083333Y-53529972D01*
X99178571Y-53482353D01*
X99702381Y-53482353D01*
X99178571Y-53482353D02*
X99083333Y-53434734D01*
X99035714Y-53339496D01*
X99035714Y-53196639D01*
X99083333Y-53101401D01*
X99178571Y-53053782D01*
X99702381Y-53053782D01*
X99702381Y-52149020D02*
X99178571Y-52149020D01*
X99083333Y-52196639D01*
X99035714Y-52291877D01*
X99035714Y-52482354D01*
X99083333Y-52577592D01*
X99654762Y-52149020D02*
X99702381Y-52244258D01*
X99702381Y-52482354D01*
X99654762Y-52577592D01*
X99559524Y-52625211D01*
X99464286Y-52625211D01*
X99369048Y-52577592D01*
X99321429Y-52482354D01*
X99321429Y-52244258D01*
X99273810Y-52149020D01*
X99702381Y-51529973D02*
X99654762Y-51625211D01*
X99559524Y-51672830D01*
X98702381Y-51672830D01*
X99702381Y-51006163D02*
X99654762Y-51101401D01*
X99559524Y-51149020D01*
X98702381Y-51149020D01*
X127683334Y-102502381D02*
X127111905Y-102502381D01*
X127397619Y-102502381D02*
X127397619Y-101502381D01*
X127302381Y-101645238D01*
X127207143Y-101740476D01*
X127111905Y-101788095D01*
X128111905Y-102502381D02*
X128111905Y-101502381D01*
X128683334Y-102502381D02*
X128254762Y-101930952D01*
X128683334Y-101502381D02*
X128111905Y-102073810D01*
X129302381Y-101502381D02*
X129397620Y-101502381D01*
X129492858Y-101550000D01*
X129540477Y-101597619D01*
X129588096Y-101692857D01*
X129635715Y-101883333D01*
X129635715Y-102121429D01*
X129588096Y-102311905D01*
X129540477Y-102407143D01*
X129492858Y-102454762D01*
X129397620Y-102502381D01*
X129302381Y-102502381D01*
X129207143Y-102454762D01*
X129159524Y-102407143D01*
X129111905Y-102311905D01*
X129064286Y-102121429D01*
X129064286Y-101883333D01*
X129111905Y-101692857D01*
X129159524Y-101597619D01*
X129207143Y-101550000D01*
X129302381Y-101502381D01*
X129969048Y-101502381D02*
X130635715Y-101502381D01*
X130207143Y-102502381D01*
X112933334Y-104702381D02*
X112361905Y-104702381D01*
X112647619Y-104702381D02*
X112647619Y-103702381D01*
X112552381Y-103845238D01*
X112457143Y-103940476D01*
X112361905Y-103988095D01*
X113552381Y-103702381D02*
X113647620Y-103702381D01*
X113742858Y-103750000D01*
X113790477Y-103797619D01*
X113838096Y-103892857D01*
X113885715Y-104083333D01*
X113885715Y-104321429D01*
X113838096Y-104511905D01*
X113790477Y-104607143D01*
X113742858Y-104654762D01*
X113647620Y-104702381D01*
X113552381Y-104702381D01*
X113457143Y-104654762D01*
X113409524Y-104607143D01*
X113361905Y-104511905D01*
X113314286Y-104321429D01*
X113314286Y-104083333D01*
X113361905Y-103892857D01*
X113409524Y-103797619D01*
X113457143Y-103750000D01*
X113552381Y-103702381D01*
X114504762Y-103702381D02*
X114600001Y-103702381D01*
X114695239Y-103750000D01*
X114742858Y-103797619D01*
X114790477Y-103892857D01*
X114838096Y-104083333D01*
X114838096Y-104321429D01*
X114790477Y-104511905D01*
X114742858Y-104607143D01*
X114695239Y-104654762D01*
X114600001Y-104702381D01*
X114504762Y-104702381D01*
X114409524Y-104654762D01*
X114361905Y-104607143D01*
X114314286Y-104511905D01*
X114266667Y-104321429D01*
X114266667Y-104083333D01*
X114314286Y-103892857D01*
X114361905Y-103797619D01*
X114409524Y-103750000D01*
X114504762Y-103702381D01*
X115266667Y-104702381D02*
X115266667Y-103702381D01*
X115838096Y-104702381D02*
X115409524Y-104130952D01*
X115838096Y-103702381D02*
X115266667Y-104273810D01*
X119957143Y-110085714D02*
X119957143Y-110752381D01*
X119719047Y-109704762D02*
X119480952Y-110419048D01*
X120100000Y-110419048D01*
X120385714Y-109752381D02*
X121052381Y-109752381D01*
X120623809Y-110752381D01*
X121623809Y-109752381D02*
X121719048Y-109752381D01*
X121814286Y-109800000D01*
X121861905Y-109847619D01*
X121909524Y-109942857D01*
X121957143Y-110133333D01*
X121957143Y-110371429D01*
X121909524Y-110561905D01*
X121861905Y-110657143D01*
X121814286Y-110704762D01*
X121719048Y-110752381D01*
X121623809Y-110752381D01*
X121528571Y-110704762D01*
X121480952Y-110657143D01*
X121433333Y-110561905D01*
X121385714Y-110371429D01*
X121385714Y-110133333D01*
X121433333Y-109942857D01*
X121480952Y-109847619D01*
X121528571Y-109800000D01*
X121623809Y-109752381D01*
X122385714Y-110085714D02*
X122385714Y-111085714D01*
X122385714Y-110133333D02*
X122480952Y-110085714D01*
X122671429Y-110085714D01*
X122766667Y-110133333D01*
X122814286Y-110180952D01*
X122861905Y-110276190D01*
X122861905Y-110561905D01*
X122814286Y-110657143D01*
X122766667Y-110704762D01*
X122671429Y-110752381D01*
X122480952Y-110752381D01*
X122385714Y-110704762D01*
X123623810Y-110228571D02*
X123290476Y-110228571D01*
X123290476Y-110752381D02*
X123290476Y-109752381D01*
X123766667Y-109752381D01*
X109202381Y-100345238D02*
X109202381Y-100916667D01*
X109202381Y-100630953D02*
X108202381Y-100630953D01*
X108345238Y-100726191D01*
X108440476Y-100821429D01*
X108488095Y-100916667D01*
X108535714Y-99488095D02*
X109202381Y-99488095D01*
X108535714Y-99916667D02*
X109059524Y-99916667D01*
X109154762Y-99869048D01*
X109202381Y-99773810D01*
X109202381Y-99630952D01*
X109154762Y-99535714D01*
X109107143Y-99488095D01*
X108678571Y-98678571D02*
X108678571Y-99011905D01*
X109202381Y-99011905D02*
X108202381Y-99011905D01*
X108202381Y-98535714D01*
X129307143Y-99285714D02*
X129307143Y-99952381D01*
X129069047Y-98904762D02*
X128830952Y-99619048D01*
X129450000Y-99619048D01*
X129735714Y-98952381D02*
X130402381Y-98952381D01*
X129973809Y-99952381D01*
X130973809Y-98952381D02*
X131069048Y-98952381D01*
X131164286Y-99000000D01*
X131211905Y-99047619D01*
X131259524Y-99142857D01*
X131307143Y-99333333D01*
X131307143Y-99571429D01*
X131259524Y-99761905D01*
X131211905Y-99857143D01*
X131164286Y-99904762D01*
X131069048Y-99952381D01*
X130973809Y-99952381D01*
X130878571Y-99904762D01*
X130830952Y-99857143D01*
X130783333Y-99761905D01*
X130735714Y-99571429D01*
X130735714Y-99333333D01*
X130783333Y-99142857D01*
X130830952Y-99047619D01*
X130878571Y-99000000D01*
X130973809Y-98952381D01*
X131735714Y-99285714D02*
X131735714Y-99952381D01*
X131735714Y-99380952D02*
X131783333Y-99333333D01*
X131878571Y-99285714D01*
X132021429Y-99285714D01*
X132116667Y-99333333D01*
X132164286Y-99428571D01*
X132164286Y-99952381D01*
X132973810Y-99428571D02*
X132640476Y-99428571D01*
X132640476Y-99952381D02*
X132640476Y-98952381D01*
X133116667Y-98952381D01*
X117302381Y-104421428D02*
X117302381Y-104992857D01*
X117302381Y-104707143D02*
X116302381Y-104707143D01*
X116445238Y-104802381D01*
X116540476Y-104897619D01*
X116588095Y-104992857D01*
X116302381Y-103516666D02*
X116302381Y-103992857D01*
X116778571Y-104040476D01*
X116730952Y-103992857D01*
X116683333Y-103897619D01*
X116683333Y-103659523D01*
X116730952Y-103564285D01*
X116778571Y-103516666D01*
X116873810Y-103469047D01*
X117111905Y-103469047D01*
X117207143Y-103516666D01*
X117254762Y-103564285D01*
X117302381Y-103659523D01*
X117302381Y-103897619D01*
X117254762Y-103992857D01*
X117207143Y-104040476D01*
X116635714Y-103040476D02*
X117302381Y-103040476D01*
X116730952Y-103040476D02*
X116683333Y-102992857D01*
X116635714Y-102897619D01*
X116635714Y-102754761D01*
X116683333Y-102659523D01*
X116778571Y-102611904D01*
X117302381Y-102611904D01*
X116778571Y-101802380D02*
X116778571Y-102135714D01*
X117302381Y-102135714D02*
X116302381Y-102135714D01*
X116302381Y-101659523D01*
X109252381Y-105347619D02*
X109252381Y-105919048D01*
X109252381Y-105633334D02*
X108252381Y-105633334D01*
X108395238Y-105728572D01*
X108490476Y-105823810D01*
X108538095Y-105919048D01*
X108252381Y-104728572D02*
X108252381Y-104633333D01*
X108300000Y-104538095D01*
X108347619Y-104490476D01*
X108442857Y-104442857D01*
X108633333Y-104395238D01*
X108871429Y-104395238D01*
X109061905Y-104442857D01*
X109157143Y-104490476D01*
X109204762Y-104538095D01*
X109252381Y-104633333D01*
X109252381Y-104728572D01*
X109204762Y-104823810D01*
X109157143Y-104871429D01*
X109061905Y-104919048D01*
X108871429Y-104966667D01*
X108633333Y-104966667D01*
X108442857Y-104919048D01*
X108347619Y-104871429D01*
X108300000Y-104823810D01*
X108252381Y-104728572D01*
X108252381Y-103776191D02*
X108252381Y-103680952D01*
X108300000Y-103585714D01*
X108347619Y-103538095D01*
X108442857Y-103490476D01*
X108633333Y-103442857D01*
X108871429Y-103442857D01*
X109061905Y-103490476D01*
X109157143Y-103538095D01*
X109204762Y-103585714D01*
X109252381Y-103680952D01*
X109252381Y-103776191D01*
X109204762Y-103871429D01*
X109157143Y-103919048D01*
X109061905Y-103966667D01*
X108871429Y-104014286D01*
X108633333Y-104014286D01*
X108442857Y-103966667D01*
X108347619Y-103919048D01*
X108300000Y-103871429D01*
X108252381Y-103776191D01*
X108585714Y-103014286D02*
X109252381Y-103014286D01*
X108680952Y-103014286D02*
X108633333Y-102966667D01*
X108585714Y-102871429D01*
X108585714Y-102728571D01*
X108633333Y-102633333D01*
X108728571Y-102585714D01*
X109252381Y-102585714D01*
X108728571Y-101776190D02*
X108728571Y-102109524D01*
X109252381Y-102109524D02*
X108252381Y-102109524D01*
X108252381Y-101633333D01*
X161880953Y-94802381D02*
X161309524Y-94802381D01*
X161595238Y-94802381D02*
X161595238Y-93802381D01*
X161500000Y-93945238D01*
X161404762Y-94040476D01*
X161309524Y-94088095D01*
X162500000Y-93802381D02*
X162595239Y-93802381D01*
X162690477Y-93850000D01*
X162738096Y-93897619D01*
X162785715Y-93992857D01*
X162833334Y-94183333D01*
X162833334Y-94421429D01*
X162785715Y-94611905D01*
X162738096Y-94707143D01*
X162690477Y-94754762D01*
X162595239Y-94802381D01*
X162500000Y-94802381D01*
X162404762Y-94754762D01*
X162357143Y-94707143D01*
X162309524Y-94611905D01*
X162261905Y-94421429D01*
X162261905Y-94183333D01*
X162309524Y-93992857D01*
X162357143Y-93897619D01*
X162404762Y-93850000D01*
X162500000Y-93802381D01*
X163452381Y-93802381D02*
X163547620Y-93802381D01*
X163642858Y-93850000D01*
X163690477Y-93897619D01*
X163738096Y-93992857D01*
X163785715Y-94183333D01*
X163785715Y-94421429D01*
X163738096Y-94611905D01*
X163690477Y-94707143D01*
X163642858Y-94754762D01*
X163547620Y-94802381D01*
X163452381Y-94802381D01*
X163357143Y-94754762D01*
X163309524Y-94707143D01*
X163261905Y-94611905D01*
X163214286Y-94421429D01*
X163214286Y-94183333D01*
X163261905Y-93992857D01*
X163309524Y-93897619D01*
X163357143Y-93850000D01*
X163452381Y-93802381D01*
X164214286Y-94135714D02*
X164214286Y-94802381D01*
X164214286Y-94230952D02*
X164261905Y-94183333D01*
X164357143Y-94135714D01*
X164500001Y-94135714D01*
X164595239Y-94183333D01*
X164642858Y-94278571D01*
X164642858Y-94802381D01*
X109977931Y-61032343D02*
X109977931Y-61365677D01*
X110501741Y-61365677D02*
X109501741Y-61365677D01*
X109501741Y-60889486D01*
X110596979Y-60746629D02*
X110596979Y-59984724D01*
X110454122Y-59794248D02*
X110501741Y-59651391D01*
X110501741Y-59413295D01*
X110454122Y-59318057D01*
X110406503Y-59270438D01*
X110311265Y-59222819D01*
X110216027Y-59222819D01*
X110120789Y-59270438D01*
X110073170Y-59318057D01*
X110025550Y-59413295D01*
X109977931Y-59603772D01*
X109930312Y-59699010D01*
X109882693Y-59746629D01*
X109787455Y-59794248D01*
X109692217Y-59794248D01*
X109596979Y-59746629D01*
X109549360Y-59699010D01*
X109501741Y-59603772D01*
X109501741Y-59365676D01*
X109549360Y-59222819D01*
X110501741Y-58794248D02*
X109835074Y-58794248D01*
X109930312Y-58794248D02*
X109882693Y-58746629D01*
X109835074Y-58651391D01*
X109835074Y-58508533D01*
X109882693Y-58413295D01*
X109977931Y-58365676D01*
X110501741Y-58365676D01*
X109977931Y-58365676D02*
X109882693Y-58318057D01*
X109835074Y-58222819D01*
X109835074Y-58079962D01*
X109882693Y-57984724D01*
X109977931Y-57937105D01*
X110501741Y-57937105D01*
X110501741Y-57032343D02*
X109977931Y-57032343D01*
X109882693Y-57079962D01*
X109835074Y-57175200D01*
X109835074Y-57365677D01*
X109882693Y-57460915D01*
X110454122Y-57032343D02*
X110501741Y-57127581D01*
X110501741Y-57365677D01*
X110454122Y-57460915D01*
X110358884Y-57508534D01*
X110263646Y-57508534D01*
X110168408Y-57460915D01*
X110120789Y-57365677D01*
X110120789Y-57127581D01*
X110073170Y-57032343D01*
X110501741Y-56413296D02*
X110454122Y-56508534D01*
X110358884Y-56556153D01*
X109501741Y-56556153D01*
X110501741Y-55889486D02*
X110454122Y-55984724D01*
X110358884Y-56032343D01*
X109501741Y-56032343D01*
X122477931Y-61207003D02*
X122477931Y-61540337D01*
X123001741Y-61540337D02*
X122001741Y-61540337D01*
X122001741Y-61064146D01*
X123096979Y-60921289D02*
X123096979Y-60159384D01*
X122954122Y-59968908D02*
X123001741Y-59826051D01*
X123001741Y-59587955D01*
X122954122Y-59492717D01*
X122906503Y-59445098D01*
X122811265Y-59397479D01*
X122716027Y-59397479D01*
X122620789Y-59445098D01*
X122573170Y-59492717D01*
X122525550Y-59587955D01*
X122477931Y-59778432D01*
X122430312Y-59873670D01*
X122382693Y-59921289D01*
X122287455Y-59968908D01*
X122192217Y-59968908D01*
X122096979Y-59921289D01*
X122049360Y-59873670D01*
X122001741Y-59778432D01*
X122001741Y-59540336D01*
X122049360Y-59397479D01*
X123001741Y-58968908D02*
X122335074Y-58968908D01*
X122430312Y-58968908D02*
X122382693Y-58921289D01*
X122335074Y-58826051D01*
X122335074Y-58683193D01*
X122382693Y-58587955D01*
X122477931Y-58540336D01*
X123001741Y-58540336D01*
X122477931Y-58540336D02*
X122382693Y-58492717D01*
X122335074Y-58397479D01*
X122335074Y-58254622D01*
X122382693Y-58159384D01*
X122477931Y-58111765D01*
X123001741Y-58111765D01*
X123001741Y-57207003D02*
X122477931Y-57207003D01*
X122382693Y-57254622D01*
X122335074Y-57349860D01*
X122335074Y-57540337D01*
X122382693Y-57635575D01*
X122954122Y-57207003D02*
X123001741Y-57302241D01*
X123001741Y-57540337D01*
X122954122Y-57635575D01*
X122858884Y-57683194D01*
X122763646Y-57683194D01*
X122668408Y-57635575D01*
X122620789Y-57540337D01*
X122620789Y-57302241D01*
X122573170Y-57207003D01*
X123001741Y-56587956D02*
X122954122Y-56683194D01*
X122858884Y-56730813D01*
X122001741Y-56730813D01*
X123001741Y-56064146D02*
X122954122Y-56159384D01*
X122858884Y-56207003D01*
X122001741Y-56207003D01*
X147177931Y-61257003D02*
X147177931Y-61590337D01*
X147701741Y-61590337D02*
X146701741Y-61590337D01*
X146701741Y-61114146D01*
X147796979Y-60971289D02*
X147796979Y-60209384D01*
X147654122Y-60018908D02*
X147701741Y-59876051D01*
X147701741Y-59637955D01*
X147654122Y-59542717D01*
X147606503Y-59495098D01*
X147511265Y-59447479D01*
X147416027Y-59447479D01*
X147320789Y-59495098D01*
X147273170Y-59542717D01*
X147225550Y-59637955D01*
X147177931Y-59828432D01*
X147130312Y-59923670D01*
X147082693Y-59971289D01*
X146987455Y-60018908D01*
X146892217Y-60018908D01*
X146796979Y-59971289D01*
X146749360Y-59923670D01*
X146701741Y-59828432D01*
X146701741Y-59590336D01*
X146749360Y-59447479D01*
X147701741Y-59018908D02*
X147035074Y-59018908D01*
X147130312Y-59018908D02*
X147082693Y-58971289D01*
X147035074Y-58876051D01*
X147035074Y-58733193D01*
X147082693Y-58637955D01*
X147177931Y-58590336D01*
X147701741Y-58590336D01*
X147177931Y-58590336D02*
X147082693Y-58542717D01*
X147035074Y-58447479D01*
X147035074Y-58304622D01*
X147082693Y-58209384D01*
X147177931Y-58161765D01*
X147701741Y-58161765D01*
X147701741Y-57257003D02*
X147177931Y-57257003D01*
X147082693Y-57304622D01*
X147035074Y-57399860D01*
X147035074Y-57590337D01*
X147082693Y-57685575D01*
X147654122Y-57257003D02*
X147701741Y-57352241D01*
X147701741Y-57590337D01*
X147654122Y-57685575D01*
X147558884Y-57733194D01*
X147463646Y-57733194D01*
X147368408Y-57685575D01*
X147320789Y-57590337D01*
X147320789Y-57352241D01*
X147273170Y-57257003D01*
X147701741Y-56637956D02*
X147654122Y-56733194D01*
X147558884Y-56780813D01*
X146701741Y-56780813D01*
X147701741Y-56114146D02*
X147654122Y-56209384D01*
X147558884Y-56257003D01*
X146701741Y-56257003D01*
X134827931Y-61207003D02*
X134827931Y-61540337D01*
X135351741Y-61540337D02*
X134351741Y-61540337D01*
X134351741Y-61064146D01*
X135446979Y-60921289D02*
X135446979Y-60159384D01*
X135304122Y-59968908D02*
X135351741Y-59826051D01*
X135351741Y-59587955D01*
X135304122Y-59492717D01*
X135256503Y-59445098D01*
X135161265Y-59397479D01*
X135066027Y-59397479D01*
X134970789Y-59445098D01*
X134923170Y-59492717D01*
X134875550Y-59587955D01*
X134827931Y-59778432D01*
X134780312Y-59873670D01*
X134732693Y-59921289D01*
X134637455Y-59968908D01*
X134542217Y-59968908D01*
X134446979Y-59921289D01*
X134399360Y-59873670D01*
X134351741Y-59778432D01*
X134351741Y-59540336D01*
X134399360Y-59397479D01*
X135351741Y-58968908D02*
X134685074Y-58968908D01*
X134780312Y-58968908D02*
X134732693Y-58921289D01*
X134685074Y-58826051D01*
X134685074Y-58683193D01*
X134732693Y-58587955D01*
X134827931Y-58540336D01*
X135351741Y-58540336D01*
X134827931Y-58540336D02*
X134732693Y-58492717D01*
X134685074Y-58397479D01*
X134685074Y-58254622D01*
X134732693Y-58159384D01*
X134827931Y-58111765D01*
X135351741Y-58111765D01*
X135351741Y-57207003D02*
X134827931Y-57207003D01*
X134732693Y-57254622D01*
X134685074Y-57349860D01*
X134685074Y-57540337D01*
X134732693Y-57635575D01*
X135304122Y-57207003D02*
X135351741Y-57302241D01*
X135351741Y-57540337D01*
X135304122Y-57635575D01*
X135208884Y-57683194D01*
X135113646Y-57683194D01*
X135018408Y-57635575D01*
X134970789Y-57540337D01*
X134970789Y-57302241D01*
X134923170Y-57207003D01*
X135351741Y-56587956D02*
X135304122Y-56683194D01*
X135208884Y-56730813D01*
X134351741Y-56730813D01*
X135351741Y-56064146D02*
X135304122Y-56159384D01*
X135208884Y-56207003D01*
X134351741Y-56207003D01*
X104455277Y-73801741D02*
X103979086Y-73801741D01*
X103931467Y-74277931D01*
X103979086Y-74230312D01*
X104074324Y-74182693D01*
X104312420Y-74182693D01*
X104407658Y-74230312D01*
X104455277Y-74277931D01*
X104502896Y-74373170D01*
X104502896Y-74611265D01*
X104455277Y-74706503D01*
X104407658Y-74754122D01*
X104312420Y-74801741D01*
X104074324Y-74801741D01*
X103979086Y-74754122D01*
X103931467Y-74706503D01*
X105121943Y-73801741D02*
X105217182Y-73801741D01*
X105312420Y-73849360D01*
X105360039Y-73896979D01*
X105407658Y-73992217D01*
X105455277Y-74182693D01*
X105455277Y-74420789D01*
X105407658Y-74611265D01*
X105360039Y-74706503D01*
X105312420Y-74754122D01*
X105217182Y-74801741D01*
X105121943Y-74801741D01*
X105026705Y-74754122D01*
X104979086Y-74706503D01*
X104931467Y-74611265D01*
X104883848Y-74420789D01*
X104883848Y-74182693D01*
X104931467Y-73992217D01*
X104979086Y-73896979D01*
X105026705Y-73849360D01*
X105121943Y-73801741D01*
X106074324Y-73801741D02*
X106169563Y-73801741D01*
X106264801Y-73849360D01*
X106312420Y-73896979D01*
X106360039Y-73992217D01*
X106407658Y-74182693D01*
X106407658Y-74420789D01*
X106360039Y-74611265D01*
X106312420Y-74706503D01*
X106264801Y-74754122D01*
X106169563Y-74801741D01*
X106074324Y-74801741D01*
X105979086Y-74754122D01*
X105931467Y-74706503D01*
X105883848Y-74611265D01*
X105836229Y-74420789D01*
X105836229Y-74182693D01*
X105883848Y-73992217D01*
X105931467Y-73896979D01*
X105979086Y-73849360D01*
X106074324Y-73801741D01*
X106836229Y-74801741D02*
X106836229Y-74135074D01*
X106836229Y-74230312D02*
X106883848Y-74182693D01*
X106979086Y-74135074D01*
X107121944Y-74135074D01*
X107217182Y-74182693D01*
X107264801Y-74277931D01*
X107264801Y-74801741D01*
X107264801Y-74277931D02*
X107312420Y-74182693D01*
X107407658Y-74135074D01*
X107550515Y-74135074D01*
X107645753Y-74182693D01*
X107693372Y-74277931D01*
X107693372Y-74801741D01*
X108121943Y-74516027D02*
X108598134Y-74516027D01*
X108026705Y-74801741D02*
X108360038Y-73801741D01*
X108693372Y-74801741D01*
X183547931Y-61447003D02*
X183547931Y-61780337D01*
X184071741Y-61780337D02*
X183071741Y-61780337D01*
X183071741Y-61304146D01*
X184166979Y-61161289D02*
X184166979Y-60399384D01*
X184024122Y-60208908D02*
X184071741Y-60066051D01*
X184071741Y-59827955D01*
X184024122Y-59732717D01*
X183976503Y-59685098D01*
X183881265Y-59637479D01*
X183786027Y-59637479D01*
X183690789Y-59685098D01*
X183643170Y-59732717D01*
X183595550Y-59827955D01*
X183547931Y-60018432D01*
X183500312Y-60113670D01*
X183452693Y-60161289D01*
X183357455Y-60208908D01*
X183262217Y-60208908D01*
X183166979Y-60161289D01*
X183119360Y-60113670D01*
X183071741Y-60018432D01*
X183071741Y-59780336D01*
X183119360Y-59637479D01*
X184071741Y-59208908D02*
X183405074Y-59208908D01*
X183500312Y-59208908D02*
X183452693Y-59161289D01*
X183405074Y-59066051D01*
X183405074Y-58923193D01*
X183452693Y-58827955D01*
X183547931Y-58780336D01*
X184071741Y-58780336D01*
X183547931Y-58780336D02*
X183452693Y-58732717D01*
X183405074Y-58637479D01*
X183405074Y-58494622D01*
X183452693Y-58399384D01*
X183547931Y-58351765D01*
X184071741Y-58351765D01*
X184071741Y-57447003D02*
X183547931Y-57447003D01*
X183452693Y-57494622D01*
X183405074Y-57589860D01*
X183405074Y-57780337D01*
X183452693Y-57875575D01*
X184024122Y-57447003D02*
X184071741Y-57542241D01*
X184071741Y-57780337D01*
X184024122Y-57875575D01*
X183928884Y-57923194D01*
X183833646Y-57923194D01*
X183738408Y-57875575D01*
X183690789Y-57780337D01*
X183690789Y-57542241D01*
X183643170Y-57447003D01*
X184071741Y-56827956D02*
X184024122Y-56923194D01*
X183928884Y-56970813D01*
X183071741Y-56970813D01*
X184071741Y-56304146D02*
X184024122Y-56399384D01*
X183928884Y-56447003D01*
X183071741Y-56447003D01*
X162052381Y-87369047D02*
X162052381Y-87940476D01*
X162052381Y-87654762D02*
X161052381Y-87654762D01*
X161195238Y-87750000D01*
X161290476Y-87845238D01*
X161338095Y-87940476D01*
X161052381Y-86750000D02*
X161052381Y-86654761D01*
X161100000Y-86559523D01*
X161147619Y-86511904D01*
X161242857Y-86464285D01*
X161433333Y-86416666D01*
X161671429Y-86416666D01*
X161861905Y-86464285D01*
X161957143Y-86511904D01*
X162004762Y-86559523D01*
X162052381Y-86654761D01*
X162052381Y-86750000D01*
X162004762Y-86845238D01*
X161957143Y-86892857D01*
X161861905Y-86940476D01*
X161671429Y-86988095D01*
X161433333Y-86988095D01*
X161242857Y-86940476D01*
X161147619Y-86892857D01*
X161100000Y-86845238D01*
X161052381Y-86750000D01*
X161052381Y-85797619D02*
X161052381Y-85702380D01*
X161100000Y-85607142D01*
X161147619Y-85559523D01*
X161242857Y-85511904D01*
X161433333Y-85464285D01*
X161671429Y-85464285D01*
X161861905Y-85511904D01*
X161957143Y-85559523D01*
X162004762Y-85607142D01*
X162052381Y-85702380D01*
X162052381Y-85797619D01*
X162004762Y-85892857D01*
X161957143Y-85940476D01*
X161861905Y-85988095D01*
X161671429Y-86035714D01*
X161433333Y-86035714D01*
X161242857Y-85988095D01*
X161147619Y-85940476D01*
X161100000Y-85892857D01*
X161052381Y-85797619D01*
X161385714Y-85035714D02*
X162052381Y-85035714D01*
X161480952Y-85035714D02*
X161433333Y-84988095D01*
X161385714Y-84892857D01*
X161385714Y-84749999D01*
X161433333Y-84654761D01*
X161528571Y-84607142D01*
X162052381Y-84607142D01*
X156003334Y-74142381D02*
X155431905Y-74142381D01*
X155717619Y-74142381D02*
X155717619Y-73142381D01*
X155622381Y-73285238D01*
X155527143Y-73380476D01*
X155431905Y-73428095D01*
X156431905Y-73475714D02*
X156431905Y-74142381D01*
X156431905Y-73570952D02*
X156479524Y-73523333D01*
X156574762Y-73475714D01*
X156717620Y-73475714D01*
X156812858Y-73523333D01*
X156860477Y-73618571D01*
X156860477Y-74142381D01*
X147552381Y-73669047D02*
X147552381Y-74240476D01*
X147552381Y-73954762D02*
X146552381Y-73954762D01*
X146695238Y-74050000D01*
X146790476Y-74145238D01*
X146838095Y-74240476D01*
X146552381Y-73050000D02*
X146552381Y-72954761D01*
X146600000Y-72859523D01*
X146647619Y-72811904D01*
X146742857Y-72764285D01*
X146933333Y-72716666D01*
X147171429Y-72716666D01*
X147361905Y-72764285D01*
X147457143Y-72811904D01*
X147504762Y-72859523D01*
X147552381Y-72954761D01*
X147552381Y-73050000D01*
X147504762Y-73145238D01*
X147457143Y-73192857D01*
X147361905Y-73240476D01*
X147171429Y-73288095D01*
X146933333Y-73288095D01*
X146742857Y-73240476D01*
X146647619Y-73192857D01*
X146600000Y-73145238D01*
X146552381Y-73050000D01*
X146552381Y-72097619D02*
X146552381Y-72002380D01*
X146600000Y-71907142D01*
X146647619Y-71859523D01*
X146742857Y-71811904D01*
X146933333Y-71764285D01*
X147171429Y-71764285D01*
X147361905Y-71811904D01*
X147457143Y-71859523D01*
X147504762Y-71907142D01*
X147552381Y-72002380D01*
X147552381Y-72097619D01*
X147504762Y-72192857D01*
X147457143Y-72240476D01*
X147361905Y-72288095D01*
X147171429Y-72335714D01*
X146933333Y-72335714D01*
X146742857Y-72288095D01*
X146647619Y-72240476D01*
X146600000Y-72192857D01*
X146552381Y-72097619D01*
X146885714Y-71335714D02*
X147552381Y-71335714D01*
X146980952Y-71335714D02*
X146933333Y-71288095D01*
X146885714Y-71192857D01*
X146885714Y-71049999D01*
X146933333Y-70954761D01*
X147028571Y-70907142D01*
X147552381Y-70907142D01*
X152262381Y-77406666D02*
X152262381Y-77978095D01*
X152262381Y-77692381D02*
X151262381Y-77692381D01*
X151405238Y-77787619D01*
X151500476Y-77882857D01*
X151548095Y-77978095D01*
X151262381Y-76787619D02*
X151262381Y-76692380D01*
X151310000Y-76597142D01*
X151357619Y-76549523D01*
X151452857Y-76501904D01*
X151643333Y-76454285D01*
X151881429Y-76454285D01*
X152071905Y-76501904D01*
X152167143Y-76549523D01*
X152214762Y-76597142D01*
X152262381Y-76692380D01*
X152262381Y-76787619D01*
X152214762Y-76882857D01*
X152167143Y-76930476D01*
X152071905Y-76978095D01*
X151881429Y-77025714D01*
X151643333Y-77025714D01*
X151452857Y-76978095D01*
X151357619Y-76930476D01*
X151310000Y-76882857D01*
X151262381Y-76787619D01*
X151262381Y-75835238D02*
X151262381Y-75739999D01*
X151310000Y-75644761D01*
X151357619Y-75597142D01*
X151452857Y-75549523D01*
X151643333Y-75501904D01*
X151881429Y-75501904D01*
X152071905Y-75549523D01*
X152167143Y-75597142D01*
X152214762Y-75644761D01*
X152262381Y-75739999D01*
X152262381Y-75835238D01*
X152214762Y-75930476D01*
X152167143Y-75978095D01*
X152071905Y-76025714D01*
X151881429Y-76073333D01*
X151643333Y-76073333D01*
X151452857Y-76025714D01*
X151357619Y-75978095D01*
X151310000Y-75930476D01*
X151262381Y-75835238D01*
X152262381Y-74501904D02*
X151786190Y-74835238D01*
X152262381Y-75073333D02*
X151262381Y-75073333D01*
X151262381Y-74692380D01*
X151310000Y-74597142D01*
X151357619Y-74549523D01*
X151452857Y-74501904D01*
X151595714Y-74501904D01*
X151690952Y-74549523D01*
X151738571Y-74597142D01*
X151786190Y-74692380D01*
X151786190Y-75073333D01*
X160902381Y-88816666D02*
X160902381Y-89388095D01*
X160902381Y-89102381D02*
X159902381Y-89102381D01*
X160045238Y-89197619D01*
X160140476Y-89292857D01*
X160188095Y-89388095D01*
X159902381Y-88197619D02*
X159902381Y-88102380D01*
X159950000Y-88007142D01*
X159997619Y-87959523D01*
X160092857Y-87911904D01*
X160283333Y-87864285D01*
X160521429Y-87864285D01*
X160711905Y-87911904D01*
X160807143Y-87959523D01*
X160854762Y-88007142D01*
X160902381Y-88102380D01*
X160902381Y-88197619D01*
X160854762Y-88292857D01*
X160807143Y-88340476D01*
X160711905Y-88388095D01*
X160521429Y-88435714D01*
X160283333Y-88435714D01*
X160092857Y-88388095D01*
X159997619Y-88340476D01*
X159950000Y-88292857D01*
X159902381Y-88197619D01*
X160235714Y-87007142D02*
X160902381Y-87007142D01*
X160235714Y-87435714D02*
X160759524Y-87435714D01*
X160854762Y-87388095D01*
X160902381Y-87292857D01*
X160902381Y-87149999D01*
X160854762Y-87054761D01*
X160807143Y-87007142D01*
X160902381Y-86530952D02*
X159902381Y-86530952D01*
X160378571Y-86530952D02*
X160378571Y-85959523D01*
X160902381Y-85959523D02*
X159902381Y-85959523D01*
X155429524Y-76442381D02*
X154858095Y-76442381D01*
X155143809Y-76442381D02*
X155143809Y-75442381D01*
X155048571Y-75585238D01*
X154953333Y-75680476D01*
X154858095Y-75728095D01*
X156048571Y-75442381D02*
X156143810Y-75442381D01*
X156239048Y-75490000D01*
X156286667Y-75537619D01*
X156334286Y-75632857D01*
X156381905Y-75823333D01*
X156381905Y-76061429D01*
X156334286Y-76251905D01*
X156286667Y-76347143D01*
X156239048Y-76394762D01*
X156143810Y-76442381D01*
X156048571Y-76442381D01*
X155953333Y-76394762D01*
X155905714Y-76347143D01*
X155858095Y-76251905D01*
X155810476Y-76061429D01*
X155810476Y-75823333D01*
X155858095Y-75632857D01*
X155905714Y-75537619D01*
X155953333Y-75490000D01*
X156048571Y-75442381D01*
X156810476Y-76442381D02*
X156810476Y-75442381D01*
X157381905Y-76442381D02*
X156953333Y-75870952D01*
X157381905Y-75442381D02*
X156810476Y-76013810D01*
X144002381Y-91490476D02*
X144002381Y-92061905D01*
X144002381Y-91776191D02*
X143002381Y-91776191D01*
X143145238Y-91871429D01*
X143240476Y-91966667D01*
X143288095Y-92061905D01*
X143002381Y-90871429D02*
X143002381Y-90776190D01*
X143050000Y-90680952D01*
X143097619Y-90633333D01*
X143192857Y-90585714D01*
X143383333Y-90538095D01*
X143621429Y-90538095D01*
X143811905Y-90585714D01*
X143907143Y-90633333D01*
X143954762Y-90680952D01*
X144002381Y-90776190D01*
X144002381Y-90871429D01*
X143954762Y-90966667D01*
X143907143Y-91014286D01*
X143811905Y-91061905D01*
X143621429Y-91109524D01*
X143383333Y-91109524D01*
X143192857Y-91061905D01*
X143097619Y-91014286D01*
X143050000Y-90966667D01*
X143002381Y-90871429D01*
X144002381Y-90109524D02*
X143002381Y-90109524D01*
X144002381Y-89538095D02*
X143430952Y-89966667D01*
X143002381Y-89538095D02*
X143573810Y-90109524D01*
X139272381Y-87510476D02*
X139272381Y-88081905D01*
X139272381Y-87796191D02*
X138272381Y-87796191D01*
X138415238Y-87891429D01*
X138510476Y-87986667D01*
X138558095Y-88081905D01*
X138272381Y-86891429D02*
X138272381Y-86796190D01*
X138320000Y-86700952D01*
X138367619Y-86653333D01*
X138462857Y-86605714D01*
X138653333Y-86558095D01*
X138891429Y-86558095D01*
X139081905Y-86605714D01*
X139177143Y-86653333D01*
X139224762Y-86700952D01*
X139272381Y-86796190D01*
X139272381Y-86891429D01*
X139224762Y-86986667D01*
X139177143Y-87034286D01*
X139081905Y-87081905D01*
X138891429Y-87129524D01*
X138653333Y-87129524D01*
X138462857Y-87081905D01*
X138367619Y-87034286D01*
X138320000Y-86986667D01*
X138272381Y-86891429D01*
X139272381Y-86129524D02*
X138272381Y-86129524D01*
X139272381Y-85558095D02*
X138700952Y-85986667D01*
X138272381Y-85558095D02*
X138843810Y-86129524D01*
X122852381Y-84392857D02*
X122852381Y-84297618D01*
X122900000Y-84202380D01*
X122947619Y-84154761D01*
X123042857Y-84107142D01*
X123233333Y-84059523D01*
X123471429Y-84059523D01*
X123661905Y-84107142D01*
X123757143Y-84154761D01*
X123804762Y-84202380D01*
X123852381Y-84297618D01*
X123852381Y-84392857D01*
X123804762Y-84488095D01*
X123757143Y-84535714D01*
X123661905Y-84583333D01*
X123471429Y-84630952D01*
X123233333Y-84630952D01*
X123042857Y-84583333D01*
X122947619Y-84535714D01*
X122900000Y-84488095D01*
X122852381Y-84392857D01*
X123757143Y-83630952D02*
X123804762Y-83583333D01*
X123852381Y-83630952D01*
X123804762Y-83678571D01*
X123757143Y-83630952D01*
X123852381Y-83630952D01*
X123852381Y-82630952D02*
X123852381Y-83202381D01*
X123852381Y-82916667D02*
X122852381Y-82916667D01*
X122995238Y-83011905D01*
X123090476Y-83107143D01*
X123138095Y-83202381D01*
X123185714Y-81773809D02*
X123852381Y-81773809D01*
X123185714Y-82202381D02*
X123709524Y-82202381D01*
X123804762Y-82154762D01*
X123852381Y-82059524D01*
X123852381Y-81916666D01*
X123804762Y-81821428D01*
X123757143Y-81773809D01*
X123328571Y-80964285D02*
X123328571Y-81297619D01*
X123852381Y-81297619D02*
X122852381Y-81297619D01*
X122852381Y-80821428D01*
X99547591Y-51942381D02*
X99071400Y-51942381D01*
X99071400Y-50942381D01*
X100261877Y-51894762D02*
X100166639Y-51942381D01*
X99976162Y-51942381D01*
X99880924Y-51894762D01*
X99833305Y-51799524D01*
X99833305Y-51418571D01*
X99880924Y-51323333D01*
X99976162Y-51275714D01*
X100166639Y-51275714D01*
X100261877Y-51323333D01*
X100309496Y-51418571D01*
X100309496Y-51513810D01*
X99833305Y-51609048D01*
X101166639Y-51942381D02*
X101166639Y-50942381D01*
X101166639Y-51894762D02*
X101071401Y-51942381D01*
X100880924Y-51942381D01*
X100785686Y-51894762D01*
X100738067Y-51847143D01*
X100690448Y-51751905D01*
X100690448Y-51466190D01*
X100738067Y-51370952D01*
X100785686Y-51323333D01*
X100880924Y-51275714D01*
X101071401Y-51275714D01*
X101166639Y-51323333D01*
X101404734Y-52037619D02*
X102166639Y-52037619D01*
X102357115Y-51894762D02*
X102499972Y-51942381D01*
X102738068Y-51942381D01*
X102833306Y-51894762D01*
X102880925Y-51847143D01*
X102928544Y-51751905D01*
X102928544Y-51656667D01*
X102880925Y-51561429D01*
X102833306Y-51513810D01*
X102738068Y-51466190D01*
X102547591Y-51418571D01*
X102452353Y-51370952D01*
X102404734Y-51323333D01*
X102357115Y-51228095D01*
X102357115Y-51132857D01*
X102404734Y-51037619D01*
X102452353Y-50990000D01*
X102547591Y-50942381D01*
X102785687Y-50942381D01*
X102928544Y-50990000D01*
X103357115Y-51942381D02*
X103357115Y-51275714D01*
X103357115Y-51370952D02*
X103404734Y-51323333D01*
X103499972Y-51275714D01*
X103642830Y-51275714D01*
X103738068Y-51323333D01*
X103785687Y-51418571D01*
X103785687Y-51942381D01*
X103785687Y-51418571D02*
X103833306Y-51323333D01*
X103928544Y-51275714D01*
X104071401Y-51275714D01*
X104166639Y-51323333D01*
X104214258Y-51418571D01*
X104214258Y-51942381D01*
X105119020Y-51942381D02*
X105119020Y-51418571D01*
X105071401Y-51323333D01*
X104976163Y-51275714D01*
X104785686Y-51275714D01*
X104690448Y-51323333D01*
X105119020Y-51894762D02*
X105023782Y-51942381D01*
X104785686Y-51942381D01*
X104690448Y-51894762D01*
X104642829Y-51799524D01*
X104642829Y-51704286D01*
X104690448Y-51609048D01*
X104785686Y-51561429D01*
X105023782Y-51561429D01*
X105119020Y-51513810D01*
X105738067Y-51942381D02*
X105642829Y-51894762D01*
X105595210Y-51799524D01*
X105595210Y-50942381D01*
X106261877Y-51942381D02*
X106166639Y-51894762D01*
X106119020Y-51799524D01*
X106119020Y-50942381D01*
X112137591Y-51972381D02*
X111661400Y-51972381D01*
X111661400Y-50972381D01*
X112851877Y-51924762D02*
X112756639Y-51972381D01*
X112566162Y-51972381D01*
X112470924Y-51924762D01*
X112423305Y-51829524D01*
X112423305Y-51448571D01*
X112470924Y-51353333D01*
X112566162Y-51305714D01*
X112756639Y-51305714D01*
X112851877Y-51353333D01*
X112899496Y-51448571D01*
X112899496Y-51543810D01*
X112423305Y-51639048D01*
X113756639Y-51972381D02*
X113756639Y-50972381D01*
X113756639Y-51924762D02*
X113661401Y-51972381D01*
X113470924Y-51972381D01*
X113375686Y-51924762D01*
X113328067Y-51877143D01*
X113280448Y-51781905D01*
X113280448Y-51496190D01*
X113328067Y-51400952D01*
X113375686Y-51353333D01*
X113470924Y-51305714D01*
X113661401Y-51305714D01*
X113756639Y-51353333D01*
X113994734Y-52067619D02*
X114756639Y-52067619D01*
X114947115Y-51924762D02*
X115089972Y-51972381D01*
X115328068Y-51972381D01*
X115423306Y-51924762D01*
X115470925Y-51877143D01*
X115518544Y-51781905D01*
X115518544Y-51686667D01*
X115470925Y-51591429D01*
X115423306Y-51543810D01*
X115328068Y-51496190D01*
X115137591Y-51448571D01*
X115042353Y-51400952D01*
X114994734Y-51353333D01*
X114947115Y-51258095D01*
X114947115Y-51162857D01*
X114994734Y-51067619D01*
X115042353Y-51020000D01*
X115137591Y-50972381D01*
X115375687Y-50972381D01*
X115518544Y-51020000D01*
X115947115Y-51972381D02*
X115947115Y-51305714D01*
X115947115Y-51400952D02*
X115994734Y-51353333D01*
X116089972Y-51305714D01*
X116232830Y-51305714D01*
X116328068Y-51353333D01*
X116375687Y-51448571D01*
X116375687Y-51972381D01*
X116375687Y-51448571D02*
X116423306Y-51353333D01*
X116518544Y-51305714D01*
X116661401Y-51305714D01*
X116756639Y-51353333D01*
X116804258Y-51448571D01*
X116804258Y-51972381D01*
X117709020Y-51972381D02*
X117709020Y-51448571D01*
X117661401Y-51353333D01*
X117566163Y-51305714D01*
X117375686Y-51305714D01*
X117280448Y-51353333D01*
X117709020Y-51924762D02*
X117613782Y-51972381D01*
X117375686Y-51972381D01*
X117280448Y-51924762D01*
X117232829Y-51829524D01*
X117232829Y-51734286D01*
X117280448Y-51639048D01*
X117375686Y-51591429D01*
X117613782Y-51591429D01*
X117709020Y-51543810D01*
X118328067Y-51972381D02*
X118232829Y-51924762D01*
X118185210Y-51829524D01*
X118185210Y-50972381D01*
X118851877Y-51972381D02*
X118756639Y-51924762D01*
X118709020Y-51829524D01*
X118709020Y-50972381D01*
X124549551Y-51952381D02*
X124073360Y-51952381D01*
X124073360Y-50952381D01*
X125263837Y-51904762D02*
X125168599Y-51952381D01*
X124978122Y-51952381D01*
X124882884Y-51904762D01*
X124835265Y-51809524D01*
X124835265Y-51428571D01*
X124882884Y-51333333D01*
X124978122Y-51285714D01*
X125168599Y-51285714D01*
X125263837Y-51333333D01*
X125311456Y-51428571D01*
X125311456Y-51523810D01*
X124835265Y-51619048D01*
X126168599Y-51952381D02*
X126168599Y-50952381D01*
X126168599Y-51904762D02*
X126073361Y-51952381D01*
X125882884Y-51952381D01*
X125787646Y-51904762D01*
X125740027Y-51857143D01*
X125692408Y-51761905D01*
X125692408Y-51476190D01*
X125740027Y-51380952D01*
X125787646Y-51333333D01*
X125882884Y-51285714D01*
X126073361Y-51285714D01*
X126168599Y-51333333D01*
X126406694Y-52047619D02*
X127168599Y-52047619D01*
X127359075Y-51904762D02*
X127501932Y-51952381D01*
X127740028Y-51952381D01*
X127835266Y-51904762D01*
X127882885Y-51857143D01*
X127930504Y-51761905D01*
X127930504Y-51666667D01*
X127882885Y-51571429D01*
X127835266Y-51523810D01*
X127740028Y-51476190D01*
X127549551Y-51428571D01*
X127454313Y-51380952D01*
X127406694Y-51333333D01*
X127359075Y-51238095D01*
X127359075Y-51142857D01*
X127406694Y-51047619D01*
X127454313Y-51000000D01*
X127549551Y-50952381D01*
X127787647Y-50952381D01*
X127930504Y-51000000D01*
X128359075Y-51952381D02*
X128359075Y-51285714D01*
X128359075Y-51380952D02*
X128406694Y-51333333D01*
X128501932Y-51285714D01*
X128644790Y-51285714D01*
X128740028Y-51333333D01*
X128787647Y-51428571D01*
X128787647Y-51952381D01*
X128787647Y-51428571D02*
X128835266Y-51333333D01*
X128930504Y-51285714D01*
X129073361Y-51285714D01*
X129168599Y-51333333D01*
X129216218Y-51428571D01*
X129216218Y-51952381D01*
X130120980Y-51952381D02*
X130120980Y-51428571D01*
X130073361Y-51333333D01*
X129978123Y-51285714D01*
X129787646Y-51285714D01*
X129692408Y-51333333D01*
X130120980Y-51904762D02*
X130025742Y-51952381D01*
X129787646Y-51952381D01*
X129692408Y-51904762D01*
X129644789Y-51809524D01*
X129644789Y-51714286D01*
X129692408Y-51619048D01*
X129787646Y-51571429D01*
X130025742Y-51571429D01*
X130120980Y-51523810D01*
X130740027Y-51952381D02*
X130644789Y-51904762D01*
X130597170Y-51809524D01*
X130597170Y-50952381D01*
X131263837Y-51952381D02*
X131168599Y-51904762D01*
X131120980Y-51809524D01*
X131120980Y-50952381D01*
X137027591Y-51952381D02*
X136551400Y-51952381D01*
X136551400Y-50952381D01*
X137741877Y-51904762D02*
X137646639Y-51952381D01*
X137456162Y-51952381D01*
X137360924Y-51904762D01*
X137313305Y-51809524D01*
X137313305Y-51428571D01*
X137360924Y-51333333D01*
X137456162Y-51285714D01*
X137646639Y-51285714D01*
X137741877Y-51333333D01*
X137789496Y-51428571D01*
X137789496Y-51523810D01*
X137313305Y-51619048D01*
X138646639Y-51952381D02*
X138646639Y-50952381D01*
X138646639Y-51904762D02*
X138551401Y-51952381D01*
X138360924Y-51952381D01*
X138265686Y-51904762D01*
X138218067Y-51857143D01*
X138170448Y-51761905D01*
X138170448Y-51476190D01*
X138218067Y-51380952D01*
X138265686Y-51333333D01*
X138360924Y-51285714D01*
X138551401Y-51285714D01*
X138646639Y-51333333D01*
X138884734Y-52047619D02*
X139646639Y-52047619D01*
X139837115Y-51904762D02*
X139979972Y-51952381D01*
X140218068Y-51952381D01*
X140313306Y-51904762D01*
X140360925Y-51857143D01*
X140408544Y-51761905D01*
X140408544Y-51666667D01*
X140360925Y-51571429D01*
X140313306Y-51523810D01*
X140218068Y-51476190D01*
X140027591Y-51428571D01*
X139932353Y-51380952D01*
X139884734Y-51333333D01*
X139837115Y-51238095D01*
X139837115Y-51142857D01*
X139884734Y-51047619D01*
X139932353Y-51000000D01*
X140027591Y-50952381D01*
X140265687Y-50952381D01*
X140408544Y-51000000D01*
X140837115Y-51952381D02*
X140837115Y-51285714D01*
X140837115Y-51380952D02*
X140884734Y-51333333D01*
X140979972Y-51285714D01*
X141122830Y-51285714D01*
X141218068Y-51333333D01*
X141265687Y-51428571D01*
X141265687Y-51952381D01*
X141265687Y-51428571D02*
X141313306Y-51333333D01*
X141408544Y-51285714D01*
X141551401Y-51285714D01*
X141646639Y-51333333D01*
X141694258Y-51428571D01*
X141694258Y-51952381D01*
X142599020Y-51952381D02*
X142599020Y-51428571D01*
X142551401Y-51333333D01*
X142456163Y-51285714D01*
X142265686Y-51285714D01*
X142170448Y-51333333D01*
X142599020Y-51904762D02*
X142503782Y-51952381D01*
X142265686Y-51952381D01*
X142170448Y-51904762D01*
X142122829Y-51809524D01*
X142122829Y-51714286D01*
X142170448Y-51619048D01*
X142265686Y-51571429D01*
X142503782Y-51571429D01*
X142599020Y-51523810D01*
X143218067Y-51952381D02*
X143122829Y-51904762D01*
X143075210Y-51809524D01*
X143075210Y-50952381D01*
X143741877Y-51952381D02*
X143646639Y-51904762D01*
X143599020Y-51809524D01*
X143599020Y-50952381D01*
X124622381Y-79681428D02*
X124622381Y-80252857D01*
X124622381Y-79967143D02*
X123622381Y-79967143D01*
X123765238Y-80062381D01*
X123860476Y-80157619D01*
X123908095Y-80252857D01*
X123622381Y-79062381D02*
X123622381Y-78967142D01*
X123670000Y-78871904D01*
X123717619Y-78824285D01*
X123812857Y-78776666D01*
X124003333Y-78729047D01*
X124241429Y-78729047D01*
X124431905Y-78776666D01*
X124527143Y-78824285D01*
X124574762Y-78871904D01*
X124622381Y-78967142D01*
X124622381Y-79062381D01*
X124574762Y-79157619D01*
X124527143Y-79205238D01*
X124431905Y-79252857D01*
X124241429Y-79300476D01*
X124003333Y-79300476D01*
X123812857Y-79252857D01*
X123717619Y-79205238D01*
X123670000Y-79157619D01*
X123622381Y-79062381D01*
X123955714Y-77871904D02*
X124622381Y-77871904D01*
X123955714Y-78300476D02*
X124479524Y-78300476D01*
X124574762Y-78252857D01*
X124622381Y-78157619D01*
X124622381Y-78014761D01*
X124574762Y-77919523D01*
X124527143Y-77871904D01*
X124098571Y-77062380D02*
X124098571Y-77395714D01*
X124622381Y-77395714D02*
X123622381Y-77395714D01*
X123622381Y-76919523D01*
X101152381Y-56521428D02*
X101152381Y-57092857D01*
X101152381Y-56807143D02*
X100152381Y-56807143D01*
X100295238Y-56902381D01*
X100390476Y-56997619D01*
X100438095Y-57092857D01*
X100152381Y-55902381D02*
X100152381Y-55807142D01*
X100200000Y-55711904D01*
X100247619Y-55664285D01*
X100342857Y-55616666D01*
X100533333Y-55569047D01*
X100771429Y-55569047D01*
X100961905Y-55616666D01*
X101057143Y-55664285D01*
X101104762Y-55711904D01*
X101152381Y-55807142D01*
X101152381Y-55902381D01*
X101104762Y-55997619D01*
X101057143Y-56045238D01*
X100961905Y-56092857D01*
X100771429Y-56140476D01*
X100533333Y-56140476D01*
X100342857Y-56092857D01*
X100247619Y-56045238D01*
X100200000Y-55997619D01*
X100152381Y-55902381D01*
X100485714Y-54711904D02*
X101152381Y-54711904D01*
X100485714Y-55140476D02*
X101009524Y-55140476D01*
X101104762Y-55092857D01*
X101152381Y-54997619D01*
X101152381Y-54854761D01*
X101104762Y-54759523D01*
X101057143Y-54711904D01*
X100628571Y-53902380D02*
X100628571Y-54235714D01*
X101152381Y-54235714D02*
X100152381Y-54235714D01*
X100152381Y-53759523D01*
X113652381Y-56521428D02*
X113652381Y-57092857D01*
X113652381Y-56807143D02*
X112652381Y-56807143D01*
X112795238Y-56902381D01*
X112890476Y-56997619D01*
X112938095Y-57092857D01*
X112652381Y-55902381D02*
X112652381Y-55807142D01*
X112700000Y-55711904D01*
X112747619Y-55664285D01*
X112842857Y-55616666D01*
X113033333Y-55569047D01*
X113271429Y-55569047D01*
X113461905Y-55616666D01*
X113557143Y-55664285D01*
X113604762Y-55711904D01*
X113652381Y-55807142D01*
X113652381Y-55902381D01*
X113604762Y-55997619D01*
X113557143Y-56045238D01*
X113461905Y-56092857D01*
X113271429Y-56140476D01*
X113033333Y-56140476D01*
X112842857Y-56092857D01*
X112747619Y-56045238D01*
X112700000Y-55997619D01*
X112652381Y-55902381D01*
X112985714Y-54711904D02*
X113652381Y-54711904D01*
X112985714Y-55140476D02*
X113509524Y-55140476D01*
X113604762Y-55092857D01*
X113652381Y-54997619D01*
X113652381Y-54854761D01*
X113604762Y-54759523D01*
X113557143Y-54711904D01*
X113128571Y-53902380D02*
X113128571Y-54235714D01*
X113652381Y-54235714D02*
X112652381Y-54235714D01*
X112652381Y-53759523D01*
X138352381Y-56571428D02*
X138352381Y-57142857D01*
X138352381Y-56857143D02*
X137352381Y-56857143D01*
X137495238Y-56952381D01*
X137590476Y-57047619D01*
X137638095Y-57142857D01*
X137352381Y-55952381D02*
X137352381Y-55857142D01*
X137400000Y-55761904D01*
X137447619Y-55714285D01*
X137542857Y-55666666D01*
X137733333Y-55619047D01*
X137971429Y-55619047D01*
X138161905Y-55666666D01*
X138257143Y-55714285D01*
X138304762Y-55761904D01*
X138352381Y-55857142D01*
X138352381Y-55952381D01*
X138304762Y-56047619D01*
X138257143Y-56095238D01*
X138161905Y-56142857D01*
X137971429Y-56190476D01*
X137733333Y-56190476D01*
X137542857Y-56142857D01*
X137447619Y-56095238D01*
X137400000Y-56047619D01*
X137352381Y-55952381D01*
X137685714Y-54761904D02*
X138352381Y-54761904D01*
X137685714Y-55190476D02*
X138209524Y-55190476D01*
X138304762Y-55142857D01*
X138352381Y-55047619D01*
X138352381Y-54904761D01*
X138304762Y-54809523D01*
X138257143Y-54761904D01*
X137828571Y-53952380D02*
X137828571Y-54285714D01*
X138352381Y-54285714D02*
X137352381Y-54285714D01*
X137352381Y-53809523D01*
X126002381Y-56521428D02*
X126002381Y-57092857D01*
X126002381Y-56807143D02*
X125002381Y-56807143D01*
X125145238Y-56902381D01*
X125240476Y-56997619D01*
X125288095Y-57092857D01*
X125002381Y-55902381D02*
X125002381Y-55807142D01*
X125050000Y-55711904D01*
X125097619Y-55664285D01*
X125192857Y-55616666D01*
X125383333Y-55569047D01*
X125621429Y-55569047D01*
X125811905Y-55616666D01*
X125907143Y-55664285D01*
X125954762Y-55711904D01*
X126002381Y-55807142D01*
X126002381Y-55902381D01*
X125954762Y-55997619D01*
X125907143Y-56045238D01*
X125811905Y-56092857D01*
X125621429Y-56140476D01*
X125383333Y-56140476D01*
X125192857Y-56092857D01*
X125097619Y-56045238D01*
X125050000Y-55997619D01*
X125002381Y-55902381D01*
X125335714Y-54711904D02*
X126002381Y-54711904D01*
X125335714Y-55140476D02*
X125859524Y-55140476D01*
X125954762Y-55092857D01*
X126002381Y-54997619D01*
X126002381Y-54854761D01*
X125954762Y-54759523D01*
X125907143Y-54711904D01*
X125478571Y-53902380D02*
X125478571Y-54235714D01*
X126002381Y-54235714D02*
X125002381Y-54235714D01*
X125002381Y-53759523D01*
X174612381Y-56761428D02*
X174612381Y-57332857D01*
X174612381Y-57047143D02*
X173612381Y-57047143D01*
X173755238Y-57142381D01*
X173850476Y-57237619D01*
X173898095Y-57332857D01*
X173612381Y-56142381D02*
X173612381Y-56047142D01*
X173660000Y-55951904D01*
X173707619Y-55904285D01*
X173802857Y-55856666D01*
X173993333Y-55809047D01*
X174231429Y-55809047D01*
X174421905Y-55856666D01*
X174517143Y-55904285D01*
X174564762Y-55951904D01*
X174612381Y-56047142D01*
X174612381Y-56142381D01*
X174564762Y-56237619D01*
X174517143Y-56285238D01*
X174421905Y-56332857D01*
X174231429Y-56380476D01*
X173993333Y-56380476D01*
X173802857Y-56332857D01*
X173707619Y-56285238D01*
X173660000Y-56237619D01*
X173612381Y-56142381D01*
X173945714Y-54951904D02*
X174612381Y-54951904D01*
X173945714Y-55380476D02*
X174469524Y-55380476D01*
X174564762Y-55332857D01*
X174612381Y-55237619D01*
X174612381Y-55094761D01*
X174564762Y-54999523D01*
X174517143Y-54951904D01*
X174088571Y-54142380D02*
X174088571Y-54475714D01*
X174612381Y-54475714D02*
X173612381Y-54475714D01*
X173612381Y-53999523D01*
X131118572Y-70542381D02*
X130547143Y-70542381D01*
X130832857Y-70542381D02*
X130832857Y-69542381D01*
X130737619Y-69685238D01*
X130642381Y-69780476D01*
X130547143Y-69828095D01*
X131690000Y-69970952D02*
X131594762Y-69923333D01*
X131547143Y-69875714D01*
X131499524Y-69780476D01*
X131499524Y-69732857D01*
X131547143Y-69637619D01*
X131594762Y-69590000D01*
X131690000Y-69542381D01*
X131880477Y-69542381D01*
X131975715Y-69590000D01*
X132023334Y-69637619D01*
X132070953Y-69732857D01*
X132070953Y-69780476D01*
X132023334Y-69875714D01*
X131975715Y-69923333D01*
X131880477Y-69970952D01*
X131690000Y-69970952D01*
X131594762Y-70018571D01*
X131547143Y-70066190D01*
X131499524Y-70161429D01*
X131499524Y-70351905D01*
X131547143Y-70447143D01*
X131594762Y-70494762D01*
X131690000Y-70542381D01*
X131880477Y-70542381D01*
X131975715Y-70494762D01*
X132023334Y-70447143D01*
X132070953Y-70351905D01*
X132070953Y-70161429D01*
X132023334Y-70066190D01*
X131975715Y-70018571D01*
X131880477Y-69970952D01*
X132499524Y-69875714D02*
X132499524Y-70875714D01*
X132499524Y-69923333D02*
X132594762Y-69875714D01*
X132785239Y-69875714D01*
X132880477Y-69923333D01*
X132928096Y-69970952D01*
X132975715Y-70066190D01*
X132975715Y-70351905D01*
X132928096Y-70447143D01*
X132880477Y-70494762D01*
X132785239Y-70542381D01*
X132594762Y-70542381D01*
X132499524Y-70494762D01*
X133737620Y-70018571D02*
X133404286Y-70018571D01*
X133404286Y-70542381D02*
X133404286Y-69542381D01*
X133880477Y-69542381D01*
X131108572Y-73382381D02*
X130537143Y-73382381D01*
X130822857Y-73382381D02*
X130822857Y-72382381D01*
X130727619Y-72525238D01*
X130632381Y-72620476D01*
X130537143Y-72668095D01*
X131680000Y-72810952D02*
X131584762Y-72763333D01*
X131537143Y-72715714D01*
X131489524Y-72620476D01*
X131489524Y-72572857D01*
X131537143Y-72477619D01*
X131584762Y-72430000D01*
X131680000Y-72382381D01*
X131870477Y-72382381D01*
X131965715Y-72430000D01*
X132013334Y-72477619D01*
X132060953Y-72572857D01*
X132060953Y-72620476D01*
X132013334Y-72715714D01*
X131965715Y-72763333D01*
X131870477Y-72810952D01*
X131680000Y-72810952D01*
X131584762Y-72858571D01*
X131537143Y-72906190D01*
X131489524Y-73001429D01*
X131489524Y-73191905D01*
X131537143Y-73287143D01*
X131584762Y-73334762D01*
X131680000Y-73382381D01*
X131870477Y-73382381D01*
X131965715Y-73334762D01*
X132013334Y-73287143D01*
X132060953Y-73191905D01*
X132060953Y-73001429D01*
X132013334Y-72906190D01*
X131965715Y-72858571D01*
X131870477Y-72810952D01*
X132489524Y-72715714D02*
X132489524Y-73715714D01*
X132489524Y-72763333D02*
X132584762Y-72715714D01*
X132775239Y-72715714D01*
X132870477Y-72763333D01*
X132918096Y-72810952D01*
X132965715Y-72906190D01*
X132965715Y-73191905D01*
X132918096Y-73287143D01*
X132870477Y-73334762D01*
X132775239Y-73382381D01*
X132584762Y-73382381D01*
X132489524Y-73334762D01*
X133727620Y-72858571D02*
X133394286Y-72858571D01*
X133394286Y-73382381D02*
X133394286Y-72382381D01*
X133870477Y-72382381D01*
X131752381Y-75821428D02*
X131752381Y-76392857D01*
X131752381Y-76107143D02*
X130752381Y-76107143D01*
X130895238Y-76202381D01*
X130990476Y-76297619D01*
X131038095Y-76392857D01*
X130752381Y-75202381D02*
X130752381Y-75107142D01*
X130800000Y-75011904D01*
X130847619Y-74964285D01*
X130942857Y-74916666D01*
X131133333Y-74869047D01*
X131371429Y-74869047D01*
X131561905Y-74916666D01*
X131657143Y-74964285D01*
X131704762Y-75011904D01*
X131752381Y-75107142D01*
X131752381Y-75202381D01*
X131704762Y-75297619D01*
X131657143Y-75345238D01*
X131561905Y-75392857D01*
X131371429Y-75440476D01*
X131133333Y-75440476D01*
X130942857Y-75392857D01*
X130847619Y-75345238D01*
X130800000Y-75297619D01*
X130752381Y-75202381D01*
X131085714Y-74440476D02*
X131752381Y-74440476D01*
X131180952Y-74440476D02*
X131133333Y-74392857D01*
X131085714Y-74297619D01*
X131085714Y-74154761D01*
X131133333Y-74059523D01*
X131228571Y-74011904D01*
X131752381Y-74011904D01*
X131228571Y-73202380D02*
X131228571Y-73535714D01*
X131752381Y-73535714D02*
X130752381Y-73535714D01*
X130752381Y-73059523D01*
X95085714Y-66315904D02*
X95752381Y-66315904D01*
X94704762Y-66554000D02*
X95419048Y-66792095D01*
X95419048Y-66173047D01*
X94752381Y-65887333D02*
X94752381Y-65220666D01*
X95752381Y-65649238D01*
X94752381Y-64649238D02*
X94752381Y-64553999D01*
X94800000Y-64458761D01*
X94847619Y-64411142D01*
X94942857Y-64363523D01*
X95133333Y-64315904D01*
X95371429Y-64315904D01*
X95561905Y-64363523D01*
X95657143Y-64411142D01*
X95704762Y-64458761D01*
X95752381Y-64553999D01*
X95752381Y-64649238D01*
X95704762Y-64744476D01*
X95657143Y-64792095D01*
X95561905Y-64839714D01*
X95371429Y-64887333D01*
X95133333Y-64887333D01*
X94942857Y-64839714D01*
X94847619Y-64792095D01*
X94800000Y-64744476D01*
X94752381Y-64649238D01*
X128838096Y-77185714D02*
X128838096Y-77852381D01*
X128600000Y-76804762D02*
X128361905Y-77519048D01*
X128980953Y-77519048D01*
X129266667Y-76852381D02*
X129933334Y-76852381D01*
X129504762Y-77852381D01*
X130504762Y-76852381D02*
X130600001Y-76852381D01*
X130695239Y-76900000D01*
X130742858Y-76947619D01*
X130790477Y-77042857D01*
X130838096Y-77233333D01*
X130838096Y-77471429D01*
X130790477Y-77661905D01*
X130742858Y-77757143D01*
X130695239Y-77804762D01*
X130600001Y-77852381D01*
X130504762Y-77852381D01*
X130409524Y-77804762D01*
X130361905Y-77757143D01*
X130314286Y-77661905D01*
X130266667Y-77471429D01*
X130266667Y-77233333D01*
X130314286Y-77042857D01*
X130361905Y-76947619D01*
X130409524Y-76900000D01*
X130504762Y-76852381D01*
X131685714Y-84911904D02*
X132352381Y-84911904D01*
X131304762Y-85150000D02*
X132019048Y-85388095D01*
X132019048Y-84769047D01*
X131352381Y-84483333D02*
X131352381Y-83816666D01*
X132352381Y-84245238D01*
X131352381Y-83245238D02*
X131352381Y-83149999D01*
X131400000Y-83054761D01*
X131447619Y-83007142D01*
X131542857Y-82959523D01*
X131733333Y-82911904D01*
X131971429Y-82911904D01*
X132161905Y-82959523D01*
X132257143Y-83007142D01*
X132304762Y-83054761D01*
X132352381Y-83149999D01*
X132352381Y-83245238D01*
X132304762Y-83340476D01*
X132257143Y-83388095D01*
X132161905Y-83435714D01*
X131971429Y-83483333D01*
X131733333Y-83483333D01*
X131542857Y-83435714D01*
X131447619Y-83388095D01*
X131400000Y-83340476D01*
X131352381Y-83245238D01*
X95185714Y-59211904D02*
X95852381Y-59211904D01*
X94804762Y-59450000D02*
X95519048Y-59688095D01*
X95519048Y-59069047D01*
X94852381Y-58783333D02*
X94852381Y-58116666D01*
X95852381Y-58545238D01*
X94852381Y-57545238D02*
X94852381Y-57449999D01*
X94900000Y-57354761D01*
X94947619Y-57307142D01*
X95042857Y-57259523D01*
X95233333Y-57211904D01*
X95471429Y-57211904D01*
X95661905Y-57259523D01*
X95757143Y-57307142D01*
X95804762Y-57354761D01*
X95852381Y-57449999D01*
X95852381Y-57545238D01*
X95804762Y-57640476D01*
X95757143Y-57688095D01*
X95661905Y-57735714D01*
X95471429Y-57783333D01*
X95233333Y-57783333D01*
X95042857Y-57735714D01*
X94947619Y-57688095D01*
X94900000Y-57640476D01*
X94852381Y-57545238D01*
X129752381Y-75340476D02*
X129752381Y-75911905D01*
X129752381Y-75626191D02*
X128752381Y-75626191D01*
X128895238Y-75721429D01*
X128990476Y-75816667D01*
X129038095Y-75911905D01*
X128752381Y-74721429D02*
X128752381Y-74626190D01*
X128800000Y-74530952D01*
X128847619Y-74483333D01*
X128942857Y-74435714D01*
X129133333Y-74388095D01*
X129371429Y-74388095D01*
X129561905Y-74435714D01*
X129657143Y-74483333D01*
X129704762Y-74530952D01*
X129752381Y-74626190D01*
X129752381Y-74721429D01*
X129704762Y-74816667D01*
X129657143Y-74864286D01*
X129561905Y-74911905D01*
X129371429Y-74959524D01*
X129133333Y-74959524D01*
X128942857Y-74911905D01*
X128847619Y-74864286D01*
X128800000Y-74816667D01*
X128752381Y-74721429D01*
X129752381Y-73959524D02*
X128752381Y-73959524D01*
X129752381Y-73388095D02*
X129180952Y-73816667D01*
X128752381Y-73388095D02*
X129323810Y-73959524D01*
X128102381Y-83490476D02*
X128102381Y-84061905D01*
X128102381Y-83776191D02*
X127102381Y-83776191D01*
X127245238Y-83871429D01*
X127340476Y-83966667D01*
X127388095Y-84061905D01*
X127102381Y-82871429D02*
X127102381Y-82776190D01*
X127150000Y-82680952D01*
X127197619Y-82633333D01*
X127292857Y-82585714D01*
X127483333Y-82538095D01*
X127721429Y-82538095D01*
X127911905Y-82585714D01*
X128007143Y-82633333D01*
X128054762Y-82680952D01*
X128102381Y-82776190D01*
X128102381Y-82871429D01*
X128054762Y-82966667D01*
X128007143Y-83014286D01*
X127911905Y-83061905D01*
X127721429Y-83109524D01*
X127483333Y-83109524D01*
X127292857Y-83061905D01*
X127197619Y-83014286D01*
X127150000Y-82966667D01*
X127102381Y-82871429D01*
X128102381Y-82109524D02*
X127102381Y-82109524D01*
X128102381Y-81538095D02*
X127530952Y-81966667D01*
X127102381Y-81538095D02*
X127673810Y-82109524D01*
X113983334Y-77952381D02*
X113411905Y-77952381D01*
X113697619Y-77952381D02*
X113697619Y-76952381D01*
X113602381Y-77095238D01*
X113507143Y-77190476D01*
X113411905Y-77238095D01*
X114602381Y-76952381D02*
X114697620Y-76952381D01*
X114792858Y-77000000D01*
X114840477Y-77047619D01*
X114888096Y-77142857D01*
X114935715Y-77333333D01*
X114935715Y-77571429D01*
X114888096Y-77761905D01*
X114840477Y-77857143D01*
X114792858Y-77904762D01*
X114697620Y-77952381D01*
X114602381Y-77952381D01*
X114507143Y-77904762D01*
X114459524Y-77857143D01*
X114411905Y-77761905D01*
X114364286Y-77571429D01*
X114364286Y-77333333D01*
X114411905Y-77142857D01*
X114459524Y-77047619D01*
X114507143Y-77000000D01*
X114602381Y-76952381D01*
X115554762Y-76952381D02*
X115650001Y-76952381D01*
X115745239Y-77000000D01*
X115792858Y-77047619D01*
X115840477Y-77142857D01*
X115888096Y-77333333D01*
X115888096Y-77571429D01*
X115840477Y-77761905D01*
X115792858Y-77857143D01*
X115745239Y-77904762D01*
X115650001Y-77952381D01*
X115554762Y-77952381D01*
X115459524Y-77904762D01*
X115411905Y-77857143D01*
X115364286Y-77761905D01*
X115316667Y-77571429D01*
X115316667Y-77333333D01*
X115364286Y-77142857D01*
X115411905Y-77047619D01*
X115459524Y-77000000D01*
X115554762Y-76952381D01*
X116316667Y-77952381D02*
X116316667Y-76952381D01*
X116888096Y-77952381D02*
X116459524Y-77380952D01*
X116888096Y-76952381D02*
X116316667Y-77523810D01*
X114350000Y-67457619D02*
X114397619Y-67410000D01*
X114492857Y-67362381D01*
X114730953Y-67362381D01*
X114826191Y-67410000D01*
X114873810Y-67457619D01*
X114921429Y-67552857D01*
X114921429Y-67648095D01*
X114873810Y-67790952D01*
X114302381Y-68362381D01*
X114921429Y-68362381D01*
X115350000Y-68267143D02*
X115397619Y-68314762D01*
X115350000Y-68362381D01*
X115302381Y-68314762D01*
X115350000Y-68267143D01*
X115350000Y-68362381D01*
X115730952Y-67362381D02*
X116397619Y-67362381D01*
X115969047Y-68362381D01*
X116778571Y-68362381D02*
X116778571Y-67362381D01*
X117350000Y-68362381D02*
X116921428Y-67790952D01*
X117350000Y-67362381D02*
X116778571Y-67933810D01*
X119814286Y-110952381D02*
X120480953Y-110952381D01*
X120052381Y-111952381D01*
X120766667Y-110952381D02*
X121385715Y-110952381D01*
X121052381Y-111333333D01*
X121195239Y-111333333D01*
X121290477Y-111380952D01*
X121338096Y-111428571D01*
X121385715Y-111523810D01*
X121385715Y-111761905D01*
X121338096Y-111857143D01*
X121290477Y-111904762D01*
X121195239Y-111952381D01*
X120909524Y-111952381D01*
X120814286Y-111904762D01*
X120766667Y-111857143D01*
X121814286Y-111952381D02*
X121814286Y-110952381D01*
X122385715Y-111952381D02*
X121957143Y-111380952D01*
X122385715Y-110952381D02*
X121814286Y-111523810D01*
X122766667Y-111047619D02*
X122814286Y-111000000D01*
X122909524Y-110952381D01*
X123147620Y-110952381D01*
X123242858Y-111000000D01*
X123290477Y-111047619D01*
X123338096Y-111142857D01*
X123338096Y-111238095D01*
X123290477Y-111380952D01*
X122719048Y-111952381D01*
X123338096Y-111952381D01*
X120909524Y-104902381D02*
X120338095Y-104902381D01*
X120623809Y-104902381D02*
X120623809Y-103902381D01*
X120528571Y-104045238D01*
X120433333Y-104140476D01*
X120338095Y-104188095D01*
X121528571Y-103902381D02*
X121623810Y-103902381D01*
X121719048Y-103950000D01*
X121766667Y-103997619D01*
X121814286Y-104092857D01*
X121861905Y-104283333D01*
X121861905Y-104521429D01*
X121814286Y-104711905D01*
X121766667Y-104807143D01*
X121719048Y-104854762D01*
X121623810Y-104902381D01*
X121528571Y-104902381D01*
X121433333Y-104854762D01*
X121385714Y-104807143D01*
X121338095Y-104711905D01*
X121290476Y-104521429D01*
X121290476Y-104283333D01*
X121338095Y-104092857D01*
X121385714Y-103997619D01*
X121433333Y-103950000D01*
X121528571Y-103902381D01*
X122290476Y-104902381D02*
X122290476Y-103902381D01*
X122861905Y-104902381D02*
X122433333Y-104330952D01*
X122861905Y-103902381D02*
X122290476Y-104473810D01*
X102864286Y-94202381D02*
X103483334Y-94202381D01*
X103150000Y-94583333D01*
X103292858Y-94583333D01*
X103388096Y-94630952D01*
X103435715Y-94678571D01*
X103483334Y-94773810D01*
X103483334Y-95011905D01*
X103435715Y-95107143D01*
X103388096Y-95154762D01*
X103292858Y-95202381D01*
X103007143Y-95202381D01*
X102911905Y-95154762D01*
X102864286Y-95107143D01*
X103816667Y-94202381D02*
X104435715Y-94202381D01*
X104102381Y-94583333D01*
X104245239Y-94583333D01*
X104340477Y-94630952D01*
X104388096Y-94678571D01*
X104435715Y-94773810D01*
X104435715Y-95011905D01*
X104388096Y-95107143D01*
X104340477Y-95154762D01*
X104245239Y-95202381D01*
X103959524Y-95202381D01*
X103864286Y-95154762D01*
X103816667Y-95107143D01*
X105054762Y-94202381D02*
X105150001Y-94202381D01*
X105245239Y-94250000D01*
X105292858Y-94297619D01*
X105340477Y-94392857D01*
X105388096Y-94583333D01*
X105388096Y-94821429D01*
X105340477Y-95011905D01*
X105292858Y-95107143D01*
X105245239Y-95154762D01*
X105150001Y-95202381D01*
X105054762Y-95202381D01*
X104959524Y-95154762D01*
X104911905Y-95107143D01*
X104864286Y-95011905D01*
X104816667Y-94821429D01*
X104816667Y-94583333D01*
X104864286Y-94392857D01*
X104911905Y-94297619D01*
X104959524Y-94250000D01*
X105054762Y-94202381D01*
X121752381Y-83966666D02*
X121752381Y-84538095D01*
X121752381Y-84252381D02*
X120752381Y-84252381D01*
X120895238Y-84347619D01*
X120990476Y-84442857D01*
X121038095Y-84538095D01*
X120752381Y-83347619D02*
X120752381Y-83252380D01*
X120800000Y-83157142D01*
X120847619Y-83109523D01*
X120942857Y-83061904D01*
X121133333Y-83014285D01*
X121371429Y-83014285D01*
X121561905Y-83061904D01*
X121657143Y-83109523D01*
X121704762Y-83157142D01*
X121752381Y-83252380D01*
X121752381Y-83347619D01*
X121704762Y-83442857D01*
X121657143Y-83490476D01*
X121561905Y-83538095D01*
X121371429Y-83585714D01*
X121133333Y-83585714D01*
X120942857Y-83538095D01*
X120847619Y-83490476D01*
X120800000Y-83442857D01*
X120752381Y-83347619D01*
X120752381Y-82395238D02*
X120752381Y-82299999D01*
X120800000Y-82204761D01*
X120847619Y-82157142D01*
X120942857Y-82109523D01*
X121133333Y-82061904D01*
X121371429Y-82061904D01*
X121561905Y-82109523D01*
X121657143Y-82157142D01*
X121704762Y-82204761D01*
X121752381Y-82299999D01*
X121752381Y-82395238D01*
X121704762Y-82490476D01*
X121657143Y-82538095D01*
X121561905Y-82585714D01*
X121371429Y-82633333D01*
X121133333Y-82633333D01*
X120942857Y-82585714D01*
X120847619Y-82538095D01*
X120800000Y-82490476D01*
X120752381Y-82395238D01*
X121752381Y-81633333D02*
X120752381Y-81633333D01*
X121752381Y-81061904D02*
X121180952Y-81490476D01*
X120752381Y-81061904D02*
X121323810Y-81633333D01*
X113933334Y-75552381D02*
X113361905Y-75552381D01*
X113647619Y-75552381D02*
X113647619Y-74552381D01*
X113552381Y-74695238D01*
X113457143Y-74790476D01*
X113361905Y-74838095D01*
X114552381Y-74552381D02*
X114647620Y-74552381D01*
X114742858Y-74600000D01*
X114790477Y-74647619D01*
X114838096Y-74742857D01*
X114885715Y-74933333D01*
X114885715Y-75171429D01*
X114838096Y-75361905D01*
X114790477Y-75457143D01*
X114742858Y-75504762D01*
X114647620Y-75552381D01*
X114552381Y-75552381D01*
X114457143Y-75504762D01*
X114409524Y-75457143D01*
X114361905Y-75361905D01*
X114314286Y-75171429D01*
X114314286Y-74933333D01*
X114361905Y-74742857D01*
X114409524Y-74647619D01*
X114457143Y-74600000D01*
X114552381Y-74552381D01*
X115504762Y-74552381D02*
X115600001Y-74552381D01*
X115695239Y-74600000D01*
X115742858Y-74647619D01*
X115790477Y-74742857D01*
X115838096Y-74933333D01*
X115838096Y-75171429D01*
X115790477Y-75361905D01*
X115742858Y-75457143D01*
X115695239Y-75504762D01*
X115600001Y-75552381D01*
X115504762Y-75552381D01*
X115409524Y-75504762D01*
X115361905Y-75457143D01*
X115314286Y-75361905D01*
X115266667Y-75171429D01*
X115266667Y-74933333D01*
X115314286Y-74742857D01*
X115361905Y-74647619D01*
X115409524Y-74600000D01*
X115504762Y-74552381D01*
X116266667Y-75552381D02*
X116266667Y-74552381D01*
X116838096Y-75552381D02*
X116409524Y-74980952D01*
X116838096Y-74552381D02*
X116266667Y-75123810D01*
X153834286Y-67892381D02*
X153834286Y-66892381D01*
X154881905Y-67892381D02*
X154548571Y-67416190D01*
X154310476Y-67892381D02*
X154310476Y-66892381D01*
X154691429Y-66892381D01*
X154786667Y-66940000D01*
X154834286Y-66987619D01*
X154881905Y-67082857D01*
X154881905Y-67225714D01*
X154834286Y-67320952D01*
X154786667Y-67368571D01*
X154691429Y-67416190D01*
X154310476Y-67416190D01*
X155786667Y-67892381D02*
X155310476Y-67892381D01*
X155310476Y-66892381D01*
X156120000Y-67892381D02*
X156120000Y-66892381D01*
X156453334Y-67606667D01*
X156786667Y-66892381D01*
X156786667Y-67892381D01*
X157739048Y-67892381D02*
X157262857Y-67892381D01*
X157262857Y-66892381D01*
X158500953Y-66892381D02*
X158310476Y-66892381D01*
X158215238Y-66940000D01*
X158167619Y-66987619D01*
X158072381Y-67130476D01*
X158024762Y-67320952D01*
X158024762Y-67701905D01*
X158072381Y-67797143D01*
X158120000Y-67844762D01*
X158215238Y-67892381D01*
X158405715Y-67892381D01*
X158500953Y-67844762D01*
X158548572Y-67797143D01*
X158596191Y-67701905D01*
X158596191Y-67463810D01*
X158548572Y-67368571D01*
X158500953Y-67320952D01*
X158405715Y-67273333D01*
X158215238Y-67273333D01*
X158120000Y-67320952D01*
X158072381Y-67368571D01*
X158024762Y-67463810D01*
X159453334Y-67225714D02*
X159453334Y-67892381D01*
X159215238Y-66844762D02*
X158977143Y-67559048D01*
X159596191Y-67559048D01*
X160167619Y-66892381D02*
X160262858Y-66892381D01*
X160358096Y-66940000D01*
X160405715Y-66987619D01*
X160453334Y-67082857D01*
X160500953Y-67273333D01*
X160500953Y-67511429D01*
X160453334Y-67701905D01*
X160405715Y-67797143D01*
X160358096Y-67844762D01*
X160262858Y-67892381D01*
X160167619Y-67892381D01*
X160072381Y-67844762D01*
X160024762Y-67797143D01*
X159977143Y-67701905D01*
X159929524Y-67511429D01*
X159929524Y-67273333D01*
X159977143Y-67082857D01*
X160024762Y-66987619D01*
X160072381Y-66940000D01*
X160167619Y-66892381D01*
X161453334Y-67892381D02*
X160881905Y-67892381D01*
X161167619Y-67892381D02*
X161167619Y-66892381D01*
X161072381Y-67035238D01*
X160977143Y-67130476D01*
X160881905Y-67178095D01*
X144354286Y-64560601D02*
X144354286Y-63560601D01*
X145401905Y-64560601D02*
X145068571Y-64084410D01*
X144830476Y-64560601D02*
X144830476Y-63560601D01*
X145211429Y-63560601D01*
X145306667Y-63608220D01*
X145354286Y-63655839D01*
X145401905Y-63751077D01*
X145401905Y-63893934D01*
X145354286Y-63989172D01*
X145306667Y-64036791D01*
X145211429Y-64084410D01*
X144830476Y-64084410D01*
X146306667Y-64560601D02*
X145830476Y-64560601D01*
X145830476Y-63560601D01*
X146640000Y-64560601D02*
X146640000Y-63560601D01*
X146973334Y-64274887D01*
X147306667Y-63560601D01*
X147306667Y-64560601D01*
X148259048Y-64560601D02*
X147782857Y-64560601D01*
X147782857Y-63560601D01*
X149020953Y-63560601D02*
X148830476Y-63560601D01*
X148735238Y-63608220D01*
X148687619Y-63655839D01*
X148592381Y-63798696D01*
X148544762Y-63989172D01*
X148544762Y-64370125D01*
X148592381Y-64465363D01*
X148640000Y-64512982D01*
X148735238Y-64560601D01*
X148925715Y-64560601D01*
X149020953Y-64512982D01*
X149068572Y-64465363D01*
X149116191Y-64370125D01*
X149116191Y-64132030D01*
X149068572Y-64036791D01*
X149020953Y-63989172D01*
X148925715Y-63941553D01*
X148735238Y-63941553D01*
X148640000Y-63989172D01*
X148592381Y-64036791D01*
X148544762Y-64132030D01*
X149973334Y-63893934D02*
X149973334Y-64560601D01*
X149735238Y-63512982D02*
X149497143Y-64227268D01*
X150116191Y-64227268D01*
X150687619Y-63560601D02*
X150782858Y-63560601D01*
X150878096Y-63608220D01*
X150925715Y-63655839D01*
X150973334Y-63751077D01*
X151020953Y-63941553D01*
X151020953Y-64179649D01*
X150973334Y-64370125D01*
X150925715Y-64465363D01*
X150878096Y-64512982D01*
X150782858Y-64560601D01*
X150687619Y-64560601D01*
X150592381Y-64512982D01*
X150544762Y-64465363D01*
X150497143Y-64370125D01*
X150449524Y-64179649D01*
X150449524Y-63941553D01*
X150497143Y-63751077D01*
X150544762Y-63655839D01*
X150592381Y-63608220D01*
X150687619Y-63560601D01*
X151973334Y-64560601D02*
X151401905Y-64560601D01*
X151687619Y-64560601D02*
X151687619Y-63560601D01*
X151592381Y-63703458D01*
X151497143Y-63798696D01*
X151401905Y-63846315D01*
X146392381Y-88935714D02*
X146392381Y-88316666D01*
X146773333Y-88650000D01*
X146773333Y-88507142D01*
X146820952Y-88411904D01*
X146868571Y-88364285D01*
X146963810Y-88316666D01*
X147201905Y-88316666D01*
X147297143Y-88364285D01*
X147344762Y-88411904D01*
X147392381Y-88507142D01*
X147392381Y-88792857D01*
X147344762Y-88888095D01*
X147297143Y-88935714D01*
X146392381Y-87983333D02*
X146392381Y-87364285D01*
X146773333Y-87697619D01*
X146773333Y-87554761D01*
X146820952Y-87459523D01*
X146868571Y-87411904D01*
X146963810Y-87364285D01*
X147201905Y-87364285D01*
X147297143Y-87411904D01*
X147344762Y-87459523D01*
X147392381Y-87554761D01*
X147392381Y-87840476D01*
X147344762Y-87935714D01*
X147297143Y-87983333D01*
X146392381Y-86745238D02*
X146392381Y-86649999D01*
X146440000Y-86554761D01*
X146487619Y-86507142D01*
X146582857Y-86459523D01*
X146773333Y-86411904D01*
X147011429Y-86411904D01*
X147201905Y-86459523D01*
X147297143Y-86507142D01*
X147344762Y-86554761D01*
X147392381Y-86649999D01*
X147392381Y-86745238D01*
X147344762Y-86840476D01*
X147297143Y-86888095D01*
X147201905Y-86935714D01*
X147011429Y-86983333D01*
X146773333Y-86983333D01*
X146582857Y-86935714D01*
X146487619Y-86888095D01*
X146440000Y-86840476D01*
X146392381Y-86745238D01*
X141832381Y-90192129D02*
X140832381Y-90192129D01*
X141546667Y-89858795D01*
X140832381Y-89525462D01*
X141832381Y-89525462D01*
X141737143Y-88477843D02*
X141784762Y-88525462D01*
X141832381Y-88668319D01*
X141832381Y-88763557D01*
X141784762Y-88906415D01*
X141689524Y-89001653D01*
X141594286Y-89049272D01*
X141403810Y-89096891D01*
X141260952Y-89096891D01*
X141070476Y-89049272D01*
X140975238Y-89001653D01*
X140880000Y-88906415D01*
X140832381Y-88763557D01*
X140832381Y-88668319D01*
X140880000Y-88525462D01*
X140927619Y-88477843D01*
X141784762Y-87334986D02*
X141832381Y-87192129D01*
X141832381Y-86954033D01*
X141784762Y-86858795D01*
X141737143Y-86811176D01*
X141641905Y-86763557D01*
X141546667Y-86763557D01*
X141451429Y-86811176D01*
X141403810Y-86858795D01*
X141356190Y-86954033D01*
X141308571Y-87144510D01*
X141260952Y-87239748D01*
X141213333Y-87287367D01*
X141118095Y-87334986D01*
X141022857Y-87334986D01*
X140927619Y-87287367D01*
X140880000Y-87239748D01*
X140832381Y-87144510D01*
X140832381Y-86906414D01*
X140880000Y-86763557D01*
X141165714Y-86477843D02*
X141165714Y-86096891D01*
X140832381Y-86334986D02*
X141689524Y-86334986D01*
X141784762Y-86287367D01*
X141832381Y-86192129D01*
X141832381Y-86096891D01*
X141832381Y-85334985D02*
X141308571Y-85334985D01*
X141213333Y-85382604D01*
X141165714Y-85477842D01*
X141165714Y-85668319D01*
X141213333Y-85763557D01*
X141784762Y-85334985D02*
X141832381Y-85430223D01*
X141832381Y-85668319D01*
X141784762Y-85763557D01*
X141689524Y-85811176D01*
X141594286Y-85811176D01*
X141499048Y-85763557D01*
X141451429Y-85668319D01*
X141451429Y-85430223D01*
X141403810Y-85334985D01*
X141165714Y-85001652D02*
X141165714Y-84620700D01*
X140832381Y-84858795D02*
X141689524Y-84858795D01*
X141784762Y-84811176D01*
X141832381Y-84715938D01*
X141832381Y-84620700D01*
X141165714Y-83858794D02*
X141832381Y-83858794D01*
X141165714Y-84287366D02*
X141689524Y-84287366D01*
X141784762Y-84239747D01*
X141832381Y-84144509D01*
X141832381Y-84001651D01*
X141784762Y-83906413D01*
X141737143Y-83858794D01*
X141784762Y-83430223D02*
X141832381Y-83334985D01*
X141832381Y-83144509D01*
X141784762Y-83049270D01*
X141689524Y-83001651D01*
X141641905Y-83001651D01*
X141546667Y-83049270D01*
X141499048Y-83144509D01*
X141499048Y-83287366D01*
X141451429Y-83382604D01*
X141356190Y-83430223D01*
X141308571Y-83430223D01*
X141213333Y-83382604D01*
X141165714Y-83287366D01*
X141165714Y-83144509D01*
X141213333Y-83049270D01*
X187692381Y-88117619D02*
X187692381Y-88689048D01*
X187692381Y-88403334D02*
X186692381Y-88403334D01*
X186835238Y-88498572D01*
X186930476Y-88593810D01*
X186978095Y-88689048D01*
X186692381Y-87498572D02*
X186692381Y-87403333D01*
X186740000Y-87308095D01*
X186787619Y-87260476D01*
X186882857Y-87212857D01*
X187073333Y-87165238D01*
X187311429Y-87165238D01*
X187501905Y-87212857D01*
X187597143Y-87260476D01*
X187644762Y-87308095D01*
X187692381Y-87403333D01*
X187692381Y-87498572D01*
X187644762Y-87593810D01*
X187597143Y-87641429D01*
X187501905Y-87689048D01*
X187311429Y-87736667D01*
X187073333Y-87736667D01*
X186882857Y-87689048D01*
X186787619Y-87641429D01*
X186740000Y-87593810D01*
X186692381Y-87498572D01*
X186692381Y-86546191D02*
X186692381Y-86450952D01*
X186740000Y-86355714D01*
X186787619Y-86308095D01*
X186882857Y-86260476D01*
X187073333Y-86212857D01*
X187311429Y-86212857D01*
X187501905Y-86260476D01*
X187597143Y-86308095D01*
X187644762Y-86355714D01*
X187692381Y-86450952D01*
X187692381Y-86546191D01*
X187644762Y-86641429D01*
X187597143Y-86689048D01*
X187501905Y-86736667D01*
X187311429Y-86784286D01*
X187073333Y-86784286D01*
X186882857Y-86736667D01*
X186787619Y-86689048D01*
X186740000Y-86641429D01*
X186692381Y-86546191D01*
X187025714Y-85355714D02*
X187692381Y-85355714D01*
X187025714Y-85784286D02*
X187549524Y-85784286D01*
X187644762Y-85736667D01*
X187692381Y-85641429D01*
X187692381Y-85498571D01*
X187644762Y-85403333D01*
X187597143Y-85355714D01*
X187168571Y-84546190D02*
X187168571Y-84879524D01*
X187692381Y-84879524D02*
X186692381Y-84879524D01*
X186692381Y-84403333D01*
X110237619Y-102672857D02*
X110190000Y-102625238D01*
X110142381Y-102530000D01*
X110142381Y-102291904D01*
X110190000Y-102196666D01*
X110237619Y-102149047D01*
X110332857Y-102101428D01*
X110428095Y-102101428D01*
X110570952Y-102149047D01*
X111142381Y-102720476D01*
X111142381Y-102101428D01*
X110237619Y-101720476D02*
X110190000Y-101672857D01*
X110142381Y-101577619D01*
X110142381Y-101339523D01*
X110190000Y-101244285D01*
X110237619Y-101196666D01*
X110332857Y-101149047D01*
X110428095Y-101149047D01*
X110570952Y-101196666D01*
X111142381Y-101768095D01*
X111142381Y-101149047D01*
X110475714Y-100291904D02*
X111142381Y-100291904D01*
X110475714Y-100720476D02*
X110999524Y-100720476D01*
X111094762Y-100672857D01*
X111142381Y-100577619D01*
X111142381Y-100434761D01*
X111094762Y-100339523D01*
X111047143Y-100291904D01*
X110618571Y-99482380D02*
X110618571Y-99815714D01*
X111142381Y-99815714D02*
X110142381Y-99815714D01*
X110142381Y-99339523D01*
X144939095Y-101073663D02*
X144535033Y-101477724D01*
X144737064Y-101275694D02*
X144029957Y-100568587D01*
X144063629Y-100736945D01*
X144063629Y-100871632D01*
X144029957Y-100972648D01*
X144939094Y-100265541D02*
X144838079Y-100299212D01*
X144770735Y-100299212D01*
X144669720Y-100265541D01*
X144636049Y-100231869D01*
X144602377Y-100130854D01*
X144602377Y-100063510D01*
X144636049Y-99962495D01*
X144770736Y-99827808D01*
X144871751Y-99794136D01*
X144939095Y-99794136D01*
X145040110Y-99827808D01*
X145073782Y-99861479D01*
X145107453Y-99962495D01*
X145107453Y-100029838D01*
X145073782Y-100130853D01*
X144939094Y-100265541D01*
X144905422Y-100366556D01*
X144905422Y-100433899D01*
X144939095Y-100534915D01*
X145073782Y-100669602D01*
X145174797Y-100703274D01*
X145242140Y-100703274D01*
X145343155Y-100669602D01*
X145477843Y-100534914D01*
X145511515Y-100433899D01*
X145511515Y-100366556D01*
X145477843Y-100265541D01*
X145343156Y-100130854D01*
X145242140Y-100097181D01*
X145174797Y-100097181D01*
X145073782Y-100130853D01*
X145444170Y-99625777D02*
X146151277Y-100332884D01*
X145477842Y-99659449D02*
X145511514Y-99558434D01*
X145646201Y-99423746D01*
X145747217Y-99390075D01*
X145814560Y-99390075D01*
X145915575Y-99423746D01*
X146117606Y-99625777D01*
X146151278Y-99726793D01*
X146151278Y-99794136D01*
X146117606Y-99895151D01*
X145982919Y-100029839D01*
X145881903Y-100063510D01*
X146420652Y-98851326D02*
X146184949Y-99087029D01*
X146555339Y-99457419D02*
X145848232Y-98750312D01*
X146184950Y-98413594D01*
X150285441Y-108601329D02*
X149881379Y-109005390D01*
X150083410Y-108803360D02*
X149376303Y-108096253D01*
X149409975Y-108264611D01*
X149409975Y-108399298D01*
X149376303Y-108500314D01*
X150285440Y-107793207D02*
X150184425Y-107826878D01*
X150117081Y-107826878D01*
X150016066Y-107793207D01*
X149982395Y-107759535D01*
X149948723Y-107658520D01*
X149948723Y-107591176D01*
X149982395Y-107490161D01*
X150117082Y-107355474D01*
X150218097Y-107321802D01*
X150285441Y-107321802D01*
X150386456Y-107355474D01*
X150420128Y-107389145D01*
X150453799Y-107490161D01*
X150453799Y-107557504D01*
X150420128Y-107658519D01*
X150285440Y-107793207D01*
X150251768Y-107894222D01*
X150251768Y-107961565D01*
X150285441Y-108062581D01*
X150420128Y-108197268D01*
X150521143Y-108230940D01*
X150588486Y-108230940D01*
X150689501Y-108197268D01*
X150824189Y-108062580D01*
X150857861Y-107961565D01*
X150857861Y-107894222D01*
X150824189Y-107793207D01*
X150689502Y-107658520D01*
X150588486Y-107624847D01*
X150521143Y-107624847D01*
X150420128Y-107658519D01*
X150790516Y-107153443D02*
X151497623Y-107860550D01*
X150824188Y-107187115D02*
X150857860Y-107086100D01*
X150992547Y-106951412D01*
X151093563Y-106917741D01*
X151160906Y-106917741D01*
X151261921Y-106951412D01*
X151463952Y-107153443D01*
X151497624Y-107254459D01*
X151497624Y-107321802D01*
X151463952Y-107422817D01*
X151329265Y-107557505D01*
X151228249Y-107591176D01*
X151766998Y-106378992D02*
X151531295Y-106614695D01*
X151901685Y-106985085D02*
X151194578Y-106277978D01*
X151531296Y-105941260D01*
X142527749Y-105362690D02*
X142527749Y-105295347D01*
X142561420Y-105194331D01*
X142729780Y-105025972D01*
X142830795Y-104992300D01*
X142898138Y-104992300D01*
X142999153Y-105025972D01*
X143066497Y-105093316D01*
X143133840Y-105228002D01*
X143133840Y-106036125D01*
X143571573Y-105598392D01*
X143302199Y-104453553D02*
X143369543Y-104386209D01*
X143470558Y-104352537D01*
X143537902Y-104352537D01*
X143638917Y-104386209D01*
X143807275Y-104487224D01*
X143975635Y-104655583D01*
X144076650Y-104823942D01*
X144110321Y-104924957D01*
X144110321Y-104992300D01*
X144076650Y-105093316D01*
X144009306Y-105160660D01*
X143908290Y-105194331D01*
X143840947Y-105194331D01*
X143739932Y-105160660D01*
X143571573Y-105059645D01*
X143403214Y-104891285D01*
X143302199Y-104722927D01*
X143268527Y-104621912D01*
X143268527Y-104554568D01*
X143302199Y-104453553D01*
X144480710Y-104554568D02*
X144548054Y-104554568D01*
X144548054Y-104621912D01*
X144480710Y-104621912D01*
X144480710Y-104554568D01*
X144548054Y-104621912D01*
X144312351Y-103443401D02*
X144379695Y-103376057D01*
X144480710Y-103342385D01*
X144548054Y-103342385D01*
X144649069Y-103376057D01*
X144817428Y-103477072D01*
X144985787Y-103645431D01*
X145086802Y-103813790D01*
X145120474Y-103914805D01*
X145120474Y-103982148D01*
X145086802Y-104083163D01*
X145019458Y-104150507D01*
X144918443Y-104184179D01*
X144851099Y-104184179D01*
X144750084Y-104150507D01*
X144581726Y-104049492D01*
X144413366Y-103881133D01*
X144312351Y-103712774D01*
X144278679Y-103611759D01*
X144278679Y-103544416D01*
X144312351Y-103443401D01*
X144985786Y-102769966D02*
X145053130Y-102702622D01*
X145154145Y-102668950D01*
X145221489Y-102668950D01*
X145322504Y-102702622D01*
X145490863Y-102803637D01*
X145659222Y-102971996D01*
X145760237Y-103140355D01*
X145793909Y-103241370D01*
X145793909Y-103308713D01*
X145760237Y-103409728D01*
X145692893Y-103477072D01*
X145591878Y-103510744D01*
X145524534Y-103510744D01*
X145423519Y-103477072D01*
X145255161Y-103376057D01*
X145086801Y-103207698D01*
X144985786Y-103039339D01*
X144952114Y-102938324D01*
X144952114Y-102870981D01*
X144985786Y-102769966D01*
X145659221Y-102096531D02*
X145726565Y-102029186D01*
X145827580Y-101995515D01*
X145894924Y-101995515D01*
X145995939Y-102029186D01*
X146164298Y-102130202D01*
X146332657Y-102298561D01*
X146433672Y-102466919D01*
X146467344Y-102567935D01*
X146467344Y-102635278D01*
X146433672Y-102736293D01*
X146366328Y-102803637D01*
X146265313Y-102837309D01*
X146197969Y-102837309D01*
X146096954Y-102803637D01*
X145928596Y-102702622D01*
X145760236Y-102534263D01*
X145659221Y-102365904D01*
X145625549Y-102264889D01*
X145625549Y-102197546D01*
X145659221Y-102096531D01*
X147443824Y-101726141D02*
X146736718Y-101019034D01*
X147477497Y-101288408D01*
X147208122Y-100547629D01*
X147915229Y-101254736D01*
X148251946Y-100918019D02*
X147544840Y-100210912D01*
X148554992Y-100614973D02*
X148184603Y-100244583D01*
X148083588Y-100210912D01*
X147982573Y-100244583D01*
X147881557Y-100345599D01*
X147847885Y-100446614D01*
X147847885Y-100513958D01*
X148352961Y-99874194D02*
X148723351Y-99503805D01*
X148824366Y-100345599D01*
X149194756Y-99975210D01*
M02*
