G04 #@! TF.FileFunction,Soldermask,Top*
%FSLAX46Y46*%
G04 Gerber Fmt 4.6, Leading zero omitted, Abs format (unit mm)*
G04 Created by KiCad (PCBNEW 4.0.5) date 02/02/17 00:28:59*
%MOMM*%
%LPD*%
G01*
G04 APERTURE LIST*
%ADD10C,0.100000*%
%ADD11R,1.400000X1.075000*%
%ADD12R,4.695000X4.910000*%
%ADD13O,2.500000X2.500000*%
%ADD14C,1.600000*%
%ADD15R,1.300000X2.100000*%
%ADD16R,2.100000X1.300000*%
%ADD17O,1.500000X2.800000*%
%ADD18R,2.800000X1.500000*%
%ADD19O,2.800000X1.500000*%
%ADD20R,1.650000X1.400000*%
%ADD21R,2.429460X3.051760*%
%ADD22R,1.400000X1.650000*%
%ADD23R,1.050000X1.460000*%
%ADD24R,1.700000X1.100000*%
%ADD25R,1.100000X1.700000*%
%ADD26R,0.800000X1.500000*%
%ADD27R,2.500580X6.000700*%
%ADD28R,1.600000X0.800000*%
%ADD29C,1.924000*%
%ADD30C,3.100020*%
%ADD31R,1.598880X1.598880*%
%ADD32R,2.300000X2.400000*%
%ADD33C,2.300000*%
%ADD34R,2.400000X2.300000*%
%ADD35C,5.200600*%
%ADD36R,5.200600X5.200600*%
%ADD37R,3.051760X2.429460*%
%ADD38R,2.900000X2.900000*%
%ADD39R,1.150000X1.200000*%
%ADD40R,1.200100X1.200100*%
%ADD41R,1.197560X1.197560*%
%ADD42R,2.127200X2.127200*%
%ADD43O,2.127200X2.127200*%
%ADD44R,2.127200X2.432000*%
%ADD45O,2.127200X2.432000*%
%ADD46R,2.432000X2.127200*%
%ADD47O,2.432000X2.127200*%
%ADD48R,2.900000X1.300000*%
G04 APERTURE END LIST*
D10*
D11*
X117450000Y-112060000D03*
X117450000Y-110790000D03*
X117450000Y-109520000D03*
X117450000Y-108250000D03*
X112200000Y-108250000D03*
X112200000Y-109520000D03*
X112200000Y-110790000D03*
X112200000Y-112060000D03*
D12*
X114552500Y-110155000D03*
D13*
X100280000Y-58290000D03*
X100280000Y-54450000D03*
X105120000Y-54450000D03*
D14*
X104650000Y-61560000D03*
X103250000Y-61560000D03*
X101850000Y-61560000D03*
D13*
X105120000Y-58290000D03*
D14*
X100450000Y-61560000D03*
D13*
X112780000Y-58290000D03*
X112780000Y-54450000D03*
X117620000Y-54450000D03*
D14*
X117150000Y-61560000D03*
X115750000Y-61560000D03*
X114350000Y-61560000D03*
D13*
X117620000Y-58290000D03*
D14*
X112950000Y-61560000D03*
D15*
X146700000Y-68650000D03*
X149600000Y-68650000D03*
D16*
X185240000Y-82050000D03*
X185240000Y-78650000D03*
D17*
X182580000Y-89210000D03*
X180580000Y-89210000D03*
X178580000Y-89210000D03*
X176580000Y-89210000D03*
X174580000Y-89210000D03*
X172580000Y-89210000D03*
D18*
X185570000Y-104960000D03*
D19*
X185570000Y-102960000D03*
X185570000Y-100960000D03*
X185570000Y-98960000D03*
X185570000Y-96960000D03*
X185570000Y-94960000D03*
X185570000Y-92960000D03*
X185570000Y-90960000D03*
X169570000Y-90960000D03*
X169570000Y-92960000D03*
X169570000Y-94960000D03*
X169570000Y-96960000D03*
X169570000Y-98960000D03*
X169570000Y-100960000D03*
X169570000Y-102960000D03*
X169570000Y-104960000D03*
D10*
G36*
X145637868Y-98160051D02*
X146839949Y-99362132D01*
X146062132Y-100139949D01*
X144860051Y-98937868D01*
X145637868Y-98160051D01*
X145637868Y-98160051D01*
G37*
G36*
X144294366Y-99503553D02*
X145496447Y-100705634D01*
X144718630Y-101483451D01*
X143516549Y-100281370D01*
X144294366Y-99503553D01*
X144294366Y-99503553D01*
G37*
D20*
X164440000Y-54730000D03*
X164440000Y-56730000D03*
D21*
X169190000Y-61065340D03*
X169190000Y-56894660D03*
D10*
G36*
X144555188Y-96159709D02*
X143883437Y-95487958D01*
X145226940Y-94144455D01*
X145898691Y-94816206D01*
X144555188Y-96159709D01*
X144555188Y-96159709D01*
G37*
G36*
X145120874Y-96725394D02*
X144449123Y-96053643D01*
X145792626Y-94710140D01*
X146464377Y-95381891D01*
X145120874Y-96725394D01*
X145120874Y-96725394D01*
G37*
G36*
X145686559Y-97291079D02*
X145014808Y-96619328D01*
X146358311Y-95275825D01*
X147030062Y-95947576D01*
X145686559Y-97291079D01*
X145686559Y-97291079D01*
G37*
G36*
X146252244Y-97856765D02*
X145580493Y-97185014D01*
X146923996Y-95841511D01*
X147595747Y-96513262D01*
X146252244Y-97856765D01*
X146252244Y-97856765D01*
G37*
G36*
X146817930Y-98422450D02*
X146146179Y-97750699D01*
X147489682Y-96407196D01*
X148161433Y-97078947D01*
X146817930Y-98422450D01*
X146817930Y-98422450D01*
G37*
G36*
X147383615Y-98988136D02*
X146711864Y-98316385D01*
X148055367Y-96972882D01*
X148727118Y-97644633D01*
X147383615Y-98988136D01*
X147383615Y-98988136D01*
G37*
G36*
X147949301Y-99553821D02*
X147277550Y-98882070D01*
X148621053Y-97538567D01*
X149292804Y-98210318D01*
X147949301Y-99553821D01*
X147949301Y-99553821D01*
G37*
G36*
X148514986Y-100119507D02*
X147843235Y-99447756D01*
X149186738Y-98104253D01*
X149858489Y-98776004D01*
X148514986Y-100119507D01*
X148514986Y-100119507D01*
G37*
G36*
X149080672Y-100685192D02*
X148408921Y-100013441D01*
X149752424Y-98669938D01*
X150424175Y-99341689D01*
X149080672Y-100685192D01*
X149080672Y-100685192D01*
G37*
G36*
X149646357Y-101250877D02*
X148974606Y-100579126D01*
X150318109Y-99235623D01*
X150989860Y-99907374D01*
X149646357Y-101250877D01*
X149646357Y-101250877D01*
G37*
G36*
X150212042Y-101816563D02*
X149540291Y-101144812D01*
X150883794Y-99801309D01*
X151555545Y-100473060D01*
X150212042Y-101816563D01*
X150212042Y-101816563D01*
G37*
G36*
X153959709Y-101144812D02*
X153287958Y-101816563D01*
X151944455Y-100473060D01*
X152616206Y-99801309D01*
X153959709Y-101144812D01*
X153959709Y-101144812D01*
G37*
G36*
X154525394Y-100579126D02*
X153853643Y-101250877D01*
X152510140Y-99907374D01*
X153181891Y-99235623D01*
X154525394Y-100579126D01*
X154525394Y-100579126D01*
G37*
G36*
X155091079Y-100013441D02*
X154419328Y-100685192D01*
X153075825Y-99341689D01*
X153747576Y-98669938D01*
X155091079Y-100013441D01*
X155091079Y-100013441D01*
G37*
G36*
X155656765Y-99447756D02*
X154985014Y-100119507D01*
X153641511Y-98776004D01*
X154313262Y-98104253D01*
X155656765Y-99447756D01*
X155656765Y-99447756D01*
G37*
G36*
X156222450Y-98882070D02*
X155550699Y-99553821D01*
X154207196Y-98210318D01*
X154878947Y-97538567D01*
X156222450Y-98882070D01*
X156222450Y-98882070D01*
G37*
G36*
X156788136Y-98316385D02*
X156116385Y-98988136D01*
X154772882Y-97644633D01*
X155444633Y-96972882D01*
X156788136Y-98316385D01*
X156788136Y-98316385D01*
G37*
G36*
X157353821Y-97750699D02*
X156682070Y-98422450D01*
X155338567Y-97078947D01*
X156010318Y-96407196D01*
X157353821Y-97750699D01*
X157353821Y-97750699D01*
G37*
G36*
X157919507Y-97185014D02*
X157247756Y-97856765D01*
X155904253Y-96513262D01*
X156576004Y-95841511D01*
X157919507Y-97185014D01*
X157919507Y-97185014D01*
G37*
G36*
X158485192Y-96619328D02*
X157813441Y-97291079D01*
X156469938Y-95947576D01*
X157141689Y-95275825D01*
X158485192Y-96619328D01*
X158485192Y-96619328D01*
G37*
G36*
X159050877Y-96053643D02*
X158379126Y-96725394D01*
X157035623Y-95381891D01*
X157707374Y-94710140D01*
X159050877Y-96053643D01*
X159050877Y-96053643D01*
G37*
G36*
X159616563Y-95487958D02*
X158944812Y-96159709D01*
X157601309Y-94816206D01*
X158273060Y-94144455D01*
X159616563Y-95487958D01*
X159616563Y-95487958D01*
G37*
G36*
X158273060Y-93755545D02*
X157601309Y-93083794D01*
X158944812Y-91740291D01*
X159616563Y-92412042D01*
X158273060Y-93755545D01*
X158273060Y-93755545D01*
G37*
G36*
X157707374Y-93189860D02*
X157035623Y-92518109D01*
X158379126Y-91174606D01*
X159050877Y-91846357D01*
X157707374Y-93189860D01*
X157707374Y-93189860D01*
G37*
G36*
X157141689Y-92624175D02*
X156469938Y-91952424D01*
X157813441Y-90608921D01*
X158485192Y-91280672D01*
X157141689Y-92624175D01*
X157141689Y-92624175D01*
G37*
G36*
X156576004Y-92058489D02*
X155904253Y-91386738D01*
X157247756Y-90043235D01*
X157919507Y-90714986D01*
X156576004Y-92058489D01*
X156576004Y-92058489D01*
G37*
G36*
X156010318Y-91492804D02*
X155338567Y-90821053D01*
X156682070Y-89477550D01*
X157353821Y-90149301D01*
X156010318Y-91492804D01*
X156010318Y-91492804D01*
G37*
G36*
X155444633Y-90927118D02*
X154772882Y-90255367D01*
X156116385Y-88911864D01*
X156788136Y-89583615D01*
X155444633Y-90927118D01*
X155444633Y-90927118D01*
G37*
G36*
X154878947Y-90361433D02*
X154207196Y-89689682D01*
X155550699Y-88346179D01*
X156222450Y-89017930D01*
X154878947Y-90361433D01*
X154878947Y-90361433D01*
G37*
G36*
X154313262Y-89795747D02*
X153641511Y-89123996D01*
X154985014Y-87780493D01*
X155656765Y-88452244D01*
X154313262Y-89795747D01*
X154313262Y-89795747D01*
G37*
G36*
X153747576Y-89230062D02*
X153075825Y-88558311D01*
X154419328Y-87214808D01*
X155091079Y-87886559D01*
X153747576Y-89230062D01*
X153747576Y-89230062D01*
G37*
G36*
X153181891Y-88664377D02*
X152510140Y-87992626D01*
X153853643Y-86649123D01*
X154525394Y-87320874D01*
X153181891Y-88664377D01*
X153181891Y-88664377D01*
G37*
G36*
X152616206Y-88098691D02*
X151944455Y-87426940D01*
X153287958Y-86083437D01*
X153959709Y-86755188D01*
X152616206Y-88098691D01*
X152616206Y-88098691D01*
G37*
G36*
X151555545Y-87426940D02*
X150883794Y-88098691D01*
X149540291Y-86755188D01*
X150212042Y-86083437D01*
X151555545Y-87426940D01*
X151555545Y-87426940D01*
G37*
G36*
X150989860Y-87992626D02*
X150318109Y-88664377D01*
X148974606Y-87320874D01*
X149646357Y-86649123D01*
X150989860Y-87992626D01*
X150989860Y-87992626D01*
G37*
G36*
X150424175Y-88558311D02*
X149752424Y-89230062D01*
X148408921Y-87886559D01*
X149080672Y-87214808D01*
X150424175Y-88558311D01*
X150424175Y-88558311D01*
G37*
G36*
X149858489Y-89123996D02*
X149186738Y-89795747D01*
X147843235Y-88452244D01*
X148514986Y-87780493D01*
X149858489Y-89123996D01*
X149858489Y-89123996D01*
G37*
G36*
X149292804Y-89689682D02*
X148621053Y-90361433D01*
X147277550Y-89017930D01*
X147949301Y-88346179D01*
X149292804Y-89689682D01*
X149292804Y-89689682D01*
G37*
G36*
X148727118Y-90255367D02*
X148055367Y-90927118D01*
X146711864Y-89583615D01*
X147383615Y-88911864D01*
X148727118Y-90255367D01*
X148727118Y-90255367D01*
G37*
G36*
X148161433Y-90821053D02*
X147489682Y-91492804D01*
X146146179Y-90149301D01*
X146817930Y-89477550D01*
X148161433Y-90821053D01*
X148161433Y-90821053D01*
G37*
G36*
X147595747Y-91386738D02*
X146923996Y-92058489D01*
X145580493Y-90714986D01*
X146252244Y-90043235D01*
X147595747Y-91386738D01*
X147595747Y-91386738D01*
G37*
G36*
X147030062Y-91952424D02*
X146358311Y-92624175D01*
X145014808Y-91280672D01*
X145686559Y-90608921D01*
X147030062Y-91952424D01*
X147030062Y-91952424D01*
G37*
G36*
X146464377Y-92518109D02*
X145792626Y-93189860D01*
X144449123Y-91846357D01*
X145120874Y-91174606D01*
X146464377Y-92518109D01*
X146464377Y-92518109D01*
G37*
G36*
X145898691Y-93083794D02*
X145226940Y-93755545D01*
X143883437Y-92412042D01*
X144555188Y-91740291D01*
X145898691Y-93083794D01*
X145898691Y-93083794D01*
G37*
D22*
X147700000Y-75650000D03*
X145700000Y-75650000D03*
D23*
X147200000Y-73650000D03*
X148150000Y-73650000D03*
X149100000Y-73650000D03*
X149100000Y-71450000D03*
X147200000Y-71450000D03*
X156620000Y-73790000D03*
X157570000Y-73790000D03*
X158520000Y-73790000D03*
X158520000Y-71590000D03*
X156620000Y-71590000D03*
D24*
X160570000Y-71940000D03*
X160570000Y-73840000D03*
D20*
X154320000Y-73690000D03*
X154320000Y-71690000D03*
D15*
X156170000Y-68790000D03*
X159070000Y-68790000D03*
D25*
X147650000Y-77950000D03*
X145750000Y-77950000D03*
D26*
X127175000Y-69700000D03*
X126525000Y-69700000D03*
X125875000Y-69700000D03*
X125225000Y-69700000D03*
X124575000Y-69700000D03*
X123925000Y-69700000D03*
X123275000Y-69700000D03*
X122625000Y-69700000D03*
X121975000Y-69700000D03*
X121325000Y-69700000D03*
X120675000Y-69700000D03*
X120025000Y-69700000D03*
X119375000Y-69700000D03*
X118725000Y-69700000D03*
X118725000Y-75400000D03*
X119375000Y-75400000D03*
X120025000Y-75400000D03*
X120675000Y-75400000D03*
X121325000Y-75400000D03*
X121975000Y-75400000D03*
X122625000Y-75400000D03*
X123275000Y-75400000D03*
X123925000Y-75400000D03*
X124575000Y-75400000D03*
X125225000Y-75400000D03*
X125875000Y-75400000D03*
X126525000Y-75400000D03*
X127175000Y-75400000D03*
D27*
X136680000Y-70391140D03*
X136680000Y-80088860D03*
D28*
X118250000Y-99450000D03*
X118250000Y-100100000D03*
X118250000Y-100750000D03*
X118250000Y-101400000D03*
X118250000Y-102050000D03*
X118250000Y-102700000D03*
X118250000Y-103350000D03*
X125150000Y-103350000D03*
X125150000Y-102700000D03*
X125150000Y-102050000D03*
X125150000Y-101400000D03*
X125150000Y-100750000D03*
X125150000Y-100100000D03*
X125150000Y-99450000D03*
D29*
X109748980Y-82790000D03*
X109748980Y-80250000D03*
X107750000Y-80250000D03*
X107750000Y-82790000D03*
D30*
X105049980Y-87519480D03*
X105049980Y-75520520D03*
D31*
X97500000Y-53600000D03*
X97500000Y-55698040D03*
D32*
X159900000Y-81950000D03*
D33*
X157360000Y-81950000D03*
D11*
X129800000Y-95820000D03*
X129800000Y-97090000D03*
X129800000Y-98360000D03*
X129800000Y-99630000D03*
X135050000Y-99630000D03*
X135050000Y-98360000D03*
X135050000Y-97090000D03*
X135050000Y-95820000D03*
D12*
X132697500Y-97725000D03*
D25*
X129800000Y-104150000D03*
X127900000Y-104150000D03*
X115050000Y-106350000D03*
X113150000Y-106350000D03*
D32*
X163150000Y-81950000D03*
D33*
X165690000Y-81950000D03*
D34*
X100200000Y-99390000D03*
D33*
X100200000Y-96850000D03*
D35*
X100764000Y-108680000D03*
D36*
X106860000Y-108680000D03*
D35*
X103050000Y-103600000D03*
D22*
X122600000Y-112400000D03*
X120600000Y-112400000D03*
D20*
X110850000Y-98750000D03*
X110850000Y-100750000D03*
D22*
X131950000Y-101600000D03*
X129950000Y-101600000D03*
D20*
X114750000Y-104350000D03*
X114750000Y-102350000D03*
X110900000Y-102800000D03*
X110900000Y-104800000D03*
D22*
X162000000Y-92250000D03*
X164000000Y-92250000D03*
D21*
X107550000Y-60610680D03*
X107550000Y-56440000D03*
X120050000Y-60785340D03*
X120050000Y-56614660D03*
X144750000Y-60835340D03*
X144750000Y-56664660D03*
X132400000Y-60785340D03*
X132400000Y-56614660D03*
D37*
X104329320Y-71850000D03*
X108500000Y-71850000D03*
D34*
X100250000Y-70150000D03*
D33*
X100250000Y-67610000D03*
D21*
X181120000Y-61025340D03*
X181120000Y-56854660D03*
D20*
X159500000Y-87250000D03*
X159500000Y-85250000D03*
D22*
X157170000Y-75790000D03*
X155170000Y-75790000D03*
D20*
X145000000Y-73550000D03*
X145000000Y-71550000D03*
D24*
X149710000Y-77190000D03*
X149710000Y-75290000D03*
D38*
X163200000Y-89400000D03*
X163200000Y-85900000D03*
D25*
X157070000Y-78090000D03*
X155170000Y-78090000D03*
D24*
X141450000Y-91750000D03*
X141450000Y-89850000D03*
X140920000Y-85870000D03*
X140920000Y-87770000D03*
D39*
X121500000Y-83500000D03*
X121500000Y-82000000D03*
D31*
X103668040Y-49740000D03*
X101570000Y-49740000D03*
X116258040Y-49770000D03*
X114160000Y-49770000D03*
X128670000Y-49750000D03*
X126571960Y-49750000D03*
X141148040Y-49750000D03*
X139050000Y-49750000D03*
D20*
X122070000Y-79610000D03*
X122070000Y-77610000D03*
X102800000Y-54450000D03*
X102800000Y-56450000D03*
X115300000Y-54450000D03*
X115300000Y-56450000D03*
X140000000Y-54500000D03*
X140000000Y-56500000D03*
X127650000Y-54450000D03*
X127650000Y-56450000D03*
X176260000Y-54690000D03*
X176260000Y-56690000D03*
D22*
X131190000Y-67990000D03*
X133190000Y-67990000D03*
X131180000Y-70830000D03*
X133180000Y-70830000D03*
D20*
X129200000Y-75750000D03*
X129200000Y-73750000D03*
D24*
X97400000Y-64604000D03*
X97400000Y-66504000D03*
D25*
X130550000Y-79500000D03*
X128650000Y-79500000D03*
D24*
X129800000Y-85100000D03*
X129800000Y-83200000D03*
X97500000Y-57500000D03*
X97500000Y-59400000D03*
X131400000Y-73700000D03*
X131400000Y-75600000D03*
X125550000Y-83750000D03*
X125550000Y-81850000D03*
D25*
X114200000Y-75400000D03*
X116100000Y-75400000D03*
X116800000Y-70010000D03*
X114900000Y-70010000D03*
X120650000Y-109400000D03*
X122550000Y-109400000D03*
X122550000Y-106550000D03*
X120650000Y-106550000D03*
X105100000Y-96850000D03*
X103200000Y-96850000D03*
D24*
X123400000Y-81850000D03*
X123400000Y-83750000D03*
D25*
X114150000Y-73000000D03*
X116050000Y-73000000D03*
D40*
X156670000Y-66140760D03*
X158570000Y-66140760D03*
X157620000Y-64141780D03*
X147190000Y-62808980D03*
X149090000Y-62808980D03*
X148140000Y-60810000D03*
D24*
X144840000Y-88600000D03*
X144840000Y-86700000D03*
D41*
X142880000Y-87370000D03*
X142880000Y-85871400D03*
D42*
X174430000Y-69230000D03*
D43*
X174430000Y-66690000D03*
X176970000Y-69230000D03*
X176970000Y-66690000D03*
X179510000Y-69230000D03*
X179510000Y-66690000D03*
X182050000Y-69230000D03*
X182050000Y-66690000D03*
D42*
X162640000Y-69270000D03*
D43*
X162640000Y-66730000D03*
X165180000Y-69270000D03*
X165180000Y-66730000D03*
X167720000Y-69270000D03*
X167720000Y-66730000D03*
X170260000Y-69270000D03*
X170260000Y-66730000D03*
D42*
X181230000Y-81480000D03*
D43*
X178690000Y-81480000D03*
D44*
X138136000Y-109740000D03*
D45*
X140676000Y-109740000D03*
X143216000Y-109740000D03*
X145756000Y-109740000D03*
X148296000Y-109740000D03*
X150836000Y-109740000D03*
X153376000Y-109740000D03*
X155916000Y-109740000D03*
X158456000Y-109740000D03*
D46*
X164500000Y-108500000D03*
D47*
X164500000Y-105960000D03*
X164500000Y-103420000D03*
D20*
X185140000Y-87570000D03*
X185140000Y-85570000D03*
D13*
X173850000Y-58530000D03*
X173850000Y-54690000D03*
X178690000Y-54690000D03*
D14*
X178220000Y-61800000D03*
X176820000Y-61800000D03*
X175420000Y-61800000D03*
D13*
X178690000Y-58530000D03*
D14*
X174020000Y-61800000D03*
D13*
X161920000Y-58570000D03*
X161920000Y-54730000D03*
X166760000Y-54730000D03*
D14*
X166290000Y-61840000D03*
X164890000Y-61840000D03*
X163490000Y-61840000D03*
D13*
X166760000Y-58570000D03*
D14*
X162090000Y-61840000D03*
D13*
X137480000Y-58340000D03*
X137480000Y-54500000D03*
X142320000Y-54500000D03*
D14*
X141850000Y-61610000D03*
X140450000Y-61610000D03*
X139050000Y-61610000D03*
D13*
X142320000Y-58340000D03*
D14*
X137650000Y-61610000D03*
D13*
X125130000Y-58290000D03*
X125130000Y-54450000D03*
X129970000Y-54450000D03*
D14*
X129500000Y-61560000D03*
X128100000Y-61560000D03*
X126700000Y-61560000D03*
D13*
X129970000Y-58290000D03*
D14*
X125300000Y-61560000D03*
D48*
X107990000Y-102480000D03*
X107990000Y-99580000D03*
D10*
G36*
X147268338Y-99978490D02*
X148081510Y-100791662D01*
X147232982Y-101640190D01*
X146419810Y-100827018D01*
X147268338Y-99978490D01*
X147268338Y-99978490D01*
G37*
G36*
X146207678Y-101039150D02*
X147020850Y-101852322D01*
X146172322Y-102700850D01*
X145359150Y-101887678D01*
X146207678Y-101039150D01*
X146207678Y-101039150D01*
G37*
G36*
X148831662Y-107541510D02*
X148018490Y-106728338D01*
X148867018Y-105879810D01*
X149680190Y-106692982D01*
X148831662Y-107541510D01*
X148831662Y-107541510D01*
G37*
G36*
X149892322Y-106480850D02*
X149079150Y-105667678D01*
X149927678Y-104819150D01*
X150740850Y-105632322D01*
X149892322Y-106480850D01*
X149892322Y-106480850D01*
G37*
G36*
X147612183Y-102190812D02*
X148602132Y-103180761D01*
X147470761Y-104312132D01*
X146480812Y-103322183D01*
X147612183Y-102190812D01*
X147612183Y-102190812D01*
G37*
G36*
X146480813Y-103322182D02*
X147470762Y-104312131D01*
X146339391Y-105443502D01*
X145349442Y-104453553D01*
X146480813Y-103322182D01*
X146480813Y-103322182D01*
G37*
G36*
X147329341Y-104170710D02*
X148319290Y-105160659D01*
X147187919Y-106292030D01*
X146197970Y-105302081D01*
X147329341Y-104170710D01*
X147329341Y-104170710D01*
G37*
G36*
X148460711Y-103039340D02*
X149450660Y-104029289D01*
X148319289Y-105160660D01*
X147329340Y-104170711D01*
X148460711Y-103039340D01*
X148460711Y-103039340D01*
G37*
M02*
