G04 #@! TF.FileFunction,Copper,L1,Top,Signal*
%FSLAX46Y46*%
G04 Gerber Fmt 4.6, Leading zero omitted, Abs format (unit mm)*
G04 Created by KiCad (PCBNEW 4.0.5) date 02/02/17 00:28:59*
%MOMM*%
%LPD*%
G01*
G04 APERTURE LIST*
%ADD10C,0.100000*%
%ADD11R,1.000000X0.675000*%
%ADD12R,4.295000X4.510000*%
%ADD13O,2.100000X2.100000*%
%ADD14C,1.200000*%
%ADD15R,0.900000X1.700000*%
%ADD16R,1.700000X0.900000*%
%ADD17O,1.100000X2.400000*%
%ADD18R,2.400000X1.100000*%
%ADD19O,2.400000X1.100000*%
%ADD20R,1.250000X1.000000*%
%ADD21R,2.029460X2.651760*%
%ADD22R,1.000000X1.250000*%
%ADD23R,0.650000X1.060000*%
%ADD24R,1.300000X0.700000*%
%ADD25R,0.700000X1.300000*%
%ADD26R,0.400000X1.100000*%
%ADD27R,2.100580X5.600700*%
%ADD28R,1.200000X0.400000*%
%ADD29C,1.524000*%
%ADD30C,2.700020*%
%ADD31R,1.198880X1.198880*%
%ADD32R,1.900000X2.000000*%
%ADD33C,1.900000*%
%ADD34R,2.000000X1.900000*%
%ADD35C,4.800600*%
%ADD36R,4.800600X4.800600*%
%ADD37R,2.651760X2.029460*%
%ADD38R,2.500000X2.500000*%
%ADD39R,0.750000X0.800000*%
%ADD40R,0.800100X0.800100*%
%ADD41R,0.797560X0.797560*%
%ADD42R,1.727200X1.727200*%
%ADD43O,1.727200X1.727200*%
%ADD44R,1.727200X2.032000*%
%ADD45O,1.727200X2.032000*%
%ADD46R,2.032000X1.727200*%
%ADD47O,2.032000X1.727200*%
%ADD48R,2.500000X0.900000*%
%ADD49C,1.000000*%
%ADD50C,0.600000*%
%ADD51C,1.200000*%
%ADD52C,1.000000*%
%ADD53C,0.350000*%
%ADD54C,0.750000*%
%ADD55C,1.700000*%
%ADD56C,0.450000*%
%ADD57C,0.500000*%
%ADD58C,0.600000*%
%ADD59C,0.700000*%
%ADD60C,1.500000*%
%ADD61C,0.200000*%
%ADD62C,1.100000*%
%ADD63C,0.800000*%
%ADD64C,0.400000*%
%ADD65C,0.250000*%
%ADD66C,0.254000*%
G04 APERTURE END LIST*
D10*
D11*
X117450000Y-112060000D03*
X117450000Y-110790000D03*
X117450000Y-109520000D03*
X117450000Y-108250000D03*
X112200000Y-108250000D03*
X112200000Y-109520000D03*
X112200000Y-110790000D03*
X112200000Y-112060000D03*
D12*
X114552500Y-110155000D03*
D13*
X100280000Y-58290000D03*
X100280000Y-54450000D03*
X105120000Y-54450000D03*
D14*
X104650000Y-61560000D03*
X103250000Y-61560000D03*
X101850000Y-61560000D03*
D13*
X105120000Y-58290000D03*
D14*
X100450000Y-61560000D03*
D13*
X112780000Y-58290000D03*
X112780000Y-54450000D03*
X117620000Y-54450000D03*
D14*
X117150000Y-61560000D03*
X115750000Y-61560000D03*
X114350000Y-61560000D03*
D13*
X117620000Y-58290000D03*
D14*
X112950000Y-61560000D03*
D15*
X146700000Y-68650000D03*
X149600000Y-68650000D03*
D16*
X185240000Y-82050000D03*
X185240000Y-78650000D03*
D17*
X182580000Y-89210000D03*
X180580000Y-89210000D03*
X178580000Y-89210000D03*
X176580000Y-89210000D03*
X174580000Y-89210000D03*
X172580000Y-89210000D03*
D18*
X185570000Y-104960000D03*
D19*
X185570000Y-102960000D03*
X185570000Y-100960000D03*
X185570000Y-98960000D03*
X185570000Y-96960000D03*
X185570000Y-94960000D03*
X185570000Y-92960000D03*
X185570000Y-90960000D03*
X169570000Y-90960000D03*
X169570000Y-92960000D03*
X169570000Y-94960000D03*
X169570000Y-96960000D03*
X169570000Y-98960000D03*
X169570000Y-100960000D03*
X169570000Y-102960000D03*
X169570000Y-104960000D03*
D10*
G36*
X145637868Y-98442893D02*
X146557107Y-99362132D01*
X146062132Y-99857107D01*
X145142893Y-98937868D01*
X145637868Y-98442893D01*
X145637868Y-98442893D01*
G37*
G36*
X144294366Y-99786395D02*
X145213605Y-100705634D01*
X144718630Y-101200609D01*
X143799391Y-100281370D01*
X144294366Y-99786395D01*
X144294366Y-99786395D01*
G37*
D20*
X164440000Y-54730000D03*
X164440000Y-56730000D03*
D21*
X169190000Y-61065340D03*
X169190000Y-56894660D03*
D10*
G36*
X144555188Y-95876866D02*
X144166280Y-95487958D01*
X145226940Y-94427298D01*
X145615848Y-94816206D01*
X144555188Y-95876866D01*
X144555188Y-95876866D01*
G37*
G36*
X145120874Y-96442551D02*
X144731966Y-96053643D01*
X145792626Y-94992983D01*
X146181534Y-95381891D01*
X145120874Y-96442551D01*
X145120874Y-96442551D01*
G37*
G36*
X145686559Y-97008236D02*
X145297651Y-96619328D01*
X146358311Y-95558668D01*
X146747219Y-95947576D01*
X145686559Y-97008236D01*
X145686559Y-97008236D01*
G37*
G36*
X146252244Y-97573922D02*
X145863336Y-97185014D01*
X146923996Y-96124354D01*
X147312904Y-96513262D01*
X146252244Y-97573922D01*
X146252244Y-97573922D01*
G37*
G36*
X146817930Y-98139607D02*
X146429022Y-97750699D01*
X147489682Y-96690039D01*
X147878590Y-97078947D01*
X146817930Y-98139607D01*
X146817930Y-98139607D01*
G37*
G36*
X147383615Y-98705293D02*
X146994707Y-98316385D01*
X148055367Y-97255725D01*
X148444275Y-97644633D01*
X147383615Y-98705293D01*
X147383615Y-98705293D01*
G37*
G36*
X147949301Y-99270978D02*
X147560393Y-98882070D01*
X148621053Y-97821410D01*
X149009961Y-98210318D01*
X147949301Y-99270978D01*
X147949301Y-99270978D01*
G37*
G36*
X148514986Y-99836664D02*
X148126078Y-99447756D01*
X149186738Y-98387096D01*
X149575646Y-98776004D01*
X148514986Y-99836664D01*
X148514986Y-99836664D01*
G37*
G36*
X149080672Y-100402349D02*
X148691764Y-100013441D01*
X149752424Y-98952781D01*
X150141332Y-99341689D01*
X149080672Y-100402349D01*
X149080672Y-100402349D01*
G37*
G36*
X149646357Y-100968034D02*
X149257449Y-100579126D01*
X150318109Y-99518466D01*
X150707017Y-99907374D01*
X149646357Y-100968034D01*
X149646357Y-100968034D01*
G37*
G36*
X150212042Y-101533720D02*
X149823134Y-101144812D01*
X150883794Y-100084152D01*
X151272702Y-100473060D01*
X150212042Y-101533720D01*
X150212042Y-101533720D01*
G37*
G36*
X153676866Y-101144812D02*
X153287958Y-101533720D01*
X152227298Y-100473060D01*
X152616206Y-100084152D01*
X153676866Y-101144812D01*
X153676866Y-101144812D01*
G37*
G36*
X154242551Y-100579126D02*
X153853643Y-100968034D01*
X152792983Y-99907374D01*
X153181891Y-99518466D01*
X154242551Y-100579126D01*
X154242551Y-100579126D01*
G37*
G36*
X154808236Y-100013441D02*
X154419328Y-100402349D01*
X153358668Y-99341689D01*
X153747576Y-98952781D01*
X154808236Y-100013441D01*
X154808236Y-100013441D01*
G37*
G36*
X155373922Y-99447756D02*
X154985014Y-99836664D01*
X153924354Y-98776004D01*
X154313262Y-98387096D01*
X155373922Y-99447756D01*
X155373922Y-99447756D01*
G37*
G36*
X155939607Y-98882070D02*
X155550699Y-99270978D01*
X154490039Y-98210318D01*
X154878947Y-97821410D01*
X155939607Y-98882070D01*
X155939607Y-98882070D01*
G37*
G36*
X156505293Y-98316385D02*
X156116385Y-98705293D01*
X155055725Y-97644633D01*
X155444633Y-97255725D01*
X156505293Y-98316385D01*
X156505293Y-98316385D01*
G37*
G36*
X157070978Y-97750699D02*
X156682070Y-98139607D01*
X155621410Y-97078947D01*
X156010318Y-96690039D01*
X157070978Y-97750699D01*
X157070978Y-97750699D01*
G37*
G36*
X157636664Y-97185014D02*
X157247756Y-97573922D01*
X156187096Y-96513262D01*
X156576004Y-96124354D01*
X157636664Y-97185014D01*
X157636664Y-97185014D01*
G37*
G36*
X158202349Y-96619328D02*
X157813441Y-97008236D01*
X156752781Y-95947576D01*
X157141689Y-95558668D01*
X158202349Y-96619328D01*
X158202349Y-96619328D01*
G37*
G36*
X158768034Y-96053643D02*
X158379126Y-96442551D01*
X157318466Y-95381891D01*
X157707374Y-94992983D01*
X158768034Y-96053643D01*
X158768034Y-96053643D01*
G37*
G36*
X159333720Y-95487958D02*
X158944812Y-95876866D01*
X157884152Y-94816206D01*
X158273060Y-94427298D01*
X159333720Y-95487958D01*
X159333720Y-95487958D01*
G37*
G36*
X158273060Y-93472702D02*
X157884152Y-93083794D01*
X158944812Y-92023134D01*
X159333720Y-92412042D01*
X158273060Y-93472702D01*
X158273060Y-93472702D01*
G37*
G36*
X157707374Y-92907017D02*
X157318466Y-92518109D01*
X158379126Y-91457449D01*
X158768034Y-91846357D01*
X157707374Y-92907017D01*
X157707374Y-92907017D01*
G37*
G36*
X157141689Y-92341332D02*
X156752781Y-91952424D01*
X157813441Y-90891764D01*
X158202349Y-91280672D01*
X157141689Y-92341332D01*
X157141689Y-92341332D01*
G37*
G36*
X156576004Y-91775646D02*
X156187096Y-91386738D01*
X157247756Y-90326078D01*
X157636664Y-90714986D01*
X156576004Y-91775646D01*
X156576004Y-91775646D01*
G37*
G36*
X156010318Y-91209961D02*
X155621410Y-90821053D01*
X156682070Y-89760393D01*
X157070978Y-90149301D01*
X156010318Y-91209961D01*
X156010318Y-91209961D01*
G37*
G36*
X155444633Y-90644275D02*
X155055725Y-90255367D01*
X156116385Y-89194707D01*
X156505293Y-89583615D01*
X155444633Y-90644275D01*
X155444633Y-90644275D01*
G37*
G36*
X154878947Y-90078590D02*
X154490039Y-89689682D01*
X155550699Y-88629022D01*
X155939607Y-89017930D01*
X154878947Y-90078590D01*
X154878947Y-90078590D01*
G37*
G36*
X154313262Y-89512904D02*
X153924354Y-89123996D01*
X154985014Y-88063336D01*
X155373922Y-88452244D01*
X154313262Y-89512904D01*
X154313262Y-89512904D01*
G37*
G36*
X153747576Y-88947219D02*
X153358668Y-88558311D01*
X154419328Y-87497651D01*
X154808236Y-87886559D01*
X153747576Y-88947219D01*
X153747576Y-88947219D01*
G37*
G36*
X153181891Y-88381534D02*
X152792983Y-87992626D01*
X153853643Y-86931966D01*
X154242551Y-87320874D01*
X153181891Y-88381534D01*
X153181891Y-88381534D01*
G37*
G36*
X152616206Y-87815848D02*
X152227298Y-87426940D01*
X153287958Y-86366280D01*
X153676866Y-86755188D01*
X152616206Y-87815848D01*
X152616206Y-87815848D01*
G37*
G36*
X151272702Y-87426940D02*
X150883794Y-87815848D01*
X149823134Y-86755188D01*
X150212042Y-86366280D01*
X151272702Y-87426940D01*
X151272702Y-87426940D01*
G37*
G36*
X150707017Y-87992626D02*
X150318109Y-88381534D01*
X149257449Y-87320874D01*
X149646357Y-86931966D01*
X150707017Y-87992626D01*
X150707017Y-87992626D01*
G37*
G36*
X150141332Y-88558311D02*
X149752424Y-88947219D01*
X148691764Y-87886559D01*
X149080672Y-87497651D01*
X150141332Y-88558311D01*
X150141332Y-88558311D01*
G37*
G36*
X149575646Y-89123996D02*
X149186738Y-89512904D01*
X148126078Y-88452244D01*
X148514986Y-88063336D01*
X149575646Y-89123996D01*
X149575646Y-89123996D01*
G37*
G36*
X149009961Y-89689682D02*
X148621053Y-90078590D01*
X147560393Y-89017930D01*
X147949301Y-88629022D01*
X149009961Y-89689682D01*
X149009961Y-89689682D01*
G37*
G36*
X148444275Y-90255367D02*
X148055367Y-90644275D01*
X146994707Y-89583615D01*
X147383615Y-89194707D01*
X148444275Y-90255367D01*
X148444275Y-90255367D01*
G37*
G36*
X147878590Y-90821053D02*
X147489682Y-91209961D01*
X146429022Y-90149301D01*
X146817930Y-89760393D01*
X147878590Y-90821053D01*
X147878590Y-90821053D01*
G37*
G36*
X147312904Y-91386738D02*
X146923996Y-91775646D01*
X145863336Y-90714986D01*
X146252244Y-90326078D01*
X147312904Y-91386738D01*
X147312904Y-91386738D01*
G37*
G36*
X146747219Y-91952424D02*
X146358311Y-92341332D01*
X145297651Y-91280672D01*
X145686559Y-90891764D01*
X146747219Y-91952424D01*
X146747219Y-91952424D01*
G37*
G36*
X146181534Y-92518109D02*
X145792626Y-92907017D01*
X144731966Y-91846357D01*
X145120874Y-91457449D01*
X146181534Y-92518109D01*
X146181534Y-92518109D01*
G37*
G36*
X145615848Y-93083794D02*
X145226940Y-93472702D01*
X144166280Y-92412042D01*
X144555188Y-92023134D01*
X145615848Y-93083794D01*
X145615848Y-93083794D01*
G37*
D22*
X147700000Y-75650000D03*
X145700000Y-75650000D03*
D23*
X147200000Y-73650000D03*
X148150000Y-73650000D03*
X149100000Y-73650000D03*
X149100000Y-71450000D03*
X147200000Y-71450000D03*
X156620000Y-73790000D03*
X157570000Y-73790000D03*
X158520000Y-73790000D03*
X158520000Y-71590000D03*
X156620000Y-71590000D03*
D24*
X160570000Y-71940000D03*
X160570000Y-73840000D03*
D20*
X154320000Y-73690000D03*
X154320000Y-71690000D03*
D15*
X156170000Y-68790000D03*
X159070000Y-68790000D03*
D25*
X147650000Y-77950000D03*
X145750000Y-77950000D03*
D26*
X127175000Y-69700000D03*
X126525000Y-69700000D03*
X125875000Y-69700000D03*
X125225000Y-69700000D03*
X124575000Y-69700000D03*
X123925000Y-69700000D03*
X123275000Y-69700000D03*
X122625000Y-69700000D03*
X121975000Y-69700000D03*
X121325000Y-69700000D03*
X120675000Y-69700000D03*
X120025000Y-69700000D03*
X119375000Y-69700000D03*
X118725000Y-69700000D03*
X118725000Y-75400000D03*
X119375000Y-75400000D03*
X120025000Y-75400000D03*
X120675000Y-75400000D03*
X121325000Y-75400000D03*
X121975000Y-75400000D03*
X122625000Y-75400000D03*
X123275000Y-75400000D03*
X123925000Y-75400000D03*
X124575000Y-75400000D03*
X125225000Y-75400000D03*
X125875000Y-75400000D03*
X126525000Y-75400000D03*
X127175000Y-75400000D03*
D27*
X136680000Y-70391140D03*
X136680000Y-80088860D03*
D28*
X118250000Y-99450000D03*
X118250000Y-100100000D03*
X118250000Y-100750000D03*
X118250000Y-101400000D03*
X118250000Y-102050000D03*
X118250000Y-102700000D03*
X118250000Y-103350000D03*
X125150000Y-103350000D03*
X125150000Y-102700000D03*
X125150000Y-102050000D03*
X125150000Y-101400000D03*
X125150000Y-100750000D03*
X125150000Y-100100000D03*
X125150000Y-99450000D03*
D29*
X109748980Y-82790000D03*
X109748980Y-80250000D03*
X107750000Y-80250000D03*
X107750000Y-82790000D03*
D30*
X105049980Y-87519480D03*
X105049980Y-75520520D03*
D31*
X97500000Y-53600000D03*
X97500000Y-55698040D03*
D32*
X159900000Y-81950000D03*
D33*
X157360000Y-81950000D03*
D11*
X129800000Y-95820000D03*
X129800000Y-97090000D03*
X129800000Y-98360000D03*
X129800000Y-99630000D03*
X135050000Y-99630000D03*
X135050000Y-98360000D03*
X135050000Y-97090000D03*
X135050000Y-95820000D03*
D12*
X132697500Y-97725000D03*
D25*
X129800000Y-104150000D03*
X127900000Y-104150000D03*
X115050000Y-106350000D03*
X113150000Y-106350000D03*
D32*
X163150000Y-81950000D03*
D33*
X165690000Y-81950000D03*
D34*
X100200000Y-99390000D03*
D33*
X100200000Y-96850000D03*
D35*
X100764000Y-108680000D03*
D36*
X106860000Y-108680000D03*
D35*
X103050000Y-103600000D03*
D22*
X122600000Y-112400000D03*
X120600000Y-112400000D03*
D20*
X110850000Y-98750000D03*
X110850000Y-100750000D03*
D22*
X131950000Y-101600000D03*
X129950000Y-101600000D03*
D20*
X114750000Y-104350000D03*
X114750000Y-102350000D03*
X110900000Y-102800000D03*
X110900000Y-104800000D03*
D22*
X162000000Y-92250000D03*
X164000000Y-92250000D03*
D21*
X107550000Y-60610680D03*
X107550000Y-56440000D03*
X120050000Y-60785340D03*
X120050000Y-56614660D03*
X144750000Y-60835340D03*
X144750000Y-56664660D03*
X132400000Y-60785340D03*
X132400000Y-56614660D03*
D37*
X104329320Y-71850000D03*
X108500000Y-71850000D03*
D34*
X100250000Y-70150000D03*
D33*
X100250000Y-67610000D03*
D21*
X181120000Y-61025340D03*
X181120000Y-56854660D03*
D20*
X159500000Y-87250000D03*
X159500000Y-85250000D03*
D22*
X157170000Y-75790000D03*
X155170000Y-75790000D03*
D20*
X145000000Y-73550000D03*
X145000000Y-71550000D03*
D24*
X149710000Y-77190000D03*
X149710000Y-75290000D03*
D38*
X163200000Y-89400000D03*
X163200000Y-85900000D03*
D25*
X157070000Y-78090000D03*
X155170000Y-78090000D03*
D24*
X141450000Y-91750000D03*
X141450000Y-89850000D03*
X140920000Y-85870000D03*
X140920000Y-87770000D03*
D39*
X121500000Y-83500000D03*
X121500000Y-82000000D03*
D31*
X103668040Y-49740000D03*
X101570000Y-49740000D03*
X116258040Y-49770000D03*
X114160000Y-49770000D03*
X128670000Y-49750000D03*
X126571960Y-49750000D03*
X141148040Y-49750000D03*
X139050000Y-49750000D03*
D20*
X122070000Y-79610000D03*
X122070000Y-77610000D03*
X102800000Y-54450000D03*
X102800000Y-56450000D03*
X115300000Y-54450000D03*
X115300000Y-56450000D03*
X140000000Y-54500000D03*
X140000000Y-56500000D03*
X127650000Y-54450000D03*
X127650000Y-56450000D03*
X176260000Y-54690000D03*
X176260000Y-56690000D03*
D22*
X131190000Y-67990000D03*
X133190000Y-67990000D03*
X131180000Y-70830000D03*
X133180000Y-70830000D03*
D20*
X129200000Y-75750000D03*
X129200000Y-73750000D03*
D24*
X97400000Y-64604000D03*
X97400000Y-66504000D03*
D25*
X130550000Y-79500000D03*
X128650000Y-79500000D03*
D24*
X129800000Y-85100000D03*
X129800000Y-83200000D03*
X97500000Y-57500000D03*
X97500000Y-59400000D03*
X131400000Y-73700000D03*
X131400000Y-75600000D03*
X125550000Y-83750000D03*
X125550000Y-81850000D03*
D25*
X114200000Y-75400000D03*
X116100000Y-75400000D03*
X116800000Y-70010000D03*
X114900000Y-70010000D03*
X120650000Y-109400000D03*
X122550000Y-109400000D03*
X122550000Y-106550000D03*
X120650000Y-106550000D03*
X105100000Y-96850000D03*
X103200000Y-96850000D03*
D24*
X123400000Y-81850000D03*
X123400000Y-83750000D03*
D25*
X114150000Y-73000000D03*
X116050000Y-73000000D03*
D40*
X156670000Y-66140760D03*
X158570000Y-66140760D03*
X157620000Y-64141780D03*
X147190000Y-62808980D03*
X149090000Y-62808980D03*
X148140000Y-60810000D03*
D24*
X144840000Y-88600000D03*
X144840000Y-86700000D03*
D41*
X142880000Y-87370000D03*
X142880000Y-85871400D03*
D42*
X174430000Y-69230000D03*
D43*
X174430000Y-66690000D03*
X176970000Y-69230000D03*
X176970000Y-66690000D03*
X179510000Y-69230000D03*
X179510000Y-66690000D03*
X182050000Y-69230000D03*
X182050000Y-66690000D03*
D42*
X162640000Y-69270000D03*
D43*
X162640000Y-66730000D03*
X165180000Y-69270000D03*
X165180000Y-66730000D03*
X167720000Y-69270000D03*
X167720000Y-66730000D03*
X170260000Y-69270000D03*
X170260000Y-66730000D03*
D42*
X181230000Y-81480000D03*
D43*
X178690000Y-81480000D03*
D44*
X138136000Y-109740000D03*
D45*
X140676000Y-109740000D03*
X143216000Y-109740000D03*
X145756000Y-109740000D03*
X148296000Y-109740000D03*
X150836000Y-109740000D03*
X153376000Y-109740000D03*
X155916000Y-109740000D03*
X158456000Y-109740000D03*
D46*
X164500000Y-108500000D03*
D47*
X164500000Y-105960000D03*
X164500000Y-103420000D03*
D20*
X185140000Y-87570000D03*
X185140000Y-85570000D03*
D13*
X173850000Y-58530000D03*
X173850000Y-54690000D03*
X178690000Y-54690000D03*
D14*
X178220000Y-61800000D03*
X176820000Y-61800000D03*
X175420000Y-61800000D03*
D13*
X178690000Y-58530000D03*
D14*
X174020000Y-61800000D03*
D13*
X161920000Y-58570000D03*
X161920000Y-54730000D03*
X166760000Y-54730000D03*
D14*
X166290000Y-61840000D03*
X164890000Y-61840000D03*
X163490000Y-61840000D03*
D13*
X166760000Y-58570000D03*
D14*
X162090000Y-61840000D03*
D13*
X137480000Y-58340000D03*
X137480000Y-54500000D03*
X142320000Y-54500000D03*
D14*
X141850000Y-61610000D03*
X140450000Y-61610000D03*
X139050000Y-61610000D03*
D13*
X142320000Y-58340000D03*
D14*
X137650000Y-61610000D03*
D13*
X125130000Y-58290000D03*
X125130000Y-54450000D03*
X129970000Y-54450000D03*
D14*
X129500000Y-61560000D03*
X128100000Y-61560000D03*
X126700000Y-61560000D03*
D13*
X129970000Y-58290000D03*
D14*
X125300000Y-61560000D03*
D48*
X107990000Y-102480000D03*
X107990000Y-99580000D03*
D10*
G36*
X147268338Y-100261332D02*
X147798668Y-100791662D01*
X147232982Y-101357348D01*
X146702652Y-100827018D01*
X147268338Y-100261332D01*
X147268338Y-100261332D01*
G37*
G36*
X146207678Y-101321992D02*
X146738008Y-101852322D01*
X146172322Y-102418008D01*
X145641992Y-101887678D01*
X146207678Y-101321992D01*
X146207678Y-101321992D01*
G37*
G36*
X148831662Y-107258668D02*
X148301332Y-106728338D01*
X148867018Y-106162652D01*
X149397348Y-106692982D01*
X148831662Y-107258668D01*
X148831662Y-107258668D01*
G37*
G36*
X149892322Y-106198008D02*
X149361992Y-105667678D01*
X149927678Y-105101992D01*
X150458008Y-105632322D01*
X149892322Y-106198008D01*
X149892322Y-106198008D01*
G37*
G36*
X147612183Y-102473655D02*
X148319289Y-103180761D01*
X147470761Y-104029289D01*
X146763655Y-103322183D01*
X147612183Y-102473655D01*
X147612183Y-102473655D01*
G37*
G36*
X146480813Y-103605025D02*
X147187919Y-104312131D01*
X146339391Y-105160659D01*
X145632285Y-104453553D01*
X146480813Y-103605025D01*
X146480813Y-103605025D01*
G37*
G36*
X147329341Y-104453553D02*
X148036447Y-105160659D01*
X147187919Y-106009187D01*
X146480813Y-105302081D01*
X147329341Y-104453553D01*
X147329341Y-104453553D01*
G37*
G36*
X148460711Y-103322183D02*
X149167817Y-104029289D01*
X148319289Y-104877817D01*
X147612183Y-104170711D01*
X148460711Y-103322183D01*
X148460711Y-103322183D01*
G37*
D49*
X99580000Y-59830000D03*
X110640000Y-60830000D03*
X110640000Y-59230000D03*
X112950000Y-59650000D03*
X135320000Y-60990000D03*
X135320000Y-59520000D03*
X123030000Y-61070000D03*
X123030000Y-59710000D03*
X149920000Y-50990000D03*
X100450000Y-60620000D03*
D50*
X127770000Y-68570000D03*
X148250000Y-104380000D03*
X150010000Y-105080000D03*
X145915128Y-106144872D03*
X171830000Y-91050000D03*
D49*
X147280000Y-54444000D03*
X106120000Y-77580000D03*
X104970000Y-85410000D03*
X106120000Y-78690000D03*
X106140000Y-79860000D03*
X107260000Y-78710000D03*
X104980000Y-77600000D03*
X104990000Y-78730000D03*
X105000000Y-79880000D03*
X104970000Y-84310000D03*
X104960000Y-83240000D03*
X104980000Y-82120000D03*
X104990000Y-81030000D03*
X106110000Y-81020000D03*
X107260000Y-77580000D03*
X105030000Y-99230000D03*
X106100000Y-100300000D03*
D50*
X130990000Y-67590000D03*
X130400000Y-70320000D03*
X129200000Y-72975010D03*
X123290000Y-80660000D03*
X122640000Y-80660000D03*
D49*
X137630000Y-60730000D03*
X137640000Y-59750000D03*
X139920000Y-58930000D03*
X125220000Y-60690000D03*
X125230000Y-59710000D03*
X127510000Y-58890000D03*
X115220000Y-58820000D03*
D50*
X128510000Y-69790000D03*
X128510000Y-69160000D03*
X127110000Y-68550000D03*
X128340000Y-68560000D03*
X148898643Y-91027959D03*
D49*
X102740000Y-58820000D03*
D50*
X157110000Y-77820000D03*
X151350000Y-78070000D03*
X147050000Y-77680000D03*
X147080000Y-78800000D03*
X143050000Y-91600000D03*
X140520000Y-85070000D03*
X141620000Y-85070000D03*
X130300000Y-67900000D03*
X130400000Y-71600000D03*
X128950000Y-68550000D03*
X130300000Y-68550000D03*
X114200000Y-70510000D03*
X114200000Y-69360000D03*
X114800000Y-71160000D03*
X114800000Y-68860000D03*
X128300000Y-72975010D03*
X130150000Y-72975010D03*
X130400000Y-70960000D03*
X121980000Y-80660000D03*
X123290000Y-80050000D03*
X121150000Y-84250000D03*
X120850000Y-83350000D03*
X162000000Y-93950000D03*
X153750000Y-90644876D03*
X155171400Y-95050000D03*
X125000000Y-96100000D03*
X159250000Y-101500000D03*
X149250000Y-97279992D03*
X159500000Y-88500000D03*
X157500000Y-86750000D03*
D49*
X166350000Y-93920000D03*
X166400000Y-99980000D03*
X166370000Y-98770000D03*
X166360000Y-97550000D03*
X166380000Y-96290000D03*
X166350000Y-95130000D03*
D50*
X146870000Y-82800000D03*
X154880000Y-86320000D03*
X155420000Y-64550000D03*
X150590000Y-61170000D03*
X152750000Y-84140000D03*
X147250000Y-87500000D03*
X162080000Y-79700000D03*
X144800000Y-106810000D03*
X164000000Y-94130000D03*
X155820000Y-98000000D03*
D49*
X163700000Y-73160000D03*
X163680000Y-74440000D03*
X163680000Y-74440000D03*
X164840000Y-74290000D03*
X164840000Y-73160000D03*
X145620000Y-67790000D03*
X144680000Y-67270000D03*
D50*
X159280000Y-96880000D03*
D49*
X172940000Y-82110000D03*
X172940000Y-80040000D03*
X172940000Y-81070000D03*
X98600000Y-92100000D03*
X104150000Y-92100000D03*
D50*
X104150000Y-92100000D03*
X154290000Y-104530000D03*
D49*
X145449999Y-66380000D03*
X145650000Y-65400000D03*
X145650000Y-65400000D03*
X152850000Y-65270000D03*
X154630000Y-67050000D03*
X153740000Y-66160000D03*
X146890000Y-65210000D03*
D50*
X132190000Y-74400000D03*
D49*
X144250000Y-68650000D03*
X144950000Y-69760000D03*
X144950000Y-68650000D03*
X144950000Y-69760000D03*
X144250000Y-68650000D03*
X144950000Y-68650000D03*
X128700000Y-89400000D03*
D50*
X104150000Y-92100000D03*
X98600000Y-92100000D03*
X121975000Y-73925000D03*
X146450000Y-88350000D03*
X128700000Y-89400000D03*
X159550000Y-113270000D03*
X167630000Y-113270000D03*
X169570000Y-102960000D03*
X161250000Y-111930000D03*
D49*
X152230000Y-62950000D03*
X152370000Y-67340000D03*
X151410000Y-68260000D03*
X151140000Y-62730000D03*
X151410000Y-63710000D03*
X151410000Y-67320970D03*
X103620000Y-56380000D03*
X104650000Y-56360000D03*
X105770000Y-56370000D03*
X131720000Y-56370000D03*
X129300000Y-56330000D03*
X130490000Y-56360000D03*
X168240000Y-56710000D03*
X167170000Y-56690000D03*
X165990000Y-56650000D03*
X177380000Y-56600000D03*
X178430000Y-56600000D03*
X179560000Y-56600000D03*
D50*
X123700000Y-79300000D03*
X107350000Y-94900000D03*
X122450000Y-94900000D03*
X119020000Y-109520000D03*
X119150000Y-111670000D03*
X128000000Y-102675000D03*
X119150000Y-110800000D03*
X116760000Y-95910000D03*
X132200000Y-104600000D03*
X119100000Y-106550000D03*
X116600000Y-101000000D03*
X97400000Y-63334000D03*
X119300000Y-108250000D03*
X127450000Y-101750000D03*
X120900000Y-93050000D03*
D49*
X137997370Y-94484978D03*
D50*
X137997370Y-94484978D03*
X102219491Y-89319491D03*
X124800000Y-79350000D03*
X97400000Y-68668000D03*
X121429999Y-49400001D03*
X103360000Y-51280000D03*
X107800000Y-49740000D03*
X96550000Y-90150000D03*
X110440000Y-50570000D03*
X140560000Y-51170000D03*
X96247464Y-90890601D03*
X131050000Y-84000000D03*
X131300000Y-80900000D03*
X159750000Y-97750000D03*
X156500000Y-88000000D03*
X158700000Y-89400000D03*
X158900000Y-90300000D03*
X154244844Y-97485156D03*
X152780000Y-89490000D03*
X152148126Y-99585081D03*
X148130000Y-68310000D03*
X150972702Y-102390693D03*
X143560000Y-84560000D03*
X143550000Y-70850760D03*
X153180683Y-98519317D03*
X157640000Y-70280000D03*
X155990000Y-70410000D03*
X154570000Y-84390000D03*
X152360000Y-70920000D03*
X172640000Y-97020000D03*
X182314980Y-99450000D03*
X181500000Y-101080000D03*
X172630000Y-91710000D03*
X172720000Y-95270000D03*
X186730000Y-83350000D03*
X183040000Y-105000000D03*
X177280000Y-99120000D03*
X185140000Y-89480000D03*
D49*
X113420000Y-100770000D03*
X112390000Y-101920000D03*
X107980000Y-105520000D03*
X107980000Y-104030000D03*
D51*
X100280000Y-58290000D02*
X100280000Y-59130000D01*
X100280000Y-59130000D02*
X99580000Y-59830000D01*
X112950000Y-59650000D02*
X111060000Y-59650000D01*
X111060000Y-59650000D02*
X110640000Y-59230000D01*
X112950000Y-60200000D02*
X112950000Y-59650000D01*
X112780000Y-58290000D02*
X112780000Y-59480000D01*
X112780000Y-59480000D02*
X112950000Y-59650000D01*
X135320000Y-59520000D02*
X135320000Y-60990000D01*
X123030000Y-59710000D02*
X123030000Y-61070000D01*
D52*
X125230000Y-59710000D02*
X123030000Y-59710000D01*
D51*
X147280000Y-54444000D02*
X142376000Y-54444000D01*
X142376000Y-54444000D02*
X142320000Y-54500000D01*
X164440000Y-53000000D02*
X162430000Y-50990000D01*
X162430000Y-50990000D02*
X149920000Y-50990000D01*
X166230000Y-51210000D02*
X164440000Y-53000000D01*
X164440000Y-53000000D02*
X164440000Y-54730000D01*
X174480000Y-51210000D02*
X166230000Y-51210000D01*
X176260000Y-52990000D02*
X174480000Y-51210000D01*
X175313599Y-70103599D02*
X175313599Y-73320000D01*
X175313599Y-73320000D02*
X175313599Y-82136401D01*
X185780000Y-73320000D02*
X175313599Y-73320000D01*
X185780000Y-54510000D02*
X185780000Y-73320000D01*
X183360000Y-52090000D02*
X185780000Y-54510000D01*
X177160000Y-52090000D02*
X183360000Y-52090000D01*
X176260000Y-54690000D02*
X176260000Y-52990000D01*
X176260000Y-52990000D02*
X177160000Y-52090000D01*
D53*
X123290000Y-80050000D02*
X123250000Y-80050000D01*
X123250000Y-80050000D02*
X122640000Y-80660000D01*
X122070000Y-79610000D02*
X122850000Y-79610000D01*
X122850000Y-79610000D02*
X123290000Y-80050000D01*
X122070000Y-79610000D02*
X122240000Y-79610000D01*
X122240000Y-79610000D02*
X123290000Y-80660000D01*
X122070000Y-79610000D02*
X122070000Y-80090000D01*
X122070000Y-80090000D02*
X122640000Y-80660000D01*
X121980000Y-80660000D02*
X121980000Y-79700000D01*
X121980000Y-79700000D02*
X122070000Y-79610000D01*
X123290000Y-80660000D02*
X122640000Y-80660000D01*
X123290000Y-80050000D02*
X123290000Y-80660000D01*
D54*
X141450000Y-91750000D02*
X141450000Y-92850000D01*
X141450000Y-92850000D02*
X138740021Y-95559979D01*
X138740021Y-95559979D02*
X137079979Y-95559979D01*
X137079979Y-95559979D02*
X135740000Y-94220000D01*
X135740000Y-94220000D02*
X130180000Y-94220000D01*
X130180000Y-94220000D02*
X129800000Y-94600000D01*
X129800000Y-94600000D02*
X129800000Y-95820000D01*
D55*
X112090000Y-97370000D02*
X119170020Y-97370000D01*
X119170020Y-97370000D02*
X119975010Y-98174990D01*
X110850000Y-98610000D02*
X112090000Y-97370000D01*
X110850000Y-98750000D02*
X110850000Y-98610000D01*
D56*
X128340000Y-68560000D02*
X127780000Y-68560000D01*
X127780000Y-68560000D02*
X127770000Y-68570000D01*
X127110000Y-68550000D02*
X127534264Y-68550000D01*
X127534264Y-68550000D02*
X127544264Y-68540000D01*
X149910000Y-105650000D02*
X149910000Y-105180000D01*
X149910000Y-105180000D02*
X150010000Y-105080000D01*
X146410102Y-104382842D02*
X145915128Y-104877816D01*
X145915128Y-104877816D02*
X145915128Y-106144872D01*
D53*
X146238626Y-101191044D02*
X146238626Y-100650958D01*
X146190000Y-101870000D02*
X146190000Y-101239670D01*
X146238626Y-100650958D02*
X147118451Y-99771133D01*
X146190000Y-101239670D02*
X146238626Y-101191044D01*
X147118451Y-99771133D02*
X147118451Y-98581549D01*
D56*
X146410102Y-104382842D02*
X146190000Y-104162740D01*
X146190000Y-104162740D02*
X146190000Y-101870000D01*
D53*
X147118451Y-98581549D02*
X147719491Y-97980509D01*
D57*
X147719491Y-97980509D02*
X148420008Y-97279992D01*
D56*
X185240000Y-82050000D02*
X185240000Y-85470000D01*
X185240000Y-85470000D02*
X185140000Y-85570000D01*
X185140000Y-85570000D02*
X182780000Y-85570000D01*
X182780000Y-85570000D02*
X178690000Y-81480000D01*
X178690000Y-81480000D02*
X177468686Y-81480000D01*
X177468686Y-81480000D02*
X176812285Y-82136401D01*
X176812285Y-82136401D02*
X175313599Y-82136401D01*
X185140000Y-85570000D02*
X184065000Y-85570000D01*
X169570000Y-90960000D02*
X171740000Y-90960000D01*
X171740000Y-90960000D02*
X171830000Y-91050000D01*
D58*
X175665087Y-82136401D02*
X175313599Y-82136401D01*
D51*
X175313599Y-82136401D02*
X167450000Y-90000000D01*
X167450000Y-90000000D02*
X166350000Y-91100000D01*
D58*
X167770000Y-90960000D02*
X167450000Y-90640000D01*
X169570000Y-90960000D02*
X167770000Y-90960000D01*
X167450000Y-90640000D02*
X167450000Y-90000000D01*
D56*
X129875736Y-68550000D02*
X130300000Y-68550000D01*
X128510000Y-69160000D02*
X129120000Y-68550000D01*
X129120000Y-68550000D02*
X129875736Y-68550000D01*
D59*
X160029998Y-76410002D02*
X162299990Y-74140010D01*
X162299990Y-74140010D02*
X162299990Y-71755898D01*
X162299990Y-71755898D02*
X163112287Y-70943601D01*
X159900000Y-76410002D02*
X160029998Y-76410002D01*
D55*
X106270000Y-79480000D02*
X106270000Y-78450000D01*
X106270000Y-78450000D02*
X106120000Y-78300000D01*
X104980000Y-80410000D02*
X105340000Y-80410000D01*
X105340000Y-80410000D02*
X106270000Y-79480000D01*
X107750000Y-80250000D02*
X106672370Y-80250000D01*
X106672370Y-80250000D02*
X105722370Y-81200000D01*
X107750000Y-78880000D02*
X107750000Y-80250000D01*
X107229460Y-77700000D02*
X107229460Y-78359460D01*
X107229460Y-78359460D02*
X107750000Y-78880000D01*
X105049980Y-75520520D02*
X107229460Y-77700000D01*
X104980000Y-77600000D02*
X104980000Y-75590500D01*
X104980000Y-78880000D02*
X104980000Y-77600000D01*
X104980000Y-80410000D02*
X104980000Y-78880000D01*
X104980000Y-82170000D02*
X104980000Y-80410000D01*
X104980000Y-75590500D02*
X105049980Y-75520520D01*
D59*
X105049980Y-86050000D02*
X105049980Y-87519480D01*
D55*
X105049980Y-84740000D02*
X105049980Y-86050000D01*
X105049980Y-83540000D02*
X105049980Y-84740000D01*
D59*
X105049980Y-81872390D02*
X105049980Y-83540000D01*
D55*
X104980000Y-82170000D02*
X104980000Y-83470020D01*
X104980000Y-83470020D02*
X105049980Y-83540000D01*
X124224990Y-98524990D02*
X128365010Y-98524990D01*
X128365010Y-98524990D02*
X129499999Y-97390001D01*
X110850000Y-98750000D02*
X111046864Y-98750000D01*
X119975010Y-98174990D02*
X120325010Y-98524990D01*
X107950000Y-98750000D02*
X110850000Y-98750000D01*
X105030000Y-99230000D02*
X107470000Y-99230000D01*
X107470000Y-99230000D02*
X107950000Y-98750000D01*
X106100000Y-100300000D02*
X105030000Y-99230000D01*
D53*
X142880000Y-85871400D02*
X140921400Y-85871400D01*
X140921400Y-85871400D02*
X140920000Y-85870000D01*
D59*
X159900000Y-81950000D02*
X159900000Y-76410002D01*
D58*
X157170000Y-75790000D02*
X160520002Y-75790000D01*
D56*
X128980000Y-68920000D02*
X128920001Y-68860001D01*
X128920001Y-68860001D02*
X128809999Y-68860001D01*
X128809999Y-68860001D02*
X128510000Y-69160000D01*
X128980000Y-69320000D02*
X128980000Y-68920000D01*
X128510000Y-69790000D02*
X128980000Y-69320000D01*
X128510000Y-69160000D02*
X128510000Y-68990000D01*
X128510000Y-68990000D02*
X128950000Y-68550000D01*
X130300000Y-67900000D02*
X130300000Y-68550000D01*
X130990000Y-67590000D02*
X130990000Y-68340000D01*
X130990000Y-68340000D02*
X131200000Y-68550000D01*
X130400000Y-71600000D02*
X130550000Y-71600000D01*
X130550000Y-71600000D02*
X131200000Y-70950000D01*
X130400000Y-70960000D02*
X131190000Y-70960000D01*
X131190000Y-70960000D02*
X131200000Y-70950000D01*
X130400000Y-70320000D02*
X130570000Y-70320000D01*
X130570000Y-70320000D02*
X131200000Y-70950000D01*
X129200000Y-73750000D02*
X129200000Y-72975010D01*
D57*
X127220000Y-69705000D02*
X127220000Y-68620000D01*
X127175000Y-68615000D02*
X127110000Y-68550000D01*
D56*
X128950000Y-68550000D02*
X128075000Y-68550000D01*
D60*
X100764000Y-108680000D02*
X100764000Y-108496000D01*
X100764000Y-108496000D02*
X103050000Y-106210000D01*
X103050000Y-106210000D02*
X103050000Y-103600000D01*
D57*
X147719491Y-89919491D02*
X148827959Y-91027959D01*
X148827959Y-91027959D02*
X148898643Y-91027959D01*
D56*
X157285001Y-72834999D02*
X157570000Y-73119998D01*
X157570000Y-73119998D02*
X157570000Y-73790000D01*
X154320000Y-73690000D02*
X154445000Y-73690000D01*
X154445000Y-73690000D02*
X155300001Y-72834999D01*
X155300001Y-72834999D02*
X157285001Y-72834999D01*
D57*
X157110000Y-77820000D02*
X157110000Y-78050000D01*
X157110000Y-78050000D02*
X157070000Y-78090000D01*
X147650000Y-77950000D02*
X147770000Y-78070000D01*
D58*
X147770000Y-78070000D02*
X151350000Y-78070000D01*
D51*
X127650000Y-58290000D02*
X125130000Y-58290000D01*
X129970000Y-58290000D02*
X127650000Y-58290000D01*
X127650000Y-58290000D02*
X127650000Y-58920000D01*
X139990000Y-58340000D02*
X137480000Y-58340000D01*
X142320000Y-58340000D02*
X139990000Y-58340000D01*
X139990000Y-58340000D02*
X139990000Y-58910000D01*
X139990000Y-58910000D02*
X139950000Y-58950000D01*
D58*
X147080000Y-78800000D02*
X147080000Y-77710000D01*
X147080000Y-77710000D02*
X147050000Y-77680000D01*
X147050000Y-77680000D02*
X147380000Y-77680000D01*
X147380000Y-77680000D02*
X147650000Y-77950000D01*
X147080000Y-78800000D02*
X147080000Y-78520000D01*
X147080000Y-78520000D02*
X147650000Y-77950000D01*
D56*
X145000000Y-73550000D02*
X145125000Y-73550000D01*
X145125000Y-73550000D02*
X145980001Y-72694999D01*
X145980001Y-72694999D02*
X147865001Y-72694999D01*
X147865001Y-72694999D02*
X148150000Y-72979998D01*
X148150000Y-72979998D02*
X148150000Y-73650000D01*
D57*
X147700000Y-75650000D02*
X148150000Y-75200000D01*
X148150000Y-75200000D02*
X148150000Y-73650000D01*
X147650000Y-77950000D02*
X147650000Y-75700000D01*
X147650000Y-75700000D02*
X147700000Y-75650000D01*
X157170000Y-75790000D02*
X157570000Y-75390000D01*
X157570000Y-75390000D02*
X157570000Y-73790000D01*
X157070000Y-78090000D02*
X157070000Y-75890000D01*
X157070000Y-75890000D02*
X157170000Y-75790000D01*
D51*
X100450000Y-60250000D02*
X100450000Y-58460000D01*
D52*
X100450000Y-61560000D02*
X100450000Y-60250000D01*
D51*
X100450000Y-58460000D02*
X100280000Y-58290000D01*
X137650000Y-60250000D02*
X137650000Y-58510000D01*
D52*
X137650000Y-61610000D02*
X137650000Y-60250000D01*
D51*
X125130000Y-60200000D02*
X125130000Y-61390000D01*
X125130000Y-58290000D02*
X125130000Y-60200000D01*
X137650000Y-58510000D02*
X137480000Y-58340000D01*
X125130000Y-61390000D02*
X125300000Y-61560000D01*
X127650000Y-54450000D02*
X125130000Y-54450000D01*
X129970000Y-54450000D02*
X127650000Y-54450000D01*
X140000000Y-54500000D02*
X142320000Y-54500000D01*
X137480000Y-54500000D02*
X140000000Y-54500000D01*
X137480000Y-58340000D02*
X137480000Y-54500000D01*
X125130000Y-54450000D02*
X125130000Y-58290000D01*
X115300000Y-54450000D02*
X117620000Y-54450000D01*
X112780000Y-54450000D02*
X115300000Y-54450000D01*
X112780000Y-58290000D02*
X112780000Y-54450000D01*
X115250000Y-58290000D02*
X117620000Y-58290000D01*
X112780000Y-58290000D02*
X115250000Y-58290000D01*
D52*
X112950000Y-61560000D02*
X112950000Y-60200000D01*
D51*
X102750000Y-58290000D02*
X105120000Y-58290000D01*
X100280000Y-58290000D02*
X102750000Y-58290000D01*
X100280000Y-54450000D02*
X100280000Y-58290000D01*
X102800000Y-54450000D02*
X105120000Y-54450000D01*
X100280000Y-54450000D02*
X102800000Y-54450000D01*
D54*
X141450000Y-91750000D02*
X142900000Y-91750000D01*
X142900000Y-91750000D02*
X143050000Y-91600000D01*
D57*
X140920000Y-85870000D02*
X140920000Y-85470000D01*
X140920000Y-85470000D02*
X140520000Y-85070000D01*
X140920000Y-85770000D02*
X141620000Y-85070000D01*
X140920000Y-85870000D02*
X140920000Y-85770000D01*
D53*
X123400000Y-83750000D02*
X121750000Y-83750000D01*
X121750000Y-83750000D02*
X121500000Y-83500000D01*
D57*
X97500000Y-59400000D02*
X99170000Y-59400000D01*
X99170000Y-59400000D02*
X100280000Y-58290000D01*
D56*
X130300000Y-67900000D02*
X130550000Y-67900000D01*
X130550000Y-67900000D02*
X131200000Y-68550000D01*
X130300000Y-68550000D02*
X128950000Y-68550000D01*
X131200000Y-68550000D02*
X130300000Y-68550000D01*
D57*
X114700000Y-70010000D02*
X114200000Y-70510000D01*
X114850000Y-70010000D02*
X114200000Y-69360000D01*
D56*
X114800000Y-70010000D02*
X114800000Y-71160000D01*
X114800000Y-70060000D02*
X114800000Y-68860000D01*
D52*
X129800000Y-97090000D02*
X129800000Y-95820000D01*
X129800000Y-98360000D02*
X129800000Y-97090000D01*
D57*
X125450000Y-99150000D02*
X125175010Y-99424990D01*
D52*
X129800000Y-98360000D02*
X126240000Y-98360000D01*
X125000000Y-96100000D02*
X125000000Y-99024990D01*
X125000000Y-99024990D02*
X125150000Y-99174990D01*
D57*
X125000000Y-99300000D02*
X125000000Y-99174990D01*
X125000000Y-99174990D02*
X125000000Y-96100000D01*
D52*
X124874990Y-99174990D02*
X125000000Y-99174990D01*
X120325010Y-98524990D02*
X124224990Y-98524990D01*
X124224990Y-98524990D02*
X124874990Y-99174990D01*
X120325010Y-98524990D02*
X120575010Y-98774990D01*
X106100000Y-100300000D02*
X106400000Y-100300000D01*
X106400000Y-100300000D02*
X107950000Y-98750000D01*
D56*
X116884670Y-101974990D02*
X117024990Y-101974990D01*
X117024990Y-101974990D02*
X117100000Y-102050000D01*
X117100000Y-102050000D02*
X117200000Y-102050000D01*
X117200000Y-102050000D02*
X118250000Y-102050000D01*
D58*
X114750000Y-102350000D02*
X115724682Y-102350000D01*
X115724682Y-102350000D02*
X116099692Y-101974990D01*
X116099692Y-101974990D02*
X116884670Y-101974990D01*
D59*
X110900000Y-104800000D02*
X112300000Y-104800000D01*
X112300000Y-104800000D02*
X114750000Y-102350000D01*
D56*
X129150000Y-73800000D02*
X128325010Y-72975010D01*
D53*
X128325010Y-72975010D02*
X128300000Y-72975010D01*
X129200000Y-73800000D02*
X129150000Y-73800000D01*
D56*
X129300000Y-73800000D02*
X130124990Y-72975010D01*
D53*
X130124990Y-72975010D02*
X130150000Y-72975010D01*
X129200000Y-73800000D02*
X129300000Y-73800000D01*
X121500000Y-83900000D02*
X121150000Y-84250000D01*
X121500000Y-83500000D02*
X121500000Y-83900000D01*
X121500000Y-83500000D02*
X121000000Y-83500000D01*
X121000000Y-83500000D02*
X120850000Y-83350000D01*
D58*
X162000000Y-93950000D02*
X162000000Y-92250000D01*
D57*
X155065349Y-90634651D02*
X153750000Y-90644876D01*
X155171400Y-96240029D02*
X155171400Y-95050000D01*
X155171400Y-95050000D02*
X155171400Y-93750000D01*
X155171400Y-93750000D02*
X155171400Y-92150000D01*
X155171400Y-92150000D02*
X155171400Y-90528600D01*
D59*
X105722370Y-81200000D02*
X105049980Y-81872390D01*
D56*
X124100000Y-102700000D02*
X123300000Y-102700000D01*
X125150000Y-102700000D02*
X124100000Y-102700000D01*
D57*
X125175010Y-99424990D02*
X125124990Y-99424990D01*
X125124990Y-99424990D02*
X125000000Y-99300000D01*
X120575010Y-98774990D02*
X120600000Y-98750000D01*
X100150000Y-99400000D02*
X100200000Y-99400000D01*
X100200000Y-99400000D02*
X103050000Y-102250000D01*
X103050000Y-102250000D02*
X103050000Y-103600000D01*
D56*
X122600000Y-104500000D02*
X122350000Y-104250000D01*
X122600000Y-106550000D02*
X122600000Y-104500000D01*
X111025000Y-104800000D02*
X110900000Y-104800000D01*
X118250000Y-102050000D02*
X121350000Y-102050000D01*
X121350000Y-102050000D02*
X123550000Y-102050000D01*
X125150000Y-99450000D02*
X123950000Y-99450000D01*
X123950000Y-99450000D02*
X121350000Y-102050000D01*
D54*
X115250000Y-58290000D02*
X115250000Y-58850000D01*
X102750000Y-58290000D02*
X102750000Y-58800000D01*
X105049980Y-75520520D02*
X105049980Y-75199980D01*
D59*
X164500000Y-108500000D02*
X162800000Y-108500000D01*
X162800000Y-108500000D02*
X159250000Y-104950000D01*
X159250000Y-104950000D02*
X159250000Y-101500000D01*
D57*
X148420008Y-97279992D02*
X149250000Y-97279992D01*
X159500000Y-88500000D02*
X159500000Y-88250000D01*
X159500000Y-89625000D02*
X159500000Y-88500000D01*
X162000000Y-92250000D02*
X162000000Y-92125000D01*
X162000000Y-92125000D02*
X159500000Y-89625000D01*
X159500000Y-88250000D02*
X159500000Y-87250000D01*
X155780509Y-89919491D02*
X157500000Y-88200000D01*
X157500000Y-88200000D02*
X157500000Y-86750000D01*
X156346194Y-97414823D02*
X155171400Y-96240029D01*
X155171400Y-90528600D02*
X155179469Y-90520531D01*
X155179469Y-90520531D02*
X155780509Y-89919491D01*
X155780509Y-89919491D02*
X155065349Y-90634651D01*
D54*
X125300000Y-58460000D02*
X125130000Y-58290000D01*
X117370000Y-54200000D02*
X117620000Y-54450000D01*
X104870000Y-54200000D02*
X105120000Y-54450000D01*
D59*
X105050000Y-54380000D02*
X105120000Y-54450000D01*
X117550000Y-54380000D02*
X117620000Y-54450000D01*
X129900000Y-54380000D02*
X129970000Y-54450000D01*
X142250000Y-54430000D02*
X142320000Y-54500000D01*
X162930002Y-71125886D02*
X163112287Y-70943601D01*
D51*
X162670000Y-70501314D02*
X163112287Y-70943601D01*
X163112287Y-70943601D02*
X172746399Y-70943601D01*
X172746399Y-70943601D02*
X173586401Y-70103599D01*
X162670000Y-69280000D02*
X162670000Y-70501314D01*
X174450000Y-69240000D02*
X175313599Y-70103599D01*
X173586401Y-70103599D02*
X174450000Y-69240000D01*
D58*
X166760000Y-91510000D02*
X166350000Y-91100000D01*
D55*
X166350000Y-93920000D02*
X166350000Y-99930000D01*
X166350000Y-99930000D02*
X166400000Y-99980000D01*
D51*
X166360000Y-97550000D02*
X166360000Y-95140000D01*
X166360000Y-95140000D02*
X166350000Y-95130000D01*
X166400000Y-99980000D02*
X166400000Y-97590000D01*
X166400000Y-97590000D02*
X166360000Y-97550000D01*
X166350000Y-91100000D02*
X166350000Y-93920000D01*
X166400000Y-98770000D02*
X166400000Y-99980000D01*
X166380000Y-96290000D02*
X166380000Y-97530000D01*
X166380000Y-97530000D02*
X166400000Y-97550000D01*
D56*
X146870000Y-84540000D02*
X146870000Y-82800000D01*
X146970000Y-84640000D02*
X146870000Y-84540000D01*
X149381193Y-87051193D02*
X146970000Y-84640000D01*
X149982233Y-87656750D02*
X149381193Y-87055710D01*
X149381193Y-87055710D02*
X149381193Y-87051193D01*
X154880000Y-86320000D02*
X154854517Y-86320000D01*
X154854517Y-86320000D02*
X153517767Y-87656750D01*
X150590000Y-61170000D02*
X152040000Y-61170000D01*
X152040000Y-61170000D02*
X155420000Y-64550000D01*
X150547918Y-87091064D02*
X150547918Y-86342082D01*
X150547918Y-86342082D02*
X152750000Y-84140000D01*
D57*
X147250000Y-87500000D02*
X147562742Y-87500000D01*
X147562742Y-87500000D02*
X148850862Y-88788120D01*
X156346194Y-90485177D02*
X158375000Y-88456371D01*
X158375000Y-88456371D02*
X158375000Y-86250000D01*
X158375000Y-86250000D02*
X159375000Y-85250000D01*
X159375000Y-85250000D02*
X159500000Y-85250000D01*
X159500000Y-85250000D02*
X163000000Y-85250000D01*
D56*
X155310000Y-84733146D02*
X155310000Y-79330000D01*
X155310000Y-79330000D02*
X155170000Y-79190000D01*
X155170000Y-79190000D02*
X155170000Y-78090000D01*
X152952082Y-87091064D02*
X155310000Y-84733146D01*
D57*
X155170000Y-75790000D02*
X155170000Y-75240000D01*
X155170000Y-75240000D02*
X156620000Y-73790000D01*
X155170000Y-78090000D02*
X155170000Y-75790000D01*
D56*
X162080000Y-79700000D02*
X161275001Y-80504999D01*
X161275001Y-80504999D02*
X161275001Y-83290001D01*
X161275001Y-83290001D02*
X160240003Y-84324999D01*
X160240003Y-84324999D02*
X157980888Y-84324999D01*
X157980888Y-84324999D02*
X154684492Y-87621395D01*
X154684492Y-87621395D02*
X154083452Y-88222435D01*
X149416548Y-88222435D02*
X145750000Y-84555887D01*
X145750000Y-84555887D02*
X145750000Y-77950000D01*
D57*
X145700000Y-75650000D02*
X145700000Y-77900000D01*
X145700000Y-77900000D02*
X145750000Y-77950000D01*
X147200000Y-73650000D02*
X147200000Y-74150000D01*
X147200000Y-74150000D02*
X145700000Y-75650000D01*
X160570000Y-73840000D02*
X158570000Y-73840000D01*
X158570000Y-73840000D02*
X158520000Y-73790000D01*
X149100000Y-73650000D02*
X149100000Y-74680000D01*
X149100000Y-74680000D02*
X149710000Y-75290000D01*
D55*
X164000000Y-94130000D02*
X164000000Y-101545787D01*
X164000000Y-101545787D02*
X164500000Y-102045787D01*
X165914213Y-103460000D02*
X166566010Y-104111797D01*
X101852566Y-114875012D02*
X97313699Y-110336145D01*
X164500000Y-102045787D02*
X164500000Y-103460000D01*
X167310000Y-109400002D02*
X161834990Y-114875012D01*
X164500000Y-103460000D02*
X165914213Y-103460000D01*
X166566010Y-104111797D02*
X166566010Y-104236010D01*
X97313699Y-93386301D02*
X98600000Y-92100000D01*
X166566010Y-104236010D02*
X167319990Y-104989990D01*
X167319990Y-104989990D02*
X167319990Y-108410010D01*
X167310000Y-108420000D02*
X167310000Y-109400002D01*
X167319990Y-108410010D02*
X167310000Y-108420000D01*
X161834990Y-114875012D02*
X101852566Y-114875012D01*
X97313699Y-110336145D02*
X97313699Y-93386301D01*
D56*
X144800000Y-101790000D02*
X144800000Y-106810000D01*
X145638615Y-99361385D02*
X145638615Y-100951385D01*
X145850000Y-99150000D02*
X145638615Y-99361385D01*
X145638615Y-100951385D02*
X144800000Y-101790000D01*
X147153806Y-97414823D02*
X145850000Y-98718629D01*
X145850000Y-98718629D02*
X145850000Y-99150000D01*
D55*
X164000000Y-94130000D02*
X164000000Y-92250000D01*
X164000000Y-92250000D02*
X164000000Y-90200000D01*
X164000000Y-90200000D02*
X163200000Y-89400000D01*
X128700000Y-89400000D02*
X133800000Y-89400000D01*
X140110000Y-70420000D02*
X141880000Y-68650000D01*
X133800000Y-89400000D02*
X140110000Y-83090000D01*
X140110000Y-83090000D02*
X140110000Y-70420000D01*
X141880000Y-68650000D02*
X144250000Y-68650000D01*
X164840000Y-74290000D02*
X163700000Y-75430000D01*
X163700000Y-75430000D02*
X163700000Y-75520000D01*
X163700000Y-73160000D02*
X164840000Y-73160000D01*
X163620000Y-75600000D02*
X163700000Y-75520000D01*
X163700000Y-75520000D02*
X163700000Y-73160000D01*
X163620000Y-75600000D02*
X168060000Y-80040000D01*
X168060000Y-80040000D02*
X172940000Y-80040000D01*
X164840000Y-73160000D02*
X164840000Y-73280000D01*
X164840000Y-73280000D02*
X164330012Y-73789988D01*
X164330012Y-73789988D02*
X164330012Y-73959903D01*
X164330012Y-73959903D02*
X163764958Y-74524957D01*
X164840000Y-73160000D02*
X164840000Y-74290000D01*
D51*
X152850000Y-65270000D02*
X154630000Y-67050000D01*
D55*
X145449999Y-66380000D02*
X145449999Y-67619999D01*
X145449999Y-67619999D02*
X145620000Y-67790000D01*
X145449999Y-66380000D02*
X145449999Y-65660001D01*
X145449999Y-65660001D02*
X145900000Y-65210000D01*
X144950000Y-68650000D02*
X144950000Y-66879999D01*
X144950000Y-66879999D02*
X145449999Y-66380000D01*
X172940000Y-82110000D02*
X172940000Y-80040000D01*
X163200000Y-89400000D02*
X165650000Y-89400000D01*
X165650000Y-89400000D02*
X172940000Y-82110000D01*
D60*
X104150000Y-92100000D02*
X104150000Y-92115611D01*
D55*
X98600000Y-92100000D02*
X103380002Y-92100000D01*
X103380002Y-92100000D02*
X103395613Y-92115611D01*
X103395613Y-92115611D02*
X104150000Y-92115611D01*
D56*
X164450000Y-96880000D02*
X164500000Y-96830000D01*
X159280000Y-96880000D02*
X164450000Y-96880000D01*
D51*
X172940000Y-81140000D02*
X172940000Y-80040000D01*
D52*
X132190000Y-74400000D02*
X133040642Y-75250642D01*
X133040642Y-75250642D02*
X133040642Y-89400000D01*
D53*
X121975000Y-75400000D02*
X121975000Y-74680000D01*
D57*
X121975000Y-73925000D02*
X121975000Y-74680000D01*
D61*
X131400000Y-73700000D02*
X131490000Y-73700000D01*
X131490000Y-73700000D02*
X132190000Y-74400000D01*
D57*
X156389617Y-102460383D02*
X154320000Y-104530000D01*
X154320000Y-104530000D02*
X154290000Y-104530000D01*
X155780509Y-97980509D02*
X156389617Y-98589617D01*
X156389617Y-98589617D02*
X156389617Y-102460383D01*
X148886217Y-89954846D02*
X148285177Y-89353806D01*
X147153806Y-97414823D02*
X150210000Y-94358629D01*
X150210000Y-94358629D02*
X150210000Y-91278629D01*
X150210000Y-91278629D02*
X148886217Y-89954846D01*
X156740001Y-71469999D02*
X156620000Y-71590000D01*
X156740001Y-69360001D02*
X156740001Y-71469999D01*
X156170000Y-68790000D02*
X156740001Y-69360001D01*
D51*
X156170000Y-68590000D02*
X154630000Y-67050000D01*
X156170000Y-68790000D02*
X156170000Y-68590000D01*
X145900000Y-65210000D02*
X146890000Y-65210000D01*
D56*
X158109256Y-72740000D02*
X156959256Y-71590000D01*
X159470000Y-72740000D02*
X158109256Y-72740000D01*
X160270000Y-71940000D02*
X159470000Y-72740000D01*
X156959256Y-71590000D02*
X156620000Y-71590000D01*
X160570000Y-71940000D02*
X160270000Y-71940000D01*
X148689256Y-72600000D02*
X149670002Y-72600000D01*
X149670002Y-72600000D02*
X150810000Y-73739998D01*
X150810000Y-73739998D02*
X150810000Y-76390000D01*
X150810000Y-76390000D02*
X150010000Y-77190000D01*
X150010000Y-77190000D02*
X149710000Y-77190000D01*
X147539256Y-71450000D02*
X147200000Y-71450000D01*
X148689256Y-72600000D02*
X147539256Y-71450000D01*
D51*
X144925000Y-69735000D02*
X143815000Y-68625000D01*
X144140000Y-68650000D02*
X143950000Y-68650000D01*
X144950000Y-69760000D02*
X144950000Y-69050000D01*
X144950000Y-69050000D02*
X145350000Y-68650000D01*
X146700000Y-68650000D02*
X143950000Y-68650000D01*
X144950000Y-68650000D02*
X146700000Y-68650000D01*
X143950000Y-68650000D02*
X144650000Y-68650000D01*
X145350000Y-68650000D02*
X146700000Y-68650000D01*
D57*
X146450000Y-88350000D02*
X147281371Y-88350000D01*
X147281371Y-88350000D02*
X148285177Y-89353806D01*
X147200000Y-71450000D02*
X145100000Y-71450000D01*
X145100000Y-71450000D02*
X145000000Y-71550000D01*
X146700000Y-68650000D02*
X146700000Y-70950000D01*
X146700000Y-70950000D02*
X147200000Y-71450000D01*
X154320000Y-71690000D02*
X156520000Y-71690000D01*
X156520000Y-71690000D02*
X156620000Y-71590000D01*
X164000000Y-89750000D02*
X163000000Y-88750000D01*
D56*
X144891064Y-95152082D02*
X140716500Y-99326646D01*
X140716500Y-99326646D02*
X140716500Y-109730000D01*
X145456750Y-95717767D02*
X142560000Y-98614517D01*
X142560000Y-98614517D02*
X142560000Y-107659287D01*
X142560000Y-107659287D02*
X143216500Y-108315787D01*
X143216500Y-108315787D02*
X143216500Y-109730000D01*
X145421395Y-96884492D02*
X146022435Y-96283452D01*
X145716500Y-109730000D02*
X143274381Y-107287881D01*
X143274381Y-99031506D02*
X145421395Y-96884492D01*
X143274381Y-107287881D02*
X143274381Y-99031506D01*
X150836000Y-108274000D02*
X150836000Y-109740000D01*
X148815508Y-102298092D02*
X150883018Y-104365602D01*
X149416548Y-99677565D02*
X148815508Y-100278605D01*
X148815508Y-100278605D02*
X148815508Y-102298092D01*
X150883018Y-108226982D02*
X150836000Y-108274000D01*
X150883018Y-104365602D02*
X150883018Y-108226982D01*
D57*
X167630000Y-113270000D02*
X168054264Y-113270000D01*
X168054264Y-113270000D02*
X169570000Y-111754264D01*
X169570000Y-106010000D02*
X169570000Y-104960000D01*
X169570000Y-111754264D02*
X169570000Y-106010000D01*
D56*
X151862287Y-113270000D02*
X150716500Y-112124213D01*
X150716500Y-112124213D02*
X150716500Y-109730000D01*
X159550000Y-113270000D02*
X151862287Y-113270000D01*
X149982233Y-100243250D02*
X150566341Y-99659142D01*
X150566341Y-99659142D02*
X151059840Y-99659142D01*
X151059840Y-99659142D02*
X151697712Y-100297014D01*
X151697712Y-100297014D02*
X151697712Y-107909312D01*
X151697712Y-107909312D02*
X153376000Y-109587600D01*
X153376000Y-109587600D02*
X153376000Y-109740000D01*
X153970000Y-111930000D02*
X153220000Y-111180000D01*
X161250000Y-111930000D02*
X153970000Y-111930000D01*
X153220000Y-111180000D02*
X153220000Y-109730000D01*
X156911880Y-96849138D02*
X157512920Y-97450178D01*
X157512920Y-97450178D02*
X157512920Y-107977080D01*
X156759999Y-108730001D02*
X155760000Y-109730000D01*
X157512920Y-107977080D02*
X156759999Y-108730001D01*
X157477565Y-96283452D02*
X158260000Y-97065887D01*
X158260000Y-97065887D02*
X158260000Y-109730000D01*
X144891064Y-92747918D02*
X138180000Y-99458982D01*
X138180000Y-99458982D02*
X138180000Y-109730000D01*
D51*
X105770000Y-56370000D02*
X107480000Y-56370000D01*
X107480000Y-56370000D02*
X107550000Y-56440000D01*
X151140000Y-62730000D02*
X152010000Y-62730000D01*
X152010000Y-62730000D02*
X152230000Y-62950000D01*
X152220000Y-67341940D02*
X152220000Y-68040000D01*
X152240970Y-67320970D02*
X152220000Y-67341940D01*
X151410000Y-67320970D02*
X152240970Y-67320970D01*
X151410000Y-67320970D02*
X151410000Y-68260000D01*
X151410000Y-63710000D02*
X151410000Y-63000000D01*
X151410000Y-63000000D02*
X151140000Y-62730000D01*
X151410000Y-67320970D02*
X151410000Y-63710000D01*
X102790000Y-56400000D02*
X104630000Y-56400000D01*
X104630000Y-56400000D02*
X107530000Y-56400000D01*
X107540000Y-56450000D02*
X107550000Y-56440000D01*
X157620000Y-64141780D02*
X157620000Y-62541730D01*
X157620000Y-62541730D02*
X147468270Y-52390000D01*
X147468270Y-52390000D02*
X123963510Y-52390000D01*
X123963510Y-52390000D02*
X120050000Y-56303510D01*
X120050000Y-56303510D02*
X120050000Y-56614660D01*
X115290000Y-56370000D02*
X119875340Y-56370000D01*
X119885340Y-56450000D02*
X120050000Y-56614660D01*
X144750000Y-56664660D02*
X148140000Y-60054660D01*
X148140000Y-60054660D02*
X148140000Y-60810000D01*
X139994660Y-56420000D02*
X144580000Y-56420000D01*
X144585340Y-56500000D02*
X144750000Y-56664660D01*
X127650000Y-56390000D02*
X132235340Y-56390000D01*
X132235340Y-56450000D02*
X132400000Y-56614660D01*
X127640000Y-56390000D02*
X129290000Y-56390000D01*
X130490000Y-56390000D02*
X132225340Y-56390000D01*
X167177670Y-56660000D02*
X169033010Y-56660000D01*
X166000000Y-56650000D02*
X167170000Y-56650000D01*
X169025340Y-56730000D02*
X169190000Y-56894660D01*
X164440000Y-56650000D02*
X167170000Y-56650000D01*
X178410000Y-56600000D02*
X176350000Y-56600000D01*
X179560000Y-56600000D02*
X178430000Y-56600000D01*
X180955340Y-56600000D02*
X179560000Y-56600000D01*
D53*
X136680000Y-70391140D02*
X136680000Y-69200000D01*
X136680000Y-69200000D02*
X135470000Y-67990000D01*
X135470000Y-67990000D02*
X133190000Y-67990000D01*
X133190000Y-67990000D02*
X133190000Y-68965000D01*
X133190000Y-68965000D02*
X132755000Y-69400000D01*
X132755000Y-69400000D02*
X130126998Y-69400000D01*
X126634999Y-70675001D02*
X126525000Y-70565002D01*
X130126998Y-69400000D02*
X128851997Y-70675001D01*
X128851997Y-70675001D02*
X126634999Y-70675001D01*
X126525000Y-70565002D02*
X126525000Y-69700000D01*
X133200000Y-70950000D02*
X133200000Y-71075000D01*
X133200000Y-71075000D02*
X132900350Y-71374650D01*
X132900350Y-71374650D02*
X132900350Y-72300000D01*
X132900350Y-72300000D02*
X137300000Y-76699650D01*
X126700000Y-72300000D02*
X132900350Y-72300000D01*
X125875000Y-71475000D02*
X126700000Y-72300000D01*
X137300000Y-76699650D02*
X137300000Y-79850000D01*
X125875000Y-69450000D02*
X125875000Y-71475000D01*
D57*
X100250000Y-67610000D02*
X98506000Y-67610000D01*
X98506000Y-67610000D02*
X97400000Y-66504000D01*
D53*
X144840000Y-86700000D02*
X143550000Y-86700000D01*
X143550000Y-86700000D02*
X142880000Y-87370000D01*
D57*
X97500000Y-57500000D02*
X97500000Y-55698040D01*
D51*
X144750000Y-60835340D02*
X142624660Y-60835340D01*
D62*
X142624660Y-60835340D02*
X141850000Y-61610000D01*
D51*
X132400000Y-60785340D02*
X130274660Y-60785340D01*
D62*
X130274660Y-60785340D02*
X129500000Y-61560000D01*
D51*
X169190000Y-61065340D02*
X169190000Y-61376490D01*
X171953601Y-67616399D02*
X171153599Y-68416401D01*
X171153599Y-68416401D02*
X170290000Y-69280000D01*
X169190000Y-61376490D02*
X171953601Y-64140091D01*
X171953601Y-64140091D02*
X171953601Y-67616399D01*
X181120000Y-61025340D02*
X181120000Y-61336490D01*
X183733601Y-63950091D02*
X183733601Y-67576399D01*
X181120000Y-61336490D02*
X183733601Y-63950091D01*
X183733601Y-67576399D02*
X182933599Y-68376401D01*
X182933599Y-68376401D02*
X182070000Y-69240000D01*
D53*
X121325000Y-69700000D02*
X121325000Y-67997184D01*
X121325000Y-67997184D02*
X120350000Y-67022184D01*
D59*
X119577816Y-66250000D02*
X120350000Y-67022184D01*
X115027816Y-66250000D02*
X119577816Y-66250000D01*
X112827816Y-64050000D02*
X115027816Y-66250000D01*
X104477816Y-64050000D02*
X112827816Y-64050000D01*
X103099999Y-62672183D02*
X104477816Y-64050000D01*
X103250000Y-61560000D02*
X103099999Y-61710001D01*
X103099999Y-61710001D02*
X103099999Y-62672183D01*
D53*
X121324999Y-69699999D02*
X121325000Y-69700000D01*
X120675000Y-69700000D02*
X120675000Y-68800000D01*
X120675000Y-68800000D02*
X119352816Y-67477816D01*
X119352816Y-67477816D02*
X119250000Y-67477816D01*
D59*
X119122184Y-67350000D02*
X119250000Y-67477816D01*
X114572184Y-67350000D02*
X119122184Y-67350000D01*
X112372184Y-65150000D02*
X114572184Y-67350000D01*
X104022184Y-65150000D02*
X112372184Y-65150000D01*
X102000001Y-63127817D02*
X104022184Y-65150000D01*
X101850000Y-61560000D02*
X102000001Y-61710001D01*
X102000001Y-61710001D02*
X102000001Y-63127817D01*
D53*
X120675001Y-69699999D02*
X120675000Y-69700000D01*
D63*
X101850000Y-61560000D02*
X101850009Y-61560009D01*
D53*
X123925000Y-69700000D02*
X123925000Y-66925000D01*
X123925000Y-66925000D02*
X124450000Y-66400000D01*
D59*
X124450000Y-66127816D02*
X124450000Y-66400000D01*
X125177816Y-65400000D02*
X124450000Y-66127816D01*
X126227816Y-65400000D02*
X125177816Y-65400000D01*
X127949999Y-63677817D02*
X126227816Y-65400000D01*
X128100000Y-61560000D02*
X127949999Y-61710001D01*
X127949999Y-61710001D02*
X127949999Y-63677817D01*
D53*
X123925000Y-69700000D02*
X123924999Y-69699999D01*
D63*
X128100000Y-61560000D02*
X128099999Y-61560001D01*
D53*
X123275000Y-69700000D02*
X123275000Y-66475000D01*
X123275000Y-66475000D02*
X123350000Y-66400000D01*
D59*
X123350000Y-65672184D02*
X123350000Y-66400000D01*
X124722184Y-64300000D02*
X123350000Y-65672184D01*
X125772184Y-64300000D02*
X124722184Y-64300000D01*
X126850001Y-63222183D02*
X125772184Y-64300000D01*
X126700000Y-61560000D02*
X126850001Y-61710001D01*
X126850001Y-61710001D02*
X126850001Y-63222183D01*
D53*
X123275000Y-69700000D02*
X123275001Y-69699999D01*
D63*
X126700000Y-61560000D02*
X126700001Y-61560001D01*
D53*
X122625000Y-69700000D02*
X122625000Y-66725000D01*
X122625000Y-66725000D02*
X122250000Y-66350000D01*
D59*
X122250000Y-65322184D02*
X122250000Y-66350000D01*
X120877816Y-63950000D02*
X122250000Y-65322184D01*
X116927816Y-63950000D02*
X120877816Y-63950000D01*
X115599999Y-62622183D02*
X116927816Y-63950000D01*
X115750000Y-61560000D02*
X115599999Y-61710001D01*
X115599999Y-61710001D02*
X115599999Y-62622183D01*
D53*
X122625000Y-69700000D02*
X122624999Y-69699999D01*
X121975000Y-69700000D02*
X121975000Y-67175000D01*
X121975000Y-67175000D02*
X121150000Y-66350000D01*
D59*
X121150000Y-65777816D02*
X121150000Y-66350000D01*
X120422184Y-65050000D02*
X121150000Y-65777816D01*
X116472184Y-65050000D02*
X120422184Y-65050000D01*
X114500001Y-63077817D02*
X116472184Y-65050000D01*
X114350000Y-61560000D02*
X114500001Y-61710001D01*
X114500001Y-61710001D02*
X114500001Y-63077817D01*
D53*
X121975000Y-69700000D02*
X121975001Y-69699999D01*
D63*
X114350000Y-61560000D02*
X114350009Y-61560009D01*
D53*
X125225000Y-69700000D02*
X125225000Y-68800000D01*
X126436092Y-67588908D02*
X127288908Y-67588908D01*
X125225000Y-68800000D02*
X126436092Y-67588908D01*
D59*
X127477816Y-67400000D02*
X127288908Y-67588908D01*
X127777816Y-67400000D02*
X127477816Y-67400000D01*
X130027816Y-65150000D02*
X127777816Y-67400000D01*
X137977816Y-65150000D02*
X130027816Y-65150000D01*
X140299999Y-62827817D02*
X137977816Y-65150000D01*
X140450000Y-61610000D02*
X140299999Y-61760001D01*
X140299999Y-61760001D02*
X140299999Y-62827817D01*
D63*
X140450000Y-61610000D02*
X140449999Y-61610001D01*
D53*
X124575000Y-68672167D02*
X126436075Y-66811092D01*
X124575000Y-69700000D02*
X124575000Y-68672167D01*
X126436075Y-66811092D02*
X126511092Y-66811092D01*
D59*
X127022184Y-66300000D02*
X126511092Y-66811092D01*
X127322184Y-66300000D02*
X127022184Y-66300000D01*
X129572184Y-64050000D02*
X127322184Y-66300000D01*
X137522184Y-64050000D02*
X129572184Y-64050000D01*
X139200001Y-62372183D02*
X137522184Y-64050000D01*
X139050000Y-61610000D02*
X139200001Y-61760001D01*
X139200001Y-61760001D02*
X139200001Y-62372183D01*
D53*
X124575000Y-69700000D02*
X124575001Y-69699999D01*
D63*
X139050000Y-61610000D02*
X139050001Y-61610001D01*
D53*
X124575000Y-75400000D02*
X124575000Y-76625000D01*
X124575000Y-76625000D02*
X127950000Y-80000000D01*
X127950000Y-80000000D02*
X128650000Y-80000000D01*
X116300000Y-75400000D02*
X117299998Y-75400000D01*
X117299998Y-75400000D02*
X118224999Y-74474999D01*
X118224999Y-74474999D02*
X119999999Y-74474999D01*
X119999999Y-74474999D02*
X120025000Y-74500000D01*
X120025000Y-74500000D02*
X120025000Y-75400000D01*
D57*
X116800000Y-70010000D02*
X118415000Y-70010000D01*
X118370000Y-70010000D02*
X118680000Y-69700000D01*
D53*
X114150000Y-73000000D02*
X114150000Y-75350000D01*
X114150000Y-75350000D02*
X114200000Y-75400000D01*
X121024001Y-71974999D02*
X114875001Y-71974999D01*
X114875001Y-71974999D02*
X114150000Y-72700000D01*
X114150000Y-72700000D02*
X114150000Y-73000000D01*
D56*
X121900000Y-77650000D02*
X122050000Y-77650000D01*
X122050000Y-77650000D02*
X123700000Y-79300000D01*
X121900000Y-77650000D02*
X122625000Y-76925000D01*
X122625000Y-76925000D02*
X122625000Y-75400000D01*
D53*
X121024001Y-71974999D02*
X122699999Y-73650997D01*
X122699999Y-73650997D02*
X122699999Y-74425001D01*
X122699999Y-74425001D02*
X122625000Y-74500000D01*
X122625000Y-74500000D02*
X122625000Y-75400000D01*
X118725001Y-75400001D02*
X118725000Y-75400000D01*
X118350000Y-77050000D02*
X118725001Y-76674999D01*
X118725001Y-76674999D02*
X118725001Y-75400001D01*
D63*
X118350000Y-78610052D02*
X118350000Y-77050000D01*
X109748980Y-82790000D02*
X114170052Y-82790000D01*
X114170052Y-82790000D02*
X118350000Y-78610052D01*
D53*
X119750000Y-77050000D02*
X119374999Y-76674999D01*
X119374999Y-76674999D02*
X119374999Y-75400001D01*
X119374999Y-75400001D02*
X119375000Y-75400000D01*
D63*
X119750000Y-79189948D02*
X119750000Y-77050000D01*
X107750000Y-82790000D02*
X109150000Y-84190000D01*
X109150000Y-84190000D02*
X114749948Y-84190000D01*
X114749948Y-84190000D02*
X119750000Y-79189948D01*
D58*
X122025736Y-94900000D02*
X107350000Y-94900000D01*
X122450000Y-94900000D02*
X122025736Y-94900000D01*
D56*
X148216500Y-109730000D02*
X146021502Y-107535002D01*
X146021502Y-107535002D02*
X144451998Y-107535002D01*
X144451998Y-107535002D02*
X144074998Y-107158002D01*
X144074998Y-107158002D02*
X144074998Y-106461998D01*
X144074998Y-106461998D02*
X144149989Y-106387007D01*
X144149989Y-106387007D02*
X144149989Y-100850011D01*
X144149989Y-100850011D02*
X144506498Y-100493502D01*
X146588120Y-96849138D02*
X144506498Y-98930760D01*
X144506498Y-98930760D02*
X144506498Y-100493502D01*
D64*
X114750000Y-104350000D02*
X114875000Y-104350000D01*
X114875000Y-104350000D02*
X116525000Y-102700000D01*
X116525000Y-102700000D02*
X117250000Y-102700000D01*
X117250000Y-102700000D02*
X118250000Y-102700000D01*
D52*
X135050000Y-98360000D02*
X133332500Y-98360000D01*
X133332500Y-98360000D02*
X132697500Y-97725000D01*
X135050000Y-97090000D02*
X135050000Y-95820000D01*
X135050000Y-98360000D02*
X135050000Y-97090000D01*
X135050000Y-99630000D02*
X135050000Y-98360000D01*
X134485002Y-101600000D02*
X135050000Y-101035002D01*
X135050000Y-101035002D02*
X135050000Y-99630000D01*
X129800000Y-104150000D02*
X129800000Y-103789998D01*
X129800000Y-103789998D02*
X128685002Y-102675000D01*
X128685002Y-102675000D02*
X128424264Y-102675000D01*
X128424264Y-102675000D02*
X128000000Y-102675000D01*
X131365000Y-103810000D02*
X131365000Y-103935000D01*
X131365000Y-103935000D02*
X131150000Y-104150000D01*
X131150000Y-104150000D02*
X129800000Y-104150000D01*
X131950000Y-101600000D02*
X131950000Y-103225000D01*
X131950000Y-103225000D02*
X131365000Y-103810000D01*
D65*
X135290000Y-96060000D02*
X135170001Y-95940001D01*
D52*
X131950000Y-101600000D02*
X134485002Y-101600000D01*
D59*
X119150000Y-110800000D02*
X119150000Y-109650000D01*
X119150000Y-109650000D02*
X119020000Y-109520000D01*
D56*
X119150000Y-110800000D02*
X119150000Y-111670000D01*
X118720000Y-110060000D02*
X118720000Y-110370000D01*
X118720000Y-110370000D02*
X119150000Y-110800000D01*
D59*
X119150000Y-111670000D02*
X118760000Y-112060000D01*
X118760000Y-112060000D02*
X117450000Y-112060000D01*
X119020000Y-109520000D02*
X117450000Y-109520000D01*
D55*
X119150000Y-110800000D02*
X117760001Y-110800000D01*
X117760001Y-110800000D02*
X117750001Y-110790000D01*
D56*
X133080000Y-101600000D02*
X131950000Y-101600000D01*
X126825000Y-102675000D02*
X128000000Y-102675000D01*
D57*
X117622500Y-110800000D02*
X119150000Y-110800000D01*
X117450000Y-110790000D02*
X117612500Y-110790000D01*
X117612500Y-110790000D02*
X117622500Y-110800000D01*
D64*
X125150000Y-102050000D02*
X126200000Y-102050000D01*
X126200000Y-102050000D02*
X126825000Y-102675000D01*
D56*
X117450000Y-110790000D02*
X117450000Y-112060000D01*
X117450000Y-109520000D02*
X117450000Y-110790000D01*
D64*
X125150000Y-100750000D02*
X129100000Y-100750000D01*
X129100000Y-100750000D02*
X129950000Y-101600000D01*
D57*
X112605000Y-99120000D02*
X117920000Y-99120000D01*
X117920000Y-99120000D02*
X118224990Y-99424990D01*
X118224990Y-99424990D02*
X118250000Y-99424990D01*
X110850000Y-100750000D02*
X110975000Y-100750000D01*
X110975000Y-100750000D02*
X112605000Y-99120000D01*
D56*
X118300000Y-99450000D02*
X118250000Y-99450000D01*
D57*
X116760000Y-95910000D02*
X106040000Y-95910000D01*
X106040000Y-95910000D02*
X105100000Y-96850000D01*
D58*
X122550000Y-109400000D02*
X127400000Y-109400000D01*
X127400000Y-109400000D02*
X132200000Y-104600000D01*
X122600000Y-112400000D02*
X122600000Y-109400000D01*
D64*
X118250000Y-101400000D02*
X117299643Y-101400000D01*
X117299643Y-101400000D02*
X116969643Y-101070000D01*
X116969643Y-101070000D02*
X116670000Y-101070000D01*
X116670000Y-101070000D02*
X116600000Y-101000000D01*
D58*
X120600000Y-112400000D02*
X120600000Y-112525000D01*
X120600000Y-109400000D02*
X120600000Y-112400000D01*
X120600000Y-106550000D02*
X120600000Y-109400000D01*
D56*
X119100000Y-106550000D02*
X120600000Y-106550000D01*
D57*
X100150000Y-96860000D02*
X103190000Y-96860000D01*
X103190000Y-96860000D02*
X103200000Y-96850000D01*
D58*
X97400000Y-64604000D02*
X97400000Y-63334000D01*
X104329320Y-71850000D02*
X104329320Y-69543318D01*
X104329320Y-69543318D02*
X99390002Y-64604000D01*
X99390002Y-64604000D02*
X97400000Y-64604000D01*
D57*
X109748980Y-80250000D02*
X109748980Y-73098980D01*
X109748980Y-73098980D02*
X108500000Y-71850000D01*
D64*
X118250000Y-103350000D02*
X118250000Y-103950000D01*
X118250000Y-103950000D02*
X115850000Y-106350000D01*
X115850000Y-106350000D02*
X115800000Y-106350000D01*
X115800000Y-106350000D02*
X115050000Y-106350000D01*
D56*
X127900000Y-104150000D02*
X127100000Y-104150000D01*
X127100000Y-104150000D02*
X126300000Y-103350000D01*
X125419252Y-103350000D02*
X125394243Y-103375009D01*
X126300000Y-103350000D02*
X125419252Y-103350000D01*
X125394243Y-103375009D02*
X125150000Y-103375009D01*
X119300000Y-108250000D02*
X117450000Y-108250000D01*
D64*
X125150000Y-101400000D02*
X127100000Y-101400000D01*
X127100000Y-101400000D02*
X127450000Y-101750000D01*
X129330000Y-100100000D02*
X129800000Y-99630000D01*
X125150000Y-100100000D02*
X129330000Y-100100000D01*
D53*
X140920000Y-87770000D02*
X141220000Y-87770000D01*
X141220000Y-87770000D02*
X143899822Y-90449822D01*
X143899822Y-90449822D02*
X145987080Y-90449822D01*
X145987080Y-90449822D02*
X146588120Y-91050862D01*
X140450000Y-87800000D02*
X135499999Y-92750001D01*
X135499999Y-92750001D02*
X132250000Y-92750001D01*
X121199999Y-92750001D02*
X132250000Y-92750001D01*
X132250000Y-92750001D02*
X132500001Y-92750001D01*
X120900000Y-93050000D02*
X121199999Y-92750001D01*
X137997370Y-93002630D02*
X137997370Y-94060714D01*
X137997370Y-94060714D02*
X137997370Y-94484978D01*
X145421395Y-91015508D02*
X146022435Y-91616548D01*
X143615508Y-91015508D02*
X145421395Y-91015508D01*
X142450000Y-89850000D02*
X143615508Y-91015508D01*
X141450000Y-89850000D02*
X142450000Y-89850000D01*
X141150000Y-89850000D02*
X137997370Y-93002630D01*
X141450000Y-89850000D02*
X141150000Y-89850000D01*
D61*
X129200000Y-75750000D02*
X131250000Y-75750000D01*
X131250000Y-75750000D02*
X131400000Y-75600000D01*
X125875000Y-75400000D02*
X125875000Y-74650000D01*
X125875000Y-74650000D02*
X125975001Y-74549999D01*
X125975001Y-74549999D02*
X127874999Y-74549999D01*
X127874999Y-74549999D02*
X129075000Y-75750000D01*
X129075000Y-75750000D02*
X129200000Y-75750000D01*
D53*
X123400000Y-81850000D02*
X121650000Y-81850000D01*
X121650000Y-81850000D02*
X121500000Y-82000000D01*
X125550000Y-81850000D02*
X123400000Y-81850000D01*
X121500000Y-82000000D02*
X121500000Y-81250000D01*
X121500000Y-81250000D02*
X120675000Y-80425000D01*
X120675000Y-80425000D02*
X120675000Y-76300000D01*
X120675000Y-76300000D02*
X120675000Y-75400000D01*
X115207480Y-51770000D02*
X116258040Y-50719440D01*
X103734002Y-51955002D02*
X103919004Y-51770000D01*
X102835562Y-51955002D02*
X103734002Y-51955002D01*
X101570000Y-50689440D02*
X102835562Y-51955002D01*
X101570000Y-49740000D02*
X101570000Y-50689440D01*
X103919004Y-51770000D02*
X115207480Y-51770000D01*
X128159440Y-51210000D02*
X116748600Y-51210000D01*
X116748600Y-51210000D02*
X116258040Y-50719440D01*
X128670000Y-49750000D02*
X128670000Y-50699440D01*
X128670000Y-50699440D02*
X128159440Y-51210000D01*
X139050000Y-49750000D02*
X138100560Y-49750000D01*
X138100560Y-49750000D02*
X128670000Y-49750000D01*
X116258040Y-50719440D02*
X116258040Y-49770000D01*
D56*
X97500000Y-53600000D02*
X97500000Y-52550560D01*
X97500000Y-52550560D02*
X100310560Y-49740000D01*
X100310560Y-49740000D02*
X100520560Y-49740000D01*
X100520560Y-49740000D02*
X101570000Y-49740000D01*
D57*
X102219491Y-89319491D02*
X96299999Y-83399999D01*
X96299999Y-83399999D02*
X96299999Y-53700561D01*
X96299999Y-53700561D02*
X96400560Y-53600000D01*
X96400560Y-53600000D02*
X97500000Y-53600000D01*
D53*
X123275000Y-75400000D02*
X123275000Y-77825000D01*
X123275000Y-77825000D02*
X124800000Y-79350000D01*
X97400000Y-70950000D02*
X97400000Y-68668000D01*
X97400000Y-82422517D02*
X97400000Y-70950000D01*
X125550000Y-83750000D02*
X125550000Y-84450000D01*
X104221974Y-89244491D02*
X97400000Y-82422517D01*
X125550000Y-84450000D02*
X120755509Y-89244491D01*
X120755509Y-89244491D02*
X104221974Y-89244491D01*
X121429999Y-49400001D02*
X126221961Y-49400001D01*
X126221961Y-49400001D02*
X126571960Y-49750000D01*
X103668040Y-50971960D02*
X103360000Y-51280000D01*
X103668040Y-49740000D02*
X103668040Y-50971960D01*
X107800000Y-49740000D02*
X107375736Y-49740000D01*
X107375736Y-49740000D02*
X103668040Y-49740000D01*
X96550000Y-90150000D02*
X123750000Y-90150000D01*
X123750000Y-90150000D02*
X128800000Y-85100000D01*
X128800000Y-85100000D02*
X129800000Y-85100000D01*
X110440000Y-50570000D02*
X110920000Y-50090000D01*
X110920000Y-50090000D02*
X110920000Y-50085010D01*
X110920000Y-50085010D02*
X111235010Y-49770000D01*
X111235010Y-49770000D02*
X114160000Y-49770000D01*
X141148040Y-49750000D02*
X141148040Y-50581960D01*
X141148040Y-50581960D02*
X140560000Y-51170000D01*
X96687340Y-90874989D02*
X96671728Y-90890601D01*
X96671728Y-90890601D02*
X96247464Y-90890601D01*
X103903028Y-90890601D02*
X103887416Y-90874989D01*
X125476972Y-90890601D02*
X103903028Y-90890601D01*
X128192584Y-88174989D02*
X125476972Y-90890601D01*
X128400013Y-88174989D02*
X128192584Y-88174989D01*
X131250000Y-79500000D02*
X131975001Y-80225001D01*
X131975001Y-84600001D02*
X128400013Y-88174989D01*
X130550000Y-79500000D02*
X131250000Y-79500000D01*
X103887416Y-90874989D02*
X96687340Y-90874989D01*
X131975001Y-80225001D02*
X131975001Y-84600001D01*
X131050000Y-84000000D02*
X130600000Y-84000000D01*
X130600000Y-84000000D02*
X129800000Y-83200000D01*
X127124999Y-81124999D02*
X128800000Y-82800000D01*
X128800000Y-82800000D02*
X129800000Y-82800000D01*
X129800000Y-83200000D02*
X129800000Y-82919337D01*
X123925000Y-75400000D02*
X123925000Y-77044337D01*
X123925000Y-77044337D02*
X127124999Y-80244336D01*
X127124999Y-80244336D02*
X127124999Y-81124999D01*
X116100000Y-73000000D02*
X119475000Y-73000000D01*
X119475000Y-73000000D02*
X121325000Y-74500000D01*
X121325000Y-74500000D02*
X121325000Y-75400000D01*
X126525000Y-75400000D02*
X126525000Y-76300000D01*
X126525000Y-76300000D02*
X127265000Y-77040000D01*
X127265000Y-77040000D02*
X127865002Y-77040000D01*
X127865002Y-77040000D02*
X129650000Y-78824998D01*
X129650000Y-78824998D02*
X129650000Y-80275002D01*
X129650000Y-80275002D02*
X130274998Y-80900000D01*
X130274998Y-80900000D02*
X131300000Y-80900000D01*
D59*
X160500000Y-98250000D02*
X160250000Y-98250000D01*
X160250000Y-98250000D02*
X159750000Y-97750000D01*
X164500000Y-105960000D02*
X160500000Y-101960000D01*
X160500000Y-101960000D02*
X160500000Y-98250000D01*
D56*
X156500000Y-88000000D02*
X156500000Y-88068629D01*
X156500000Y-88068629D02*
X155214823Y-89353806D01*
D51*
X107550000Y-60785340D02*
X105424660Y-60785340D01*
D62*
X105424660Y-60785340D02*
X104650000Y-61560000D01*
D51*
X120050000Y-60785340D02*
X117924660Y-60785340D01*
D62*
X117924660Y-60785340D02*
X117150000Y-61560000D01*
D51*
X159070000Y-68790000D02*
X159070000Y-66640760D01*
X159070000Y-66640760D02*
X158570000Y-66140760D01*
D57*
X159070000Y-68790000D02*
X159070000Y-71040000D01*
X159070000Y-71040000D02*
X158520000Y-71590000D01*
D51*
X149090000Y-62808980D02*
X149600000Y-63318980D01*
X149600000Y-63318980D02*
X149600000Y-68650000D01*
D57*
X149600000Y-68650000D02*
X149600000Y-70950000D01*
X149600000Y-70950000D02*
X149100000Y-71450000D01*
D53*
X158700000Y-89400000D02*
X158562742Y-89400000D01*
X158562742Y-89400000D02*
X156911880Y-91050862D01*
X158900000Y-90300000D02*
X158794113Y-90300000D01*
X158794113Y-90300000D02*
X157477565Y-91616548D01*
D56*
X154244844Y-97576215D02*
X154244844Y-97485156D01*
X155214823Y-98546194D02*
X154244844Y-97576215D01*
X152780000Y-89490000D02*
X152780000Y-97045632D01*
X154048098Y-98313730D02*
X154048098Y-98510840D01*
X152780000Y-97045632D02*
X154048098Y-98313730D01*
X154048098Y-98510840D02*
X154649138Y-99111880D01*
X152360010Y-99940756D02*
X152148126Y-99728872D01*
X152463174Y-100808936D02*
X152360010Y-100705772D01*
X152148126Y-99728872D02*
X152148126Y-99585081D01*
X152952082Y-100808936D02*
X152463174Y-100808936D01*
X152360010Y-100705772D02*
X152360010Y-99940756D01*
X148130000Y-68310000D02*
X148130000Y-64599030D01*
X148130000Y-64599030D02*
X147190000Y-63659030D01*
X147190000Y-63659030D02*
X147190000Y-62808980D01*
X150972702Y-101233720D02*
X150972702Y-101966429D01*
X150972702Y-101966429D02*
X150972702Y-102390693D01*
X150547918Y-100808936D02*
X150972702Y-101233720D01*
X143550000Y-70850760D02*
X143550000Y-84550000D01*
X143550000Y-84550000D02*
X143560000Y-84560000D01*
X153523138Y-99117251D02*
X153523138Y-98967837D01*
X154083452Y-99677565D02*
X153523138Y-99117251D01*
X153523138Y-98967837D02*
X153180683Y-98625382D01*
X153180683Y-98625382D02*
X153180683Y-98519317D01*
X157640000Y-68194998D02*
X157640000Y-70280000D01*
X156670000Y-67224998D02*
X157640000Y-68194998D01*
X156670000Y-66140760D02*
X156670000Y-67224998D01*
X153269999Y-70660000D02*
X153269999Y-80769999D01*
X155990000Y-70410000D02*
X153519999Y-70410000D01*
X153519999Y-70410000D02*
X153269999Y-70660000D01*
X154540000Y-82040000D02*
X154540000Y-84360000D01*
X154540000Y-84360000D02*
X154570000Y-84390000D01*
X153269999Y-80769999D02*
X154540000Y-82040000D01*
X152619988Y-78289242D02*
X152619989Y-81039243D01*
X152360000Y-71820050D02*
X151540000Y-72640050D01*
X153517767Y-100179259D02*
X153517767Y-100243250D01*
X151802288Y-87250892D02*
X151802288Y-98166241D01*
X152360000Y-70920000D02*
X152360000Y-71820050D01*
X152873127Y-99237080D02*
X152873127Y-99534619D01*
X151540000Y-77209254D02*
X152619988Y-78289242D01*
X151540000Y-72640050D02*
X151540000Y-77209254D01*
X152619989Y-81039243D02*
X153770000Y-82189254D01*
X153770000Y-82189254D02*
X153770000Y-85283180D01*
X153770000Y-85283180D02*
X151802288Y-87250892D01*
X151802288Y-98166241D02*
X152873127Y-99237080D01*
X152873127Y-99534619D02*
X153517767Y-100179259D01*
X163490000Y-65020000D02*
X165210000Y-66740000D01*
X163490000Y-61840000D02*
X163490000Y-65020000D01*
X164890000Y-63880000D02*
X167750000Y-66740000D01*
X164890000Y-61840000D02*
X164890000Y-63880000D01*
X175420000Y-65130000D02*
X176990000Y-66700000D01*
X175420000Y-61800000D02*
X175420000Y-65130000D01*
X176820000Y-61800000D02*
X176820000Y-63990000D01*
X176820000Y-63990000D02*
X179530000Y-66700000D01*
D53*
X144840000Y-88600000D02*
X145268629Y-88600000D01*
X145268629Y-88600000D02*
X147153806Y-90485177D01*
D51*
X166760000Y-58570000D02*
X161920000Y-58570000D01*
X162670000Y-66740000D02*
X162090000Y-66160000D01*
D62*
X162090000Y-66160000D02*
X162090000Y-61840000D01*
D59*
X166690000Y-54660000D02*
X166760000Y-54730000D01*
D51*
X161920000Y-61670000D02*
X162090000Y-61840000D01*
X161920000Y-58570000D02*
X161920000Y-54730000D01*
D54*
X162090000Y-58740000D02*
X161920000Y-58570000D01*
D51*
X161920000Y-58570000D02*
X161920000Y-61670000D01*
X170290000Y-65840000D02*
X166290000Y-61840000D01*
X170290000Y-66740000D02*
X170290000Y-65840000D01*
X178690000Y-58530000D02*
X173850000Y-58530000D01*
X173850000Y-58530000D02*
X173850000Y-61630000D01*
X173850000Y-61630000D02*
X174020000Y-61800000D01*
X174450000Y-66700000D02*
X174020000Y-66270000D01*
D62*
X174020000Y-66270000D02*
X174020000Y-61800000D01*
D51*
X173850000Y-54690000D02*
X173850000Y-58530000D01*
D54*
X174020000Y-58700000D02*
X173850000Y-58530000D01*
D59*
X178620000Y-54620000D02*
X178690000Y-54690000D01*
D51*
X182070000Y-65650000D02*
X178220000Y-61800000D01*
X182070000Y-66700000D02*
X182070000Y-65650000D01*
D56*
X169570000Y-96960000D02*
X172580000Y-96960000D01*
X172580000Y-96960000D02*
X172640000Y-97020000D01*
X182314980Y-99450000D02*
X185080000Y-99450000D01*
X185080000Y-99450000D02*
X185570000Y-98960000D01*
X181500000Y-101080000D02*
X185450000Y-101080000D01*
X185450000Y-101080000D02*
X185570000Y-100960000D01*
X181550000Y-101030000D02*
X181500000Y-101080000D01*
X169570000Y-92960000D02*
X171380000Y-92960000D01*
X171380000Y-92960000D02*
X172630000Y-91710000D01*
X169570000Y-94960000D02*
X172410000Y-94960000D01*
X172410000Y-94960000D02*
X172720000Y-95270000D01*
X185240000Y-78650000D02*
X185240000Y-79550000D01*
X185240000Y-79550000D02*
X186730000Y-81040000D01*
X186730000Y-81040000D02*
X186730000Y-83350000D01*
D58*
X183040000Y-105000000D02*
X185530000Y-105000000D01*
X185530000Y-105000000D02*
X185570000Y-104960000D01*
D56*
X185570000Y-90960000D02*
X184920000Y-90960000D01*
X184920000Y-90960000D02*
X177280000Y-98600000D01*
X177280000Y-98600000D02*
X177280000Y-99120000D01*
X185140000Y-89480000D02*
X185140000Y-87570000D01*
D58*
X185140000Y-89480000D02*
X185140000Y-90530000D01*
X185140000Y-90530000D02*
X185570000Y-90960000D01*
D55*
X112200000Y-108250000D02*
X107290000Y-108250000D01*
X107290000Y-108250000D02*
X106860000Y-108680000D01*
X112200000Y-110790000D02*
X112200000Y-112060000D01*
X112200000Y-109520000D02*
X112200000Y-110790000D01*
X112200000Y-108250000D02*
X112200000Y-109520000D01*
X106860000Y-108680000D02*
X113077500Y-108680000D01*
X113077500Y-108680000D02*
X114552500Y-110155000D01*
X107980000Y-105520000D02*
X107980000Y-107560000D01*
X107980000Y-107560000D02*
X106860000Y-108680000D01*
X107980000Y-104030000D02*
X107980000Y-105520000D01*
X107990000Y-102480000D02*
X107990000Y-104020000D01*
X107990000Y-104020000D02*
X107980000Y-104030000D01*
X113074999Y-101165001D02*
X111815002Y-102424998D01*
X111815002Y-102424998D02*
X111815002Y-102800000D01*
X113074999Y-101025001D02*
X113074999Y-101165001D01*
X110900000Y-102800000D02*
X106900000Y-102800000D01*
X106900000Y-102800000D02*
X106860000Y-102840000D01*
X106860000Y-102840000D02*
X106860000Y-108680000D01*
X113374990Y-100725010D02*
X115249999Y-100725010D01*
X110900000Y-102800000D02*
X111815002Y-102800000D01*
X113074999Y-101025001D02*
X113374990Y-100725010D01*
X110960300Y-108680000D02*
X111354999Y-108680000D01*
X106860000Y-108680000D02*
X110960300Y-108680000D01*
D56*
X113150000Y-106100000D02*
X111979999Y-107270001D01*
X111979999Y-107270001D02*
X111979999Y-107559999D01*
X111979999Y-107559999D02*
X111979999Y-108250000D01*
X114300000Y-100100000D02*
X118250000Y-100100000D01*
X114300000Y-100100000D02*
X113250000Y-100100000D01*
X110900000Y-102450000D02*
X110900000Y-102800000D01*
D53*
X147604213Y-100455787D02*
X147250660Y-100809340D01*
X147604213Y-100063204D02*
X147604213Y-100455787D01*
X147668462Y-99998955D02*
X147604213Y-100063204D01*
X148285177Y-98546194D02*
X147668462Y-99162909D01*
X147668462Y-99162909D02*
X147668462Y-99998955D01*
X147541472Y-103251472D02*
X147541472Y-101100152D01*
X147541472Y-101100152D02*
X147250660Y-100809340D01*
X149542827Y-104184625D02*
X148071819Y-105655633D01*
X149542827Y-103873953D02*
X149542827Y-104184625D01*
X148215505Y-100088323D02*
X148215505Y-102546631D01*
X148850862Y-99111880D02*
X148222139Y-99740603D01*
X148222139Y-99740603D02*
X148222139Y-100081689D01*
X148222139Y-100081689D02*
X148215505Y-100088323D01*
X148215505Y-102546631D02*
X149542827Y-103873953D01*
X148849340Y-106710660D02*
X148513465Y-106374785D01*
X148513465Y-106374785D02*
X148513465Y-106097279D01*
X148513465Y-106097279D02*
X148071819Y-105655633D01*
X148071819Y-105655633D02*
X147682893Y-105655633D01*
X147682893Y-105655633D02*
X147258630Y-105231370D01*
D66*
G36*
X123623000Y-104523000D02*
X119827000Y-104523000D01*
X119827000Y-98277000D01*
X123623000Y-98277000D01*
X123623000Y-104523000D01*
X123623000Y-104523000D01*
G37*
X123623000Y-104523000D02*
X119827000Y-104523000D01*
X119827000Y-98277000D01*
X123623000Y-98277000D01*
X123623000Y-104523000D01*
G36*
X128643000Y-69738486D02*
X128516485Y-69865001D01*
X127372440Y-69865001D01*
X127372440Y-69150000D01*
X127328162Y-68914683D01*
X127189090Y-68698559D01*
X127107000Y-68642469D01*
X127107000Y-68537724D01*
X127288908Y-68573908D01*
X127665851Y-68498929D01*
X127734912Y-68452784D01*
X128643000Y-68447711D01*
X128643000Y-69738486D01*
X128643000Y-69738486D01*
G37*
X128643000Y-69738486D02*
X128516485Y-69865001D01*
X127372440Y-69865001D01*
X127372440Y-69150000D01*
X127328162Y-68914683D01*
X127189090Y-68698559D01*
X127107000Y-68642469D01*
X127107000Y-68537724D01*
X127288908Y-68573908D01*
X127665851Y-68498929D01*
X127734912Y-68452784D01*
X128643000Y-68447711D01*
X128643000Y-69738486D01*
G36*
X106535270Y-58413320D02*
X108564730Y-58413320D01*
X108704609Y-58387000D01*
X118567975Y-58387000D01*
X118571180Y-58391981D01*
X118783380Y-58536971D01*
X119035270Y-58587980D01*
X121064730Y-58587980D01*
X121300047Y-58543702D01*
X121516171Y-58404630D01*
X121528217Y-58387000D01*
X130917975Y-58387000D01*
X130921180Y-58391981D01*
X131133380Y-58536971D01*
X131385270Y-58587980D01*
X133414730Y-58587980D01*
X133650047Y-58543702D01*
X133866171Y-58404630D01*
X133878217Y-58387000D01*
X142713000Y-58387000D01*
X142713000Y-59600340D01*
X142624660Y-59600340D01*
X142152046Y-59694349D01*
X141751383Y-59962063D01*
X141608996Y-60175161D01*
X141271323Y-60512833D01*
X141151343Y-60562408D01*
X141150227Y-60563522D01*
X140696734Y-60375215D01*
X140205421Y-60374786D01*
X139751343Y-60562408D01*
X139750227Y-60563522D01*
X139296734Y-60375215D01*
X138805421Y-60374786D01*
X138351343Y-60562408D01*
X138003629Y-60909515D01*
X137815215Y-61363266D01*
X137815067Y-61533000D01*
X134062170Y-61533000D01*
X134062170Y-59459460D01*
X134017892Y-59224143D01*
X133878820Y-59008019D01*
X133666620Y-58863029D01*
X133414730Y-58812020D01*
X131385270Y-58812020D01*
X131149953Y-58856298D01*
X130933829Y-58995370D01*
X130788839Y-59207570D01*
X130737830Y-59459460D01*
X130737830Y-59550340D01*
X130274660Y-59550340D01*
X129802046Y-59644349D01*
X129401383Y-59912063D01*
X129258996Y-60125161D01*
X128921323Y-60462833D01*
X128801343Y-60512408D01*
X128800227Y-60513522D01*
X128346734Y-60325215D01*
X127855421Y-60324786D01*
X127401343Y-60512408D01*
X127400227Y-60513522D01*
X126946734Y-60325215D01*
X126455421Y-60324786D01*
X126001343Y-60512408D01*
X125653629Y-60859515D01*
X125465215Y-61313266D01*
X125465023Y-61533000D01*
X121712170Y-61533000D01*
X121712170Y-59459460D01*
X121667892Y-59224143D01*
X121528820Y-59008019D01*
X121316620Y-58863029D01*
X121064730Y-58812020D01*
X119035270Y-58812020D01*
X118799953Y-58856298D01*
X118583829Y-58995370D01*
X118438839Y-59207570D01*
X118387830Y-59459460D01*
X118387830Y-59550340D01*
X117924660Y-59550340D01*
X117452046Y-59644349D01*
X117051383Y-59912063D01*
X116908996Y-60125161D01*
X116571323Y-60462833D01*
X116451343Y-60512408D01*
X116450227Y-60513522D01*
X115996734Y-60325215D01*
X115505421Y-60324786D01*
X115051343Y-60512408D01*
X115050227Y-60513522D01*
X114596734Y-60325215D01*
X114105421Y-60324786D01*
X113651343Y-60512408D01*
X113303629Y-60859515D01*
X113115215Y-61313266D01*
X113115023Y-61533000D01*
X109212170Y-61533000D01*
X109212170Y-59284800D01*
X109167892Y-59049483D01*
X109028820Y-58833359D01*
X108816620Y-58688369D01*
X108564730Y-58637360D01*
X106535270Y-58637360D01*
X106299953Y-58681638D01*
X106083829Y-58820710D01*
X105938839Y-59032910D01*
X105887830Y-59284800D01*
X105887830Y-59550340D01*
X105424660Y-59550340D01*
X104952046Y-59644349D01*
X104551383Y-59912063D01*
X104408996Y-60125161D01*
X104071323Y-60462833D01*
X103951343Y-60512408D01*
X103950227Y-60513522D01*
X103496734Y-60325215D01*
X103005421Y-60324786D01*
X102551343Y-60512408D01*
X102550227Y-60513522D01*
X102096734Y-60325215D01*
X101605421Y-60324786D01*
X101151343Y-60512408D01*
X100803629Y-60859515D01*
X100615215Y-61313266D01*
X100615023Y-61533000D01*
X98986255Y-61533000D01*
X98967749Y-58387000D01*
X106405298Y-58387000D01*
X106535270Y-58413320D01*
X106535270Y-58413320D01*
G37*
X106535270Y-58413320D02*
X108564730Y-58413320D01*
X108704609Y-58387000D01*
X118567975Y-58387000D01*
X118571180Y-58391981D01*
X118783380Y-58536971D01*
X119035270Y-58587980D01*
X121064730Y-58587980D01*
X121300047Y-58543702D01*
X121516171Y-58404630D01*
X121528217Y-58387000D01*
X130917975Y-58387000D01*
X130921180Y-58391981D01*
X131133380Y-58536971D01*
X131385270Y-58587980D01*
X133414730Y-58587980D01*
X133650047Y-58543702D01*
X133866171Y-58404630D01*
X133878217Y-58387000D01*
X142713000Y-58387000D01*
X142713000Y-59600340D01*
X142624660Y-59600340D01*
X142152046Y-59694349D01*
X141751383Y-59962063D01*
X141608996Y-60175161D01*
X141271323Y-60512833D01*
X141151343Y-60562408D01*
X141150227Y-60563522D01*
X140696734Y-60375215D01*
X140205421Y-60374786D01*
X139751343Y-60562408D01*
X139750227Y-60563522D01*
X139296734Y-60375215D01*
X138805421Y-60374786D01*
X138351343Y-60562408D01*
X138003629Y-60909515D01*
X137815215Y-61363266D01*
X137815067Y-61533000D01*
X134062170Y-61533000D01*
X134062170Y-59459460D01*
X134017892Y-59224143D01*
X133878820Y-59008019D01*
X133666620Y-58863029D01*
X133414730Y-58812020D01*
X131385270Y-58812020D01*
X131149953Y-58856298D01*
X130933829Y-58995370D01*
X130788839Y-59207570D01*
X130737830Y-59459460D01*
X130737830Y-59550340D01*
X130274660Y-59550340D01*
X129802046Y-59644349D01*
X129401383Y-59912063D01*
X129258996Y-60125161D01*
X128921323Y-60462833D01*
X128801343Y-60512408D01*
X128800227Y-60513522D01*
X128346734Y-60325215D01*
X127855421Y-60324786D01*
X127401343Y-60512408D01*
X127400227Y-60513522D01*
X126946734Y-60325215D01*
X126455421Y-60324786D01*
X126001343Y-60512408D01*
X125653629Y-60859515D01*
X125465215Y-61313266D01*
X125465023Y-61533000D01*
X121712170Y-61533000D01*
X121712170Y-59459460D01*
X121667892Y-59224143D01*
X121528820Y-59008019D01*
X121316620Y-58863029D01*
X121064730Y-58812020D01*
X119035270Y-58812020D01*
X118799953Y-58856298D01*
X118583829Y-58995370D01*
X118438839Y-59207570D01*
X118387830Y-59459460D01*
X118387830Y-59550340D01*
X117924660Y-59550340D01*
X117452046Y-59644349D01*
X117051383Y-59912063D01*
X116908996Y-60125161D01*
X116571323Y-60462833D01*
X116451343Y-60512408D01*
X116450227Y-60513522D01*
X115996734Y-60325215D01*
X115505421Y-60324786D01*
X115051343Y-60512408D01*
X115050227Y-60513522D01*
X114596734Y-60325215D01*
X114105421Y-60324786D01*
X113651343Y-60512408D01*
X113303629Y-60859515D01*
X113115215Y-61313266D01*
X113115023Y-61533000D01*
X109212170Y-61533000D01*
X109212170Y-59284800D01*
X109167892Y-59049483D01*
X109028820Y-58833359D01*
X108816620Y-58688369D01*
X108564730Y-58637360D01*
X106535270Y-58637360D01*
X106299953Y-58681638D01*
X106083829Y-58820710D01*
X105938839Y-59032910D01*
X105887830Y-59284800D01*
X105887830Y-59550340D01*
X105424660Y-59550340D01*
X104952046Y-59644349D01*
X104551383Y-59912063D01*
X104408996Y-60125161D01*
X104071323Y-60462833D01*
X103951343Y-60512408D01*
X103950227Y-60513522D01*
X103496734Y-60325215D01*
X103005421Y-60324786D01*
X102551343Y-60512408D01*
X102550227Y-60513522D01*
X102096734Y-60325215D01*
X101605421Y-60324786D01*
X101151343Y-60512408D01*
X100803629Y-60859515D01*
X100615215Y-61313266D01*
X100615023Y-61533000D01*
X98986255Y-61533000D01*
X98967749Y-58387000D01*
X106405298Y-58387000D01*
X106535270Y-58413320D01*
M02*
