M48
;DRILL file {KiCad 4.0.1-stable} date 07.06.2016 17:51:52
;FORMAT={2:4/ absolute / inch / suppress leading zeros}
FMAT,2
INCH,TZ
T1C0.016
T2C0.020
T3C0.032
T4C0.035
T5C0.039
T6C0.040
T7C0.043
T8C0.047
T9C0.091
%
G90
G05
M72
T1
X39291Y-25394
X39858Y-22638
X39961Y-19882
X40354Y-27323
X41791Y-24846
X43287Y-23169
X43307Y-19882
X44291Y-22309
X44882Y-30276
X45906Y-39764
X45984Y-38465
X46890Y-41949
X46909Y-43622
X46969Y-42618
X47224Y-23189
X48228Y-22309
X49094Y-31260
X49331Y-29941
X49764Y-34744
X50177Y-40059
X50256Y-38724
X50394Y-40423
X50571Y-32638
X50768Y-34803
X51181Y-23150
X52047Y-41181
X52067Y-22309
X52835Y-34980
X55098Y-23189
X55197Y-32756
X56004Y-22309
X56929Y-30748
X57484Y-26835
X57677Y-28543
X57677Y-34646
X57972Y-34449
X58169Y-24902
X58583Y-29823
X58760Y-35701
X58760Y-38299
X59252Y-26850
X59252Y-38386
X59350Y-35335
X59440Y-26222
X59980Y-35691
X60039Y-22309
X60138Y-31496
X60335Y-30512
X60443Y-27953
X60827Y-24902
X61122Y-28150
X61319Y-26575
X61614Y-34646
X61909Y-29232
X62008Y-27756
X62008Y-34154
X62034Y-28175
X62480Y-35197
X62500Y-26476
X62559Y-35551
X62697Y-39961
X62795Y-34843
X62894Y-38484
X63681Y-25984
X63878Y-28740
X63976Y-22309
X64567Y-25591
X64567Y-26870
X64567Y-37008
T2
X42382Y-24256
X42933Y-24256
X43484Y-24256
X44035Y-24256
X46319Y-24256
X46870Y-24256
X47421Y-24256
X47972Y-24256
X50256Y-24256
X50807Y-24256
X51358Y-24256
X51909Y-24256
X54193Y-24256
X54744Y-24256
X55295Y-24256
X55846Y-24256
X58130Y-24256
X58681Y-24256
X59232Y-24256
X59783Y-24256
X62067Y-24256
X62618Y-24256
X63169Y-24256
X63720Y-24256
T3
X42421Y-31594
X42421Y-32594
X43208Y-31594
X43208Y-32594
T5
X39429Y-26677
X39429Y-27677
X39449Y-38130
X39449Y-39130
X61953Y-32264
X62953Y-32264
X64232Y-32264
X65232Y-32264
T8
X54021Y-43189
X55020Y-43189
X56004Y-43189
X56988Y-43189
X57972Y-43189
X58957Y-43189
X59925Y-43189
X60925Y-43189
X61909Y-43189
X64764Y-40732
X64764Y-41717
X64764Y-42717
T9
X41358Y-29732
X41358Y-34456
T4
X42315Y-21417G85X42315Y-21496
G05
X44220Y-21417G85X44220Y-21496
G05
X44220Y-22929G85X44220Y-23008
G05
X46252Y-21417G85X46252Y-21496
G05
X48157Y-21417G85X48157Y-21496
G05
X48157Y-22929G85X48157Y-23008
G05
X50189Y-21417G85X50189Y-21496
G05
X52094Y-21417G85X52094Y-21496
G05
X52094Y-22929G85X52094Y-23008
G05
X54126Y-21417G85X54126Y-21496
G05
X56031Y-21417G85X56031Y-21496
G05
X56031Y-22929G85X56031Y-23008
G05
X58063Y-21417G85X58063Y-21496
G05
X59969Y-21417G85X59969Y-21496
G05
X59969Y-22929G85X59969Y-23008
G05
X62000Y-21417G85X62000Y-21496
G05
X63906Y-21417G85X63906Y-21496
G05
X63906Y-22929G85X63906Y-23008
G05
T6
X39671Y-42487G85X39671Y-43087
G05
X40271Y-40787G85X40871Y-40787
G05
X42071Y-42487G85X42071Y-43087
G05
T7
X42315Y-22890G85X42315Y-23047
G05
X46252Y-22890G85X46252Y-23047
G05
X50189Y-22890G85X50189Y-23047
G05
X54126Y-22890G85X54126Y-23047
G05
X58063Y-22890G85X58063Y-23047
G05
X62000Y-22890G85X62000Y-23047
G05
T0
M30
