G04 #@! TF.FileFunction,Soldermask,Bot*
%FSLAX46Y46*%
G04 Gerber Fmt 4.6, Leading zero omitted, Abs format (unit mm)*
G04 Created by KiCad (PCBNEW 4.0.5) date 02/02/17 00:28:59*
%MOMM*%
%LPD*%
G01*
G04 APERTURE LIST*
%ADD10C,0.100000*%
%ADD11O,2.500000X2.500000*%
%ADD12C,1.600000*%
%ADD13R,2.000200X3.999180*%
%ADD14R,2.100000X1.300000*%
%ADD15R,1.700000X1.100000*%
%ADD16R,1.100000X1.700000*%
%ADD17R,1.650000X1.400000*%
%ADD18R,1.400000X1.650000*%
%ADD19R,1.460000X1.050000*%
%ADD20R,1.050000X1.460000*%
%ADD21R,1.300000X2.100000*%
%ADD22C,1.924000*%
%ADD23C,3.100020*%
%ADD24R,2.300000X2.400000*%
%ADD25C,2.300000*%
%ADD26R,5.800040X3.300680*%
%ADD27R,3.900120X10.808920*%
%ADD28R,7.410400X1.499820*%
%ADD29R,2.400000X2.300000*%
%ADD30C,5.200600*%
%ADD31R,5.200600X5.200600*%
%ADD32R,3.448000X2.051000*%
%ADD33R,6.496000X6.496000*%
%ADD34R,1.620000X1.310000*%
%ADD35R,1.700000X1.900000*%
%ADD36R,1.000000X1.950000*%
%ADD37R,1.200100X1.200100*%
%ADD38R,1.150000X1.200000*%
%ADD39R,2.127200X2.127200*%
%ADD40O,2.127200X2.127200*%
%ADD41R,2.127200X2.432000*%
%ADD42O,2.127200X2.432000*%
%ADD43R,2.432000X2.127200*%
%ADD44O,2.432000X2.127200*%
%ADD45R,4.057600X2.432000*%
%ADD46R,1.416000X2.432000*%
%ADD47R,2.900000X1.300000*%
%ADD48C,1.900000*%
G04 APERTURE END LIST*
D10*
D11*
X100280000Y-58290000D03*
X100280000Y-54450000D03*
X105120000Y-54450000D03*
D12*
X104650000Y-61560000D03*
X103250000Y-61560000D03*
X101850000Y-61560000D03*
D11*
X105120000Y-58290000D03*
D12*
X100450000Y-61560000D03*
D11*
X112780000Y-58290000D03*
X112780000Y-54450000D03*
X117620000Y-54450000D03*
D12*
X117150000Y-61560000D03*
X115750000Y-61560000D03*
X114350000Y-61560000D03*
D11*
X117620000Y-58290000D03*
D12*
X112950000Y-61560000D03*
D13*
X132790000Y-106218360D03*
X132790000Y-111720000D03*
D14*
X172940000Y-78750000D03*
X172940000Y-75850000D03*
D15*
X149580000Y-82110000D03*
X149580000Y-80210000D03*
D16*
X148710000Y-55920000D03*
X150610000Y-55920000D03*
D14*
X157310000Y-59030000D03*
X157310000Y-56130000D03*
D17*
X165940000Y-77600000D03*
X165940000Y-79600000D03*
D18*
X168090000Y-80550000D03*
X170090000Y-80550000D03*
D19*
X167940000Y-78250000D03*
X167940000Y-77300000D03*
X167940000Y-76350000D03*
X170140000Y-76350000D03*
X170140000Y-78250000D03*
D16*
X169790000Y-74300000D03*
X167890000Y-74300000D03*
D15*
X163640000Y-77650000D03*
X163640000Y-79550000D03*
D16*
X151760000Y-82870000D03*
X153660000Y-82870000D03*
D17*
X150260000Y-57980000D03*
X150260000Y-59980000D03*
D19*
X152310000Y-58530000D03*
X152310000Y-57580000D03*
X152310000Y-56630000D03*
X154510000Y-56630000D03*
X154510000Y-58530000D03*
D18*
X151760000Y-80570000D03*
X153760000Y-80570000D03*
D20*
X152310000Y-78570000D03*
X151360000Y-78570000D03*
X150410000Y-78570000D03*
X150410000Y-76370000D03*
X152310000Y-76370000D03*
D15*
X147860000Y-58030000D03*
X147860000Y-59930000D03*
D16*
X142950000Y-82800000D03*
X144850000Y-82800000D03*
D17*
X145750000Y-78400000D03*
X145750000Y-76400000D03*
D15*
X140800000Y-82050000D03*
X140800000Y-80150000D03*
D21*
X144000000Y-73500000D03*
X141100000Y-73500000D03*
D20*
X143550000Y-78500000D03*
X142600000Y-78500000D03*
X141650000Y-78500000D03*
X141650000Y-76300000D03*
X143550000Y-76300000D03*
D18*
X142900000Y-80500000D03*
X144900000Y-80500000D03*
X152460000Y-60780000D03*
X154460000Y-60780000D03*
D21*
X152810000Y-73570000D03*
X149910000Y-73570000D03*
D15*
X163900000Y-88450000D03*
X163900000Y-86550000D03*
D22*
X109748980Y-82790000D03*
X109748980Y-80250000D03*
X107750000Y-80250000D03*
X107750000Y-82790000D03*
D23*
X105049980Y-87519480D03*
X105049980Y-75520520D03*
D24*
X159900000Y-81950000D03*
D25*
X157360000Y-81950000D03*
D26*
X122850000Y-110800000D03*
X122850000Y-100797480D03*
D24*
X163150000Y-81950000D03*
D25*
X165690000Y-81950000D03*
D27*
X145250000Y-99600000D03*
D28*
X134559140Y-102140000D03*
X134559140Y-97060000D03*
D29*
X100200000Y-99390000D03*
D25*
X100200000Y-96850000D03*
D30*
X100764000Y-108680000D03*
D31*
X106860000Y-108680000D03*
D30*
X103050000Y-103600000D03*
D29*
X100250000Y-70150000D03*
D25*
X100250000Y-67610000D03*
D17*
X154510000Y-78470000D03*
X154510000Y-76470000D03*
X142950000Y-88850000D03*
X142950000Y-86850000D03*
D15*
X145200000Y-88600000D03*
X145200000Y-86700000D03*
D32*
X106350000Y-96686000D03*
D33*
X112700000Y-94400000D03*
D32*
X106350000Y-92114000D03*
D34*
X97400000Y-72700000D03*
X97400000Y-69430000D03*
D15*
X140700000Y-88750000D03*
X140700000Y-86850000D03*
D18*
X157350000Y-96100000D03*
X155350000Y-96100000D03*
X157150000Y-90300000D03*
X155150000Y-90300000D03*
D35*
X97400000Y-67304000D03*
X97400000Y-64604000D03*
D15*
X157150000Y-92300000D03*
X157150000Y-94200000D03*
D36*
X127510000Y-76950000D03*
X128780000Y-76950000D03*
X130050000Y-76950000D03*
X131320000Y-76950000D03*
X131320000Y-82350000D03*
X130050000Y-82350000D03*
X128780000Y-82350000D03*
X127510000Y-82350000D03*
D37*
X155100000Y-92300000D03*
X155100000Y-94200000D03*
X153101020Y-93250000D03*
D38*
X124750000Y-72900000D03*
X124750000Y-74400000D03*
X123150000Y-72900000D03*
X123150000Y-74400000D03*
D18*
X129000000Y-90450000D03*
X131000000Y-90450000D03*
D15*
X161450000Y-88500000D03*
X161450000Y-86600000D03*
D16*
X119600000Y-92500000D03*
X121500000Y-92500000D03*
D37*
X152360000Y-70920000D03*
X150460000Y-70920000D03*
X151410000Y-68921020D03*
X143550000Y-70850760D03*
X141650000Y-70850760D03*
X142600000Y-68851780D03*
X159220000Y-54150000D03*
X157320000Y-54150000D03*
X158270000Y-52151020D03*
X175589240Y-78200000D03*
X175589240Y-76300000D03*
X177588220Y-77250000D03*
D39*
X174430000Y-69230000D03*
D40*
X174430000Y-66690000D03*
X176970000Y-69230000D03*
X176970000Y-66690000D03*
X179510000Y-69230000D03*
X179510000Y-66690000D03*
X182050000Y-69230000D03*
X182050000Y-66690000D03*
D39*
X162640000Y-69270000D03*
D40*
X162640000Y-66730000D03*
X165180000Y-69270000D03*
X165180000Y-66730000D03*
X167720000Y-69270000D03*
X167720000Y-66730000D03*
X170260000Y-69270000D03*
X170260000Y-66730000D03*
D15*
X180060000Y-105000000D03*
X180060000Y-103100000D03*
X180050000Y-99140000D03*
X180050000Y-101040000D03*
X177250000Y-103100000D03*
X177250000Y-105000000D03*
X174180000Y-91700000D03*
X174180000Y-89800000D03*
X174180000Y-98920000D03*
X174180000Y-97020000D03*
X174180000Y-93390000D03*
X174180000Y-95290000D03*
D20*
X126610000Y-94260000D03*
X125660000Y-94260000D03*
X124710000Y-94260000D03*
X124710000Y-92060000D03*
X126610000Y-92060000D03*
X125660000Y-92060000D03*
D39*
X181230000Y-81480000D03*
D40*
X178690000Y-81480000D03*
D41*
X138136000Y-109740000D03*
D42*
X140676000Y-109740000D03*
X143216000Y-109740000D03*
X145756000Y-109740000D03*
X148296000Y-109740000D03*
X150836000Y-109740000D03*
X153376000Y-109740000D03*
X155916000Y-109740000D03*
X158456000Y-109740000D03*
D43*
X164500000Y-108500000D03*
D44*
X164500000Y-105960000D03*
X164500000Y-103420000D03*
D17*
X175130000Y-103050000D03*
X175130000Y-105050000D03*
D45*
X180700000Y-85070000D03*
D46*
X180700000Y-91674000D03*
X178414000Y-91674000D03*
X182986000Y-91674000D03*
D17*
X179480000Y-94310000D03*
X179480000Y-96310000D03*
X181900000Y-94330000D03*
X181900000Y-96330000D03*
D11*
X173850000Y-58530000D03*
X173850000Y-54690000D03*
X178690000Y-54690000D03*
D12*
X178220000Y-61800000D03*
X176820000Y-61800000D03*
X175420000Y-61800000D03*
D11*
X178690000Y-58530000D03*
D12*
X174020000Y-61800000D03*
D11*
X161920000Y-58570000D03*
X161920000Y-54730000D03*
X166760000Y-54730000D03*
D12*
X166290000Y-61840000D03*
X164890000Y-61840000D03*
X163490000Y-61840000D03*
D11*
X166760000Y-58570000D03*
D12*
X162090000Y-61840000D03*
D11*
X137480000Y-58340000D03*
X137480000Y-54500000D03*
X142320000Y-54500000D03*
D12*
X141850000Y-61610000D03*
X140450000Y-61610000D03*
X139050000Y-61610000D03*
D11*
X142320000Y-58340000D03*
D12*
X137650000Y-61610000D03*
D11*
X125130000Y-58290000D03*
X125130000Y-54450000D03*
X129970000Y-54450000D03*
D12*
X129500000Y-61560000D03*
X128100000Y-61560000D03*
X126700000Y-61560000D03*
D11*
X129970000Y-58290000D03*
D12*
X125300000Y-61560000D03*
D47*
X107990000Y-102470000D03*
X107990000Y-99570000D03*
D48*
X169340000Y-97780000D03*
X169340000Y-97780000D03*
M02*
