G04 #@! TF.FileFunction,Other,User*
%FSLAX46Y46*%
G04 Gerber Fmt 4.6, Leading zero omitted, Abs format (unit mm)*
G04 Created by KiCad (PCBNEW 4.0.1-stable) date 07.06.2016 17:51:43*
%MOMM*%
G01*
G04 APERTURE LIST*
%ADD10C,0.100000*%
%ADD11C,0.050000*%
G04 APERTURE END LIST*
D10*
D11*
X154500000Y-97800000D02*
X154500000Y-94200000D01*
X152500000Y-97800000D02*
X152500000Y-94200000D01*
X154500000Y-97800000D02*
X152500000Y-97800000D01*
X154500000Y-94200000D02*
X152500000Y-94200000D01*
X161400000Y-80400000D02*
X161400000Y-83500000D01*
X161398249Y-80396840D02*
G75*
G03X161400000Y-83500000I-2798249J-1553160D01*
G01*
X161650000Y-83500000D02*
X161650000Y-80400000D01*
X161651751Y-83503160D02*
G75*
G03X161650000Y-80400000I2798249J1553160D01*
G01*
X147249060Y-105850000D02*
X147249060Y-93350000D01*
X147249060Y-93350000D02*
X130799060Y-93350000D01*
X130799060Y-93350000D02*
X130799060Y-105850000D01*
X130799060Y-105850000D02*
X147249060Y-105850000D01*
X101750000Y-100890000D02*
X98650000Y-100890000D01*
X101753160Y-100888249D02*
G75*
G03X98650000Y-100890000I-1553160J2798249D01*
G01*
X164050000Y-74950000D02*
X164050000Y-71350000D01*
X164050000Y-71350000D02*
X160850000Y-71350000D01*
X160850000Y-71350000D02*
X160850000Y-74950000D01*
X160850000Y-74950000D02*
X164050000Y-74950000D01*
X94498980Y-89150000D02*
X112048980Y-89150000D01*
X112048980Y-89150000D02*
X112048980Y-73900000D01*
X112048980Y-73900000D02*
X94498980Y-73900000D01*
X94498980Y-73900000D02*
X94498980Y-89150000D01*
X133400000Y-62710000D02*
X133400000Y-49030000D01*
X133400000Y-62710000D02*
X126400000Y-62710000D01*
X126400000Y-49030000D02*
X126400000Y-62710000D01*
X126400000Y-49030000D02*
X133400000Y-49030000D01*
X153400000Y-62710000D02*
X153400000Y-49030000D01*
X153400000Y-62710000D02*
X146400000Y-62710000D01*
X146400000Y-49030000D02*
X146400000Y-62710000D01*
X146400000Y-49030000D02*
X153400000Y-49030000D01*
X143400000Y-62710000D02*
X143400000Y-49030000D01*
X143400000Y-62710000D02*
X136400000Y-62710000D01*
X136400000Y-49030000D02*
X136400000Y-62710000D01*
X136400000Y-49030000D02*
X143400000Y-49030000D01*
X123400000Y-62710000D02*
X123400000Y-49030000D01*
X123400000Y-62710000D02*
X116400000Y-62710000D01*
X116400000Y-49030000D02*
X116400000Y-62710000D01*
X116400000Y-49030000D02*
X123400000Y-49030000D01*
X138850000Y-82850000D02*
X138850000Y-78250000D01*
X136850000Y-82850000D02*
X136850000Y-78250000D01*
X138850000Y-82850000D02*
X136850000Y-82850000D01*
X138850000Y-78250000D02*
X136850000Y-78250000D01*
X101700000Y-71800000D02*
X98600000Y-71800000D01*
X101703160Y-71798249D02*
G75*
G03X98600000Y-71800000I-1553160J2798249D01*
G01*
X151000000Y-74700000D02*
X151000000Y-78300000D01*
X153000000Y-74700000D02*
X153000000Y-78300000D01*
X151000000Y-74700000D02*
X153000000Y-74700000D01*
X151000000Y-78300000D02*
X153000000Y-78300000D01*
X151200000Y-101250000D02*
X154800000Y-101250000D01*
X151200000Y-99250000D02*
X154800000Y-99250000D01*
X151200000Y-101250000D02*
X151200000Y-99250000D01*
X154800000Y-101250000D02*
X154800000Y-99250000D01*
X143700000Y-85000000D02*
X147300000Y-85000000D01*
X143700000Y-83000000D02*
X147300000Y-83000000D01*
X143700000Y-85000000D02*
X143700000Y-83000000D01*
X147300000Y-85000000D02*
X147300000Y-83000000D01*
X151000000Y-66450000D02*
X151000000Y-70050000D01*
X153000000Y-66450000D02*
X153000000Y-70050000D01*
X151000000Y-66450000D02*
X153000000Y-66450000D01*
X151000000Y-70050000D02*
X153000000Y-70050000D01*
X158000000Y-75950000D02*
X158000000Y-79550000D01*
X160000000Y-75950000D02*
X160000000Y-79550000D01*
X158000000Y-75950000D02*
X160000000Y-75950000D01*
X158000000Y-79550000D02*
X160000000Y-79550000D01*
X143750000Y-73450000D02*
X143750000Y-77050000D01*
X145750000Y-73450000D02*
X145750000Y-77050000D01*
X143750000Y-73450000D02*
X145750000Y-73450000D01*
X143750000Y-77050000D02*
X145750000Y-77050000D01*
X158000000Y-67700000D02*
X158000000Y-71300000D01*
X160000000Y-67700000D02*
X160000000Y-71300000D01*
X158000000Y-67700000D02*
X160000000Y-67700000D01*
X158000000Y-71300000D02*
X160000000Y-71300000D01*
X143750000Y-65200000D02*
X143750000Y-68800000D01*
X145750000Y-65200000D02*
X145750000Y-68800000D01*
X143750000Y-65200000D02*
X145750000Y-65200000D01*
X143750000Y-68800000D02*
X145750000Y-68800000D01*
X144100000Y-87250000D02*
X147300000Y-87250000D01*
X144100000Y-85250000D02*
X147300000Y-85250000D01*
X144100000Y-87250000D02*
X144100000Y-85250000D01*
X147300000Y-87250000D02*
X147300000Y-85250000D01*
X151000000Y-70350000D02*
X151000000Y-73550000D01*
X153000000Y-70350000D02*
X153000000Y-73550000D01*
X151000000Y-70350000D02*
X153000000Y-70350000D01*
X151000000Y-73550000D02*
X153000000Y-73550000D01*
X156900000Y-67750000D02*
X153700000Y-67750000D01*
X156900000Y-69750000D02*
X153700000Y-69750000D01*
X156900000Y-67750000D02*
X156900000Y-69750000D01*
X153700000Y-67750000D02*
X153700000Y-69750000D01*
X158000000Y-71700000D02*
X158000000Y-74900000D01*
X160000000Y-71700000D02*
X160000000Y-74900000D01*
X158000000Y-71700000D02*
X160000000Y-71700000D01*
X158000000Y-74900000D02*
X160000000Y-74900000D01*
X164050000Y-69000000D02*
X160850000Y-69000000D01*
X164050000Y-71000000D02*
X160850000Y-71000000D01*
X164050000Y-69000000D02*
X164050000Y-71000000D01*
X160850000Y-69000000D02*
X160850000Y-71000000D01*
X143750000Y-69100000D02*
X143750000Y-72300000D01*
X145750000Y-69100000D02*
X145750000Y-72300000D01*
X143750000Y-69100000D02*
X145750000Y-69100000D01*
X143750000Y-72300000D02*
X145750000Y-72300000D01*
X149900000Y-66500000D02*
X146700000Y-66500000D01*
X149900000Y-68500000D02*
X146700000Y-68500000D01*
X149900000Y-66500000D02*
X149900000Y-68500000D01*
X146700000Y-66500000D02*
X146700000Y-68500000D01*
X156900000Y-73700000D02*
X156900000Y-70100000D01*
X156900000Y-70100000D02*
X153700000Y-70100000D01*
X153700000Y-70100000D02*
X153700000Y-73700000D01*
X153700000Y-73700000D02*
X156900000Y-73700000D01*
X149900000Y-72450000D02*
X149900000Y-68850000D01*
X149900000Y-68850000D02*
X146700000Y-68850000D01*
X146700000Y-68850000D02*
X146700000Y-72450000D01*
X146700000Y-72450000D02*
X149900000Y-72450000D01*
X167250000Y-111250000D02*
X167250000Y-100650000D01*
X167250000Y-100650000D02*
X160700000Y-100650000D01*
X160700000Y-100650000D02*
X160700000Y-111250000D01*
X160700000Y-111250000D02*
X167250000Y-111250000D01*
X149460000Y-112450000D02*
X160060000Y-112450000D01*
X160060000Y-112450000D02*
X160060000Y-105900000D01*
X160060000Y-105900000D02*
X149460000Y-105900000D01*
X149460000Y-105900000D02*
X149460000Y-112450000D01*
X163400000Y-62710000D02*
X163400000Y-49030000D01*
X163400000Y-62710000D02*
X156400000Y-62710000D01*
X156400000Y-49030000D02*
X156400000Y-62710000D01*
X156400000Y-49030000D02*
X163400000Y-49030000D01*
X113400000Y-62710000D02*
X113400000Y-49030000D01*
X113400000Y-62710000D02*
X106400000Y-62710000D01*
X106400000Y-49030000D02*
X106400000Y-62710000D01*
X106400000Y-49030000D02*
X113400000Y-49030000D01*
X143950000Y-82750000D02*
X147150000Y-82750000D01*
X143950000Y-80750000D02*
X147150000Y-80750000D01*
X143950000Y-82750000D02*
X143950000Y-80750000D01*
X147150000Y-82750000D02*
X147150000Y-80750000D01*
X153500000Y-74950000D02*
X153500000Y-78150000D01*
X155500000Y-74950000D02*
X155500000Y-78150000D01*
X153500000Y-74950000D02*
X155500000Y-74950000D01*
X153500000Y-78150000D02*
X155500000Y-78150000D01*
X160500000Y-76100000D02*
X160500000Y-79300000D01*
X162500000Y-76100000D02*
X162500000Y-79300000D01*
X160500000Y-76100000D02*
X162500000Y-76100000D01*
X160500000Y-79300000D02*
X162500000Y-79300000D01*
X146250000Y-73600000D02*
X146250000Y-76800000D01*
X148250000Y-73600000D02*
X148250000Y-76800000D01*
X146250000Y-73600000D02*
X148250000Y-73600000D01*
X146250000Y-76800000D02*
X148250000Y-76800000D01*
X134463500Y-112450000D02*
X152413500Y-112450000D01*
X152413500Y-112450000D02*
X152413500Y-105900000D01*
X152413500Y-105900000D02*
X134463500Y-105900000D01*
X134463500Y-105900000D02*
X134463500Y-112450000D01*
X139200000Y-78400000D02*
X139200000Y-83000000D01*
X141200000Y-78400000D02*
X141200000Y-83000000D01*
X139200000Y-78400000D02*
X141200000Y-78400000D01*
X139200000Y-83000000D02*
X141200000Y-83000000D01*
X125600000Y-84500000D02*
X125600000Y-79900000D01*
X123600000Y-84500000D02*
X123600000Y-79900000D01*
X125600000Y-84500000D02*
X123600000Y-84500000D01*
X125600000Y-79900000D02*
X123600000Y-79900000D01*
X127700000Y-91450000D02*
X132300000Y-91450000D01*
X127700000Y-89450000D02*
X132300000Y-89450000D01*
X127700000Y-91450000D02*
X127700000Y-89450000D01*
X132300000Y-91450000D02*
X132300000Y-89450000D01*
X162400000Y-89650000D02*
X162400000Y-84850000D01*
X160400000Y-89650000D02*
X160400000Y-84850000D01*
X162400000Y-89650000D02*
X160400000Y-89650000D01*
X162400000Y-84850000D02*
X160400000Y-84850000D01*
X164900000Y-89600000D02*
X164900000Y-84800000D01*
X162900000Y-89600000D02*
X162900000Y-84800000D01*
X164900000Y-89600000D02*
X162900000Y-89600000D01*
X164900000Y-84800000D02*
X162900000Y-84800000D01*
X121550000Y-89150000D02*
X121550000Y-93950000D01*
X123550000Y-89150000D02*
X123550000Y-93950000D01*
X121550000Y-89150000D02*
X123550000Y-89150000D01*
X121550000Y-93950000D02*
X123550000Y-93950000D01*
M02*
