G04 #@! TF.FileFunction,Paste,Top*
%FSLAX46Y46*%
G04 Gerber Fmt 4.6, Leading zero omitted, Abs format (unit mm)*
G04 Created by KiCad (PCBNEW 4.0.5) date 02/02/17 00:28:59*
%MOMM*%
%LPD*%
G01*
G04 APERTURE LIST*
%ADD10C,0.100000*%
%ADD11R,1.000000X0.675000*%
%ADD12R,4.295000X4.510000*%
%ADD13R,0.900000X1.700000*%
%ADD14R,1.700000X0.900000*%
%ADD15O,1.100000X2.400000*%
%ADD16R,2.400000X1.100000*%
%ADD17O,2.400000X1.100000*%
%ADD18R,1.250000X1.000000*%
%ADD19R,2.029460X2.651760*%
%ADD20R,1.000000X1.250000*%
%ADD21R,0.650000X1.060000*%
%ADD22R,1.300000X0.700000*%
%ADD23R,0.700000X1.300000*%
%ADD24R,0.400000X1.100000*%
%ADD25R,2.100580X5.600700*%
%ADD26R,1.200000X0.400000*%
%ADD27R,1.198880X1.198880*%
%ADD28R,2.651760X2.029460*%
%ADD29R,2.500000X2.500000*%
%ADD30R,0.750000X0.800000*%
%ADD31R,0.800100X0.800100*%
%ADD32R,0.797560X0.797560*%
%ADD33R,2.500000X0.900000*%
G04 APERTURE END LIST*
D10*
D11*
X117450000Y-112060000D03*
X117450000Y-110790000D03*
X117450000Y-109520000D03*
X117450000Y-108250000D03*
X112200000Y-108250000D03*
X112200000Y-109520000D03*
X112200000Y-110790000D03*
X112200000Y-112060000D03*
D12*
X114552500Y-110155000D03*
D13*
X146700000Y-68650000D03*
X149600000Y-68650000D03*
D14*
X185240000Y-82050000D03*
X185240000Y-78650000D03*
D15*
X182580000Y-89210000D03*
X180580000Y-89210000D03*
X178580000Y-89210000D03*
X176580000Y-89210000D03*
X174580000Y-89210000D03*
X172580000Y-89210000D03*
D16*
X185570000Y-104960000D03*
D17*
X185570000Y-102960000D03*
X185570000Y-100960000D03*
X185570000Y-98960000D03*
X185570000Y-96960000D03*
X185570000Y-94960000D03*
X185570000Y-92960000D03*
X185570000Y-90960000D03*
X169570000Y-90960000D03*
X169570000Y-92960000D03*
X169570000Y-94960000D03*
X169570000Y-96960000D03*
X169570000Y-98960000D03*
X169570000Y-100960000D03*
X169570000Y-102960000D03*
X169570000Y-104960000D03*
D10*
G36*
X145637868Y-98442893D02*
X146557107Y-99362132D01*
X146062132Y-99857107D01*
X145142893Y-98937868D01*
X145637868Y-98442893D01*
X145637868Y-98442893D01*
G37*
G36*
X144294366Y-99786395D02*
X145213605Y-100705634D01*
X144718630Y-101200609D01*
X143799391Y-100281370D01*
X144294366Y-99786395D01*
X144294366Y-99786395D01*
G37*
D18*
X164440000Y-54730000D03*
X164440000Y-56730000D03*
D19*
X169190000Y-61065340D03*
X169190000Y-56894660D03*
D10*
G36*
X144555188Y-95876866D02*
X144166280Y-95487958D01*
X145226940Y-94427298D01*
X145615848Y-94816206D01*
X144555188Y-95876866D01*
X144555188Y-95876866D01*
G37*
G36*
X145120874Y-96442551D02*
X144731966Y-96053643D01*
X145792626Y-94992983D01*
X146181534Y-95381891D01*
X145120874Y-96442551D01*
X145120874Y-96442551D01*
G37*
G36*
X145686559Y-97008236D02*
X145297651Y-96619328D01*
X146358311Y-95558668D01*
X146747219Y-95947576D01*
X145686559Y-97008236D01*
X145686559Y-97008236D01*
G37*
G36*
X146252244Y-97573922D02*
X145863336Y-97185014D01*
X146923996Y-96124354D01*
X147312904Y-96513262D01*
X146252244Y-97573922D01*
X146252244Y-97573922D01*
G37*
G36*
X146817930Y-98139607D02*
X146429022Y-97750699D01*
X147489682Y-96690039D01*
X147878590Y-97078947D01*
X146817930Y-98139607D01*
X146817930Y-98139607D01*
G37*
G36*
X147383615Y-98705293D02*
X146994707Y-98316385D01*
X148055367Y-97255725D01*
X148444275Y-97644633D01*
X147383615Y-98705293D01*
X147383615Y-98705293D01*
G37*
G36*
X147949301Y-99270978D02*
X147560393Y-98882070D01*
X148621053Y-97821410D01*
X149009961Y-98210318D01*
X147949301Y-99270978D01*
X147949301Y-99270978D01*
G37*
G36*
X148514986Y-99836664D02*
X148126078Y-99447756D01*
X149186738Y-98387096D01*
X149575646Y-98776004D01*
X148514986Y-99836664D01*
X148514986Y-99836664D01*
G37*
G36*
X149080672Y-100402349D02*
X148691764Y-100013441D01*
X149752424Y-98952781D01*
X150141332Y-99341689D01*
X149080672Y-100402349D01*
X149080672Y-100402349D01*
G37*
G36*
X149646357Y-100968034D02*
X149257449Y-100579126D01*
X150318109Y-99518466D01*
X150707017Y-99907374D01*
X149646357Y-100968034D01*
X149646357Y-100968034D01*
G37*
G36*
X150212042Y-101533720D02*
X149823134Y-101144812D01*
X150883794Y-100084152D01*
X151272702Y-100473060D01*
X150212042Y-101533720D01*
X150212042Y-101533720D01*
G37*
G36*
X153676866Y-101144812D02*
X153287958Y-101533720D01*
X152227298Y-100473060D01*
X152616206Y-100084152D01*
X153676866Y-101144812D01*
X153676866Y-101144812D01*
G37*
G36*
X154242551Y-100579126D02*
X153853643Y-100968034D01*
X152792983Y-99907374D01*
X153181891Y-99518466D01*
X154242551Y-100579126D01*
X154242551Y-100579126D01*
G37*
G36*
X154808236Y-100013441D02*
X154419328Y-100402349D01*
X153358668Y-99341689D01*
X153747576Y-98952781D01*
X154808236Y-100013441D01*
X154808236Y-100013441D01*
G37*
G36*
X155373922Y-99447756D02*
X154985014Y-99836664D01*
X153924354Y-98776004D01*
X154313262Y-98387096D01*
X155373922Y-99447756D01*
X155373922Y-99447756D01*
G37*
G36*
X155939607Y-98882070D02*
X155550699Y-99270978D01*
X154490039Y-98210318D01*
X154878947Y-97821410D01*
X155939607Y-98882070D01*
X155939607Y-98882070D01*
G37*
G36*
X156505293Y-98316385D02*
X156116385Y-98705293D01*
X155055725Y-97644633D01*
X155444633Y-97255725D01*
X156505293Y-98316385D01*
X156505293Y-98316385D01*
G37*
G36*
X157070978Y-97750699D02*
X156682070Y-98139607D01*
X155621410Y-97078947D01*
X156010318Y-96690039D01*
X157070978Y-97750699D01*
X157070978Y-97750699D01*
G37*
G36*
X157636664Y-97185014D02*
X157247756Y-97573922D01*
X156187096Y-96513262D01*
X156576004Y-96124354D01*
X157636664Y-97185014D01*
X157636664Y-97185014D01*
G37*
G36*
X158202349Y-96619328D02*
X157813441Y-97008236D01*
X156752781Y-95947576D01*
X157141689Y-95558668D01*
X158202349Y-96619328D01*
X158202349Y-96619328D01*
G37*
G36*
X158768034Y-96053643D02*
X158379126Y-96442551D01*
X157318466Y-95381891D01*
X157707374Y-94992983D01*
X158768034Y-96053643D01*
X158768034Y-96053643D01*
G37*
G36*
X159333720Y-95487958D02*
X158944812Y-95876866D01*
X157884152Y-94816206D01*
X158273060Y-94427298D01*
X159333720Y-95487958D01*
X159333720Y-95487958D01*
G37*
G36*
X158273060Y-93472702D02*
X157884152Y-93083794D01*
X158944812Y-92023134D01*
X159333720Y-92412042D01*
X158273060Y-93472702D01*
X158273060Y-93472702D01*
G37*
G36*
X157707374Y-92907017D02*
X157318466Y-92518109D01*
X158379126Y-91457449D01*
X158768034Y-91846357D01*
X157707374Y-92907017D01*
X157707374Y-92907017D01*
G37*
G36*
X157141689Y-92341332D02*
X156752781Y-91952424D01*
X157813441Y-90891764D01*
X158202349Y-91280672D01*
X157141689Y-92341332D01*
X157141689Y-92341332D01*
G37*
G36*
X156576004Y-91775646D02*
X156187096Y-91386738D01*
X157247756Y-90326078D01*
X157636664Y-90714986D01*
X156576004Y-91775646D01*
X156576004Y-91775646D01*
G37*
G36*
X156010318Y-91209961D02*
X155621410Y-90821053D01*
X156682070Y-89760393D01*
X157070978Y-90149301D01*
X156010318Y-91209961D01*
X156010318Y-91209961D01*
G37*
G36*
X155444633Y-90644275D02*
X155055725Y-90255367D01*
X156116385Y-89194707D01*
X156505293Y-89583615D01*
X155444633Y-90644275D01*
X155444633Y-90644275D01*
G37*
G36*
X154878947Y-90078590D02*
X154490039Y-89689682D01*
X155550699Y-88629022D01*
X155939607Y-89017930D01*
X154878947Y-90078590D01*
X154878947Y-90078590D01*
G37*
G36*
X154313262Y-89512904D02*
X153924354Y-89123996D01*
X154985014Y-88063336D01*
X155373922Y-88452244D01*
X154313262Y-89512904D01*
X154313262Y-89512904D01*
G37*
G36*
X153747576Y-88947219D02*
X153358668Y-88558311D01*
X154419328Y-87497651D01*
X154808236Y-87886559D01*
X153747576Y-88947219D01*
X153747576Y-88947219D01*
G37*
G36*
X153181891Y-88381534D02*
X152792983Y-87992626D01*
X153853643Y-86931966D01*
X154242551Y-87320874D01*
X153181891Y-88381534D01*
X153181891Y-88381534D01*
G37*
G36*
X152616206Y-87815848D02*
X152227298Y-87426940D01*
X153287958Y-86366280D01*
X153676866Y-86755188D01*
X152616206Y-87815848D01*
X152616206Y-87815848D01*
G37*
G36*
X151272702Y-87426940D02*
X150883794Y-87815848D01*
X149823134Y-86755188D01*
X150212042Y-86366280D01*
X151272702Y-87426940D01*
X151272702Y-87426940D01*
G37*
G36*
X150707017Y-87992626D02*
X150318109Y-88381534D01*
X149257449Y-87320874D01*
X149646357Y-86931966D01*
X150707017Y-87992626D01*
X150707017Y-87992626D01*
G37*
G36*
X150141332Y-88558311D02*
X149752424Y-88947219D01*
X148691764Y-87886559D01*
X149080672Y-87497651D01*
X150141332Y-88558311D01*
X150141332Y-88558311D01*
G37*
G36*
X149575646Y-89123996D02*
X149186738Y-89512904D01*
X148126078Y-88452244D01*
X148514986Y-88063336D01*
X149575646Y-89123996D01*
X149575646Y-89123996D01*
G37*
G36*
X149009961Y-89689682D02*
X148621053Y-90078590D01*
X147560393Y-89017930D01*
X147949301Y-88629022D01*
X149009961Y-89689682D01*
X149009961Y-89689682D01*
G37*
G36*
X148444275Y-90255367D02*
X148055367Y-90644275D01*
X146994707Y-89583615D01*
X147383615Y-89194707D01*
X148444275Y-90255367D01*
X148444275Y-90255367D01*
G37*
G36*
X147878590Y-90821053D02*
X147489682Y-91209961D01*
X146429022Y-90149301D01*
X146817930Y-89760393D01*
X147878590Y-90821053D01*
X147878590Y-90821053D01*
G37*
G36*
X147312904Y-91386738D02*
X146923996Y-91775646D01*
X145863336Y-90714986D01*
X146252244Y-90326078D01*
X147312904Y-91386738D01*
X147312904Y-91386738D01*
G37*
G36*
X146747219Y-91952424D02*
X146358311Y-92341332D01*
X145297651Y-91280672D01*
X145686559Y-90891764D01*
X146747219Y-91952424D01*
X146747219Y-91952424D01*
G37*
G36*
X146181534Y-92518109D02*
X145792626Y-92907017D01*
X144731966Y-91846357D01*
X145120874Y-91457449D01*
X146181534Y-92518109D01*
X146181534Y-92518109D01*
G37*
G36*
X145615848Y-93083794D02*
X145226940Y-93472702D01*
X144166280Y-92412042D01*
X144555188Y-92023134D01*
X145615848Y-93083794D01*
X145615848Y-93083794D01*
G37*
D20*
X147700000Y-75650000D03*
X145700000Y-75650000D03*
D21*
X147200000Y-73650000D03*
X148150000Y-73650000D03*
X149100000Y-73650000D03*
X149100000Y-71450000D03*
X147200000Y-71450000D03*
X156620000Y-73790000D03*
X157570000Y-73790000D03*
X158520000Y-73790000D03*
X158520000Y-71590000D03*
X156620000Y-71590000D03*
D22*
X160570000Y-71940000D03*
X160570000Y-73840000D03*
D18*
X154320000Y-73690000D03*
X154320000Y-71690000D03*
D13*
X156170000Y-68790000D03*
X159070000Y-68790000D03*
D23*
X147650000Y-77950000D03*
X145750000Y-77950000D03*
D24*
X127175000Y-69700000D03*
X126525000Y-69700000D03*
X125875000Y-69700000D03*
X125225000Y-69700000D03*
X124575000Y-69700000D03*
X123925000Y-69700000D03*
X123275000Y-69700000D03*
X122625000Y-69700000D03*
X121975000Y-69700000D03*
X121325000Y-69700000D03*
X120675000Y-69700000D03*
X120025000Y-69700000D03*
X119375000Y-69700000D03*
X118725000Y-69700000D03*
X118725000Y-75400000D03*
X119375000Y-75400000D03*
X120025000Y-75400000D03*
X120675000Y-75400000D03*
X121325000Y-75400000D03*
X121975000Y-75400000D03*
X122625000Y-75400000D03*
X123275000Y-75400000D03*
X123925000Y-75400000D03*
X124575000Y-75400000D03*
X125225000Y-75400000D03*
X125875000Y-75400000D03*
X126525000Y-75400000D03*
X127175000Y-75400000D03*
D25*
X136680000Y-70391140D03*
X136680000Y-80088860D03*
D26*
X118250000Y-99450000D03*
X118250000Y-100100000D03*
X118250000Y-100750000D03*
X118250000Y-101400000D03*
X118250000Y-102050000D03*
X118250000Y-102700000D03*
X118250000Y-103350000D03*
X125150000Y-103350000D03*
X125150000Y-102700000D03*
X125150000Y-102050000D03*
X125150000Y-101400000D03*
X125150000Y-100750000D03*
X125150000Y-100100000D03*
X125150000Y-99450000D03*
D27*
X97500000Y-53600000D03*
X97500000Y-55698040D03*
D11*
X129800000Y-95820000D03*
X129800000Y-97090000D03*
X129800000Y-98360000D03*
X129800000Y-99630000D03*
X135050000Y-99630000D03*
X135050000Y-98360000D03*
X135050000Y-97090000D03*
X135050000Y-95820000D03*
D12*
X132697500Y-97725000D03*
D23*
X129800000Y-104150000D03*
X127900000Y-104150000D03*
X115050000Y-106350000D03*
X113150000Y-106350000D03*
D20*
X122600000Y-112400000D03*
X120600000Y-112400000D03*
D18*
X110850000Y-98750000D03*
X110850000Y-100750000D03*
D20*
X131950000Y-101600000D03*
X129950000Y-101600000D03*
D18*
X114750000Y-104350000D03*
X114750000Y-102350000D03*
X110900000Y-102800000D03*
X110900000Y-104800000D03*
D20*
X162000000Y-92250000D03*
X164000000Y-92250000D03*
D19*
X107550000Y-60610680D03*
X107550000Y-56440000D03*
X120050000Y-60785340D03*
X120050000Y-56614660D03*
X144750000Y-60835340D03*
X144750000Y-56664660D03*
X132400000Y-60785340D03*
X132400000Y-56614660D03*
D28*
X104329320Y-71850000D03*
X108500000Y-71850000D03*
D19*
X181120000Y-61025340D03*
X181120000Y-56854660D03*
D18*
X159500000Y-87250000D03*
X159500000Y-85250000D03*
D20*
X157170000Y-75790000D03*
X155170000Y-75790000D03*
D18*
X145000000Y-73550000D03*
X145000000Y-71550000D03*
D22*
X149710000Y-77190000D03*
X149710000Y-75290000D03*
D29*
X163200000Y-89400000D03*
X163200000Y-85900000D03*
D23*
X157070000Y-78090000D03*
X155170000Y-78090000D03*
D22*
X141450000Y-91750000D03*
X141450000Y-89850000D03*
X140920000Y-85870000D03*
X140920000Y-87770000D03*
D30*
X121500000Y-83500000D03*
X121500000Y-82000000D03*
D27*
X103668040Y-49740000D03*
X101570000Y-49740000D03*
X116258040Y-49770000D03*
X114160000Y-49770000D03*
X128670000Y-49750000D03*
X126571960Y-49750000D03*
X141148040Y-49750000D03*
X139050000Y-49750000D03*
D18*
X122070000Y-79610000D03*
X122070000Y-77610000D03*
X102800000Y-54450000D03*
X102800000Y-56450000D03*
X115300000Y-54450000D03*
X115300000Y-56450000D03*
X140000000Y-54500000D03*
X140000000Y-56500000D03*
X127650000Y-54450000D03*
X127650000Y-56450000D03*
X176260000Y-54690000D03*
X176260000Y-56690000D03*
D20*
X131190000Y-67990000D03*
X133190000Y-67990000D03*
X131180000Y-70830000D03*
X133180000Y-70830000D03*
D18*
X129200000Y-75750000D03*
X129200000Y-73750000D03*
D22*
X97400000Y-64604000D03*
X97400000Y-66504000D03*
D23*
X130550000Y-79500000D03*
X128650000Y-79500000D03*
D22*
X129800000Y-85100000D03*
X129800000Y-83200000D03*
X97500000Y-57500000D03*
X97500000Y-59400000D03*
X131400000Y-73700000D03*
X131400000Y-75600000D03*
X125550000Y-83750000D03*
X125550000Y-81850000D03*
D23*
X114200000Y-75400000D03*
X116100000Y-75400000D03*
X116800000Y-70010000D03*
X114900000Y-70010000D03*
X120650000Y-109400000D03*
X122550000Y-109400000D03*
X122550000Y-106550000D03*
X120650000Y-106550000D03*
X105100000Y-96850000D03*
X103200000Y-96850000D03*
D22*
X123400000Y-81850000D03*
X123400000Y-83750000D03*
D23*
X114150000Y-73000000D03*
X116050000Y-73000000D03*
D31*
X156670000Y-66140760D03*
X158570000Y-66140760D03*
X157620000Y-64141780D03*
X147190000Y-62808980D03*
X149090000Y-62808980D03*
X148140000Y-60810000D03*
D22*
X144840000Y-88600000D03*
X144840000Y-86700000D03*
D32*
X142880000Y-87370000D03*
X142880000Y-85871400D03*
D18*
X185140000Y-87570000D03*
X185140000Y-85570000D03*
D33*
X107990000Y-102480000D03*
X107990000Y-99580000D03*
D10*
G36*
X147268338Y-100261332D02*
X147798668Y-100791662D01*
X147232982Y-101357348D01*
X146702652Y-100827018D01*
X147268338Y-100261332D01*
X147268338Y-100261332D01*
G37*
G36*
X146207678Y-101321992D02*
X146738008Y-101852322D01*
X146172322Y-102418008D01*
X145641992Y-101887678D01*
X146207678Y-101321992D01*
X146207678Y-101321992D01*
G37*
G36*
X148831662Y-107258668D02*
X148301332Y-106728338D01*
X148867018Y-106162652D01*
X149397348Y-106692982D01*
X148831662Y-107258668D01*
X148831662Y-107258668D01*
G37*
G36*
X149892322Y-106198008D02*
X149361992Y-105667678D01*
X149927678Y-105101992D01*
X150458008Y-105632322D01*
X149892322Y-106198008D01*
X149892322Y-106198008D01*
G37*
M02*
