G04 #@! TF.FileFunction,Legend,Top*
%FSLAX46Y46*%
G04 Gerber Fmt 4.6, Leading zero omitted, Abs format (unit mm)*
G04 Created by KiCad (PCBNEW 4.0.5) date 02/02/17 00:28:59*
%MOMM*%
%LPD*%
G01*
G04 APERTURE LIST*
%ADD10C,0.100000*%
%ADD11C,0.300000*%
%ADD12C,0.127000*%
%ADD13C,0.150000*%
%ADD14C,0.120000*%
%ADD15C,0.076200*%
G04 APERTURE END LIST*
D10*
D11*
X134311430Y-113368571D02*
X134025716Y-113368571D01*
X133882859Y-113440000D01*
X133811430Y-113511429D01*
X133668573Y-113725714D01*
X133597144Y-114011429D01*
X133597144Y-114582857D01*
X133668573Y-114725714D01*
X133740001Y-114797143D01*
X133882859Y-114868571D01*
X134168573Y-114868571D01*
X134311430Y-114797143D01*
X134382859Y-114725714D01*
X134454287Y-114582857D01*
X134454287Y-114225714D01*
X134382859Y-114082857D01*
X134311430Y-114011429D01*
X134168573Y-113940000D01*
X133882859Y-113940000D01*
X133740001Y-114011429D01*
X133668573Y-114082857D01*
X133597144Y-114225714D01*
X136240001Y-113868571D02*
X136240001Y-115368571D01*
X136240001Y-113940000D02*
X136382858Y-113868571D01*
X136668572Y-113868571D01*
X136811429Y-113940000D01*
X136882858Y-114011429D01*
X136954287Y-114154286D01*
X136954287Y-114582857D01*
X136882858Y-114725714D01*
X136811429Y-114797143D01*
X136668572Y-114868571D01*
X136382858Y-114868571D01*
X136240001Y-114797143D01*
X137811430Y-114868571D02*
X137668572Y-114797143D01*
X137597144Y-114725714D01*
X137525715Y-114582857D01*
X137525715Y-114154286D01*
X137597144Y-114011429D01*
X137668572Y-113940000D01*
X137811430Y-113868571D01*
X138025715Y-113868571D01*
X138168572Y-113940000D01*
X138240001Y-114011429D01*
X138311430Y-114154286D01*
X138311430Y-114582857D01*
X138240001Y-114725714D01*
X138168572Y-114797143D01*
X138025715Y-114868571D01*
X137811430Y-114868571D01*
X138954287Y-114868571D02*
X138954287Y-113868571D01*
X138954287Y-114154286D02*
X139025715Y-114011429D01*
X139097144Y-113940000D01*
X139240001Y-113868571D01*
X139382858Y-113868571D01*
X139668572Y-113868571D02*
X140240001Y-113868571D01*
X139882858Y-113368571D02*
X139882858Y-114654286D01*
X139954286Y-114797143D01*
X140097144Y-114868571D01*
X140240001Y-114868571D01*
X141882858Y-113368571D02*
X141882858Y-114582857D01*
X141954286Y-114725714D01*
X142025715Y-114797143D01*
X142168572Y-114868571D01*
X142454286Y-114868571D01*
X142597144Y-114797143D01*
X142668572Y-114725714D01*
X142740001Y-114582857D01*
X142740001Y-113368571D01*
X143382858Y-114797143D02*
X143597144Y-114868571D01*
X143954287Y-114868571D01*
X144097144Y-114797143D01*
X144168573Y-114725714D01*
X144240001Y-114582857D01*
X144240001Y-114440000D01*
X144168573Y-114297143D01*
X144097144Y-114225714D01*
X143954287Y-114154286D01*
X143668573Y-114082857D01*
X143525715Y-114011429D01*
X143454287Y-113940000D01*
X143382858Y-113797143D01*
X143382858Y-113654286D01*
X143454287Y-113511429D01*
X143525715Y-113440000D01*
X143668573Y-113368571D01*
X144025715Y-113368571D01*
X144240001Y-113440000D01*
X145382858Y-114082857D02*
X145597144Y-114154286D01*
X145668572Y-114225714D01*
X145740001Y-114368571D01*
X145740001Y-114582857D01*
X145668572Y-114725714D01*
X145597144Y-114797143D01*
X145454286Y-114868571D01*
X144882858Y-114868571D01*
X144882858Y-113368571D01*
X145382858Y-113368571D01*
X145525715Y-113440000D01*
X145597144Y-113511429D01*
X145668572Y-113654286D01*
X145668572Y-113797143D01*
X145597144Y-113940000D01*
X145525715Y-114011429D01*
X145382858Y-114082857D01*
X144882858Y-114082857D01*
X147525715Y-114868571D02*
X147525715Y-113368571D01*
X148097143Y-113368571D01*
X148240001Y-113440000D01*
X148311429Y-113511429D01*
X148382858Y-113654286D01*
X148382858Y-113868571D01*
X148311429Y-114011429D01*
X148240001Y-114082857D01*
X148097143Y-114154286D01*
X147525715Y-114154286D01*
X149240001Y-114868571D02*
X149097143Y-114797143D01*
X149025715Y-114725714D01*
X148954286Y-114582857D01*
X148954286Y-114154286D01*
X149025715Y-114011429D01*
X149097143Y-113940000D01*
X149240001Y-113868571D01*
X149454286Y-113868571D01*
X149597143Y-113940000D01*
X149668572Y-114011429D01*
X149740001Y-114154286D01*
X149740001Y-114582857D01*
X149668572Y-114725714D01*
X149597143Y-114797143D01*
X149454286Y-114868571D01*
X149240001Y-114868571D01*
X150240001Y-113868571D02*
X150525715Y-114868571D01*
X150811429Y-114154286D01*
X151097144Y-114868571D01*
X151382858Y-113868571D01*
X152525715Y-114797143D02*
X152382858Y-114868571D01*
X152097144Y-114868571D01*
X151954287Y-114797143D01*
X151882858Y-114654286D01*
X151882858Y-114082857D01*
X151954287Y-113940000D01*
X152097144Y-113868571D01*
X152382858Y-113868571D01*
X152525715Y-113940000D01*
X152597144Y-114082857D01*
X152597144Y-114225714D01*
X151882858Y-114368571D01*
X153240001Y-114868571D02*
X153240001Y-113868571D01*
X153240001Y-114154286D02*
X153311429Y-114011429D01*
X153382858Y-113940000D01*
X153525715Y-113868571D01*
X153668572Y-113868571D01*
X155311429Y-114868571D02*
X155311429Y-113868571D01*
X155311429Y-114011429D02*
X155382857Y-113940000D01*
X155525715Y-113868571D01*
X155740000Y-113868571D01*
X155882857Y-113940000D01*
X155954286Y-114082857D01*
X155954286Y-114868571D01*
X155954286Y-114082857D02*
X156025715Y-113940000D01*
X156168572Y-113868571D01*
X156382857Y-113868571D01*
X156525715Y-113940000D01*
X156597143Y-114082857D01*
X156597143Y-114868571D01*
X157882857Y-114797143D02*
X157740000Y-114868571D01*
X157454286Y-114868571D01*
X157311429Y-114797143D01*
X157240000Y-114654286D01*
X157240000Y-114082857D01*
X157311429Y-113940000D01*
X157454286Y-113868571D01*
X157740000Y-113868571D01*
X157882857Y-113940000D01*
X157954286Y-114082857D01*
X157954286Y-114225714D01*
X157240000Y-114368571D01*
X158382857Y-113868571D02*
X158954286Y-113868571D01*
X158597143Y-113368571D02*
X158597143Y-114654286D01*
X158668571Y-114797143D01*
X158811429Y-114868571D01*
X158954286Y-114868571D01*
X160025714Y-114797143D02*
X159882857Y-114868571D01*
X159597143Y-114868571D01*
X159454286Y-114797143D01*
X159382857Y-114654286D01*
X159382857Y-114082857D01*
X159454286Y-113940000D01*
X159597143Y-113868571D01*
X159882857Y-113868571D01*
X160025714Y-113940000D01*
X160097143Y-114082857D01*
X160097143Y-114225714D01*
X159382857Y-114368571D01*
X160740000Y-114868571D02*
X160740000Y-113868571D01*
X160740000Y-114154286D02*
X160811428Y-114011429D01*
X160882857Y-113940000D01*
X161025714Y-113868571D01*
X161168571Y-113868571D01*
X162668571Y-113868571D02*
X163025714Y-114868571D01*
X163382856Y-113868571D01*
X163882856Y-113511429D02*
X163954285Y-113440000D01*
X164097142Y-113368571D01*
X164454285Y-113368571D01*
X164597142Y-113440000D01*
X164668571Y-113511429D01*
X164739999Y-113654286D01*
X164739999Y-113797143D01*
X164668571Y-114011429D01*
X163811428Y-114868571D01*
X164739999Y-114868571D01*
X165382856Y-114725714D02*
X165454284Y-114797143D01*
X165382856Y-114868571D01*
X165311427Y-114797143D01*
X165382856Y-114725714D01*
X165382856Y-114868571D01*
X166025713Y-113511429D02*
X166097142Y-113440000D01*
X166239999Y-113368571D01*
X166597142Y-113368571D01*
X166739999Y-113440000D01*
X166811428Y-113511429D01*
X166882856Y-113654286D01*
X166882856Y-113797143D01*
X166811428Y-114011429D01*
X165954285Y-114868571D01*
X166882856Y-114868571D01*
D12*
X116875000Y-112405000D02*
X116875000Y-112605000D01*
X116800000Y-112605000D02*
X116800000Y-112405000D01*
X116800000Y-112405000D02*
X116975000Y-112405000D01*
X116975000Y-112405000D02*
X116975000Y-112605000D01*
X111895000Y-108050000D02*
X111895000Y-108450000D01*
X111895000Y-109320000D02*
X111895000Y-109720000D01*
X111895000Y-110990000D02*
X111895000Y-110590000D01*
X111895000Y-112260000D02*
X111895000Y-111860000D01*
X117755000Y-108050000D02*
X117755000Y-108450000D01*
X117755000Y-109320000D02*
X117755000Y-109720000D01*
X117755000Y-110990000D02*
X117755000Y-110590000D01*
X117755000Y-112260000D02*
X117755000Y-111860000D01*
X111950000Y-107705000D02*
X117700000Y-107705000D01*
X117700000Y-107705000D02*
X117700000Y-112605000D01*
X117700000Y-112605000D02*
X111950000Y-112605000D01*
X111950000Y-112605000D02*
X111950000Y-107705000D01*
D13*
X149150000Y-69725000D02*
X147150000Y-69725000D01*
X147150000Y-67575000D02*
X149150000Y-67575000D01*
X185990000Y-80350000D02*
G75*
G03X185990000Y-80350000I-750000J0D01*
G01*
X186340000Y-82000000D02*
X186640000Y-82000000D01*
X186640000Y-82000000D02*
X186640000Y-78700000D01*
X186640000Y-78700000D02*
X186340000Y-78700000D01*
X184140000Y-82000000D02*
X183840000Y-82000000D01*
X183840000Y-82000000D02*
X183840000Y-78700000D01*
X183840000Y-78700000D02*
X184140000Y-78700000D01*
X144135266Y-99627297D02*
X144983795Y-98778768D01*
X146221232Y-100016205D02*
X145372703Y-100864734D01*
X165290000Y-56230000D02*
X165290000Y-55230000D01*
X163590000Y-55230000D02*
X163590000Y-56230000D01*
X144431445Y-93950000D02*
X144908742Y-94427297D01*
X151750000Y-86631445D02*
X152227297Y-87108742D01*
X159068555Y-93950000D02*
X158591258Y-93472703D01*
X151750000Y-101268555D02*
X151272703Y-100791258D01*
X144431445Y-93950000D02*
X144908742Y-93472703D01*
X151750000Y-101268555D02*
X152227297Y-100791258D01*
X159068555Y-93950000D02*
X158591258Y-94427297D01*
X151750000Y-86631445D02*
X151272703Y-87108742D01*
X144908742Y-94427297D02*
X144007181Y-95328858D01*
X146200000Y-76500000D02*
X147200000Y-76500000D01*
X147200000Y-74800000D02*
X146200000Y-74800000D01*
X146550000Y-72850000D02*
G75*
G03X146550000Y-72850000I-100000J0D01*
G01*
X146700000Y-72300000D02*
X146700000Y-72800000D01*
X149600000Y-72300000D02*
X146700000Y-72300000D01*
X149600000Y-72800000D02*
X149600000Y-72300000D01*
X146700000Y-72800000D02*
X149600000Y-72800000D01*
X155970000Y-72990000D02*
G75*
G03X155970000Y-72990000I-100000J0D01*
G01*
X156120000Y-72440000D02*
X156120000Y-72940000D01*
X159020000Y-72440000D02*
X156120000Y-72440000D01*
X159020000Y-72940000D02*
X159020000Y-72440000D01*
X156120000Y-72940000D02*
X159020000Y-72940000D01*
X159695000Y-73490000D02*
X159695000Y-72290000D01*
X161445000Y-72290000D02*
X161445000Y-73490000D01*
X153470000Y-72190000D02*
X153470000Y-73190000D01*
X155170000Y-73190000D02*
X155170000Y-72190000D01*
X158620000Y-69865000D02*
X156620000Y-69865000D01*
X156620000Y-67715000D02*
X158620000Y-67715000D01*
X146100000Y-77075000D02*
X147300000Y-77075000D01*
X147300000Y-78825000D02*
X146100000Y-78825000D01*
X127925000Y-70225000D02*
X127600000Y-70225000D01*
X127925000Y-74875000D02*
X127600000Y-74875000D01*
X117975000Y-74875000D02*
X118300000Y-74875000D01*
X117975000Y-70225000D02*
X118300000Y-70225000D01*
X127925000Y-70225000D02*
X127925000Y-74875000D01*
X117975000Y-70225000D02*
X117975000Y-74875000D01*
X127600000Y-70225000D02*
X127600000Y-69150000D01*
X134180640Y-69390380D02*
X134180640Y-81089620D01*
X139179360Y-81089620D02*
X139179360Y-69390380D01*
X134180640Y-81089620D02*
X135029000Y-81089620D01*
X139179360Y-81089620D02*
X138331000Y-81089620D01*
X134180640Y-69390380D02*
X135029000Y-69390380D01*
X139179360Y-69390380D02*
X138331000Y-69390380D01*
X118925000Y-98125000D02*
X118925000Y-99025000D01*
X124475000Y-98125000D02*
X124475000Y-99025000D01*
X124475000Y-104675000D02*
X124475000Y-103775000D01*
X118925000Y-104675000D02*
X118925000Y-103775000D01*
X118925000Y-98125000D02*
X124475000Y-98125000D01*
X118925000Y-104675000D02*
X124475000Y-104675000D01*
X118925000Y-99025000D02*
X117650000Y-99025000D01*
X98250000Y-56249020D02*
X98250000Y-53549020D01*
X96750000Y-56249020D02*
X96750000Y-53549020D01*
X97650000Y-54749020D02*
X97400000Y-54749020D01*
X97400000Y-54749020D02*
X97550000Y-54899020D01*
X97150000Y-54999020D02*
X97850000Y-54999020D01*
X97500000Y-54649020D02*
X97500000Y-54299020D01*
X97500000Y-54999020D02*
X97150000Y-54649020D01*
X97150000Y-54649020D02*
X97850000Y-54649020D01*
X97850000Y-54649020D02*
X97500000Y-54999020D01*
D12*
X130375000Y-95475000D02*
X130375000Y-95275000D01*
X130450000Y-95275000D02*
X130450000Y-95475000D01*
X130450000Y-95475000D02*
X130275000Y-95475000D01*
X130275000Y-95475000D02*
X130275000Y-95275000D01*
X135355000Y-99830000D02*
X135355000Y-99430000D01*
X135355000Y-98560000D02*
X135355000Y-98160000D01*
X135355000Y-96890000D02*
X135355000Y-97290000D01*
X135355000Y-95620000D02*
X135355000Y-96020000D01*
X129495000Y-99830000D02*
X129495000Y-99430000D01*
X129495000Y-98560000D02*
X129495000Y-98160000D01*
X129495000Y-96890000D02*
X129495000Y-97290000D01*
X129495000Y-95620000D02*
X129495000Y-96020000D01*
X135300000Y-100175000D02*
X129550000Y-100175000D01*
X129550000Y-100175000D02*
X129550000Y-95275000D01*
X129550000Y-95275000D02*
X135300000Y-95275000D01*
X135300000Y-95275000D02*
X135300000Y-100175000D01*
D13*
X128250000Y-103275000D02*
X129450000Y-103275000D01*
X129450000Y-105025000D02*
X128250000Y-105025000D01*
X113500000Y-105475000D02*
X114700000Y-105475000D01*
X114700000Y-107225000D02*
X113500000Y-107225000D01*
X121100000Y-113250000D02*
X122100000Y-113250000D01*
X122100000Y-111550000D02*
X121100000Y-111550000D01*
X111700000Y-100250000D02*
X111700000Y-99250000D01*
X110000000Y-99250000D02*
X110000000Y-100250000D01*
X130450000Y-102450000D02*
X131450000Y-102450000D01*
X131450000Y-100750000D02*
X130450000Y-100750000D01*
X113900000Y-102850000D02*
X113900000Y-103850000D01*
X115600000Y-103850000D02*
X115600000Y-102850000D01*
X111750000Y-104300000D02*
X111750000Y-103300000D01*
X110050000Y-103300000D02*
X110050000Y-104300000D01*
X163500000Y-91400000D02*
X162500000Y-91400000D01*
X162500000Y-93100000D02*
X163500000Y-93100000D01*
X158650000Y-85750000D02*
X158650000Y-86750000D01*
X160350000Y-86750000D02*
X160350000Y-85750000D01*
X155670000Y-76640000D02*
X156670000Y-76640000D01*
X156670000Y-74940000D02*
X155670000Y-74940000D01*
X144150000Y-72050000D02*
X144150000Y-73050000D01*
X145850000Y-73050000D02*
X145850000Y-72050000D01*
X150585000Y-75640000D02*
X150585000Y-76840000D01*
X148835000Y-76840000D02*
X148835000Y-75640000D01*
X164800000Y-91000000D02*
X164150000Y-91000000D01*
X164800000Y-90250000D02*
X164800000Y-91000000D01*
X164800000Y-86150000D02*
X164800000Y-89150000D01*
X161600000Y-89150000D02*
X161600000Y-86150000D01*
X155520000Y-77215000D02*
X156720000Y-77215000D01*
X156720000Y-78965000D02*
X155520000Y-78965000D01*
X142325000Y-90200000D02*
X142325000Y-91400000D01*
X140575000Y-91400000D02*
X140575000Y-90200000D01*
X140045000Y-87420000D02*
X140045000Y-86220000D01*
X141795000Y-86220000D02*
X141795000Y-87420000D01*
X120900000Y-83100000D02*
X120900000Y-82400000D01*
X122100000Y-82400000D02*
X122100000Y-83100000D01*
X101019020Y-50490000D02*
X103719020Y-50490000D01*
X101019020Y-48990000D02*
X103719020Y-48990000D01*
X102519020Y-49890000D02*
X102519020Y-49640000D01*
X102519020Y-49640000D02*
X102369020Y-49790000D01*
X102269020Y-49390000D02*
X102269020Y-50090000D01*
X102619020Y-49740000D02*
X102969020Y-49740000D01*
X102269020Y-49740000D02*
X102619020Y-49390000D01*
X102619020Y-49390000D02*
X102619020Y-50090000D01*
X102619020Y-50090000D02*
X102269020Y-49740000D01*
X113609020Y-50520000D02*
X116309020Y-50520000D01*
X113609020Y-49020000D02*
X116309020Y-49020000D01*
X115109020Y-49920000D02*
X115109020Y-49670000D01*
X115109020Y-49670000D02*
X114959020Y-49820000D01*
X114859020Y-49420000D02*
X114859020Y-50120000D01*
X115209020Y-49770000D02*
X115559020Y-49770000D01*
X114859020Y-49770000D02*
X115209020Y-49420000D01*
X115209020Y-49420000D02*
X115209020Y-50120000D01*
X115209020Y-50120000D02*
X114859020Y-49770000D01*
X126020980Y-50500000D02*
X128720980Y-50500000D01*
X126020980Y-49000000D02*
X128720980Y-49000000D01*
X127520980Y-49900000D02*
X127520980Y-49650000D01*
X127520980Y-49650000D02*
X127370980Y-49800000D01*
X127270980Y-49400000D02*
X127270980Y-50100000D01*
X127620980Y-49750000D02*
X127970980Y-49750000D01*
X127270980Y-49750000D02*
X127620980Y-49400000D01*
X127620980Y-49400000D02*
X127620980Y-50100000D01*
X127620980Y-50100000D02*
X127270980Y-49750000D01*
X138499020Y-50500000D02*
X141199020Y-50500000D01*
X138499020Y-49000000D02*
X141199020Y-49000000D01*
X139999020Y-49900000D02*
X139999020Y-49650000D01*
X139999020Y-49650000D02*
X139849020Y-49800000D01*
X139749020Y-49400000D02*
X139749020Y-50100000D01*
X140099020Y-49750000D02*
X140449020Y-49750000D01*
X139749020Y-49750000D02*
X140099020Y-49400000D01*
X140099020Y-49400000D02*
X140099020Y-50100000D01*
X140099020Y-50100000D02*
X139749020Y-49750000D01*
X121220000Y-78110000D02*
X121220000Y-79110000D01*
X122920000Y-79110000D02*
X122920000Y-78110000D01*
X103650000Y-55950000D02*
X103650000Y-54950000D01*
X101950000Y-54950000D02*
X101950000Y-55950000D01*
X116150000Y-55950000D02*
X116150000Y-54950000D01*
X114450000Y-54950000D02*
X114450000Y-55950000D01*
X140850000Y-56000000D02*
X140850000Y-55000000D01*
X139150000Y-55000000D02*
X139150000Y-56000000D01*
X128500000Y-55950000D02*
X128500000Y-54950000D01*
X126800000Y-54950000D02*
X126800000Y-55950000D01*
X177110000Y-56190000D02*
X177110000Y-55190000D01*
X175410000Y-55190000D02*
X175410000Y-56190000D01*
X132690000Y-67140000D02*
X131690000Y-67140000D01*
X131690000Y-68840000D02*
X132690000Y-68840000D01*
X132680000Y-69980000D02*
X131680000Y-69980000D01*
X131680000Y-71680000D02*
X132680000Y-71680000D01*
X128350000Y-74250000D02*
X128350000Y-75250000D01*
X130050000Y-75250000D02*
X130050000Y-74250000D01*
X96525000Y-66154000D02*
X96525000Y-64954000D01*
X98275000Y-64954000D02*
X98275000Y-66154000D01*
X129000000Y-78625000D02*
X130200000Y-78625000D01*
X130200000Y-80375000D02*
X129000000Y-80375000D01*
X130675000Y-83550000D02*
X130675000Y-84750000D01*
X128925000Y-84750000D02*
X128925000Y-83550000D01*
X96625000Y-59050000D02*
X96625000Y-57850000D01*
X98375000Y-57850000D02*
X98375000Y-59050000D01*
X130525000Y-75250000D02*
X130525000Y-74050000D01*
X132275000Y-74050000D02*
X132275000Y-75250000D01*
X126425000Y-82200000D02*
X126425000Y-83400000D01*
X124675000Y-83400000D02*
X124675000Y-82200000D01*
X115750000Y-76275000D02*
X114550000Y-76275000D01*
X114550000Y-74525000D02*
X115750000Y-74525000D01*
X115250000Y-69135000D02*
X116450000Y-69135000D01*
X116450000Y-70885000D02*
X115250000Y-70885000D01*
X122200000Y-110275000D02*
X121000000Y-110275000D01*
X121000000Y-108525000D02*
X122200000Y-108525000D01*
X121000000Y-105675000D02*
X122200000Y-105675000D01*
X122200000Y-107425000D02*
X121000000Y-107425000D01*
X103550000Y-95975000D02*
X104750000Y-95975000D01*
X104750000Y-97725000D02*
X103550000Y-97725000D01*
X122525000Y-83400000D02*
X122525000Y-82200000D01*
X124275000Y-82200000D02*
X124275000Y-83400000D01*
X115700000Y-73875000D02*
X114500000Y-73875000D01*
X114500000Y-72125000D02*
X115700000Y-72125000D01*
X158919160Y-64489760D02*
X158870900Y-64489760D01*
X156120180Y-65190800D02*
X156120180Y-64489760D01*
X156120180Y-64489760D02*
X156369100Y-64489760D01*
X158919160Y-64489760D02*
X159119820Y-64489760D01*
X159119820Y-64489760D02*
X159119820Y-65190800D01*
X149439160Y-61157980D02*
X149390900Y-61157980D01*
X146640180Y-61859020D02*
X146640180Y-61157980D01*
X146640180Y-61157980D02*
X146889100Y-61157980D01*
X149439160Y-61157980D02*
X149639820Y-61157980D01*
X149639820Y-61157980D02*
X149639820Y-61859020D01*
X145715000Y-87050000D02*
X145715000Y-88250000D01*
X143965000Y-88250000D02*
X143965000Y-87050000D01*
X142330000Y-85520700D02*
X142330000Y-87420700D01*
X143430000Y-85520700D02*
X143430000Y-87420700D01*
X142880000Y-86420700D02*
X142880000Y-86870700D01*
X143130000Y-86370700D02*
X142630000Y-86370700D01*
X142880000Y-86370700D02*
X143130000Y-86620700D01*
X143130000Y-86620700D02*
X142630000Y-86620700D01*
X142630000Y-86620700D02*
X142880000Y-86370700D01*
X184290000Y-86070000D02*
X184290000Y-87070000D01*
X185990000Y-87070000D02*
X185990000Y-86070000D01*
X109465000Y-100030000D02*
X109465000Y-102030000D01*
X106515000Y-102030000D02*
X106515000Y-100030000D01*
D14*
X147392081Y-101516447D02*
X146897107Y-102011421D01*
X146048579Y-101162893D02*
X146543553Y-100667919D01*
X148707919Y-106003553D02*
X149202893Y-105508579D01*
X150051421Y-106357107D02*
X149556447Y-106852081D01*
X149450661Y-104029289D02*
X147612183Y-102190811D01*
X147612183Y-102190811D02*
X145349441Y-104453553D01*
D15*
X110472590Y-113495105D02*
X110395181Y-113456400D01*
X110317771Y-113378990D01*
X110201657Y-113262876D01*
X110124248Y-113224171D01*
X110046838Y-113224171D01*
X110085543Y-113417695D02*
X110008133Y-113378990D01*
X109930724Y-113301581D01*
X109892019Y-113146762D01*
X109892019Y-112875829D01*
X109930724Y-112721010D01*
X110008133Y-112643600D01*
X110085543Y-112604895D01*
X110240362Y-112604895D01*
X110317771Y-112643600D01*
X110395181Y-112721010D01*
X110433886Y-112875829D01*
X110433886Y-113146762D01*
X110395181Y-113301581D01*
X110317771Y-113378990D01*
X110240362Y-113417695D01*
X110085543Y-113417695D01*
X110743524Y-112682305D02*
X110782229Y-112643600D01*
X110859638Y-112604895D01*
X111053162Y-112604895D01*
X111130572Y-112643600D01*
X111169276Y-112682305D01*
X111207981Y-112759714D01*
X111207981Y-112837124D01*
X111169276Y-112953238D01*
X110704819Y-113417695D01*
X111207981Y-113417695D01*
D13*
X147567143Y-67052381D02*
X147233809Y-66576190D01*
X146995714Y-67052381D02*
X146995714Y-66052381D01*
X147376667Y-66052381D01*
X147471905Y-66100000D01*
X147519524Y-66147619D01*
X147567143Y-66242857D01*
X147567143Y-66385714D01*
X147519524Y-66480952D01*
X147471905Y-66528571D01*
X147376667Y-66576190D01*
X146995714Y-66576190D01*
X147948095Y-66147619D02*
X147995714Y-66100000D01*
X148090952Y-66052381D01*
X148329048Y-66052381D01*
X148424286Y-66100000D01*
X148471905Y-66147619D01*
X148519524Y-66242857D01*
X148519524Y-66338095D01*
X148471905Y-66480952D01*
X147900476Y-67052381D01*
X148519524Y-67052381D01*
X149471905Y-67052381D02*
X148900476Y-67052381D01*
X149186190Y-67052381D02*
X149186190Y-66052381D01*
X149090952Y-66195238D01*
X148995714Y-66290476D01*
X148900476Y-66338095D01*
X183144762Y-81683333D02*
X183192381Y-81540476D01*
X183192381Y-81302380D01*
X183144762Y-81207142D01*
X183097143Y-81159523D01*
X183001905Y-81111904D01*
X182906667Y-81111904D01*
X182811429Y-81159523D01*
X182763810Y-81207142D01*
X182716190Y-81302380D01*
X182668571Y-81492857D01*
X182620952Y-81588095D01*
X182573333Y-81635714D01*
X182478095Y-81683333D01*
X182382857Y-81683333D01*
X182287619Y-81635714D01*
X182240000Y-81588095D01*
X182192381Y-81492857D01*
X182192381Y-81254761D01*
X182240000Y-81111904D01*
X182192381Y-80778571D02*
X183192381Y-80540476D01*
X182478095Y-80349999D01*
X183192381Y-80159523D01*
X182192381Y-79921428D01*
X183192381Y-79016666D02*
X183192381Y-79588095D01*
X183192381Y-79302381D02*
X182192381Y-79302381D01*
X182335238Y-79397619D01*
X182430476Y-79492857D01*
X182478095Y-79588095D01*
X186331905Y-106412381D02*
X186331905Y-107221905D01*
X186379524Y-107317143D01*
X186427143Y-107364762D01*
X186522381Y-107412381D01*
X186712858Y-107412381D01*
X186808096Y-107364762D01*
X186855715Y-107317143D01*
X186903334Y-107221905D01*
X186903334Y-106412381D01*
X187903334Y-107412381D02*
X187331905Y-107412381D01*
X187617619Y-107412381D02*
X187617619Y-106412381D01*
X187522381Y-106555238D01*
X187427143Y-106650476D01*
X187331905Y-106698095D01*
X188522381Y-106412381D02*
X188617620Y-106412381D01*
X188712858Y-106460000D01*
X188760477Y-106507619D01*
X188808096Y-106602857D01*
X188855715Y-106793333D01*
X188855715Y-107031429D01*
X188808096Y-107221905D01*
X188760477Y-107317143D01*
X188712858Y-107364762D01*
X188617620Y-107412381D01*
X188522381Y-107412381D01*
X188427143Y-107364762D01*
X188379524Y-107317143D01*
X188331905Y-107221905D01*
X188284286Y-107031429D01*
X188284286Y-106793333D01*
X188331905Y-106602857D01*
X188379524Y-106507619D01*
X188427143Y-106460000D01*
X188522381Y-106412381D01*
X143232031Y-102137732D02*
X142659610Y-102036717D01*
X142827970Y-102541794D02*
X142120863Y-101834687D01*
X142390237Y-101565312D01*
X142491253Y-101531641D01*
X142558596Y-101531641D01*
X142659611Y-101565312D01*
X142760626Y-101666328D01*
X142794298Y-101767343D01*
X142794298Y-101834686D01*
X142760626Y-101935701D01*
X142491252Y-102205076D01*
X143131016Y-100824534D02*
X142996328Y-100959222D01*
X142962657Y-101060237D01*
X142962657Y-101127580D01*
X142996328Y-101295939D01*
X143097343Y-101464297D01*
X143366718Y-101733672D01*
X143467733Y-101767343D01*
X143535076Y-101767343D01*
X143636092Y-101733672D01*
X143770779Y-101598984D01*
X143804451Y-101497969D01*
X143804451Y-101430626D01*
X143770779Y-101329610D01*
X143602421Y-101161252D01*
X143501405Y-101127579D01*
X143434061Y-101127579D01*
X143333046Y-101161251D01*
X143198359Y-101295939D01*
X143164687Y-101396954D01*
X143164687Y-101464297D01*
X143198359Y-101565313D01*
X164797143Y-52802857D02*
X164844762Y-52850476D01*
X164892381Y-52993333D01*
X164892381Y-53088571D01*
X164844762Y-53231429D01*
X164749524Y-53326667D01*
X164654286Y-53374286D01*
X164463810Y-53421905D01*
X164320952Y-53421905D01*
X164130476Y-53374286D01*
X164035238Y-53326667D01*
X163940000Y-53231429D01*
X163892381Y-53088571D01*
X163892381Y-52993333D01*
X163940000Y-52850476D01*
X163987619Y-52802857D01*
X163987619Y-52421905D02*
X163940000Y-52374286D01*
X163892381Y-52279048D01*
X163892381Y-52040952D01*
X163940000Y-51945714D01*
X163987619Y-51898095D01*
X164082857Y-51850476D01*
X164178095Y-51850476D01*
X164320952Y-51898095D01*
X164892381Y-52469524D01*
X164892381Y-51850476D01*
X163987619Y-51469524D02*
X163940000Y-51421905D01*
X163892381Y-51326667D01*
X163892381Y-51088571D01*
X163940000Y-50993333D01*
X163987619Y-50945714D01*
X164082857Y-50898095D01*
X164178095Y-50898095D01*
X164320952Y-50945714D01*
X164892381Y-51517143D01*
X164892381Y-50898095D01*
X171538571Y-59273333D02*
X171538571Y-59606667D01*
X172062381Y-59606667D02*
X171062381Y-59606667D01*
X171062381Y-59130476D01*
X171062381Y-58273333D02*
X171062381Y-58749524D01*
X171538571Y-58797143D01*
X171490952Y-58749524D01*
X171443333Y-58654286D01*
X171443333Y-58416190D01*
X171490952Y-58320952D01*
X171538571Y-58273333D01*
X171633810Y-58225714D01*
X171871905Y-58225714D01*
X171967143Y-58273333D01*
X172014762Y-58320952D01*
X172062381Y-58416190D01*
X172062381Y-58654286D01*
X172014762Y-58749524D01*
X171967143Y-58797143D01*
X144229611Y-91410151D02*
X143522504Y-90703044D01*
X144903046Y-90602029D02*
X144903046Y-90669373D01*
X144835703Y-90804060D01*
X144768359Y-90871403D01*
X144633672Y-90938747D01*
X144498985Y-90938747D01*
X144397970Y-90905075D01*
X144229611Y-90804060D01*
X144128595Y-90703044D01*
X144027580Y-90534686D01*
X143993908Y-90433671D01*
X143993908Y-90298984D01*
X144061253Y-90164296D01*
X144128596Y-90096953D01*
X144263283Y-90029609D01*
X144330626Y-90029609D01*
X145643825Y-89995938D02*
X145239763Y-90399999D01*
X145441794Y-90197969D02*
X144734687Y-89490862D01*
X144768359Y-89659221D01*
X144768359Y-89793907D01*
X144734687Y-89894923D01*
X142587143Y-76097143D02*
X142539524Y-76144762D01*
X142396667Y-76192381D01*
X142301429Y-76192381D01*
X142158571Y-76144762D01*
X142063333Y-76049524D01*
X142015714Y-75954286D01*
X141968095Y-75763810D01*
X141968095Y-75620952D01*
X142015714Y-75430476D01*
X142063333Y-75335238D01*
X142158571Y-75240000D01*
X142301429Y-75192381D01*
X142396667Y-75192381D01*
X142539524Y-75240000D01*
X142587143Y-75287619D01*
X143539524Y-76192381D02*
X142968095Y-76192381D01*
X143253809Y-76192381D02*
X143253809Y-75192381D01*
X143158571Y-75335238D01*
X143063333Y-75430476D01*
X142968095Y-75478095D01*
X144396667Y-75525714D02*
X144396667Y-76192381D01*
X144158571Y-75144762D02*
X143920476Y-75859048D01*
X144539524Y-75859048D01*
X150328095Y-69802381D02*
X150328095Y-70611905D01*
X150375714Y-70707143D01*
X150423333Y-70754762D01*
X150518571Y-70802381D01*
X150709048Y-70802381D01*
X150804286Y-70754762D01*
X150851905Y-70707143D01*
X150899524Y-70611905D01*
X150899524Y-69802381D01*
X151851905Y-69802381D02*
X151375714Y-69802381D01*
X151328095Y-70278571D01*
X151375714Y-70230952D01*
X151470952Y-70183333D01*
X151709048Y-70183333D01*
X151804286Y-70230952D01*
X151851905Y-70278571D01*
X151899524Y-70373810D01*
X151899524Y-70611905D01*
X151851905Y-70707143D01*
X151804286Y-70754762D01*
X151709048Y-70802381D01*
X151470952Y-70802381D01*
X151375714Y-70754762D01*
X151328095Y-70707143D01*
X159388095Y-70122381D02*
X159388095Y-70931905D01*
X159435714Y-71027143D01*
X159483333Y-71074762D01*
X159578571Y-71122381D01*
X159769048Y-71122381D01*
X159864286Y-71074762D01*
X159911905Y-71027143D01*
X159959524Y-70931905D01*
X159959524Y-70122381D01*
X160340476Y-70122381D02*
X160959524Y-70122381D01*
X160626190Y-70503333D01*
X160769048Y-70503333D01*
X160864286Y-70550952D01*
X160911905Y-70598571D01*
X160959524Y-70693810D01*
X160959524Y-70931905D01*
X160911905Y-71027143D01*
X160864286Y-71074762D01*
X160769048Y-71122381D01*
X160483333Y-71122381D01*
X160388095Y-71074762D01*
X160340476Y-71027143D01*
X160972381Y-76662857D02*
X160496190Y-76996191D01*
X160972381Y-77234286D02*
X159972381Y-77234286D01*
X159972381Y-76853333D01*
X160020000Y-76758095D01*
X160067619Y-76710476D01*
X160162857Y-76662857D01*
X160305714Y-76662857D01*
X160400952Y-76710476D01*
X160448571Y-76758095D01*
X160496190Y-76853333D01*
X160496190Y-77234286D01*
X160972381Y-75710476D02*
X160972381Y-76281905D01*
X160972381Y-75996191D02*
X159972381Y-75996191D01*
X160115238Y-76091429D01*
X160210476Y-76186667D01*
X160258095Y-76281905D01*
X159972381Y-74853333D02*
X159972381Y-75043810D01*
X160020000Y-75139048D01*
X160067619Y-75186667D01*
X160210476Y-75281905D01*
X160400952Y-75329524D01*
X160781905Y-75329524D01*
X160877143Y-75281905D01*
X160924762Y-75234286D01*
X160972381Y-75139048D01*
X160972381Y-74948571D01*
X160924762Y-74853333D01*
X160877143Y-74805714D01*
X160781905Y-74758095D01*
X160543810Y-74758095D01*
X160448571Y-74805714D01*
X160400952Y-74853333D01*
X160353333Y-74948571D01*
X160353333Y-75139048D01*
X160400952Y-75234286D01*
X160448571Y-75281905D01*
X160543810Y-75329524D01*
X152727143Y-74142857D02*
X152774762Y-74190476D01*
X152822381Y-74333333D01*
X152822381Y-74428571D01*
X152774762Y-74571429D01*
X152679524Y-74666667D01*
X152584286Y-74714286D01*
X152393810Y-74761905D01*
X152250952Y-74761905D01*
X152060476Y-74714286D01*
X151965238Y-74666667D01*
X151870000Y-74571429D01*
X151822381Y-74428571D01*
X151822381Y-74333333D01*
X151870000Y-74190476D01*
X151917619Y-74142857D01*
X152822381Y-73190476D02*
X152822381Y-73761905D01*
X152822381Y-73476191D02*
X151822381Y-73476191D01*
X151965238Y-73571429D01*
X152060476Y-73666667D01*
X152108095Y-73761905D01*
X151822381Y-72285714D02*
X151822381Y-72761905D01*
X152298571Y-72809524D01*
X152250952Y-72761905D01*
X152203333Y-72666667D01*
X152203333Y-72428571D01*
X152250952Y-72333333D01*
X152298571Y-72285714D01*
X152393810Y-72238095D01*
X152631905Y-72238095D01*
X152727143Y-72285714D01*
X152774762Y-72333333D01*
X152822381Y-72428571D01*
X152822381Y-72666667D01*
X152774762Y-72761905D01*
X152727143Y-72809524D01*
X153377143Y-67602381D02*
X153043809Y-67126190D01*
X152805714Y-67602381D02*
X152805714Y-66602381D01*
X153186667Y-66602381D01*
X153281905Y-66650000D01*
X153329524Y-66697619D01*
X153377143Y-66792857D01*
X153377143Y-66935714D01*
X153329524Y-67030952D01*
X153281905Y-67078571D01*
X153186667Y-67126190D01*
X152805714Y-67126190D01*
X154329524Y-67602381D02*
X153758095Y-67602381D01*
X154043809Y-67602381D02*
X154043809Y-66602381D01*
X153948571Y-66745238D01*
X153853333Y-66840476D01*
X153758095Y-66888095D01*
X154900952Y-67030952D02*
X154805714Y-66983333D01*
X154758095Y-66935714D01*
X154710476Y-66840476D01*
X154710476Y-66792857D01*
X154758095Y-66697619D01*
X154805714Y-66650000D01*
X154900952Y-66602381D01*
X155091429Y-66602381D01*
X155186667Y-66650000D01*
X155234286Y-66697619D01*
X155281905Y-66792857D01*
X155281905Y-66840476D01*
X155234286Y-66935714D01*
X155186667Y-66983333D01*
X155091429Y-67030952D01*
X154900952Y-67030952D01*
X154805714Y-67078571D01*
X154758095Y-67126190D01*
X154710476Y-67221429D01*
X154710476Y-67411905D01*
X154758095Y-67507143D01*
X154805714Y-67554762D01*
X154900952Y-67602381D01*
X155091429Y-67602381D01*
X155186667Y-67554762D01*
X155234286Y-67507143D01*
X155281905Y-67411905D01*
X155281905Y-67221429D01*
X155234286Y-67126190D01*
X155186667Y-67078571D01*
X155091429Y-67030952D01*
X146017143Y-80492381D02*
X145683809Y-80016190D01*
X145445714Y-80492381D02*
X145445714Y-79492381D01*
X145826667Y-79492381D01*
X145921905Y-79540000D01*
X145969524Y-79587619D01*
X146017143Y-79682857D01*
X146017143Y-79825714D01*
X145969524Y-79920952D01*
X145921905Y-79968571D01*
X145826667Y-80016190D01*
X145445714Y-80016190D01*
X146969524Y-80492381D02*
X146398095Y-80492381D01*
X146683809Y-80492381D02*
X146683809Y-79492381D01*
X146588571Y-79635238D01*
X146493333Y-79730476D01*
X146398095Y-79778095D01*
X147874286Y-79492381D02*
X147398095Y-79492381D01*
X147350476Y-79968571D01*
X147398095Y-79920952D01*
X147493333Y-79873333D01*
X147731429Y-79873333D01*
X147826667Y-79920952D01*
X147874286Y-79968571D01*
X147921905Y-80063810D01*
X147921905Y-80301905D01*
X147874286Y-80397143D01*
X147826667Y-80444762D01*
X147731429Y-80492381D01*
X147493333Y-80492381D01*
X147398095Y-80444762D01*
X147350476Y-80397143D01*
X128002381Y-69401905D02*
X128811905Y-69401905D01*
X128907143Y-69354286D01*
X128954762Y-69306667D01*
X129002381Y-69211429D01*
X129002381Y-69020952D01*
X128954762Y-68925714D01*
X128907143Y-68878095D01*
X128811905Y-68830476D01*
X128002381Y-68830476D01*
X129002381Y-68306667D02*
X129002381Y-68116191D01*
X128954762Y-68020952D01*
X128907143Y-67973333D01*
X128764286Y-67878095D01*
X128573810Y-67830476D01*
X128192857Y-67830476D01*
X128097619Y-67878095D01*
X128050000Y-67925714D01*
X128002381Y-68020952D01*
X128002381Y-68211429D01*
X128050000Y-68306667D01*
X128097619Y-68354286D01*
X128192857Y-68401905D01*
X128430952Y-68401905D01*
X128526190Y-68354286D01*
X128573810Y-68306667D01*
X128621429Y-68211429D01*
X128621429Y-68020952D01*
X128573810Y-67925714D01*
X128526190Y-67878095D01*
X128430952Y-67830476D01*
X139406190Y-68076191D02*
X139882381Y-68076191D01*
X138882381Y-68409524D02*
X139406190Y-68076191D01*
X138882381Y-67742857D01*
X139882381Y-66885714D02*
X139882381Y-67457143D01*
X139882381Y-67171429D02*
X138882381Y-67171429D01*
X139025238Y-67266667D01*
X139120476Y-67361905D01*
X139168095Y-67457143D01*
X120461905Y-96652381D02*
X120461905Y-97461905D01*
X120509524Y-97557143D01*
X120557143Y-97604762D01*
X120652381Y-97652381D01*
X120842858Y-97652381D01*
X120938096Y-97604762D01*
X120985715Y-97557143D01*
X121033334Y-97461905D01*
X121033334Y-96652381D01*
X122033334Y-97652381D02*
X121461905Y-97652381D01*
X121747619Y-97652381D02*
X121747619Y-96652381D01*
X121652381Y-96795238D01*
X121557143Y-96890476D01*
X121461905Y-96938095D01*
X122366667Y-96652381D02*
X122985715Y-96652381D01*
X122652381Y-97033333D01*
X122795239Y-97033333D01*
X122890477Y-97080952D01*
X122938096Y-97128571D01*
X122985715Y-97223810D01*
X122985715Y-97461905D01*
X122938096Y-97557143D01*
X122890477Y-97604762D01*
X122795239Y-97652381D01*
X122509524Y-97652381D01*
X122414286Y-97604762D01*
X122366667Y-97557143D01*
X97942381Y-52398095D02*
X96942381Y-52398095D01*
X96942381Y-52160000D01*
X96990000Y-52017142D01*
X97085238Y-51921904D01*
X97180476Y-51874285D01*
X97370952Y-51826666D01*
X97513810Y-51826666D01*
X97704286Y-51874285D01*
X97799524Y-51921904D01*
X97894762Y-52017142D01*
X97942381Y-52160000D01*
X97942381Y-52398095D01*
X96942381Y-50969523D02*
X96942381Y-51160000D01*
X96990000Y-51255238D01*
X97037619Y-51302857D01*
X97180476Y-51398095D01*
X97370952Y-51445714D01*
X97751905Y-51445714D01*
X97847143Y-51398095D01*
X97894762Y-51350476D01*
X97942381Y-51255238D01*
X97942381Y-51064761D01*
X97894762Y-50969523D01*
X97847143Y-50921904D01*
X97751905Y-50874285D01*
X97513810Y-50874285D01*
X97418571Y-50921904D01*
X97370952Y-50969523D01*
X97323333Y-51064761D01*
X97323333Y-51255238D01*
X97370952Y-51350476D01*
X97418571Y-51398095D01*
X97513810Y-51445714D01*
D15*
X130522590Y-94995105D02*
X130445181Y-94956400D01*
X130367771Y-94878990D01*
X130251657Y-94762876D01*
X130174248Y-94724171D01*
X130096838Y-94724171D01*
X130135543Y-94917695D02*
X130058133Y-94878990D01*
X129980724Y-94801581D01*
X129942019Y-94646762D01*
X129942019Y-94375829D01*
X129980724Y-94221010D01*
X130058133Y-94143600D01*
X130135543Y-94104895D01*
X130290362Y-94104895D01*
X130367771Y-94143600D01*
X130445181Y-94221010D01*
X130483886Y-94375829D01*
X130483886Y-94646762D01*
X130445181Y-94801581D01*
X130367771Y-94878990D01*
X130290362Y-94917695D01*
X130135543Y-94917695D01*
X130754819Y-94104895D02*
X131257981Y-94104895D01*
X130987048Y-94414533D01*
X131103162Y-94414533D01*
X131180572Y-94453238D01*
X131219276Y-94491943D01*
X131257981Y-94569352D01*
X131257981Y-94762876D01*
X131219276Y-94840286D01*
X131180572Y-94878990D01*
X131103162Y-94917695D01*
X130870934Y-94917695D01*
X130793524Y-94878990D01*
X130754819Y-94840286D01*
D13*
X128177143Y-106492381D02*
X127843809Y-106016190D01*
X127605714Y-106492381D02*
X127605714Y-105492381D01*
X127986667Y-105492381D01*
X128081905Y-105540000D01*
X128129524Y-105587619D01*
X128177143Y-105682857D01*
X128177143Y-105825714D01*
X128129524Y-105920952D01*
X128081905Y-105968571D01*
X127986667Y-106016190D01*
X127605714Y-106016190D01*
X128510476Y-105492381D02*
X129129524Y-105492381D01*
X128796190Y-105873333D01*
X128939048Y-105873333D01*
X129034286Y-105920952D01*
X129081905Y-105968571D01*
X129129524Y-106063810D01*
X129129524Y-106301905D01*
X129081905Y-106397143D01*
X129034286Y-106444762D01*
X128939048Y-106492381D01*
X128653333Y-106492381D01*
X128558095Y-106444762D01*
X128510476Y-106397143D01*
X130034286Y-105492381D02*
X129558095Y-105492381D01*
X129510476Y-105968571D01*
X129558095Y-105920952D01*
X129653333Y-105873333D01*
X129891429Y-105873333D01*
X129986667Y-105920952D01*
X130034286Y-105968571D01*
X130081905Y-106063810D01*
X130081905Y-106301905D01*
X130034286Y-106397143D01*
X129986667Y-106444762D01*
X129891429Y-106492381D01*
X129653333Y-106492381D01*
X129558095Y-106444762D01*
X129510476Y-106397143D01*
X116577143Y-106852381D02*
X116243809Y-106376190D01*
X116005714Y-106852381D02*
X116005714Y-105852381D01*
X116386667Y-105852381D01*
X116481905Y-105900000D01*
X116529524Y-105947619D01*
X116577143Y-106042857D01*
X116577143Y-106185714D01*
X116529524Y-106280952D01*
X116481905Y-106328571D01*
X116386667Y-106376190D01*
X116005714Y-106376190D01*
X116910476Y-105852381D02*
X117529524Y-105852381D01*
X117196190Y-106233333D01*
X117339048Y-106233333D01*
X117434286Y-106280952D01*
X117481905Y-106328571D01*
X117529524Y-106423810D01*
X117529524Y-106661905D01*
X117481905Y-106757143D01*
X117434286Y-106804762D01*
X117339048Y-106852381D01*
X117053333Y-106852381D01*
X116958095Y-106804762D01*
X116910476Y-106757143D01*
X118386667Y-106185714D02*
X118386667Y-106852381D01*
X118148571Y-105804762D02*
X117910476Y-106519048D01*
X118529524Y-106519048D01*
X120957143Y-114857143D02*
X120909524Y-114904762D01*
X120766667Y-114952381D01*
X120671429Y-114952381D01*
X120528571Y-114904762D01*
X120433333Y-114809524D01*
X120385714Y-114714286D01*
X120338095Y-114523810D01*
X120338095Y-114380952D01*
X120385714Y-114190476D01*
X120433333Y-114095238D01*
X120528571Y-114000000D01*
X120671429Y-113952381D01*
X120766667Y-113952381D01*
X120909524Y-114000000D01*
X120957143Y-114047619D01*
X121814286Y-114285714D02*
X121814286Y-114952381D01*
X121576190Y-113904762D02*
X121338095Y-114619048D01*
X121957143Y-114619048D01*
X122290476Y-114047619D02*
X122338095Y-114000000D01*
X122433333Y-113952381D01*
X122671429Y-113952381D01*
X122766667Y-114000000D01*
X122814286Y-114047619D01*
X122861905Y-114142857D01*
X122861905Y-114238095D01*
X122814286Y-114380952D01*
X122242857Y-114952381D01*
X122861905Y-114952381D01*
X112957143Y-100472857D02*
X113004762Y-100520476D01*
X113052381Y-100663333D01*
X113052381Y-100758571D01*
X113004762Y-100901429D01*
X112909524Y-100996667D01*
X112814286Y-101044286D01*
X112623810Y-101091905D01*
X112480952Y-101091905D01*
X112290476Y-101044286D01*
X112195238Y-100996667D01*
X112100000Y-100901429D01*
X112052381Y-100758571D01*
X112052381Y-100663333D01*
X112100000Y-100520476D01*
X112147619Y-100472857D01*
X112385714Y-99615714D02*
X113052381Y-99615714D01*
X112004762Y-99853810D02*
X112719048Y-100091905D01*
X112719048Y-99472857D01*
X113052381Y-98568095D02*
X113052381Y-99139524D01*
X113052381Y-98853810D02*
X112052381Y-98853810D01*
X112195238Y-98949048D01*
X112290476Y-99044286D01*
X112338095Y-99139524D01*
X133717143Y-101827143D02*
X133669524Y-101874762D01*
X133526667Y-101922381D01*
X133431429Y-101922381D01*
X133288571Y-101874762D01*
X133193333Y-101779524D01*
X133145714Y-101684286D01*
X133098095Y-101493810D01*
X133098095Y-101350952D01*
X133145714Y-101160476D01*
X133193333Y-101065238D01*
X133288571Y-100970000D01*
X133431429Y-100922381D01*
X133526667Y-100922381D01*
X133669524Y-100970000D01*
X133717143Y-101017619D01*
X134574286Y-101255714D02*
X134574286Y-101922381D01*
X134336190Y-100874762D02*
X134098095Y-101589048D01*
X134717143Y-101589048D01*
X135288571Y-100922381D02*
X135383810Y-100922381D01*
X135479048Y-100970000D01*
X135526667Y-101017619D01*
X135574286Y-101112857D01*
X135621905Y-101303333D01*
X135621905Y-101541429D01*
X135574286Y-101731905D01*
X135526667Y-101827143D01*
X135479048Y-101874762D01*
X135383810Y-101922381D01*
X135288571Y-101922381D01*
X135193333Y-101874762D01*
X135145714Y-101827143D01*
X135098095Y-101731905D01*
X135050476Y-101541429D01*
X135050476Y-101303333D01*
X135098095Y-101112857D01*
X135145714Y-101017619D01*
X135193333Y-100970000D01*
X135288571Y-100922381D01*
X113387143Y-104182857D02*
X113434762Y-104230476D01*
X113482381Y-104373333D01*
X113482381Y-104468571D01*
X113434762Y-104611429D01*
X113339524Y-104706667D01*
X113244286Y-104754286D01*
X113053810Y-104801905D01*
X112910952Y-104801905D01*
X112720476Y-104754286D01*
X112625238Y-104706667D01*
X112530000Y-104611429D01*
X112482381Y-104468571D01*
X112482381Y-104373333D01*
X112530000Y-104230476D01*
X112577619Y-104182857D01*
X112482381Y-103849524D02*
X112482381Y-103230476D01*
X112863333Y-103563810D01*
X112863333Y-103420952D01*
X112910952Y-103325714D01*
X112958571Y-103278095D01*
X113053810Y-103230476D01*
X113291905Y-103230476D01*
X113387143Y-103278095D01*
X113434762Y-103325714D01*
X113482381Y-103420952D01*
X113482381Y-103706667D01*
X113434762Y-103801905D01*
X113387143Y-103849524D01*
X113482381Y-102754286D02*
X113482381Y-102563810D01*
X113434762Y-102468571D01*
X113387143Y-102420952D01*
X113244286Y-102325714D01*
X113053810Y-102278095D01*
X112672857Y-102278095D01*
X112577619Y-102325714D01*
X112530000Y-102373333D01*
X112482381Y-102468571D01*
X112482381Y-102659048D01*
X112530000Y-102754286D01*
X112577619Y-102801905D01*
X112672857Y-102849524D01*
X112910952Y-102849524D01*
X113006190Y-102801905D01*
X113053810Y-102754286D01*
X113101429Y-102659048D01*
X113101429Y-102468571D01*
X113053810Y-102373333D01*
X113006190Y-102325714D01*
X112910952Y-102278095D01*
X109537143Y-104762857D02*
X109584762Y-104810476D01*
X109632381Y-104953333D01*
X109632381Y-105048571D01*
X109584762Y-105191429D01*
X109489524Y-105286667D01*
X109394286Y-105334286D01*
X109203810Y-105381905D01*
X109060952Y-105381905D01*
X108870476Y-105334286D01*
X108775238Y-105286667D01*
X108680000Y-105191429D01*
X108632381Y-105048571D01*
X108632381Y-104953333D01*
X108680000Y-104810476D01*
X108727619Y-104762857D01*
X108632381Y-104429524D02*
X108632381Y-103810476D01*
X109013333Y-104143810D01*
X109013333Y-104000952D01*
X109060952Y-103905714D01*
X109108571Y-103858095D01*
X109203810Y-103810476D01*
X109441905Y-103810476D01*
X109537143Y-103858095D01*
X109584762Y-103905714D01*
X109632381Y-104000952D01*
X109632381Y-104286667D01*
X109584762Y-104381905D01*
X109537143Y-104429524D01*
X109060952Y-103239048D02*
X109013333Y-103334286D01*
X108965714Y-103381905D01*
X108870476Y-103429524D01*
X108822857Y-103429524D01*
X108727619Y-103381905D01*
X108680000Y-103334286D01*
X108632381Y-103239048D01*
X108632381Y-103048571D01*
X108680000Y-102953333D01*
X108727619Y-102905714D01*
X108822857Y-102858095D01*
X108870476Y-102858095D01*
X108965714Y-102905714D01*
X109013333Y-102953333D01*
X109060952Y-103048571D01*
X109060952Y-103239048D01*
X109108571Y-103334286D01*
X109156190Y-103381905D01*
X109251429Y-103429524D01*
X109441905Y-103429524D01*
X109537143Y-103381905D01*
X109584762Y-103334286D01*
X109632381Y-103239048D01*
X109632381Y-103048571D01*
X109584762Y-102953333D01*
X109537143Y-102905714D01*
X109441905Y-102858095D01*
X109251429Y-102858095D01*
X109156190Y-102905714D01*
X109108571Y-102953333D01*
X109060952Y-103048571D01*
X165933334Y-92657143D02*
X165885715Y-92704762D01*
X165742858Y-92752381D01*
X165647620Y-92752381D01*
X165504762Y-92704762D01*
X165409524Y-92609524D01*
X165361905Y-92514286D01*
X165314286Y-92323810D01*
X165314286Y-92180952D01*
X165361905Y-91990476D01*
X165409524Y-91895238D01*
X165504762Y-91800000D01*
X165647620Y-91752381D01*
X165742858Y-91752381D01*
X165885715Y-91800000D01*
X165933334Y-91847619D01*
X166504762Y-92180952D02*
X166409524Y-92133333D01*
X166361905Y-92085714D01*
X166314286Y-91990476D01*
X166314286Y-91942857D01*
X166361905Y-91847619D01*
X166409524Y-91800000D01*
X166504762Y-91752381D01*
X166695239Y-91752381D01*
X166790477Y-91800000D01*
X166838096Y-91847619D01*
X166885715Y-91942857D01*
X166885715Y-91990476D01*
X166838096Y-92085714D01*
X166790477Y-92133333D01*
X166695239Y-92180952D01*
X166504762Y-92180952D01*
X166409524Y-92228571D01*
X166361905Y-92276190D01*
X166314286Y-92371429D01*
X166314286Y-92561905D01*
X166361905Y-92657143D01*
X166409524Y-92704762D01*
X166504762Y-92752381D01*
X166695239Y-92752381D01*
X166790477Y-92704762D01*
X166838096Y-92657143D01*
X166885715Y-92561905D01*
X166885715Y-92371429D01*
X166838096Y-92276190D01*
X166790477Y-92228571D01*
X166695239Y-92180952D01*
X109998571Y-58863333D02*
X109998571Y-59196667D01*
X110522381Y-59196667D02*
X109522381Y-59196667D01*
X109522381Y-58720476D01*
X110522381Y-57815714D02*
X110522381Y-58387143D01*
X110522381Y-58101429D02*
X109522381Y-58101429D01*
X109665238Y-58196667D01*
X109760476Y-58291905D01*
X109808095Y-58387143D01*
X122498571Y-59073333D02*
X122498571Y-59406667D01*
X123022381Y-59406667D02*
X122022381Y-59406667D01*
X122022381Y-58930476D01*
X122117619Y-58597143D02*
X122070000Y-58549524D01*
X122022381Y-58454286D01*
X122022381Y-58216190D01*
X122070000Y-58120952D01*
X122117619Y-58073333D01*
X122212857Y-58025714D01*
X122308095Y-58025714D01*
X122450952Y-58073333D01*
X123022381Y-58644762D01*
X123022381Y-58025714D01*
X147168571Y-59013333D02*
X147168571Y-59346667D01*
X147692381Y-59346667D02*
X146692381Y-59346667D01*
X146692381Y-58870476D01*
X146692381Y-58584762D02*
X146692381Y-57965714D01*
X147073333Y-58299048D01*
X147073333Y-58156190D01*
X147120952Y-58060952D01*
X147168571Y-58013333D01*
X147263810Y-57965714D01*
X147501905Y-57965714D01*
X147597143Y-58013333D01*
X147644762Y-58060952D01*
X147692381Y-58156190D01*
X147692381Y-58441905D01*
X147644762Y-58537143D01*
X147597143Y-58584762D01*
X134618571Y-59033333D02*
X134618571Y-59366667D01*
X135142381Y-59366667D02*
X134142381Y-59366667D01*
X134142381Y-58890476D01*
X134475714Y-58080952D02*
X135142381Y-58080952D01*
X134094762Y-58319048D02*
X134809048Y-58557143D01*
X134809048Y-57938095D01*
X106096667Y-69638571D02*
X105763333Y-69638571D01*
X105763333Y-70162381D02*
X105763333Y-69162381D01*
X106239524Y-69162381D01*
X106525238Y-69162381D02*
X107191905Y-69162381D01*
X106763333Y-70162381D01*
X181198571Y-54373333D02*
X181198571Y-54706667D01*
X181722381Y-54706667D02*
X180722381Y-54706667D01*
X180722381Y-54230476D01*
X180722381Y-53420952D02*
X180722381Y-53611429D01*
X180770000Y-53706667D01*
X180817619Y-53754286D01*
X180960476Y-53849524D01*
X181150952Y-53897143D01*
X181531905Y-53897143D01*
X181627143Y-53849524D01*
X181674762Y-53801905D01*
X181722381Y-53706667D01*
X181722381Y-53516190D01*
X181674762Y-53420952D01*
X181627143Y-53373333D01*
X181531905Y-53325714D01*
X181293810Y-53325714D01*
X181198571Y-53373333D01*
X181150952Y-53420952D01*
X181103333Y-53516190D01*
X181103333Y-53706667D01*
X181150952Y-53801905D01*
X181198571Y-53849524D01*
X181293810Y-53897143D01*
X157907143Y-86406666D02*
X157954762Y-86454285D01*
X158002381Y-86597142D01*
X158002381Y-86692380D01*
X157954762Y-86835238D01*
X157859524Y-86930476D01*
X157764286Y-86978095D01*
X157573810Y-87025714D01*
X157430952Y-87025714D01*
X157240476Y-86978095D01*
X157145238Y-86930476D01*
X157050000Y-86835238D01*
X157002381Y-86692380D01*
X157002381Y-86597142D01*
X157050000Y-86454285D01*
X157097619Y-86406666D01*
X158002381Y-85930476D02*
X158002381Y-85740000D01*
X157954762Y-85644761D01*
X157907143Y-85597142D01*
X157764286Y-85501904D01*
X157573810Y-85454285D01*
X157192857Y-85454285D01*
X157097619Y-85501904D01*
X157050000Y-85549523D01*
X157002381Y-85644761D01*
X157002381Y-85835238D01*
X157050000Y-85930476D01*
X157097619Y-85978095D01*
X157192857Y-86025714D01*
X157430952Y-86025714D01*
X157526190Y-85978095D01*
X157573810Y-85930476D01*
X157621429Y-85835238D01*
X157621429Y-85644761D01*
X157573810Y-85549523D01*
X157526190Y-85501904D01*
X157430952Y-85454285D01*
X152277143Y-76287143D02*
X152229524Y-76334762D01*
X152086667Y-76382381D01*
X151991429Y-76382381D01*
X151848571Y-76334762D01*
X151753333Y-76239524D01*
X151705714Y-76144286D01*
X151658095Y-75953810D01*
X151658095Y-75810952D01*
X151705714Y-75620476D01*
X151753333Y-75525238D01*
X151848571Y-75430000D01*
X151991429Y-75382381D01*
X152086667Y-75382381D01*
X152229524Y-75430000D01*
X152277143Y-75477619D01*
X153229524Y-76382381D02*
X152658095Y-76382381D01*
X152943809Y-76382381D02*
X152943809Y-75382381D01*
X152848571Y-75525238D01*
X152753333Y-75620476D01*
X152658095Y-75668095D01*
X153610476Y-75477619D02*
X153658095Y-75430000D01*
X153753333Y-75382381D01*
X153991429Y-75382381D01*
X154086667Y-75430000D01*
X154134286Y-75477619D01*
X154181905Y-75572857D01*
X154181905Y-75668095D01*
X154134286Y-75810952D01*
X153562857Y-76382381D01*
X154181905Y-76382381D01*
X143537143Y-73232857D02*
X143584762Y-73280476D01*
X143632381Y-73423333D01*
X143632381Y-73518571D01*
X143584762Y-73661429D01*
X143489524Y-73756667D01*
X143394286Y-73804286D01*
X143203810Y-73851905D01*
X143060952Y-73851905D01*
X142870476Y-73804286D01*
X142775238Y-73756667D01*
X142680000Y-73661429D01*
X142632381Y-73518571D01*
X142632381Y-73423333D01*
X142680000Y-73280476D01*
X142727619Y-73232857D01*
X143632381Y-72280476D02*
X143632381Y-72851905D01*
X143632381Y-72566191D02*
X142632381Y-72566191D01*
X142775238Y-72661429D01*
X142870476Y-72756667D01*
X142918095Y-72851905D01*
X142632381Y-71947143D02*
X142632381Y-71280476D01*
X143632381Y-71709048D01*
X150132381Y-80322857D02*
X149656190Y-80656191D01*
X150132381Y-80894286D02*
X149132381Y-80894286D01*
X149132381Y-80513333D01*
X149180000Y-80418095D01*
X149227619Y-80370476D01*
X149322857Y-80322857D01*
X149465714Y-80322857D01*
X149560952Y-80370476D01*
X149608571Y-80418095D01*
X149656190Y-80513333D01*
X149656190Y-80894286D01*
X150132381Y-79370476D02*
X150132381Y-79941905D01*
X150132381Y-79656191D02*
X149132381Y-79656191D01*
X149275238Y-79751429D01*
X149370476Y-79846667D01*
X149418095Y-79941905D01*
X150132381Y-78894286D02*
X150132381Y-78703810D01*
X150084762Y-78608571D01*
X150037143Y-78560952D01*
X149894286Y-78465714D01*
X149703810Y-78418095D01*
X149322857Y-78418095D01*
X149227619Y-78465714D01*
X149180000Y-78513333D01*
X149132381Y-78608571D01*
X149132381Y-78799048D01*
X149180000Y-78894286D01*
X149227619Y-78941905D01*
X149322857Y-78989524D01*
X149560952Y-78989524D01*
X149656190Y-78941905D01*
X149703810Y-78894286D01*
X149751429Y-78799048D01*
X149751429Y-78608571D01*
X149703810Y-78513333D01*
X149656190Y-78465714D01*
X149560952Y-78418095D01*
X166882381Y-87686666D02*
X166882381Y-88162857D01*
X165882381Y-88162857D01*
X166882381Y-86829523D02*
X166882381Y-87400952D01*
X166882381Y-87115238D02*
X165882381Y-87115238D01*
X166025238Y-87210476D01*
X166120476Y-87305714D01*
X166168095Y-87400952D01*
X155437143Y-80362381D02*
X155103809Y-79886190D01*
X154865714Y-80362381D02*
X154865714Y-79362381D01*
X155246667Y-79362381D01*
X155341905Y-79410000D01*
X155389524Y-79457619D01*
X155437143Y-79552857D01*
X155437143Y-79695714D01*
X155389524Y-79790952D01*
X155341905Y-79838571D01*
X155246667Y-79886190D01*
X154865714Y-79886190D01*
X156389524Y-80362381D02*
X155818095Y-80362381D01*
X156103809Y-80362381D02*
X156103809Y-79362381D01*
X156008571Y-79505238D01*
X155913333Y-79600476D01*
X155818095Y-79648095D01*
X156722857Y-79362381D02*
X157341905Y-79362381D01*
X157008571Y-79743333D01*
X157151429Y-79743333D01*
X157246667Y-79790952D01*
X157294286Y-79838571D01*
X157341905Y-79933810D01*
X157341905Y-80171905D01*
X157294286Y-80267143D01*
X157246667Y-80314762D01*
X157151429Y-80362381D01*
X156865714Y-80362381D01*
X156770476Y-80314762D01*
X156722857Y-80267143D01*
X139982381Y-91822857D02*
X139506190Y-92156191D01*
X139982381Y-92394286D02*
X138982381Y-92394286D01*
X138982381Y-92013333D01*
X139030000Y-91918095D01*
X139077619Y-91870476D01*
X139172857Y-91822857D01*
X139315714Y-91822857D01*
X139410952Y-91870476D01*
X139458571Y-91918095D01*
X139506190Y-92013333D01*
X139506190Y-92394286D01*
X139315714Y-90965714D02*
X139982381Y-90965714D01*
X138934762Y-91203810D02*
X139649048Y-91441905D01*
X139649048Y-90822857D01*
X138982381Y-90251429D02*
X138982381Y-90156190D01*
X139030000Y-90060952D01*
X139077619Y-90013333D01*
X139172857Y-89965714D01*
X139363333Y-89918095D01*
X139601429Y-89918095D01*
X139791905Y-89965714D01*
X139887143Y-90013333D01*
X139934762Y-90060952D01*
X139982381Y-90156190D01*
X139982381Y-90251429D01*
X139934762Y-90346667D01*
X139887143Y-90394286D01*
X139791905Y-90441905D01*
X139601429Y-90489524D01*
X139363333Y-90489524D01*
X139172857Y-90441905D01*
X139077619Y-90394286D01*
X139030000Y-90346667D01*
X138982381Y-90251429D01*
X139302381Y-87522857D02*
X138826190Y-87856191D01*
X139302381Y-88094286D02*
X138302381Y-88094286D01*
X138302381Y-87713333D01*
X138350000Y-87618095D01*
X138397619Y-87570476D01*
X138492857Y-87522857D01*
X138635714Y-87522857D01*
X138730952Y-87570476D01*
X138778571Y-87618095D01*
X138826190Y-87713333D01*
X138826190Y-88094286D01*
X138635714Y-86665714D02*
X139302381Y-86665714D01*
X138254762Y-86903810D02*
X138969048Y-87141905D01*
X138969048Y-86522857D01*
X138397619Y-86189524D02*
X138350000Y-86141905D01*
X138302381Y-86046667D01*
X138302381Y-85808571D01*
X138350000Y-85713333D01*
X138397619Y-85665714D01*
X138492857Y-85618095D01*
X138588095Y-85618095D01*
X138730952Y-85665714D01*
X139302381Y-86237143D01*
X139302381Y-85618095D01*
X119957143Y-83392857D02*
X120004762Y-83440476D01*
X120052381Y-83583333D01*
X120052381Y-83678571D01*
X120004762Y-83821429D01*
X119909524Y-83916667D01*
X119814286Y-83964286D01*
X119623810Y-84011905D01*
X119480952Y-84011905D01*
X119290476Y-83964286D01*
X119195238Y-83916667D01*
X119100000Y-83821429D01*
X119052381Y-83678571D01*
X119052381Y-83583333D01*
X119100000Y-83440476D01*
X119147619Y-83392857D01*
X119052381Y-83059524D02*
X119052381Y-82440476D01*
X119433333Y-82773810D01*
X119433333Y-82630952D01*
X119480952Y-82535714D01*
X119528571Y-82488095D01*
X119623810Y-82440476D01*
X119861905Y-82440476D01*
X119957143Y-82488095D01*
X120004762Y-82535714D01*
X120052381Y-82630952D01*
X120052381Y-82916667D01*
X120004762Y-83011905D01*
X119957143Y-83059524D01*
X119052381Y-81821429D02*
X119052381Y-81726190D01*
X119100000Y-81630952D01*
X119147619Y-81583333D01*
X119242857Y-81535714D01*
X119433333Y-81488095D01*
X119671429Y-81488095D01*
X119861905Y-81535714D01*
X119957143Y-81583333D01*
X120004762Y-81630952D01*
X120052381Y-81726190D01*
X120052381Y-81821429D01*
X120004762Y-81916667D01*
X119957143Y-81964286D01*
X119861905Y-82011905D01*
X119671429Y-82059524D01*
X119433333Y-82059524D01*
X119242857Y-82011905D01*
X119147619Y-81964286D01*
X119100000Y-81916667D01*
X119052381Y-81821429D01*
X97670953Y-50132381D02*
X97194762Y-50132381D01*
X97194762Y-49132381D01*
X98004286Y-49608571D02*
X98337620Y-49608571D01*
X98480477Y-50132381D02*
X98004286Y-50132381D01*
X98004286Y-49132381D01*
X98480477Y-49132381D01*
X98909048Y-50132381D02*
X98909048Y-49132381D01*
X99147143Y-49132381D01*
X99290001Y-49180000D01*
X99385239Y-49275238D01*
X99432858Y-49370476D01*
X99480477Y-49560952D01*
X99480477Y-49703810D01*
X99432858Y-49894286D01*
X99385239Y-49989524D01*
X99290001Y-50084762D01*
X99147143Y-50132381D01*
X98909048Y-50132381D01*
X100432858Y-50132381D02*
X99861429Y-50132381D01*
X100147143Y-50132381D02*
X100147143Y-49132381D01*
X100051905Y-49275238D01*
X99956667Y-49370476D01*
X99861429Y-49418095D01*
X110270953Y-50182381D02*
X109794762Y-50182381D01*
X109794762Y-49182381D01*
X110604286Y-49658571D02*
X110937620Y-49658571D01*
X111080477Y-50182381D02*
X110604286Y-50182381D01*
X110604286Y-49182381D01*
X111080477Y-49182381D01*
X111509048Y-50182381D02*
X111509048Y-49182381D01*
X111747143Y-49182381D01*
X111890001Y-49230000D01*
X111985239Y-49325238D01*
X112032858Y-49420476D01*
X112080477Y-49610952D01*
X112080477Y-49753810D01*
X112032858Y-49944286D01*
X111985239Y-50039524D01*
X111890001Y-50134762D01*
X111747143Y-50182381D01*
X111509048Y-50182381D01*
X112461429Y-49277619D02*
X112509048Y-49230000D01*
X112604286Y-49182381D01*
X112842382Y-49182381D01*
X112937620Y-49230000D01*
X112985239Y-49277619D01*
X113032858Y-49372857D01*
X113032858Y-49468095D01*
X112985239Y-49610952D01*
X112413810Y-50182381D01*
X113032858Y-50182381D01*
X122660953Y-50192381D02*
X122184762Y-50192381D01*
X122184762Y-49192381D01*
X122994286Y-49668571D02*
X123327620Y-49668571D01*
X123470477Y-50192381D02*
X122994286Y-50192381D01*
X122994286Y-49192381D01*
X123470477Y-49192381D01*
X123899048Y-50192381D02*
X123899048Y-49192381D01*
X124137143Y-49192381D01*
X124280001Y-49240000D01*
X124375239Y-49335238D01*
X124422858Y-49430476D01*
X124470477Y-49620952D01*
X124470477Y-49763810D01*
X124422858Y-49954286D01*
X124375239Y-50049524D01*
X124280001Y-50144762D01*
X124137143Y-50192381D01*
X123899048Y-50192381D01*
X124803810Y-49192381D02*
X125422858Y-49192381D01*
X125089524Y-49573333D01*
X125232382Y-49573333D01*
X125327620Y-49620952D01*
X125375239Y-49668571D01*
X125422858Y-49763810D01*
X125422858Y-50001905D01*
X125375239Y-50097143D01*
X125327620Y-50144762D01*
X125232382Y-50192381D01*
X124946667Y-50192381D01*
X124851429Y-50144762D01*
X124803810Y-50097143D01*
X134980953Y-50212381D02*
X134504762Y-50212381D01*
X134504762Y-49212381D01*
X135314286Y-49688571D02*
X135647620Y-49688571D01*
X135790477Y-50212381D02*
X135314286Y-50212381D01*
X135314286Y-49212381D01*
X135790477Y-49212381D01*
X136219048Y-50212381D02*
X136219048Y-49212381D01*
X136457143Y-49212381D01*
X136600001Y-49260000D01*
X136695239Y-49355238D01*
X136742858Y-49450476D01*
X136790477Y-49640952D01*
X136790477Y-49783810D01*
X136742858Y-49974286D01*
X136695239Y-50069524D01*
X136600001Y-50164762D01*
X136457143Y-50212381D01*
X136219048Y-50212381D01*
X137647620Y-49545714D02*
X137647620Y-50212381D01*
X137409524Y-49164762D02*
X137171429Y-49879048D01*
X137790477Y-49879048D01*
X120327143Y-79252857D02*
X120374762Y-79300476D01*
X120422381Y-79443333D01*
X120422381Y-79538571D01*
X120374762Y-79681429D01*
X120279524Y-79776667D01*
X120184286Y-79824286D01*
X119993810Y-79871905D01*
X119850952Y-79871905D01*
X119660476Y-79824286D01*
X119565238Y-79776667D01*
X119470000Y-79681429D01*
X119422381Y-79538571D01*
X119422381Y-79443333D01*
X119470000Y-79300476D01*
X119517619Y-79252857D01*
X119517619Y-78871905D02*
X119470000Y-78824286D01*
X119422381Y-78729048D01*
X119422381Y-78490952D01*
X119470000Y-78395714D01*
X119517619Y-78348095D01*
X119612857Y-78300476D01*
X119708095Y-78300476D01*
X119850952Y-78348095D01*
X120422381Y-78919524D01*
X120422381Y-78300476D01*
X119850952Y-77729048D02*
X119803333Y-77824286D01*
X119755714Y-77871905D01*
X119660476Y-77919524D01*
X119612857Y-77919524D01*
X119517619Y-77871905D01*
X119470000Y-77824286D01*
X119422381Y-77729048D01*
X119422381Y-77538571D01*
X119470000Y-77443333D01*
X119517619Y-77395714D01*
X119612857Y-77348095D01*
X119660476Y-77348095D01*
X119755714Y-77395714D01*
X119803333Y-77443333D01*
X119850952Y-77538571D01*
X119850952Y-77729048D01*
X119898571Y-77824286D01*
X119946190Y-77871905D01*
X120041429Y-77919524D01*
X120231905Y-77919524D01*
X120327143Y-77871905D01*
X120374762Y-77824286D01*
X120422381Y-77729048D01*
X120422381Y-77538571D01*
X120374762Y-77443333D01*
X120327143Y-77395714D01*
X120231905Y-77348095D01*
X120041429Y-77348095D01*
X119946190Y-77395714D01*
X119898571Y-77443333D01*
X119850952Y-77538571D01*
X103187143Y-52602857D02*
X103234762Y-52650476D01*
X103282381Y-52793333D01*
X103282381Y-52888571D01*
X103234762Y-53031429D01*
X103139524Y-53126667D01*
X103044286Y-53174286D01*
X102853810Y-53221905D01*
X102710952Y-53221905D01*
X102520476Y-53174286D01*
X102425238Y-53126667D01*
X102330000Y-53031429D01*
X102282381Y-52888571D01*
X102282381Y-52793333D01*
X102330000Y-52650476D01*
X102377619Y-52602857D01*
X103282381Y-51650476D02*
X103282381Y-52221905D01*
X103282381Y-51936191D02*
X102282381Y-51936191D01*
X102425238Y-52031429D01*
X102520476Y-52126667D01*
X102568095Y-52221905D01*
X102710952Y-51079048D02*
X102663333Y-51174286D01*
X102615714Y-51221905D01*
X102520476Y-51269524D01*
X102472857Y-51269524D01*
X102377619Y-51221905D01*
X102330000Y-51174286D01*
X102282381Y-51079048D01*
X102282381Y-50888571D01*
X102330000Y-50793333D01*
X102377619Y-50745714D01*
X102472857Y-50698095D01*
X102520476Y-50698095D01*
X102615714Y-50745714D01*
X102663333Y-50793333D01*
X102710952Y-50888571D01*
X102710952Y-51079048D01*
X102758571Y-51174286D01*
X102806190Y-51221905D01*
X102901429Y-51269524D01*
X103091905Y-51269524D01*
X103187143Y-51221905D01*
X103234762Y-51174286D01*
X103282381Y-51079048D01*
X103282381Y-50888571D01*
X103234762Y-50793333D01*
X103187143Y-50745714D01*
X103091905Y-50698095D01*
X102901429Y-50698095D01*
X102806190Y-50745714D01*
X102758571Y-50793333D01*
X102710952Y-50888571D01*
X115677143Y-52732857D02*
X115724762Y-52780476D01*
X115772381Y-52923333D01*
X115772381Y-53018571D01*
X115724762Y-53161429D01*
X115629524Y-53256667D01*
X115534286Y-53304286D01*
X115343810Y-53351905D01*
X115200952Y-53351905D01*
X115010476Y-53304286D01*
X114915238Y-53256667D01*
X114820000Y-53161429D01*
X114772381Y-53018571D01*
X114772381Y-52923333D01*
X114820000Y-52780476D01*
X114867619Y-52732857D01*
X115772381Y-51780476D02*
X115772381Y-52351905D01*
X115772381Y-52066191D02*
X114772381Y-52066191D01*
X114915238Y-52161429D01*
X115010476Y-52256667D01*
X115058095Y-52351905D01*
X115772381Y-51304286D02*
X115772381Y-51113810D01*
X115724762Y-51018571D01*
X115677143Y-50970952D01*
X115534286Y-50875714D01*
X115343810Y-50828095D01*
X114962857Y-50828095D01*
X114867619Y-50875714D01*
X114820000Y-50923333D01*
X114772381Y-51018571D01*
X114772381Y-51209048D01*
X114820000Y-51304286D01*
X114867619Y-51351905D01*
X114962857Y-51399524D01*
X115200952Y-51399524D01*
X115296190Y-51351905D01*
X115343810Y-51304286D01*
X115391429Y-51209048D01*
X115391429Y-51018571D01*
X115343810Y-50923333D01*
X115296190Y-50875714D01*
X115200952Y-50828095D01*
X140337143Y-52762857D02*
X140384762Y-52810476D01*
X140432381Y-52953333D01*
X140432381Y-53048571D01*
X140384762Y-53191429D01*
X140289524Y-53286667D01*
X140194286Y-53334286D01*
X140003810Y-53381905D01*
X139860952Y-53381905D01*
X139670476Y-53334286D01*
X139575238Y-53286667D01*
X139480000Y-53191429D01*
X139432381Y-53048571D01*
X139432381Y-52953333D01*
X139480000Y-52810476D01*
X139527619Y-52762857D01*
X139527619Y-52381905D02*
X139480000Y-52334286D01*
X139432381Y-52239048D01*
X139432381Y-52000952D01*
X139480000Y-51905714D01*
X139527619Y-51858095D01*
X139622857Y-51810476D01*
X139718095Y-51810476D01*
X139860952Y-51858095D01*
X140432381Y-52429524D01*
X140432381Y-51810476D01*
X139432381Y-51191429D02*
X139432381Y-51096190D01*
X139480000Y-51000952D01*
X139527619Y-50953333D01*
X139622857Y-50905714D01*
X139813333Y-50858095D01*
X140051429Y-50858095D01*
X140241905Y-50905714D01*
X140337143Y-50953333D01*
X140384762Y-51000952D01*
X140432381Y-51096190D01*
X140432381Y-51191429D01*
X140384762Y-51286667D01*
X140337143Y-51334286D01*
X140241905Y-51381905D01*
X140051429Y-51429524D01*
X139813333Y-51429524D01*
X139622857Y-51381905D01*
X139527619Y-51334286D01*
X139480000Y-51286667D01*
X139432381Y-51191429D01*
X127967143Y-52392857D02*
X128014762Y-52440476D01*
X128062381Y-52583333D01*
X128062381Y-52678571D01*
X128014762Y-52821429D01*
X127919524Y-52916667D01*
X127824286Y-52964286D01*
X127633810Y-53011905D01*
X127490952Y-53011905D01*
X127300476Y-52964286D01*
X127205238Y-52916667D01*
X127110000Y-52821429D01*
X127062381Y-52678571D01*
X127062381Y-52583333D01*
X127110000Y-52440476D01*
X127157619Y-52392857D01*
X127157619Y-52011905D02*
X127110000Y-51964286D01*
X127062381Y-51869048D01*
X127062381Y-51630952D01*
X127110000Y-51535714D01*
X127157619Y-51488095D01*
X127252857Y-51440476D01*
X127348095Y-51440476D01*
X127490952Y-51488095D01*
X128062381Y-52059524D01*
X128062381Y-51440476D01*
X128062381Y-50488095D02*
X128062381Y-51059524D01*
X128062381Y-50773810D02*
X127062381Y-50773810D01*
X127205238Y-50869048D01*
X127300476Y-50964286D01*
X127348095Y-51059524D01*
X178717143Y-56332857D02*
X178764762Y-56380476D01*
X178812381Y-56523333D01*
X178812381Y-56618571D01*
X178764762Y-56761429D01*
X178669524Y-56856667D01*
X178574286Y-56904286D01*
X178383810Y-56951905D01*
X178240952Y-56951905D01*
X178050476Y-56904286D01*
X177955238Y-56856667D01*
X177860000Y-56761429D01*
X177812381Y-56618571D01*
X177812381Y-56523333D01*
X177860000Y-56380476D01*
X177907619Y-56332857D01*
X177907619Y-55951905D02*
X177860000Y-55904286D01*
X177812381Y-55809048D01*
X177812381Y-55570952D01*
X177860000Y-55475714D01*
X177907619Y-55428095D01*
X178002857Y-55380476D01*
X178098095Y-55380476D01*
X178240952Y-55428095D01*
X178812381Y-55999524D01*
X178812381Y-55380476D01*
X177812381Y-55047143D02*
X177812381Y-54428095D01*
X178193333Y-54761429D01*
X178193333Y-54618571D01*
X178240952Y-54523333D01*
X178288571Y-54475714D01*
X178383810Y-54428095D01*
X178621905Y-54428095D01*
X178717143Y-54475714D01*
X178764762Y-54523333D01*
X178812381Y-54618571D01*
X178812381Y-54904286D01*
X178764762Y-54999524D01*
X178717143Y-55047143D01*
X131927143Y-66657143D02*
X131879524Y-66704762D01*
X131736667Y-66752381D01*
X131641429Y-66752381D01*
X131498571Y-66704762D01*
X131403333Y-66609524D01*
X131355714Y-66514286D01*
X131308095Y-66323810D01*
X131308095Y-66180952D01*
X131355714Y-65990476D01*
X131403333Y-65895238D01*
X131498571Y-65800000D01*
X131641429Y-65752381D01*
X131736667Y-65752381D01*
X131879524Y-65800000D01*
X131927143Y-65847619D01*
X132308095Y-65847619D02*
X132355714Y-65800000D01*
X132450952Y-65752381D01*
X132689048Y-65752381D01*
X132784286Y-65800000D01*
X132831905Y-65847619D01*
X132879524Y-65942857D01*
X132879524Y-66038095D01*
X132831905Y-66180952D01*
X132260476Y-66752381D01*
X132879524Y-66752381D01*
X133736667Y-65752381D02*
X133546190Y-65752381D01*
X133450952Y-65800000D01*
X133403333Y-65847619D01*
X133308095Y-65990476D01*
X133260476Y-66180952D01*
X133260476Y-66561905D01*
X133308095Y-66657143D01*
X133355714Y-66704762D01*
X133450952Y-66752381D01*
X133641429Y-66752381D01*
X133736667Y-66704762D01*
X133784286Y-66657143D01*
X133831905Y-66561905D01*
X133831905Y-66323810D01*
X133784286Y-66228571D01*
X133736667Y-66180952D01*
X133641429Y-66133333D01*
X133450952Y-66133333D01*
X133355714Y-66180952D01*
X133308095Y-66228571D01*
X133260476Y-66323810D01*
X131817143Y-72767143D02*
X131769524Y-72814762D01*
X131626667Y-72862381D01*
X131531429Y-72862381D01*
X131388571Y-72814762D01*
X131293333Y-72719524D01*
X131245714Y-72624286D01*
X131198095Y-72433810D01*
X131198095Y-72290952D01*
X131245714Y-72100476D01*
X131293333Y-72005238D01*
X131388571Y-71910000D01*
X131531429Y-71862381D01*
X131626667Y-71862381D01*
X131769524Y-71910000D01*
X131817143Y-71957619D01*
X132198095Y-71957619D02*
X132245714Y-71910000D01*
X132340952Y-71862381D01*
X132579048Y-71862381D01*
X132674286Y-71910000D01*
X132721905Y-71957619D01*
X132769524Y-72052857D01*
X132769524Y-72148095D01*
X132721905Y-72290952D01*
X132150476Y-72862381D01*
X132769524Y-72862381D01*
X133102857Y-71862381D02*
X133769524Y-71862381D01*
X133340952Y-72862381D01*
X127857143Y-77697143D02*
X127809524Y-77744762D01*
X127666667Y-77792381D01*
X127571429Y-77792381D01*
X127428571Y-77744762D01*
X127333333Y-77649524D01*
X127285714Y-77554286D01*
X127238095Y-77363810D01*
X127238095Y-77220952D01*
X127285714Y-77030476D01*
X127333333Y-76935238D01*
X127428571Y-76840000D01*
X127571429Y-76792381D01*
X127666667Y-76792381D01*
X127809524Y-76840000D01*
X127857143Y-76887619D01*
X128238095Y-76887619D02*
X128285714Y-76840000D01*
X128380952Y-76792381D01*
X128619048Y-76792381D01*
X128714286Y-76840000D01*
X128761905Y-76887619D01*
X128809524Y-76982857D01*
X128809524Y-77078095D01*
X128761905Y-77220952D01*
X128190476Y-77792381D01*
X128809524Y-77792381D01*
X129285714Y-77792381D02*
X129476190Y-77792381D01*
X129571429Y-77744762D01*
X129619048Y-77697143D01*
X129714286Y-77554286D01*
X129761905Y-77363810D01*
X129761905Y-76982857D01*
X129714286Y-76887619D01*
X129666667Y-76840000D01*
X129571429Y-76792381D01*
X129380952Y-76792381D01*
X129285714Y-76840000D01*
X129238095Y-76887619D01*
X129190476Y-76982857D01*
X129190476Y-77220952D01*
X129238095Y-77316190D01*
X129285714Y-77363810D01*
X129380952Y-77411429D01*
X129571429Y-77411429D01*
X129666667Y-77363810D01*
X129714286Y-77316190D01*
X129761905Y-77220952D01*
X99792381Y-63656857D02*
X99316190Y-63990191D01*
X99792381Y-64228286D02*
X98792381Y-64228286D01*
X98792381Y-63847333D01*
X98840000Y-63752095D01*
X98887619Y-63704476D01*
X98982857Y-63656857D01*
X99125714Y-63656857D01*
X99220952Y-63704476D01*
X99268571Y-63752095D01*
X99316190Y-63847333D01*
X99316190Y-64228286D01*
X98887619Y-63275905D02*
X98840000Y-63228286D01*
X98792381Y-63133048D01*
X98792381Y-62894952D01*
X98840000Y-62799714D01*
X98887619Y-62752095D01*
X98982857Y-62704476D01*
X99078095Y-62704476D01*
X99220952Y-62752095D01*
X99792381Y-63323524D01*
X99792381Y-62704476D01*
X98887619Y-62323524D02*
X98840000Y-62275905D01*
X98792381Y-62180667D01*
X98792381Y-61942571D01*
X98840000Y-61847333D01*
X98887619Y-61799714D01*
X98982857Y-61752095D01*
X99078095Y-61752095D01*
X99220952Y-61799714D01*
X99792381Y-62371143D01*
X99792381Y-61752095D01*
X132017143Y-80082381D02*
X131683809Y-79606190D01*
X131445714Y-80082381D02*
X131445714Y-79082381D01*
X131826667Y-79082381D01*
X131921905Y-79130000D01*
X131969524Y-79177619D01*
X132017143Y-79272857D01*
X132017143Y-79415714D01*
X131969524Y-79510952D01*
X131921905Y-79558571D01*
X131826667Y-79606190D01*
X131445714Y-79606190D01*
X132398095Y-79177619D02*
X132445714Y-79130000D01*
X132540952Y-79082381D01*
X132779048Y-79082381D01*
X132874286Y-79130000D01*
X132921905Y-79177619D01*
X132969524Y-79272857D01*
X132969524Y-79368095D01*
X132921905Y-79510952D01*
X132350476Y-80082381D01*
X132969524Y-80082381D01*
X133302857Y-79082381D02*
X133921905Y-79082381D01*
X133588571Y-79463333D01*
X133731429Y-79463333D01*
X133826667Y-79510952D01*
X133874286Y-79558571D01*
X133921905Y-79653810D01*
X133921905Y-79891905D01*
X133874286Y-79987143D01*
X133826667Y-80034762D01*
X133731429Y-80082381D01*
X133445714Y-80082381D01*
X133350476Y-80034762D01*
X133302857Y-79987143D01*
X132252381Y-84732857D02*
X131776190Y-85066191D01*
X132252381Y-85304286D02*
X131252381Y-85304286D01*
X131252381Y-84923333D01*
X131300000Y-84828095D01*
X131347619Y-84780476D01*
X131442857Y-84732857D01*
X131585714Y-84732857D01*
X131680952Y-84780476D01*
X131728571Y-84828095D01*
X131776190Y-84923333D01*
X131776190Y-85304286D01*
X131347619Y-84351905D02*
X131300000Y-84304286D01*
X131252381Y-84209048D01*
X131252381Y-83970952D01*
X131300000Y-83875714D01*
X131347619Y-83828095D01*
X131442857Y-83780476D01*
X131538095Y-83780476D01*
X131680952Y-83828095D01*
X132252381Y-84399524D01*
X132252381Y-83780476D01*
X131585714Y-82923333D02*
X132252381Y-82923333D01*
X131204762Y-83161429D02*
X131919048Y-83399524D01*
X131919048Y-82780476D01*
X97982381Y-62222857D02*
X97506190Y-62556191D01*
X97982381Y-62794286D02*
X96982381Y-62794286D01*
X96982381Y-62413333D01*
X97030000Y-62318095D01*
X97077619Y-62270476D01*
X97172857Y-62222857D01*
X97315714Y-62222857D01*
X97410952Y-62270476D01*
X97458571Y-62318095D01*
X97506190Y-62413333D01*
X97506190Y-62794286D01*
X97077619Y-61841905D02*
X97030000Y-61794286D01*
X96982381Y-61699048D01*
X96982381Y-61460952D01*
X97030000Y-61365714D01*
X97077619Y-61318095D01*
X97172857Y-61270476D01*
X97268095Y-61270476D01*
X97410952Y-61318095D01*
X97982381Y-61889524D01*
X97982381Y-61270476D01*
X96982381Y-60365714D02*
X96982381Y-60841905D01*
X97458571Y-60889524D01*
X97410952Y-60841905D01*
X97363333Y-60746667D01*
X97363333Y-60508571D01*
X97410952Y-60413333D01*
X97458571Y-60365714D01*
X97553810Y-60318095D01*
X97791905Y-60318095D01*
X97887143Y-60365714D01*
X97934762Y-60413333D01*
X97982381Y-60508571D01*
X97982381Y-60746667D01*
X97934762Y-60841905D01*
X97887143Y-60889524D01*
X133712381Y-75972857D02*
X133236190Y-76306191D01*
X133712381Y-76544286D02*
X132712381Y-76544286D01*
X132712381Y-76163333D01*
X132760000Y-76068095D01*
X132807619Y-76020476D01*
X132902857Y-75972857D01*
X133045714Y-75972857D01*
X133140952Y-76020476D01*
X133188571Y-76068095D01*
X133236190Y-76163333D01*
X133236190Y-76544286D01*
X132807619Y-75591905D02*
X132760000Y-75544286D01*
X132712381Y-75449048D01*
X132712381Y-75210952D01*
X132760000Y-75115714D01*
X132807619Y-75068095D01*
X132902857Y-75020476D01*
X132998095Y-75020476D01*
X133140952Y-75068095D01*
X133712381Y-75639524D01*
X133712381Y-75020476D01*
X132712381Y-74163333D02*
X132712381Y-74353810D01*
X132760000Y-74449048D01*
X132807619Y-74496667D01*
X132950476Y-74591905D01*
X133140952Y-74639524D01*
X133521905Y-74639524D01*
X133617143Y-74591905D01*
X133664762Y-74544286D01*
X133712381Y-74449048D01*
X133712381Y-74258571D01*
X133664762Y-74163333D01*
X133617143Y-74115714D01*
X133521905Y-74068095D01*
X133283810Y-74068095D01*
X133188571Y-74115714D01*
X133140952Y-74163333D01*
X133093333Y-74258571D01*
X133093333Y-74449048D01*
X133140952Y-74544286D01*
X133188571Y-74591905D01*
X133283810Y-74639524D01*
X127952381Y-83412857D02*
X127476190Y-83746191D01*
X127952381Y-83984286D02*
X126952381Y-83984286D01*
X126952381Y-83603333D01*
X127000000Y-83508095D01*
X127047619Y-83460476D01*
X127142857Y-83412857D01*
X127285714Y-83412857D01*
X127380952Y-83460476D01*
X127428571Y-83508095D01*
X127476190Y-83603333D01*
X127476190Y-83984286D01*
X127047619Y-83031905D02*
X127000000Y-82984286D01*
X126952381Y-82889048D01*
X126952381Y-82650952D01*
X127000000Y-82555714D01*
X127047619Y-82508095D01*
X127142857Y-82460476D01*
X127238095Y-82460476D01*
X127380952Y-82508095D01*
X127952381Y-83079524D01*
X127952381Y-82460476D01*
X126952381Y-82127143D02*
X126952381Y-81460476D01*
X127952381Y-81889048D01*
X114527143Y-77832381D02*
X114193809Y-77356190D01*
X113955714Y-77832381D02*
X113955714Y-76832381D01*
X114336667Y-76832381D01*
X114431905Y-76880000D01*
X114479524Y-76927619D01*
X114527143Y-77022857D01*
X114527143Y-77165714D01*
X114479524Y-77260952D01*
X114431905Y-77308571D01*
X114336667Y-77356190D01*
X113955714Y-77356190D01*
X114908095Y-76927619D02*
X114955714Y-76880000D01*
X115050952Y-76832381D01*
X115289048Y-76832381D01*
X115384286Y-76880000D01*
X115431905Y-76927619D01*
X115479524Y-77022857D01*
X115479524Y-77118095D01*
X115431905Y-77260952D01*
X114860476Y-77832381D01*
X115479524Y-77832381D01*
X116050952Y-77260952D02*
X115955714Y-77213333D01*
X115908095Y-77165714D01*
X115860476Y-77070476D01*
X115860476Y-77022857D01*
X115908095Y-76927619D01*
X115955714Y-76880000D01*
X116050952Y-76832381D01*
X116241429Y-76832381D01*
X116336667Y-76880000D01*
X116384286Y-76927619D01*
X116431905Y-77022857D01*
X116431905Y-77070476D01*
X116384286Y-77165714D01*
X116336667Y-77213333D01*
X116241429Y-77260952D01*
X116050952Y-77260952D01*
X115955714Y-77308571D01*
X115908095Y-77356190D01*
X115860476Y-77451429D01*
X115860476Y-77641905D01*
X115908095Y-77737143D01*
X115955714Y-77784762D01*
X116050952Y-77832381D01*
X116241429Y-77832381D01*
X116336667Y-77784762D01*
X116384286Y-77737143D01*
X116431905Y-77641905D01*
X116431905Y-77451429D01*
X116384286Y-77356190D01*
X116336667Y-77308571D01*
X116241429Y-77260952D01*
X115157143Y-68512381D02*
X114823809Y-68036190D01*
X114585714Y-68512381D02*
X114585714Y-67512381D01*
X114966667Y-67512381D01*
X115061905Y-67560000D01*
X115109524Y-67607619D01*
X115157143Y-67702857D01*
X115157143Y-67845714D01*
X115109524Y-67940952D01*
X115061905Y-67988571D01*
X114966667Y-68036190D01*
X114585714Y-68036190D01*
X115538095Y-67607619D02*
X115585714Y-67560000D01*
X115680952Y-67512381D01*
X115919048Y-67512381D01*
X116014286Y-67560000D01*
X116061905Y-67607619D01*
X116109524Y-67702857D01*
X116109524Y-67798095D01*
X116061905Y-67940952D01*
X115490476Y-68512381D01*
X116109524Y-68512381D01*
X116585714Y-68512381D02*
X116776190Y-68512381D01*
X116871429Y-68464762D01*
X116919048Y-68417143D01*
X117014286Y-68274286D01*
X117061905Y-68083810D01*
X117061905Y-67702857D01*
X117014286Y-67607619D01*
X116966667Y-67560000D01*
X116871429Y-67512381D01*
X116680952Y-67512381D01*
X116585714Y-67560000D01*
X116538095Y-67607619D01*
X116490476Y-67702857D01*
X116490476Y-67940952D01*
X116538095Y-68036190D01*
X116585714Y-68083810D01*
X116680952Y-68131429D01*
X116871429Y-68131429D01*
X116966667Y-68083810D01*
X117014286Y-68036190D01*
X117061905Y-67940952D01*
X124037143Y-109552381D02*
X123703809Y-109076190D01*
X123465714Y-109552381D02*
X123465714Y-108552381D01*
X123846667Y-108552381D01*
X123941905Y-108600000D01*
X123989524Y-108647619D01*
X124037143Y-108742857D01*
X124037143Y-108885714D01*
X123989524Y-108980952D01*
X123941905Y-109028571D01*
X123846667Y-109076190D01*
X123465714Y-109076190D01*
X124370476Y-108552381D02*
X124989524Y-108552381D01*
X124656190Y-108933333D01*
X124799048Y-108933333D01*
X124894286Y-108980952D01*
X124941905Y-109028571D01*
X124989524Y-109123810D01*
X124989524Y-109361905D01*
X124941905Y-109457143D01*
X124894286Y-109504762D01*
X124799048Y-109552381D01*
X124513333Y-109552381D01*
X124418095Y-109504762D01*
X124370476Y-109457143D01*
X125846667Y-108552381D02*
X125656190Y-108552381D01*
X125560952Y-108600000D01*
X125513333Y-108647619D01*
X125418095Y-108790476D01*
X125370476Y-108980952D01*
X125370476Y-109361905D01*
X125418095Y-109457143D01*
X125465714Y-109504762D01*
X125560952Y-109552381D01*
X125751429Y-109552381D01*
X125846667Y-109504762D01*
X125894286Y-109457143D01*
X125941905Y-109361905D01*
X125941905Y-109123810D01*
X125894286Y-109028571D01*
X125846667Y-108980952D01*
X125751429Y-108933333D01*
X125560952Y-108933333D01*
X125465714Y-108980952D01*
X125418095Y-109028571D01*
X125370476Y-109123810D01*
X124237143Y-106952381D02*
X123903809Y-106476190D01*
X123665714Y-106952381D02*
X123665714Y-105952381D01*
X124046667Y-105952381D01*
X124141905Y-106000000D01*
X124189524Y-106047619D01*
X124237143Y-106142857D01*
X124237143Y-106285714D01*
X124189524Y-106380952D01*
X124141905Y-106428571D01*
X124046667Y-106476190D01*
X123665714Y-106476190D01*
X124570476Y-105952381D02*
X125189524Y-105952381D01*
X124856190Y-106333333D01*
X124999048Y-106333333D01*
X125094286Y-106380952D01*
X125141905Y-106428571D01*
X125189524Y-106523810D01*
X125189524Y-106761905D01*
X125141905Y-106857143D01*
X125094286Y-106904762D01*
X124999048Y-106952381D01*
X124713333Y-106952381D01*
X124618095Y-106904762D01*
X124570476Y-106857143D01*
X125522857Y-105952381D02*
X126189524Y-105952381D01*
X125760952Y-106952381D01*
X103577143Y-95232381D02*
X103243809Y-94756190D01*
X103005714Y-95232381D02*
X103005714Y-94232381D01*
X103386667Y-94232381D01*
X103481905Y-94280000D01*
X103529524Y-94327619D01*
X103577143Y-94422857D01*
X103577143Y-94565714D01*
X103529524Y-94660952D01*
X103481905Y-94708571D01*
X103386667Y-94756190D01*
X103005714Y-94756190D01*
X103910476Y-94232381D02*
X104529524Y-94232381D01*
X104196190Y-94613333D01*
X104339048Y-94613333D01*
X104434286Y-94660952D01*
X104481905Y-94708571D01*
X104529524Y-94803810D01*
X104529524Y-95041905D01*
X104481905Y-95137143D01*
X104434286Y-95184762D01*
X104339048Y-95232381D01*
X104053333Y-95232381D01*
X103958095Y-95184762D01*
X103910476Y-95137143D01*
X105100952Y-94660952D02*
X105005714Y-94613333D01*
X104958095Y-94565714D01*
X104910476Y-94470476D01*
X104910476Y-94422857D01*
X104958095Y-94327619D01*
X105005714Y-94280000D01*
X105100952Y-94232381D01*
X105291429Y-94232381D01*
X105386667Y-94280000D01*
X105434286Y-94327619D01*
X105481905Y-94422857D01*
X105481905Y-94470476D01*
X105434286Y-94565714D01*
X105386667Y-94613333D01*
X105291429Y-94660952D01*
X105100952Y-94660952D01*
X105005714Y-94708571D01*
X104958095Y-94756190D01*
X104910476Y-94851429D01*
X104910476Y-95041905D01*
X104958095Y-95137143D01*
X105005714Y-95184762D01*
X105100952Y-95232381D01*
X105291429Y-95232381D01*
X105386667Y-95184762D01*
X105434286Y-95137143D01*
X105481905Y-95041905D01*
X105481905Y-94851429D01*
X105434286Y-94756190D01*
X105386667Y-94708571D01*
X105291429Y-94660952D01*
X123882381Y-86652857D02*
X123406190Y-86986191D01*
X123882381Y-87224286D02*
X122882381Y-87224286D01*
X122882381Y-86843333D01*
X122930000Y-86748095D01*
X122977619Y-86700476D01*
X123072857Y-86652857D01*
X123215714Y-86652857D01*
X123310952Y-86700476D01*
X123358571Y-86748095D01*
X123406190Y-86843333D01*
X123406190Y-87224286D01*
X123215714Y-85795714D02*
X123882381Y-85795714D01*
X122834762Y-86033810D02*
X123549048Y-86271905D01*
X123549048Y-85652857D01*
X123215714Y-84843333D02*
X123882381Y-84843333D01*
X122834762Y-85081429D02*
X123549048Y-85319524D01*
X123549048Y-84700476D01*
X111457143Y-73452381D02*
X111123809Y-72976190D01*
X110885714Y-73452381D02*
X110885714Y-72452381D01*
X111266667Y-72452381D01*
X111361905Y-72500000D01*
X111409524Y-72547619D01*
X111457143Y-72642857D01*
X111457143Y-72785714D01*
X111409524Y-72880952D01*
X111361905Y-72928571D01*
X111266667Y-72976190D01*
X110885714Y-72976190D01*
X112314286Y-72785714D02*
X112314286Y-73452381D01*
X112076190Y-72404762D02*
X111838095Y-73119048D01*
X112457143Y-73119048D01*
X113314286Y-72452381D02*
X112838095Y-72452381D01*
X112790476Y-72928571D01*
X112838095Y-72880952D01*
X112933333Y-72833333D01*
X113171429Y-72833333D01*
X113266667Y-72880952D01*
X113314286Y-72928571D01*
X113361905Y-73023810D01*
X113361905Y-73261905D01*
X113314286Y-73357143D01*
X113266667Y-73404762D01*
X113171429Y-73452381D01*
X112933333Y-73452381D01*
X112838095Y-73404762D01*
X112790476Y-73357143D01*
X157394762Y-63177619D02*
X157299524Y-63130000D01*
X157204286Y-63034762D01*
X157061429Y-62891905D01*
X156966190Y-62844286D01*
X156870952Y-62844286D01*
X156918571Y-63082381D02*
X156823333Y-63034762D01*
X156728095Y-62939524D01*
X156680476Y-62749048D01*
X156680476Y-62415714D01*
X156728095Y-62225238D01*
X156823333Y-62130000D01*
X156918571Y-62082381D01*
X157109048Y-62082381D01*
X157204286Y-62130000D01*
X157299524Y-62225238D01*
X157347143Y-62415714D01*
X157347143Y-62749048D01*
X157299524Y-62939524D01*
X157204286Y-63034762D01*
X157109048Y-63082381D01*
X156918571Y-63082381D01*
X157680476Y-62082381D02*
X158347143Y-62082381D01*
X157918571Y-63082381D01*
X149834762Y-59957619D02*
X149739524Y-59910000D01*
X149644286Y-59814762D01*
X149501429Y-59671905D01*
X149406190Y-59624286D01*
X149310952Y-59624286D01*
X149358571Y-59862381D02*
X149263333Y-59814762D01*
X149168095Y-59719524D01*
X149120476Y-59529048D01*
X149120476Y-59195714D01*
X149168095Y-59005238D01*
X149263333Y-58910000D01*
X149358571Y-58862381D01*
X149549048Y-58862381D01*
X149644286Y-58910000D01*
X149739524Y-59005238D01*
X149787143Y-59195714D01*
X149787143Y-59529048D01*
X149739524Y-59719524D01*
X149644286Y-59814762D01*
X149549048Y-59862381D01*
X149358571Y-59862381D01*
X150263333Y-59862381D02*
X150453809Y-59862381D01*
X150549048Y-59814762D01*
X150596667Y-59767143D01*
X150691905Y-59624286D01*
X150739524Y-59433810D01*
X150739524Y-59052857D01*
X150691905Y-58957619D01*
X150644286Y-58910000D01*
X150549048Y-58862381D01*
X150358571Y-58862381D01*
X150263333Y-58910000D01*
X150215714Y-58957619D01*
X150168095Y-59052857D01*
X150168095Y-59290952D01*
X150215714Y-59386190D01*
X150263333Y-59433810D01*
X150358571Y-59481429D01*
X150549048Y-59481429D01*
X150644286Y-59433810D01*
X150691905Y-59386190D01*
X150739524Y-59290952D01*
X147622381Y-86292857D02*
X147146190Y-86626191D01*
X147622381Y-86864286D02*
X146622381Y-86864286D01*
X146622381Y-86483333D01*
X146670000Y-86388095D01*
X146717619Y-86340476D01*
X146812857Y-86292857D01*
X146955714Y-86292857D01*
X147050952Y-86340476D01*
X147098571Y-86388095D01*
X147146190Y-86483333D01*
X147146190Y-86864286D01*
X146622381Y-85959524D02*
X146622381Y-85340476D01*
X147003333Y-85673810D01*
X147003333Y-85530952D01*
X147050952Y-85435714D01*
X147098571Y-85388095D01*
X147193810Y-85340476D01*
X147431905Y-85340476D01*
X147527143Y-85388095D01*
X147574762Y-85435714D01*
X147622381Y-85530952D01*
X147622381Y-85816667D01*
X147574762Y-85911905D01*
X147527143Y-85959524D01*
X146622381Y-84721429D02*
X146622381Y-84626190D01*
X146670000Y-84530952D01*
X146717619Y-84483333D01*
X146812857Y-84435714D01*
X147003333Y-84388095D01*
X147241429Y-84388095D01*
X147431905Y-84435714D01*
X147527143Y-84483333D01*
X147574762Y-84530952D01*
X147622381Y-84626190D01*
X147622381Y-84721429D01*
X147574762Y-84816667D01*
X147527143Y-84864286D01*
X147431905Y-84911905D01*
X147241429Y-84959524D01*
X147003333Y-84959524D01*
X146812857Y-84911905D01*
X146717619Y-84864286D01*
X146670000Y-84816667D01*
X146622381Y-84721429D01*
X143412381Y-84828095D02*
X142412381Y-84828095D01*
X142412381Y-84590000D01*
X142460000Y-84447142D01*
X142555238Y-84351904D01*
X142650476Y-84304285D01*
X142840952Y-84256666D01*
X142983810Y-84256666D01*
X143174286Y-84304285D01*
X143269524Y-84351904D01*
X143364762Y-84447142D01*
X143412381Y-84590000D01*
X143412381Y-84828095D01*
X142507619Y-83875714D02*
X142460000Y-83828095D01*
X142412381Y-83732857D01*
X142412381Y-83494761D01*
X142460000Y-83399523D01*
X142507619Y-83351904D01*
X142602857Y-83304285D01*
X142698095Y-83304285D01*
X142840952Y-83351904D01*
X143412381Y-83923333D01*
X143412381Y-83304285D01*
X183397143Y-87212857D02*
X183444762Y-87260476D01*
X183492381Y-87403333D01*
X183492381Y-87498571D01*
X183444762Y-87641429D01*
X183349524Y-87736667D01*
X183254286Y-87784286D01*
X183063810Y-87831905D01*
X182920952Y-87831905D01*
X182730476Y-87784286D01*
X182635238Y-87736667D01*
X182540000Y-87641429D01*
X182492381Y-87498571D01*
X182492381Y-87403333D01*
X182540000Y-87260476D01*
X182587619Y-87212857D01*
X182825714Y-86355714D02*
X183492381Y-86355714D01*
X182444762Y-86593810D02*
X183159048Y-86831905D01*
X183159048Y-86212857D01*
X182825714Y-85403333D02*
X183492381Y-85403333D01*
X182444762Y-85641429D02*
X183159048Y-85879524D01*
X183159048Y-85260476D01*
X105647143Y-101672857D02*
X105694762Y-101720476D01*
X105742381Y-101863333D01*
X105742381Y-101958571D01*
X105694762Y-102101429D01*
X105599524Y-102196667D01*
X105504286Y-102244286D01*
X105313810Y-102291905D01*
X105170952Y-102291905D01*
X104980476Y-102244286D01*
X104885238Y-102196667D01*
X104790000Y-102101429D01*
X104742381Y-101958571D01*
X104742381Y-101863333D01*
X104790000Y-101720476D01*
X104837619Y-101672857D01*
X104742381Y-101339524D02*
X104742381Y-100720476D01*
X105123333Y-101053810D01*
X105123333Y-100910952D01*
X105170952Y-100815714D01*
X105218571Y-100768095D01*
X105313810Y-100720476D01*
X105551905Y-100720476D01*
X105647143Y-100768095D01*
X105694762Y-100815714D01*
X105742381Y-100910952D01*
X105742381Y-101196667D01*
X105694762Y-101291905D01*
X105647143Y-101339524D01*
X104742381Y-100387143D02*
X104742381Y-99720476D01*
X105742381Y-100149048D01*
X144297971Y-104057107D02*
X144297971Y-104124450D01*
X144230627Y-104259137D01*
X144163284Y-104326481D01*
X144028596Y-104393825D01*
X143893909Y-104393825D01*
X143792894Y-104360153D01*
X143624536Y-104259138D01*
X143523520Y-104158122D01*
X143422505Y-103989763D01*
X143388833Y-103888748D01*
X143388833Y-103754061D01*
X143456177Y-103619374D01*
X143523520Y-103552030D01*
X143658207Y-103484687D01*
X143725551Y-103484687D01*
X143893909Y-103181641D02*
X144331642Y-102743908D01*
X144365313Y-103248985D01*
X144466329Y-103147969D01*
X144567344Y-103114297D01*
X144634688Y-103114297D01*
X144735704Y-103147970D01*
X144904062Y-103316328D01*
X144937734Y-103417343D01*
X144937734Y-103484687D01*
X144904062Y-103585702D01*
X144702031Y-103787733D01*
X144601016Y-103821405D01*
X144533673Y-103821405D01*
X144668360Y-102541878D02*
X144668360Y-102474535D01*
X144702031Y-102373519D01*
X144870391Y-102205160D01*
X144971406Y-102171488D01*
X145038749Y-102171488D01*
X145139764Y-102205160D01*
X145207108Y-102272504D01*
X145274451Y-102407190D01*
X145274451Y-103215313D01*
X145712184Y-102777580D01*
X150797970Y-107477107D02*
X150797970Y-107544450D01*
X150730626Y-107679137D01*
X150663283Y-107746481D01*
X150528595Y-107813825D01*
X150393908Y-107813825D01*
X150292893Y-107780153D01*
X150124535Y-107679138D01*
X150023519Y-107578122D01*
X149922504Y-107409763D01*
X149888832Y-107308748D01*
X149888832Y-107174061D01*
X149956176Y-107039374D01*
X150023519Y-106972030D01*
X150158206Y-106904687D01*
X150225550Y-106904687D01*
X150393908Y-106601641D02*
X150831641Y-106163908D01*
X150865312Y-106668985D01*
X150966328Y-106567969D01*
X151067343Y-106534297D01*
X151134687Y-106534297D01*
X151235703Y-106567970D01*
X151404061Y-106736328D01*
X151437733Y-106837343D01*
X151437733Y-106904687D01*
X151404061Y-107005702D01*
X151202030Y-107207733D01*
X151101015Y-107241405D01*
X151033672Y-107241405D01*
X151067343Y-105928206D02*
X151505076Y-105490473D01*
X151538747Y-105995550D01*
X151639763Y-105894534D01*
X151740778Y-105860862D01*
X151808122Y-105860862D01*
X151909138Y-105894535D01*
X152077496Y-106062893D01*
X152111168Y-106163908D01*
X152111168Y-106231252D01*
X152077496Y-106332267D01*
X151875465Y-106534298D01*
X151774450Y-106567970D01*
X151707107Y-106567970D01*
X143976447Y-105619882D02*
X144313165Y-105956600D01*
X143370356Y-105485195D02*
X143976447Y-105619882D01*
X143841761Y-105013790D01*
X144111134Y-104879103D02*
X144111134Y-104811760D01*
X144144806Y-104710745D01*
X144313165Y-104542385D01*
X144414181Y-104508714D01*
X144481524Y-104508714D01*
X144582539Y-104542385D01*
X144649883Y-104609729D01*
X144717226Y-104744416D01*
X144717226Y-105552538D01*
X145154959Y-105114805D01*
M02*
