G04 #@! TF.FileFunction,Other,User*
%FSLAX46Y46*%
G04 Gerber Fmt 4.6, Leading zero omitted, Abs format (unit mm)*
G04 Created by KiCad (PCBNEW 4.0.5) date 02/02/17 00:28:59*
%MOMM*%
%LPD*%
G01*
G04 APERTURE LIST*
%ADD10C,0.100000*%
%ADD11C,0.050000*%
%ADD12C,0.152400*%
%ADD13C,0.150000*%
G04 APERTURE END LIST*
D10*
D11*
X145950000Y-67450000D02*
X150350000Y-67450000D01*
X145950000Y-69850000D02*
X150350000Y-69850000D01*
X145950000Y-67450000D02*
X145950000Y-69850000D01*
X150350000Y-67450000D02*
X150350000Y-69850000D01*
X186890000Y-82750000D02*
X186890000Y-77950000D01*
X186890000Y-77950000D02*
X183590000Y-77950000D01*
X183590000Y-77950000D02*
X183590000Y-82750000D01*
X183590000Y-82750000D02*
X186890000Y-82750000D01*
D12*
X169570000Y-113360000D02*
X185570000Y-107560000D01*
X185570000Y-113360000D02*
X169570000Y-107560000D01*
X185570000Y-113360000D02*
X185570000Y-107560000D01*
X185570000Y-107560000D02*
X169570000Y-107560000D01*
X169570000Y-107560000D02*
X169570000Y-113360000D01*
X169570000Y-113360000D02*
X185570000Y-113360000D01*
D11*
X147016727Y-99397487D02*
X144753985Y-101660229D01*
X145602513Y-97983273D02*
X143339771Y-100246015D01*
X147016727Y-99397487D02*
X145602513Y-97983273D01*
X144753985Y-101660229D02*
X143339771Y-100246015D01*
X165440000Y-53930000D02*
X165440000Y-57530000D01*
X163440000Y-53930000D02*
X163440000Y-57530000D01*
X165440000Y-53930000D02*
X163440000Y-53930000D01*
X165440000Y-57530000D02*
X163440000Y-57530000D01*
X142274769Y-93950000D02*
X151750000Y-103425231D01*
X151750000Y-84474769D02*
X161225231Y-93950000D01*
X142274769Y-93950000D02*
X151750000Y-84474769D01*
X151750000Y-103425231D02*
X161225231Y-93950000D01*
X148500000Y-76650000D02*
X144900000Y-76650000D01*
X148500000Y-74650000D02*
X144900000Y-74650000D01*
X148500000Y-76650000D02*
X148500000Y-74650000D01*
X144900000Y-76650000D02*
X144900000Y-74650000D01*
X146550000Y-74350000D02*
X146550000Y-70750000D01*
X146550000Y-70750000D02*
X149750000Y-70750000D01*
X149750000Y-70750000D02*
X149750000Y-74350000D01*
X149750000Y-74350000D02*
X146550000Y-74350000D01*
X155970000Y-74490000D02*
X155970000Y-70890000D01*
X155970000Y-70890000D02*
X159170000Y-70890000D01*
X159170000Y-70890000D02*
X159170000Y-74490000D01*
X159170000Y-74490000D02*
X155970000Y-74490000D01*
X161570000Y-71290000D02*
X161570000Y-74490000D01*
X159570000Y-71290000D02*
X159570000Y-74490000D01*
X161570000Y-71290000D02*
X159570000Y-71290000D01*
X161570000Y-74490000D02*
X159570000Y-74490000D01*
X153320000Y-74490000D02*
X153320000Y-70890000D01*
X155320000Y-74490000D02*
X155320000Y-70890000D01*
X153320000Y-74490000D02*
X155320000Y-74490000D01*
X153320000Y-70890000D02*
X155320000Y-70890000D01*
X155420000Y-67590000D02*
X159820000Y-67590000D01*
X155420000Y-69990000D02*
X159820000Y-69990000D01*
X155420000Y-67590000D02*
X155420000Y-69990000D01*
X159820000Y-67590000D02*
X159820000Y-69990000D01*
X148300000Y-78950000D02*
X145100000Y-78950000D01*
X148300000Y-76950000D02*
X145100000Y-76950000D01*
X148300000Y-78950000D02*
X148300000Y-76950000D01*
X145100000Y-78950000D02*
X145100000Y-76950000D01*
X128100000Y-68900000D02*
X117800000Y-68900000D01*
X128100000Y-76200000D02*
X117800000Y-76200000D01*
X128100000Y-68900000D02*
X128100000Y-76200000D01*
X117800000Y-68900000D02*
X117800000Y-76200000D01*
X117400000Y-97950000D02*
X117400000Y-104850000D01*
X126000000Y-97950000D02*
X126000000Y-104850000D01*
X117400000Y-97950000D02*
X126000000Y-97950000D01*
X117400000Y-104850000D02*
X126000000Y-104850000D01*
X96550000Y-52749020D02*
X98450000Y-52749020D01*
X98450000Y-52749020D02*
X98450000Y-56549020D01*
X98450000Y-56549020D02*
X96550000Y-56549020D01*
X96550000Y-56549020D02*
X96550000Y-52749020D01*
X130450000Y-105150000D02*
X127250000Y-105150000D01*
X130450000Y-103150000D02*
X127250000Y-103150000D01*
X130450000Y-105150000D02*
X130450000Y-103150000D01*
X127250000Y-105150000D02*
X127250000Y-103150000D01*
X115700000Y-107350000D02*
X112500000Y-107350000D01*
X115700000Y-105350000D02*
X112500000Y-105350000D01*
X115700000Y-107350000D02*
X115700000Y-105350000D01*
X112500000Y-107350000D02*
X112500000Y-105350000D01*
X123400000Y-113400000D02*
X119800000Y-113400000D01*
X123400000Y-111400000D02*
X119800000Y-111400000D01*
X123400000Y-113400000D02*
X123400000Y-111400000D01*
X119800000Y-113400000D02*
X119800000Y-111400000D01*
X111850000Y-97950000D02*
X111850000Y-101550000D01*
X109850000Y-97950000D02*
X109850000Y-101550000D01*
X111850000Y-97950000D02*
X109850000Y-97950000D01*
X111850000Y-101550000D02*
X109850000Y-101550000D01*
X132750000Y-102600000D02*
X129150000Y-102600000D01*
X132750000Y-100600000D02*
X129150000Y-100600000D01*
X132750000Y-102600000D02*
X132750000Y-100600000D01*
X129150000Y-102600000D02*
X129150000Y-100600000D01*
X113750000Y-105150000D02*
X113750000Y-101550000D01*
X115750000Y-105150000D02*
X115750000Y-101550000D01*
X113750000Y-105150000D02*
X115750000Y-105150000D01*
X113750000Y-101550000D02*
X115750000Y-101550000D01*
X111900000Y-102000000D02*
X111900000Y-105600000D01*
X109900000Y-102000000D02*
X109900000Y-105600000D01*
X111900000Y-102000000D02*
X109900000Y-102000000D01*
X111900000Y-105600000D02*
X109900000Y-105600000D01*
X161200000Y-91250000D02*
X164800000Y-91250000D01*
X161200000Y-93250000D02*
X164800000Y-93250000D01*
X161200000Y-91250000D02*
X161200000Y-93250000D01*
X164800000Y-91250000D02*
X164800000Y-93250000D01*
X158500000Y-88050000D02*
X158500000Y-84450000D01*
X160500000Y-88050000D02*
X160500000Y-84450000D01*
X158500000Y-88050000D02*
X160500000Y-88050000D01*
X158500000Y-84450000D02*
X160500000Y-84450000D01*
X157970000Y-76790000D02*
X154370000Y-76790000D01*
X157970000Y-74790000D02*
X154370000Y-74790000D01*
X157970000Y-76790000D02*
X157970000Y-74790000D01*
X154370000Y-76790000D02*
X154370000Y-74790000D01*
X144000000Y-74350000D02*
X144000000Y-70750000D01*
X146000000Y-74350000D02*
X146000000Y-70750000D01*
X144000000Y-74350000D02*
X146000000Y-74350000D01*
X144000000Y-70750000D02*
X146000000Y-70750000D01*
X148710000Y-77840000D02*
X148710000Y-74640000D01*
X150710000Y-77840000D02*
X150710000Y-74640000D01*
X148710000Y-77840000D02*
X150710000Y-77840000D01*
X148710000Y-74640000D02*
X150710000Y-74640000D01*
X165200000Y-91150000D02*
X161200000Y-91150000D01*
X165200000Y-84150000D02*
X165200000Y-91150000D01*
X161200000Y-84150000D02*
X165200000Y-84150000D01*
X161200000Y-91150000D02*
X161200000Y-84150000D01*
X157720000Y-79090000D02*
X154520000Y-79090000D01*
X157720000Y-77090000D02*
X154520000Y-77090000D01*
X157720000Y-79090000D02*
X157720000Y-77090000D01*
X154520000Y-79090000D02*
X154520000Y-77090000D01*
X140450000Y-92400000D02*
X140450000Y-89200000D01*
X142450000Y-92400000D02*
X142450000Y-89200000D01*
X140450000Y-92400000D02*
X142450000Y-92400000D01*
X140450000Y-89200000D02*
X142450000Y-89200000D01*
X141920000Y-85220000D02*
X141920000Y-88420000D01*
X139920000Y-85220000D02*
X139920000Y-88420000D01*
X141920000Y-85220000D02*
X139920000Y-85220000D01*
X141920000Y-88420000D02*
X139920000Y-88420000D01*
X120750000Y-84200000D02*
X120750000Y-81300000D01*
X122250000Y-84200000D02*
X122250000Y-81300000D01*
X120750000Y-84200000D02*
X122250000Y-84200000D01*
X120750000Y-81300000D02*
X122250000Y-81300000D01*
X104519020Y-48790000D02*
X104519020Y-50690000D01*
X104519020Y-50690000D02*
X100719020Y-50690000D01*
X100719020Y-50690000D02*
X100719020Y-48790000D01*
X100719020Y-48790000D02*
X104519020Y-48790000D01*
X117109020Y-48820000D02*
X117109020Y-50720000D01*
X117109020Y-50720000D02*
X113309020Y-50720000D01*
X113309020Y-50720000D02*
X113309020Y-48820000D01*
X113309020Y-48820000D02*
X117109020Y-48820000D01*
X129520980Y-48800000D02*
X129520980Y-50700000D01*
X129520980Y-50700000D02*
X125720980Y-50700000D01*
X125720980Y-50700000D02*
X125720980Y-48800000D01*
X125720980Y-48800000D02*
X129520980Y-48800000D01*
X141999020Y-48800000D02*
X141999020Y-50700000D01*
X141999020Y-50700000D02*
X138199020Y-50700000D01*
X138199020Y-50700000D02*
X138199020Y-48800000D01*
X138199020Y-48800000D02*
X141999020Y-48800000D01*
X121070000Y-80410000D02*
X121070000Y-76810000D01*
X123070000Y-80410000D02*
X123070000Y-76810000D01*
X121070000Y-80410000D02*
X123070000Y-80410000D01*
X121070000Y-76810000D02*
X123070000Y-76810000D01*
X103800000Y-53650000D02*
X103800000Y-57250000D01*
X101800000Y-53650000D02*
X101800000Y-57250000D01*
X103800000Y-53650000D02*
X101800000Y-53650000D01*
X103800000Y-57250000D02*
X101800000Y-57250000D01*
X116300000Y-53650000D02*
X116300000Y-57250000D01*
X114300000Y-53650000D02*
X114300000Y-57250000D01*
X116300000Y-53650000D02*
X114300000Y-53650000D01*
X116300000Y-57250000D02*
X114300000Y-57250000D01*
X141000000Y-53700000D02*
X141000000Y-57300000D01*
X139000000Y-53700000D02*
X139000000Y-57300000D01*
X141000000Y-53700000D02*
X139000000Y-53700000D01*
X141000000Y-57300000D02*
X139000000Y-57300000D01*
X128650000Y-53650000D02*
X128650000Y-57250000D01*
X126650000Y-53650000D02*
X126650000Y-57250000D01*
X128650000Y-53650000D02*
X126650000Y-53650000D01*
X128650000Y-57250000D02*
X126650000Y-57250000D01*
X177260000Y-53890000D02*
X177260000Y-57490000D01*
X175260000Y-53890000D02*
X175260000Y-57490000D01*
X177260000Y-53890000D02*
X175260000Y-53890000D01*
X177260000Y-57490000D02*
X175260000Y-57490000D01*
X130390000Y-66990000D02*
X133990000Y-66990000D01*
X130390000Y-68990000D02*
X133990000Y-68990000D01*
X130390000Y-66990000D02*
X130390000Y-68990000D01*
X133990000Y-66990000D02*
X133990000Y-68990000D01*
X130380000Y-69830000D02*
X133980000Y-69830000D01*
X130380000Y-71830000D02*
X133980000Y-71830000D01*
X130380000Y-69830000D02*
X130380000Y-71830000D01*
X133980000Y-69830000D02*
X133980000Y-71830000D01*
X128200000Y-76550000D02*
X128200000Y-72950000D01*
X130200000Y-76550000D02*
X130200000Y-72950000D01*
X128200000Y-76550000D02*
X130200000Y-76550000D01*
X128200000Y-72950000D02*
X130200000Y-72950000D01*
X98400000Y-63954000D02*
X98400000Y-67154000D01*
X96400000Y-63954000D02*
X96400000Y-67154000D01*
X98400000Y-63954000D02*
X96400000Y-63954000D01*
X98400000Y-67154000D02*
X96400000Y-67154000D01*
X131200000Y-80500000D02*
X128000000Y-80500000D01*
X131200000Y-78500000D02*
X128000000Y-78500000D01*
X131200000Y-80500000D02*
X131200000Y-78500000D01*
X128000000Y-80500000D02*
X128000000Y-78500000D01*
X128800000Y-85750000D02*
X128800000Y-82550000D01*
X130800000Y-85750000D02*
X130800000Y-82550000D01*
X128800000Y-85750000D02*
X130800000Y-85750000D01*
X128800000Y-82550000D02*
X130800000Y-82550000D01*
X98500000Y-56850000D02*
X98500000Y-60050000D01*
X96500000Y-56850000D02*
X96500000Y-60050000D01*
X98500000Y-56850000D02*
X96500000Y-56850000D01*
X98500000Y-60050000D02*
X96500000Y-60050000D01*
X132400000Y-73050000D02*
X132400000Y-76250000D01*
X130400000Y-73050000D02*
X130400000Y-76250000D01*
X132400000Y-73050000D02*
X130400000Y-73050000D01*
X132400000Y-76250000D02*
X130400000Y-76250000D01*
X124550000Y-84400000D02*
X124550000Y-81200000D01*
X126550000Y-84400000D02*
X126550000Y-81200000D01*
X124550000Y-84400000D02*
X126550000Y-84400000D01*
X124550000Y-81200000D02*
X126550000Y-81200000D01*
X113550000Y-74400000D02*
X116750000Y-74400000D01*
X113550000Y-76400000D02*
X116750000Y-76400000D01*
X113550000Y-74400000D02*
X113550000Y-76400000D01*
X116750000Y-74400000D02*
X116750000Y-76400000D01*
X117450000Y-71010000D02*
X114250000Y-71010000D01*
X117450000Y-69010000D02*
X114250000Y-69010000D01*
X117450000Y-71010000D02*
X117450000Y-69010000D01*
X114250000Y-71010000D02*
X114250000Y-69010000D01*
X120000000Y-108400000D02*
X123200000Y-108400000D01*
X120000000Y-110400000D02*
X123200000Y-110400000D01*
X120000000Y-108400000D02*
X120000000Y-110400000D01*
X123200000Y-108400000D02*
X123200000Y-110400000D01*
X123200000Y-107550000D02*
X120000000Y-107550000D01*
X123200000Y-105550000D02*
X120000000Y-105550000D01*
X123200000Y-107550000D02*
X123200000Y-105550000D01*
X120000000Y-107550000D02*
X120000000Y-105550000D01*
X105750000Y-97850000D02*
X102550000Y-97850000D01*
X105750000Y-95850000D02*
X102550000Y-95850000D01*
X105750000Y-97850000D02*
X105750000Y-95850000D01*
X102550000Y-97850000D02*
X102550000Y-95850000D01*
X124400000Y-81200000D02*
X124400000Y-84400000D01*
X122400000Y-81200000D02*
X122400000Y-84400000D01*
X124400000Y-81200000D02*
X122400000Y-81200000D01*
X124400000Y-84400000D02*
X122400000Y-84400000D01*
X113500000Y-72000000D02*
X116700000Y-72000000D01*
X113500000Y-74000000D02*
X116700000Y-74000000D01*
X113500000Y-72000000D02*
X113500000Y-74000000D01*
X116700000Y-72000000D02*
X116700000Y-74000000D01*
X155970000Y-63540000D02*
X159270000Y-63540000D01*
X159270000Y-63540000D02*
X159270000Y-66740000D01*
X159270000Y-66740000D02*
X155970000Y-66740000D01*
X155970000Y-66740000D02*
X155970000Y-63540000D01*
X146490000Y-60208220D02*
X149790000Y-60208220D01*
X149790000Y-60208220D02*
X149790000Y-63408220D01*
X149790000Y-63408220D02*
X146490000Y-63408220D01*
X146490000Y-63408220D02*
X146490000Y-60208220D01*
X143840000Y-89250000D02*
X143840000Y-86050000D01*
X145840000Y-89250000D02*
X145840000Y-86050000D01*
X143840000Y-89250000D02*
X145840000Y-89250000D01*
X143840000Y-86050000D02*
X145840000Y-86050000D01*
X143630000Y-88020700D02*
X142130000Y-88020700D01*
X142130000Y-88020700D02*
X142130000Y-85220700D01*
X142130000Y-85220700D02*
X143630000Y-85220700D01*
X143630000Y-85220700D02*
X143630000Y-88020700D01*
X184140000Y-88370000D02*
X184140000Y-84770000D01*
X186140000Y-88370000D02*
X186140000Y-84770000D01*
X184140000Y-88370000D02*
X186140000Y-88370000D01*
X184140000Y-84770000D02*
X186140000Y-84770000D01*
X106390000Y-103230000D02*
X106390000Y-98830000D01*
X109590000Y-103230000D02*
X109590000Y-98830000D01*
X106390000Y-103230000D02*
X109590000Y-103230000D01*
X106390000Y-98830000D02*
X109590000Y-98830000D01*
X148275965Y-100844695D02*
X146225355Y-102895305D01*
X147215305Y-99784035D02*
X145164695Y-101834645D01*
X148275965Y-100844695D02*
X147215305Y-99784035D01*
X146225355Y-102895305D02*
X145164695Y-101834645D01*
X147824035Y-106675305D02*
X149874645Y-104624695D01*
X148884695Y-107735965D02*
X150935305Y-105685355D01*
X147824035Y-106675305D02*
X148884695Y-107735965D01*
X149874645Y-104624695D02*
X150935305Y-105685355D01*
X149592082Y-104029289D02*
X147612183Y-102049390D01*
X147612183Y-102049390D02*
X145208020Y-104453553D01*
X145208020Y-104453553D02*
X147187919Y-106433452D01*
X147187919Y-106433452D02*
X149592082Y-104029289D01*
D13*
X173955714Y-110812381D02*
X173955714Y-109812381D01*
X174527143Y-110812381D01*
X174527143Y-109812381D01*
X175146190Y-110812381D02*
X175050952Y-110764762D01*
X175003333Y-110717143D01*
X174955714Y-110621905D01*
X174955714Y-110336190D01*
X175003333Y-110240952D01*
X175050952Y-110193333D01*
X175146190Y-110145714D01*
X175289048Y-110145714D01*
X175384286Y-110193333D01*
X175431905Y-110240952D01*
X175479524Y-110336190D01*
X175479524Y-110621905D01*
X175431905Y-110717143D01*
X175384286Y-110764762D01*
X175289048Y-110812381D01*
X175146190Y-110812381D01*
X177241429Y-110717143D02*
X177193810Y-110764762D01*
X177050953Y-110812381D01*
X176955715Y-110812381D01*
X176812857Y-110764762D01*
X176717619Y-110669524D01*
X176670000Y-110574286D01*
X176622381Y-110383810D01*
X176622381Y-110240952D01*
X176670000Y-110050476D01*
X176717619Y-109955238D01*
X176812857Y-109860000D01*
X176955715Y-109812381D01*
X177050953Y-109812381D01*
X177193810Y-109860000D01*
X177241429Y-109907619D01*
X177812857Y-110812381D02*
X177717619Y-110764762D01*
X177670000Y-110717143D01*
X177622381Y-110621905D01*
X177622381Y-110336190D01*
X177670000Y-110240952D01*
X177717619Y-110193333D01*
X177812857Y-110145714D01*
X177955715Y-110145714D01*
X178050953Y-110193333D01*
X178098572Y-110240952D01*
X178146191Y-110336190D01*
X178146191Y-110621905D01*
X178098572Y-110717143D01*
X178050953Y-110764762D01*
X177955715Y-110812381D01*
X177812857Y-110812381D01*
X178574762Y-110145714D02*
X178574762Y-111145714D01*
X178574762Y-110193333D02*
X178670000Y-110145714D01*
X178860477Y-110145714D01*
X178955715Y-110193333D01*
X179003334Y-110240952D01*
X179050953Y-110336190D01*
X179050953Y-110621905D01*
X179003334Y-110717143D01*
X178955715Y-110764762D01*
X178860477Y-110812381D01*
X178670000Y-110812381D01*
X178574762Y-110764762D01*
X179479524Y-110145714D02*
X179479524Y-111145714D01*
X179479524Y-110193333D02*
X179574762Y-110145714D01*
X179765239Y-110145714D01*
X179860477Y-110193333D01*
X179908096Y-110240952D01*
X179955715Y-110336190D01*
X179955715Y-110621905D01*
X179908096Y-110717143D01*
X179860477Y-110764762D01*
X179765239Y-110812381D01*
X179574762Y-110812381D01*
X179479524Y-110764762D01*
X180765239Y-110764762D02*
X180670001Y-110812381D01*
X180479524Y-110812381D01*
X180384286Y-110764762D01*
X180336667Y-110669524D01*
X180336667Y-110288571D01*
X180384286Y-110193333D01*
X180479524Y-110145714D01*
X180670001Y-110145714D01*
X180765239Y-110193333D01*
X180812858Y-110288571D01*
X180812858Y-110383810D01*
X180336667Y-110479048D01*
X181241429Y-110812381D02*
X181241429Y-110145714D01*
X181241429Y-110336190D02*
X181289048Y-110240952D01*
X181336667Y-110193333D01*
X181431905Y-110145714D01*
X181527144Y-110145714D01*
M02*
