G04 #@! TF.FileFunction,Other,Fab,Bot*
%FSLAX46Y46*%
G04 Gerber Fmt 4.6, Leading zero omitted, Abs format (unit mm)*
G04 Created by KiCad (PCBNEW 4.0.5) date 02/02/17 00:28:59*
%MOMM*%
%LPD*%
G01*
G04 APERTURE LIST*
%ADD10C,0.100000*%
%ADD11C,0.150000*%
G04 APERTURE END LIST*
D10*
D11*
X104571429Y-59702381D02*
X104571429Y-60511905D01*
X104523810Y-60607143D01*
X104476191Y-60654762D01*
X104380953Y-60702381D01*
X104190476Y-60702381D01*
X104095238Y-60654762D01*
X104047619Y-60607143D01*
X104000000Y-60511905D01*
X104000000Y-59702381D01*
X103571429Y-60654762D02*
X103428572Y-60702381D01*
X103190476Y-60702381D01*
X103095238Y-60654762D01*
X103047619Y-60607143D01*
X103000000Y-60511905D01*
X103000000Y-60416667D01*
X103047619Y-60321429D01*
X103095238Y-60273810D01*
X103190476Y-60226190D01*
X103380953Y-60178571D01*
X103476191Y-60130952D01*
X103523810Y-60083333D01*
X103571429Y-59988095D01*
X103571429Y-59892857D01*
X103523810Y-59797619D01*
X103476191Y-59750000D01*
X103380953Y-59702381D01*
X103142857Y-59702381D01*
X103000000Y-59750000D01*
X102238095Y-60178571D02*
X102095238Y-60226190D01*
X102047619Y-60273810D01*
X102000000Y-60369048D01*
X102000000Y-60511905D01*
X102047619Y-60607143D01*
X102095238Y-60654762D01*
X102190476Y-60702381D01*
X102571429Y-60702381D01*
X102571429Y-59702381D01*
X102238095Y-59702381D01*
X102142857Y-59750000D01*
X102095238Y-59797619D01*
X102047619Y-59892857D01*
X102047619Y-59988095D01*
X102095238Y-60083333D01*
X102142857Y-60130952D01*
X102238095Y-60178571D01*
X102571429Y-60178571D01*
X101809524Y-60797619D02*
X101047619Y-60797619D01*
X100857143Y-60416667D02*
X100380952Y-60416667D01*
X100952381Y-60702381D02*
X100619048Y-59702381D01*
X100285714Y-60702381D01*
X117071429Y-59702381D02*
X117071429Y-60511905D01*
X117023810Y-60607143D01*
X116976191Y-60654762D01*
X116880953Y-60702381D01*
X116690476Y-60702381D01*
X116595238Y-60654762D01*
X116547619Y-60607143D01*
X116500000Y-60511905D01*
X116500000Y-59702381D01*
X116071429Y-60654762D02*
X115928572Y-60702381D01*
X115690476Y-60702381D01*
X115595238Y-60654762D01*
X115547619Y-60607143D01*
X115500000Y-60511905D01*
X115500000Y-60416667D01*
X115547619Y-60321429D01*
X115595238Y-60273810D01*
X115690476Y-60226190D01*
X115880953Y-60178571D01*
X115976191Y-60130952D01*
X116023810Y-60083333D01*
X116071429Y-59988095D01*
X116071429Y-59892857D01*
X116023810Y-59797619D01*
X115976191Y-59750000D01*
X115880953Y-59702381D01*
X115642857Y-59702381D01*
X115500000Y-59750000D01*
X114738095Y-60178571D02*
X114595238Y-60226190D01*
X114547619Y-60273810D01*
X114500000Y-60369048D01*
X114500000Y-60511905D01*
X114547619Y-60607143D01*
X114595238Y-60654762D01*
X114690476Y-60702381D01*
X115071429Y-60702381D01*
X115071429Y-59702381D01*
X114738095Y-59702381D01*
X114642857Y-59750000D01*
X114595238Y-59797619D01*
X114547619Y-59892857D01*
X114547619Y-59988095D01*
X114595238Y-60083333D01*
X114642857Y-60130952D01*
X114738095Y-60178571D01*
X115071429Y-60178571D01*
X114309524Y-60797619D02*
X113547619Y-60797619D01*
X113357143Y-60416667D02*
X112880952Y-60416667D01*
X113452381Y-60702381D02*
X113119048Y-59702381D01*
X112785714Y-60702381D01*
X128019619Y-106850132D02*
X127972000Y-106897751D01*
X127924381Y-106992989D01*
X127924381Y-107231085D01*
X127972000Y-107326323D01*
X128019619Y-107373942D01*
X128114857Y-107421561D01*
X128210095Y-107421561D01*
X128352952Y-107373942D01*
X128924381Y-106802513D01*
X128924381Y-107421561D01*
X128019619Y-107802513D02*
X127972000Y-107850132D01*
X127924381Y-107945370D01*
X127924381Y-108183466D01*
X127972000Y-108278704D01*
X128019619Y-108326323D01*
X128114857Y-108373942D01*
X128210095Y-108373942D01*
X128352952Y-108326323D01*
X128924381Y-107754894D01*
X128924381Y-108373942D01*
X127924381Y-108992989D02*
X127924381Y-109088228D01*
X127972000Y-109183466D01*
X128019619Y-109231085D01*
X128114857Y-109278704D01*
X128305333Y-109326323D01*
X128543429Y-109326323D01*
X128733905Y-109278704D01*
X128829143Y-109231085D01*
X128876762Y-109183466D01*
X128924381Y-109088228D01*
X128924381Y-108992989D01*
X128876762Y-108897751D01*
X128829143Y-108850132D01*
X128733905Y-108802513D01*
X128543429Y-108754894D01*
X128305333Y-108754894D01*
X128114857Y-108802513D01*
X128019619Y-108850132D01*
X127972000Y-108897751D01*
X127924381Y-108992989D01*
X128257714Y-110183466D02*
X128924381Y-110183466D01*
X128257714Y-109754894D02*
X128781524Y-109754894D01*
X128876762Y-109802513D01*
X128924381Y-109897751D01*
X128924381Y-110040609D01*
X128876762Y-110135847D01*
X128829143Y-110183466D01*
X128400571Y-110992990D02*
X128400571Y-110659656D01*
X128924381Y-110659656D02*
X127924381Y-110659656D01*
X127924381Y-111135847D01*
X170092381Y-75561905D02*
X170092381Y-75657144D01*
X170140000Y-75752382D01*
X170187619Y-75800001D01*
X170282857Y-75847620D01*
X170473333Y-75895239D01*
X170711429Y-75895239D01*
X170901905Y-75847620D01*
X170997143Y-75800001D01*
X171044762Y-75752382D01*
X171092381Y-75657144D01*
X171092381Y-75561905D01*
X171044762Y-75466667D01*
X170997143Y-75419048D01*
X170901905Y-75371429D01*
X170711429Y-75323810D01*
X170473333Y-75323810D01*
X170282857Y-75371429D01*
X170187619Y-75419048D01*
X170140000Y-75466667D01*
X170092381Y-75561905D01*
X170997143Y-76323810D02*
X171044762Y-76371429D01*
X171092381Y-76323810D01*
X171044762Y-76276191D01*
X170997143Y-76323810D01*
X171092381Y-76323810D01*
X170092381Y-76990476D02*
X170092381Y-77085715D01*
X170140000Y-77180953D01*
X170187619Y-77228572D01*
X170282857Y-77276191D01*
X170473333Y-77323810D01*
X170711429Y-77323810D01*
X170901905Y-77276191D01*
X170997143Y-77228572D01*
X171044762Y-77180953D01*
X171092381Y-77085715D01*
X171092381Y-76990476D01*
X171044762Y-76895238D01*
X170997143Y-76847619D01*
X170901905Y-76800000D01*
X170711429Y-76752381D01*
X170473333Y-76752381D01*
X170282857Y-76800000D01*
X170187619Y-76847619D01*
X170140000Y-76895238D01*
X170092381Y-76990476D01*
X170187619Y-77704762D02*
X170140000Y-77752381D01*
X170092381Y-77847619D01*
X170092381Y-78085715D01*
X170140000Y-78180953D01*
X170187619Y-78228572D01*
X170282857Y-78276191D01*
X170378095Y-78276191D01*
X170520952Y-78228572D01*
X171092381Y-77657143D01*
X171092381Y-78276191D01*
X171092381Y-79276191D02*
X170616190Y-78942857D01*
X171092381Y-78704762D02*
X170092381Y-78704762D01*
X170092381Y-79085715D01*
X170140000Y-79180953D01*
X170187619Y-79228572D01*
X170282857Y-79276191D01*
X170425714Y-79276191D01*
X170520952Y-79228572D01*
X170568571Y-79180953D01*
X170616190Y-79085715D01*
X170616190Y-78704762D01*
X147932381Y-79993334D02*
X147932381Y-79421905D01*
X147932381Y-79707619D02*
X146932381Y-79707619D01*
X147075238Y-79612381D01*
X147170476Y-79517143D01*
X147218095Y-79421905D01*
X146932381Y-80612381D02*
X146932381Y-80707620D01*
X146980000Y-80802858D01*
X147027619Y-80850477D01*
X147122857Y-80898096D01*
X147313333Y-80945715D01*
X147551429Y-80945715D01*
X147741905Y-80898096D01*
X147837143Y-80850477D01*
X147884762Y-80802858D01*
X147932381Y-80707620D01*
X147932381Y-80612381D01*
X147884762Y-80517143D01*
X147837143Y-80469524D01*
X147741905Y-80421905D01*
X147551429Y-80374286D01*
X147313333Y-80374286D01*
X147122857Y-80421905D01*
X147027619Y-80469524D01*
X146980000Y-80517143D01*
X146932381Y-80612381D01*
X146932381Y-81564762D02*
X146932381Y-81660001D01*
X146980000Y-81755239D01*
X147027619Y-81802858D01*
X147122857Y-81850477D01*
X147313333Y-81898096D01*
X147551429Y-81898096D01*
X147741905Y-81850477D01*
X147837143Y-81802858D01*
X147884762Y-81755239D01*
X147932381Y-81660001D01*
X147932381Y-81564762D01*
X147884762Y-81469524D01*
X147837143Y-81421905D01*
X147741905Y-81374286D01*
X147551429Y-81326667D01*
X147313333Y-81326667D01*
X147122857Y-81374286D01*
X147027619Y-81421905D01*
X146980000Y-81469524D01*
X146932381Y-81564762D01*
X147932381Y-82898096D02*
X147456190Y-82564762D01*
X147932381Y-82326667D02*
X146932381Y-82326667D01*
X146932381Y-82707620D01*
X146980000Y-82802858D01*
X147027619Y-82850477D01*
X147122857Y-82898096D01*
X147265714Y-82898096D01*
X147360952Y-82850477D01*
X147408571Y-82802858D01*
X147456190Y-82707620D01*
X147456190Y-82326667D01*
X150826666Y-54272381D02*
X151398095Y-54272381D01*
X151112381Y-54272381D02*
X151112381Y-53272381D01*
X151207619Y-53415238D01*
X151302857Y-53510476D01*
X151398095Y-53558095D01*
X150207619Y-53272381D02*
X150112380Y-53272381D01*
X150017142Y-53320000D01*
X149969523Y-53367619D01*
X149921904Y-53462857D01*
X149874285Y-53653333D01*
X149874285Y-53891429D01*
X149921904Y-54081905D01*
X149969523Y-54177143D01*
X150017142Y-54224762D01*
X150112380Y-54272381D01*
X150207619Y-54272381D01*
X150302857Y-54224762D01*
X150350476Y-54177143D01*
X150398095Y-54081905D01*
X150445714Y-53891429D01*
X150445714Y-53653333D01*
X150398095Y-53462857D01*
X150350476Y-53367619D01*
X150302857Y-53320000D01*
X150207619Y-53272381D01*
X149255238Y-53272381D02*
X149159999Y-53272381D01*
X149064761Y-53320000D01*
X149017142Y-53367619D01*
X148969523Y-53462857D01*
X148921904Y-53653333D01*
X148921904Y-53891429D01*
X148969523Y-54081905D01*
X149017142Y-54177143D01*
X149064761Y-54224762D01*
X149159999Y-54272381D01*
X149255238Y-54272381D01*
X149350476Y-54224762D01*
X149398095Y-54177143D01*
X149445714Y-54081905D01*
X149493333Y-53891429D01*
X149493333Y-53653333D01*
X149445714Y-53462857D01*
X149398095Y-53367619D01*
X149350476Y-53320000D01*
X149255238Y-53272381D01*
X147921904Y-54272381D02*
X148255238Y-53796190D01*
X148493333Y-54272381D02*
X148493333Y-53272381D01*
X148112380Y-53272381D01*
X148017142Y-53320000D01*
X147969523Y-53367619D01*
X147921904Y-53462857D01*
X147921904Y-53605714D01*
X147969523Y-53700952D01*
X148017142Y-53748571D01*
X148112380Y-53796190D01*
X148493333Y-53796190D01*
X154462381Y-55841905D02*
X154462381Y-55937144D01*
X154510000Y-56032382D01*
X154557619Y-56080001D01*
X154652857Y-56127620D01*
X154843333Y-56175239D01*
X155081429Y-56175239D01*
X155271905Y-56127620D01*
X155367143Y-56080001D01*
X155414762Y-56032382D01*
X155462381Y-55937144D01*
X155462381Y-55841905D01*
X155414762Y-55746667D01*
X155367143Y-55699048D01*
X155271905Y-55651429D01*
X155081429Y-55603810D01*
X154843333Y-55603810D01*
X154652857Y-55651429D01*
X154557619Y-55699048D01*
X154510000Y-55746667D01*
X154462381Y-55841905D01*
X155367143Y-56603810D02*
X155414762Y-56651429D01*
X155462381Y-56603810D01*
X155414762Y-56556191D01*
X155367143Y-56603810D01*
X155462381Y-56603810D01*
X154462381Y-57270476D02*
X154462381Y-57365715D01*
X154510000Y-57460953D01*
X154557619Y-57508572D01*
X154652857Y-57556191D01*
X154843333Y-57603810D01*
X155081429Y-57603810D01*
X155271905Y-57556191D01*
X155367143Y-57508572D01*
X155414762Y-57460953D01*
X155462381Y-57365715D01*
X155462381Y-57270476D01*
X155414762Y-57175238D01*
X155367143Y-57127619D01*
X155271905Y-57080000D01*
X155081429Y-57032381D01*
X154843333Y-57032381D01*
X154652857Y-57080000D01*
X154557619Y-57127619D01*
X154510000Y-57175238D01*
X154462381Y-57270476D01*
X154557619Y-57984762D02*
X154510000Y-58032381D01*
X154462381Y-58127619D01*
X154462381Y-58365715D01*
X154510000Y-58460953D01*
X154557619Y-58508572D01*
X154652857Y-58556191D01*
X154748095Y-58556191D01*
X154890952Y-58508572D01*
X155462381Y-57937143D01*
X155462381Y-58556191D01*
X155462381Y-59556191D02*
X154986190Y-59222857D01*
X155462381Y-58984762D02*
X154462381Y-58984762D01*
X154462381Y-59365715D01*
X154510000Y-59460953D01*
X154557619Y-59508572D01*
X154652857Y-59556191D01*
X154795714Y-59556191D01*
X154890952Y-59508572D01*
X154938571Y-59460953D01*
X154986190Y-59365715D01*
X154986190Y-58984762D01*
X168492381Y-78433334D02*
X168492381Y-77861905D01*
X168492381Y-78147619D02*
X167492381Y-78147619D01*
X167635238Y-78052381D01*
X167730476Y-77957143D01*
X167778095Y-77861905D01*
X167825714Y-78861905D02*
X168492381Y-78861905D01*
X167920952Y-78861905D02*
X167873333Y-78909524D01*
X167825714Y-79004762D01*
X167825714Y-79147620D01*
X167873333Y-79242858D01*
X167968571Y-79290477D01*
X168492381Y-79290477D01*
X170209047Y-78902381D02*
X170780476Y-78902381D01*
X170494762Y-78902381D02*
X170494762Y-77902381D01*
X170590000Y-78045238D01*
X170685238Y-78140476D01*
X170780476Y-78188095D01*
X169590000Y-77902381D02*
X169494761Y-77902381D01*
X169399523Y-77950000D01*
X169351904Y-77997619D01*
X169304285Y-78092857D01*
X169256666Y-78283333D01*
X169256666Y-78521429D01*
X169304285Y-78711905D01*
X169351904Y-78807143D01*
X169399523Y-78854762D01*
X169494761Y-78902381D01*
X169590000Y-78902381D01*
X169685238Y-78854762D01*
X169732857Y-78807143D01*
X169780476Y-78711905D01*
X169828095Y-78521429D01*
X169828095Y-78283333D01*
X169780476Y-78092857D01*
X169732857Y-77997619D01*
X169685238Y-77950000D01*
X169590000Y-77902381D01*
X168637619Y-77902381D02*
X168542380Y-77902381D01*
X168447142Y-77950000D01*
X168399523Y-77997619D01*
X168351904Y-78092857D01*
X168304285Y-78283333D01*
X168304285Y-78521429D01*
X168351904Y-78711905D01*
X168399523Y-78807143D01*
X168447142Y-78854762D01*
X168542380Y-78902381D01*
X168637619Y-78902381D01*
X168732857Y-78854762D01*
X168780476Y-78807143D01*
X168828095Y-78711905D01*
X168875714Y-78521429D01*
X168875714Y-78283333D01*
X168828095Y-78092857D01*
X168780476Y-77997619D01*
X168732857Y-77950000D01*
X168637619Y-77902381D01*
X167875714Y-78235714D02*
X167875714Y-78902381D01*
X167875714Y-78330952D02*
X167828095Y-78283333D01*
X167732857Y-78235714D01*
X167589999Y-78235714D01*
X167494761Y-78283333D01*
X167447142Y-78378571D01*
X167447142Y-78902381D01*
X170966190Y-75402381D02*
X171442381Y-75402381D01*
X171442381Y-74402381D01*
X170775714Y-74402381D02*
X170204285Y-74402381D01*
X170490000Y-75402381D02*
X170490000Y-74402381D01*
X169442380Y-74402381D02*
X169632857Y-74402381D01*
X169728095Y-74450000D01*
X169775714Y-74497619D01*
X169870952Y-74640476D01*
X169918571Y-74830952D01*
X169918571Y-75211905D01*
X169870952Y-75307143D01*
X169823333Y-75354762D01*
X169728095Y-75402381D01*
X169537618Y-75402381D01*
X169442380Y-75354762D01*
X169394761Y-75307143D01*
X169347142Y-75211905D01*
X169347142Y-74973810D01*
X169394761Y-74878571D01*
X169442380Y-74830952D01*
X169537618Y-74783333D01*
X169728095Y-74783333D01*
X169823333Y-74830952D01*
X169870952Y-74878571D01*
X169918571Y-74973810D01*
X168394761Y-75402381D02*
X168966190Y-75402381D01*
X168680476Y-75402381D02*
X168680476Y-74402381D01*
X168775714Y-74545238D01*
X168870952Y-74640476D01*
X168966190Y-74688095D01*
X167775714Y-74402381D02*
X167680475Y-74402381D01*
X167585237Y-74450000D01*
X167537618Y-74497619D01*
X167489999Y-74592857D01*
X167442380Y-74783333D01*
X167442380Y-75021429D01*
X167489999Y-75211905D01*
X167537618Y-75307143D01*
X167585237Y-75354762D01*
X167680475Y-75402381D01*
X167775714Y-75402381D01*
X167870952Y-75354762D01*
X167918571Y-75307143D01*
X167966190Y-75211905D01*
X168013809Y-75021429D01*
X168013809Y-74783333D01*
X167966190Y-74592857D01*
X167918571Y-74497619D01*
X167870952Y-74450000D01*
X167775714Y-74402381D01*
X166585237Y-74402381D02*
X166775714Y-74402381D01*
X166870952Y-74450000D01*
X166918571Y-74497619D01*
X167013809Y-74640476D01*
X167061428Y-74830952D01*
X167061428Y-75211905D01*
X167013809Y-75307143D01*
X166966190Y-75354762D01*
X166870952Y-75402381D01*
X166680475Y-75402381D01*
X166585237Y-75354762D01*
X166537618Y-75307143D01*
X166489999Y-75211905D01*
X166489999Y-74973810D01*
X166537618Y-74878571D01*
X166585237Y-74830952D01*
X166680475Y-74783333D01*
X166870952Y-74783333D01*
X166966190Y-74830952D01*
X167013809Y-74878571D01*
X167061428Y-74973810D01*
X170006666Y-76852381D02*
X170578095Y-76852381D01*
X170292381Y-76852381D02*
X170292381Y-75852381D01*
X170387619Y-75995238D01*
X170482857Y-76090476D01*
X170578095Y-76138095D01*
X169387619Y-75852381D02*
X169292380Y-75852381D01*
X169197142Y-75900000D01*
X169149523Y-75947619D01*
X169101904Y-76042857D01*
X169054285Y-76233333D01*
X169054285Y-76471429D01*
X169101904Y-76661905D01*
X169149523Y-76757143D01*
X169197142Y-76804762D01*
X169292380Y-76852381D01*
X169387619Y-76852381D01*
X169482857Y-76804762D01*
X169530476Y-76757143D01*
X169578095Y-76661905D01*
X169625714Y-76471429D01*
X169625714Y-76233333D01*
X169578095Y-76042857D01*
X169530476Y-75947619D01*
X169482857Y-75900000D01*
X169387619Y-75852381D01*
X168435238Y-75852381D02*
X168339999Y-75852381D01*
X168244761Y-75900000D01*
X168197142Y-75947619D01*
X168149523Y-76042857D01*
X168101904Y-76233333D01*
X168101904Y-76471429D01*
X168149523Y-76661905D01*
X168197142Y-76757143D01*
X168244761Y-76804762D01*
X168339999Y-76852381D01*
X168435238Y-76852381D01*
X168530476Y-76804762D01*
X168578095Y-76757143D01*
X168625714Y-76661905D01*
X168673333Y-76471429D01*
X168673333Y-76233333D01*
X168625714Y-76042857D01*
X168578095Y-75947619D01*
X168530476Y-75900000D01*
X168435238Y-75852381D01*
X167101904Y-76852381D02*
X167435238Y-76376190D01*
X167673333Y-76852381D02*
X167673333Y-75852381D01*
X167292380Y-75852381D01*
X167197142Y-75900000D01*
X167149523Y-75947619D01*
X167101904Y-76042857D01*
X167101904Y-76185714D01*
X167149523Y-76280952D01*
X167197142Y-76328571D01*
X167292380Y-76376190D01*
X167673333Y-76376190D01*
X166192381Y-77909524D02*
X166192381Y-77338095D01*
X166192381Y-77623809D02*
X165192381Y-77623809D01*
X165335238Y-77528571D01*
X165430476Y-77433333D01*
X165478095Y-77338095D01*
X165192381Y-78528571D02*
X165192381Y-78623810D01*
X165240000Y-78719048D01*
X165287619Y-78766667D01*
X165382857Y-78814286D01*
X165573333Y-78861905D01*
X165811429Y-78861905D01*
X166001905Y-78814286D01*
X166097143Y-78766667D01*
X166144762Y-78719048D01*
X166192381Y-78623810D01*
X166192381Y-78528571D01*
X166144762Y-78433333D01*
X166097143Y-78385714D01*
X166001905Y-78338095D01*
X165811429Y-78290476D01*
X165573333Y-78290476D01*
X165382857Y-78338095D01*
X165287619Y-78385714D01*
X165240000Y-78433333D01*
X165192381Y-78528571D01*
X166192381Y-79290476D02*
X165192381Y-79290476D01*
X166192381Y-79861905D02*
X165620952Y-79433333D01*
X165192381Y-79861905D02*
X165763810Y-79290476D01*
X153400476Y-81222381D02*
X153971905Y-81222381D01*
X153686191Y-81222381D02*
X153686191Y-80222381D01*
X153781429Y-80365238D01*
X153876667Y-80460476D01*
X153971905Y-80508095D01*
X152781429Y-80222381D02*
X152686190Y-80222381D01*
X152590952Y-80270000D01*
X152543333Y-80317619D01*
X152495714Y-80412857D01*
X152448095Y-80603333D01*
X152448095Y-80841429D01*
X152495714Y-81031905D01*
X152543333Y-81127143D01*
X152590952Y-81174762D01*
X152686190Y-81222381D01*
X152781429Y-81222381D01*
X152876667Y-81174762D01*
X152924286Y-81127143D01*
X152971905Y-81031905D01*
X153019524Y-80841429D01*
X153019524Y-80603333D01*
X152971905Y-80412857D01*
X152924286Y-80317619D01*
X152876667Y-80270000D01*
X152781429Y-80222381D01*
X152019524Y-81222381D02*
X152019524Y-80222381D01*
X151448095Y-81222381D02*
X151876667Y-80650952D01*
X151448095Y-80222381D02*
X152019524Y-80793810D01*
X152812381Y-58813334D02*
X152812381Y-58241905D01*
X152812381Y-58527619D02*
X151812381Y-58527619D01*
X151955238Y-58432381D01*
X152050476Y-58337143D01*
X152098095Y-58241905D01*
X152145714Y-59241905D02*
X152812381Y-59241905D01*
X152240952Y-59241905D02*
X152193333Y-59289524D01*
X152145714Y-59384762D01*
X152145714Y-59527620D01*
X152193333Y-59622858D01*
X152288571Y-59670477D01*
X152812381Y-59670477D01*
X155336190Y-55682381D02*
X155812381Y-55682381D01*
X155812381Y-54682381D01*
X155145714Y-54682381D02*
X154574285Y-54682381D01*
X154860000Y-55682381D02*
X154860000Y-54682381D01*
X153812380Y-54682381D02*
X154002857Y-54682381D01*
X154098095Y-54730000D01*
X154145714Y-54777619D01*
X154240952Y-54920476D01*
X154288571Y-55110952D01*
X154288571Y-55491905D01*
X154240952Y-55587143D01*
X154193333Y-55634762D01*
X154098095Y-55682381D01*
X153907618Y-55682381D01*
X153812380Y-55634762D01*
X153764761Y-55587143D01*
X153717142Y-55491905D01*
X153717142Y-55253810D01*
X153764761Y-55158571D01*
X153812380Y-55110952D01*
X153907618Y-55063333D01*
X154098095Y-55063333D01*
X154193333Y-55110952D01*
X154240952Y-55158571D01*
X154288571Y-55253810D01*
X152764761Y-55682381D02*
X153336190Y-55682381D01*
X153050476Y-55682381D02*
X153050476Y-54682381D01*
X153145714Y-54825238D01*
X153240952Y-54920476D01*
X153336190Y-54968095D01*
X152145714Y-54682381D02*
X152050475Y-54682381D01*
X151955237Y-54730000D01*
X151907618Y-54777619D01*
X151859999Y-54872857D01*
X151812380Y-55063333D01*
X151812380Y-55301429D01*
X151859999Y-55491905D01*
X151907618Y-55587143D01*
X151955237Y-55634762D01*
X152050475Y-55682381D01*
X152145714Y-55682381D01*
X152240952Y-55634762D01*
X152288571Y-55587143D01*
X152336190Y-55491905D01*
X152383809Y-55301429D01*
X152383809Y-55063333D01*
X152336190Y-54872857D01*
X152288571Y-54777619D01*
X152240952Y-54730000D01*
X152145714Y-54682381D01*
X150955237Y-54682381D02*
X151145714Y-54682381D01*
X151240952Y-54730000D01*
X151288571Y-54777619D01*
X151383809Y-54920476D01*
X151431428Y-55110952D01*
X151431428Y-55491905D01*
X151383809Y-55587143D01*
X151336190Y-55634762D01*
X151240952Y-55682381D01*
X151050475Y-55682381D01*
X150955237Y-55634762D01*
X150907618Y-55587143D01*
X150859999Y-55491905D01*
X150859999Y-55253810D01*
X150907618Y-55158571D01*
X150955237Y-55110952D01*
X151050475Y-55063333D01*
X151240952Y-55063333D01*
X151336190Y-55110952D01*
X151383809Y-55158571D01*
X151431428Y-55253810D01*
X152926666Y-78922381D02*
X153498095Y-78922381D01*
X153212381Y-78922381D02*
X153212381Y-77922381D01*
X153307619Y-78065238D01*
X153402857Y-78160476D01*
X153498095Y-78208095D01*
X152498095Y-78255714D02*
X152498095Y-78922381D01*
X152498095Y-78350952D02*
X152450476Y-78303333D01*
X152355238Y-78255714D01*
X152212380Y-78255714D01*
X152117142Y-78303333D01*
X152069523Y-78398571D01*
X152069523Y-78922381D01*
X149462381Y-75543810D02*
X149462381Y-75067619D01*
X148462381Y-75067619D01*
X148462381Y-75734286D02*
X148462381Y-76305715D01*
X149462381Y-76020000D02*
X148462381Y-76020000D01*
X148462381Y-77067620D02*
X148462381Y-76877143D01*
X148510000Y-76781905D01*
X148557619Y-76734286D01*
X148700476Y-76639048D01*
X148890952Y-76591429D01*
X149271905Y-76591429D01*
X149367143Y-76639048D01*
X149414762Y-76686667D01*
X149462381Y-76781905D01*
X149462381Y-76972382D01*
X149414762Y-77067620D01*
X149367143Y-77115239D01*
X149271905Y-77162858D01*
X149033810Y-77162858D01*
X148938571Y-77115239D01*
X148890952Y-77067620D01*
X148843333Y-76972382D01*
X148843333Y-76781905D01*
X148890952Y-76686667D01*
X148938571Y-76639048D01*
X149033810Y-76591429D01*
X149462381Y-78115239D02*
X149462381Y-77543810D01*
X149462381Y-77829524D02*
X148462381Y-77829524D01*
X148605238Y-77734286D01*
X148700476Y-77639048D01*
X148748095Y-77543810D01*
X148462381Y-78734286D02*
X148462381Y-78829525D01*
X148510000Y-78924763D01*
X148557619Y-78972382D01*
X148652857Y-79020001D01*
X148843333Y-79067620D01*
X149081429Y-79067620D01*
X149271905Y-79020001D01*
X149367143Y-78972382D01*
X149414762Y-78924763D01*
X149462381Y-78829525D01*
X149462381Y-78734286D01*
X149414762Y-78639048D01*
X149367143Y-78591429D01*
X149271905Y-78543810D01*
X149081429Y-78496191D01*
X148843333Y-78496191D01*
X148652857Y-78543810D01*
X148557619Y-78591429D01*
X148510000Y-78639048D01*
X148462381Y-78734286D01*
X148462381Y-79924763D02*
X148462381Y-79734286D01*
X148510000Y-79639048D01*
X148557619Y-79591429D01*
X148700476Y-79496191D01*
X148890952Y-79448572D01*
X149271905Y-79448572D01*
X149367143Y-79496191D01*
X149414762Y-79543810D01*
X149462381Y-79639048D01*
X149462381Y-79829525D01*
X149414762Y-79924763D01*
X149367143Y-79972382D01*
X149271905Y-80020001D01*
X149033810Y-80020001D01*
X148938571Y-79972382D01*
X148890952Y-79924763D01*
X148843333Y-79829525D01*
X148843333Y-79639048D01*
X148890952Y-79543810D01*
X148938571Y-79496191D01*
X149033810Y-79448572D01*
X150412381Y-58289524D02*
X150412381Y-57718095D01*
X150412381Y-58003809D02*
X149412381Y-58003809D01*
X149555238Y-57908571D01*
X149650476Y-57813333D01*
X149698095Y-57718095D01*
X149412381Y-58908571D02*
X149412381Y-59003810D01*
X149460000Y-59099048D01*
X149507619Y-59146667D01*
X149602857Y-59194286D01*
X149793333Y-59241905D01*
X150031429Y-59241905D01*
X150221905Y-59194286D01*
X150317143Y-59146667D01*
X150364762Y-59099048D01*
X150412381Y-59003810D01*
X150412381Y-58908571D01*
X150364762Y-58813333D01*
X150317143Y-58765714D01*
X150221905Y-58718095D01*
X150031429Y-58670476D01*
X149793333Y-58670476D01*
X149602857Y-58718095D01*
X149507619Y-58765714D01*
X149460000Y-58813333D01*
X149412381Y-58908571D01*
X150412381Y-59670476D02*
X149412381Y-59670476D01*
X150412381Y-60241905D02*
X149840952Y-59813333D01*
X149412381Y-60241905D02*
X149983810Y-59670476D01*
X144590476Y-81152381D02*
X145161905Y-81152381D01*
X144876191Y-81152381D02*
X144876191Y-80152381D01*
X144971429Y-80295238D01*
X145066667Y-80390476D01*
X145161905Y-80438095D01*
X143971429Y-80152381D02*
X143876190Y-80152381D01*
X143780952Y-80200000D01*
X143733333Y-80247619D01*
X143685714Y-80342857D01*
X143638095Y-80533333D01*
X143638095Y-80771429D01*
X143685714Y-80961905D01*
X143733333Y-81057143D01*
X143780952Y-81104762D01*
X143876190Y-81152381D01*
X143971429Y-81152381D01*
X144066667Y-81104762D01*
X144114286Y-81057143D01*
X144161905Y-80961905D01*
X144209524Y-80771429D01*
X144209524Y-80533333D01*
X144161905Y-80342857D01*
X144114286Y-80247619D01*
X144066667Y-80200000D01*
X143971429Y-80152381D01*
X143209524Y-81152381D02*
X143209524Y-80152381D01*
X142638095Y-81152381D02*
X143066667Y-80580952D01*
X142638095Y-80152381D02*
X143209524Y-80723810D01*
X144102381Y-76280953D02*
X144102381Y-75709524D01*
X144102381Y-75995238D02*
X143102381Y-75995238D01*
X143245238Y-75900000D01*
X143340476Y-75804762D01*
X143388095Y-75709524D01*
X143102381Y-76900000D02*
X143102381Y-76995239D01*
X143150000Y-77090477D01*
X143197619Y-77138096D01*
X143292857Y-77185715D01*
X143483333Y-77233334D01*
X143721429Y-77233334D01*
X143911905Y-77185715D01*
X144007143Y-77138096D01*
X144054762Y-77090477D01*
X144102381Y-76995239D01*
X144102381Y-76900000D01*
X144054762Y-76804762D01*
X144007143Y-76757143D01*
X143911905Y-76709524D01*
X143721429Y-76661905D01*
X143483333Y-76661905D01*
X143292857Y-76709524D01*
X143197619Y-76757143D01*
X143150000Y-76804762D01*
X143102381Y-76900000D01*
X143102381Y-77852381D02*
X143102381Y-77947620D01*
X143150000Y-78042858D01*
X143197619Y-78090477D01*
X143292857Y-78138096D01*
X143483333Y-78185715D01*
X143721429Y-78185715D01*
X143911905Y-78138096D01*
X144007143Y-78090477D01*
X144054762Y-78042858D01*
X144102381Y-77947620D01*
X144102381Y-77852381D01*
X144054762Y-77757143D01*
X144007143Y-77709524D01*
X143911905Y-77661905D01*
X143721429Y-77614286D01*
X143483333Y-77614286D01*
X143292857Y-77661905D01*
X143197619Y-77709524D01*
X143150000Y-77757143D01*
X143102381Y-77852381D01*
X143435714Y-78614286D02*
X144102381Y-78614286D01*
X143530952Y-78614286D02*
X143483333Y-78661905D01*
X143435714Y-78757143D01*
X143435714Y-78900001D01*
X143483333Y-78995239D01*
X143578571Y-79042858D01*
X144102381Y-79042858D01*
X139152381Y-79933334D02*
X139152381Y-79361905D01*
X139152381Y-79647619D02*
X138152381Y-79647619D01*
X138295238Y-79552381D01*
X138390476Y-79457143D01*
X138438095Y-79361905D01*
X138152381Y-80552381D02*
X138152381Y-80647620D01*
X138200000Y-80742858D01*
X138247619Y-80790477D01*
X138342857Y-80838096D01*
X138533333Y-80885715D01*
X138771429Y-80885715D01*
X138961905Y-80838096D01*
X139057143Y-80790477D01*
X139104762Y-80742858D01*
X139152381Y-80647620D01*
X139152381Y-80552381D01*
X139104762Y-80457143D01*
X139057143Y-80409524D01*
X138961905Y-80361905D01*
X138771429Y-80314286D01*
X138533333Y-80314286D01*
X138342857Y-80361905D01*
X138247619Y-80409524D01*
X138200000Y-80457143D01*
X138152381Y-80552381D01*
X138152381Y-81504762D02*
X138152381Y-81600001D01*
X138200000Y-81695239D01*
X138247619Y-81742858D01*
X138342857Y-81790477D01*
X138533333Y-81838096D01*
X138771429Y-81838096D01*
X138961905Y-81790477D01*
X139057143Y-81742858D01*
X139104762Y-81695239D01*
X139152381Y-81600001D01*
X139152381Y-81504762D01*
X139104762Y-81409524D01*
X139057143Y-81361905D01*
X138961905Y-81314286D01*
X138771429Y-81266667D01*
X138533333Y-81266667D01*
X138342857Y-81314286D01*
X138247619Y-81361905D01*
X138200000Y-81409524D01*
X138152381Y-81504762D01*
X139152381Y-82838096D02*
X138676190Y-82504762D01*
X139152381Y-82266667D02*
X138152381Y-82266667D01*
X138152381Y-82647620D01*
X138200000Y-82742858D01*
X138247619Y-82790477D01*
X138342857Y-82838096D01*
X138485714Y-82838096D01*
X138580952Y-82790477D01*
X138628571Y-82742858D01*
X138676190Y-82647620D01*
X138676190Y-82266667D01*
X144288095Y-75252381D02*
X144192856Y-75252381D01*
X144097618Y-75300000D01*
X144049999Y-75347619D01*
X144002380Y-75442857D01*
X143954761Y-75633333D01*
X143954761Y-75871429D01*
X144002380Y-76061905D01*
X144049999Y-76157143D01*
X144097618Y-76204762D01*
X144192856Y-76252381D01*
X144288095Y-76252381D01*
X144383333Y-76204762D01*
X144430952Y-76157143D01*
X144478571Y-76061905D01*
X144526190Y-75871429D01*
X144526190Y-75633333D01*
X144478571Y-75442857D01*
X144430952Y-75347619D01*
X144383333Y-75300000D01*
X144288095Y-75252381D01*
X143526190Y-76157143D02*
X143478571Y-76204762D01*
X143526190Y-76252381D01*
X143573809Y-76204762D01*
X143526190Y-76157143D01*
X143526190Y-76252381D01*
X142859524Y-75252381D02*
X142764285Y-75252381D01*
X142669047Y-75300000D01*
X142621428Y-75347619D01*
X142573809Y-75442857D01*
X142526190Y-75633333D01*
X142526190Y-75871429D01*
X142573809Y-76061905D01*
X142621428Y-76157143D01*
X142669047Y-76204762D01*
X142764285Y-76252381D01*
X142859524Y-76252381D01*
X142954762Y-76204762D01*
X143002381Y-76157143D01*
X143050000Y-76061905D01*
X143097619Y-75871429D01*
X143097619Y-75633333D01*
X143050000Y-75442857D01*
X143002381Y-75347619D01*
X142954762Y-75300000D01*
X142859524Y-75252381D01*
X142145238Y-75347619D02*
X142097619Y-75300000D01*
X142002381Y-75252381D01*
X141764285Y-75252381D01*
X141669047Y-75300000D01*
X141621428Y-75347619D01*
X141573809Y-75442857D01*
X141573809Y-75538095D01*
X141621428Y-75680952D01*
X142192857Y-76252381D01*
X141573809Y-76252381D01*
X140573809Y-76252381D02*
X140907143Y-75776190D01*
X141145238Y-76252381D02*
X141145238Y-75252381D01*
X140764285Y-75252381D01*
X140669047Y-75300000D01*
X140621428Y-75347619D01*
X140573809Y-75442857D01*
X140573809Y-75585714D01*
X140621428Y-75680952D01*
X140669047Y-75728571D01*
X140764285Y-75776190D01*
X141145238Y-75776190D01*
X140702381Y-75473810D02*
X140702381Y-74997619D01*
X139702381Y-74997619D01*
X139702381Y-75664286D02*
X139702381Y-76235715D01*
X140702381Y-75950000D02*
X139702381Y-75950000D01*
X139702381Y-76997620D02*
X139702381Y-76807143D01*
X139750000Y-76711905D01*
X139797619Y-76664286D01*
X139940476Y-76569048D01*
X140130952Y-76521429D01*
X140511905Y-76521429D01*
X140607143Y-76569048D01*
X140654762Y-76616667D01*
X140702381Y-76711905D01*
X140702381Y-76902382D01*
X140654762Y-76997620D01*
X140607143Y-77045239D01*
X140511905Y-77092858D01*
X140273810Y-77092858D01*
X140178571Y-77045239D01*
X140130952Y-76997620D01*
X140083333Y-76902382D01*
X140083333Y-76711905D01*
X140130952Y-76616667D01*
X140178571Y-76569048D01*
X140273810Y-76521429D01*
X140702381Y-78045239D02*
X140702381Y-77473810D01*
X140702381Y-77759524D02*
X139702381Y-77759524D01*
X139845238Y-77664286D01*
X139940476Y-77569048D01*
X139988095Y-77473810D01*
X139702381Y-78664286D02*
X139702381Y-78759525D01*
X139750000Y-78854763D01*
X139797619Y-78902382D01*
X139892857Y-78950001D01*
X140083333Y-78997620D01*
X140321429Y-78997620D01*
X140511905Y-78950001D01*
X140607143Y-78902382D01*
X140654762Y-78854763D01*
X140702381Y-78759525D01*
X140702381Y-78664286D01*
X140654762Y-78569048D01*
X140607143Y-78521429D01*
X140511905Y-78473810D01*
X140321429Y-78426191D01*
X140083333Y-78426191D01*
X139892857Y-78473810D01*
X139797619Y-78521429D01*
X139750000Y-78569048D01*
X139702381Y-78664286D01*
X139702381Y-79854763D02*
X139702381Y-79664286D01*
X139750000Y-79569048D01*
X139797619Y-79521429D01*
X139940476Y-79426191D01*
X140130952Y-79378572D01*
X140511905Y-79378572D01*
X140607143Y-79426191D01*
X140654762Y-79473810D01*
X140702381Y-79569048D01*
X140702381Y-79759525D01*
X140654762Y-79854763D01*
X140607143Y-79902382D01*
X140511905Y-79950001D01*
X140273810Y-79950001D01*
X140178571Y-79902382D01*
X140130952Y-79854763D01*
X140083333Y-79759525D01*
X140083333Y-79569048D01*
X140130952Y-79473810D01*
X140178571Y-79426191D01*
X140273810Y-79378572D01*
X144066666Y-78852381D02*
X144638095Y-78852381D01*
X144352381Y-78852381D02*
X144352381Y-77852381D01*
X144447619Y-77995238D01*
X144542857Y-78090476D01*
X144638095Y-78138095D01*
X143638095Y-78185714D02*
X143638095Y-78852381D01*
X143638095Y-78280952D02*
X143590476Y-78233333D01*
X143495238Y-78185714D01*
X143352380Y-78185714D01*
X143257142Y-78233333D01*
X143209523Y-78328571D01*
X143209523Y-78852381D01*
X154579047Y-59132381D02*
X155150476Y-59132381D01*
X154864762Y-59132381D02*
X154864762Y-58132381D01*
X154960000Y-58275238D01*
X155055238Y-58370476D01*
X155150476Y-58418095D01*
X153960000Y-58132381D02*
X153864761Y-58132381D01*
X153769523Y-58180000D01*
X153721904Y-58227619D01*
X153674285Y-58322857D01*
X153626666Y-58513333D01*
X153626666Y-58751429D01*
X153674285Y-58941905D01*
X153721904Y-59037143D01*
X153769523Y-59084762D01*
X153864761Y-59132381D01*
X153960000Y-59132381D01*
X154055238Y-59084762D01*
X154102857Y-59037143D01*
X154150476Y-58941905D01*
X154198095Y-58751429D01*
X154198095Y-58513333D01*
X154150476Y-58322857D01*
X154102857Y-58227619D01*
X154055238Y-58180000D01*
X153960000Y-58132381D01*
X153007619Y-58132381D02*
X152912380Y-58132381D01*
X152817142Y-58180000D01*
X152769523Y-58227619D01*
X152721904Y-58322857D01*
X152674285Y-58513333D01*
X152674285Y-58751429D01*
X152721904Y-58941905D01*
X152769523Y-59037143D01*
X152817142Y-59084762D01*
X152912380Y-59132381D01*
X153007619Y-59132381D01*
X153102857Y-59084762D01*
X153150476Y-59037143D01*
X153198095Y-58941905D01*
X153245714Y-58751429D01*
X153245714Y-58513333D01*
X153198095Y-58322857D01*
X153150476Y-58227619D01*
X153102857Y-58180000D01*
X153007619Y-58132381D01*
X152245714Y-58465714D02*
X152245714Y-59132381D01*
X152245714Y-58560952D02*
X152198095Y-58513333D01*
X152102857Y-58465714D01*
X151959999Y-58465714D01*
X151864761Y-58513333D01*
X151817142Y-58608571D01*
X151817142Y-59132381D01*
X153098095Y-75322381D02*
X153002856Y-75322381D01*
X152907618Y-75370000D01*
X152859999Y-75417619D01*
X152812380Y-75512857D01*
X152764761Y-75703333D01*
X152764761Y-75941429D01*
X152812380Y-76131905D01*
X152859999Y-76227143D01*
X152907618Y-76274762D01*
X153002856Y-76322381D01*
X153098095Y-76322381D01*
X153193333Y-76274762D01*
X153240952Y-76227143D01*
X153288571Y-76131905D01*
X153336190Y-75941429D01*
X153336190Y-75703333D01*
X153288571Y-75512857D01*
X153240952Y-75417619D01*
X153193333Y-75370000D01*
X153098095Y-75322381D01*
X152336190Y-76227143D02*
X152288571Y-76274762D01*
X152336190Y-76322381D01*
X152383809Y-76274762D01*
X152336190Y-76227143D01*
X152336190Y-76322381D01*
X151669524Y-75322381D02*
X151574285Y-75322381D01*
X151479047Y-75370000D01*
X151431428Y-75417619D01*
X151383809Y-75512857D01*
X151336190Y-75703333D01*
X151336190Y-75941429D01*
X151383809Y-76131905D01*
X151431428Y-76227143D01*
X151479047Y-76274762D01*
X151574285Y-76322381D01*
X151669524Y-76322381D01*
X151764762Y-76274762D01*
X151812381Y-76227143D01*
X151860000Y-76131905D01*
X151907619Y-75941429D01*
X151907619Y-75703333D01*
X151860000Y-75512857D01*
X151812381Y-75417619D01*
X151764762Y-75370000D01*
X151669524Y-75322381D01*
X150955238Y-75417619D02*
X150907619Y-75370000D01*
X150812381Y-75322381D01*
X150574285Y-75322381D01*
X150479047Y-75370000D01*
X150431428Y-75417619D01*
X150383809Y-75512857D01*
X150383809Y-75608095D01*
X150431428Y-75750952D01*
X151002857Y-76322381D01*
X150383809Y-76322381D01*
X149383809Y-76322381D02*
X149717143Y-75846190D01*
X149955238Y-76322381D02*
X149955238Y-75322381D01*
X149574285Y-75322381D01*
X149479047Y-75370000D01*
X149431428Y-75417619D01*
X149383809Y-75512857D01*
X149383809Y-75655714D01*
X149431428Y-75750952D01*
X149479047Y-75798571D01*
X149574285Y-75846190D01*
X149955238Y-75846190D01*
X161252381Y-86214286D02*
X161252381Y-86833334D01*
X161633333Y-86500000D01*
X161633333Y-86642858D01*
X161680952Y-86738096D01*
X161728571Y-86785715D01*
X161823810Y-86833334D01*
X162061905Y-86833334D01*
X162157143Y-86785715D01*
X162204762Y-86738096D01*
X162252381Y-86642858D01*
X162252381Y-86357143D01*
X162204762Y-86261905D01*
X162157143Y-86214286D01*
X161252381Y-87166667D02*
X161252381Y-87785715D01*
X161633333Y-87452381D01*
X161633333Y-87595239D01*
X161680952Y-87690477D01*
X161728571Y-87738096D01*
X161823810Y-87785715D01*
X162061905Y-87785715D01*
X162157143Y-87738096D01*
X162204762Y-87690477D01*
X162252381Y-87595239D01*
X162252381Y-87309524D01*
X162204762Y-87214286D01*
X162157143Y-87166667D01*
X161252381Y-88404762D02*
X161252381Y-88500001D01*
X161300000Y-88595239D01*
X161347619Y-88642858D01*
X161442857Y-88690477D01*
X161633333Y-88738096D01*
X161871429Y-88738096D01*
X162061905Y-88690477D01*
X162157143Y-88642858D01*
X162204762Y-88595239D01*
X162252381Y-88500001D01*
X162252381Y-88404762D01*
X162204762Y-88309524D01*
X162157143Y-88261905D01*
X162061905Y-88214286D01*
X161871429Y-88166667D01*
X161633333Y-88166667D01*
X161442857Y-88214286D01*
X161347619Y-88261905D01*
X161300000Y-88309524D01*
X161252381Y-88404762D01*
X104502361Y-79377143D02*
X105311885Y-79377143D01*
X105407123Y-79424762D01*
X105454742Y-79472381D01*
X105502361Y-79567619D01*
X105502361Y-79758096D01*
X105454742Y-79853334D01*
X105407123Y-79900953D01*
X105311885Y-79948572D01*
X104502361Y-79948572D01*
X105454742Y-80377143D02*
X105502361Y-80520000D01*
X105502361Y-80758096D01*
X105454742Y-80853334D01*
X105407123Y-80900953D01*
X105311885Y-80948572D01*
X105216647Y-80948572D01*
X105121409Y-80900953D01*
X105073790Y-80853334D01*
X105026170Y-80758096D01*
X104978551Y-80567619D01*
X104930932Y-80472381D01*
X104883313Y-80424762D01*
X104788075Y-80377143D01*
X104692837Y-80377143D01*
X104597599Y-80424762D01*
X104549980Y-80472381D01*
X104502361Y-80567619D01*
X104502361Y-80805715D01*
X104549980Y-80948572D01*
X104978551Y-81710477D02*
X105026170Y-81853334D01*
X105073790Y-81900953D01*
X105169028Y-81948572D01*
X105311885Y-81948572D01*
X105407123Y-81900953D01*
X105454742Y-81853334D01*
X105502361Y-81758096D01*
X105502361Y-81377143D01*
X104502361Y-81377143D01*
X104502361Y-81710477D01*
X104549980Y-81805715D01*
X104597599Y-81853334D01*
X104692837Y-81900953D01*
X104788075Y-81900953D01*
X104883313Y-81853334D01*
X104930932Y-81805715D01*
X104978551Y-81710477D01*
X104978551Y-81377143D01*
X105597599Y-82139048D02*
X105597599Y-82900953D01*
X104978551Y-83472382D02*
X105026170Y-83615239D01*
X105073790Y-83662858D01*
X105169028Y-83710477D01*
X105311885Y-83710477D01*
X105407123Y-83662858D01*
X105454742Y-83615239D01*
X105502361Y-83520001D01*
X105502361Y-83139048D01*
X104502361Y-83139048D01*
X104502361Y-83472382D01*
X104549980Y-83567620D01*
X104597599Y-83615239D01*
X104692837Y-83662858D01*
X104788075Y-83662858D01*
X104883313Y-83615239D01*
X104930932Y-83567620D01*
X104978551Y-83472382D01*
X104978551Y-83139048D01*
X160352191Y-78465381D02*
X160352191Y-77465381D01*
X159971238Y-77465381D01*
X159876000Y-77513000D01*
X159828381Y-77560619D01*
X159780762Y-77655857D01*
X159780762Y-77798714D01*
X159828381Y-77893952D01*
X159876000Y-77941571D01*
X159971238Y-77989190D01*
X160352191Y-77989190D01*
X159209334Y-78465381D02*
X159304572Y-78417762D01*
X159352191Y-78370143D01*
X159399810Y-78274905D01*
X159399810Y-77989190D01*
X159352191Y-77893952D01*
X159304572Y-77846333D01*
X159209334Y-77798714D01*
X159066476Y-77798714D01*
X158971238Y-77846333D01*
X158923619Y-77893952D01*
X158876000Y-77989190D01*
X158876000Y-78274905D01*
X158923619Y-78370143D01*
X158971238Y-78417762D01*
X159066476Y-78465381D01*
X159209334Y-78465381D01*
X158542667Y-77798714D02*
X158352191Y-78465381D01*
X158161714Y-77989190D01*
X157971238Y-78465381D01*
X157780762Y-77798714D01*
X157018857Y-78417762D02*
X157114095Y-78465381D01*
X157304572Y-78465381D01*
X157399810Y-78417762D01*
X157447429Y-78322524D01*
X157447429Y-77941571D01*
X157399810Y-77846333D01*
X157304572Y-77798714D01*
X157114095Y-77798714D01*
X157018857Y-77846333D01*
X156971238Y-77941571D01*
X156971238Y-78036810D01*
X157447429Y-78132048D01*
X156542667Y-78465381D02*
X156542667Y-77798714D01*
X156542667Y-77989190D02*
X156495048Y-77893952D01*
X156447429Y-77846333D01*
X156352191Y-77798714D01*
X156256952Y-77798714D01*
X124826190Y-103545499D02*
X124778571Y-103497880D01*
X124683333Y-103450261D01*
X124445237Y-103450261D01*
X124349999Y-103497880D01*
X124302380Y-103545499D01*
X124254761Y-103640737D01*
X124254761Y-103735975D01*
X124302380Y-103878832D01*
X124873809Y-104450261D01*
X124254761Y-104450261D01*
X123826190Y-104355023D02*
X123778571Y-104402642D01*
X123826190Y-104450261D01*
X123873809Y-104402642D01*
X123826190Y-104355023D01*
X123826190Y-104450261D01*
X123397619Y-103545499D02*
X123350000Y-103497880D01*
X123254762Y-103450261D01*
X123016666Y-103450261D01*
X122921428Y-103497880D01*
X122873809Y-103545499D01*
X122826190Y-103640737D01*
X122826190Y-103735975D01*
X122873809Y-103878832D01*
X123445238Y-104450261D01*
X122826190Y-104450261D01*
X121969047Y-103783594D02*
X121969047Y-104450261D01*
X122397619Y-103783594D02*
X122397619Y-104307404D01*
X122350000Y-104402642D01*
X122254762Y-104450261D01*
X122111904Y-104450261D01*
X122016666Y-104402642D01*
X121969047Y-104355023D01*
X121492857Y-104450261D02*
X121492857Y-103450261D01*
X121492857Y-103926451D02*
X120921428Y-103926451D01*
X120921428Y-104450261D02*
X120921428Y-103450261D01*
X166650191Y-86339381D02*
X166650191Y-85339381D01*
X166269238Y-85339381D01*
X166174000Y-85387000D01*
X166126381Y-85434619D01*
X166078762Y-85529857D01*
X166078762Y-85672714D01*
X166126381Y-85767952D01*
X166174000Y-85815571D01*
X166269238Y-85863190D01*
X166650191Y-85863190D01*
X165507334Y-86339381D02*
X165602572Y-86291762D01*
X165650191Y-86244143D01*
X165697810Y-86148905D01*
X165697810Y-85863190D01*
X165650191Y-85767952D01*
X165602572Y-85720333D01*
X165507334Y-85672714D01*
X165364476Y-85672714D01*
X165269238Y-85720333D01*
X165221619Y-85767952D01*
X165174000Y-85863190D01*
X165174000Y-86148905D01*
X165221619Y-86244143D01*
X165269238Y-86291762D01*
X165364476Y-86339381D01*
X165507334Y-86339381D01*
X164840667Y-85672714D02*
X164650191Y-86339381D01*
X164459714Y-85863190D01*
X164269238Y-86339381D01*
X164078762Y-85672714D01*
X163316857Y-86291762D02*
X163412095Y-86339381D01*
X163602572Y-86339381D01*
X163697810Y-86291762D01*
X163745429Y-86196524D01*
X163745429Y-85815571D01*
X163697810Y-85720333D01*
X163602572Y-85672714D01*
X163412095Y-85672714D01*
X163316857Y-85720333D01*
X163269238Y-85815571D01*
X163269238Y-85910810D01*
X163745429Y-86006048D01*
X162840667Y-86339381D02*
X162840667Y-85672714D01*
X162840667Y-85863190D02*
X162793048Y-85767952D01*
X162745429Y-85720333D01*
X162650191Y-85672714D01*
X162554952Y-85672714D01*
X129652762Y-95004382D02*
X129700381Y-95147239D01*
X129700381Y-95385335D01*
X129652762Y-95480573D01*
X129605143Y-95528192D01*
X129509905Y-95575811D01*
X129414667Y-95575811D01*
X129319429Y-95528192D01*
X129271810Y-95480573D01*
X129224190Y-95385335D01*
X129176571Y-95194858D01*
X129128952Y-95099620D01*
X129081333Y-95052001D01*
X128986095Y-95004382D01*
X128890857Y-95004382D01*
X128795619Y-95052001D01*
X128748000Y-95099620D01*
X128700381Y-95194858D01*
X128700381Y-95432954D01*
X128748000Y-95575811D01*
X129700381Y-96004382D02*
X128700381Y-96004382D01*
X129700381Y-96575811D02*
X129128952Y-96147239D01*
X128700381Y-96575811D02*
X129271810Y-96004382D01*
X128795619Y-96956763D02*
X128748000Y-97004382D01*
X128700381Y-97099620D01*
X128700381Y-97337716D01*
X128748000Y-97432954D01*
X128795619Y-97480573D01*
X128890857Y-97528192D01*
X128986095Y-97528192D01*
X129128952Y-97480573D01*
X129700381Y-96909144D01*
X129700381Y-97528192D01*
X128700381Y-98147239D02*
X128700381Y-98242478D01*
X128748000Y-98337716D01*
X128795619Y-98385335D01*
X128890857Y-98432954D01*
X129081333Y-98480573D01*
X129319429Y-98480573D01*
X129509905Y-98432954D01*
X129605143Y-98385335D01*
X129652762Y-98337716D01*
X129700381Y-98242478D01*
X129700381Y-98147239D01*
X129652762Y-98052001D01*
X129605143Y-98004382D01*
X129509905Y-97956763D01*
X129319429Y-97909144D01*
X129081333Y-97909144D01*
X128890857Y-97956763D01*
X128795619Y-98004382D01*
X128748000Y-98052001D01*
X128700381Y-98147239D01*
X128700381Y-98813906D02*
X128700381Y-99432954D01*
X129081333Y-99099620D01*
X129081333Y-99242478D01*
X129128952Y-99337716D01*
X129176571Y-99385335D01*
X129271810Y-99432954D01*
X129509905Y-99432954D01*
X129605143Y-99385335D01*
X129652762Y-99337716D01*
X129700381Y-99242478D01*
X129700381Y-98956763D01*
X129652762Y-98861525D01*
X129605143Y-98813906D01*
X128700381Y-100052001D02*
X128700381Y-100147240D01*
X128748000Y-100242478D01*
X128795619Y-100290097D01*
X128890857Y-100337716D01*
X129081333Y-100385335D01*
X129319429Y-100385335D01*
X129509905Y-100337716D01*
X129605143Y-100290097D01*
X129652762Y-100242478D01*
X129700381Y-100147240D01*
X129700381Y-100052001D01*
X129652762Y-99956763D01*
X129605143Y-99909144D01*
X129509905Y-99861525D01*
X129319429Y-99813906D01*
X129081333Y-99813906D01*
X128890857Y-99861525D01*
X128795619Y-99909144D01*
X128748000Y-99956763D01*
X128700381Y-100052001D01*
X129224190Y-101004382D02*
X129700381Y-101004382D01*
X128700381Y-100671049D02*
X129224190Y-101004382D01*
X128700381Y-101337716D01*
X129700381Y-101671049D02*
X128700381Y-101671049D01*
X128700381Y-101909144D01*
X128748000Y-102052002D01*
X128843238Y-102147240D01*
X128938476Y-102194859D01*
X129128952Y-102242478D01*
X129271810Y-102242478D01*
X129462286Y-102194859D01*
X129557524Y-102147240D01*
X129652762Y-102052002D01*
X129700381Y-101909144D01*
X129700381Y-101671049D01*
X128795619Y-102623430D02*
X128748000Y-102671049D01*
X128700381Y-102766287D01*
X128700381Y-103004383D01*
X128748000Y-103099621D01*
X128795619Y-103147240D01*
X128890857Y-103194859D01*
X128986095Y-103194859D01*
X129128952Y-103147240D01*
X129700381Y-102575811D01*
X129700381Y-103194859D01*
X104589381Y-95889809D02*
X103589381Y-95889809D01*
X103589381Y-96270762D01*
X103637000Y-96366000D01*
X103684619Y-96413619D01*
X103779857Y-96461238D01*
X103922714Y-96461238D01*
X104017952Y-96413619D01*
X104065571Y-96366000D01*
X104113190Y-96270762D01*
X104113190Y-95889809D01*
X104589381Y-97032666D02*
X104541762Y-96937428D01*
X104494143Y-96889809D01*
X104398905Y-96842190D01*
X104113190Y-96842190D01*
X104017952Y-96889809D01*
X103970333Y-96937428D01*
X103922714Y-97032666D01*
X103922714Y-97175524D01*
X103970333Y-97270762D01*
X104017952Y-97318381D01*
X104113190Y-97366000D01*
X104398905Y-97366000D01*
X104494143Y-97318381D01*
X104541762Y-97270762D01*
X104589381Y-97175524D01*
X104589381Y-97032666D01*
X103922714Y-97699333D02*
X104589381Y-97889809D01*
X104113190Y-98080286D01*
X104589381Y-98270762D01*
X103922714Y-98461238D01*
X104541762Y-99223143D02*
X104589381Y-99127905D01*
X104589381Y-98937428D01*
X104541762Y-98842190D01*
X104446524Y-98794571D01*
X104065571Y-98794571D01*
X103970333Y-98842190D01*
X103922714Y-98937428D01*
X103922714Y-99127905D01*
X103970333Y-99223143D01*
X104065571Y-99270762D01*
X104160810Y-99270762D01*
X104256048Y-98794571D01*
X104589381Y-99699333D02*
X103922714Y-99699333D01*
X104113190Y-99699333D02*
X104017952Y-99746952D01*
X103970333Y-99794571D01*
X103922714Y-99889809D01*
X103922714Y-99985048D01*
X100088762Y-103020571D02*
X99945905Y-103068190D01*
X99898286Y-103115810D01*
X99850667Y-103211048D01*
X99850667Y-103353905D01*
X99898286Y-103449143D01*
X99945905Y-103496762D01*
X100041143Y-103544381D01*
X100422096Y-103544381D01*
X100422096Y-102544381D01*
X100088762Y-102544381D01*
X99993524Y-102592000D01*
X99945905Y-102639619D01*
X99898286Y-102734857D01*
X99898286Y-102830095D01*
X99945905Y-102925333D01*
X99993524Y-102972952D01*
X100088762Y-103020571D01*
X100422096Y-103020571D01*
X99469715Y-103258667D02*
X98993524Y-103258667D01*
X99564953Y-103544381D02*
X99231620Y-102544381D01*
X98898286Y-103544381D01*
X97993524Y-103544381D02*
X98326858Y-103068190D01*
X98564953Y-103544381D02*
X98564953Y-102544381D01*
X98184000Y-102544381D01*
X98088762Y-102592000D01*
X98041143Y-102639619D01*
X97993524Y-102734857D01*
X97993524Y-102877714D01*
X98041143Y-102972952D01*
X98088762Y-103020571D01*
X98184000Y-103068190D01*
X98564953Y-103068190D01*
X96993524Y-103544381D02*
X97326858Y-103068190D01*
X97564953Y-103544381D02*
X97564953Y-102544381D01*
X97184000Y-102544381D01*
X97088762Y-102592000D01*
X97041143Y-102639619D01*
X96993524Y-102734857D01*
X96993524Y-102877714D01*
X97041143Y-102972952D01*
X97088762Y-103020571D01*
X97184000Y-103068190D01*
X97564953Y-103068190D01*
X96564953Y-103020571D02*
X96231619Y-103020571D01*
X96088762Y-103544381D02*
X96564953Y-103544381D01*
X96564953Y-102544381D01*
X96088762Y-102544381D01*
X95184000Y-103544381D02*
X95660191Y-103544381D01*
X95660191Y-102544381D01*
X95088762Y-103639619D02*
X94326857Y-103639619D01*
X93803047Y-102544381D02*
X93803047Y-103258667D01*
X93850667Y-103401524D01*
X93945905Y-103496762D01*
X94088762Y-103544381D01*
X94184000Y-103544381D01*
X93374476Y-103258667D02*
X92898285Y-103258667D01*
X93469714Y-103544381D02*
X93136381Y-102544381D01*
X92803047Y-103544381D01*
X91898285Y-103449143D02*
X91945904Y-103496762D01*
X92088761Y-103544381D01*
X92183999Y-103544381D01*
X92326857Y-103496762D01*
X92422095Y-103401524D01*
X92469714Y-103306286D01*
X92517333Y-103115810D01*
X92517333Y-102972952D01*
X92469714Y-102782476D01*
X92422095Y-102687238D01*
X92326857Y-102592000D01*
X92183999Y-102544381D01*
X92088761Y-102544381D01*
X91945904Y-102592000D01*
X91898285Y-102639619D01*
X91469714Y-103544381D02*
X91469714Y-102544381D01*
X90898285Y-103544381D02*
X91326857Y-102972952D01*
X90898285Y-102544381D02*
X91469714Y-103115810D01*
X104639381Y-66649809D02*
X103639381Y-66649809D01*
X103639381Y-67030762D01*
X103687000Y-67126000D01*
X103734619Y-67173619D01*
X103829857Y-67221238D01*
X103972714Y-67221238D01*
X104067952Y-67173619D01*
X104115571Y-67126000D01*
X104163190Y-67030762D01*
X104163190Y-66649809D01*
X104639381Y-67792666D02*
X104591762Y-67697428D01*
X104544143Y-67649809D01*
X104448905Y-67602190D01*
X104163190Y-67602190D01*
X104067952Y-67649809D01*
X104020333Y-67697428D01*
X103972714Y-67792666D01*
X103972714Y-67935524D01*
X104020333Y-68030762D01*
X104067952Y-68078381D01*
X104163190Y-68126000D01*
X104448905Y-68126000D01*
X104544143Y-68078381D01*
X104591762Y-68030762D01*
X104639381Y-67935524D01*
X104639381Y-67792666D01*
X103972714Y-68459333D02*
X104639381Y-68649809D01*
X104163190Y-68840286D01*
X104639381Y-69030762D01*
X103972714Y-69221238D01*
X104591762Y-69983143D02*
X104639381Y-69887905D01*
X104639381Y-69697428D01*
X104591762Y-69602190D01*
X104496524Y-69554571D01*
X104115571Y-69554571D01*
X104020333Y-69602190D01*
X103972714Y-69697428D01*
X103972714Y-69887905D01*
X104020333Y-69983143D01*
X104115571Y-70030762D01*
X104210810Y-70030762D01*
X104306048Y-69554571D01*
X104639381Y-70459333D02*
X103972714Y-70459333D01*
X104163190Y-70459333D02*
X104067952Y-70506952D01*
X104020333Y-70554571D01*
X103972714Y-70649809D01*
X103972714Y-70745048D01*
X152862381Y-76350953D02*
X152862381Y-75779524D01*
X152862381Y-76065238D02*
X151862381Y-76065238D01*
X152005238Y-75970000D01*
X152100476Y-75874762D01*
X152148095Y-75779524D01*
X151862381Y-76970000D02*
X151862381Y-77065239D01*
X151910000Y-77160477D01*
X151957619Y-77208096D01*
X152052857Y-77255715D01*
X152243333Y-77303334D01*
X152481429Y-77303334D01*
X152671905Y-77255715D01*
X152767143Y-77208096D01*
X152814762Y-77160477D01*
X152862381Y-77065239D01*
X152862381Y-76970000D01*
X152814762Y-76874762D01*
X152767143Y-76827143D01*
X152671905Y-76779524D01*
X152481429Y-76731905D01*
X152243333Y-76731905D01*
X152052857Y-76779524D01*
X151957619Y-76827143D01*
X151910000Y-76874762D01*
X151862381Y-76970000D01*
X151862381Y-77922381D02*
X151862381Y-78017620D01*
X151910000Y-78112858D01*
X151957619Y-78160477D01*
X152052857Y-78208096D01*
X152243333Y-78255715D01*
X152481429Y-78255715D01*
X152671905Y-78208096D01*
X152767143Y-78160477D01*
X152814762Y-78112858D01*
X152862381Y-78017620D01*
X152862381Y-77922381D01*
X152814762Y-77827143D01*
X152767143Y-77779524D01*
X152671905Y-77731905D01*
X152481429Y-77684286D01*
X152243333Y-77684286D01*
X152052857Y-77731905D01*
X151957619Y-77779524D01*
X151910000Y-77827143D01*
X151862381Y-77922381D01*
X152195714Y-78684286D02*
X152862381Y-78684286D01*
X152290952Y-78684286D02*
X152243333Y-78731905D01*
X152195714Y-78827143D01*
X152195714Y-78970001D01*
X152243333Y-79065239D01*
X152338571Y-79112858D01*
X152862381Y-79112858D01*
X141302381Y-87683334D02*
X141302381Y-87111905D01*
X141302381Y-87397619D02*
X140302381Y-87397619D01*
X140445238Y-87302381D01*
X140540476Y-87207143D01*
X140588095Y-87111905D01*
X140635714Y-88111905D02*
X141302381Y-88111905D01*
X140730952Y-88111905D02*
X140683333Y-88159524D01*
X140635714Y-88254762D01*
X140635714Y-88397620D01*
X140683333Y-88492858D01*
X140778571Y-88540477D01*
X141302381Y-88540477D01*
X143552381Y-86959524D02*
X143552381Y-86388095D01*
X143552381Y-86673809D02*
X142552381Y-86673809D01*
X142695238Y-86578571D01*
X142790476Y-86483333D01*
X142838095Y-86388095D01*
X142552381Y-87864286D02*
X142552381Y-87388095D01*
X143028571Y-87340476D01*
X142980952Y-87388095D01*
X142933333Y-87483333D01*
X142933333Y-87721429D01*
X142980952Y-87816667D01*
X143028571Y-87864286D01*
X143123810Y-87911905D01*
X143361905Y-87911905D01*
X143457143Y-87864286D01*
X143504762Y-87816667D01*
X143552381Y-87721429D01*
X143552381Y-87483333D01*
X143504762Y-87388095D01*
X143457143Y-87340476D01*
X143552381Y-88340476D02*
X142552381Y-88340476D01*
X143552381Y-88911905D02*
X142980952Y-88483333D01*
X142552381Y-88911905D02*
X143123810Y-88340476D01*
X109215381Y-89638095D02*
X108215381Y-89638095D01*
X109215381Y-90685714D02*
X108739190Y-90352380D01*
X109215381Y-90114285D02*
X108215381Y-90114285D01*
X108215381Y-90495238D01*
X108263000Y-90590476D01*
X108310619Y-90638095D01*
X108405857Y-90685714D01*
X108548714Y-90685714D01*
X108643952Y-90638095D01*
X108691571Y-90590476D01*
X108739190Y-90495238D01*
X108739190Y-90114285D01*
X108691571Y-91447619D02*
X108691571Y-91114285D01*
X109215381Y-91114285D02*
X108215381Y-91114285D01*
X108215381Y-91590476D01*
X109215381Y-92542857D02*
X108739190Y-92209523D01*
X109215381Y-91971428D02*
X108215381Y-91971428D01*
X108215381Y-92352381D01*
X108263000Y-92447619D01*
X108310619Y-92495238D01*
X108405857Y-92542857D01*
X108548714Y-92542857D01*
X108643952Y-92495238D01*
X108691571Y-92447619D01*
X108739190Y-92352381D01*
X108739190Y-91971428D01*
X108215381Y-93447619D02*
X108215381Y-92971428D01*
X108691571Y-92923809D01*
X108643952Y-92971428D01*
X108596333Y-93066666D01*
X108596333Y-93304762D01*
X108643952Y-93400000D01*
X108691571Y-93447619D01*
X108786810Y-93495238D01*
X109024905Y-93495238D01*
X109120143Y-93447619D01*
X109167762Y-93400000D01*
X109215381Y-93304762D01*
X109215381Y-93066666D01*
X109167762Y-92971428D01*
X109120143Y-92923809D01*
X108215381Y-93828571D02*
X108215381Y-94447619D01*
X108596333Y-94114285D01*
X108596333Y-94257143D01*
X108643952Y-94352381D01*
X108691571Y-94400000D01*
X108786810Y-94447619D01*
X109024905Y-94447619D01*
X109120143Y-94400000D01*
X109167762Y-94352381D01*
X109215381Y-94257143D01*
X109215381Y-93971428D01*
X109167762Y-93876190D01*
X109120143Y-93828571D01*
X108215381Y-95066666D02*
X108215381Y-95161905D01*
X108263000Y-95257143D01*
X108310619Y-95304762D01*
X108405857Y-95352381D01*
X108596333Y-95400000D01*
X108834429Y-95400000D01*
X109024905Y-95352381D01*
X109120143Y-95304762D01*
X109167762Y-95257143D01*
X109215381Y-95161905D01*
X109215381Y-95066666D01*
X109167762Y-94971428D01*
X109120143Y-94923809D01*
X109024905Y-94876190D01*
X108834429Y-94828571D01*
X108596333Y-94828571D01*
X108405857Y-94876190D01*
X108310619Y-94923809D01*
X108263000Y-94971428D01*
X108215381Y-95066666D01*
X108215381Y-96304762D02*
X108215381Y-95828571D01*
X108691571Y-95780952D01*
X108643952Y-95828571D01*
X108596333Y-95923809D01*
X108596333Y-96161905D01*
X108643952Y-96257143D01*
X108691571Y-96304762D01*
X108786810Y-96352381D01*
X109024905Y-96352381D01*
X109120143Y-96304762D01*
X109167762Y-96257143D01*
X109215381Y-96161905D01*
X109215381Y-95923809D01*
X109167762Y-95828571D01*
X109120143Y-95780952D01*
X109215381Y-96780952D02*
X108215381Y-96780952D01*
X108215381Y-97161905D01*
X108263000Y-97257143D01*
X108310619Y-97304762D01*
X108405857Y-97352381D01*
X108548714Y-97352381D01*
X108643952Y-97304762D01*
X108691571Y-97257143D01*
X108739190Y-97161905D01*
X108739190Y-96780952D01*
X108691571Y-98114286D02*
X108739190Y-98257143D01*
X108786810Y-98304762D01*
X108882048Y-98352381D01*
X109024905Y-98352381D01*
X109120143Y-98304762D01*
X109167762Y-98257143D01*
X109215381Y-98161905D01*
X109215381Y-97780952D01*
X108215381Y-97780952D01*
X108215381Y-98114286D01*
X108263000Y-98209524D01*
X108310619Y-98257143D01*
X108405857Y-98304762D01*
X108501095Y-98304762D01*
X108596333Y-98257143D01*
X108643952Y-98209524D01*
X108691571Y-98114286D01*
X108691571Y-97780952D01*
X108691571Y-99114286D02*
X108691571Y-98780952D01*
X109215381Y-98780952D02*
X108215381Y-98780952D01*
X108215381Y-99257143D01*
X95704762Y-68922143D02*
X95752381Y-69065000D01*
X95752381Y-69303096D01*
X95704762Y-69398334D01*
X95657143Y-69445953D01*
X95561905Y-69493572D01*
X95466667Y-69493572D01*
X95371429Y-69445953D01*
X95323810Y-69398334D01*
X95276190Y-69303096D01*
X95228571Y-69112619D01*
X95180952Y-69017381D01*
X95133333Y-68969762D01*
X95038095Y-68922143D01*
X94942857Y-68922143D01*
X94847619Y-68969762D01*
X94800000Y-69017381D01*
X94752381Y-69112619D01*
X94752381Y-69350715D01*
X94800000Y-69493572D01*
X95752381Y-69922143D02*
X94752381Y-69922143D01*
X95752381Y-70493572D02*
X95180952Y-70065000D01*
X94752381Y-70493572D02*
X95323810Y-69922143D01*
X95752381Y-71398334D02*
X95752381Y-70922143D01*
X94752381Y-70922143D01*
X95752381Y-72255477D02*
X95752381Y-71684048D01*
X95752381Y-71969762D02*
X94752381Y-71969762D01*
X94895238Y-71874524D01*
X94990476Y-71779286D01*
X95038095Y-71684048D01*
X95085714Y-73112620D02*
X95752381Y-73112620D01*
X94704762Y-72874524D02*
X95419048Y-72636429D01*
X95419048Y-73255477D01*
X139052381Y-87109524D02*
X139052381Y-86538095D01*
X139052381Y-86823809D02*
X138052381Y-86823809D01*
X138195238Y-86728571D01*
X138290476Y-86633333D01*
X138338095Y-86538095D01*
X138052381Y-87728571D02*
X138052381Y-87823810D01*
X138100000Y-87919048D01*
X138147619Y-87966667D01*
X138242857Y-88014286D01*
X138433333Y-88061905D01*
X138671429Y-88061905D01*
X138861905Y-88014286D01*
X138957143Y-87966667D01*
X139004762Y-87919048D01*
X139052381Y-87823810D01*
X139052381Y-87728571D01*
X139004762Y-87633333D01*
X138957143Y-87585714D01*
X138861905Y-87538095D01*
X138671429Y-87490476D01*
X138433333Y-87490476D01*
X138242857Y-87538095D01*
X138147619Y-87585714D01*
X138100000Y-87633333D01*
X138052381Y-87728571D01*
X139052381Y-88490476D02*
X138052381Y-88490476D01*
X139052381Y-89061905D02*
X138480952Y-88633333D01*
X138052381Y-89061905D02*
X138623810Y-88490476D01*
X157469047Y-98652381D02*
X158040476Y-98652381D01*
X157754762Y-98652381D02*
X157754762Y-97652381D01*
X157850000Y-97795238D01*
X157945238Y-97890476D01*
X158040476Y-97938095D01*
X156850000Y-97652381D02*
X156754761Y-97652381D01*
X156659523Y-97700000D01*
X156611904Y-97747619D01*
X156564285Y-97842857D01*
X156516666Y-98033333D01*
X156516666Y-98271429D01*
X156564285Y-98461905D01*
X156611904Y-98557143D01*
X156659523Y-98604762D01*
X156754761Y-98652381D01*
X156850000Y-98652381D01*
X156945238Y-98604762D01*
X156992857Y-98557143D01*
X157040476Y-98461905D01*
X157088095Y-98271429D01*
X157088095Y-98033333D01*
X157040476Y-97842857D01*
X156992857Y-97747619D01*
X156945238Y-97700000D01*
X156850000Y-97652381D01*
X155897619Y-97652381D02*
X155802380Y-97652381D01*
X155707142Y-97700000D01*
X155659523Y-97747619D01*
X155611904Y-97842857D01*
X155564285Y-98033333D01*
X155564285Y-98271429D01*
X155611904Y-98461905D01*
X155659523Y-98557143D01*
X155707142Y-98604762D01*
X155802380Y-98652381D01*
X155897619Y-98652381D01*
X155992857Y-98604762D01*
X156040476Y-98557143D01*
X156088095Y-98461905D01*
X156135714Y-98271429D01*
X156135714Y-98033333D01*
X156088095Y-97842857D01*
X156040476Y-97747619D01*
X155992857Y-97700000D01*
X155897619Y-97652381D01*
X155135714Y-97985714D02*
X155135714Y-98652381D01*
X155135714Y-98080952D02*
X155088095Y-98033333D01*
X154992857Y-97985714D01*
X154849999Y-97985714D01*
X154754761Y-98033333D01*
X154707142Y-98128571D01*
X154707142Y-98652381D01*
X157269047Y-92852381D02*
X157840476Y-92852381D01*
X157554762Y-92852381D02*
X157554762Y-91852381D01*
X157650000Y-91995238D01*
X157745238Y-92090476D01*
X157840476Y-92138095D01*
X156650000Y-91852381D02*
X156554761Y-91852381D01*
X156459523Y-91900000D01*
X156411904Y-91947619D01*
X156364285Y-92042857D01*
X156316666Y-92233333D01*
X156316666Y-92471429D01*
X156364285Y-92661905D01*
X156411904Y-92757143D01*
X156459523Y-92804762D01*
X156554761Y-92852381D01*
X156650000Y-92852381D01*
X156745238Y-92804762D01*
X156792857Y-92757143D01*
X156840476Y-92661905D01*
X156888095Y-92471429D01*
X156888095Y-92233333D01*
X156840476Y-92042857D01*
X156792857Y-91947619D01*
X156745238Y-91900000D01*
X156650000Y-91852381D01*
X155697619Y-91852381D02*
X155602380Y-91852381D01*
X155507142Y-91900000D01*
X155459523Y-91947619D01*
X155411904Y-92042857D01*
X155364285Y-92233333D01*
X155364285Y-92471429D01*
X155411904Y-92661905D01*
X155459523Y-92757143D01*
X155507142Y-92804762D01*
X155602380Y-92852381D01*
X155697619Y-92852381D01*
X155792857Y-92804762D01*
X155840476Y-92757143D01*
X155888095Y-92661905D01*
X155935714Y-92471429D01*
X155935714Y-92233333D01*
X155888095Y-92042857D01*
X155840476Y-91947619D01*
X155792857Y-91900000D01*
X155697619Y-91852381D01*
X154935714Y-92185714D02*
X154935714Y-92852381D01*
X154935714Y-92280952D02*
X154888095Y-92233333D01*
X154792857Y-92185714D01*
X154649999Y-92185714D01*
X154554761Y-92233333D01*
X154507142Y-92328571D01*
X154507142Y-92852381D01*
X95228571Y-56215905D02*
X95276190Y-56358762D01*
X95323810Y-56406381D01*
X95419048Y-56454000D01*
X95561905Y-56454000D01*
X95657143Y-56406381D01*
X95704762Y-56358762D01*
X95752381Y-56263524D01*
X95752381Y-55882571D01*
X94752381Y-55882571D01*
X94752381Y-56215905D01*
X94800000Y-56311143D01*
X94847619Y-56358762D01*
X94942857Y-56406381D01*
X95038095Y-56406381D01*
X95133333Y-56358762D01*
X95180952Y-56311143D01*
X95228571Y-56215905D01*
X95228571Y-55882571D01*
X95704762Y-57263524D02*
X95752381Y-57168286D01*
X95752381Y-56977809D01*
X95704762Y-56882571D01*
X95609524Y-56834952D01*
X95228571Y-56834952D01*
X95133333Y-56882571D01*
X95085714Y-56977809D01*
X95085714Y-57168286D01*
X95133333Y-57263524D01*
X95228571Y-57311143D01*
X95323810Y-57311143D01*
X95419048Y-56834952D01*
X95752381Y-58168286D02*
X95228571Y-58168286D01*
X95133333Y-58120667D01*
X95085714Y-58025429D01*
X95085714Y-57834952D01*
X95133333Y-57739714D01*
X95704762Y-58168286D02*
X95752381Y-58073048D01*
X95752381Y-57834952D01*
X95704762Y-57739714D01*
X95609524Y-57692095D01*
X95514286Y-57692095D01*
X95419048Y-57739714D01*
X95371429Y-57834952D01*
X95371429Y-58073048D01*
X95323810Y-58168286D01*
X95752381Y-59073048D02*
X94752381Y-59073048D01*
X95704762Y-59073048D02*
X95752381Y-58977810D01*
X95752381Y-58787333D01*
X95704762Y-58692095D01*
X95657143Y-58644476D01*
X95561905Y-58596857D01*
X95276190Y-58596857D01*
X95180952Y-58644476D01*
X95133333Y-58692095D01*
X95085714Y-58787333D01*
X95085714Y-58977810D01*
X95133333Y-59073048D01*
X94704762Y-60263524D02*
X95990476Y-59406381D01*
X95752381Y-61120667D02*
X95752381Y-60549238D01*
X95752381Y-60834952D02*
X94752381Y-60834952D01*
X94895238Y-60739714D01*
X94990476Y-60644476D01*
X95038095Y-60549238D01*
X94752381Y-61739714D02*
X94752381Y-61834953D01*
X94800000Y-61930191D01*
X94847619Y-61977810D01*
X94942857Y-62025429D01*
X95133333Y-62073048D01*
X95371429Y-62073048D01*
X95561905Y-62025429D01*
X95657143Y-61977810D01*
X95704762Y-61930191D01*
X95752381Y-61834953D01*
X95752381Y-61739714D01*
X95704762Y-61644476D01*
X95657143Y-61596857D01*
X95561905Y-61549238D01*
X95371429Y-61501619D01*
X95133333Y-61501619D01*
X94942857Y-61549238D01*
X94847619Y-61596857D01*
X94800000Y-61644476D01*
X94752381Y-61739714D01*
X94752381Y-62692095D02*
X94752381Y-62787334D01*
X94800000Y-62882572D01*
X94847619Y-62930191D01*
X94942857Y-62977810D01*
X95133333Y-63025429D01*
X95371429Y-63025429D01*
X95561905Y-62977810D01*
X95657143Y-62930191D01*
X95704762Y-62882572D01*
X95752381Y-62787334D01*
X95752381Y-62692095D01*
X95704762Y-62596857D01*
X95657143Y-62549238D01*
X95561905Y-62501619D01*
X95371429Y-62454000D01*
X95133333Y-62454000D01*
X94942857Y-62501619D01*
X94847619Y-62549238D01*
X94800000Y-62596857D01*
X94752381Y-62692095D01*
X95752381Y-63454000D02*
X94752381Y-63454000D01*
X95466667Y-63787334D01*
X94752381Y-64120667D01*
X95752381Y-64120667D01*
X95752381Y-64596857D02*
X94752381Y-64596857D01*
X95228571Y-64596857D02*
X95228571Y-65168286D01*
X95752381Y-65168286D02*
X94752381Y-65168286D01*
X94752381Y-65549238D02*
X94752381Y-66215905D01*
X95752381Y-65549238D01*
X95752381Y-66215905D01*
X94704762Y-67311143D02*
X95990476Y-66454000D01*
X95085714Y-68073048D02*
X95752381Y-68073048D01*
X94704762Y-67834952D02*
X95419048Y-67596857D01*
X95419048Y-68215905D01*
X94752381Y-68501619D02*
X94752381Y-69168286D01*
X95752381Y-68739714D01*
X94752381Y-69739714D02*
X94752381Y-69834953D01*
X94800000Y-69930191D01*
X94847619Y-69977810D01*
X94942857Y-70025429D01*
X95133333Y-70073048D01*
X95371429Y-70073048D01*
X95561905Y-70025429D01*
X95657143Y-69977810D01*
X95704762Y-69930191D01*
X95752381Y-69834953D01*
X95752381Y-69739714D01*
X95704762Y-69644476D01*
X95657143Y-69596857D01*
X95561905Y-69549238D01*
X95371429Y-69501619D01*
X95133333Y-69501619D01*
X94942857Y-69549238D01*
X94847619Y-69596857D01*
X94800000Y-69644476D01*
X94752381Y-69739714D01*
X95752381Y-70644476D02*
X95704762Y-70549238D01*
X95657143Y-70501619D01*
X95561905Y-70454000D01*
X95276190Y-70454000D01*
X95180952Y-70501619D01*
X95133333Y-70549238D01*
X95085714Y-70644476D01*
X95085714Y-70787334D01*
X95133333Y-70882572D01*
X95180952Y-70930191D01*
X95276190Y-70977810D01*
X95561905Y-70977810D01*
X95657143Y-70930191D01*
X95704762Y-70882572D01*
X95752381Y-70787334D01*
X95752381Y-70644476D01*
X95752381Y-71406381D02*
X94752381Y-71406381D01*
X95752381Y-71834953D02*
X95228571Y-71834953D01*
X95133333Y-71787334D01*
X95085714Y-71692096D01*
X95085714Y-71549238D01*
X95133333Y-71454000D01*
X95180952Y-71406381D01*
X95752381Y-72311143D02*
X95085714Y-72311143D01*
X95180952Y-72311143D02*
X95133333Y-72358762D01*
X95085714Y-72454000D01*
X95085714Y-72596858D01*
X95133333Y-72692096D01*
X95228571Y-72739715D01*
X95752381Y-72739715D01*
X95228571Y-72739715D02*
X95133333Y-72787334D01*
X95085714Y-72882572D01*
X95085714Y-73025429D01*
X95133333Y-73120667D01*
X95228571Y-73168286D01*
X95752381Y-73168286D01*
X94704762Y-74358762D02*
X95990476Y-73501619D01*
X94847619Y-74644476D02*
X94800000Y-74692095D01*
X94752381Y-74787333D01*
X94752381Y-75025429D01*
X94800000Y-75120667D01*
X94847619Y-75168286D01*
X94942857Y-75215905D01*
X95038095Y-75215905D01*
X95180952Y-75168286D01*
X95752381Y-74596857D01*
X95752381Y-75215905D01*
X95466667Y-75596857D02*
X95466667Y-76073048D01*
X95752381Y-75501619D02*
X94752381Y-75834952D01*
X95752381Y-76168286D01*
X159702381Y-92583334D02*
X159702381Y-92011905D01*
X159702381Y-92297619D02*
X158702381Y-92297619D01*
X158845238Y-92202381D01*
X158940476Y-92107143D01*
X158988095Y-92011905D01*
X158702381Y-93202381D02*
X158702381Y-93297620D01*
X158750000Y-93392858D01*
X158797619Y-93440477D01*
X158892857Y-93488096D01*
X159083333Y-93535715D01*
X159321429Y-93535715D01*
X159511905Y-93488096D01*
X159607143Y-93440477D01*
X159654762Y-93392858D01*
X159702381Y-93297620D01*
X159702381Y-93202381D01*
X159654762Y-93107143D01*
X159607143Y-93059524D01*
X159511905Y-93011905D01*
X159321429Y-92964286D01*
X159083333Y-92964286D01*
X158892857Y-93011905D01*
X158797619Y-93059524D01*
X158750000Y-93107143D01*
X158702381Y-93202381D01*
X158702381Y-94154762D02*
X158702381Y-94250001D01*
X158750000Y-94345239D01*
X158797619Y-94392858D01*
X158892857Y-94440477D01*
X159083333Y-94488096D01*
X159321429Y-94488096D01*
X159511905Y-94440477D01*
X159607143Y-94392858D01*
X159654762Y-94345239D01*
X159702381Y-94250001D01*
X159702381Y-94154762D01*
X159654762Y-94059524D01*
X159607143Y-94011905D01*
X159511905Y-93964286D01*
X159321429Y-93916667D01*
X159083333Y-93916667D01*
X158892857Y-93964286D01*
X158797619Y-94011905D01*
X158750000Y-94059524D01*
X158702381Y-94154762D01*
X132462619Y-77030952D02*
X132415000Y-77078571D01*
X132367381Y-77173809D01*
X132367381Y-77411905D01*
X132415000Y-77507143D01*
X132462619Y-77554762D01*
X132557857Y-77602381D01*
X132653095Y-77602381D01*
X132795952Y-77554762D01*
X133367381Y-76983333D01*
X133367381Y-77602381D01*
X132700714Y-78459524D02*
X133367381Y-78459524D01*
X132319762Y-78221428D02*
X133034048Y-77983333D01*
X133034048Y-78602381D01*
X133367381Y-79459524D02*
X133367381Y-78983333D01*
X132367381Y-78983333D01*
X133272143Y-80364286D02*
X133319762Y-80316667D01*
X133367381Y-80173810D01*
X133367381Y-80078572D01*
X133319762Y-79935714D01*
X133224524Y-79840476D01*
X133129286Y-79792857D01*
X132938810Y-79745238D01*
X132795952Y-79745238D01*
X132605476Y-79792857D01*
X132510238Y-79840476D01*
X132415000Y-79935714D01*
X132367381Y-80078572D01*
X132367381Y-80173810D01*
X132415000Y-80316667D01*
X132462619Y-80364286D01*
X132367381Y-80983333D02*
X132367381Y-81078572D01*
X132415000Y-81173810D01*
X132462619Y-81221429D01*
X132557857Y-81269048D01*
X132748333Y-81316667D01*
X132986429Y-81316667D01*
X133176905Y-81269048D01*
X133272143Y-81221429D01*
X133319762Y-81173810D01*
X133367381Y-81078572D01*
X133367381Y-80983333D01*
X133319762Y-80888095D01*
X133272143Y-80840476D01*
X133176905Y-80792857D01*
X132986429Y-80745238D01*
X132748333Y-80745238D01*
X132557857Y-80792857D01*
X132462619Y-80840476D01*
X132415000Y-80888095D01*
X132367381Y-80983333D01*
X132462619Y-81697619D02*
X132415000Y-81745238D01*
X132367381Y-81840476D01*
X132367381Y-82078572D01*
X132415000Y-82173810D01*
X132462619Y-82221429D01*
X132557857Y-82269048D01*
X132653095Y-82269048D01*
X132795952Y-82221429D01*
X133367381Y-81650000D01*
X133367381Y-82269048D01*
X156851621Y-88750001D02*
X156851621Y-88273810D01*
X155851621Y-88273810D01*
X156851621Y-89083334D02*
X155851621Y-89083334D01*
X156565907Y-89416668D01*
X155851621Y-89750001D01*
X156851621Y-89750001D01*
X156184954Y-90654763D02*
X156851621Y-90654763D01*
X155804002Y-90416667D02*
X156518288Y-90178572D01*
X156518288Y-90797620D01*
X155851621Y-91369048D02*
X155851621Y-91464287D01*
X155899240Y-91559525D01*
X155946859Y-91607144D01*
X156042097Y-91654763D01*
X156232573Y-91702382D01*
X156470669Y-91702382D01*
X156661145Y-91654763D01*
X156756383Y-91607144D01*
X156804002Y-91559525D01*
X156851621Y-91464287D01*
X156851621Y-91369048D01*
X156804002Y-91273810D01*
X156756383Y-91226191D01*
X156661145Y-91178572D01*
X156470669Y-91130953D01*
X156232573Y-91130953D01*
X156042097Y-91178572D01*
X155946859Y-91226191D01*
X155899240Y-91273810D01*
X155851621Y-91369048D01*
X156184954Y-92559525D02*
X156851621Y-92559525D01*
X155804002Y-92321429D02*
X156518288Y-92083334D01*
X156518288Y-92702382D01*
X155851621Y-93273810D02*
X155851621Y-93369049D01*
X155899240Y-93464287D01*
X155946859Y-93511906D01*
X156042097Y-93559525D01*
X156232573Y-93607144D01*
X156470669Y-93607144D01*
X156661145Y-93559525D01*
X156756383Y-93511906D01*
X156804002Y-93464287D01*
X156851621Y-93369049D01*
X156851621Y-93273810D01*
X156804002Y-93178572D01*
X156756383Y-93130953D01*
X156661145Y-93083334D01*
X156470669Y-93035715D01*
X156232573Y-93035715D01*
X156042097Y-93083334D01*
X155946859Y-93130953D01*
X155899240Y-93178572D01*
X155851621Y-93273810D01*
X156851621Y-94035715D02*
X155851621Y-94035715D01*
X156851621Y-94607144D01*
X155851621Y-94607144D01*
X156470669Y-95083334D02*
X156470669Y-95845239D01*
X156184954Y-96750001D02*
X156851621Y-96750001D01*
X155804002Y-96511905D02*
X156518288Y-96273810D01*
X156518288Y-96892858D01*
X156756383Y-97273810D02*
X156804002Y-97321429D01*
X156851621Y-97273810D01*
X156804002Y-97226191D01*
X156756383Y-97273810D01*
X156851621Y-97273810D01*
X156851621Y-98273810D02*
X156851621Y-97702381D01*
X156851621Y-97988095D02*
X155851621Y-97988095D01*
X155994478Y-97892857D01*
X156089716Y-97797619D01*
X156137335Y-97702381D01*
X126102381Y-72007143D02*
X126102381Y-72102382D01*
X126150000Y-72197620D01*
X126197619Y-72245239D01*
X126292857Y-72292858D01*
X126483333Y-72340477D01*
X126721429Y-72340477D01*
X126911905Y-72292858D01*
X127007143Y-72245239D01*
X127054762Y-72197620D01*
X127102381Y-72102382D01*
X127102381Y-72007143D01*
X127054762Y-71911905D01*
X127007143Y-71864286D01*
X126911905Y-71816667D01*
X126721429Y-71769048D01*
X126483333Y-71769048D01*
X126292857Y-71816667D01*
X126197619Y-71864286D01*
X126150000Y-71911905D01*
X126102381Y-72007143D01*
X127007143Y-72769048D02*
X127054762Y-72816667D01*
X127102381Y-72769048D01*
X127054762Y-72721429D01*
X127007143Y-72769048D01*
X127102381Y-72769048D01*
X127102381Y-73769048D02*
X127102381Y-73197619D01*
X127102381Y-73483333D02*
X126102381Y-73483333D01*
X126245238Y-73388095D01*
X126340476Y-73292857D01*
X126388095Y-73197619D01*
X126435714Y-74626191D02*
X127102381Y-74626191D01*
X126435714Y-74197619D02*
X126959524Y-74197619D01*
X127054762Y-74245238D01*
X127102381Y-74340476D01*
X127102381Y-74483334D01*
X127054762Y-74578572D01*
X127007143Y-74626191D01*
X126578571Y-75435715D02*
X126578571Y-75102381D01*
X127102381Y-75102381D02*
X126102381Y-75102381D01*
X126102381Y-75578572D01*
X124502381Y-72007143D02*
X124502381Y-72102382D01*
X124550000Y-72197620D01*
X124597619Y-72245239D01*
X124692857Y-72292858D01*
X124883333Y-72340477D01*
X125121429Y-72340477D01*
X125311905Y-72292858D01*
X125407143Y-72245239D01*
X125454762Y-72197620D01*
X125502381Y-72102382D01*
X125502381Y-72007143D01*
X125454762Y-71911905D01*
X125407143Y-71864286D01*
X125311905Y-71816667D01*
X125121429Y-71769048D01*
X124883333Y-71769048D01*
X124692857Y-71816667D01*
X124597619Y-71864286D01*
X124550000Y-71911905D01*
X124502381Y-72007143D01*
X125407143Y-72769048D02*
X125454762Y-72816667D01*
X125502381Y-72769048D01*
X125454762Y-72721429D01*
X125407143Y-72769048D01*
X125502381Y-72769048D01*
X125502381Y-73769048D02*
X125502381Y-73197619D01*
X125502381Y-73483333D02*
X124502381Y-73483333D01*
X124645238Y-73388095D01*
X124740476Y-73292857D01*
X124788095Y-73197619D01*
X124835714Y-74626191D02*
X125502381Y-74626191D01*
X124835714Y-74197619D02*
X125359524Y-74197619D01*
X125454762Y-74245238D01*
X125502381Y-74340476D01*
X125502381Y-74483334D01*
X125454762Y-74578572D01*
X125407143Y-74626191D01*
X124978571Y-75435715D02*
X124978571Y-75102381D01*
X125502381Y-75102381D02*
X124502381Y-75102381D01*
X124502381Y-75578572D01*
X131547619Y-88802381D02*
X132119048Y-88802381D01*
X131833334Y-88802381D02*
X131833334Y-87802381D01*
X131928572Y-87945238D01*
X132023810Y-88040476D01*
X132119048Y-88088095D01*
X130928572Y-87802381D02*
X130833333Y-87802381D01*
X130738095Y-87850000D01*
X130690476Y-87897619D01*
X130642857Y-87992857D01*
X130595238Y-88183333D01*
X130595238Y-88421429D01*
X130642857Y-88611905D01*
X130690476Y-88707143D01*
X130738095Y-88754762D01*
X130833333Y-88802381D01*
X130928572Y-88802381D01*
X131023810Y-88754762D01*
X131071429Y-88707143D01*
X131119048Y-88611905D01*
X131166667Y-88421429D01*
X131166667Y-88183333D01*
X131119048Y-87992857D01*
X131071429Y-87897619D01*
X131023810Y-87850000D01*
X130928572Y-87802381D01*
X129976191Y-87802381D02*
X129880952Y-87802381D01*
X129785714Y-87850000D01*
X129738095Y-87897619D01*
X129690476Y-87992857D01*
X129642857Y-88183333D01*
X129642857Y-88421429D01*
X129690476Y-88611905D01*
X129738095Y-88707143D01*
X129785714Y-88754762D01*
X129880952Y-88802381D01*
X129976191Y-88802381D01*
X130071429Y-88754762D01*
X130119048Y-88707143D01*
X130166667Y-88611905D01*
X130214286Y-88421429D01*
X130214286Y-88183333D01*
X130166667Y-87992857D01*
X130119048Y-87897619D01*
X130071429Y-87850000D01*
X129976191Y-87802381D01*
X129214286Y-88135714D02*
X129214286Y-88802381D01*
X129214286Y-88230952D02*
X129166667Y-88183333D01*
X129071429Y-88135714D01*
X128928571Y-88135714D01*
X128833333Y-88183333D01*
X128785714Y-88278571D01*
X128785714Y-88802381D01*
X127976190Y-88278571D02*
X128309524Y-88278571D01*
X128309524Y-88802381D02*
X128309524Y-87802381D01*
X127833333Y-87802381D01*
X158802381Y-86264286D02*
X158802381Y-86883334D01*
X159183333Y-86550000D01*
X159183333Y-86692858D01*
X159230952Y-86788096D01*
X159278571Y-86835715D01*
X159373810Y-86883334D01*
X159611905Y-86883334D01*
X159707143Y-86835715D01*
X159754762Y-86788096D01*
X159802381Y-86692858D01*
X159802381Y-86407143D01*
X159754762Y-86311905D01*
X159707143Y-86264286D01*
X158802381Y-87216667D02*
X158802381Y-87835715D01*
X159183333Y-87502381D01*
X159183333Y-87645239D01*
X159230952Y-87740477D01*
X159278571Y-87788096D01*
X159373810Y-87835715D01*
X159611905Y-87835715D01*
X159707143Y-87788096D01*
X159754762Y-87740477D01*
X159802381Y-87645239D01*
X159802381Y-87359524D01*
X159754762Y-87264286D01*
X159707143Y-87216667D01*
X158802381Y-88454762D02*
X158802381Y-88550001D01*
X158850000Y-88645239D01*
X158897619Y-88692858D01*
X158992857Y-88740477D01*
X159183333Y-88788096D01*
X159421429Y-88788096D01*
X159611905Y-88740477D01*
X159707143Y-88692858D01*
X159754762Y-88645239D01*
X159802381Y-88550001D01*
X159802381Y-88454762D01*
X159754762Y-88359524D01*
X159707143Y-88311905D01*
X159611905Y-88264286D01*
X159421429Y-88216667D01*
X159183333Y-88216667D01*
X158992857Y-88264286D01*
X158897619Y-88311905D01*
X158850000Y-88359524D01*
X158802381Y-88454762D01*
X121811904Y-90185714D02*
X121811904Y-90852381D01*
X122050000Y-89804762D02*
X122288095Y-90519048D01*
X121669047Y-90519048D01*
X121383333Y-89852381D02*
X120716666Y-89852381D01*
X121145238Y-90852381D01*
X120145238Y-89852381D02*
X120049999Y-89852381D01*
X119954761Y-89900000D01*
X119907142Y-89947619D01*
X119859523Y-90042857D01*
X119811904Y-90233333D01*
X119811904Y-90471429D01*
X119859523Y-90661905D01*
X119907142Y-90757143D01*
X119954761Y-90804762D01*
X120049999Y-90852381D01*
X120145238Y-90852381D01*
X120240476Y-90804762D01*
X120288095Y-90757143D01*
X120335714Y-90661905D01*
X120383333Y-90471429D01*
X120383333Y-90233333D01*
X120335714Y-90042857D01*
X120288095Y-89947619D01*
X120240476Y-89900000D01*
X120145238Y-89852381D01*
X119383333Y-90852381D02*
X119383333Y-89852381D01*
X118811904Y-90852381D02*
X119240476Y-90280952D01*
X118811904Y-89852381D02*
X119383333Y-90423810D01*
X155195714Y-72671621D02*
X155195714Y-71671621D01*
X154148095Y-72671621D02*
X154481429Y-72195430D01*
X154719524Y-72671621D02*
X154719524Y-71671621D01*
X154338571Y-71671621D01*
X154243333Y-71719240D01*
X154195714Y-71766859D01*
X154148095Y-71862097D01*
X154148095Y-72004954D01*
X154195714Y-72100192D01*
X154243333Y-72147811D01*
X154338571Y-72195430D01*
X154719524Y-72195430D01*
X153243333Y-72671621D02*
X153719524Y-72671621D01*
X153719524Y-71671621D01*
X152910000Y-72671621D02*
X152910000Y-71671621D01*
X152576666Y-72385907D01*
X152243333Y-71671621D01*
X152243333Y-72671621D01*
X151290952Y-72671621D02*
X151767143Y-72671621D01*
X151767143Y-71671621D01*
X150529047Y-71671621D02*
X150719524Y-71671621D01*
X150814762Y-71719240D01*
X150862381Y-71766859D01*
X150957619Y-71909716D01*
X151005238Y-72100192D01*
X151005238Y-72481145D01*
X150957619Y-72576383D01*
X150910000Y-72624002D01*
X150814762Y-72671621D01*
X150624285Y-72671621D01*
X150529047Y-72624002D01*
X150481428Y-72576383D01*
X150433809Y-72481145D01*
X150433809Y-72243050D01*
X150481428Y-72147811D01*
X150529047Y-72100192D01*
X150624285Y-72052573D01*
X150814762Y-72052573D01*
X150910000Y-72100192D01*
X150957619Y-72147811D01*
X151005238Y-72243050D01*
X149576666Y-72004954D02*
X149576666Y-72671621D01*
X149814762Y-71624002D02*
X150052857Y-72338288D01*
X149433809Y-72338288D01*
X148862381Y-71671621D02*
X148767142Y-71671621D01*
X148671904Y-71719240D01*
X148624285Y-71766859D01*
X148576666Y-71862097D01*
X148529047Y-72052573D01*
X148529047Y-72290669D01*
X148576666Y-72481145D01*
X148624285Y-72576383D01*
X148671904Y-72624002D01*
X148767142Y-72671621D01*
X148862381Y-72671621D01*
X148957619Y-72624002D01*
X149005238Y-72576383D01*
X149052857Y-72481145D01*
X149100476Y-72290669D01*
X149100476Y-72052573D01*
X149052857Y-71862097D01*
X149005238Y-71766859D01*
X148957619Y-71719240D01*
X148862381Y-71671621D01*
X147576666Y-72671621D02*
X148148095Y-72671621D01*
X147862381Y-72671621D02*
X147862381Y-71671621D01*
X147957619Y-71814478D01*
X148052857Y-71909716D01*
X148148095Y-71957335D01*
X146385714Y-72602381D02*
X146385714Y-71602381D01*
X145338095Y-72602381D02*
X145671429Y-72126190D01*
X145909524Y-72602381D02*
X145909524Y-71602381D01*
X145528571Y-71602381D01*
X145433333Y-71650000D01*
X145385714Y-71697619D01*
X145338095Y-71792857D01*
X145338095Y-71935714D01*
X145385714Y-72030952D01*
X145433333Y-72078571D01*
X145528571Y-72126190D01*
X145909524Y-72126190D01*
X144433333Y-72602381D02*
X144909524Y-72602381D01*
X144909524Y-71602381D01*
X144100000Y-72602381D02*
X144100000Y-71602381D01*
X143766666Y-72316667D01*
X143433333Y-71602381D01*
X143433333Y-72602381D01*
X142480952Y-72602381D02*
X142957143Y-72602381D01*
X142957143Y-71602381D01*
X141719047Y-71602381D02*
X141909524Y-71602381D01*
X142004762Y-71650000D01*
X142052381Y-71697619D01*
X142147619Y-71840476D01*
X142195238Y-72030952D01*
X142195238Y-72411905D01*
X142147619Y-72507143D01*
X142100000Y-72554762D01*
X142004762Y-72602381D01*
X141814285Y-72602381D01*
X141719047Y-72554762D01*
X141671428Y-72507143D01*
X141623809Y-72411905D01*
X141623809Y-72173810D01*
X141671428Y-72078571D01*
X141719047Y-72030952D01*
X141814285Y-71983333D01*
X142004762Y-71983333D01*
X142100000Y-72030952D01*
X142147619Y-72078571D01*
X142195238Y-72173810D01*
X140766666Y-71935714D02*
X140766666Y-72602381D01*
X141004762Y-71554762D02*
X141242857Y-72269048D01*
X140623809Y-72269048D01*
X140052381Y-71602381D02*
X139957142Y-71602381D01*
X139861904Y-71650000D01*
X139814285Y-71697619D01*
X139766666Y-71792857D01*
X139719047Y-71983333D01*
X139719047Y-72221429D01*
X139766666Y-72411905D01*
X139814285Y-72507143D01*
X139861904Y-72554762D01*
X139957142Y-72602381D01*
X140052381Y-72602381D01*
X140147619Y-72554762D01*
X140195238Y-72507143D01*
X140242857Y-72411905D01*
X140290476Y-72221429D01*
X140290476Y-71983333D01*
X140242857Y-71792857D01*
X140195238Y-71697619D01*
X140147619Y-71650000D01*
X140052381Y-71602381D01*
X138766666Y-72602381D02*
X139338095Y-72602381D01*
X139052381Y-72602381D02*
X139052381Y-71602381D01*
X139147619Y-71745238D01*
X139242857Y-71840476D01*
X139338095Y-71888095D01*
X162055714Y-55901621D02*
X162055714Y-54901621D01*
X161008095Y-55901621D02*
X161341429Y-55425430D01*
X161579524Y-55901621D02*
X161579524Y-54901621D01*
X161198571Y-54901621D01*
X161103333Y-54949240D01*
X161055714Y-54996859D01*
X161008095Y-55092097D01*
X161008095Y-55234954D01*
X161055714Y-55330192D01*
X161103333Y-55377811D01*
X161198571Y-55425430D01*
X161579524Y-55425430D01*
X160103333Y-55901621D02*
X160579524Y-55901621D01*
X160579524Y-54901621D01*
X159770000Y-55901621D02*
X159770000Y-54901621D01*
X159436666Y-55615907D01*
X159103333Y-54901621D01*
X159103333Y-55901621D01*
X158150952Y-55901621D02*
X158627143Y-55901621D01*
X158627143Y-54901621D01*
X157389047Y-54901621D02*
X157579524Y-54901621D01*
X157674762Y-54949240D01*
X157722381Y-54996859D01*
X157817619Y-55139716D01*
X157865238Y-55330192D01*
X157865238Y-55711145D01*
X157817619Y-55806383D01*
X157770000Y-55854002D01*
X157674762Y-55901621D01*
X157484285Y-55901621D01*
X157389047Y-55854002D01*
X157341428Y-55806383D01*
X157293809Y-55711145D01*
X157293809Y-55473050D01*
X157341428Y-55377811D01*
X157389047Y-55330192D01*
X157484285Y-55282573D01*
X157674762Y-55282573D01*
X157770000Y-55330192D01*
X157817619Y-55377811D01*
X157865238Y-55473050D01*
X156436666Y-55234954D02*
X156436666Y-55901621D01*
X156674762Y-54854002D02*
X156912857Y-55568288D01*
X156293809Y-55568288D01*
X155722381Y-54901621D02*
X155627142Y-54901621D01*
X155531904Y-54949240D01*
X155484285Y-54996859D01*
X155436666Y-55092097D01*
X155389047Y-55282573D01*
X155389047Y-55520669D01*
X155436666Y-55711145D01*
X155484285Y-55806383D01*
X155531904Y-55854002D01*
X155627142Y-55901621D01*
X155722381Y-55901621D01*
X155817619Y-55854002D01*
X155865238Y-55806383D01*
X155912857Y-55711145D01*
X155960476Y-55520669D01*
X155960476Y-55282573D01*
X155912857Y-55092097D01*
X155865238Y-54996859D01*
X155817619Y-54949240D01*
X155722381Y-54901621D01*
X154436666Y-55901621D02*
X155008095Y-55901621D01*
X154722381Y-55901621D02*
X154722381Y-54901621D01*
X154817619Y-55044478D01*
X154912857Y-55139716D01*
X155008095Y-55187335D01*
X174742381Y-73464286D02*
X173742381Y-73464286D01*
X174742381Y-74511905D02*
X174266190Y-74178571D01*
X174742381Y-73940476D02*
X173742381Y-73940476D01*
X173742381Y-74321429D01*
X173790000Y-74416667D01*
X173837619Y-74464286D01*
X173932857Y-74511905D01*
X174075714Y-74511905D01*
X174170952Y-74464286D01*
X174218571Y-74416667D01*
X174266190Y-74321429D01*
X174266190Y-73940476D01*
X174742381Y-75416667D02*
X174742381Y-74940476D01*
X173742381Y-74940476D01*
X174742381Y-75750000D02*
X173742381Y-75750000D01*
X174456667Y-76083334D01*
X173742381Y-76416667D01*
X174742381Y-76416667D01*
X174742381Y-77369048D02*
X174742381Y-76892857D01*
X173742381Y-76892857D01*
X173742381Y-78130953D02*
X173742381Y-77940476D01*
X173790000Y-77845238D01*
X173837619Y-77797619D01*
X173980476Y-77702381D01*
X174170952Y-77654762D01*
X174551905Y-77654762D01*
X174647143Y-77702381D01*
X174694762Y-77750000D01*
X174742381Y-77845238D01*
X174742381Y-78035715D01*
X174694762Y-78130953D01*
X174647143Y-78178572D01*
X174551905Y-78226191D01*
X174313810Y-78226191D01*
X174218571Y-78178572D01*
X174170952Y-78130953D01*
X174123333Y-78035715D01*
X174123333Y-77845238D01*
X174170952Y-77750000D01*
X174218571Y-77702381D01*
X174313810Y-77654762D01*
X174075714Y-79083334D02*
X174742381Y-79083334D01*
X173694762Y-78845238D02*
X174409048Y-78607143D01*
X174409048Y-79226191D01*
X173742381Y-79797619D02*
X173742381Y-79892858D01*
X173790000Y-79988096D01*
X173837619Y-80035715D01*
X173932857Y-80083334D01*
X174123333Y-80130953D01*
X174361429Y-80130953D01*
X174551905Y-80083334D01*
X174647143Y-80035715D01*
X174694762Y-79988096D01*
X174742381Y-79892858D01*
X174742381Y-79797619D01*
X174694762Y-79702381D01*
X174647143Y-79654762D01*
X174551905Y-79607143D01*
X174361429Y-79559524D01*
X174123333Y-79559524D01*
X173932857Y-79607143D01*
X173837619Y-79654762D01*
X173790000Y-79702381D01*
X173742381Y-79797619D01*
X174742381Y-81083334D02*
X174742381Y-80511905D01*
X174742381Y-80797619D02*
X173742381Y-80797619D01*
X173885238Y-80702381D01*
X173980476Y-80607143D01*
X174028095Y-80511905D01*
X178453809Y-72687143D02*
X178501428Y-72734762D01*
X178644285Y-72782381D01*
X178739523Y-72782381D01*
X178882381Y-72734762D01*
X178977619Y-72639524D01*
X179025238Y-72544286D01*
X179072857Y-72353810D01*
X179072857Y-72210952D01*
X179025238Y-72020476D01*
X178977619Y-71925238D01*
X178882381Y-71830000D01*
X178739523Y-71782381D01*
X178644285Y-71782381D01*
X178501428Y-71830000D01*
X178453809Y-71877619D01*
X177834762Y-71782381D02*
X177644285Y-71782381D01*
X177549047Y-71830000D01*
X177453809Y-71925238D01*
X177406190Y-72115714D01*
X177406190Y-72449048D01*
X177453809Y-72639524D01*
X177549047Y-72734762D01*
X177644285Y-72782381D01*
X177834762Y-72782381D01*
X177930000Y-72734762D01*
X178025238Y-72639524D01*
X178072857Y-72449048D01*
X178072857Y-72115714D01*
X178025238Y-71925238D01*
X177930000Y-71830000D01*
X177834762Y-71782381D01*
X176977619Y-72782381D02*
X176977619Y-71782381D01*
X176406190Y-72782381D01*
X176406190Y-71782381D01*
X175930000Y-72782381D02*
X175930000Y-71782381D01*
X175358571Y-72782381D01*
X175358571Y-71782381D01*
X175120476Y-72877619D02*
X174358571Y-72877619D01*
X173930000Y-71782381D02*
X173834761Y-71782381D01*
X173739523Y-71830000D01*
X173691904Y-71877619D01*
X173644285Y-71972857D01*
X173596666Y-72163333D01*
X173596666Y-72401429D01*
X173644285Y-72591905D01*
X173691904Y-72687143D01*
X173739523Y-72734762D01*
X173834761Y-72782381D01*
X173930000Y-72782381D01*
X174025238Y-72734762D01*
X174072857Y-72687143D01*
X174120476Y-72591905D01*
X174168095Y-72401429D01*
X174168095Y-72163333D01*
X174120476Y-71972857D01*
X174072857Y-71877619D01*
X174025238Y-71830000D01*
X173930000Y-71782381D01*
X173215714Y-71877619D02*
X173168095Y-71830000D01*
X173072857Y-71782381D01*
X172834761Y-71782381D01*
X172739523Y-71830000D01*
X172691904Y-71877619D01*
X172644285Y-71972857D01*
X172644285Y-72068095D01*
X172691904Y-72210952D01*
X173263333Y-72782381D01*
X172644285Y-72782381D01*
X172310952Y-71782381D02*
X171644285Y-72782381D01*
X171644285Y-71782381D02*
X172310952Y-72782381D01*
X171072857Y-71782381D02*
X170977618Y-71782381D01*
X170882380Y-71830000D01*
X170834761Y-71877619D01*
X170787142Y-71972857D01*
X170739523Y-72163333D01*
X170739523Y-72401429D01*
X170787142Y-72591905D01*
X170834761Y-72687143D01*
X170882380Y-72734762D01*
X170977618Y-72782381D01*
X171072857Y-72782381D01*
X171168095Y-72734762D01*
X171215714Y-72687143D01*
X171263333Y-72591905D01*
X171310952Y-72401429D01*
X171310952Y-72163333D01*
X171263333Y-71972857D01*
X171215714Y-71877619D01*
X171168095Y-71830000D01*
X171072857Y-71782381D01*
X169882380Y-72115714D02*
X169882380Y-72782381D01*
X170120476Y-71734762D02*
X170358571Y-72449048D01*
X169739523Y-72449048D01*
X166663809Y-72727143D02*
X166711428Y-72774762D01*
X166854285Y-72822381D01*
X166949523Y-72822381D01*
X167092381Y-72774762D01*
X167187619Y-72679524D01*
X167235238Y-72584286D01*
X167282857Y-72393810D01*
X167282857Y-72250952D01*
X167235238Y-72060476D01*
X167187619Y-71965238D01*
X167092381Y-71870000D01*
X166949523Y-71822381D01*
X166854285Y-71822381D01*
X166711428Y-71870000D01*
X166663809Y-71917619D01*
X166044762Y-71822381D02*
X165854285Y-71822381D01*
X165759047Y-71870000D01*
X165663809Y-71965238D01*
X165616190Y-72155714D01*
X165616190Y-72489048D01*
X165663809Y-72679524D01*
X165759047Y-72774762D01*
X165854285Y-72822381D01*
X166044762Y-72822381D01*
X166140000Y-72774762D01*
X166235238Y-72679524D01*
X166282857Y-72489048D01*
X166282857Y-72155714D01*
X166235238Y-71965238D01*
X166140000Y-71870000D01*
X166044762Y-71822381D01*
X165187619Y-72822381D02*
X165187619Y-71822381D01*
X164616190Y-72822381D01*
X164616190Y-71822381D01*
X164140000Y-72822381D02*
X164140000Y-71822381D01*
X163568571Y-72822381D01*
X163568571Y-71822381D01*
X163330476Y-72917619D02*
X162568571Y-72917619D01*
X162140000Y-71822381D02*
X162044761Y-71822381D01*
X161949523Y-71870000D01*
X161901904Y-71917619D01*
X161854285Y-72012857D01*
X161806666Y-72203333D01*
X161806666Y-72441429D01*
X161854285Y-72631905D01*
X161901904Y-72727143D01*
X161949523Y-72774762D01*
X162044761Y-72822381D01*
X162140000Y-72822381D01*
X162235238Y-72774762D01*
X162282857Y-72727143D01*
X162330476Y-72631905D01*
X162378095Y-72441429D01*
X162378095Y-72203333D01*
X162330476Y-72012857D01*
X162282857Y-71917619D01*
X162235238Y-71870000D01*
X162140000Y-71822381D01*
X161425714Y-71917619D02*
X161378095Y-71870000D01*
X161282857Y-71822381D01*
X161044761Y-71822381D01*
X160949523Y-71870000D01*
X160901904Y-71917619D01*
X160854285Y-72012857D01*
X160854285Y-72108095D01*
X160901904Y-72250952D01*
X161473333Y-72822381D01*
X160854285Y-72822381D01*
X160520952Y-71822381D02*
X159854285Y-72822381D01*
X159854285Y-71822381D02*
X160520952Y-72822381D01*
X159282857Y-71822381D02*
X159187618Y-71822381D01*
X159092380Y-71870000D01*
X159044761Y-71917619D01*
X158997142Y-72012857D01*
X158949523Y-72203333D01*
X158949523Y-72441429D01*
X158997142Y-72631905D01*
X159044761Y-72727143D01*
X159092380Y-72774762D01*
X159187618Y-72822381D01*
X159282857Y-72822381D01*
X159378095Y-72774762D01*
X159425714Y-72727143D01*
X159473333Y-72631905D01*
X159520952Y-72441429D01*
X159520952Y-72203333D01*
X159473333Y-72012857D01*
X159425714Y-71917619D01*
X159378095Y-71870000D01*
X159282857Y-71822381D01*
X158092380Y-72155714D02*
X158092380Y-72822381D01*
X158330476Y-71774762D02*
X158568571Y-72489048D01*
X157949523Y-72489048D01*
X177745714Y-102788096D02*
X178412381Y-102788096D01*
X177364762Y-102550000D02*
X178079048Y-102311905D01*
X178079048Y-102930953D01*
X177412381Y-103216667D02*
X177412381Y-103883334D01*
X178412381Y-103454762D01*
X177412381Y-104454762D02*
X177412381Y-104550001D01*
X177460000Y-104645239D01*
X177507619Y-104692858D01*
X177602857Y-104740477D01*
X177793333Y-104788096D01*
X178031429Y-104788096D01*
X178221905Y-104740477D01*
X178317143Y-104692858D01*
X178364762Y-104645239D01*
X178412381Y-104550001D01*
X178412381Y-104454762D01*
X178364762Y-104359524D01*
X178317143Y-104311905D01*
X178221905Y-104264286D01*
X178031429Y-104216667D01*
X177793333Y-104216667D01*
X177602857Y-104264286D01*
X177507619Y-104311905D01*
X177460000Y-104359524D01*
X177412381Y-104454762D01*
X178412381Y-105788096D02*
X177936190Y-105454762D01*
X178412381Y-105216667D02*
X177412381Y-105216667D01*
X177412381Y-105597620D01*
X177460000Y-105692858D01*
X177507619Y-105740477D01*
X177602857Y-105788096D01*
X177745714Y-105788096D01*
X177840952Y-105740477D01*
X177888571Y-105692858D01*
X177936190Y-105597620D01*
X177936190Y-105216667D01*
X182602381Y-99494762D02*
X182602381Y-98923333D01*
X182602381Y-99209047D02*
X181602381Y-99209047D01*
X181745238Y-99113809D01*
X181840476Y-99018571D01*
X181888095Y-98923333D01*
X181602381Y-100113809D02*
X181602381Y-100209048D01*
X181650000Y-100304286D01*
X181697619Y-100351905D01*
X181792857Y-100399524D01*
X181983333Y-100447143D01*
X182221429Y-100447143D01*
X182411905Y-100399524D01*
X182507143Y-100351905D01*
X182554762Y-100304286D01*
X182602381Y-100209048D01*
X182602381Y-100113809D01*
X182554762Y-100018571D01*
X182507143Y-99970952D01*
X182411905Y-99923333D01*
X182221429Y-99875714D01*
X181983333Y-99875714D01*
X181792857Y-99923333D01*
X181697619Y-99970952D01*
X181650000Y-100018571D01*
X181602381Y-100113809D01*
X182602381Y-100875714D02*
X181602381Y-100875714D01*
X182221429Y-100970952D02*
X182602381Y-101256667D01*
X181935714Y-101256667D02*
X182316667Y-100875714D01*
X179802381Y-103454762D02*
X179802381Y-102883333D01*
X179802381Y-103169047D02*
X178802381Y-103169047D01*
X178945238Y-103073809D01*
X179040476Y-102978571D01*
X179088095Y-102883333D01*
X178802381Y-104073809D02*
X178802381Y-104169048D01*
X178850000Y-104264286D01*
X178897619Y-104311905D01*
X178992857Y-104359524D01*
X179183333Y-104407143D01*
X179421429Y-104407143D01*
X179611905Y-104359524D01*
X179707143Y-104311905D01*
X179754762Y-104264286D01*
X179802381Y-104169048D01*
X179802381Y-104073809D01*
X179754762Y-103978571D01*
X179707143Y-103930952D01*
X179611905Y-103883333D01*
X179421429Y-103835714D01*
X179183333Y-103835714D01*
X178992857Y-103883333D01*
X178897619Y-103930952D01*
X178850000Y-103978571D01*
X178802381Y-104073809D01*
X179802381Y-104835714D02*
X178802381Y-104835714D01*
X179421429Y-104930952D02*
X179802381Y-105216667D01*
X179135714Y-105216667D02*
X179516667Y-104835714D01*
X172532381Y-90154762D02*
X172532381Y-89583333D01*
X172532381Y-89869047D02*
X171532381Y-89869047D01*
X171675238Y-89773809D01*
X171770476Y-89678571D01*
X171818095Y-89583333D01*
X171532381Y-90773809D02*
X171532381Y-90869048D01*
X171580000Y-90964286D01*
X171627619Y-91011905D01*
X171722857Y-91059524D01*
X171913333Y-91107143D01*
X172151429Y-91107143D01*
X172341905Y-91059524D01*
X172437143Y-91011905D01*
X172484762Y-90964286D01*
X172532381Y-90869048D01*
X172532381Y-90773809D01*
X172484762Y-90678571D01*
X172437143Y-90630952D01*
X172341905Y-90583333D01*
X172151429Y-90535714D01*
X171913333Y-90535714D01*
X171722857Y-90583333D01*
X171627619Y-90630952D01*
X171580000Y-90678571D01*
X171532381Y-90773809D01*
X172532381Y-91535714D02*
X171532381Y-91535714D01*
X172151429Y-91630952D02*
X172532381Y-91916667D01*
X171865714Y-91916667D02*
X172246667Y-91535714D01*
X172532381Y-97374762D02*
X172532381Y-96803333D01*
X172532381Y-97089047D02*
X171532381Y-97089047D01*
X171675238Y-96993809D01*
X171770476Y-96898571D01*
X171818095Y-96803333D01*
X171532381Y-97993809D02*
X171532381Y-98089048D01*
X171580000Y-98184286D01*
X171627619Y-98231905D01*
X171722857Y-98279524D01*
X171913333Y-98327143D01*
X172151429Y-98327143D01*
X172341905Y-98279524D01*
X172437143Y-98231905D01*
X172484762Y-98184286D01*
X172532381Y-98089048D01*
X172532381Y-97993809D01*
X172484762Y-97898571D01*
X172437143Y-97850952D01*
X172341905Y-97803333D01*
X172151429Y-97755714D01*
X171913333Y-97755714D01*
X171722857Y-97803333D01*
X171627619Y-97850952D01*
X171580000Y-97898571D01*
X171532381Y-97993809D01*
X172532381Y-98755714D02*
X171532381Y-98755714D01*
X172151429Y-98850952D02*
X172532381Y-99136667D01*
X171865714Y-99136667D02*
X172246667Y-98755714D01*
X176732381Y-93744762D02*
X176732381Y-93173333D01*
X176732381Y-93459047D02*
X175732381Y-93459047D01*
X175875238Y-93363809D01*
X175970476Y-93268571D01*
X176018095Y-93173333D01*
X175732381Y-94363809D02*
X175732381Y-94459048D01*
X175780000Y-94554286D01*
X175827619Y-94601905D01*
X175922857Y-94649524D01*
X176113333Y-94697143D01*
X176351429Y-94697143D01*
X176541905Y-94649524D01*
X176637143Y-94601905D01*
X176684762Y-94554286D01*
X176732381Y-94459048D01*
X176732381Y-94363809D01*
X176684762Y-94268571D01*
X176637143Y-94220952D01*
X176541905Y-94173333D01*
X176351429Y-94125714D01*
X176113333Y-94125714D01*
X175922857Y-94173333D01*
X175827619Y-94220952D01*
X175780000Y-94268571D01*
X175732381Y-94363809D01*
X176732381Y-95125714D02*
X175732381Y-95125714D01*
X176351429Y-95220952D02*
X176732381Y-95506667D01*
X176065714Y-95506667D02*
X176446667Y-95125714D01*
X123212381Y-90683810D02*
X123212381Y-90207619D01*
X122212381Y-90207619D01*
X122212381Y-90874286D02*
X122212381Y-91445715D01*
X123212381Y-91160000D02*
X122212381Y-91160000D01*
X123117143Y-92350477D02*
X123164762Y-92302858D01*
X123212381Y-92160001D01*
X123212381Y-92064763D01*
X123164762Y-91921905D01*
X123069524Y-91826667D01*
X122974286Y-91779048D01*
X122783810Y-91731429D01*
X122640952Y-91731429D01*
X122450476Y-91779048D01*
X122355238Y-91826667D01*
X122260000Y-91921905D01*
X122212381Y-92064763D01*
X122212381Y-92160001D01*
X122260000Y-92302858D01*
X122307619Y-92350477D01*
X122545714Y-93207620D02*
X123212381Y-93207620D01*
X122164762Y-92969524D02*
X122879048Y-92731429D01*
X122879048Y-93350477D01*
X122545714Y-94160001D02*
X123212381Y-94160001D01*
X122164762Y-93921905D02*
X122879048Y-93683810D01*
X122879048Y-94302858D01*
X123212381Y-95207620D02*
X123212381Y-94636191D01*
X123212381Y-94921905D02*
X122212381Y-94921905D01*
X122355238Y-94826667D01*
X122450476Y-94731429D01*
X122498095Y-94636191D01*
X122307619Y-95588572D02*
X122260000Y-95636191D01*
X122212381Y-95731429D01*
X122212381Y-95969525D01*
X122260000Y-96064763D01*
X122307619Y-96112382D01*
X122402857Y-96160001D01*
X122498095Y-96160001D01*
X122640952Y-96112382D01*
X123212381Y-95540953D01*
X123212381Y-96160001D01*
X182372857Y-78308571D02*
X182230000Y-78356190D01*
X182182381Y-78403810D01*
X182134762Y-78499048D01*
X182134762Y-78641905D01*
X182182381Y-78737143D01*
X182230000Y-78784762D01*
X182325238Y-78832381D01*
X182706191Y-78832381D01*
X182706191Y-77832381D01*
X182372857Y-77832381D01*
X182277619Y-77880000D01*
X182230000Y-77927619D01*
X182182381Y-78022857D01*
X182182381Y-78118095D01*
X182230000Y-78213333D01*
X182277619Y-78260952D01*
X182372857Y-78308571D01*
X182706191Y-78308571D01*
X181277619Y-78165714D02*
X181277619Y-78832381D01*
X181706191Y-78165714D02*
X181706191Y-78689524D01*
X181658572Y-78784762D01*
X181563334Y-78832381D01*
X181420476Y-78832381D01*
X181325238Y-78784762D01*
X181277619Y-78737143D01*
X180801429Y-78832381D02*
X180801429Y-78165714D01*
X180801429Y-78356190D02*
X180753810Y-78260952D01*
X180706191Y-78213333D01*
X180610953Y-78165714D01*
X180515714Y-78165714D01*
X180182381Y-78165714D02*
X180182381Y-78832381D01*
X180182381Y-78260952D02*
X180134762Y-78213333D01*
X180039524Y-78165714D01*
X179896666Y-78165714D01*
X179801428Y-78213333D01*
X179753809Y-78308571D01*
X179753809Y-78832381D01*
X135393143Y-105716191D02*
X135440762Y-105668572D01*
X135488381Y-105525715D01*
X135488381Y-105430477D01*
X135440762Y-105287619D01*
X135345524Y-105192381D01*
X135250286Y-105144762D01*
X135059810Y-105097143D01*
X134916952Y-105097143D01*
X134726476Y-105144762D01*
X134631238Y-105192381D01*
X134536000Y-105287619D01*
X134488381Y-105430477D01*
X134488381Y-105525715D01*
X134536000Y-105668572D01*
X134583619Y-105716191D01*
X134488381Y-106335238D02*
X134488381Y-106525715D01*
X134536000Y-106620953D01*
X134631238Y-106716191D01*
X134821714Y-106763810D01*
X135155048Y-106763810D01*
X135345524Y-106716191D01*
X135440762Y-106620953D01*
X135488381Y-106525715D01*
X135488381Y-106335238D01*
X135440762Y-106240000D01*
X135345524Y-106144762D01*
X135155048Y-106097143D01*
X134821714Y-106097143D01*
X134631238Y-106144762D01*
X134536000Y-106240000D01*
X134488381Y-106335238D01*
X135488381Y-107192381D02*
X134488381Y-107192381D01*
X135488381Y-107763810D01*
X134488381Y-107763810D01*
X135488381Y-108240000D02*
X134488381Y-108240000D01*
X135488381Y-108811429D01*
X134488381Y-108811429D01*
X135583619Y-109049524D02*
X135583619Y-109811429D01*
X134488381Y-110240000D02*
X134488381Y-110335239D01*
X134536000Y-110430477D01*
X134583619Y-110478096D01*
X134678857Y-110525715D01*
X134869333Y-110573334D01*
X135107429Y-110573334D01*
X135297905Y-110525715D01*
X135393143Y-110478096D01*
X135440762Y-110430477D01*
X135488381Y-110335239D01*
X135488381Y-110240000D01*
X135440762Y-110144762D01*
X135393143Y-110097143D01*
X135297905Y-110049524D01*
X135107429Y-110001905D01*
X134869333Y-110001905D01*
X134678857Y-110049524D01*
X134583619Y-110097143D01*
X134536000Y-110144762D01*
X134488381Y-110240000D01*
X135488381Y-111525715D02*
X135488381Y-110954286D01*
X135488381Y-111240000D02*
X134488381Y-111240000D01*
X134631238Y-111144762D01*
X134726476Y-111049524D01*
X134774095Y-110954286D01*
X134488381Y-111859048D02*
X135488381Y-112525715D01*
X134488381Y-112525715D02*
X135488381Y-111859048D01*
X134488381Y-113097143D02*
X134488381Y-113192382D01*
X134536000Y-113287620D01*
X134583619Y-113335239D01*
X134678857Y-113382858D01*
X134869333Y-113430477D01*
X135107429Y-113430477D01*
X135297905Y-113382858D01*
X135393143Y-113335239D01*
X135440762Y-113287620D01*
X135488381Y-113192382D01*
X135488381Y-113097143D01*
X135440762Y-113001905D01*
X135393143Y-112954286D01*
X135297905Y-112906667D01*
X135107429Y-112859048D01*
X134869333Y-112859048D01*
X134678857Y-112906667D01*
X134583619Y-112954286D01*
X134536000Y-113001905D01*
X134488381Y-113097143D01*
X135488381Y-113906667D02*
X135488381Y-114097143D01*
X135440762Y-114192382D01*
X135393143Y-114240001D01*
X135250286Y-114335239D01*
X135059810Y-114382858D01*
X134678857Y-114382858D01*
X134583619Y-114335239D01*
X134536000Y-114287620D01*
X134488381Y-114192382D01*
X134488381Y-114001905D01*
X134536000Y-113906667D01*
X134583619Y-113859048D01*
X134678857Y-113811429D01*
X134916952Y-113811429D01*
X135012190Y-113859048D01*
X135059810Y-113906667D01*
X135107429Y-114001905D01*
X135107429Y-114192382D01*
X135059810Y-114287620D01*
X135012190Y-114335239D01*
X134916952Y-114382858D01*
X168523809Y-111957143D02*
X168571428Y-112004762D01*
X168714285Y-112052381D01*
X168809523Y-112052381D01*
X168952381Y-112004762D01*
X169047619Y-111909524D01*
X169095238Y-111814286D01*
X169142857Y-111623810D01*
X169142857Y-111480952D01*
X169095238Y-111290476D01*
X169047619Y-111195238D01*
X168952381Y-111100000D01*
X168809523Y-111052381D01*
X168714285Y-111052381D01*
X168571428Y-111100000D01*
X168523809Y-111147619D01*
X167904762Y-111052381D02*
X167714285Y-111052381D01*
X167619047Y-111100000D01*
X167523809Y-111195238D01*
X167476190Y-111385714D01*
X167476190Y-111719048D01*
X167523809Y-111909524D01*
X167619047Y-112004762D01*
X167714285Y-112052381D01*
X167904762Y-112052381D01*
X168000000Y-112004762D01*
X168095238Y-111909524D01*
X168142857Y-111719048D01*
X168142857Y-111385714D01*
X168095238Y-111195238D01*
X168000000Y-111100000D01*
X167904762Y-111052381D01*
X167047619Y-112052381D02*
X167047619Y-111052381D01*
X166476190Y-112052381D01*
X166476190Y-111052381D01*
X166000000Y-112052381D02*
X166000000Y-111052381D01*
X165428571Y-112052381D01*
X165428571Y-111052381D01*
X165190476Y-112147619D02*
X164428571Y-112147619D01*
X164000000Y-111052381D02*
X163904761Y-111052381D01*
X163809523Y-111100000D01*
X163761904Y-111147619D01*
X163714285Y-111242857D01*
X163666666Y-111433333D01*
X163666666Y-111671429D01*
X163714285Y-111861905D01*
X163761904Y-111957143D01*
X163809523Y-112004762D01*
X163904761Y-112052381D01*
X164000000Y-112052381D01*
X164095238Y-112004762D01*
X164142857Y-111957143D01*
X164190476Y-111861905D01*
X164238095Y-111671429D01*
X164238095Y-111433333D01*
X164190476Y-111242857D01*
X164142857Y-111147619D01*
X164095238Y-111100000D01*
X164000000Y-111052381D01*
X162714285Y-112052381D02*
X163285714Y-112052381D01*
X163000000Y-112052381D02*
X163000000Y-111052381D01*
X163095238Y-111195238D01*
X163190476Y-111290476D01*
X163285714Y-111338095D01*
X162380952Y-111052381D02*
X161714285Y-112052381D01*
X161714285Y-111052381D02*
X162380952Y-112052381D01*
X161142857Y-111052381D02*
X161047618Y-111052381D01*
X160952380Y-111100000D01*
X160904761Y-111147619D01*
X160857142Y-111242857D01*
X160809523Y-111433333D01*
X160809523Y-111671429D01*
X160857142Y-111861905D01*
X160904761Y-111957143D01*
X160952380Y-112004762D01*
X161047618Y-112052381D01*
X161142857Y-112052381D01*
X161238095Y-112004762D01*
X161285714Y-111957143D01*
X161333333Y-111861905D01*
X161380952Y-111671429D01*
X161380952Y-111433333D01*
X161333333Y-111242857D01*
X161285714Y-111147619D01*
X161238095Y-111100000D01*
X161142857Y-111052381D01*
X160476190Y-111052381D02*
X159857142Y-111052381D01*
X160190476Y-111433333D01*
X160047618Y-111433333D01*
X159952380Y-111480952D01*
X159904761Y-111528571D01*
X159857142Y-111623810D01*
X159857142Y-111861905D01*
X159904761Y-111957143D01*
X159952380Y-112004762D01*
X160047618Y-112052381D01*
X160333333Y-112052381D01*
X160428571Y-112004762D01*
X160476190Y-111957143D01*
X177682381Y-102930953D02*
X177682381Y-102359524D01*
X177682381Y-102645238D02*
X176682381Y-102645238D01*
X176825238Y-102550000D01*
X176920476Y-102454762D01*
X176968095Y-102359524D01*
X176682381Y-103550000D02*
X176682381Y-103645239D01*
X176730000Y-103740477D01*
X176777619Y-103788096D01*
X176872857Y-103835715D01*
X177063333Y-103883334D01*
X177301429Y-103883334D01*
X177491905Y-103835715D01*
X177587143Y-103788096D01*
X177634762Y-103740477D01*
X177682381Y-103645239D01*
X177682381Y-103550000D01*
X177634762Y-103454762D01*
X177587143Y-103407143D01*
X177491905Y-103359524D01*
X177301429Y-103311905D01*
X177063333Y-103311905D01*
X176872857Y-103359524D01*
X176777619Y-103407143D01*
X176730000Y-103454762D01*
X176682381Y-103550000D01*
X176682381Y-104502381D02*
X176682381Y-104597620D01*
X176730000Y-104692858D01*
X176777619Y-104740477D01*
X176872857Y-104788096D01*
X177063333Y-104835715D01*
X177301429Y-104835715D01*
X177491905Y-104788096D01*
X177587143Y-104740477D01*
X177634762Y-104692858D01*
X177682381Y-104597620D01*
X177682381Y-104502381D01*
X177634762Y-104407143D01*
X177587143Y-104359524D01*
X177491905Y-104311905D01*
X177301429Y-104264286D01*
X177063333Y-104264286D01*
X176872857Y-104311905D01*
X176777619Y-104359524D01*
X176730000Y-104407143D01*
X176682381Y-104502381D01*
X177015714Y-105264286D02*
X177682381Y-105264286D01*
X177110952Y-105264286D02*
X177063333Y-105311905D01*
X177015714Y-105407143D01*
X177015714Y-105550001D01*
X177063333Y-105645239D01*
X177158571Y-105692858D01*
X177682381Y-105692858D01*
X184747619Y-89300667D02*
X184271428Y-89300667D01*
X184842857Y-89586381D02*
X184509524Y-88586381D01*
X184176190Y-89586381D01*
X183842857Y-89586381D02*
X183842857Y-88586381D01*
X183461904Y-88586381D01*
X183366666Y-88634000D01*
X183319047Y-88681619D01*
X183271428Y-88776857D01*
X183271428Y-88919714D01*
X183319047Y-89014952D01*
X183366666Y-89062571D01*
X183461904Y-89110190D01*
X183842857Y-89110190D01*
X182319047Y-89586381D02*
X182890476Y-89586381D01*
X182604762Y-89586381D02*
X182604762Y-88586381D01*
X182700000Y-88729238D01*
X182795238Y-88824476D01*
X182890476Y-88872095D01*
X181366666Y-89586381D02*
X181938095Y-89586381D01*
X181652381Y-89586381D02*
X181652381Y-88586381D01*
X181747619Y-88729238D01*
X181842857Y-88824476D01*
X181938095Y-88872095D01*
X180414285Y-89586381D02*
X180985714Y-89586381D01*
X180700000Y-89586381D02*
X180700000Y-88586381D01*
X180795238Y-88729238D01*
X180890476Y-88824476D01*
X180985714Y-88872095D01*
X180080952Y-88586381D02*
X179414285Y-88586381D01*
X179842857Y-89586381D01*
X179033333Y-89062571D02*
X178699999Y-89062571D01*
X178557142Y-89586381D02*
X179033333Y-89586381D01*
X179033333Y-88586381D01*
X178557142Y-88586381D01*
X177652380Y-88586381D02*
X178128571Y-88586381D01*
X178176190Y-89062571D01*
X178128571Y-89014952D01*
X178033333Y-88967333D01*
X177795237Y-88967333D01*
X177699999Y-89014952D01*
X177652380Y-89062571D01*
X177604761Y-89157810D01*
X177604761Y-89395905D01*
X177652380Y-89491143D01*
X177699999Y-89538762D01*
X177795237Y-89586381D01*
X178033333Y-89586381D01*
X178128571Y-89538762D01*
X178176190Y-89491143D01*
X176985714Y-88586381D02*
X176890475Y-88586381D01*
X176795237Y-88634000D01*
X176747618Y-88681619D01*
X176699999Y-88776857D01*
X176652380Y-88967333D01*
X176652380Y-89205429D01*
X176699999Y-89395905D01*
X176747618Y-89491143D01*
X176795237Y-89538762D01*
X176890475Y-89586381D01*
X176985714Y-89586381D01*
X177080952Y-89538762D01*
X177128571Y-89491143D01*
X177176190Y-89395905D01*
X177223809Y-89205429D01*
X177223809Y-88967333D01*
X177176190Y-88776857D01*
X177128571Y-88681619D01*
X177080952Y-88634000D01*
X176985714Y-88586381D01*
X182032381Y-94238572D02*
X182032381Y-93667143D01*
X182032381Y-93952857D02*
X181032381Y-93952857D01*
X181175238Y-93857619D01*
X181270476Y-93762381D01*
X181318095Y-93667143D01*
X181032381Y-94857619D02*
X181032381Y-94952858D01*
X181080000Y-95048096D01*
X181127619Y-95095715D01*
X181222857Y-95143334D01*
X181413333Y-95190953D01*
X181651429Y-95190953D01*
X181841905Y-95143334D01*
X181937143Y-95095715D01*
X181984762Y-95048096D01*
X182032381Y-94952858D01*
X182032381Y-94857619D01*
X181984762Y-94762381D01*
X181937143Y-94714762D01*
X181841905Y-94667143D01*
X181651429Y-94619524D01*
X181413333Y-94619524D01*
X181222857Y-94667143D01*
X181127619Y-94714762D01*
X181080000Y-94762381D01*
X181032381Y-94857619D01*
X181365714Y-96048096D02*
X182032381Y-96048096D01*
X181365714Y-95619524D02*
X181889524Y-95619524D01*
X181984762Y-95667143D01*
X182032381Y-95762381D01*
X182032381Y-95905239D01*
X181984762Y-96000477D01*
X181937143Y-96048096D01*
X181508571Y-96857620D02*
X181508571Y-96524286D01*
X182032381Y-96524286D02*
X181032381Y-96524286D01*
X181032381Y-97000477D01*
X184452381Y-93782381D02*
X184452381Y-93210952D01*
X184452381Y-93496666D02*
X183452381Y-93496666D01*
X183595238Y-93401428D01*
X183690476Y-93306190D01*
X183738095Y-93210952D01*
X183452381Y-94401428D02*
X183452381Y-94496667D01*
X183500000Y-94591905D01*
X183547619Y-94639524D01*
X183642857Y-94687143D01*
X183833333Y-94734762D01*
X184071429Y-94734762D01*
X184261905Y-94687143D01*
X184357143Y-94639524D01*
X184404762Y-94591905D01*
X184452381Y-94496667D01*
X184452381Y-94401428D01*
X184404762Y-94306190D01*
X184357143Y-94258571D01*
X184261905Y-94210952D01*
X184071429Y-94163333D01*
X183833333Y-94163333D01*
X183642857Y-94210952D01*
X183547619Y-94258571D01*
X183500000Y-94306190D01*
X183452381Y-94401428D01*
X183452381Y-95353809D02*
X183452381Y-95449048D01*
X183500000Y-95544286D01*
X183547619Y-95591905D01*
X183642857Y-95639524D01*
X183833333Y-95687143D01*
X184071429Y-95687143D01*
X184261905Y-95639524D01*
X184357143Y-95591905D01*
X184404762Y-95544286D01*
X184452381Y-95449048D01*
X184452381Y-95353809D01*
X184404762Y-95258571D01*
X184357143Y-95210952D01*
X184261905Y-95163333D01*
X184071429Y-95115714D01*
X183833333Y-95115714D01*
X183642857Y-95163333D01*
X183547619Y-95210952D01*
X183500000Y-95258571D01*
X183452381Y-95353809D01*
X183785714Y-96544286D02*
X184452381Y-96544286D01*
X183785714Y-96115714D02*
X184309524Y-96115714D01*
X184404762Y-96163333D01*
X184452381Y-96258571D01*
X184452381Y-96401429D01*
X184404762Y-96496667D01*
X184357143Y-96544286D01*
X183928571Y-97353810D02*
X183928571Y-97020476D01*
X184452381Y-97020476D02*
X183452381Y-97020476D01*
X183452381Y-97496667D01*
X178141429Y-59942381D02*
X178141429Y-60751905D01*
X178093810Y-60847143D01*
X178046191Y-60894762D01*
X177950953Y-60942381D01*
X177760476Y-60942381D01*
X177665238Y-60894762D01*
X177617619Y-60847143D01*
X177570000Y-60751905D01*
X177570000Y-59942381D01*
X177141429Y-60894762D02*
X176998572Y-60942381D01*
X176760476Y-60942381D01*
X176665238Y-60894762D01*
X176617619Y-60847143D01*
X176570000Y-60751905D01*
X176570000Y-60656667D01*
X176617619Y-60561429D01*
X176665238Y-60513810D01*
X176760476Y-60466190D01*
X176950953Y-60418571D01*
X177046191Y-60370952D01*
X177093810Y-60323333D01*
X177141429Y-60228095D01*
X177141429Y-60132857D01*
X177093810Y-60037619D01*
X177046191Y-59990000D01*
X176950953Y-59942381D01*
X176712857Y-59942381D01*
X176570000Y-59990000D01*
X175808095Y-60418571D02*
X175665238Y-60466190D01*
X175617619Y-60513810D01*
X175570000Y-60609048D01*
X175570000Y-60751905D01*
X175617619Y-60847143D01*
X175665238Y-60894762D01*
X175760476Y-60942381D01*
X176141429Y-60942381D01*
X176141429Y-59942381D01*
X175808095Y-59942381D01*
X175712857Y-59990000D01*
X175665238Y-60037619D01*
X175617619Y-60132857D01*
X175617619Y-60228095D01*
X175665238Y-60323333D01*
X175712857Y-60370952D01*
X175808095Y-60418571D01*
X176141429Y-60418571D01*
X175379524Y-61037619D02*
X174617619Y-61037619D01*
X174427143Y-60656667D02*
X173950952Y-60656667D01*
X174522381Y-60942381D02*
X174189048Y-59942381D01*
X173855714Y-60942381D01*
X166211429Y-59982381D02*
X166211429Y-60791905D01*
X166163810Y-60887143D01*
X166116191Y-60934762D01*
X166020953Y-60982381D01*
X165830476Y-60982381D01*
X165735238Y-60934762D01*
X165687619Y-60887143D01*
X165640000Y-60791905D01*
X165640000Y-59982381D01*
X165211429Y-60934762D02*
X165068572Y-60982381D01*
X164830476Y-60982381D01*
X164735238Y-60934762D01*
X164687619Y-60887143D01*
X164640000Y-60791905D01*
X164640000Y-60696667D01*
X164687619Y-60601429D01*
X164735238Y-60553810D01*
X164830476Y-60506190D01*
X165020953Y-60458571D01*
X165116191Y-60410952D01*
X165163810Y-60363333D01*
X165211429Y-60268095D01*
X165211429Y-60172857D01*
X165163810Y-60077619D01*
X165116191Y-60030000D01*
X165020953Y-59982381D01*
X164782857Y-59982381D01*
X164640000Y-60030000D01*
X163878095Y-60458571D02*
X163735238Y-60506190D01*
X163687619Y-60553810D01*
X163640000Y-60649048D01*
X163640000Y-60791905D01*
X163687619Y-60887143D01*
X163735238Y-60934762D01*
X163830476Y-60982381D01*
X164211429Y-60982381D01*
X164211429Y-59982381D01*
X163878095Y-59982381D01*
X163782857Y-60030000D01*
X163735238Y-60077619D01*
X163687619Y-60172857D01*
X163687619Y-60268095D01*
X163735238Y-60363333D01*
X163782857Y-60410952D01*
X163878095Y-60458571D01*
X164211429Y-60458571D01*
X163449524Y-61077619D02*
X162687619Y-61077619D01*
X162497143Y-60696667D02*
X162020952Y-60696667D01*
X162592381Y-60982381D02*
X162259048Y-59982381D01*
X161925714Y-60982381D01*
X141771429Y-59752381D02*
X141771429Y-60561905D01*
X141723810Y-60657143D01*
X141676191Y-60704762D01*
X141580953Y-60752381D01*
X141390476Y-60752381D01*
X141295238Y-60704762D01*
X141247619Y-60657143D01*
X141200000Y-60561905D01*
X141200000Y-59752381D01*
X140771429Y-60704762D02*
X140628572Y-60752381D01*
X140390476Y-60752381D01*
X140295238Y-60704762D01*
X140247619Y-60657143D01*
X140200000Y-60561905D01*
X140200000Y-60466667D01*
X140247619Y-60371429D01*
X140295238Y-60323810D01*
X140390476Y-60276190D01*
X140580953Y-60228571D01*
X140676191Y-60180952D01*
X140723810Y-60133333D01*
X140771429Y-60038095D01*
X140771429Y-59942857D01*
X140723810Y-59847619D01*
X140676191Y-59800000D01*
X140580953Y-59752381D01*
X140342857Y-59752381D01*
X140200000Y-59800000D01*
X139438095Y-60228571D02*
X139295238Y-60276190D01*
X139247619Y-60323810D01*
X139200000Y-60419048D01*
X139200000Y-60561905D01*
X139247619Y-60657143D01*
X139295238Y-60704762D01*
X139390476Y-60752381D01*
X139771429Y-60752381D01*
X139771429Y-59752381D01*
X139438095Y-59752381D01*
X139342857Y-59800000D01*
X139295238Y-59847619D01*
X139247619Y-59942857D01*
X139247619Y-60038095D01*
X139295238Y-60133333D01*
X139342857Y-60180952D01*
X139438095Y-60228571D01*
X139771429Y-60228571D01*
X139009524Y-60847619D02*
X138247619Y-60847619D01*
X138057143Y-60466667D02*
X137580952Y-60466667D01*
X138152381Y-60752381D02*
X137819048Y-59752381D01*
X137485714Y-60752381D01*
X129421429Y-59702381D02*
X129421429Y-60511905D01*
X129373810Y-60607143D01*
X129326191Y-60654762D01*
X129230953Y-60702381D01*
X129040476Y-60702381D01*
X128945238Y-60654762D01*
X128897619Y-60607143D01*
X128850000Y-60511905D01*
X128850000Y-59702381D01*
X128421429Y-60654762D02*
X128278572Y-60702381D01*
X128040476Y-60702381D01*
X127945238Y-60654762D01*
X127897619Y-60607143D01*
X127850000Y-60511905D01*
X127850000Y-60416667D01*
X127897619Y-60321429D01*
X127945238Y-60273810D01*
X128040476Y-60226190D01*
X128230953Y-60178571D01*
X128326191Y-60130952D01*
X128373810Y-60083333D01*
X128421429Y-59988095D01*
X128421429Y-59892857D01*
X128373810Y-59797619D01*
X128326191Y-59750000D01*
X128230953Y-59702381D01*
X127992857Y-59702381D01*
X127850000Y-59750000D01*
X127088095Y-60178571D02*
X126945238Y-60226190D01*
X126897619Y-60273810D01*
X126850000Y-60369048D01*
X126850000Y-60511905D01*
X126897619Y-60607143D01*
X126945238Y-60654762D01*
X127040476Y-60702381D01*
X127421429Y-60702381D01*
X127421429Y-59702381D01*
X127088095Y-59702381D01*
X126992857Y-59750000D01*
X126945238Y-59797619D01*
X126897619Y-59892857D01*
X126897619Y-59988095D01*
X126945238Y-60083333D01*
X126992857Y-60130952D01*
X127088095Y-60178571D01*
X127421429Y-60178571D01*
X126659524Y-60797619D02*
X125897619Y-60797619D01*
X125707143Y-60416667D02*
X125230952Y-60416667D01*
X125802381Y-60702381D02*
X125469048Y-59702381D01*
X125135714Y-60702381D01*
X104837619Y-99377143D02*
X104790000Y-99424762D01*
X104742381Y-99520000D01*
X104742381Y-99758096D01*
X104790000Y-99853334D01*
X104837619Y-99900953D01*
X104932857Y-99948572D01*
X105028095Y-99948572D01*
X105170952Y-99900953D01*
X105742381Y-99329524D01*
X105742381Y-99948572D01*
X104837619Y-100329524D02*
X104790000Y-100377143D01*
X104742381Y-100472381D01*
X104742381Y-100710477D01*
X104790000Y-100805715D01*
X104837619Y-100853334D01*
X104932857Y-100900953D01*
X105028095Y-100900953D01*
X105170952Y-100853334D01*
X105742381Y-100281905D01*
X105742381Y-100900953D01*
X105075714Y-101758096D02*
X105742381Y-101758096D01*
X105075714Y-101329524D02*
X105599524Y-101329524D01*
X105694762Y-101377143D01*
X105742381Y-101472381D01*
X105742381Y-101615239D01*
X105694762Y-101710477D01*
X105647143Y-101758096D01*
X105218571Y-102567620D02*
X105218571Y-102234286D01*
X105742381Y-102234286D02*
X104742381Y-102234286D01*
X104742381Y-102710477D01*
X170935238Y-95232381D02*
X170363809Y-95232381D01*
X170649524Y-96232381D02*
X170649524Y-95232381D01*
X170030476Y-95708571D02*
X169697142Y-95708571D01*
X169554285Y-96232381D02*
X170030476Y-96232381D01*
X170030476Y-95232381D01*
X169554285Y-95232381D01*
X169173333Y-96184762D02*
X169030476Y-96232381D01*
X168792380Y-96232381D01*
X168697142Y-96184762D01*
X168649523Y-96137143D01*
X168601904Y-96041905D01*
X168601904Y-95946667D01*
X168649523Y-95851429D01*
X168697142Y-95803810D01*
X168792380Y-95756190D01*
X168982857Y-95708571D01*
X169078095Y-95660952D01*
X169125714Y-95613333D01*
X169173333Y-95518095D01*
X169173333Y-95422857D01*
X169125714Y-95327619D01*
X169078095Y-95280000D01*
X168982857Y-95232381D01*
X168744761Y-95232381D01*
X168601904Y-95280000D01*
X168316190Y-95232381D02*
X167744761Y-95232381D01*
X168030476Y-96232381D02*
X168030476Y-95232381D01*
X170935238Y-95232381D02*
X170363809Y-95232381D01*
X170649524Y-96232381D02*
X170649524Y-95232381D01*
X170030476Y-95708571D02*
X169697142Y-95708571D01*
X169554285Y-96232381D02*
X170030476Y-96232381D01*
X170030476Y-95232381D01*
X169554285Y-95232381D01*
X169173333Y-96184762D02*
X169030476Y-96232381D01*
X168792380Y-96232381D01*
X168697142Y-96184762D01*
X168649523Y-96137143D01*
X168601904Y-96041905D01*
X168601904Y-95946667D01*
X168649523Y-95851429D01*
X168697142Y-95803810D01*
X168792380Y-95756190D01*
X168982857Y-95708571D01*
X169078095Y-95660952D01*
X169125714Y-95613333D01*
X169173333Y-95518095D01*
X169173333Y-95422857D01*
X169125714Y-95327619D01*
X169078095Y-95280000D01*
X168982857Y-95232381D01*
X168744761Y-95232381D01*
X168601904Y-95280000D01*
X168316190Y-95232381D02*
X167744761Y-95232381D01*
X168030476Y-96232381D02*
X168030476Y-95232381D01*
M02*
