G04 #@! TF.FileFunction,Soldermask,Bot*
%FSLAX46Y46*%
G04 Gerber Fmt 4.6, Leading zero omitted, Abs format (unit mm)*
G04 Created by KiCad (PCBNEW 4.0.1-stable) date 07.06.2016 17:51:43*
%MOMM*%
G01*
G04 APERTURE LIST*
%ADD10C,0.100000*%
%ADD11R,4.057600X2.432000*%
%ADD12R,1.416000X2.432000*%
%ADD13R,1.650000X1.400000*%
%ADD14R,2.300000X2.400000*%
%ADD15C,2.300000*%
%ADD16R,5.800040X3.300680*%
%ADD17R,3.900120X10.808920*%
%ADD18R,7.410400X1.499820*%
%ADD19R,2.400000X2.300000*%
%ADD20C,5.200600*%
%ADD21R,5.200600X5.200600*%
%ADD22R,1.050000X1.460000*%
%ADD23C,1.924000*%
%ADD24C,3.100020*%
%ADD25O,2.250000X2.250000*%
%ADD26C,1.200000*%
%ADD27R,1.650000X1.900000*%
%ADD28R,1.400000X1.650000*%
%ADD29R,1.100000X1.700000*%
%ADD30R,1.700000X1.100000*%
%ADD31R,2.432000X4.057600*%
%ADD32R,2.432000X1.416000*%
%ADD33R,2.400000X2.400000*%
%ADD34C,2.400000*%
%ADD35R,3.448000X2.051000*%
%ADD36R,6.496000X6.496000*%
%ADD37R,0.740000X1.240000*%
%ADD38R,1.900000X1.650000*%
%ADD39R,1.700000X1.900000*%
G04 APERTURE END LIST*
D10*
D11*
X137850000Y-91550000D03*
D12*
X137850000Y-84946000D03*
X140136000Y-84946000D03*
X135564000Y-84946000D03*
D13*
X153500000Y-97000000D03*
X153500000Y-95000000D03*
D14*
X159900000Y-81950000D03*
D15*
X157360000Y-81950000D03*
D16*
X122850000Y-110800000D03*
X122850000Y-100797480D03*
D14*
X163150000Y-81950000D03*
D15*
X165690000Y-81950000D03*
D17*
X145250000Y-99600000D03*
D18*
X134559140Y-102140000D03*
X134559140Y-97060000D03*
D19*
X100200000Y-99390000D03*
D15*
X100200000Y-96850000D03*
D20*
X100764000Y-108680000D03*
D21*
X106860000Y-108680000D03*
D20*
X103050000Y-103600000D03*
D22*
X163400000Y-74250000D03*
X162450000Y-74250000D03*
X161500000Y-74250000D03*
X161500000Y-72050000D03*
X163400000Y-72050000D03*
D23*
X109748980Y-82790000D03*
X109748980Y-80250000D03*
X107750000Y-80250000D03*
X107750000Y-82790000D03*
D24*
X105049980Y-87519480D03*
X105049980Y-75520520D03*
D25*
X127480000Y-58340000D03*
X127480000Y-54500000D03*
X132320000Y-54500000D03*
D26*
X131850000Y-61610000D03*
X130450000Y-61610000D03*
X129050000Y-61610000D03*
D25*
X132320000Y-58340000D03*
D26*
X127650000Y-61610000D03*
D25*
X147480000Y-58340000D03*
X147480000Y-54500000D03*
X152320000Y-54500000D03*
D26*
X151850000Y-61610000D03*
X150450000Y-61610000D03*
X149050000Y-61610000D03*
D25*
X152320000Y-58340000D03*
D26*
X147650000Y-61610000D03*
D25*
X137480000Y-58340000D03*
X137480000Y-54500000D03*
X142320000Y-54500000D03*
D26*
X141850000Y-61610000D03*
X140450000Y-61610000D03*
X139050000Y-61610000D03*
D25*
X142320000Y-58340000D03*
D26*
X137650000Y-61610000D03*
D25*
X117480000Y-58340000D03*
X117480000Y-54500000D03*
X122320000Y-54500000D03*
D26*
X121850000Y-61610000D03*
X120450000Y-61610000D03*
X119050000Y-61610000D03*
D25*
X122320000Y-58340000D03*
D26*
X117650000Y-61610000D03*
D27*
X137850000Y-81800000D03*
X137850000Y-79300000D03*
D19*
X100150000Y-70300000D03*
D15*
X100150000Y-67760000D03*
D13*
X152000000Y-75500000D03*
X152000000Y-77500000D03*
D28*
X152000000Y-100250000D03*
X154000000Y-100250000D03*
X144500000Y-84000000D03*
X146500000Y-84000000D03*
D13*
X152000000Y-67250000D03*
X152000000Y-69250000D03*
X159000000Y-76750000D03*
X159000000Y-78750000D03*
X144750000Y-74250000D03*
X144750000Y-76250000D03*
X159000000Y-68500000D03*
X159000000Y-70500000D03*
X144750000Y-66000000D03*
X144750000Y-68000000D03*
D29*
X144750000Y-86250000D03*
X146650000Y-86250000D03*
D30*
X152000000Y-71000000D03*
X152000000Y-72900000D03*
D29*
X156250000Y-68750000D03*
X154350000Y-68750000D03*
D30*
X159000000Y-72350000D03*
X159000000Y-74250000D03*
D29*
X163400000Y-70000000D03*
X161500000Y-70000000D03*
D30*
X144750000Y-69750000D03*
X144750000Y-71650000D03*
D29*
X149250000Y-67500000D03*
X147350000Y-67500000D03*
D31*
X164250000Y-97750000D03*
D32*
X157646000Y-97750000D03*
X157646000Y-95464000D03*
X157646000Y-100036000D03*
D22*
X156250000Y-73000000D03*
X155300000Y-73000000D03*
X154350000Y-73000000D03*
X154350000Y-70800000D03*
X156250000Y-70800000D03*
X149250000Y-71750000D03*
X148300000Y-71750000D03*
X147350000Y-71750000D03*
X147350000Y-69550000D03*
X149250000Y-69550000D03*
D33*
X164500000Y-108500000D03*
D34*
X164500000Y-105960000D03*
X164500000Y-103460000D03*
D35*
X119000000Y-91464000D03*
D36*
X112650000Y-93750000D03*
D35*
X119000000Y-96036000D03*
D37*
X126600000Y-94750000D03*
X125650000Y-94750000D03*
X124700000Y-94750000D03*
X124700000Y-92050000D03*
X125650000Y-92050000D03*
X126600000Y-92050000D03*
D33*
X152210000Y-109700000D03*
D34*
X154750000Y-109700000D03*
X157250000Y-109700000D03*
D25*
X157480000Y-58340000D03*
X157480000Y-54500000D03*
X162320000Y-54500000D03*
D26*
X161850000Y-61610000D03*
X160450000Y-61610000D03*
X159050000Y-61610000D03*
D25*
X162320000Y-58340000D03*
D26*
X157650000Y-61610000D03*
D25*
X107480000Y-58340000D03*
X107480000Y-54500000D03*
X112320000Y-54500000D03*
D26*
X111850000Y-61610000D03*
X110450000Y-61610000D03*
X109050000Y-61610000D03*
D25*
X112320000Y-58340000D03*
D26*
X107650000Y-61610000D03*
D29*
X144600000Y-81750000D03*
X146500000Y-81750000D03*
D30*
X154500000Y-75600000D03*
X154500000Y-77500000D03*
X161500000Y-76750000D03*
X161500000Y-78650000D03*
X147250000Y-74250000D03*
X147250000Y-76150000D03*
D33*
X137213500Y-109700000D03*
D34*
X139750000Y-109700000D03*
X142250000Y-109700000D03*
X144750000Y-109700000D03*
X147250000Y-109700000D03*
X149750000Y-109700000D03*
D27*
X140200000Y-79450000D03*
X140200000Y-81950000D03*
X124600000Y-83450000D03*
X124600000Y-80950000D03*
D38*
X128750000Y-90450000D03*
X131250000Y-90450000D03*
D39*
X161400000Y-88600000D03*
X161400000Y-85900000D03*
X163900000Y-88550000D03*
X163900000Y-85850000D03*
X122550000Y-90200000D03*
X122550000Y-92900000D03*
M02*
