M48
;DRILL file {KiCad 4.0.1-stable} date 08.07.2016 9:17:45
;FORMAT={2:4/ absolute / inch / suppress leading zeros}
FMAT,2
INCH,TZ
T1C0.016
T2C0.020
T3C0.024
T4C0.026
T5C0.031
T6C0.032
T7C0.035
T8C0.039
T9C0.040
T10C0.043
T11C0.047
T12C0.091
%
G90
G05
M72
T1
X37893Y-35784
X38012Y-35492
X38346Y-25512
X38346Y-27933
X38819Y-36260
X40244Y-35165
X41004Y-36260
X41004Y-36260
X41772Y-39488
X42264Y-37362
X42571Y-20567
X44961Y-27307
X44961Y-27760
X45197Y-27110
X45197Y-28016
X45906Y-39764
X46031Y-19945
X46102Y-38120
X46890Y-41949
X46909Y-43622
X46969Y-42618
X47579Y-32815
X47598Y-36634
X47697Y-33169
X47768Y-31193
X47776Y-31370
X47776Y-31024
X47786Y-31564
X48022Y-29104
X48209Y-37362
X48701Y-31220
X49134Y-31240
X49213Y-37835
X50043Y-26988
X50177Y-40059
X50280Y-26988
X50394Y-40423
X50512Y-28730
X50528Y-26992
X50587Y-44091
X50594Y-27228
X50594Y-27476
X50669Y-35197
X50669Y-35197
X50768Y-26988
X50866Y-28730
X50906Y-22224
X51240Y-28730
X51299Y-26732
X51299Y-26988
X51339Y-27685
X51339Y-27937
X51339Y-28189
X51378Y-22224
X51571Y-26610
X51594Y-33071
X51693Y-31850
X52043Y-29291
X52047Y-41181
X54330Y-37199
X55323Y-33492
X55756Y-33492
X56319Y-36063
X56516Y-27894
X56520Y-33291
X56791Y-27028
X57067Y-27028
X57067Y-27465
X57567Y-19472
X57657Y-34783
X57823Y-32598
X57894Y-30583
X57906Y-31024
X57972Y-34449
X58104Y-40909
X58319Y-26894
X58622Y-35838
X58760Y-38299
X59287Y-24083
X59587Y-30736
X59618Y-40185
X59740Y-39217
X59984Y-27921
X60138Y-33126
X60150Y-35232
X60260Y-38835
X60531Y-35687
X60713Y-38394
X60744Y-41154
X60854Y-33224
X60976Y-33984
X61091Y-37421
X61189Y-25413
X61346Y-38583
X61413Y-27720
X61614Y-34646
X61854Y-30638
X62008Y-34154
X62063Y-27669
X62480Y-35197
X62559Y-35551
X62697Y-39961
X62709Y-38142
X62795Y-34843
X62815Y-44594
X62894Y-38484
X63484Y-44067
X63780Y-36988
X63811Y-31378
X65996Y-44594
X66563Y-40929
X68154Y-36295
X68157Y-38386
X68189Y-35543
X68189Y-37697
X71646Y-39984
X72000Y-36193
X72106Y-39343
X72252Y-41528
T2
X39547Y-24236
X40098Y-24236
X40650Y-24236
X41201Y-24236
X44469Y-24236
X45020Y-24236
X45571Y-24236
X46122Y-24236
X49331Y-24236
X49882Y-24236
X50433Y-24236
X50984Y-24236
X54193Y-24256
X54744Y-24256
X55295Y-24256
X55846Y-24256
X63815Y-24346
X64366Y-24346
X64917Y-24346
X65469Y-24346
X68512Y-24331
X69063Y-24331
X69614Y-24331
X70165Y-24331
T3
X38819Y-36260
X39130Y-23941
X39138Y-23528
X39547Y-23866
X39551Y-23480
X40055Y-23150
X40220Y-23520
X40449Y-23157
X40642Y-23520
X40799Y-22228
X40846Y-23150
X41004Y-36260
X41063Y-23520
X41197Y-22224
X41323Y-32772
X41327Y-33193
X41327Y-33626
X41331Y-30551
X41331Y-32331
X41335Y-30996
X41335Y-31902
X41339Y-31449
X41350Y-39067
X41642Y-22224
X41772Y-39488
X41776Y-31898
X41780Y-30543
X41780Y-30980
X41787Y-31441
X42228Y-30543
X42228Y-30988
X43740Y-23161
X44043Y-23957
X44051Y-23543
X44461Y-23866
X44465Y-23480
X44969Y-23165
X45134Y-23535
X45362Y-23157
X45555Y-23535
X45760Y-23165
X45976Y-23535
X48531Y-23189
X48882Y-23984
X48890Y-23571
X49299Y-23894
X49303Y-23508
X49807Y-23193
X49972Y-23563
X50201Y-23185
X50394Y-23563
X50598Y-23193
X50815Y-23563
X50906Y-22224
X51378Y-22224
X51858Y-22224
X53457Y-23205
X53768Y-23992
X53776Y-23579
X54185Y-23909
X54189Y-23524
X54330Y-37199
X54693Y-23201
X54858Y-23571
X55087Y-23201
X55280Y-23571
X55484Y-23201
X55701Y-23571
X56791Y-27028
X56961Y-26484
X57067Y-27028
X57067Y-27465
X57264Y-26134
X57331Y-26689
X57343Y-25748
X57343Y-25748
X57831Y-25673
X59504Y-24697
X59610Y-25083
X59610Y-26504
X59610Y-26874
X59933Y-24783
X59988Y-26512
X60177Y-25697
X60528Y-26047
X60878Y-26398
X64441Y-29307
X64441Y-29307
X64449Y-28803
X64898Y-28803
X64898Y-29248
X65350Y-22339
X65492Y-36976
X65492Y-37453
X65496Y-38406
X65500Y-38886
X65504Y-37909
X65512Y-39362
X65815Y-22335
X66236Y-22327
X68087Y-31512
X68087Y-31917
X68087Y-32327
X69839Y-22319
X70248Y-22319
X70693Y-22319
T4
X67280Y-36028
X67280Y-36815
X67280Y-37602
X67280Y-38390
X67280Y-39177
X67280Y-39965
X67280Y-40752
X67280Y-41539
X72791Y-36028
X72791Y-36815
X72791Y-37602
X72791Y-38390
X72791Y-39177
X72791Y-39965
X72791Y-40752
X72791Y-41539
T5
X70374Y-33102
X70374Y-33890
T6
X42421Y-31594
X42421Y-32594
X43208Y-31594
X43208Y-32594
T8
X39449Y-38130
X39449Y-39130
X39469Y-26618
X39469Y-27618
X61953Y-32264
X62953Y-32264
X64232Y-32264
X65232Y-32264
T9
X64031Y-26272
X64031Y-27272
X65031Y-26272
X65031Y-27272
X66031Y-26272
X66031Y-27272
X67031Y-26272
X67031Y-27272
X68673Y-26256
X68673Y-27256
X69673Y-26256
X69673Y-27256
X70673Y-26256
X70673Y-27256
X71673Y-26256
X71673Y-27256
T11
X54402Y-43201
X55400Y-43201
X56384Y-43201
X57369Y-43201
X58353Y-43201
X59337Y-43201
X60323Y-43201
X61323Y-43201
X62307Y-43201
X64764Y-40732
X64764Y-41717
X64764Y-42717
T12
X41358Y-29732
X41358Y-34456
T7
X39480Y-21398G85X39480Y-21476
G05
X41386Y-21398G85X41386Y-21476
G05
X41386Y-22909G85X41386Y-22988
G05
X44402Y-21398G85X44402Y-21476
G05
X46307Y-21398G85X46307Y-21476
G05
X46307Y-22909G85X46307Y-22988
G05
X49264Y-21398G85X49264Y-21476
G05
X51169Y-21398G85X51169Y-21476
G05
X51169Y-22909G85X51169Y-22988
G05
X54126Y-21417G85X54126Y-21496
G05
X56031Y-21417G85X56031Y-21496
G05
X56031Y-22929G85X56031Y-23008
G05
X63748Y-21508G85X63748Y-21587
G05
X65654Y-21508G85X65654Y-21587
G05
X65654Y-23020G85X65654Y-23098
G05
X68445Y-21492G85X68445Y-21571
G05
X70350Y-21492G85X70350Y-21571
G05
X70350Y-23004G85X70350Y-23083
G05
T9
X39671Y-42487G85X39671Y-43087
G05
X40271Y-40787G85X40871Y-40787
G05
X42071Y-42487G85X42071Y-43087
G05
T10
X39480Y-22870G85X39480Y-23028
G05
X44402Y-22870G85X44402Y-23028
G05
X49264Y-22870G85X49264Y-23028
G05
X54126Y-22890G85X54126Y-23047
G05
X63748Y-22980G85X63748Y-23138
G05
X68445Y-22965G85X68445Y-23122
G05
T0
M30
