%FSLAX45Y45*%
G04 Gerber Fmt 4.5, Leading zero omitted, Abs format (unit mm)*
G04 Created by KiCad (PCBNEW 4.0.1-stable) date 08.07.2016 9:17:46*
%MOMM*%
G01*
G04 APERTURE LIST*
%ADD10C,0.127000*%
%ADD11C,0.150000*%
%ADD12C,0.200000*%
%ADD13C,0.300000*%
G04 APERTURE END LIST*
D10*
D11*
X9525000Y-4850000D02*
X18743002Y-4850000D01*
X9525000Y-11601000D02*
X9525000Y-4850000D01*
X18743000Y-11601000D02*
X9525000Y-11601000D01*
X18743000Y-4850000D02*
X18743000Y-11601000D01*
D12*
X9604746Y-9069060D02*
X9644746Y-9109060D01*
X9644746Y-9069060D02*
X9604746Y-9109060D01*
X9635000Y-8995000D02*
X9675000Y-9035000D01*
X9675000Y-8995000D02*
X9635000Y-9035000D01*
X9720000Y-6460000D02*
X9760000Y-6500000D01*
X9760000Y-6460000D02*
X9720000Y-6500000D01*
X9720000Y-7075000D02*
X9760000Y-7115000D01*
X9760000Y-7075000D02*
X9720000Y-7115000D01*
X9840000Y-9190000D02*
X9880000Y-9230000D01*
X9880000Y-9190000D02*
X9840000Y-9230000D01*
X10201949Y-8911949D02*
X10241949Y-8951949D01*
X10241949Y-8911949D02*
X10201949Y-8951949D01*
X10395000Y-9190000D02*
X10435000Y-9230000D01*
X10435000Y-9190000D02*
X10395000Y-9230000D01*
X10395000Y-9190000D02*
X10435000Y-9230000D01*
X10435000Y-9190000D02*
X10395000Y-9230000D01*
X10590000Y-10010000D02*
X10630000Y-10050000D01*
X10630000Y-10010000D02*
X10590000Y-10050000D01*
X10715000Y-9470000D02*
X10755000Y-9510000D01*
X10755000Y-9470000D02*
X10715000Y-9510000D01*
X10793000Y-5204000D02*
X10833000Y-5244000D01*
X10833000Y-5204000D02*
X10793000Y-5244000D01*
X11400000Y-6916000D02*
X11440000Y-6956000D01*
X11440000Y-6916000D02*
X11400000Y-6956000D01*
X11400000Y-7031000D02*
X11440000Y-7071000D01*
X11440000Y-7031000D02*
X11400000Y-7071000D01*
X11460000Y-6866000D02*
X11500000Y-6906000D01*
X11500000Y-6866000D02*
X11460000Y-6906000D01*
X11460000Y-7096000D02*
X11500000Y-7136000D01*
X11500000Y-7096000D02*
X11460000Y-7136000D01*
X11640000Y-10080000D02*
X11680000Y-10120000D01*
X11680000Y-10080000D02*
X11640000Y-10120000D01*
X11672000Y-5046000D02*
X11712000Y-5086000D01*
X11712000Y-5046000D02*
X11672000Y-5086000D01*
X11690000Y-9662497D02*
X11730000Y-9702497D01*
X11730000Y-9662497D02*
X11690000Y-9702497D01*
X11890000Y-10635000D02*
X11930000Y-10675000D01*
X11930000Y-10635000D02*
X11890000Y-10675000D01*
X11895000Y-11060000D02*
X11935000Y-11100000D01*
X11935000Y-11060000D02*
X11895000Y-11100000D01*
X11910000Y-10805000D02*
X11950000Y-10845000D01*
X11950000Y-10805000D02*
X11910000Y-10845000D01*
X12065000Y-8315000D02*
X12105000Y-8355000D01*
X12105000Y-8315000D02*
X12065000Y-8355000D01*
X12070000Y-9285000D02*
X12110000Y-9325000D01*
X12110000Y-9285000D02*
X12070000Y-9325000D01*
X12095000Y-8405000D02*
X12135000Y-8445000D01*
X12135000Y-8405000D02*
X12095000Y-8445000D01*
X12113000Y-7903000D02*
X12153000Y-7943000D01*
X12153000Y-7903000D02*
X12113000Y-7943000D01*
X12115000Y-7948000D02*
X12155000Y-7988000D01*
X12155000Y-7948000D02*
X12115000Y-7988000D01*
X12115001Y-7860000D02*
X12155001Y-7900000D01*
X12155001Y-7860000D02*
X12115001Y-7900000D01*
X12117730Y-7997270D02*
X12157730Y-8037270D01*
X12157730Y-7997270D02*
X12117730Y-8037270D01*
X12177500Y-7372500D02*
X12217500Y-7412500D01*
X12217500Y-7372500D02*
X12177500Y-7412500D01*
X12225000Y-9470000D02*
X12265000Y-9510000D01*
X12265000Y-9470000D02*
X12225000Y-9510000D01*
X12350000Y-7910000D02*
X12390000Y-7950000D01*
X12390000Y-7910000D02*
X12350000Y-7950000D01*
X12460000Y-7915000D02*
X12500000Y-7955000D01*
X12500000Y-7915000D02*
X12460000Y-7955000D01*
X12480000Y-9590000D02*
X12520000Y-9630000D01*
X12520000Y-9590000D02*
X12480000Y-9630000D01*
X12691000Y-6835000D02*
X12731000Y-6875000D01*
X12731000Y-6835000D02*
X12691000Y-6875000D01*
X12725000Y-10155000D02*
X12765000Y-10195000D01*
X12765000Y-10155000D02*
X12725000Y-10195000D01*
X12751000Y-6835000D02*
X12791000Y-6875000D01*
X12791000Y-6835000D02*
X12751000Y-6875000D01*
X12780000Y-10247500D02*
X12820000Y-10287500D01*
X12820000Y-10247500D02*
X12780000Y-10287500D01*
X12810000Y-7277501D02*
X12850000Y-7317501D01*
X12850000Y-7277501D02*
X12810000Y-7317501D01*
X12814000Y-6836000D02*
X12854000Y-6876000D01*
X12854000Y-6836000D02*
X12814000Y-6876000D01*
X12829000Y-11179000D02*
X12869000Y-11219000D01*
X12869000Y-11179000D02*
X12829000Y-11219000D01*
X12831000Y-6896000D02*
X12871000Y-6936000D01*
X12871000Y-6896000D02*
X12831000Y-6936000D01*
X12831000Y-6959000D02*
X12871000Y-6999000D01*
X12871000Y-6959000D02*
X12831000Y-6999000D01*
X12850000Y-8920000D02*
X12890000Y-8960000D01*
X12890000Y-8920000D02*
X12850000Y-8960000D01*
X12850000Y-8920000D02*
X12890000Y-8960000D01*
X12890000Y-8920000D02*
X12850000Y-8960000D01*
X12875000Y-6835000D02*
X12915000Y-6875000D01*
X12915000Y-6835000D02*
X12875000Y-6875000D01*
X12900000Y-7277501D02*
X12940000Y-7317501D01*
X12940000Y-7277501D02*
X12900000Y-7317501D01*
X12910000Y-5625000D02*
X12950000Y-5665000D01*
X12950000Y-5625000D02*
X12910000Y-5665000D01*
X12995000Y-7277501D02*
X13035000Y-7317501D01*
X13035000Y-7277501D02*
X12995000Y-7317501D01*
X13010000Y-6770000D02*
X13050000Y-6810000D01*
X13050000Y-6770000D02*
X13010000Y-6810000D01*
X13010000Y-6835000D02*
X13050000Y-6875000D01*
X13050000Y-6835000D02*
X13010000Y-6875000D01*
X13020000Y-7012000D02*
X13060000Y-7052000D01*
X13060000Y-7012000D02*
X13020000Y-7052000D01*
X13020000Y-7076000D02*
X13060000Y-7116000D01*
X13060000Y-7076000D02*
X13020000Y-7116000D01*
X13020000Y-7140000D02*
X13060000Y-7180000D01*
X13060000Y-7140000D02*
X13020000Y-7180000D01*
X13030000Y-5625000D02*
X13070000Y-5665000D01*
X13070000Y-5625000D02*
X13030000Y-5665000D01*
X13079000Y-6739000D02*
X13119000Y-6779000D01*
X13119000Y-6739000D02*
X13079000Y-6779000D01*
X13085000Y-8380000D02*
X13125000Y-8420000D01*
X13125000Y-8380000D02*
X13085000Y-8420000D01*
X13110000Y-8070000D02*
X13150000Y-8110000D01*
X13150000Y-8070000D02*
X13110000Y-8110000D01*
X13199000Y-7420000D02*
X13239000Y-7460000D01*
X13239000Y-7420000D02*
X13199000Y-7460000D01*
X13200000Y-10440000D02*
X13240000Y-10480000D01*
X13240000Y-10440000D02*
X13200000Y-10480000D01*
X13779737Y-9428498D02*
X13819737Y-9468498D01*
X13819737Y-9428498D02*
X13779737Y-9468498D01*
X14032000Y-8487000D02*
X14072000Y-8527000D01*
X14072000Y-8487000D02*
X14032000Y-8527000D01*
X14142000Y-8487000D02*
X14182000Y-8527000D01*
X14182000Y-8487000D02*
X14142000Y-8527000D01*
X14285000Y-9140000D02*
X14325000Y-9180000D01*
X14325000Y-9140000D02*
X14285000Y-9180000D01*
X14335000Y-7065076D02*
X14375000Y-7105076D01*
X14375000Y-7065076D02*
X14335000Y-7105076D01*
X14336000Y-8436000D02*
X14376000Y-8476000D01*
X14376000Y-8436000D02*
X14336000Y-8476000D01*
X14405000Y-6845000D02*
X14445000Y-6885000D01*
X14445000Y-6845000D02*
X14405000Y-6885000D01*
X14475000Y-6845000D02*
X14515000Y-6885000D01*
X14515000Y-6845000D02*
X14475000Y-6885000D01*
X14475000Y-6956000D02*
X14515000Y-6996000D01*
X14515000Y-6956000D02*
X14475000Y-6996000D01*
X14602000Y-4926000D02*
X14642000Y-4966000D01*
X14642000Y-4926000D02*
X14602000Y-4966000D01*
X14625000Y-8815000D02*
X14665000Y-8855000D01*
X14665000Y-8815000D02*
X14625000Y-8855000D01*
X14667000Y-8260000D02*
X14707000Y-8300000D01*
X14707000Y-8260000D02*
X14667000Y-8300000D01*
X14685000Y-7748000D02*
X14725000Y-7788000D01*
X14725000Y-7748000D02*
X14685000Y-7788000D01*
X14688000Y-7860000D02*
X14728000Y-7900000D01*
X14728000Y-7860000D02*
X14688000Y-7900000D01*
X14705000Y-8730000D02*
X14745000Y-8770000D01*
X14745000Y-8730000D02*
X14705000Y-8770000D01*
X14738498Y-10370930D02*
X14778498Y-10410930D01*
X14778498Y-10370930D02*
X14738498Y-10410930D01*
X14793000Y-6811000D02*
X14833000Y-6851000D01*
X14833000Y-6811000D02*
X14793000Y-6851000D01*
X14869864Y-9082796D02*
X14909864Y-9122796D01*
X14909864Y-9082796D02*
X14869864Y-9122796D01*
X14905000Y-9707999D02*
X14945000Y-9747999D01*
X14945000Y-9707999D02*
X14905000Y-9747999D01*
X15039000Y-6097000D02*
X15079000Y-6137000D01*
X15079000Y-6097000D02*
X15039000Y-6137000D01*
X15115000Y-7787000D02*
X15155000Y-7827000D01*
X15155000Y-7787000D02*
X15115000Y-7827000D01*
X15123000Y-10187000D02*
X15163000Y-10227000D01*
X15163000Y-10187000D02*
X15123000Y-10227000D01*
X15154000Y-9941000D02*
X15194000Y-9981000D01*
X15194000Y-9941000D02*
X15154000Y-9981000D01*
X15216000Y-7072000D02*
X15256000Y-7112000D01*
X15256000Y-7072000D02*
X15216000Y-7112000D01*
X15255000Y-8394000D02*
X15295000Y-8434000D01*
X15295000Y-8394000D02*
X15255000Y-8434000D01*
X15258000Y-8929000D02*
X15298000Y-8969000D01*
X15298000Y-8929000D02*
X15258000Y-8969000D01*
X15286000Y-9844000D02*
X15326000Y-9884000D01*
X15326000Y-9844000D02*
X15286000Y-9884000D01*
X15355000Y-9044488D02*
X15395000Y-9084488D01*
X15395000Y-9044488D02*
X15355000Y-9084488D01*
X15401000Y-9732000D02*
X15441000Y-9772000D01*
X15441000Y-9732000D02*
X15401000Y-9772000D01*
X15409000Y-10433000D02*
X15449000Y-10473000D01*
X15449000Y-10433000D02*
X15409000Y-10473000D01*
X15437000Y-8419000D02*
X15477000Y-8459000D01*
X15477000Y-8419000D02*
X15437000Y-8459000D01*
X15468000Y-8612000D02*
X15508000Y-8652000D01*
X15508000Y-8612000D02*
X15468000Y-8652000D01*
X15497140Y-9485000D02*
X15537140Y-9525000D01*
X15537140Y-9485000D02*
X15497140Y-9525000D01*
X15522000Y-6435000D02*
X15562000Y-6475000D01*
X15562000Y-6435000D02*
X15522000Y-6475000D01*
X15562000Y-9780000D02*
X15602000Y-9820000D01*
X15602000Y-9780000D02*
X15562000Y-9820000D01*
X15579000Y-7021000D02*
X15619000Y-7061000D01*
X15619000Y-7021000D02*
X15579000Y-7061000D01*
X15630000Y-8780000D02*
X15670000Y-8820000D01*
X15670000Y-8780000D02*
X15630000Y-8820000D01*
X15691000Y-7762000D02*
X15731000Y-7802000D01*
X15731000Y-7762000D02*
X15691000Y-7802000D01*
X15730000Y-8655000D02*
X15770000Y-8695000D01*
X15770000Y-8655000D02*
X15730000Y-8695000D01*
X15744000Y-7008000D02*
X15784000Y-7048000D01*
X15784000Y-7008000D02*
X15744000Y-7048000D01*
X15850000Y-8920000D02*
X15890000Y-8960000D01*
X15890000Y-8920000D02*
X15850000Y-8960000D01*
X15870000Y-9010000D02*
X15910000Y-9050000D01*
X15910000Y-9010000D02*
X15870000Y-9050000D01*
X15905000Y-10130000D02*
X15945000Y-10170000D01*
X15945000Y-10130000D02*
X15905000Y-10170000D01*
X15908000Y-9668000D02*
X15948000Y-9708000D01*
X15948000Y-9668000D02*
X15908000Y-9708000D01*
X15930000Y-8830000D02*
X15970000Y-8870000D01*
X15970000Y-8830000D02*
X15930000Y-8870000D01*
X15935000Y-11307000D02*
X15975000Y-11347000D01*
X15975000Y-11307000D02*
X15935000Y-11347000D01*
X15955000Y-9755000D02*
X15995000Y-9795000D01*
X15995000Y-9755000D02*
X15955000Y-9795000D01*
X16105000Y-11173000D02*
X16145000Y-11213000D01*
X16145000Y-11173000D02*
X16105000Y-11213000D01*
X16180000Y-9375000D02*
X16220000Y-9415000D01*
X16220000Y-9375000D02*
X16180000Y-9415000D01*
X16188000Y-7950000D02*
X16228000Y-7990000D01*
X16228000Y-7950000D02*
X16188000Y-7990000D01*
X16743000Y-11307000D02*
X16783000Y-11347000D01*
X16783000Y-11307000D02*
X16743000Y-11347000D01*
X16887000Y-10376000D02*
X16927000Y-10416000D01*
X16927000Y-10376000D02*
X16887000Y-10416000D01*
X17291000Y-9199000D02*
X17331000Y-9239000D01*
X17331000Y-9199000D02*
X17291000Y-9239000D01*
X17292000Y-9730000D02*
X17332000Y-9770000D01*
X17332000Y-9730000D02*
X17292000Y-9770000D01*
X17300000Y-9008000D02*
X17340000Y-9048000D01*
X17340000Y-9008000D02*
X17300000Y-9048000D01*
X17300000Y-9555000D02*
X17340000Y-9595000D01*
X17340000Y-9555000D02*
X17300000Y-9595000D01*
X18178000Y-10136000D02*
X18218000Y-10176000D01*
X18218000Y-10136000D02*
X18178000Y-10176000D01*
X18268000Y-9173000D02*
X18308000Y-9213000D01*
X18308000Y-9173000D02*
X18268000Y-9213000D01*
X18295000Y-9973000D02*
X18335000Y-10013000D01*
X18335000Y-9973000D02*
X18295000Y-10013000D01*
X18332000Y-10528000D02*
X18372000Y-10568000D01*
X18372000Y-10528000D02*
X18332000Y-10568000D01*
X10070000Y-6156000D02*
G75*
G03X10070000Y-6156000I-25000J0D01*
G01*
X10210000Y-6156000D02*
G75*
G03X10210000Y-6156000I-25000J0D01*
G01*
X10350000Y-6156000D02*
G75*
G03X10350000Y-6156000I-25000J0D01*
G01*
X10490000Y-6156000D02*
G75*
G03X10490000Y-6156000I-25000J0D01*
G01*
X11320000Y-6156000D02*
G75*
G03X11320000Y-6156000I-25000J0D01*
G01*
X11460000Y-6156000D02*
G75*
G03X11460000Y-6156000I-25000J0D01*
G01*
X11600000Y-6156000D02*
G75*
G03X11600000Y-6156000I-25000J0D01*
G01*
X11740000Y-6156000D02*
G75*
G03X11740000Y-6156000I-25000J0D01*
G01*
X12555000Y-6156000D02*
G75*
G03X12555000Y-6156000I-25000J0D01*
G01*
X12695000Y-6156000D02*
G75*
G03X12695000Y-6156000I-25000J0D01*
G01*
X12835000Y-6156000D02*
G75*
G03X12835000Y-6156000I-25000J0D01*
G01*
X12975000Y-6156000D02*
G75*
G03X12975000Y-6156000I-25000J0D01*
G01*
X13790000Y-6161000D02*
G75*
G03X13790000Y-6161000I-25000J0D01*
G01*
X13930000Y-6161000D02*
G75*
G03X13930000Y-6161000I-25000J0D01*
G01*
X14070000Y-6161000D02*
G75*
G03X14070000Y-6161000I-25000J0D01*
G01*
X14210000Y-6161000D02*
G75*
G03X14210000Y-6161000I-25000J0D01*
G01*
X16234000Y-6184000D02*
G75*
G03X16234000Y-6184000I-25000J0D01*
G01*
X16374000Y-6184000D02*
G75*
G03X16374000Y-6184000I-25000J0D01*
G01*
X16514000Y-6184000D02*
G75*
G03X16514000Y-6184000I-25000J0D01*
G01*
X16654000Y-6184000D02*
G75*
G03X16654000Y-6184000I-25000J0D01*
G01*
X17427000Y-6180000D02*
G75*
G03X17427000Y-6180000I-25000J0D01*
G01*
X17567000Y-6180000D02*
G75*
G03X17567000Y-6180000I-25000J0D01*
G01*
X17707000Y-6180000D02*
G75*
G03X17707000Y-6180000I-25000J0D01*
G01*
X17847000Y-6180000D02*
G75*
G03X17847000Y-6180000I-25000J0D01*
G01*
X9860000Y-9180000D02*
X9860000Y-9240000D01*
X9830000Y-9210000D02*
X9890000Y-9210000D01*
X9939000Y-6051000D02*
X9939000Y-6111000D01*
X9909000Y-6081000D02*
X9969000Y-6081000D01*
X9941000Y-5946000D02*
X9941000Y-6006000D01*
X9911000Y-5976000D02*
X9971000Y-5976000D01*
X10045000Y-6032000D02*
X10045000Y-6092000D01*
X10015000Y-6062000D02*
X10075000Y-6062000D01*
X10046000Y-5934000D02*
X10046000Y-5994000D01*
X10016000Y-5964000D02*
X10076000Y-5964000D01*
X10174000Y-5850000D02*
X10174000Y-5910000D01*
X10144000Y-5880000D02*
X10204000Y-5880000D01*
X10216000Y-5944000D02*
X10216000Y-6004000D01*
X10186000Y-5974000D02*
X10246000Y-5974000D01*
X10274000Y-5852000D02*
X10274000Y-5912000D01*
X10244000Y-5882000D02*
X10304000Y-5882000D01*
X10323000Y-5944000D02*
X10323000Y-6004000D01*
X10293000Y-5974000D02*
X10353000Y-5974000D01*
X10363000Y-5616000D02*
X10363000Y-5676000D01*
X10333000Y-5646000D02*
X10393000Y-5646000D01*
X10375000Y-5850000D02*
X10375000Y-5910000D01*
X10345000Y-5880000D02*
X10405000Y-5880000D01*
X10415000Y-9180000D02*
X10415000Y-9240000D01*
X10385000Y-9210000D02*
X10445000Y-9210000D01*
X10430000Y-5944000D02*
X10430000Y-6004000D01*
X10400000Y-5974000D02*
X10460000Y-5974000D01*
X10464000Y-5615000D02*
X10464000Y-5675000D01*
X10434000Y-5645000D02*
X10494000Y-5645000D01*
X10496000Y-8294000D02*
X10496000Y-8354000D01*
X10466000Y-8324000D02*
X10526000Y-8324000D01*
X10497000Y-8401000D02*
X10497000Y-8461000D01*
X10467000Y-8431000D02*
X10527000Y-8431000D01*
X10497000Y-8511000D02*
X10497000Y-8571000D01*
X10467000Y-8541000D02*
X10527000Y-8541000D01*
X10498000Y-7730000D02*
X10498000Y-7790000D01*
X10468000Y-7760000D02*
X10528000Y-7760000D01*
X10498000Y-8182000D02*
X10498000Y-8242000D01*
X10468000Y-8212000D02*
X10528000Y-8212000D01*
X10499000Y-7843000D02*
X10499000Y-7903000D01*
X10469000Y-7873000D02*
X10529000Y-7873000D01*
X10499000Y-8073000D02*
X10499000Y-8133000D01*
X10469000Y-8103000D02*
X10529000Y-8103000D01*
X10500000Y-7958000D02*
X10500000Y-8018000D01*
X10470000Y-7988000D02*
X10530000Y-7988000D01*
X10503000Y-9893000D02*
X10503000Y-9953000D01*
X10473000Y-9923000D02*
X10533000Y-9923000D01*
X10577000Y-5615000D02*
X10577000Y-5675000D01*
X10547000Y-5645000D02*
X10607000Y-5645000D01*
X10610000Y-10000000D02*
X10610000Y-10060000D01*
X10580000Y-10030000D02*
X10640000Y-10030000D01*
X10611000Y-8072000D02*
X10611000Y-8132000D01*
X10581000Y-8102000D02*
X10641000Y-8102000D01*
X10612000Y-7728000D02*
X10612000Y-7788000D01*
X10582000Y-7758000D02*
X10642000Y-7758000D01*
X10612000Y-7839000D02*
X10612000Y-7899000D01*
X10582000Y-7869000D02*
X10642000Y-7869000D01*
X10614000Y-7956000D02*
X10614000Y-8016000D01*
X10584000Y-7986000D02*
X10644000Y-7986000D01*
X10726000Y-7728000D02*
X10726000Y-7788000D01*
X10696000Y-7758000D02*
X10756000Y-7758000D01*
X10726000Y-7841000D02*
X10726000Y-7901000D01*
X10696000Y-7871000D02*
X10756000Y-7871000D01*
X11110000Y-5853000D02*
X11110000Y-5913000D01*
X11080000Y-5883000D02*
X11140000Y-5883000D01*
X11187000Y-6055000D02*
X11187000Y-6115000D01*
X11157000Y-6085000D02*
X11217000Y-6085000D01*
X11189000Y-5950000D02*
X11189000Y-6010000D01*
X11159000Y-5980000D02*
X11219000Y-5980000D01*
X11293000Y-6032000D02*
X11293000Y-6092000D01*
X11263000Y-6062000D02*
X11323000Y-6062000D01*
X11294000Y-5934000D02*
X11294000Y-5994000D01*
X11264000Y-5964000D02*
X11324000Y-5964000D01*
X11422000Y-5854000D02*
X11422000Y-5914000D01*
X11392000Y-5884000D02*
X11452000Y-5884000D01*
X11464000Y-5948000D02*
X11464000Y-6008000D01*
X11434000Y-5978000D02*
X11494000Y-5978000D01*
X11522000Y-5852000D02*
X11522000Y-5912000D01*
X11492000Y-5882000D02*
X11552000Y-5882000D01*
X11571000Y-5948000D02*
X11571000Y-6008000D01*
X11541000Y-5978000D02*
X11601000Y-5978000D01*
X11623000Y-5854000D02*
X11623000Y-5914000D01*
X11593000Y-5884000D02*
X11653000Y-5884000D01*
X11678000Y-5948000D02*
X11678000Y-6008000D01*
X11648000Y-5978000D02*
X11708000Y-5978000D01*
X12327000Y-5860000D02*
X12327000Y-5920000D01*
X12297000Y-5890000D02*
X12357000Y-5890000D01*
X12416000Y-6062000D02*
X12416000Y-6122000D01*
X12386000Y-6092000D02*
X12446000Y-6092000D01*
X12418000Y-5957000D02*
X12418000Y-6017000D01*
X12388000Y-5987000D02*
X12448000Y-5987000D01*
X12522000Y-6039000D02*
X12522000Y-6099000D01*
X12492000Y-6069000D02*
X12552000Y-6069000D01*
X12523000Y-5941000D02*
X12523000Y-6001000D01*
X12493000Y-5971000D02*
X12553000Y-5971000D01*
X12651000Y-5861000D02*
X12651000Y-5921000D01*
X12621000Y-5891000D02*
X12681000Y-5891000D01*
X12693000Y-5955000D02*
X12693000Y-6015000D01*
X12663000Y-5985000D02*
X12723000Y-5985000D01*
X12751000Y-5859000D02*
X12751000Y-5919000D01*
X12721000Y-5889000D02*
X12781000Y-5889000D01*
X12800000Y-5955000D02*
X12800000Y-6015000D01*
X12770000Y-5985000D02*
X12830000Y-5985000D01*
X12852000Y-5861000D02*
X12852000Y-5921000D01*
X12822000Y-5891000D02*
X12882000Y-5891000D01*
X12907000Y-5955000D02*
X12907000Y-6015000D01*
X12877000Y-5985000D02*
X12937000Y-5985000D01*
X12930000Y-5615000D02*
X12930000Y-5675000D01*
X12900000Y-5645000D02*
X12960000Y-5645000D01*
X13050000Y-5615000D02*
X13050000Y-5675000D01*
X13020000Y-5645000D02*
X13080000Y-5645000D01*
X13172000Y-5615000D02*
X13172000Y-5675000D01*
X13142000Y-5645000D02*
X13202000Y-5645000D01*
X13578000Y-5864000D02*
X13578000Y-5924000D01*
X13548000Y-5894000D02*
X13608000Y-5894000D01*
X13657000Y-6064000D02*
X13657000Y-6124000D01*
X13627000Y-6094000D02*
X13687000Y-6094000D01*
X13659000Y-5959000D02*
X13659000Y-6019000D01*
X13629000Y-5989000D02*
X13689000Y-5989000D01*
X13763000Y-6043000D02*
X13763000Y-6103000D01*
X13733000Y-6073000D02*
X13793000Y-6073000D01*
X13764000Y-5945000D02*
X13764000Y-6005000D01*
X13734000Y-5975000D02*
X13794000Y-5975000D01*
X13799737Y-9418498D02*
X13799737Y-9478498D01*
X13769737Y-9448498D02*
X13829737Y-9448498D01*
X13892000Y-5863000D02*
X13892000Y-5923000D01*
X13862000Y-5893000D02*
X13922000Y-5893000D01*
X13934000Y-5957000D02*
X13934000Y-6017000D01*
X13904000Y-5987000D02*
X13964000Y-5987000D01*
X13992000Y-5863000D02*
X13992000Y-5923000D01*
X13962000Y-5893000D02*
X14022000Y-5893000D01*
X14041000Y-5957000D02*
X14041000Y-6017000D01*
X14011000Y-5987000D02*
X14071000Y-5987000D01*
X14093000Y-5863000D02*
X14093000Y-5923000D01*
X14063000Y-5893000D02*
X14123000Y-5893000D01*
X14148000Y-5957000D02*
X14148000Y-6017000D01*
X14118000Y-5987000D02*
X14178000Y-5987000D01*
X14425000Y-6835000D02*
X14425000Y-6895000D01*
X14395000Y-6865000D02*
X14455000Y-6865000D01*
X14468000Y-6697000D02*
X14468000Y-6757000D01*
X14438000Y-6727000D02*
X14498000Y-6727000D01*
X14495000Y-6835000D02*
X14495000Y-6895000D01*
X14465000Y-6865000D02*
X14525000Y-6865000D01*
X14495000Y-6946000D02*
X14495000Y-7006000D01*
X14465000Y-6976000D02*
X14525000Y-6976000D01*
X14545000Y-6608000D02*
X14545000Y-6668000D01*
X14515000Y-6638000D02*
X14575000Y-6638000D01*
X14562000Y-6749000D02*
X14562000Y-6809000D01*
X14532000Y-6779000D02*
X14592000Y-6779000D01*
X14565000Y-6510000D02*
X14565000Y-6570000D01*
X14535000Y-6540000D02*
X14595000Y-6540000D01*
X14565000Y-6510000D02*
X14565000Y-6570000D01*
X14535000Y-6540000D02*
X14595000Y-6540000D01*
X14689000Y-6491000D02*
X14689000Y-6551000D01*
X14659000Y-6521000D02*
X14719000Y-6521000D01*
X15114000Y-6243000D02*
X15114000Y-6303000D01*
X15084000Y-6273000D02*
X15144000Y-6273000D01*
X15141000Y-6341000D02*
X15141000Y-6401000D01*
X15111000Y-6371000D02*
X15171000Y-6371000D01*
X15141000Y-6702097D02*
X15141000Y-6762097D01*
X15111000Y-6732097D02*
X15171000Y-6732097D01*
X15141000Y-6796000D02*
X15141000Y-6856000D01*
X15111000Y-6826000D02*
X15171000Y-6826000D01*
X15223000Y-6265000D02*
X15223000Y-6325000D01*
X15193000Y-6295000D02*
X15253000Y-6295000D01*
X15237000Y-6704000D02*
X15237000Y-6764000D01*
X15207000Y-6734000D02*
X15267000Y-6734000D01*
X15285000Y-6497000D02*
X15285000Y-6557000D01*
X15255000Y-6527000D02*
X15315000Y-6527000D01*
X15374000Y-6586000D02*
X15374000Y-6646000D01*
X15344000Y-6616000D02*
X15404000Y-6616000D01*
X15463000Y-6675000D02*
X15463000Y-6735000D01*
X15433000Y-6705000D02*
X15493000Y-6705000D01*
X16368000Y-7414000D02*
X16368000Y-7474000D01*
X16338000Y-7444000D02*
X16398000Y-7444000D01*
X16368000Y-7414000D02*
X16368000Y-7474000D01*
X16338000Y-7444000D02*
X16398000Y-7444000D01*
X16370000Y-7286000D02*
X16370000Y-7346000D01*
X16340000Y-7316000D02*
X16400000Y-7316000D01*
X16484000Y-7286000D02*
X16484000Y-7346000D01*
X16454000Y-7316000D02*
X16514000Y-7316000D01*
X16484000Y-7399000D02*
X16484000Y-7459000D01*
X16454000Y-7429000D02*
X16514000Y-7429000D01*
X16599000Y-5644000D02*
X16599000Y-5704000D01*
X16569000Y-5674000D02*
X16629000Y-5674000D01*
X16635000Y-9362000D02*
X16635000Y-9422000D01*
X16605000Y-9392000D02*
X16665000Y-9392000D01*
X16635000Y-9483000D02*
X16635000Y-9543000D01*
X16605000Y-9513000D02*
X16665000Y-9513000D01*
X16636000Y-9725000D02*
X16636000Y-9785000D01*
X16606000Y-9755000D02*
X16666000Y-9755000D01*
X16637000Y-9847000D02*
X16637000Y-9907000D01*
X16607000Y-9877000D02*
X16667000Y-9877000D01*
X16638000Y-9599000D02*
X16638000Y-9659000D01*
X16608000Y-9629000D02*
X16668000Y-9629000D01*
X16640000Y-9968000D02*
X16640000Y-10028000D01*
X16610000Y-9998000D02*
X16670000Y-9998000D01*
X16717000Y-5643000D02*
X16717000Y-5703000D01*
X16687000Y-5673000D02*
X16747000Y-5673000D01*
X16824000Y-5641000D02*
X16824000Y-5701000D01*
X16794000Y-5671000D02*
X16854000Y-5671000D01*
X17294000Y-7974000D02*
X17294000Y-8034000D01*
X17264000Y-8004000D02*
X17324000Y-8004000D01*
X17294000Y-8077000D02*
X17294000Y-8137000D01*
X17264000Y-8107000D02*
X17324000Y-8107000D01*
X17294000Y-8181000D02*
X17294000Y-8241000D01*
X17264000Y-8211000D02*
X17324000Y-8211000D01*
X17739000Y-5639000D02*
X17739000Y-5699000D01*
X17709000Y-5669000D02*
X17769000Y-5669000D01*
X17843000Y-5639000D02*
X17843000Y-5699000D01*
X17813000Y-5669000D02*
X17873000Y-5669000D01*
X17956000Y-5639000D02*
X17956000Y-5699000D01*
X17926000Y-5669000D02*
X17986000Y-5669000D01*
X17111981Y-9173981D02*
X17111981Y-9128019D01*
X17066019Y-9128019D01*
X17066019Y-9173981D01*
X17111981Y-9173981D01*
X17111981Y-9373981D02*
X17111981Y-9328019D01*
X17066019Y-9328019D01*
X17066019Y-9373981D01*
X17111981Y-9373981D01*
X17111981Y-9573981D02*
X17111981Y-9528019D01*
X17066019Y-9528019D01*
X17066019Y-9573981D01*
X17111981Y-9573981D01*
X17111981Y-9773981D02*
X17111981Y-9728019D01*
X17066019Y-9728019D01*
X17066019Y-9773981D01*
X17111981Y-9773981D01*
X17111981Y-9973981D02*
X17111981Y-9928019D01*
X17066019Y-9928019D01*
X17066019Y-9973981D01*
X17111981Y-9973981D01*
X17111981Y-10173981D02*
X17111981Y-10128019D01*
X17066019Y-10128019D01*
X17066019Y-10173981D01*
X17111981Y-10173981D01*
X17111981Y-10373981D02*
X17111981Y-10328019D01*
X17066019Y-10328019D01*
X17066019Y-10373981D01*
X17111981Y-10373981D01*
X17111981Y-10573981D02*
X17111981Y-10528019D01*
X17066019Y-10528019D01*
X17066019Y-10573981D01*
X17111981Y-10573981D01*
X18511981Y-9173981D02*
X18511981Y-9128019D01*
X18466019Y-9128019D01*
X18466019Y-9173981D01*
X18511981Y-9173981D01*
X18511981Y-9373981D02*
X18511981Y-9328019D01*
X18466019Y-9328019D01*
X18466019Y-9373981D01*
X18511981Y-9373981D01*
X18511981Y-9573981D02*
X18511981Y-9528019D01*
X18466019Y-9528019D01*
X18466019Y-9573981D01*
X18511981Y-9573981D01*
X18511981Y-9773981D02*
X18511981Y-9728019D01*
X18466019Y-9728019D01*
X18466019Y-9773981D01*
X18511981Y-9773981D01*
X18511981Y-9973981D02*
X18511981Y-9928019D01*
X18466019Y-9928019D01*
X18466019Y-9973981D01*
X18511981Y-9973981D01*
X18511981Y-10173981D02*
X18511981Y-10128019D01*
X18466019Y-10128019D01*
X18466019Y-10173981D01*
X18511981Y-10173981D01*
X18511981Y-10373981D02*
X18511981Y-10328019D01*
X18466019Y-10328019D01*
X18466019Y-10373981D01*
X18511981Y-10373981D01*
X18511981Y-10573981D02*
X18511981Y-10528019D01*
X18466019Y-10528019D01*
X18466019Y-10573981D01*
X18511981Y-10573981D01*
X17875000Y-8448000D02*
X17915000Y-8408000D01*
X17875000Y-8368000D01*
X17835000Y-8408000D01*
X17875000Y-8448000D01*
X17875000Y-8648000D02*
X17915000Y-8608000D01*
X17875000Y-8568000D01*
X17835000Y-8608000D01*
X17875000Y-8648000D01*
X10734360Y-7984360D02*
X10815640Y-8065640D01*
X10815640Y-7984360D02*
X10734360Y-8065640D01*
X10815640Y-8025000D02*
G75*
G03X10815640Y-8025000I-40640J0D01*
G01*
X10734360Y-8238360D02*
X10815640Y-8319640D01*
X10815640Y-8238360D02*
X10734360Y-8319640D01*
X10815640Y-8279000D02*
G75*
G03X10815640Y-8279000I-40640J0D01*
G01*
X10934258Y-7984360D02*
X11015538Y-8065640D01*
X11015538Y-7984360D02*
X10934258Y-8065640D01*
X11015538Y-8025000D02*
G75*
G03X11015538Y-8025000I-40640J0D01*
G01*
X10934258Y-8238360D02*
X11015538Y-8319640D01*
X11015538Y-8238360D02*
X10934258Y-8319640D01*
X11015538Y-8279000D02*
G75*
G03X11015538Y-8279000I-40640J0D01*
G01*
X9983000Y-5400000D02*
X10073000Y-5490000D01*
X10073000Y-5400000D02*
X9983000Y-5490000D01*
X10028000Y-5400000D02*
X10028000Y-5490000D01*
X9983000Y-5445000D02*
X10073000Y-5445000D01*
X9993000Y-5435000D02*
X9993000Y-5455000D01*
X10063000Y-5435000D02*
X10063000Y-5455000D01*
X9993000Y-5455000D02*
G75*
G03X10063000Y-5455000I35000J0D01*
G01*
X10063000Y-5435000D02*
G75*
G03X9993000Y-5435000I-35000J0D01*
G01*
X10467000Y-5400000D02*
X10557000Y-5490000D01*
X10557000Y-5400000D02*
X10467000Y-5490000D01*
X10512000Y-5400000D02*
X10512000Y-5490000D01*
X10467000Y-5445000D02*
X10557000Y-5445000D01*
X10477000Y-5435000D02*
X10477000Y-5455000D01*
X10547000Y-5435000D02*
X10547000Y-5455000D01*
X10477000Y-5455000D02*
G75*
G03X10547000Y-5455000I35000J0D01*
G01*
X10547000Y-5435000D02*
G75*
G03X10477000Y-5435000I-35000J0D01*
G01*
X10467000Y-5784000D02*
X10557000Y-5874000D01*
X10557000Y-5784000D02*
X10467000Y-5874000D01*
X10512000Y-5784000D02*
X10512000Y-5874000D01*
X10467000Y-5829000D02*
X10557000Y-5829000D01*
X10477000Y-5819000D02*
X10477000Y-5839000D01*
X10547000Y-5819000D02*
X10547000Y-5839000D01*
X10477000Y-5839000D02*
G75*
G03X10547000Y-5839000I35000J0D01*
G01*
X10547000Y-5819000D02*
G75*
G03X10477000Y-5819000I-35000J0D01*
G01*
X11233000Y-5400000D02*
X11323000Y-5490000D01*
X11323000Y-5400000D02*
X11233000Y-5490000D01*
X11278000Y-5400000D02*
X11278000Y-5490000D01*
X11233000Y-5445000D02*
X11323000Y-5445000D01*
X11243000Y-5435000D02*
X11243000Y-5455000D01*
X11313000Y-5435000D02*
X11313000Y-5455000D01*
X11243000Y-5455000D02*
G75*
G03X11313000Y-5455000I35000J0D01*
G01*
X11313000Y-5435000D02*
G75*
G03X11243000Y-5435000I-35000J0D01*
G01*
X11717000Y-5400000D02*
X11807000Y-5490000D01*
X11807000Y-5400000D02*
X11717000Y-5490000D01*
X11762000Y-5400000D02*
X11762000Y-5490000D01*
X11717000Y-5445000D02*
X11807000Y-5445000D01*
X11727000Y-5435000D02*
X11727000Y-5455000D01*
X11797000Y-5435000D02*
X11797000Y-5455000D01*
X11727000Y-5455000D02*
G75*
G03X11797000Y-5455000I35000J0D01*
G01*
X11797000Y-5435000D02*
G75*
G03X11727000Y-5435000I-35000J0D01*
G01*
X11717000Y-5784000D02*
X11807000Y-5874000D01*
X11807000Y-5784000D02*
X11717000Y-5874000D01*
X11762000Y-5784000D02*
X11762000Y-5874000D01*
X11717000Y-5829000D02*
X11807000Y-5829000D01*
X11727000Y-5819000D02*
X11727000Y-5839000D01*
X11797000Y-5819000D02*
X11797000Y-5839000D01*
X11727000Y-5839000D02*
G75*
G03X11797000Y-5839000I35000J0D01*
G01*
X11797000Y-5819000D02*
G75*
G03X11727000Y-5819000I-35000J0D01*
G01*
X12468000Y-5400000D02*
X12558000Y-5490000D01*
X12558000Y-5400000D02*
X12468000Y-5490000D01*
X12513000Y-5400000D02*
X12513000Y-5490000D01*
X12468000Y-5445000D02*
X12558000Y-5445000D01*
X12478000Y-5435000D02*
X12478000Y-5455000D01*
X12548000Y-5435000D02*
X12548000Y-5455000D01*
X12478000Y-5455000D02*
G75*
G03X12548000Y-5455000I35000J0D01*
G01*
X12548000Y-5435000D02*
G75*
G03X12478000Y-5435000I-35000J0D01*
G01*
X12952000Y-5400000D02*
X13042000Y-5490000D01*
X13042000Y-5400000D02*
X12952000Y-5490000D01*
X12997000Y-5400000D02*
X12997000Y-5490000D01*
X12952000Y-5445000D02*
X13042000Y-5445000D01*
X12962000Y-5435000D02*
X12962000Y-5455000D01*
X13032000Y-5435000D02*
X13032000Y-5455000D01*
X12962000Y-5455000D02*
G75*
G03X13032000Y-5455000I35000J0D01*
G01*
X13032000Y-5435000D02*
G75*
G03X12962000Y-5435000I-35000J0D01*
G01*
X12952000Y-5784000D02*
X13042000Y-5874000D01*
X13042000Y-5784000D02*
X12952000Y-5874000D01*
X12997000Y-5784000D02*
X12997000Y-5874000D01*
X12952000Y-5829000D02*
X13042000Y-5829000D01*
X12962000Y-5819000D02*
X12962000Y-5839000D01*
X13032000Y-5819000D02*
X13032000Y-5839000D01*
X12962000Y-5839000D02*
G75*
G03X13032000Y-5839000I35000J0D01*
G01*
X13032000Y-5819000D02*
G75*
G03X12962000Y-5819000I-35000J0D01*
G01*
X13703000Y-5405000D02*
X13793000Y-5495000D01*
X13793000Y-5405000D02*
X13703000Y-5495000D01*
X13748000Y-5405000D02*
X13748000Y-5495000D01*
X13703000Y-5450000D02*
X13793000Y-5450000D01*
X13713000Y-5440000D02*
X13713000Y-5460000D01*
X13783000Y-5440000D02*
X13783000Y-5460000D01*
X13713000Y-5460000D02*
G75*
G03X13783000Y-5460000I35000J0D01*
G01*
X13783000Y-5440000D02*
G75*
G03X13713000Y-5440000I-35000J0D01*
G01*
X14187000Y-5405000D02*
X14277000Y-5495000D01*
X14277000Y-5405000D02*
X14187000Y-5495000D01*
X14232000Y-5405000D02*
X14232000Y-5495000D01*
X14187000Y-5450000D02*
X14277000Y-5450000D01*
X14197000Y-5440000D02*
X14197000Y-5460000D01*
X14267000Y-5440000D02*
X14267000Y-5460000D01*
X14197000Y-5460000D02*
G75*
G03X14267000Y-5460000I35000J0D01*
G01*
X14267000Y-5440000D02*
G75*
G03X14197000Y-5440000I-35000J0D01*
G01*
X14187000Y-5789000D02*
X14277000Y-5879000D01*
X14277000Y-5789000D02*
X14187000Y-5879000D01*
X14232000Y-5789000D02*
X14232000Y-5879000D01*
X14187000Y-5834000D02*
X14277000Y-5834000D01*
X14197000Y-5824000D02*
X14197000Y-5844000D01*
X14267000Y-5824000D02*
X14267000Y-5844000D01*
X14197000Y-5844000D02*
G75*
G03X14267000Y-5844000I35000J0D01*
G01*
X14267000Y-5824000D02*
G75*
G03X14197000Y-5824000I-35000J0D01*
G01*
X16147000Y-5428000D02*
X16237000Y-5518000D01*
X16237000Y-5428000D02*
X16147000Y-5518000D01*
X16192000Y-5428000D02*
X16192000Y-5518000D01*
X16147000Y-5473000D02*
X16237000Y-5473000D01*
X16157000Y-5463000D02*
X16157000Y-5483000D01*
X16227000Y-5463000D02*
X16227000Y-5483000D01*
X16157000Y-5483000D02*
G75*
G03X16227000Y-5483000I35000J0D01*
G01*
X16227000Y-5463000D02*
G75*
G03X16157000Y-5463000I-35000J0D01*
G01*
X16631000Y-5428000D02*
X16721000Y-5518000D01*
X16721000Y-5428000D02*
X16631000Y-5518000D01*
X16676000Y-5428000D02*
X16676000Y-5518000D01*
X16631000Y-5473000D02*
X16721000Y-5473000D01*
X16641000Y-5463000D02*
X16641000Y-5483000D01*
X16711000Y-5463000D02*
X16711000Y-5483000D01*
X16641000Y-5483000D02*
G75*
G03X16711000Y-5483000I35000J0D01*
G01*
X16711000Y-5463000D02*
G75*
G03X16641000Y-5463000I-35000J0D01*
G01*
X16631000Y-5812000D02*
X16721000Y-5902000D01*
X16721000Y-5812000D02*
X16631000Y-5902000D01*
X16676000Y-5812000D02*
X16676000Y-5902000D01*
X16631000Y-5857000D02*
X16721000Y-5857000D01*
X16641000Y-5847000D02*
X16641000Y-5867000D01*
X16711000Y-5847000D02*
X16711000Y-5867000D01*
X16641000Y-5867000D02*
G75*
G03X16711000Y-5867000I35000J0D01*
G01*
X16711000Y-5847000D02*
G75*
G03X16641000Y-5847000I-35000J0D01*
G01*
X17340000Y-5424000D02*
X17430000Y-5514000D01*
X17430000Y-5424000D02*
X17340000Y-5514000D01*
X17385000Y-5424000D02*
X17385000Y-5514000D01*
X17340000Y-5469000D02*
X17430000Y-5469000D01*
X17350000Y-5459000D02*
X17350000Y-5479000D01*
X17420000Y-5459000D02*
X17420000Y-5479000D01*
X17350000Y-5479000D02*
G75*
G03X17420000Y-5479000I35000J0D01*
G01*
X17420000Y-5459000D02*
G75*
G03X17350000Y-5459000I-35000J0D01*
G01*
X17824000Y-5424000D02*
X17914000Y-5514000D01*
X17914000Y-5424000D02*
X17824000Y-5514000D01*
X17869000Y-5424000D02*
X17869000Y-5514000D01*
X17824000Y-5469000D02*
X17914000Y-5469000D01*
X17834000Y-5459000D02*
X17834000Y-5479000D01*
X17904000Y-5459000D02*
X17904000Y-5479000D01*
X17834000Y-5479000D02*
G75*
G03X17904000Y-5479000I35000J0D01*
G01*
X17904000Y-5459000D02*
G75*
G03X17834000Y-5459000I-35000J0D01*
G01*
X17824000Y-5808000D02*
X17914000Y-5898000D01*
X17914000Y-5808000D02*
X17824000Y-5898000D01*
X17869000Y-5808000D02*
X17869000Y-5898000D01*
X17824000Y-5853000D02*
X17914000Y-5853000D01*
X17834000Y-5843000D02*
X17834000Y-5863000D01*
X17904000Y-5843000D02*
X17904000Y-5863000D01*
X17834000Y-5863000D02*
G75*
G03X17904000Y-5863000I35000J0D01*
G01*
X17904000Y-5843000D02*
G75*
G03X17834000Y-5843000I-35000J0D01*
G01*
X9969962Y-9634962D02*
X10070038Y-9735038D01*
X10070038Y-9634962D02*
X9969962Y-9735038D01*
X10055383Y-9720383D02*
X10055383Y-9649618D01*
X9984618Y-9649618D01*
X9984618Y-9720383D01*
X10055383Y-9720383D01*
X9969962Y-9888962D02*
X10070038Y-9989038D01*
X10070038Y-9888962D02*
X9969962Y-9989038D01*
X10055383Y-9974383D02*
X10055383Y-9903618D01*
X9984618Y-9903618D01*
X9984618Y-9974383D01*
X10055383Y-9974383D01*
X9974962Y-6710962D02*
X10075038Y-6811038D01*
X10075038Y-6710962D02*
X9974962Y-6811038D01*
X10060383Y-6796382D02*
X10060383Y-6725617D01*
X9989618Y-6725617D01*
X9989618Y-6796382D01*
X10060383Y-6796382D01*
X9974962Y-6964962D02*
X10075038Y-7065038D01*
X10075038Y-6964962D02*
X9974962Y-7065038D01*
X10060383Y-7050382D02*
X10060383Y-6979617D01*
X9989618Y-6979617D01*
X9989618Y-7050382D01*
X10060383Y-7050382D01*
X15685962Y-8144962D02*
X15786038Y-8245038D01*
X15786038Y-8144962D02*
X15685962Y-8245038D01*
X15771382Y-8230382D02*
X15771382Y-8159617D01*
X15700617Y-8159617D01*
X15700617Y-8230382D01*
X15771382Y-8230382D01*
X15939962Y-8144962D02*
X16040038Y-8245038D01*
X16040038Y-8144962D02*
X15939962Y-8245038D01*
X16025382Y-8230382D02*
X16025382Y-8159617D01*
X15954617Y-8159617D01*
X15954617Y-8230382D01*
X16025382Y-8230382D01*
X16264962Y-8144962D02*
X16365038Y-8245038D01*
X16365038Y-8144962D02*
X16264962Y-8245038D01*
X16350382Y-8230382D02*
X16350382Y-8159617D01*
X16279617Y-8159617D01*
X16279617Y-8230382D01*
X16350382Y-8230382D01*
X16518962Y-8144962D02*
X16619038Y-8245038D01*
X16619038Y-8144962D02*
X16518962Y-8245038D01*
X16604382Y-8230382D02*
X16604382Y-8159617D01*
X16533617Y-8159617D01*
X16533617Y-8230382D01*
X16604382Y-8230382D01*
X10025600Y-10817200D02*
X10127200Y-10918800D01*
X10127200Y-10817200D02*
X10025600Y-10918800D01*
X10076400Y-10918800D02*
X10127200Y-10868000D01*
X10076400Y-10817200D01*
X10025600Y-10868000D01*
X10076400Y-10918800D01*
X10035600Y-10791800D02*
X10035600Y-10944200D01*
X10117200Y-10791800D02*
X10117200Y-10944200D01*
X10035600Y-10944200D02*
G75*
G03X10117200Y-10944200I40800J0D01*
G01*
X10117200Y-10791800D02*
G75*
G03X10035600Y-10791800I-40800J0D01*
G01*
X10254200Y-10309200D02*
X10355800Y-10410800D01*
X10355800Y-10309200D02*
X10254200Y-10410800D01*
X10305000Y-10410800D02*
X10355800Y-10360000D01*
X10305000Y-10309200D01*
X10254200Y-10360000D01*
X10305000Y-10410800D01*
X10228800Y-10400800D02*
X10381200Y-10400800D01*
X10228800Y-10319200D02*
X10381200Y-10319200D01*
X10381200Y-10400800D02*
G75*
G03X10381200Y-10319200I0J40800D01*
G01*
X10228800Y-10319200D02*
G75*
G03X10228800Y-10400800I0J-40800D01*
G01*
X10635200Y-10817200D02*
X10736800Y-10918800D01*
X10736800Y-10817200D02*
X10635200Y-10918800D01*
X10686000Y-10918800D02*
X10736800Y-10868000D01*
X10686000Y-10817200D01*
X10635200Y-10868000D01*
X10686000Y-10918800D01*
X10645200Y-10791800D02*
X10645200Y-10944200D01*
X10726800Y-10791800D02*
X10726800Y-10944200D01*
X10645200Y-10944200D02*
G75*
G03X10726800Y-10944200I40800J0D01*
G01*
X10726800Y-10791800D02*
G75*
G03X10645200Y-10791800I-40800J0D01*
G01*
X16213200Y-6622200D02*
X16314800Y-6723800D01*
X16314800Y-6622200D02*
X16213200Y-6723800D01*
X16264000Y-6723800D02*
X16314800Y-6673000D01*
X16264000Y-6622200D01*
X16213200Y-6673000D01*
X16264000Y-6723800D01*
X16213200Y-6876200D02*
X16314800Y-6977800D01*
X16314800Y-6876200D02*
X16213200Y-6977800D01*
X16264000Y-6977800D02*
X16314800Y-6927000D01*
X16264000Y-6876200D01*
X16213200Y-6927000D01*
X16264000Y-6977800D01*
X16467200Y-6622200D02*
X16568800Y-6723800D01*
X16568800Y-6622200D02*
X16467200Y-6723800D01*
X16518000Y-6723800D02*
X16568800Y-6673000D01*
X16518000Y-6622200D01*
X16467200Y-6673000D01*
X16518000Y-6723800D01*
X16467200Y-6876200D02*
X16568800Y-6977800D01*
X16568800Y-6876200D02*
X16467200Y-6977800D01*
X16518000Y-6977800D02*
X16568800Y-6927000D01*
X16518000Y-6876200D01*
X16467200Y-6927000D01*
X16518000Y-6977800D01*
X16721200Y-6622200D02*
X16822800Y-6723800D01*
X16822800Y-6622200D02*
X16721200Y-6723800D01*
X16772000Y-6723800D02*
X16822800Y-6673000D01*
X16772000Y-6622200D01*
X16721200Y-6673000D01*
X16772000Y-6723800D01*
X16721200Y-6876200D02*
X16822800Y-6977800D01*
X16822800Y-6876200D02*
X16721200Y-6977800D01*
X16772000Y-6977800D02*
X16822800Y-6927000D01*
X16772000Y-6876200D01*
X16721200Y-6927000D01*
X16772000Y-6977800D01*
X16975200Y-6622200D02*
X17076800Y-6723800D01*
X17076800Y-6622200D02*
X16975200Y-6723800D01*
X17026000Y-6723800D02*
X17076800Y-6673000D01*
X17026000Y-6622200D01*
X16975200Y-6673000D01*
X17026000Y-6723800D01*
X16975200Y-6876200D02*
X17076800Y-6977800D01*
X17076800Y-6876200D02*
X16975200Y-6977800D01*
X17026000Y-6977800D02*
X17076800Y-6927000D01*
X17026000Y-6876200D01*
X16975200Y-6927000D01*
X17026000Y-6977800D01*
X17392200Y-6618200D02*
X17493800Y-6719800D01*
X17493800Y-6618200D02*
X17392200Y-6719800D01*
X17443000Y-6719800D02*
X17493800Y-6669000D01*
X17443000Y-6618200D01*
X17392200Y-6669000D01*
X17443000Y-6719800D01*
X17392200Y-6872200D02*
X17493800Y-6973800D01*
X17493800Y-6872200D02*
X17392200Y-6973800D01*
X17443000Y-6973800D02*
X17493800Y-6923000D01*
X17443000Y-6872200D01*
X17392200Y-6923000D01*
X17443000Y-6973800D01*
X17646200Y-6618200D02*
X17747800Y-6719800D01*
X17747800Y-6618200D02*
X17646200Y-6719800D01*
X17697000Y-6719800D02*
X17747800Y-6669000D01*
X17697000Y-6618200D01*
X17646200Y-6669000D01*
X17697000Y-6719800D01*
X17646200Y-6872200D02*
X17747800Y-6973800D01*
X17747800Y-6872200D02*
X17646200Y-6973800D01*
X17697000Y-6973800D02*
X17747800Y-6923000D01*
X17697000Y-6872200D01*
X17646200Y-6923000D01*
X17697000Y-6973800D01*
X17900200Y-6618200D02*
X18001800Y-6719800D01*
X18001800Y-6618200D02*
X17900200Y-6719800D01*
X17951000Y-6719800D02*
X18001800Y-6669000D01*
X17951000Y-6618200D01*
X17900200Y-6669000D01*
X17951000Y-6719800D01*
X17900200Y-6872200D02*
X18001800Y-6973800D01*
X18001800Y-6872200D02*
X17900200Y-6973800D01*
X17951000Y-6973800D02*
X18001800Y-6923000D01*
X17951000Y-6872200D01*
X17900200Y-6923000D01*
X17951000Y-6973800D01*
X18154200Y-6618200D02*
X18255800Y-6719800D01*
X18255800Y-6618200D02*
X18154200Y-6719800D01*
X18205000Y-6719800D02*
X18255800Y-6669000D01*
X18205000Y-6618200D01*
X18154200Y-6669000D01*
X18205000Y-6719800D01*
X18154200Y-6872200D02*
X18255800Y-6973800D01*
X18255800Y-6872200D02*
X18154200Y-6973800D01*
X18205000Y-6973800D02*
X18255800Y-6923000D01*
X18205000Y-6872200D01*
X18154200Y-6923000D01*
X18205000Y-6973800D01*
X10028000Y-5774000D02*
X10028000Y-5884000D01*
X9973000Y-5829000D02*
X10083000Y-5829000D01*
X10083000Y-5829000D02*
G75*
G03X10083000Y-5829000I-55000J0D01*
G01*
X9983000Y-5809000D02*
X9983000Y-5849000D01*
X10073000Y-5809000D02*
X10073000Y-5849000D01*
X9983000Y-5849000D02*
G75*
G03X10073000Y-5849000I45000J0D01*
G01*
X10073000Y-5809000D02*
G75*
G03X9983000Y-5809000I-45000J0D01*
G01*
X11278000Y-5774000D02*
X11278000Y-5884000D01*
X11223000Y-5829000D02*
X11333000Y-5829000D01*
X11333000Y-5829000D02*
G75*
G03X11333000Y-5829000I-55000J0D01*
G01*
X11233000Y-5809000D02*
X11233000Y-5849000D01*
X11323000Y-5809000D02*
X11323000Y-5849000D01*
X11233000Y-5849000D02*
G75*
G03X11323000Y-5849000I45000J0D01*
G01*
X11323000Y-5809000D02*
G75*
G03X11233000Y-5809000I-45000J0D01*
G01*
X12513000Y-5774000D02*
X12513000Y-5884000D01*
X12458000Y-5829000D02*
X12568000Y-5829000D01*
X12568000Y-5829000D02*
G75*
G03X12568000Y-5829000I-55000J0D01*
G01*
X12468000Y-5809000D02*
X12468000Y-5849000D01*
X12558000Y-5809000D02*
X12558000Y-5849000D01*
X12468000Y-5849000D02*
G75*
G03X12558000Y-5849000I45000J0D01*
G01*
X12558000Y-5809000D02*
G75*
G03X12468000Y-5809000I-45000J0D01*
G01*
X13748000Y-5779000D02*
X13748000Y-5889000D01*
X13693000Y-5834000D02*
X13803000Y-5834000D01*
X13803000Y-5834000D02*
G75*
G03X13803000Y-5834000I-55000J0D01*
G01*
X13703000Y-5814000D02*
X13703000Y-5854000D01*
X13793000Y-5814000D02*
X13793000Y-5854000D01*
X13703000Y-5854000D02*
G75*
G03X13793000Y-5854000I45000J0D01*
G01*
X13793000Y-5814000D02*
G75*
G03X13703000Y-5814000I-45000J0D01*
G01*
X16192000Y-5802000D02*
X16192000Y-5912000D01*
X16137000Y-5857000D02*
X16247000Y-5857000D01*
X16247000Y-5857000D02*
G75*
G03X16247000Y-5857000I-55000J0D01*
G01*
X16147000Y-5837000D02*
X16147000Y-5877000D01*
X16237000Y-5837000D02*
X16237000Y-5877000D01*
X16147000Y-5877000D02*
G75*
G03X16237000Y-5877000I45000J0D01*
G01*
X16237000Y-5837000D02*
G75*
G03X16147000Y-5837000I-45000J0D01*
G01*
X17385000Y-5798000D02*
X17385000Y-5908000D01*
X17330000Y-5853000D02*
X17440000Y-5853000D01*
X17440000Y-5853000D02*
G75*
G03X17440000Y-5853000I-55000J0D01*
G01*
X17340000Y-5833000D02*
X17340000Y-5873000D01*
X17430000Y-5833000D02*
X17430000Y-5873000D01*
X17340000Y-5873000D02*
G75*
G03X17430000Y-5873000I45000J0D01*
G01*
X17430000Y-5833000D02*
G75*
G03X17340000Y-5833000I-45000J0D01*
G01*
X13860427Y-11015427D02*
X13860427Y-10930573D01*
X13775573Y-10930573D01*
X13775573Y-11015427D01*
X13860427Y-11015427D01*
X13878000Y-10973000D02*
G75*
G03X13878000Y-10973000I-60000J0D01*
G01*
X14114077Y-11015427D02*
X14114077Y-10930573D01*
X14029223Y-10930573D01*
X14029223Y-11015427D01*
X14114077Y-11015427D01*
X14131650Y-10973000D02*
G75*
G03X14131650Y-10973000I-60000J0D01*
G01*
X14364077Y-11015427D02*
X14364077Y-10930573D01*
X14279223Y-10930573D01*
X14279223Y-11015427D01*
X14364077Y-11015427D01*
X14381650Y-10973000D02*
G75*
G03X14381650Y-10973000I-60000J0D01*
G01*
X14614077Y-11015427D02*
X14614077Y-10930573D01*
X14529223Y-10930573D01*
X14529223Y-11015427D01*
X14614077Y-11015427D01*
X14631650Y-10973000D02*
G75*
G03X14631650Y-10973000I-60000J0D01*
G01*
X14864077Y-11015427D02*
X14864077Y-10930573D01*
X14779223Y-10930573D01*
X14779223Y-11015427D01*
X14864077Y-11015427D01*
X14881650Y-10973000D02*
G75*
G03X14881650Y-10973000I-60000J0D01*
G01*
X15114077Y-11015427D02*
X15114077Y-10930573D01*
X15029223Y-10930573D01*
X15029223Y-11015427D01*
X15114077Y-11015427D01*
X15131650Y-10973000D02*
G75*
G03X15131650Y-10973000I-60000J0D01*
G01*
X15364427Y-11015427D02*
X15364427Y-10930573D01*
X15279573Y-10930573D01*
X15279573Y-11015427D01*
X15364427Y-11015427D01*
X15382000Y-10973000D02*
G75*
G03X15382000Y-10973000I-60000J0D01*
G01*
X15618427Y-11015427D02*
X15618427Y-10930573D01*
X15533573Y-10930573D01*
X15533573Y-11015427D01*
X15618427Y-11015427D01*
X15636000Y-10973000D02*
G75*
G03X15636000Y-10973000I-60000J0D01*
G01*
X15868427Y-11015427D02*
X15868427Y-10930573D01*
X15783573Y-10930573D01*
X15783573Y-11015427D01*
X15868427Y-11015427D01*
X15886000Y-10973000D02*
G75*
G03X15886000Y-10973000I-60000J0D01*
G01*
X16492427Y-10388427D02*
X16492427Y-10303573D01*
X16407573Y-10303573D01*
X16407573Y-10388427D01*
X16492427Y-10388427D01*
X16510000Y-10346000D02*
G75*
G03X16510000Y-10346000I-60000J0D01*
G01*
X16492427Y-10638427D02*
X16492427Y-10553573D01*
X16407573Y-10553573D01*
X16407573Y-10638427D01*
X16492427Y-10638427D01*
X16510000Y-10596000D02*
G75*
G03X16510000Y-10596000I-60000J0D01*
G01*
X16492427Y-10892427D02*
X16492427Y-10807573D01*
X16407573Y-10807573D01*
X16407573Y-10892427D01*
X16492427Y-10892427D01*
X16510000Y-10850000D02*
G75*
G03X16510000Y-10850000I-60000J0D01*
G01*
X10504998Y-7667114D02*
X10620060Y-7552052D01*
X10504998Y-7436990D01*
X10389936Y-7552052D01*
X10504998Y-7667114D01*
X10620060Y-7552052D02*
G75*
G03X10620060Y-7552052I-115062J0D01*
G01*
X10504998Y-8867010D02*
X10620060Y-8751948D01*
X10504998Y-8636886D01*
X10389936Y-8751948D01*
X10504998Y-8867010D01*
X10620060Y-8751948D02*
G75*
G03X10620060Y-8751948I-115062J0D01*
G01*
D13*
X9788929Y-12074214D02*
X9788929Y-11774214D01*
X9860357Y-11774214D01*
X9903214Y-11788500D01*
X9931786Y-11817071D01*
X9946071Y-11845643D01*
X9960357Y-11902786D01*
X9960357Y-11945643D01*
X9946071Y-12002786D01*
X9931786Y-12031357D01*
X9903214Y-12059929D01*
X9860357Y-12074214D01*
X9788929Y-12074214D01*
X10088929Y-12074214D02*
X10088929Y-11874214D01*
X10088929Y-11931357D02*
X10103214Y-11902786D01*
X10117500Y-11888500D01*
X10146071Y-11874214D01*
X10174643Y-11874214D01*
X10274643Y-12074214D02*
X10274643Y-11874214D01*
X10274643Y-11774214D02*
X10260357Y-11788500D01*
X10274643Y-11802786D01*
X10288929Y-11788500D01*
X10274643Y-11774214D01*
X10274643Y-11802786D01*
X10460357Y-12074214D02*
X10431786Y-12059929D01*
X10417500Y-12031357D01*
X10417500Y-11774214D01*
X10617500Y-12074214D02*
X10588929Y-12059929D01*
X10574643Y-12031357D01*
X10574643Y-11774214D01*
X10960357Y-12074214D02*
X10960357Y-11774214D01*
X11060357Y-11988500D01*
X11160357Y-11774214D01*
X11160357Y-12074214D01*
X11431786Y-12074214D02*
X11431786Y-11917071D01*
X11417500Y-11888500D01*
X11388928Y-11874214D01*
X11331786Y-11874214D01*
X11303214Y-11888500D01*
X11431786Y-12059929D02*
X11403214Y-12074214D01*
X11331786Y-12074214D01*
X11303214Y-12059929D01*
X11288928Y-12031357D01*
X11288928Y-12002786D01*
X11303214Y-11974214D01*
X11331786Y-11959929D01*
X11403214Y-11959929D01*
X11431786Y-11945643D01*
X11574643Y-11874214D02*
X11574643Y-12174214D01*
X11574643Y-11888500D02*
X11603214Y-11874214D01*
X11660357Y-11874214D01*
X11688928Y-11888500D01*
X11703214Y-11902786D01*
X11717500Y-11931357D01*
X11717500Y-12017071D01*
X11703214Y-12045643D01*
X11688928Y-12059929D01*
X11660357Y-12074214D01*
X11603214Y-12074214D01*
X11574643Y-12059929D01*
X11846071Y-12045643D02*
X11860357Y-12059929D01*
X11846071Y-12074214D01*
X11831786Y-12059929D01*
X11846071Y-12045643D01*
X11846071Y-12074214D01*
X11846071Y-11888500D02*
X11860357Y-11902786D01*
X11846071Y-11917071D01*
X11831786Y-11902786D01*
X11846071Y-11888500D01*
X11846071Y-11917071D01*
X9477500Y-12548500D02*
X9517500Y-12588500D01*
X9517500Y-12548500D02*
X9477500Y-12588500D01*
X9846071Y-12404214D02*
X9874643Y-12404214D01*
X9903214Y-12418500D01*
X9917500Y-12432786D01*
X9931786Y-12461357D01*
X9946071Y-12518500D01*
X9946071Y-12589929D01*
X9931786Y-12647071D01*
X9917500Y-12675643D01*
X9903214Y-12689929D01*
X9874643Y-12704214D01*
X9846071Y-12704214D01*
X9817500Y-12689929D01*
X9803214Y-12675643D01*
X9788929Y-12647071D01*
X9774643Y-12589929D01*
X9774643Y-12518500D01*
X9788929Y-12461357D01*
X9803214Y-12432786D01*
X9817500Y-12418500D01*
X9846071Y-12404214D01*
X10074643Y-12675643D02*
X10088929Y-12689929D01*
X10074643Y-12704214D01*
X10060357Y-12689929D01*
X10074643Y-12675643D01*
X10074643Y-12704214D01*
X10346071Y-12504214D02*
X10346071Y-12704214D01*
X10274643Y-12389929D02*
X10203214Y-12604214D01*
X10388928Y-12604214D01*
X10560357Y-12404214D02*
X10588929Y-12404214D01*
X10617500Y-12418500D01*
X10631786Y-12432786D01*
X10646071Y-12461357D01*
X10660357Y-12518500D01*
X10660357Y-12589929D01*
X10646071Y-12647071D01*
X10631786Y-12675643D01*
X10617500Y-12689929D01*
X10588929Y-12704214D01*
X10560357Y-12704214D01*
X10531786Y-12689929D01*
X10517500Y-12675643D01*
X10503214Y-12647071D01*
X10488929Y-12589929D01*
X10488929Y-12518500D01*
X10503214Y-12461357D01*
X10517500Y-12432786D01*
X10531786Y-12418500D01*
X10560357Y-12404214D01*
X10788929Y-12704214D02*
X10788929Y-12504214D01*
X10788929Y-12532786D02*
X10803214Y-12518500D01*
X10831786Y-12504214D01*
X10874643Y-12504214D01*
X10903214Y-12518500D01*
X10917500Y-12547071D01*
X10917500Y-12704214D01*
X10917500Y-12547071D02*
X10931786Y-12518500D01*
X10960357Y-12504214D01*
X11003214Y-12504214D01*
X11031786Y-12518500D01*
X11046071Y-12547071D01*
X11046071Y-12704214D01*
X11188928Y-12704214D02*
X11188928Y-12504214D01*
X11188928Y-12532786D02*
X11203214Y-12518500D01*
X11231786Y-12504214D01*
X11274643Y-12504214D01*
X11303214Y-12518500D01*
X11317500Y-12547071D01*
X11317500Y-12704214D01*
X11317500Y-12547071D02*
X11331786Y-12518500D01*
X11360357Y-12504214D01*
X11403214Y-12504214D01*
X11431786Y-12518500D01*
X11446071Y-12547071D01*
X11446071Y-12704214D01*
X12031786Y-12389929D02*
X11774643Y-12775643D01*
X12417500Y-12404214D02*
X12446071Y-12404214D01*
X12474643Y-12418500D01*
X12488928Y-12432786D01*
X12503214Y-12461357D01*
X12517500Y-12518500D01*
X12517500Y-12589929D01*
X12503214Y-12647071D01*
X12488928Y-12675643D01*
X12474643Y-12689929D01*
X12446071Y-12704214D01*
X12417500Y-12704214D01*
X12388928Y-12689929D01*
X12374643Y-12675643D01*
X12360357Y-12647071D01*
X12346071Y-12589929D01*
X12346071Y-12518500D01*
X12360357Y-12461357D01*
X12374643Y-12432786D01*
X12388928Y-12418500D01*
X12417500Y-12404214D01*
X12646071Y-12675643D02*
X12660357Y-12689929D01*
X12646071Y-12704214D01*
X12631786Y-12689929D01*
X12646071Y-12675643D01*
X12646071Y-12704214D01*
X12846071Y-12404214D02*
X12874643Y-12404214D01*
X12903214Y-12418500D01*
X12917500Y-12432786D01*
X12931785Y-12461357D01*
X12946071Y-12518500D01*
X12946071Y-12589929D01*
X12931785Y-12647071D01*
X12917500Y-12675643D01*
X12903214Y-12689929D01*
X12874643Y-12704214D01*
X12846071Y-12704214D01*
X12817500Y-12689929D01*
X12803214Y-12675643D01*
X12788928Y-12647071D01*
X12774643Y-12589929D01*
X12774643Y-12518500D01*
X12788928Y-12461357D01*
X12803214Y-12432786D01*
X12817500Y-12418500D01*
X12846071Y-12404214D01*
X13231785Y-12704214D02*
X13060357Y-12704214D01*
X13146071Y-12704214D02*
X13146071Y-12404214D01*
X13117500Y-12447071D01*
X13088928Y-12475643D01*
X13060357Y-12489929D01*
X13488928Y-12404214D02*
X13431785Y-12404214D01*
X13403214Y-12418500D01*
X13388928Y-12432786D01*
X13360357Y-12475643D01*
X13346071Y-12532786D01*
X13346071Y-12647071D01*
X13360357Y-12675643D01*
X13374643Y-12689929D01*
X13403214Y-12704214D01*
X13460357Y-12704214D01*
X13488928Y-12689929D01*
X13503214Y-12675643D01*
X13517500Y-12647071D01*
X13517500Y-12575643D01*
X13503214Y-12547071D01*
X13488928Y-12532786D01*
X13460357Y-12518500D01*
X13403214Y-12518500D01*
X13374643Y-12532786D01*
X13360357Y-12547071D01*
X13346071Y-12575643D01*
X13631786Y-12404214D02*
X13631786Y-12461357D01*
X13746071Y-12404214D02*
X13746071Y-12461357D01*
X14188928Y-12818500D02*
X14174643Y-12804214D01*
X14146071Y-12761357D01*
X14131785Y-12732786D01*
X14117500Y-12689929D01*
X14103214Y-12618500D01*
X14103214Y-12561357D01*
X14117500Y-12489929D01*
X14131785Y-12447071D01*
X14146071Y-12418500D01*
X14174643Y-12375643D01*
X14188928Y-12361357D01*
X14460357Y-12704214D02*
X14288928Y-12704214D01*
X14374643Y-12704214D02*
X14374643Y-12404214D01*
X14346071Y-12447071D01*
X14317500Y-12475643D01*
X14288928Y-12489929D01*
X14746071Y-12704214D02*
X14574643Y-12704214D01*
X14660357Y-12704214D02*
X14660357Y-12404214D01*
X14631785Y-12447071D01*
X14603214Y-12475643D01*
X14574643Y-12489929D01*
X14888928Y-12704214D02*
X14946071Y-12704214D01*
X14974643Y-12689929D01*
X14988928Y-12675643D01*
X15017500Y-12632786D01*
X15031785Y-12575643D01*
X15031785Y-12461357D01*
X15017500Y-12432786D01*
X15003214Y-12418500D01*
X14974643Y-12404214D01*
X14917500Y-12404214D01*
X14888928Y-12418500D01*
X14874643Y-12432786D01*
X14860357Y-12461357D01*
X14860357Y-12532786D01*
X14874643Y-12561357D01*
X14888928Y-12575643D01*
X14917500Y-12589929D01*
X14974643Y-12589929D01*
X15003214Y-12575643D01*
X15017500Y-12561357D01*
X15031785Y-12532786D01*
X15388928Y-12704214D02*
X15388928Y-12404214D01*
X15517500Y-12704214D02*
X15517500Y-12547071D01*
X15503214Y-12518500D01*
X15474643Y-12504214D01*
X15431785Y-12504214D01*
X15403214Y-12518500D01*
X15388928Y-12532786D01*
X15703214Y-12704214D02*
X15674643Y-12689929D01*
X15660357Y-12675643D01*
X15646071Y-12647071D01*
X15646071Y-12561357D01*
X15660357Y-12532786D01*
X15674643Y-12518500D01*
X15703214Y-12504214D01*
X15746071Y-12504214D01*
X15774643Y-12518500D01*
X15788928Y-12532786D01*
X15803214Y-12561357D01*
X15803214Y-12647071D01*
X15788928Y-12675643D01*
X15774643Y-12689929D01*
X15746071Y-12704214D01*
X15703214Y-12704214D01*
X15974643Y-12704214D02*
X15946071Y-12689929D01*
X15931786Y-12661357D01*
X15931786Y-12404214D01*
X16203214Y-12689929D02*
X16174643Y-12704214D01*
X16117500Y-12704214D01*
X16088928Y-12689929D01*
X16074643Y-12661357D01*
X16074643Y-12547071D01*
X16088928Y-12518500D01*
X16117500Y-12504214D01*
X16174643Y-12504214D01*
X16203214Y-12518500D01*
X16217500Y-12547071D01*
X16217500Y-12575643D01*
X16074643Y-12604214D01*
X16331786Y-12689929D02*
X16360357Y-12704214D01*
X16417500Y-12704214D01*
X16446071Y-12689929D01*
X16460357Y-12661357D01*
X16460357Y-12647071D01*
X16446071Y-12618500D01*
X16417500Y-12604214D01*
X16374643Y-12604214D01*
X16346071Y-12589929D01*
X16331786Y-12561357D01*
X16331786Y-12547071D01*
X16346071Y-12518500D01*
X16374643Y-12504214D01*
X16417500Y-12504214D01*
X16446071Y-12518500D01*
X16560357Y-12818500D02*
X16574643Y-12804214D01*
X16603214Y-12761357D01*
X16617500Y-12732786D01*
X16631786Y-12689929D01*
X16646071Y-12618500D01*
X16646071Y-12561357D01*
X16631786Y-12489929D01*
X16617500Y-12447071D01*
X16603214Y-12418500D01*
X16574643Y-12375643D01*
X16560357Y-12361357D01*
X9517500Y-12964500D02*
G75*
G03X9517500Y-12964500I-25000J0D01*
G01*
X9846071Y-12800214D02*
X9874643Y-12800214D01*
X9903214Y-12814500D01*
X9917500Y-12828786D01*
X9931786Y-12857357D01*
X9946071Y-12914500D01*
X9946071Y-12985929D01*
X9931786Y-13043071D01*
X9917500Y-13071643D01*
X9903214Y-13085929D01*
X9874643Y-13100214D01*
X9846071Y-13100214D01*
X9817500Y-13085929D01*
X9803214Y-13071643D01*
X9788929Y-13043071D01*
X9774643Y-12985929D01*
X9774643Y-12914500D01*
X9788929Y-12857357D01*
X9803214Y-12828786D01*
X9817500Y-12814500D01*
X9846071Y-12800214D01*
X10074643Y-13071643D02*
X10088929Y-13085929D01*
X10074643Y-13100214D01*
X10060357Y-13085929D01*
X10074643Y-13071643D01*
X10074643Y-13100214D01*
X10360357Y-12800214D02*
X10217500Y-12800214D01*
X10203214Y-12943071D01*
X10217500Y-12928786D01*
X10246071Y-12914500D01*
X10317500Y-12914500D01*
X10346071Y-12928786D01*
X10360357Y-12943071D01*
X10374643Y-12971643D01*
X10374643Y-13043071D01*
X10360357Y-13071643D01*
X10346071Y-13085929D01*
X10317500Y-13100214D01*
X10246071Y-13100214D01*
X10217500Y-13085929D01*
X10203214Y-13071643D01*
X10560357Y-12800214D02*
X10588929Y-12800214D01*
X10617500Y-12814500D01*
X10631786Y-12828786D01*
X10646071Y-12857357D01*
X10660357Y-12914500D01*
X10660357Y-12985929D01*
X10646071Y-13043071D01*
X10631786Y-13071643D01*
X10617500Y-13085929D01*
X10588929Y-13100214D01*
X10560357Y-13100214D01*
X10531786Y-13085929D01*
X10517500Y-13071643D01*
X10503214Y-13043071D01*
X10488929Y-12985929D01*
X10488929Y-12914500D01*
X10503214Y-12857357D01*
X10517500Y-12828786D01*
X10531786Y-12814500D01*
X10560357Y-12800214D01*
X10788929Y-13100214D02*
X10788929Y-12900214D01*
X10788929Y-12928786D02*
X10803214Y-12914500D01*
X10831786Y-12900214D01*
X10874643Y-12900214D01*
X10903214Y-12914500D01*
X10917500Y-12943071D01*
X10917500Y-13100214D01*
X10917500Y-12943071D02*
X10931786Y-12914500D01*
X10960357Y-12900214D01*
X11003214Y-12900214D01*
X11031786Y-12914500D01*
X11046071Y-12943071D01*
X11046071Y-13100214D01*
X11188928Y-13100214D02*
X11188928Y-12900214D01*
X11188928Y-12928786D02*
X11203214Y-12914500D01*
X11231786Y-12900214D01*
X11274643Y-12900214D01*
X11303214Y-12914500D01*
X11317500Y-12943071D01*
X11317500Y-13100214D01*
X11317500Y-12943071D02*
X11331786Y-12914500D01*
X11360357Y-12900214D01*
X11403214Y-12900214D01*
X11431786Y-12914500D01*
X11446071Y-12943071D01*
X11446071Y-13100214D01*
X12031786Y-12785929D02*
X11774643Y-13171643D01*
X12417500Y-12800214D02*
X12446071Y-12800214D01*
X12474643Y-12814500D01*
X12488928Y-12828786D01*
X12503214Y-12857357D01*
X12517500Y-12914500D01*
X12517500Y-12985929D01*
X12503214Y-13043071D01*
X12488928Y-13071643D01*
X12474643Y-13085929D01*
X12446071Y-13100214D01*
X12417500Y-13100214D01*
X12388928Y-13085929D01*
X12374643Y-13071643D01*
X12360357Y-13043071D01*
X12346071Y-12985929D01*
X12346071Y-12914500D01*
X12360357Y-12857357D01*
X12374643Y-12828786D01*
X12388928Y-12814500D01*
X12417500Y-12800214D01*
X12646071Y-13071643D02*
X12660357Y-13085929D01*
X12646071Y-13100214D01*
X12631786Y-13085929D01*
X12646071Y-13071643D01*
X12646071Y-13100214D01*
X12846071Y-12800214D02*
X12874643Y-12800214D01*
X12903214Y-12814500D01*
X12917500Y-12828786D01*
X12931785Y-12857357D01*
X12946071Y-12914500D01*
X12946071Y-12985929D01*
X12931785Y-13043071D01*
X12917500Y-13071643D01*
X12903214Y-13085929D01*
X12874643Y-13100214D01*
X12846071Y-13100214D01*
X12817500Y-13085929D01*
X12803214Y-13071643D01*
X12788928Y-13043071D01*
X12774643Y-12985929D01*
X12774643Y-12914500D01*
X12788928Y-12857357D01*
X12803214Y-12828786D01*
X12817500Y-12814500D01*
X12846071Y-12800214D01*
X13060357Y-12828786D02*
X13074643Y-12814500D01*
X13103214Y-12800214D01*
X13174643Y-12800214D01*
X13203214Y-12814500D01*
X13217500Y-12828786D01*
X13231785Y-12857357D01*
X13231785Y-12885929D01*
X13217500Y-12928786D01*
X13046071Y-13100214D01*
X13231785Y-13100214D01*
X13417500Y-12800214D02*
X13446071Y-12800214D01*
X13474643Y-12814500D01*
X13488928Y-12828786D01*
X13503214Y-12857357D01*
X13517500Y-12914500D01*
X13517500Y-12985929D01*
X13503214Y-13043071D01*
X13488928Y-13071643D01*
X13474643Y-13085929D01*
X13446071Y-13100214D01*
X13417500Y-13100214D01*
X13388928Y-13085929D01*
X13374643Y-13071643D01*
X13360357Y-13043071D01*
X13346071Y-12985929D01*
X13346071Y-12914500D01*
X13360357Y-12857357D01*
X13374643Y-12828786D01*
X13388928Y-12814500D01*
X13417500Y-12800214D01*
X13631786Y-12800214D02*
X13631786Y-12857357D01*
X13746071Y-12800214D02*
X13746071Y-12857357D01*
X14188928Y-13214500D02*
X14174643Y-13200214D01*
X14146071Y-13157357D01*
X14131785Y-13128786D01*
X14117500Y-13085929D01*
X14103214Y-13014500D01*
X14103214Y-12957357D01*
X14117500Y-12885929D01*
X14131785Y-12843071D01*
X14146071Y-12814500D01*
X14174643Y-12771643D01*
X14188928Y-12757357D01*
X14288928Y-12828786D02*
X14303214Y-12814500D01*
X14331785Y-12800214D01*
X14403214Y-12800214D01*
X14431785Y-12814500D01*
X14446071Y-12828786D01*
X14460357Y-12857357D01*
X14460357Y-12885929D01*
X14446071Y-12928786D01*
X14274643Y-13100214D01*
X14460357Y-13100214D01*
X14717500Y-12900214D02*
X14717500Y-13100214D01*
X14646071Y-12785929D02*
X14574643Y-13000214D01*
X14760357Y-13000214D01*
X15103214Y-13100214D02*
X15103214Y-12800214D01*
X15231785Y-13100214D02*
X15231785Y-12943071D01*
X15217500Y-12914500D01*
X15188928Y-12900214D01*
X15146071Y-12900214D01*
X15117500Y-12914500D01*
X15103214Y-12928786D01*
X15417500Y-13100214D02*
X15388928Y-13085929D01*
X15374643Y-13071643D01*
X15360357Y-13043071D01*
X15360357Y-12957357D01*
X15374643Y-12928786D01*
X15388928Y-12914500D01*
X15417500Y-12900214D01*
X15460357Y-12900214D01*
X15488928Y-12914500D01*
X15503214Y-12928786D01*
X15517500Y-12957357D01*
X15517500Y-13043071D01*
X15503214Y-13071643D01*
X15488928Y-13085929D01*
X15460357Y-13100214D01*
X15417500Y-13100214D01*
X15688928Y-13100214D02*
X15660357Y-13085929D01*
X15646071Y-13057357D01*
X15646071Y-12800214D01*
X15917500Y-13085929D02*
X15888928Y-13100214D01*
X15831786Y-13100214D01*
X15803214Y-13085929D01*
X15788928Y-13057357D01*
X15788928Y-12943071D01*
X15803214Y-12914500D01*
X15831786Y-12900214D01*
X15888928Y-12900214D01*
X15917500Y-12914500D01*
X15931786Y-12943071D01*
X15931786Y-12971643D01*
X15788928Y-13000214D01*
X16046071Y-13085929D02*
X16074643Y-13100214D01*
X16131786Y-13100214D01*
X16160357Y-13085929D01*
X16174643Y-13057357D01*
X16174643Y-13043071D01*
X16160357Y-13014500D01*
X16131786Y-13000214D01*
X16088928Y-13000214D01*
X16060357Y-12985929D01*
X16046071Y-12957357D01*
X16046071Y-12943071D01*
X16060357Y-12914500D01*
X16088928Y-12900214D01*
X16131786Y-12900214D01*
X16160357Y-12914500D01*
X16274643Y-13214500D02*
X16288928Y-13200214D01*
X16317500Y-13157357D01*
X16331786Y-13128786D01*
X16346071Y-13085929D01*
X16360357Y-13014500D01*
X16360357Y-12957357D01*
X16346071Y-12885929D01*
X16331786Y-12843071D01*
X16317500Y-12814500D01*
X16288928Y-12771643D01*
X16274643Y-12757357D01*
X9487500Y-13330500D02*
X9487500Y-13390500D01*
X9457500Y-13360500D02*
X9517500Y-13360500D01*
X9846071Y-13196214D02*
X9874643Y-13196214D01*
X9903214Y-13210500D01*
X9917500Y-13224786D01*
X9931786Y-13253357D01*
X9946071Y-13310500D01*
X9946071Y-13381929D01*
X9931786Y-13439071D01*
X9917500Y-13467643D01*
X9903214Y-13481929D01*
X9874643Y-13496214D01*
X9846071Y-13496214D01*
X9817500Y-13481929D01*
X9803214Y-13467643D01*
X9788929Y-13439071D01*
X9774643Y-13381929D01*
X9774643Y-13310500D01*
X9788929Y-13253357D01*
X9803214Y-13224786D01*
X9817500Y-13210500D01*
X9846071Y-13196214D01*
X10074643Y-13467643D02*
X10088929Y-13481929D01*
X10074643Y-13496214D01*
X10060357Y-13481929D01*
X10074643Y-13467643D01*
X10074643Y-13496214D01*
X10346071Y-13196214D02*
X10288928Y-13196214D01*
X10260357Y-13210500D01*
X10246071Y-13224786D01*
X10217500Y-13267643D01*
X10203214Y-13324786D01*
X10203214Y-13439071D01*
X10217500Y-13467643D01*
X10231786Y-13481929D01*
X10260357Y-13496214D01*
X10317500Y-13496214D01*
X10346071Y-13481929D01*
X10360357Y-13467643D01*
X10374643Y-13439071D01*
X10374643Y-13367643D01*
X10360357Y-13339071D01*
X10346071Y-13324786D01*
X10317500Y-13310500D01*
X10260357Y-13310500D01*
X10231786Y-13324786D01*
X10217500Y-13339071D01*
X10203214Y-13367643D01*
X10560357Y-13196214D02*
X10588929Y-13196214D01*
X10617500Y-13210500D01*
X10631786Y-13224786D01*
X10646071Y-13253357D01*
X10660357Y-13310500D01*
X10660357Y-13381929D01*
X10646071Y-13439071D01*
X10631786Y-13467643D01*
X10617500Y-13481929D01*
X10588929Y-13496214D01*
X10560357Y-13496214D01*
X10531786Y-13481929D01*
X10517500Y-13467643D01*
X10503214Y-13439071D01*
X10488929Y-13381929D01*
X10488929Y-13310500D01*
X10503214Y-13253357D01*
X10517500Y-13224786D01*
X10531786Y-13210500D01*
X10560357Y-13196214D01*
X10788929Y-13496214D02*
X10788929Y-13296214D01*
X10788929Y-13324786D02*
X10803214Y-13310500D01*
X10831786Y-13296214D01*
X10874643Y-13296214D01*
X10903214Y-13310500D01*
X10917500Y-13339071D01*
X10917500Y-13496214D01*
X10917500Y-13339071D02*
X10931786Y-13310500D01*
X10960357Y-13296214D01*
X11003214Y-13296214D01*
X11031786Y-13310500D01*
X11046071Y-13339071D01*
X11046071Y-13496214D01*
X11188928Y-13496214D02*
X11188928Y-13296214D01*
X11188928Y-13324786D02*
X11203214Y-13310500D01*
X11231786Y-13296214D01*
X11274643Y-13296214D01*
X11303214Y-13310500D01*
X11317500Y-13339071D01*
X11317500Y-13496214D01*
X11317500Y-13339071D02*
X11331786Y-13310500D01*
X11360357Y-13296214D01*
X11403214Y-13296214D01*
X11431786Y-13310500D01*
X11446071Y-13339071D01*
X11446071Y-13496214D01*
X12031786Y-13181929D02*
X11774643Y-13567643D01*
X12417500Y-13196214D02*
X12446071Y-13196214D01*
X12474643Y-13210500D01*
X12488928Y-13224786D01*
X12503214Y-13253357D01*
X12517500Y-13310500D01*
X12517500Y-13381929D01*
X12503214Y-13439071D01*
X12488928Y-13467643D01*
X12474643Y-13481929D01*
X12446071Y-13496214D01*
X12417500Y-13496214D01*
X12388928Y-13481929D01*
X12374643Y-13467643D01*
X12360357Y-13439071D01*
X12346071Y-13381929D01*
X12346071Y-13310500D01*
X12360357Y-13253357D01*
X12374643Y-13224786D01*
X12388928Y-13210500D01*
X12417500Y-13196214D01*
X12646071Y-13467643D02*
X12660357Y-13481929D01*
X12646071Y-13496214D01*
X12631786Y-13481929D01*
X12646071Y-13467643D01*
X12646071Y-13496214D01*
X12846071Y-13196214D02*
X12874643Y-13196214D01*
X12903214Y-13210500D01*
X12917500Y-13224786D01*
X12931785Y-13253357D01*
X12946071Y-13310500D01*
X12946071Y-13381929D01*
X12931785Y-13439071D01*
X12917500Y-13467643D01*
X12903214Y-13481929D01*
X12874643Y-13496214D01*
X12846071Y-13496214D01*
X12817500Y-13481929D01*
X12803214Y-13467643D01*
X12788928Y-13439071D01*
X12774643Y-13381929D01*
X12774643Y-13310500D01*
X12788928Y-13253357D01*
X12803214Y-13224786D01*
X12817500Y-13210500D01*
X12846071Y-13196214D01*
X13060357Y-13224786D02*
X13074643Y-13210500D01*
X13103214Y-13196214D01*
X13174643Y-13196214D01*
X13203214Y-13210500D01*
X13217500Y-13224786D01*
X13231785Y-13253357D01*
X13231785Y-13281929D01*
X13217500Y-13324786D01*
X13046071Y-13496214D01*
X13231785Y-13496214D01*
X13488928Y-13296214D02*
X13488928Y-13496214D01*
X13417500Y-13181929D02*
X13346071Y-13396214D01*
X13531785Y-13396214D01*
X13631786Y-13196214D02*
X13631786Y-13253357D01*
X13746071Y-13196214D02*
X13746071Y-13253357D01*
X14188928Y-13610500D02*
X14174643Y-13596214D01*
X14146071Y-13553357D01*
X14131785Y-13524786D01*
X14117500Y-13481929D01*
X14103214Y-13410500D01*
X14103214Y-13353357D01*
X14117500Y-13281929D01*
X14131785Y-13239071D01*
X14146071Y-13210500D01*
X14174643Y-13167643D01*
X14188928Y-13153357D01*
X14460357Y-13496214D02*
X14288928Y-13496214D01*
X14374643Y-13496214D02*
X14374643Y-13196214D01*
X14346071Y-13239071D01*
X14317500Y-13267643D01*
X14288928Y-13281929D01*
X14646071Y-13196214D02*
X14674643Y-13196214D01*
X14703214Y-13210500D01*
X14717500Y-13224786D01*
X14731785Y-13253357D01*
X14746071Y-13310500D01*
X14746071Y-13381929D01*
X14731785Y-13439071D01*
X14717500Y-13467643D01*
X14703214Y-13481929D01*
X14674643Y-13496214D01*
X14646071Y-13496214D01*
X14617500Y-13481929D01*
X14603214Y-13467643D01*
X14588928Y-13439071D01*
X14574643Y-13381929D01*
X14574643Y-13310500D01*
X14588928Y-13253357D01*
X14603214Y-13224786D01*
X14617500Y-13210500D01*
X14646071Y-13196214D01*
X15003214Y-13196214D02*
X14946071Y-13196214D01*
X14917500Y-13210500D01*
X14903214Y-13224786D01*
X14874643Y-13267643D01*
X14860357Y-13324786D01*
X14860357Y-13439071D01*
X14874643Y-13467643D01*
X14888928Y-13481929D01*
X14917500Y-13496214D01*
X14974643Y-13496214D01*
X15003214Y-13481929D01*
X15017500Y-13467643D01*
X15031785Y-13439071D01*
X15031785Y-13367643D01*
X15017500Y-13339071D01*
X15003214Y-13324786D01*
X14974643Y-13310500D01*
X14917500Y-13310500D01*
X14888928Y-13324786D01*
X14874643Y-13339071D01*
X14860357Y-13367643D01*
X15388928Y-13496214D02*
X15388928Y-13196214D01*
X15517500Y-13496214D02*
X15517500Y-13339071D01*
X15503214Y-13310500D01*
X15474643Y-13296214D01*
X15431785Y-13296214D01*
X15403214Y-13310500D01*
X15388928Y-13324786D01*
X15703214Y-13496214D02*
X15674643Y-13481929D01*
X15660357Y-13467643D01*
X15646071Y-13439071D01*
X15646071Y-13353357D01*
X15660357Y-13324786D01*
X15674643Y-13310500D01*
X15703214Y-13296214D01*
X15746071Y-13296214D01*
X15774643Y-13310500D01*
X15788928Y-13324786D01*
X15803214Y-13353357D01*
X15803214Y-13439071D01*
X15788928Y-13467643D01*
X15774643Y-13481929D01*
X15746071Y-13496214D01*
X15703214Y-13496214D01*
X15974643Y-13496214D02*
X15946071Y-13481929D01*
X15931786Y-13453357D01*
X15931786Y-13196214D01*
X16203214Y-13481929D02*
X16174643Y-13496214D01*
X16117500Y-13496214D01*
X16088928Y-13481929D01*
X16074643Y-13453357D01*
X16074643Y-13339071D01*
X16088928Y-13310500D01*
X16117500Y-13296214D01*
X16174643Y-13296214D01*
X16203214Y-13310500D01*
X16217500Y-13339071D01*
X16217500Y-13367643D01*
X16074643Y-13396214D01*
X16331786Y-13481929D02*
X16360357Y-13496214D01*
X16417500Y-13496214D01*
X16446071Y-13481929D01*
X16460357Y-13453357D01*
X16460357Y-13439071D01*
X16446071Y-13410500D01*
X16417500Y-13396214D01*
X16374643Y-13396214D01*
X16346071Y-13381929D01*
X16331786Y-13353357D01*
X16331786Y-13339071D01*
X16346071Y-13310500D01*
X16374643Y-13296214D01*
X16417500Y-13296214D01*
X16446071Y-13310500D01*
X16560357Y-13610500D02*
X16574643Y-13596214D01*
X16603214Y-13553357D01*
X16617500Y-13524786D01*
X16631786Y-13481929D01*
X16646071Y-13410500D01*
X16646071Y-13353357D01*
X16631786Y-13281929D01*
X16617500Y-13239071D01*
X16603214Y-13210500D01*
X16574643Y-13167643D01*
X16560357Y-13153357D01*
X9507981Y-13779481D02*
X9507981Y-13733519D01*
X9462019Y-13733519D01*
X9462019Y-13779481D01*
X9507981Y-13779481D01*
X9846071Y-13592214D02*
X9874643Y-13592214D01*
X9903214Y-13606500D01*
X9917500Y-13620786D01*
X9931786Y-13649357D01*
X9946071Y-13706500D01*
X9946071Y-13777929D01*
X9931786Y-13835071D01*
X9917500Y-13863643D01*
X9903214Y-13877929D01*
X9874643Y-13892214D01*
X9846071Y-13892214D01*
X9817500Y-13877929D01*
X9803214Y-13863643D01*
X9788929Y-13835071D01*
X9774643Y-13777929D01*
X9774643Y-13706500D01*
X9788929Y-13649357D01*
X9803214Y-13620786D01*
X9817500Y-13606500D01*
X9846071Y-13592214D01*
X10074643Y-13863643D02*
X10088929Y-13877929D01*
X10074643Y-13892214D01*
X10060357Y-13877929D01*
X10074643Y-13863643D01*
X10074643Y-13892214D01*
X10346071Y-13592214D02*
X10288928Y-13592214D01*
X10260357Y-13606500D01*
X10246071Y-13620786D01*
X10217500Y-13663643D01*
X10203214Y-13720786D01*
X10203214Y-13835071D01*
X10217500Y-13863643D01*
X10231786Y-13877929D01*
X10260357Y-13892214D01*
X10317500Y-13892214D01*
X10346071Y-13877929D01*
X10360357Y-13863643D01*
X10374643Y-13835071D01*
X10374643Y-13763643D01*
X10360357Y-13735071D01*
X10346071Y-13720786D01*
X10317500Y-13706500D01*
X10260357Y-13706500D01*
X10231786Y-13720786D01*
X10217500Y-13735071D01*
X10203214Y-13763643D01*
X10646071Y-13592214D02*
X10503214Y-13592214D01*
X10488929Y-13735071D01*
X10503214Y-13720786D01*
X10531786Y-13706500D01*
X10603214Y-13706500D01*
X10631786Y-13720786D01*
X10646071Y-13735071D01*
X10660357Y-13763643D01*
X10660357Y-13835071D01*
X10646071Y-13863643D01*
X10631786Y-13877929D01*
X10603214Y-13892214D01*
X10531786Y-13892214D01*
X10503214Y-13877929D01*
X10488929Y-13863643D01*
X10788929Y-13892214D02*
X10788929Y-13692214D01*
X10788929Y-13720786D02*
X10803214Y-13706500D01*
X10831786Y-13692214D01*
X10874643Y-13692214D01*
X10903214Y-13706500D01*
X10917500Y-13735071D01*
X10917500Y-13892214D01*
X10917500Y-13735071D02*
X10931786Y-13706500D01*
X10960357Y-13692214D01*
X11003214Y-13692214D01*
X11031786Y-13706500D01*
X11046071Y-13735071D01*
X11046071Y-13892214D01*
X11188928Y-13892214D02*
X11188928Y-13692214D01*
X11188928Y-13720786D02*
X11203214Y-13706500D01*
X11231786Y-13692214D01*
X11274643Y-13692214D01*
X11303214Y-13706500D01*
X11317500Y-13735071D01*
X11317500Y-13892214D01*
X11317500Y-13735071D02*
X11331786Y-13706500D01*
X11360357Y-13692214D01*
X11403214Y-13692214D01*
X11431786Y-13706500D01*
X11446071Y-13735071D01*
X11446071Y-13892214D01*
X12031786Y-13577929D02*
X11774643Y-13963643D01*
X12417500Y-13592214D02*
X12446071Y-13592214D01*
X12474643Y-13606500D01*
X12488928Y-13620786D01*
X12503214Y-13649357D01*
X12517500Y-13706500D01*
X12517500Y-13777929D01*
X12503214Y-13835071D01*
X12488928Y-13863643D01*
X12474643Y-13877929D01*
X12446071Y-13892214D01*
X12417500Y-13892214D01*
X12388928Y-13877929D01*
X12374643Y-13863643D01*
X12360357Y-13835071D01*
X12346071Y-13777929D01*
X12346071Y-13706500D01*
X12360357Y-13649357D01*
X12374643Y-13620786D01*
X12388928Y-13606500D01*
X12417500Y-13592214D01*
X12646071Y-13863643D02*
X12660357Y-13877929D01*
X12646071Y-13892214D01*
X12631786Y-13877929D01*
X12646071Y-13863643D01*
X12646071Y-13892214D01*
X12846071Y-13592214D02*
X12874643Y-13592214D01*
X12903214Y-13606500D01*
X12917500Y-13620786D01*
X12931785Y-13649357D01*
X12946071Y-13706500D01*
X12946071Y-13777929D01*
X12931785Y-13835071D01*
X12917500Y-13863643D01*
X12903214Y-13877929D01*
X12874643Y-13892214D01*
X12846071Y-13892214D01*
X12817500Y-13877929D01*
X12803214Y-13863643D01*
X12788928Y-13835071D01*
X12774643Y-13777929D01*
X12774643Y-13706500D01*
X12788928Y-13649357D01*
X12803214Y-13620786D01*
X12817500Y-13606500D01*
X12846071Y-13592214D01*
X13060357Y-13620786D02*
X13074643Y-13606500D01*
X13103214Y-13592214D01*
X13174643Y-13592214D01*
X13203214Y-13606500D01*
X13217500Y-13620786D01*
X13231785Y-13649357D01*
X13231785Y-13677929D01*
X13217500Y-13720786D01*
X13046071Y-13892214D01*
X13231785Y-13892214D01*
X13488928Y-13592214D02*
X13431785Y-13592214D01*
X13403214Y-13606500D01*
X13388928Y-13620786D01*
X13360357Y-13663643D01*
X13346071Y-13720786D01*
X13346071Y-13835071D01*
X13360357Y-13863643D01*
X13374643Y-13877929D01*
X13403214Y-13892214D01*
X13460357Y-13892214D01*
X13488928Y-13877929D01*
X13503214Y-13863643D01*
X13517500Y-13835071D01*
X13517500Y-13763643D01*
X13503214Y-13735071D01*
X13488928Y-13720786D01*
X13460357Y-13706500D01*
X13403214Y-13706500D01*
X13374643Y-13720786D01*
X13360357Y-13735071D01*
X13346071Y-13763643D01*
X13631786Y-13592214D02*
X13631786Y-13649357D01*
X13746071Y-13592214D02*
X13746071Y-13649357D01*
X14188928Y-14006500D02*
X14174643Y-13992214D01*
X14146071Y-13949357D01*
X14131785Y-13920786D01*
X14117500Y-13877929D01*
X14103214Y-13806500D01*
X14103214Y-13749357D01*
X14117500Y-13677929D01*
X14131785Y-13635071D01*
X14146071Y-13606500D01*
X14174643Y-13563643D01*
X14188928Y-13549357D01*
X14460357Y-13892214D02*
X14288928Y-13892214D01*
X14374643Y-13892214D02*
X14374643Y-13592214D01*
X14346071Y-13635071D01*
X14317500Y-13663643D01*
X14288928Y-13677929D01*
X14717500Y-13592214D02*
X14660357Y-13592214D01*
X14631785Y-13606500D01*
X14617500Y-13620786D01*
X14588928Y-13663643D01*
X14574643Y-13720786D01*
X14574643Y-13835071D01*
X14588928Y-13863643D01*
X14603214Y-13877929D01*
X14631785Y-13892214D01*
X14688928Y-13892214D01*
X14717500Y-13877929D01*
X14731785Y-13863643D01*
X14746071Y-13835071D01*
X14746071Y-13763643D01*
X14731785Y-13735071D01*
X14717500Y-13720786D01*
X14688928Y-13706500D01*
X14631785Y-13706500D01*
X14603214Y-13720786D01*
X14588928Y-13735071D01*
X14574643Y-13763643D01*
X15103214Y-13892214D02*
X15103214Y-13592214D01*
X15231785Y-13892214D02*
X15231785Y-13735071D01*
X15217500Y-13706500D01*
X15188928Y-13692214D01*
X15146071Y-13692214D01*
X15117500Y-13706500D01*
X15103214Y-13720786D01*
X15417500Y-13892214D02*
X15388928Y-13877929D01*
X15374643Y-13863643D01*
X15360357Y-13835071D01*
X15360357Y-13749357D01*
X15374643Y-13720786D01*
X15388928Y-13706500D01*
X15417500Y-13692214D01*
X15460357Y-13692214D01*
X15488928Y-13706500D01*
X15503214Y-13720786D01*
X15517500Y-13749357D01*
X15517500Y-13835071D01*
X15503214Y-13863643D01*
X15488928Y-13877929D01*
X15460357Y-13892214D01*
X15417500Y-13892214D01*
X15688928Y-13892214D02*
X15660357Y-13877929D01*
X15646071Y-13849357D01*
X15646071Y-13592214D01*
X15917500Y-13877929D02*
X15888928Y-13892214D01*
X15831786Y-13892214D01*
X15803214Y-13877929D01*
X15788928Y-13849357D01*
X15788928Y-13735071D01*
X15803214Y-13706500D01*
X15831786Y-13692214D01*
X15888928Y-13692214D01*
X15917500Y-13706500D01*
X15931786Y-13735071D01*
X15931786Y-13763643D01*
X15788928Y-13792214D01*
X16046071Y-13877929D02*
X16074643Y-13892214D01*
X16131786Y-13892214D01*
X16160357Y-13877929D01*
X16174643Y-13849357D01*
X16174643Y-13835071D01*
X16160357Y-13806500D01*
X16131786Y-13792214D01*
X16088928Y-13792214D01*
X16060357Y-13777929D01*
X16046071Y-13749357D01*
X16046071Y-13735071D01*
X16060357Y-13706500D01*
X16088928Y-13692214D01*
X16131786Y-13692214D01*
X16160357Y-13706500D01*
X16274643Y-14006500D02*
X16288928Y-13992214D01*
X16317500Y-13949357D01*
X16331786Y-13920786D01*
X16346071Y-13877929D01*
X16360357Y-13806500D01*
X16360357Y-13749357D01*
X16346071Y-13677929D01*
X16331786Y-13635071D01*
X16317500Y-13606500D01*
X16288928Y-13563643D01*
X16274643Y-13549357D01*
X9477500Y-14192500D02*
X9517500Y-14152500D01*
X9477500Y-14112500D01*
X9437500Y-14152500D01*
X9477500Y-14192500D01*
X9846071Y-13988214D02*
X9874643Y-13988214D01*
X9903214Y-14002500D01*
X9917500Y-14016786D01*
X9931786Y-14045357D01*
X9946071Y-14102500D01*
X9946071Y-14173929D01*
X9931786Y-14231071D01*
X9917500Y-14259643D01*
X9903214Y-14273929D01*
X9874643Y-14288214D01*
X9846071Y-14288214D01*
X9817500Y-14273929D01*
X9803214Y-14259643D01*
X9788929Y-14231071D01*
X9774643Y-14173929D01*
X9774643Y-14102500D01*
X9788929Y-14045357D01*
X9803214Y-14016786D01*
X9817500Y-14002500D01*
X9846071Y-13988214D01*
X10074643Y-14259643D02*
X10088929Y-14273929D01*
X10074643Y-14288214D01*
X10060357Y-14273929D01*
X10074643Y-14259643D01*
X10074643Y-14288214D01*
X10260357Y-14116786D02*
X10231786Y-14102500D01*
X10217500Y-14088214D01*
X10203214Y-14059643D01*
X10203214Y-14045357D01*
X10217500Y-14016786D01*
X10231786Y-14002500D01*
X10260357Y-13988214D01*
X10317500Y-13988214D01*
X10346071Y-14002500D01*
X10360357Y-14016786D01*
X10374643Y-14045357D01*
X10374643Y-14059643D01*
X10360357Y-14088214D01*
X10346071Y-14102500D01*
X10317500Y-14116786D01*
X10260357Y-14116786D01*
X10231786Y-14131071D01*
X10217500Y-14145357D01*
X10203214Y-14173929D01*
X10203214Y-14231071D01*
X10217500Y-14259643D01*
X10231786Y-14273929D01*
X10260357Y-14288214D01*
X10317500Y-14288214D01*
X10346071Y-14273929D01*
X10360357Y-14259643D01*
X10374643Y-14231071D01*
X10374643Y-14173929D01*
X10360357Y-14145357D01*
X10346071Y-14131071D01*
X10317500Y-14116786D01*
X10560357Y-13988214D02*
X10588929Y-13988214D01*
X10617500Y-14002500D01*
X10631786Y-14016786D01*
X10646071Y-14045357D01*
X10660357Y-14102500D01*
X10660357Y-14173929D01*
X10646071Y-14231071D01*
X10631786Y-14259643D01*
X10617500Y-14273929D01*
X10588929Y-14288214D01*
X10560357Y-14288214D01*
X10531786Y-14273929D01*
X10517500Y-14259643D01*
X10503214Y-14231071D01*
X10488929Y-14173929D01*
X10488929Y-14102500D01*
X10503214Y-14045357D01*
X10517500Y-14016786D01*
X10531786Y-14002500D01*
X10560357Y-13988214D01*
X10788929Y-14288214D02*
X10788929Y-14088214D01*
X10788929Y-14116786D02*
X10803214Y-14102500D01*
X10831786Y-14088214D01*
X10874643Y-14088214D01*
X10903214Y-14102500D01*
X10917500Y-14131071D01*
X10917500Y-14288214D01*
X10917500Y-14131071D02*
X10931786Y-14102500D01*
X10960357Y-14088214D01*
X11003214Y-14088214D01*
X11031786Y-14102500D01*
X11046071Y-14131071D01*
X11046071Y-14288214D01*
X11188928Y-14288214D02*
X11188928Y-14088214D01*
X11188928Y-14116786D02*
X11203214Y-14102500D01*
X11231786Y-14088214D01*
X11274643Y-14088214D01*
X11303214Y-14102500D01*
X11317500Y-14131071D01*
X11317500Y-14288214D01*
X11317500Y-14131071D02*
X11331786Y-14102500D01*
X11360357Y-14088214D01*
X11403214Y-14088214D01*
X11431786Y-14102500D01*
X11446071Y-14131071D01*
X11446071Y-14288214D01*
X12031786Y-13973929D02*
X11774643Y-14359643D01*
X12417500Y-13988214D02*
X12446071Y-13988214D01*
X12474643Y-14002500D01*
X12488928Y-14016786D01*
X12503214Y-14045357D01*
X12517500Y-14102500D01*
X12517500Y-14173929D01*
X12503214Y-14231071D01*
X12488928Y-14259643D01*
X12474643Y-14273929D01*
X12446071Y-14288214D01*
X12417500Y-14288214D01*
X12388928Y-14273929D01*
X12374643Y-14259643D01*
X12360357Y-14231071D01*
X12346071Y-14173929D01*
X12346071Y-14102500D01*
X12360357Y-14045357D01*
X12374643Y-14016786D01*
X12388928Y-14002500D01*
X12417500Y-13988214D01*
X12646071Y-14259643D02*
X12660357Y-14273929D01*
X12646071Y-14288214D01*
X12631786Y-14273929D01*
X12646071Y-14259643D01*
X12646071Y-14288214D01*
X12846071Y-13988214D02*
X12874643Y-13988214D01*
X12903214Y-14002500D01*
X12917500Y-14016786D01*
X12931785Y-14045357D01*
X12946071Y-14102500D01*
X12946071Y-14173929D01*
X12931785Y-14231071D01*
X12917500Y-14259643D01*
X12903214Y-14273929D01*
X12874643Y-14288214D01*
X12846071Y-14288214D01*
X12817500Y-14273929D01*
X12803214Y-14259643D01*
X12788928Y-14231071D01*
X12774643Y-14173929D01*
X12774643Y-14102500D01*
X12788928Y-14045357D01*
X12803214Y-14016786D01*
X12817500Y-14002500D01*
X12846071Y-13988214D01*
X13046071Y-13988214D02*
X13231785Y-13988214D01*
X13131785Y-14102500D01*
X13174643Y-14102500D01*
X13203214Y-14116786D01*
X13217500Y-14131071D01*
X13231785Y-14159643D01*
X13231785Y-14231071D01*
X13217500Y-14259643D01*
X13203214Y-14273929D01*
X13174643Y-14288214D01*
X13088928Y-14288214D01*
X13060357Y-14273929D01*
X13046071Y-14259643D01*
X13517500Y-14288214D02*
X13346071Y-14288214D01*
X13431785Y-14288214D02*
X13431785Y-13988214D01*
X13403214Y-14031071D01*
X13374643Y-14059643D01*
X13346071Y-14073929D01*
X13631786Y-13988214D02*
X13631786Y-14045357D01*
X13746071Y-13988214D02*
X13746071Y-14045357D01*
X14188928Y-14402500D02*
X14174643Y-14388214D01*
X14146071Y-14345357D01*
X14131785Y-14316786D01*
X14117500Y-14273929D01*
X14103214Y-14202500D01*
X14103214Y-14145357D01*
X14117500Y-14073929D01*
X14131785Y-14031071D01*
X14146071Y-14002500D01*
X14174643Y-13959643D01*
X14188928Y-13945357D01*
X14288928Y-14016786D02*
X14303214Y-14002500D01*
X14331785Y-13988214D01*
X14403214Y-13988214D01*
X14431785Y-14002500D01*
X14446071Y-14016786D01*
X14460357Y-14045357D01*
X14460357Y-14073929D01*
X14446071Y-14116786D01*
X14274643Y-14288214D01*
X14460357Y-14288214D01*
X14817500Y-14288214D02*
X14817500Y-13988214D01*
X14946071Y-14288214D02*
X14946071Y-14131071D01*
X14931785Y-14102500D01*
X14903214Y-14088214D01*
X14860357Y-14088214D01*
X14831785Y-14102500D01*
X14817500Y-14116786D01*
X15131785Y-14288214D02*
X15103214Y-14273929D01*
X15088928Y-14259643D01*
X15074643Y-14231071D01*
X15074643Y-14145357D01*
X15088928Y-14116786D01*
X15103214Y-14102500D01*
X15131785Y-14088214D01*
X15174643Y-14088214D01*
X15203214Y-14102500D01*
X15217500Y-14116786D01*
X15231785Y-14145357D01*
X15231785Y-14231071D01*
X15217500Y-14259643D01*
X15203214Y-14273929D01*
X15174643Y-14288214D01*
X15131785Y-14288214D01*
X15403214Y-14288214D02*
X15374643Y-14273929D01*
X15360357Y-14245357D01*
X15360357Y-13988214D01*
X15631786Y-14273929D02*
X15603214Y-14288214D01*
X15546071Y-14288214D01*
X15517500Y-14273929D01*
X15503214Y-14245357D01*
X15503214Y-14131071D01*
X15517500Y-14102500D01*
X15546071Y-14088214D01*
X15603214Y-14088214D01*
X15631786Y-14102500D01*
X15646071Y-14131071D01*
X15646071Y-14159643D01*
X15503214Y-14188214D01*
X15760357Y-14273929D02*
X15788928Y-14288214D01*
X15846071Y-14288214D01*
X15874643Y-14273929D01*
X15888928Y-14245357D01*
X15888928Y-14231071D01*
X15874643Y-14202500D01*
X15846071Y-14188214D01*
X15803214Y-14188214D01*
X15774643Y-14173929D01*
X15760357Y-14145357D01*
X15760357Y-14131071D01*
X15774643Y-14102500D01*
X15803214Y-14088214D01*
X15846071Y-14088214D01*
X15874643Y-14102500D01*
X15988928Y-14402500D02*
X16003214Y-14388214D01*
X16031786Y-14345357D01*
X16046071Y-14316786D01*
X16060357Y-14273929D01*
X16074643Y-14202500D01*
X16074643Y-14145357D01*
X16060357Y-14073929D01*
X16046071Y-14031071D01*
X16031786Y-14002500D01*
X16003214Y-13959643D01*
X15988928Y-13945357D01*
X9436220Y-14507860D02*
X9517500Y-14589140D01*
X9517500Y-14507860D02*
X9436220Y-14589140D01*
X9517500Y-14548500D02*
G75*
G03X9517500Y-14548500I-40640J0D01*
G01*
X9846071Y-14384214D02*
X9874643Y-14384214D01*
X9903214Y-14398500D01*
X9917500Y-14412786D01*
X9931786Y-14441357D01*
X9946071Y-14498500D01*
X9946071Y-14569929D01*
X9931786Y-14627071D01*
X9917500Y-14655643D01*
X9903214Y-14669929D01*
X9874643Y-14684214D01*
X9846071Y-14684214D01*
X9817500Y-14669929D01*
X9803214Y-14655643D01*
X9788929Y-14627071D01*
X9774643Y-14569929D01*
X9774643Y-14498500D01*
X9788929Y-14441357D01*
X9803214Y-14412786D01*
X9817500Y-14398500D01*
X9846071Y-14384214D01*
X10074643Y-14655643D02*
X10088929Y-14669929D01*
X10074643Y-14684214D01*
X10060357Y-14669929D01*
X10074643Y-14655643D01*
X10074643Y-14684214D01*
X10260357Y-14512786D02*
X10231786Y-14498500D01*
X10217500Y-14484214D01*
X10203214Y-14455643D01*
X10203214Y-14441357D01*
X10217500Y-14412786D01*
X10231786Y-14398500D01*
X10260357Y-14384214D01*
X10317500Y-14384214D01*
X10346071Y-14398500D01*
X10360357Y-14412786D01*
X10374643Y-14441357D01*
X10374643Y-14455643D01*
X10360357Y-14484214D01*
X10346071Y-14498500D01*
X10317500Y-14512786D01*
X10260357Y-14512786D01*
X10231786Y-14527071D01*
X10217500Y-14541357D01*
X10203214Y-14569929D01*
X10203214Y-14627071D01*
X10217500Y-14655643D01*
X10231786Y-14669929D01*
X10260357Y-14684214D01*
X10317500Y-14684214D01*
X10346071Y-14669929D01*
X10360357Y-14655643D01*
X10374643Y-14627071D01*
X10374643Y-14569929D01*
X10360357Y-14541357D01*
X10346071Y-14527071D01*
X10317500Y-14512786D01*
X10660357Y-14684214D02*
X10488929Y-14684214D01*
X10574643Y-14684214D02*
X10574643Y-14384214D01*
X10546071Y-14427071D01*
X10517500Y-14455643D01*
X10488929Y-14469929D01*
X10788929Y-14684214D02*
X10788929Y-14484214D01*
X10788929Y-14512786D02*
X10803214Y-14498500D01*
X10831786Y-14484214D01*
X10874643Y-14484214D01*
X10903214Y-14498500D01*
X10917500Y-14527071D01*
X10917500Y-14684214D01*
X10917500Y-14527071D02*
X10931786Y-14498500D01*
X10960357Y-14484214D01*
X11003214Y-14484214D01*
X11031786Y-14498500D01*
X11046071Y-14527071D01*
X11046071Y-14684214D01*
X11188928Y-14684214D02*
X11188928Y-14484214D01*
X11188928Y-14512786D02*
X11203214Y-14498500D01*
X11231786Y-14484214D01*
X11274643Y-14484214D01*
X11303214Y-14498500D01*
X11317500Y-14527071D01*
X11317500Y-14684214D01*
X11317500Y-14527071D02*
X11331786Y-14498500D01*
X11360357Y-14484214D01*
X11403214Y-14484214D01*
X11431786Y-14498500D01*
X11446071Y-14527071D01*
X11446071Y-14684214D01*
X12031786Y-14369929D02*
X11774643Y-14755643D01*
X12417500Y-14384214D02*
X12446071Y-14384214D01*
X12474643Y-14398500D01*
X12488928Y-14412786D01*
X12503214Y-14441357D01*
X12517500Y-14498500D01*
X12517500Y-14569929D01*
X12503214Y-14627071D01*
X12488928Y-14655643D01*
X12474643Y-14669929D01*
X12446071Y-14684214D01*
X12417500Y-14684214D01*
X12388928Y-14669929D01*
X12374643Y-14655643D01*
X12360357Y-14627071D01*
X12346071Y-14569929D01*
X12346071Y-14498500D01*
X12360357Y-14441357D01*
X12374643Y-14412786D01*
X12388928Y-14398500D01*
X12417500Y-14384214D01*
X12646071Y-14655643D02*
X12660357Y-14669929D01*
X12646071Y-14684214D01*
X12631786Y-14669929D01*
X12646071Y-14655643D01*
X12646071Y-14684214D01*
X12846071Y-14384214D02*
X12874643Y-14384214D01*
X12903214Y-14398500D01*
X12917500Y-14412786D01*
X12931785Y-14441357D01*
X12946071Y-14498500D01*
X12946071Y-14569929D01*
X12931785Y-14627071D01*
X12917500Y-14655643D01*
X12903214Y-14669929D01*
X12874643Y-14684214D01*
X12846071Y-14684214D01*
X12817500Y-14669929D01*
X12803214Y-14655643D01*
X12788928Y-14627071D01*
X12774643Y-14569929D01*
X12774643Y-14498500D01*
X12788928Y-14441357D01*
X12803214Y-14412786D01*
X12817500Y-14398500D01*
X12846071Y-14384214D01*
X13046071Y-14384214D02*
X13231785Y-14384214D01*
X13131785Y-14498500D01*
X13174643Y-14498500D01*
X13203214Y-14512786D01*
X13217500Y-14527071D01*
X13231785Y-14555643D01*
X13231785Y-14627071D01*
X13217500Y-14655643D01*
X13203214Y-14669929D01*
X13174643Y-14684214D01*
X13088928Y-14684214D01*
X13060357Y-14669929D01*
X13046071Y-14655643D01*
X13346071Y-14412786D02*
X13360357Y-14398500D01*
X13388928Y-14384214D01*
X13460357Y-14384214D01*
X13488928Y-14398500D01*
X13503214Y-14412786D01*
X13517500Y-14441357D01*
X13517500Y-14469929D01*
X13503214Y-14512786D01*
X13331785Y-14684214D01*
X13517500Y-14684214D01*
X13631786Y-14384214D02*
X13631786Y-14441357D01*
X13746071Y-14384214D02*
X13746071Y-14441357D01*
X14188928Y-14798500D02*
X14174643Y-14784214D01*
X14146071Y-14741357D01*
X14131785Y-14712786D01*
X14117500Y-14669929D01*
X14103214Y-14598500D01*
X14103214Y-14541357D01*
X14117500Y-14469929D01*
X14131785Y-14427071D01*
X14146071Y-14398500D01*
X14174643Y-14355643D01*
X14188928Y-14341357D01*
X14431785Y-14484214D02*
X14431785Y-14684214D01*
X14360357Y-14369929D02*
X14288928Y-14584214D01*
X14474643Y-14584214D01*
X14817500Y-14684214D02*
X14817500Y-14384214D01*
X14946071Y-14684214D02*
X14946071Y-14527071D01*
X14931785Y-14498500D01*
X14903214Y-14484214D01*
X14860357Y-14484214D01*
X14831785Y-14498500D01*
X14817500Y-14512786D01*
X15131785Y-14684214D02*
X15103214Y-14669929D01*
X15088928Y-14655643D01*
X15074643Y-14627071D01*
X15074643Y-14541357D01*
X15088928Y-14512786D01*
X15103214Y-14498500D01*
X15131785Y-14484214D01*
X15174643Y-14484214D01*
X15203214Y-14498500D01*
X15217500Y-14512786D01*
X15231785Y-14541357D01*
X15231785Y-14627071D01*
X15217500Y-14655643D01*
X15203214Y-14669929D01*
X15174643Y-14684214D01*
X15131785Y-14684214D01*
X15403214Y-14684214D02*
X15374643Y-14669929D01*
X15360357Y-14641357D01*
X15360357Y-14384214D01*
X15631786Y-14669929D02*
X15603214Y-14684214D01*
X15546071Y-14684214D01*
X15517500Y-14669929D01*
X15503214Y-14641357D01*
X15503214Y-14527071D01*
X15517500Y-14498500D01*
X15546071Y-14484214D01*
X15603214Y-14484214D01*
X15631786Y-14498500D01*
X15646071Y-14527071D01*
X15646071Y-14555643D01*
X15503214Y-14584214D01*
X15760357Y-14669929D02*
X15788928Y-14684214D01*
X15846071Y-14684214D01*
X15874643Y-14669929D01*
X15888928Y-14641357D01*
X15888928Y-14627071D01*
X15874643Y-14598500D01*
X15846071Y-14584214D01*
X15803214Y-14584214D01*
X15774643Y-14569929D01*
X15760357Y-14541357D01*
X15760357Y-14527071D01*
X15774643Y-14498500D01*
X15803214Y-14484214D01*
X15846071Y-14484214D01*
X15874643Y-14498500D01*
X15988928Y-14798500D02*
X16003214Y-14784214D01*
X16031786Y-14741357D01*
X16046071Y-14712786D01*
X16060357Y-14669929D01*
X16074643Y-14598500D01*
X16074643Y-14541357D01*
X16060357Y-14469929D01*
X16046071Y-14427071D01*
X16031786Y-14398500D01*
X16003214Y-14355643D01*
X15988928Y-14341357D01*
X9427500Y-14899500D02*
X9517500Y-14989500D01*
X9517500Y-14899500D02*
X9427500Y-14989500D01*
X9472500Y-14899500D02*
X9472500Y-14989500D01*
X9427500Y-14944500D02*
X9517500Y-14944500D01*
X9846071Y-14780214D02*
X9874643Y-14780214D01*
X9903214Y-14794500D01*
X9917500Y-14808786D01*
X9931786Y-14837357D01*
X9946071Y-14894500D01*
X9946071Y-14965929D01*
X9931786Y-15023071D01*
X9917500Y-15051643D01*
X9903214Y-15065929D01*
X9874643Y-15080214D01*
X9846071Y-15080214D01*
X9817500Y-15065929D01*
X9803214Y-15051643D01*
X9788929Y-15023071D01*
X9774643Y-14965929D01*
X9774643Y-14894500D01*
X9788929Y-14837357D01*
X9803214Y-14808786D01*
X9817500Y-14794500D01*
X9846071Y-14780214D01*
X10074643Y-15051643D02*
X10088929Y-15065929D01*
X10074643Y-15080214D01*
X10060357Y-15065929D01*
X10074643Y-15051643D01*
X10074643Y-15080214D01*
X10231786Y-15080214D02*
X10288928Y-15080214D01*
X10317500Y-15065929D01*
X10331786Y-15051643D01*
X10360357Y-15008786D01*
X10374643Y-14951643D01*
X10374643Y-14837357D01*
X10360357Y-14808786D01*
X10346071Y-14794500D01*
X10317500Y-14780214D01*
X10260357Y-14780214D01*
X10231786Y-14794500D01*
X10217500Y-14808786D01*
X10203214Y-14837357D01*
X10203214Y-14908786D01*
X10217500Y-14937357D01*
X10231786Y-14951643D01*
X10260357Y-14965929D01*
X10317500Y-14965929D01*
X10346071Y-14951643D01*
X10360357Y-14937357D01*
X10374643Y-14908786D01*
X10560357Y-14780214D02*
X10588929Y-14780214D01*
X10617500Y-14794500D01*
X10631786Y-14808786D01*
X10646071Y-14837357D01*
X10660357Y-14894500D01*
X10660357Y-14965929D01*
X10646071Y-15023071D01*
X10631786Y-15051643D01*
X10617500Y-15065929D01*
X10588929Y-15080214D01*
X10560357Y-15080214D01*
X10531786Y-15065929D01*
X10517500Y-15051643D01*
X10503214Y-15023071D01*
X10488929Y-14965929D01*
X10488929Y-14894500D01*
X10503214Y-14837357D01*
X10517500Y-14808786D01*
X10531786Y-14794500D01*
X10560357Y-14780214D01*
X10788929Y-15080214D02*
X10788929Y-14880214D01*
X10788929Y-14908786D02*
X10803214Y-14894500D01*
X10831786Y-14880214D01*
X10874643Y-14880214D01*
X10903214Y-14894500D01*
X10917500Y-14923071D01*
X10917500Y-15080214D01*
X10917500Y-14923071D02*
X10931786Y-14894500D01*
X10960357Y-14880214D01*
X11003214Y-14880214D01*
X11031786Y-14894500D01*
X11046071Y-14923071D01*
X11046071Y-15080214D01*
X11188928Y-15080214D02*
X11188928Y-14880214D01*
X11188928Y-14908786D02*
X11203214Y-14894500D01*
X11231786Y-14880214D01*
X11274643Y-14880214D01*
X11303214Y-14894500D01*
X11317500Y-14923071D01*
X11317500Y-15080214D01*
X11317500Y-14923071D02*
X11331786Y-14894500D01*
X11360357Y-14880214D01*
X11403214Y-14880214D01*
X11431786Y-14894500D01*
X11446071Y-14923071D01*
X11446071Y-15080214D01*
X12031786Y-14765929D02*
X11774643Y-15151643D01*
X12417500Y-14780214D02*
X12446071Y-14780214D01*
X12474643Y-14794500D01*
X12488928Y-14808786D01*
X12503214Y-14837357D01*
X12517500Y-14894500D01*
X12517500Y-14965929D01*
X12503214Y-15023071D01*
X12488928Y-15051643D01*
X12474643Y-15065929D01*
X12446071Y-15080214D01*
X12417500Y-15080214D01*
X12388928Y-15065929D01*
X12374643Y-15051643D01*
X12360357Y-15023071D01*
X12346071Y-14965929D01*
X12346071Y-14894500D01*
X12360357Y-14837357D01*
X12374643Y-14808786D01*
X12388928Y-14794500D01*
X12417500Y-14780214D01*
X12646071Y-15051643D02*
X12660357Y-15065929D01*
X12646071Y-15080214D01*
X12631786Y-15065929D01*
X12646071Y-15051643D01*
X12646071Y-15080214D01*
X12846071Y-14780214D02*
X12874643Y-14780214D01*
X12903214Y-14794500D01*
X12917500Y-14808786D01*
X12931785Y-14837357D01*
X12946071Y-14894500D01*
X12946071Y-14965929D01*
X12931785Y-15023071D01*
X12917500Y-15051643D01*
X12903214Y-15065929D01*
X12874643Y-15080214D01*
X12846071Y-15080214D01*
X12817500Y-15065929D01*
X12803214Y-15051643D01*
X12788928Y-15023071D01*
X12774643Y-14965929D01*
X12774643Y-14894500D01*
X12788928Y-14837357D01*
X12803214Y-14808786D01*
X12817500Y-14794500D01*
X12846071Y-14780214D01*
X13046071Y-14780214D02*
X13231785Y-14780214D01*
X13131785Y-14894500D01*
X13174643Y-14894500D01*
X13203214Y-14908786D01*
X13217500Y-14923071D01*
X13231785Y-14951643D01*
X13231785Y-15023071D01*
X13217500Y-15051643D01*
X13203214Y-15065929D01*
X13174643Y-15080214D01*
X13088928Y-15080214D01*
X13060357Y-15065929D01*
X13046071Y-15051643D01*
X13503214Y-14780214D02*
X13360357Y-14780214D01*
X13346071Y-14923071D01*
X13360357Y-14908786D01*
X13388928Y-14894500D01*
X13460357Y-14894500D01*
X13488928Y-14908786D01*
X13503214Y-14923071D01*
X13517500Y-14951643D01*
X13517500Y-15023071D01*
X13503214Y-15051643D01*
X13488928Y-15065929D01*
X13460357Y-15080214D01*
X13388928Y-15080214D01*
X13360357Y-15065929D01*
X13346071Y-15051643D01*
X13631786Y-14780214D02*
X13631786Y-14837357D01*
X13746071Y-14780214D02*
X13746071Y-14837357D01*
X14188928Y-15194500D02*
X14174643Y-15180214D01*
X14146071Y-15137357D01*
X14131785Y-15108786D01*
X14117500Y-15065929D01*
X14103214Y-14994500D01*
X14103214Y-14937357D01*
X14117500Y-14865929D01*
X14131785Y-14823071D01*
X14146071Y-14794500D01*
X14174643Y-14751643D01*
X14188928Y-14737357D01*
X14360357Y-14780214D02*
X14388928Y-14780214D01*
X14417500Y-14794500D01*
X14431785Y-14808786D01*
X14446071Y-14837357D01*
X14460357Y-14894500D01*
X14460357Y-14965929D01*
X14446071Y-15023071D01*
X14431785Y-15051643D01*
X14417500Y-15065929D01*
X14388928Y-15080214D01*
X14360357Y-15080214D01*
X14331785Y-15065929D01*
X14317500Y-15051643D01*
X14303214Y-15023071D01*
X14288928Y-14965929D01*
X14288928Y-14894500D01*
X14303214Y-14837357D01*
X14317500Y-14808786D01*
X14331785Y-14794500D01*
X14360357Y-14780214D01*
X14817500Y-15080214D02*
X14817500Y-14780214D01*
X14946071Y-15080214D02*
X14946071Y-14923071D01*
X14931785Y-14894500D01*
X14903214Y-14880214D01*
X14860357Y-14880214D01*
X14831785Y-14894500D01*
X14817500Y-14908786D01*
X15131785Y-15080214D02*
X15103214Y-15065929D01*
X15088928Y-15051643D01*
X15074643Y-15023071D01*
X15074643Y-14937357D01*
X15088928Y-14908786D01*
X15103214Y-14894500D01*
X15131785Y-14880214D01*
X15174643Y-14880214D01*
X15203214Y-14894500D01*
X15217500Y-14908786D01*
X15231785Y-14937357D01*
X15231785Y-15023071D01*
X15217500Y-15051643D01*
X15203214Y-15065929D01*
X15174643Y-15080214D01*
X15131785Y-15080214D01*
X15403214Y-15080214D02*
X15374643Y-15065929D01*
X15360357Y-15037357D01*
X15360357Y-14780214D01*
X15631786Y-15065929D02*
X15603214Y-15080214D01*
X15546071Y-15080214D01*
X15517500Y-15065929D01*
X15503214Y-15037357D01*
X15503214Y-14923071D01*
X15517500Y-14894500D01*
X15546071Y-14880214D01*
X15603214Y-14880214D01*
X15631786Y-14894500D01*
X15646071Y-14923071D01*
X15646071Y-14951643D01*
X15503214Y-14980214D01*
X15760357Y-15065929D02*
X15788928Y-15080214D01*
X15846071Y-15080214D01*
X15874643Y-15065929D01*
X15888928Y-15037357D01*
X15888928Y-15023071D01*
X15874643Y-14994500D01*
X15846071Y-14980214D01*
X15803214Y-14980214D01*
X15774643Y-14965929D01*
X15760357Y-14937357D01*
X15760357Y-14923071D01*
X15774643Y-14894500D01*
X15803214Y-14880214D01*
X15846071Y-14880214D01*
X15874643Y-14894500D01*
X16246071Y-14965929D02*
X16474643Y-14965929D01*
X16360357Y-15080214D02*
X16360357Y-14851643D01*
X17003214Y-15080214D02*
X16831786Y-15080214D01*
X16917500Y-15080214D02*
X16917500Y-14780214D01*
X16888928Y-14823071D01*
X16860357Y-14851643D01*
X16831786Y-14865929D01*
X17174643Y-14908786D02*
X17146071Y-14894500D01*
X17131786Y-14880214D01*
X17117500Y-14851643D01*
X17117500Y-14837357D01*
X17131786Y-14808786D01*
X17146071Y-14794500D01*
X17174643Y-14780214D01*
X17231786Y-14780214D01*
X17260357Y-14794500D01*
X17274643Y-14808786D01*
X17288928Y-14837357D01*
X17288928Y-14851643D01*
X17274643Y-14880214D01*
X17260357Y-14894500D01*
X17231786Y-14908786D01*
X17174643Y-14908786D01*
X17146071Y-14923071D01*
X17131786Y-14937357D01*
X17117500Y-14965929D01*
X17117500Y-15023071D01*
X17131786Y-15051643D01*
X17146071Y-15065929D01*
X17174643Y-15080214D01*
X17231786Y-15080214D01*
X17260357Y-15065929D01*
X17274643Y-15051643D01*
X17288928Y-15023071D01*
X17288928Y-14965929D01*
X17274643Y-14937357D01*
X17260357Y-14923071D01*
X17231786Y-14908786D01*
X17631786Y-15065929D02*
X17660357Y-15080214D01*
X17717500Y-15080214D01*
X17746071Y-15065929D01*
X17760357Y-15037357D01*
X17760357Y-15023071D01*
X17746071Y-14994500D01*
X17717500Y-14980214D01*
X17674643Y-14980214D01*
X17646071Y-14965929D01*
X17631786Y-14937357D01*
X17631786Y-14923071D01*
X17646071Y-14894500D01*
X17674643Y-14880214D01*
X17717500Y-14880214D01*
X17746071Y-14894500D01*
X17931786Y-15080214D02*
X17903214Y-15065929D01*
X17888928Y-15037357D01*
X17888928Y-14780214D01*
X18088928Y-15080214D02*
X18060357Y-15065929D01*
X18046071Y-15051643D01*
X18031786Y-15023071D01*
X18031786Y-14937357D01*
X18046071Y-14908786D01*
X18060357Y-14894500D01*
X18088928Y-14880214D01*
X18131786Y-14880214D01*
X18160357Y-14894500D01*
X18174643Y-14908786D01*
X18188928Y-14937357D01*
X18188928Y-15023071D01*
X18174643Y-15051643D01*
X18160357Y-15065929D01*
X18131786Y-15080214D01*
X18088928Y-15080214D01*
X18274643Y-14880214D02*
X18388928Y-14880214D01*
X18317500Y-14780214D02*
X18317500Y-15037357D01*
X18331786Y-15065929D01*
X18360357Y-15080214D01*
X18388928Y-15080214D01*
X18474643Y-15065929D02*
X18503214Y-15080214D01*
X18560357Y-15080214D01*
X18588929Y-15065929D01*
X18603214Y-15037357D01*
X18603214Y-15023071D01*
X18588929Y-14994500D01*
X18560357Y-14980214D01*
X18517500Y-14980214D01*
X18488929Y-14965929D01*
X18474643Y-14937357D01*
X18474643Y-14923071D01*
X18488929Y-14894500D01*
X18517500Y-14880214D01*
X18560357Y-14880214D01*
X18588929Y-14894500D01*
X18703214Y-15194500D02*
X18717500Y-15180214D01*
X18746071Y-15137357D01*
X18760357Y-15108786D01*
X18774643Y-15065929D01*
X18788928Y-14994500D01*
X18788928Y-14937357D01*
X18774643Y-14865929D01*
X18760357Y-14823071D01*
X18746071Y-14794500D01*
X18717500Y-14751643D01*
X18703214Y-14737357D01*
X9417424Y-15290462D02*
X9517500Y-15390538D01*
X9517500Y-15290462D02*
X9417424Y-15390538D01*
X9502844Y-15375883D02*
X9502844Y-15305118D01*
X9432079Y-15305118D01*
X9432079Y-15375883D01*
X9502844Y-15375883D01*
X9946071Y-15476214D02*
X9774643Y-15476214D01*
X9860357Y-15476214D02*
X9860357Y-15176214D01*
X9831786Y-15219071D01*
X9803214Y-15247643D01*
X9774643Y-15261929D01*
X10074643Y-15447643D02*
X10088929Y-15461929D01*
X10074643Y-15476214D01*
X10060357Y-15461929D01*
X10074643Y-15447643D01*
X10074643Y-15476214D01*
X10274643Y-15176214D02*
X10303214Y-15176214D01*
X10331786Y-15190500D01*
X10346071Y-15204786D01*
X10360357Y-15233357D01*
X10374643Y-15290500D01*
X10374643Y-15361929D01*
X10360357Y-15419071D01*
X10346071Y-15447643D01*
X10331786Y-15461929D01*
X10303214Y-15476214D01*
X10274643Y-15476214D01*
X10246071Y-15461929D01*
X10231786Y-15447643D01*
X10217500Y-15419071D01*
X10203214Y-15361929D01*
X10203214Y-15290500D01*
X10217500Y-15233357D01*
X10231786Y-15204786D01*
X10246071Y-15190500D01*
X10274643Y-15176214D01*
X10560357Y-15176214D02*
X10588929Y-15176214D01*
X10617500Y-15190500D01*
X10631786Y-15204786D01*
X10646071Y-15233357D01*
X10660357Y-15290500D01*
X10660357Y-15361929D01*
X10646071Y-15419071D01*
X10631786Y-15447643D01*
X10617500Y-15461929D01*
X10588929Y-15476214D01*
X10560357Y-15476214D01*
X10531786Y-15461929D01*
X10517500Y-15447643D01*
X10503214Y-15419071D01*
X10488929Y-15361929D01*
X10488929Y-15290500D01*
X10503214Y-15233357D01*
X10517500Y-15204786D01*
X10531786Y-15190500D01*
X10560357Y-15176214D01*
X10788929Y-15476214D02*
X10788929Y-15276214D01*
X10788929Y-15304786D02*
X10803214Y-15290500D01*
X10831786Y-15276214D01*
X10874643Y-15276214D01*
X10903214Y-15290500D01*
X10917500Y-15319071D01*
X10917500Y-15476214D01*
X10917500Y-15319071D02*
X10931786Y-15290500D01*
X10960357Y-15276214D01*
X11003214Y-15276214D01*
X11031786Y-15290500D01*
X11046071Y-15319071D01*
X11046071Y-15476214D01*
X11188928Y-15476214D02*
X11188928Y-15276214D01*
X11188928Y-15304786D02*
X11203214Y-15290500D01*
X11231786Y-15276214D01*
X11274643Y-15276214D01*
X11303214Y-15290500D01*
X11317500Y-15319071D01*
X11317500Y-15476214D01*
X11317500Y-15319071D02*
X11331786Y-15290500D01*
X11360357Y-15276214D01*
X11403214Y-15276214D01*
X11431786Y-15290500D01*
X11446071Y-15319071D01*
X11446071Y-15476214D01*
X12031786Y-15161929D02*
X11774643Y-15547643D01*
X12417500Y-15176214D02*
X12446071Y-15176214D01*
X12474643Y-15190500D01*
X12488928Y-15204786D01*
X12503214Y-15233357D01*
X12517500Y-15290500D01*
X12517500Y-15361929D01*
X12503214Y-15419071D01*
X12488928Y-15447643D01*
X12474643Y-15461929D01*
X12446071Y-15476214D01*
X12417500Y-15476214D01*
X12388928Y-15461929D01*
X12374643Y-15447643D01*
X12360357Y-15419071D01*
X12346071Y-15361929D01*
X12346071Y-15290500D01*
X12360357Y-15233357D01*
X12374643Y-15204786D01*
X12388928Y-15190500D01*
X12417500Y-15176214D01*
X12646071Y-15447643D02*
X12660357Y-15461929D01*
X12646071Y-15476214D01*
X12631786Y-15461929D01*
X12646071Y-15447643D01*
X12646071Y-15476214D01*
X12846071Y-15176214D02*
X12874643Y-15176214D01*
X12903214Y-15190500D01*
X12917500Y-15204786D01*
X12931785Y-15233357D01*
X12946071Y-15290500D01*
X12946071Y-15361929D01*
X12931785Y-15419071D01*
X12917500Y-15447643D01*
X12903214Y-15461929D01*
X12874643Y-15476214D01*
X12846071Y-15476214D01*
X12817500Y-15461929D01*
X12803214Y-15447643D01*
X12788928Y-15419071D01*
X12774643Y-15361929D01*
X12774643Y-15290500D01*
X12788928Y-15233357D01*
X12803214Y-15204786D01*
X12817500Y-15190500D01*
X12846071Y-15176214D01*
X13046071Y-15176214D02*
X13231785Y-15176214D01*
X13131785Y-15290500D01*
X13174643Y-15290500D01*
X13203214Y-15304786D01*
X13217500Y-15319071D01*
X13231785Y-15347643D01*
X13231785Y-15419071D01*
X13217500Y-15447643D01*
X13203214Y-15461929D01*
X13174643Y-15476214D01*
X13088928Y-15476214D01*
X13060357Y-15461929D01*
X13046071Y-15447643D01*
X13374643Y-15476214D02*
X13431785Y-15476214D01*
X13460357Y-15461929D01*
X13474643Y-15447643D01*
X13503214Y-15404786D01*
X13517500Y-15347643D01*
X13517500Y-15233357D01*
X13503214Y-15204786D01*
X13488928Y-15190500D01*
X13460357Y-15176214D01*
X13403214Y-15176214D01*
X13374643Y-15190500D01*
X13360357Y-15204786D01*
X13346071Y-15233357D01*
X13346071Y-15304786D01*
X13360357Y-15333357D01*
X13374643Y-15347643D01*
X13403214Y-15361929D01*
X13460357Y-15361929D01*
X13488928Y-15347643D01*
X13503214Y-15333357D01*
X13517500Y-15304786D01*
X13631786Y-15176214D02*
X13631786Y-15233357D01*
X13746071Y-15176214D02*
X13746071Y-15233357D01*
X14188928Y-15590500D02*
X14174643Y-15576214D01*
X14146071Y-15533357D01*
X14131785Y-15504786D01*
X14117500Y-15461929D01*
X14103214Y-15390500D01*
X14103214Y-15333357D01*
X14117500Y-15261929D01*
X14131785Y-15219071D01*
X14146071Y-15190500D01*
X14174643Y-15147643D01*
X14188928Y-15133357D01*
X14346071Y-15304786D02*
X14317500Y-15290500D01*
X14303214Y-15276214D01*
X14288928Y-15247643D01*
X14288928Y-15233357D01*
X14303214Y-15204786D01*
X14317500Y-15190500D01*
X14346071Y-15176214D01*
X14403214Y-15176214D01*
X14431785Y-15190500D01*
X14446071Y-15204786D01*
X14460357Y-15233357D01*
X14460357Y-15247643D01*
X14446071Y-15276214D01*
X14431785Y-15290500D01*
X14403214Y-15304786D01*
X14346071Y-15304786D01*
X14317500Y-15319071D01*
X14303214Y-15333357D01*
X14288928Y-15361929D01*
X14288928Y-15419071D01*
X14303214Y-15447643D01*
X14317500Y-15461929D01*
X14346071Y-15476214D01*
X14403214Y-15476214D01*
X14431785Y-15461929D01*
X14446071Y-15447643D01*
X14460357Y-15419071D01*
X14460357Y-15361929D01*
X14446071Y-15333357D01*
X14431785Y-15319071D01*
X14403214Y-15304786D01*
X14817500Y-15476214D02*
X14817500Y-15176214D01*
X14946071Y-15476214D02*
X14946071Y-15319071D01*
X14931785Y-15290500D01*
X14903214Y-15276214D01*
X14860357Y-15276214D01*
X14831785Y-15290500D01*
X14817500Y-15304786D01*
X15131785Y-15476214D02*
X15103214Y-15461929D01*
X15088928Y-15447643D01*
X15074643Y-15419071D01*
X15074643Y-15333357D01*
X15088928Y-15304786D01*
X15103214Y-15290500D01*
X15131785Y-15276214D01*
X15174643Y-15276214D01*
X15203214Y-15290500D01*
X15217500Y-15304786D01*
X15231785Y-15333357D01*
X15231785Y-15419071D01*
X15217500Y-15447643D01*
X15203214Y-15461929D01*
X15174643Y-15476214D01*
X15131785Y-15476214D01*
X15403214Y-15476214D02*
X15374643Y-15461929D01*
X15360357Y-15433357D01*
X15360357Y-15176214D01*
X15631786Y-15461929D02*
X15603214Y-15476214D01*
X15546071Y-15476214D01*
X15517500Y-15461929D01*
X15503214Y-15433357D01*
X15503214Y-15319071D01*
X15517500Y-15290500D01*
X15546071Y-15276214D01*
X15603214Y-15276214D01*
X15631786Y-15290500D01*
X15646071Y-15319071D01*
X15646071Y-15347643D01*
X15503214Y-15376214D01*
X15760357Y-15461929D02*
X15788928Y-15476214D01*
X15846071Y-15476214D01*
X15874643Y-15461929D01*
X15888928Y-15433357D01*
X15888928Y-15419071D01*
X15874643Y-15390500D01*
X15846071Y-15376214D01*
X15803214Y-15376214D01*
X15774643Y-15361929D01*
X15760357Y-15333357D01*
X15760357Y-15319071D01*
X15774643Y-15290500D01*
X15803214Y-15276214D01*
X15846071Y-15276214D01*
X15874643Y-15290500D01*
X15988928Y-15590500D02*
X16003214Y-15576214D01*
X16031786Y-15533357D01*
X16046071Y-15504786D01*
X16060357Y-15461929D01*
X16074643Y-15390500D01*
X16074643Y-15333357D01*
X16060357Y-15261929D01*
X16046071Y-15219071D01*
X16031786Y-15190500D01*
X16003214Y-15147643D01*
X15988928Y-15133357D01*
X9415900Y-15685700D02*
X9517500Y-15787300D01*
X9517500Y-15685700D02*
X9415900Y-15787300D01*
X9466700Y-15787300D02*
X9517500Y-15736500D01*
X9466700Y-15685700D01*
X9415900Y-15736500D01*
X9466700Y-15787300D01*
X9946071Y-15872214D02*
X9774643Y-15872214D01*
X9860357Y-15872214D02*
X9860357Y-15572214D01*
X9831786Y-15615071D01*
X9803214Y-15643643D01*
X9774643Y-15657929D01*
X10074643Y-15843643D02*
X10088929Y-15857929D01*
X10074643Y-15872214D01*
X10060357Y-15857929D01*
X10074643Y-15843643D01*
X10074643Y-15872214D01*
X10274643Y-15572214D02*
X10303214Y-15572214D01*
X10331786Y-15586500D01*
X10346071Y-15600786D01*
X10360357Y-15629357D01*
X10374643Y-15686500D01*
X10374643Y-15757929D01*
X10360357Y-15815071D01*
X10346071Y-15843643D01*
X10331786Y-15857929D01*
X10303214Y-15872214D01*
X10274643Y-15872214D01*
X10246071Y-15857929D01*
X10231786Y-15843643D01*
X10217500Y-15815071D01*
X10203214Y-15757929D01*
X10203214Y-15686500D01*
X10217500Y-15629357D01*
X10231786Y-15600786D01*
X10246071Y-15586500D01*
X10274643Y-15572214D01*
X10488929Y-15600786D02*
X10503214Y-15586500D01*
X10531786Y-15572214D01*
X10603214Y-15572214D01*
X10631786Y-15586500D01*
X10646071Y-15600786D01*
X10660357Y-15629357D01*
X10660357Y-15657929D01*
X10646071Y-15700786D01*
X10474643Y-15872214D01*
X10660357Y-15872214D01*
X10788929Y-15872214D02*
X10788929Y-15672214D01*
X10788929Y-15700786D02*
X10803214Y-15686500D01*
X10831786Y-15672214D01*
X10874643Y-15672214D01*
X10903214Y-15686500D01*
X10917500Y-15715071D01*
X10917500Y-15872214D01*
X10917500Y-15715071D02*
X10931786Y-15686500D01*
X10960357Y-15672214D01*
X11003214Y-15672214D01*
X11031786Y-15686500D01*
X11046071Y-15715071D01*
X11046071Y-15872214D01*
X11188928Y-15872214D02*
X11188928Y-15672214D01*
X11188928Y-15700786D02*
X11203214Y-15686500D01*
X11231786Y-15672214D01*
X11274643Y-15672214D01*
X11303214Y-15686500D01*
X11317500Y-15715071D01*
X11317500Y-15872214D01*
X11317500Y-15715071D02*
X11331786Y-15686500D01*
X11360357Y-15672214D01*
X11403214Y-15672214D01*
X11431786Y-15686500D01*
X11446071Y-15715071D01*
X11446071Y-15872214D01*
X12031786Y-15557929D02*
X11774643Y-15943643D01*
X12417500Y-15572214D02*
X12446071Y-15572214D01*
X12474643Y-15586500D01*
X12488928Y-15600786D01*
X12503214Y-15629357D01*
X12517500Y-15686500D01*
X12517500Y-15757929D01*
X12503214Y-15815071D01*
X12488928Y-15843643D01*
X12474643Y-15857929D01*
X12446071Y-15872214D01*
X12417500Y-15872214D01*
X12388928Y-15857929D01*
X12374643Y-15843643D01*
X12360357Y-15815071D01*
X12346071Y-15757929D01*
X12346071Y-15686500D01*
X12360357Y-15629357D01*
X12374643Y-15600786D01*
X12388928Y-15586500D01*
X12417500Y-15572214D01*
X12646071Y-15843643D02*
X12660357Y-15857929D01*
X12646071Y-15872214D01*
X12631786Y-15857929D01*
X12646071Y-15843643D01*
X12646071Y-15872214D01*
X12846071Y-15572214D02*
X12874643Y-15572214D01*
X12903214Y-15586500D01*
X12917500Y-15600786D01*
X12931785Y-15629357D01*
X12946071Y-15686500D01*
X12946071Y-15757929D01*
X12931785Y-15815071D01*
X12917500Y-15843643D01*
X12903214Y-15857929D01*
X12874643Y-15872214D01*
X12846071Y-15872214D01*
X12817500Y-15857929D01*
X12803214Y-15843643D01*
X12788928Y-15815071D01*
X12774643Y-15757929D01*
X12774643Y-15686500D01*
X12788928Y-15629357D01*
X12803214Y-15600786D01*
X12817500Y-15586500D01*
X12846071Y-15572214D01*
X13203214Y-15672214D02*
X13203214Y-15872214D01*
X13131785Y-15557929D02*
X13060357Y-15772214D01*
X13246071Y-15772214D01*
X13417500Y-15572214D02*
X13446071Y-15572214D01*
X13474643Y-15586500D01*
X13488928Y-15600786D01*
X13503214Y-15629357D01*
X13517500Y-15686500D01*
X13517500Y-15757929D01*
X13503214Y-15815071D01*
X13488928Y-15843643D01*
X13474643Y-15857929D01*
X13446071Y-15872214D01*
X13417500Y-15872214D01*
X13388928Y-15857929D01*
X13374643Y-15843643D01*
X13360357Y-15815071D01*
X13346071Y-15757929D01*
X13346071Y-15686500D01*
X13360357Y-15629357D01*
X13374643Y-15600786D01*
X13388928Y-15586500D01*
X13417500Y-15572214D01*
X13631786Y-15572214D02*
X13631786Y-15629357D01*
X13746071Y-15572214D02*
X13746071Y-15629357D01*
X14188928Y-15986500D02*
X14174643Y-15972214D01*
X14146071Y-15929357D01*
X14131785Y-15900786D01*
X14117500Y-15857929D01*
X14103214Y-15786500D01*
X14103214Y-15729357D01*
X14117500Y-15657929D01*
X14131785Y-15615071D01*
X14146071Y-15586500D01*
X14174643Y-15543643D01*
X14188928Y-15529357D01*
X14460357Y-15872214D02*
X14288928Y-15872214D01*
X14374643Y-15872214D02*
X14374643Y-15572214D01*
X14346071Y-15615071D01*
X14317500Y-15643643D01*
X14288928Y-15657929D01*
X14717500Y-15572214D02*
X14660357Y-15572214D01*
X14631785Y-15586500D01*
X14617500Y-15600786D01*
X14588928Y-15643643D01*
X14574643Y-15700786D01*
X14574643Y-15815071D01*
X14588928Y-15843643D01*
X14603214Y-15857929D01*
X14631785Y-15872214D01*
X14688928Y-15872214D01*
X14717500Y-15857929D01*
X14731785Y-15843643D01*
X14746071Y-15815071D01*
X14746071Y-15743643D01*
X14731785Y-15715071D01*
X14717500Y-15700786D01*
X14688928Y-15686500D01*
X14631785Y-15686500D01*
X14603214Y-15700786D01*
X14588928Y-15715071D01*
X14574643Y-15743643D01*
X15103214Y-15872214D02*
X15103214Y-15572214D01*
X15231785Y-15872214D02*
X15231785Y-15715071D01*
X15217500Y-15686500D01*
X15188928Y-15672214D01*
X15146071Y-15672214D01*
X15117500Y-15686500D01*
X15103214Y-15700786D01*
X15417500Y-15872214D02*
X15388928Y-15857929D01*
X15374643Y-15843643D01*
X15360357Y-15815071D01*
X15360357Y-15729357D01*
X15374643Y-15700786D01*
X15388928Y-15686500D01*
X15417500Y-15672214D01*
X15460357Y-15672214D01*
X15488928Y-15686500D01*
X15503214Y-15700786D01*
X15517500Y-15729357D01*
X15517500Y-15815071D01*
X15503214Y-15843643D01*
X15488928Y-15857929D01*
X15460357Y-15872214D01*
X15417500Y-15872214D01*
X15688928Y-15872214D02*
X15660357Y-15857929D01*
X15646071Y-15829357D01*
X15646071Y-15572214D01*
X15917500Y-15857929D02*
X15888928Y-15872214D01*
X15831786Y-15872214D01*
X15803214Y-15857929D01*
X15788928Y-15829357D01*
X15788928Y-15715071D01*
X15803214Y-15686500D01*
X15831786Y-15672214D01*
X15888928Y-15672214D01*
X15917500Y-15686500D01*
X15931786Y-15715071D01*
X15931786Y-15743643D01*
X15788928Y-15772214D01*
X16046071Y-15857929D02*
X16074643Y-15872214D01*
X16131786Y-15872214D01*
X16160357Y-15857929D01*
X16174643Y-15829357D01*
X16174643Y-15815071D01*
X16160357Y-15786500D01*
X16131786Y-15772214D01*
X16088928Y-15772214D01*
X16060357Y-15757929D01*
X16046071Y-15729357D01*
X16046071Y-15715071D01*
X16060357Y-15686500D01*
X16088928Y-15672214D01*
X16131786Y-15672214D01*
X16160357Y-15686500D01*
X16531786Y-15757929D02*
X16760357Y-15757929D01*
X16646071Y-15872214D02*
X16646071Y-15643643D01*
X17103214Y-15572214D02*
X17288928Y-15572214D01*
X17188928Y-15686500D01*
X17231786Y-15686500D01*
X17260357Y-15700786D01*
X17274643Y-15715071D01*
X17288928Y-15743643D01*
X17288928Y-15815071D01*
X17274643Y-15843643D01*
X17260357Y-15857929D01*
X17231786Y-15872214D01*
X17146071Y-15872214D01*
X17117500Y-15857929D01*
X17103214Y-15843643D01*
X17631786Y-15857929D02*
X17660357Y-15872214D01*
X17717500Y-15872214D01*
X17746071Y-15857929D01*
X17760357Y-15829357D01*
X17760357Y-15815071D01*
X17746071Y-15786500D01*
X17717500Y-15772214D01*
X17674643Y-15772214D01*
X17646071Y-15757929D01*
X17631786Y-15729357D01*
X17631786Y-15715071D01*
X17646071Y-15686500D01*
X17674643Y-15672214D01*
X17717500Y-15672214D01*
X17746071Y-15686500D01*
X17931786Y-15872214D02*
X17903214Y-15857929D01*
X17888928Y-15829357D01*
X17888928Y-15572214D01*
X18088928Y-15872214D02*
X18060357Y-15857929D01*
X18046071Y-15843643D01*
X18031786Y-15815071D01*
X18031786Y-15729357D01*
X18046071Y-15700786D01*
X18060357Y-15686500D01*
X18088928Y-15672214D01*
X18131786Y-15672214D01*
X18160357Y-15686500D01*
X18174643Y-15700786D01*
X18188928Y-15729357D01*
X18188928Y-15815071D01*
X18174643Y-15843643D01*
X18160357Y-15857929D01*
X18131786Y-15872214D01*
X18088928Y-15872214D01*
X18274643Y-15672214D02*
X18388928Y-15672214D01*
X18317500Y-15572214D02*
X18317500Y-15829357D01*
X18331786Y-15857929D01*
X18360357Y-15872214D01*
X18388928Y-15872214D01*
X18474643Y-15857929D02*
X18503214Y-15872214D01*
X18560357Y-15872214D01*
X18588929Y-15857929D01*
X18603214Y-15829357D01*
X18603214Y-15815071D01*
X18588929Y-15786500D01*
X18560357Y-15772214D01*
X18517500Y-15772214D01*
X18488929Y-15757929D01*
X18474643Y-15729357D01*
X18474643Y-15715071D01*
X18488929Y-15686500D01*
X18517500Y-15672214D01*
X18560357Y-15672214D01*
X18588929Y-15686500D01*
X18703214Y-15986500D02*
X18717500Y-15972214D01*
X18746071Y-15929357D01*
X18760357Y-15900786D01*
X18774643Y-15857929D01*
X18788928Y-15786500D01*
X18788928Y-15729357D01*
X18774643Y-15657929D01*
X18760357Y-15615071D01*
X18746071Y-15586500D01*
X18717500Y-15543643D01*
X18703214Y-15529357D01*
X9462500Y-16077500D02*
X9462500Y-16187500D01*
X9407500Y-16132500D02*
X9517500Y-16132500D01*
X9517500Y-16132500D02*
G75*
G03X9517500Y-16132500I-55000J0D01*
G01*
X9946071Y-16268214D02*
X9774643Y-16268214D01*
X9860357Y-16268214D02*
X9860357Y-15968214D01*
X9831786Y-16011071D01*
X9803214Y-16039643D01*
X9774643Y-16053929D01*
X10074643Y-16239643D02*
X10088929Y-16253929D01*
X10074643Y-16268214D01*
X10060357Y-16253929D01*
X10074643Y-16239643D01*
X10074643Y-16268214D01*
X10374643Y-16268214D02*
X10203214Y-16268214D01*
X10288928Y-16268214D02*
X10288928Y-15968214D01*
X10260357Y-16011071D01*
X10231786Y-16039643D01*
X10203214Y-16053929D01*
X10560357Y-15968214D02*
X10588929Y-15968214D01*
X10617500Y-15982500D01*
X10631786Y-15996786D01*
X10646071Y-16025357D01*
X10660357Y-16082500D01*
X10660357Y-16153929D01*
X10646071Y-16211071D01*
X10631786Y-16239643D01*
X10617500Y-16253929D01*
X10588929Y-16268214D01*
X10560357Y-16268214D01*
X10531786Y-16253929D01*
X10517500Y-16239643D01*
X10503214Y-16211071D01*
X10488929Y-16153929D01*
X10488929Y-16082500D01*
X10503214Y-16025357D01*
X10517500Y-15996786D01*
X10531786Y-15982500D01*
X10560357Y-15968214D01*
X10788929Y-16268214D02*
X10788929Y-16068214D01*
X10788929Y-16096786D02*
X10803214Y-16082500D01*
X10831786Y-16068214D01*
X10874643Y-16068214D01*
X10903214Y-16082500D01*
X10917500Y-16111071D01*
X10917500Y-16268214D01*
X10917500Y-16111071D02*
X10931786Y-16082500D01*
X10960357Y-16068214D01*
X11003214Y-16068214D01*
X11031786Y-16082500D01*
X11046071Y-16111071D01*
X11046071Y-16268214D01*
X11188928Y-16268214D02*
X11188928Y-16068214D01*
X11188928Y-16096786D02*
X11203214Y-16082500D01*
X11231786Y-16068214D01*
X11274643Y-16068214D01*
X11303214Y-16082500D01*
X11317500Y-16111071D01*
X11317500Y-16268214D01*
X11317500Y-16111071D02*
X11331786Y-16082500D01*
X11360357Y-16068214D01*
X11403214Y-16068214D01*
X11431786Y-16082500D01*
X11446071Y-16111071D01*
X11446071Y-16268214D01*
X12031786Y-15953929D02*
X11774643Y-16339643D01*
X12417500Y-15968214D02*
X12446071Y-15968214D01*
X12474643Y-15982500D01*
X12488928Y-15996786D01*
X12503214Y-16025357D01*
X12517500Y-16082500D01*
X12517500Y-16153929D01*
X12503214Y-16211071D01*
X12488928Y-16239643D01*
X12474643Y-16253929D01*
X12446071Y-16268214D01*
X12417500Y-16268214D01*
X12388928Y-16253929D01*
X12374643Y-16239643D01*
X12360357Y-16211071D01*
X12346071Y-16153929D01*
X12346071Y-16082500D01*
X12360357Y-16025357D01*
X12374643Y-15996786D01*
X12388928Y-15982500D01*
X12417500Y-15968214D01*
X12646071Y-16239643D02*
X12660357Y-16253929D01*
X12646071Y-16268214D01*
X12631786Y-16253929D01*
X12646071Y-16239643D01*
X12646071Y-16268214D01*
X12846071Y-15968214D02*
X12874643Y-15968214D01*
X12903214Y-15982500D01*
X12917500Y-15996786D01*
X12931785Y-16025357D01*
X12946071Y-16082500D01*
X12946071Y-16153929D01*
X12931785Y-16211071D01*
X12917500Y-16239643D01*
X12903214Y-16253929D01*
X12874643Y-16268214D01*
X12846071Y-16268214D01*
X12817500Y-16253929D01*
X12803214Y-16239643D01*
X12788928Y-16211071D01*
X12774643Y-16153929D01*
X12774643Y-16082500D01*
X12788928Y-16025357D01*
X12803214Y-15996786D01*
X12817500Y-15982500D01*
X12846071Y-15968214D01*
X13203214Y-16068214D02*
X13203214Y-16268214D01*
X13131785Y-15953929D02*
X13060357Y-16168214D01*
X13246071Y-16168214D01*
X13331785Y-15968214D02*
X13517500Y-15968214D01*
X13417500Y-16082500D01*
X13460357Y-16082500D01*
X13488928Y-16096786D01*
X13503214Y-16111071D01*
X13517500Y-16139643D01*
X13517500Y-16211071D01*
X13503214Y-16239643D01*
X13488928Y-16253929D01*
X13460357Y-16268214D01*
X13374643Y-16268214D01*
X13346071Y-16253929D01*
X13331785Y-16239643D01*
X13631786Y-15968214D02*
X13631786Y-16025357D01*
X13746071Y-15968214D02*
X13746071Y-16025357D01*
X14188928Y-16382500D02*
X14174643Y-16368214D01*
X14146071Y-16325357D01*
X14131785Y-16296786D01*
X14117500Y-16253929D01*
X14103214Y-16182500D01*
X14103214Y-16125357D01*
X14117500Y-16053929D01*
X14131785Y-16011071D01*
X14146071Y-15982500D01*
X14174643Y-15939643D01*
X14188928Y-15925357D01*
X14360357Y-15968214D02*
X14388928Y-15968214D01*
X14417500Y-15982500D01*
X14431785Y-15996786D01*
X14446071Y-16025357D01*
X14460357Y-16082500D01*
X14460357Y-16153929D01*
X14446071Y-16211071D01*
X14431785Y-16239643D01*
X14417500Y-16253929D01*
X14388928Y-16268214D01*
X14360357Y-16268214D01*
X14331785Y-16253929D01*
X14317500Y-16239643D01*
X14303214Y-16211071D01*
X14288928Y-16153929D01*
X14288928Y-16082500D01*
X14303214Y-16025357D01*
X14317500Y-15996786D01*
X14331785Y-15982500D01*
X14360357Y-15968214D01*
X14817500Y-16268214D02*
X14817500Y-15968214D01*
X14946071Y-16268214D02*
X14946071Y-16111071D01*
X14931785Y-16082500D01*
X14903214Y-16068214D01*
X14860357Y-16068214D01*
X14831785Y-16082500D01*
X14817500Y-16096786D01*
X15131785Y-16268214D02*
X15103214Y-16253929D01*
X15088928Y-16239643D01*
X15074643Y-16211071D01*
X15074643Y-16125357D01*
X15088928Y-16096786D01*
X15103214Y-16082500D01*
X15131785Y-16068214D01*
X15174643Y-16068214D01*
X15203214Y-16082500D01*
X15217500Y-16096786D01*
X15231785Y-16125357D01*
X15231785Y-16211071D01*
X15217500Y-16239643D01*
X15203214Y-16253929D01*
X15174643Y-16268214D01*
X15131785Y-16268214D01*
X15403214Y-16268214D02*
X15374643Y-16253929D01*
X15360357Y-16225357D01*
X15360357Y-15968214D01*
X15631786Y-16253929D02*
X15603214Y-16268214D01*
X15546071Y-16268214D01*
X15517500Y-16253929D01*
X15503214Y-16225357D01*
X15503214Y-16111071D01*
X15517500Y-16082500D01*
X15546071Y-16068214D01*
X15603214Y-16068214D01*
X15631786Y-16082500D01*
X15646071Y-16111071D01*
X15646071Y-16139643D01*
X15503214Y-16168214D01*
X15760357Y-16253929D02*
X15788928Y-16268214D01*
X15846071Y-16268214D01*
X15874643Y-16253929D01*
X15888928Y-16225357D01*
X15888928Y-16211071D01*
X15874643Y-16182500D01*
X15846071Y-16168214D01*
X15803214Y-16168214D01*
X15774643Y-16153929D01*
X15760357Y-16125357D01*
X15760357Y-16111071D01*
X15774643Y-16082500D01*
X15803214Y-16068214D01*
X15846071Y-16068214D01*
X15874643Y-16082500D01*
X16246071Y-16153929D02*
X16474643Y-16153929D01*
X16360357Y-16268214D02*
X16360357Y-16039643D01*
X16974643Y-15968214D02*
X16917500Y-15968214D01*
X16888928Y-15982500D01*
X16874643Y-15996786D01*
X16846071Y-16039643D01*
X16831786Y-16096786D01*
X16831786Y-16211071D01*
X16846071Y-16239643D01*
X16860357Y-16253929D01*
X16888928Y-16268214D01*
X16946071Y-16268214D01*
X16974643Y-16253929D01*
X16988928Y-16239643D01*
X17003214Y-16211071D01*
X17003214Y-16139643D01*
X16988928Y-16111071D01*
X16974643Y-16096786D01*
X16946071Y-16082500D01*
X16888928Y-16082500D01*
X16860357Y-16096786D01*
X16846071Y-16111071D01*
X16831786Y-16139643D01*
X17346071Y-16253929D02*
X17374643Y-16268214D01*
X17431786Y-16268214D01*
X17460357Y-16253929D01*
X17474643Y-16225357D01*
X17474643Y-16211071D01*
X17460357Y-16182500D01*
X17431786Y-16168214D01*
X17388928Y-16168214D01*
X17360357Y-16153929D01*
X17346071Y-16125357D01*
X17346071Y-16111071D01*
X17360357Y-16082500D01*
X17388928Y-16068214D01*
X17431786Y-16068214D01*
X17460357Y-16082500D01*
X17646071Y-16268214D02*
X17617500Y-16253929D01*
X17603214Y-16225357D01*
X17603214Y-15968214D01*
X17803214Y-16268214D02*
X17774643Y-16253929D01*
X17760357Y-16239643D01*
X17746071Y-16211071D01*
X17746071Y-16125357D01*
X17760357Y-16096786D01*
X17774643Y-16082500D01*
X17803214Y-16068214D01*
X17846071Y-16068214D01*
X17874643Y-16082500D01*
X17888928Y-16096786D01*
X17903214Y-16125357D01*
X17903214Y-16211071D01*
X17888928Y-16239643D01*
X17874643Y-16253929D01*
X17846071Y-16268214D01*
X17803214Y-16268214D01*
X17988928Y-16068214D02*
X18103214Y-16068214D01*
X18031786Y-15968214D02*
X18031786Y-16225357D01*
X18046071Y-16253929D01*
X18074643Y-16268214D01*
X18103214Y-16268214D01*
X18188929Y-16253929D02*
X18217500Y-16268214D01*
X18274643Y-16268214D01*
X18303214Y-16253929D01*
X18317500Y-16225357D01*
X18317500Y-16211071D01*
X18303214Y-16182500D01*
X18274643Y-16168214D01*
X18231786Y-16168214D01*
X18203214Y-16153929D01*
X18188929Y-16125357D01*
X18188929Y-16111071D01*
X18203214Y-16082500D01*
X18231786Y-16068214D01*
X18274643Y-16068214D01*
X18303214Y-16082500D01*
X18417500Y-16382500D02*
X18431786Y-16368214D01*
X18460357Y-16325357D01*
X18474643Y-16296786D01*
X18488928Y-16253929D01*
X18503214Y-16182500D01*
X18503214Y-16125357D01*
X18488928Y-16053929D01*
X18474643Y-16011071D01*
X18460357Y-15982500D01*
X18431786Y-15939643D01*
X18417500Y-15925357D01*
X9499927Y-16570927D02*
X9499927Y-16486073D01*
X9415073Y-16486073D01*
X9415073Y-16570927D01*
X9499927Y-16570927D01*
X9517500Y-16528500D02*
G75*
G03X9517500Y-16528500I-60000J0D01*
G01*
X9946071Y-16664214D02*
X9774643Y-16664214D01*
X9860357Y-16664214D02*
X9860357Y-16364214D01*
X9831786Y-16407071D01*
X9803214Y-16435643D01*
X9774643Y-16449929D01*
X10074643Y-16635643D02*
X10088929Y-16649929D01*
X10074643Y-16664214D01*
X10060357Y-16649929D01*
X10074643Y-16635643D01*
X10074643Y-16664214D01*
X10203214Y-16392786D02*
X10217500Y-16378500D01*
X10246071Y-16364214D01*
X10317500Y-16364214D01*
X10346071Y-16378500D01*
X10360357Y-16392786D01*
X10374643Y-16421357D01*
X10374643Y-16449929D01*
X10360357Y-16492786D01*
X10188928Y-16664214D01*
X10374643Y-16664214D01*
X10560357Y-16364214D02*
X10588929Y-16364214D01*
X10617500Y-16378500D01*
X10631786Y-16392786D01*
X10646071Y-16421357D01*
X10660357Y-16478500D01*
X10660357Y-16549929D01*
X10646071Y-16607071D01*
X10631786Y-16635643D01*
X10617500Y-16649929D01*
X10588929Y-16664214D01*
X10560357Y-16664214D01*
X10531786Y-16649929D01*
X10517500Y-16635643D01*
X10503214Y-16607071D01*
X10488929Y-16549929D01*
X10488929Y-16478500D01*
X10503214Y-16421357D01*
X10517500Y-16392786D01*
X10531786Y-16378500D01*
X10560357Y-16364214D01*
X10788929Y-16664214D02*
X10788929Y-16464214D01*
X10788929Y-16492786D02*
X10803214Y-16478500D01*
X10831786Y-16464214D01*
X10874643Y-16464214D01*
X10903214Y-16478500D01*
X10917500Y-16507071D01*
X10917500Y-16664214D01*
X10917500Y-16507071D02*
X10931786Y-16478500D01*
X10960357Y-16464214D01*
X11003214Y-16464214D01*
X11031786Y-16478500D01*
X11046071Y-16507071D01*
X11046071Y-16664214D01*
X11188928Y-16664214D02*
X11188928Y-16464214D01*
X11188928Y-16492786D02*
X11203214Y-16478500D01*
X11231786Y-16464214D01*
X11274643Y-16464214D01*
X11303214Y-16478500D01*
X11317500Y-16507071D01*
X11317500Y-16664214D01*
X11317500Y-16507071D02*
X11331786Y-16478500D01*
X11360357Y-16464214D01*
X11403214Y-16464214D01*
X11431786Y-16478500D01*
X11446071Y-16507071D01*
X11446071Y-16664214D01*
X12031786Y-16349929D02*
X11774643Y-16735643D01*
X12417500Y-16364214D02*
X12446071Y-16364214D01*
X12474643Y-16378500D01*
X12488928Y-16392786D01*
X12503214Y-16421357D01*
X12517500Y-16478500D01*
X12517500Y-16549929D01*
X12503214Y-16607071D01*
X12488928Y-16635643D01*
X12474643Y-16649929D01*
X12446071Y-16664214D01*
X12417500Y-16664214D01*
X12388928Y-16649929D01*
X12374643Y-16635643D01*
X12360357Y-16607071D01*
X12346071Y-16549929D01*
X12346071Y-16478500D01*
X12360357Y-16421357D01*
X12374643Y-16392786D01*
X12388928Y-16378500D01*
X12417500Y-16364214D01*
X12646071Y-16635643D02*
X12660357Y-16649929D01*
X12646071Y-16664214D01*
X12631786Y-16649929D01*
X12646071Y-16635643D01*
X12646071Y-16664214D01*
X12846071Y-16364214D02*
X12874643Y-16364214D01*
X12903214Y-16378500D01*
X12917500Y-16392786D01*
X12931785Y-16421357D01*
X12946071Y-16478500D01*
X12946071Y-16549929D01*
X12931785Y-16607071D01*
X12917500Y-16635643D01*
X12903214Y-16649929D01*
X12874643Y-16664214D01*
X12846071Y-16664214D01*
X12817500Y-16649929D01*
X12803214Y-16635643D01*
X12788928Y-16607071D01*
X12774643Y-16549929D01*
X12774643Y-16478500D01*
X12788928Y-16421357D01*
X12803214Y-16392786D01*
X12817500Y-16378500D01*
X12846071Y-16364214D01*
X13203214Y-16464214D02*
X13203214Y-16664214D01*
X13131785Y-16349929D02*
X13060357Y-16564214D01*
X13246071Y-16564214D01*
X13331785Y-16364214D02*
X13531785Y-16364214D01*
X13403214Y-16664214D01*
X13631786Y-16364214D02*
X13631786Y-16421357D01*
X13746071Y-16364214D02*
X13746071Y-16421357D01*
X14188928Y-16778500D02*
X14174643Y-16764214D01*
X14146071Y-16721357D01*
X14131785Y-16692786D01*
X14117500Y-16649929D01*
X14103214Y-16578500D01*
X14103214Y-16521357D01*
X14117500Y-16449929D01*
X14131785Y-16407071D01*
X14146071Y-16378500D01*
X14174643Y-16335643D01*
X14188928Y-16321357D01*
X14460357Y-16664214D02*
X14288928Y-16664214D01*
X14374643Y-16664214D02*
X14374643Y-16364214D01*
X14346071Y-16407071D01*
X14317500Y-16435643D01*
X14288928Y-16449929D01*
X14574643Y-16392786D02*
X14588928Y-16378500D01*
X14617500Y-16364214D01*
X14688928Y-16364214D01*
X14717500Y-16378500D01*
X14731785Y-16392786D01*
X14746071Y-16421357D01*
X14746071Y-16449929D01*
X14731785Y-16492786D01*
X14560357Y-16664214D01*
X14746071Y-16664214D01*
X15103214Y-16664214D02*
X15103214Y-16364214D01*
X15231785Y-16664214D02*
X15231785Y-16507071D01*
X15217500Y-16478500D01*
X15188928Y-16464214D01*
X15146071Y-16464214D01*
X15117500Y-16478500D01*
X15103214Y-16492786D01*
X15417500Y-16664214D02*
X15388928Y-16649929D01*
X15374643Y-16635643D01*
X15360357Y-16607071D01*
X15360357Y-16521357D01*
X15374643Y-16492786D01*
X15388928Y-16478500D01*
X15417500Y-16464214D01*
X15460357Y-16464214D01*
X15488928Y-16478500D01*
X15503214Y-16492786D01*
X15517500Y-16521357D01*
X15517500Y-16607071D01*
X15503214Y-16635643D01*
X15488928Y-16649929D01*
X15460357Y-16664214D01*
X15417500Y-16664214D01*
X15688928Y-16664214D02*
X15660357Y-16649929D01*
X15646071Y-16621357D01*
X15646071Y-16364214D01*
X15917500Y-16649929D02*
X15888928Y-16664214D01*
X15831786Y-16664214D01*
X15803214Y-16649929D01*
X15788928Y-16621357D01*
X15788928Y-16507071D01*
X15803214Y-16478500D01*
X15831786Y-16464214D01*
X15888928Y-16464214D01*
X15917500Y-16478500D01*
X15931786Y-16507071D01*
X15931786Y-16535643D01*
X15788928Y-16564214D01*
X16046071Y-16649929D02*
X16074643Y-16664214D01*
X16131786Y-16664214D01*
X16160357Y-16649929D01*
X16174643Y-16621357D01*
X16174643Y-16607071D01*
X16160357Y-16578500D01*
X16131786Y-16564214D01*
X16088928Y-16564214D01*
X16060357Y-16549929D01*
X16046071Y-16521357D01*
X16046071Y-16507071D01*
X16060357Y-16478500D01*
X16088928Y-16464214D01*
X16131786Y-16464214D01*
X16160357Y-16478500D01*
X16274643Y-16778500D02*
X16288928Y-16764214D01*
X16317500Y-16721357D01*
X16331786Y-16692786D01*
X16346071Y-16649929D01*
X16360357Y-16578500D01*
X16360357Y-16521357D01*
X16346071Y-16449929D01*
X16331786Y-16407071D01*
X16317500Y-16378500D01*
X16288928Y-16335643D01*
X16274643Y-16321357D01*
X9402438Y-17039562D02*
X9517500Y-16924500D01*
X9402438Y-16809438D01*
X9287376Y-16924500D01*
X9402438Y-17039562D01*
X9517500Y-16924500D02*
G75*
G03X9517500Y-16924500I-115062J0D01*
G01*
X9774643Y-16788786D02*
X9788929Y-16774500D01*
X9817500Y-16760214D01*
X9888929Y-16760214D01*
X9917500Y-16774500D01*
X9931786Y-16788786D01*
X9946071Y-16817357D01*
X9946071Y-16845929D01*
X9931786Y-16888786D01*
X9760357Y-17060214D01*
X9946071Y-17060214D01*
X10074643Y-17031643D02*
X10088929Y-17045929D01*
X10074643Y-17060214D01*
X10060357Y-17045929D01*
X10074643Y-17031643D01*
X10074643Y-17060214D01*
X10188928Y-16760214D02*
X10374643Y-16760214D01*
X10274643Y-16874500D01*
X10317500Y-16874500D01*
X10346071Y-16888786D01*
X10360357Y-16903072D01*
X10374643Y-16931643D01*
X10374643Y-17003072D01*
X10360357Y-17031643D01*
X10346071Y-17045929D01*
X10317500Y-17060214D01*
X10231786Y-17060214D01*
X10203214Y-17045929D01*
X10188928Y-17031643D01*
X10560357Y-16760214D02*
X10588929Y-16760214D01*
X10617500Y-16774500D01*
X10631786Y-16788786D01*
X10646071Y-16817357D01*
X10660357Y-16874500D01*
X10660357Y-16945929D01*
X10646071Y-17003072D01*
X10631786Y-17031643D01*
X10617500Y-17045929D01*
X10588929Y-17060214D01*
X10560357Y-17060214D01*
X10531786Y-17045929D01*
X10517500Y-17031643D01*
X10503214Y-17003072D01*
X10488929Y-16945929D01*
X10488929Y-16874500D01*
X10503214Y-16817357D01*
X10517500Y-16788786D01*
X10531786Y-16774500D01*
X10560357Y-16760214D01*
X10788929Y-17060214D02*
X10788929Y-16860214D01*
X10788929Y-16888786D02*
X10803214Y-16874500D01*
X10831786Y-16860214D01*
X10874643Y-16860214D01*
X10903214Y-16874500D01*
X10917500Y-16903072D01*
X10917500Y-17060214D01*
X10917500Y-16903072D02*
X10931786Y-16874500D01*
X10960357Y-16860214D01*
X11003214Y-16860214D01*
X11031786Y-16874500D01*
X11046071Y-16903072D01*
X11046071Y-17060214D01*
X11188928Y-17060214D02*
X11188928Y-16860214D01*
X11188928Y-16888786D02*
X11203214Y-16874500D01*
X11231786Y-16860214D01*
X11274643Y-16860214D01*
X11303214Y-16874500D01*
X11317500Y-16903072D01*
X11317500Y-17060214D01*
X11317500Y-16903072D02*
X11331786Y-16874500D01*
X11360357Y-16860214D01*
X11403214Y-16860214D01*
X11431786Y-16874500D01*
X11446071Y-16903072D01*
X11446071Y-17060214D01*
X12031786Y-16745929D02*
X11774643Y-17131643D01*
X12417500Y-16760214D02*
X12446071Y-16760214D01*
X12474643Y-16774500D01*
X12488928Y-16788786D01*
X12503214Y-16817357D01*
X12517500Y-16874500D01*
X12517500Y-16945929D01*
X12503214Y-17003072D01*
X12488928Y-17031643D01*
X12474643Y-17045929D01*
X12446071Y-17060214D01*
X12417500Y-17060214D01*
X12388928Y-17045929D01*
X12374643Y-17031643D01*
X12360357Y-17003072D01*
X12346071Y-16945929D01*
X12346071Y-16874500D01*
X12360357Y-16817357D01*
X12374643Y-16788786D01*
X12388928Y-16774500D01*
X12417500Y-16760214D01*
X12646071Y-17031643D02*
X12660357Y-17045929D01*
X12646071Y-17060214D01*
X12631786Y-17045929D01*
X12646071Y-17031643D01*
X12646071Y-17060214D01*
X12846071Y-16760214D02*
X12874643Y-16760214D01*
X12903214Y-16774500D01*
X12917500Y-16788786D01*
X12931785Y-16817357D01*
X12946071Y-16874500D01*
X12946071Y-16945929D01*
X12931785Y-17003072D01*
X12917500Y-17031643D01*
X12903214Y-17045929D01*
X12874643Y-17060214D01*
X12846071Y-17060214D01*
X12817500Y-17045929D01*
X12803214Y-17031643D01*
X12788928Y-17003072D01*
X12774643Y-16945929D01*
X12774643Y-16874500D01*
X12788928Y-16817357D01*
X12803214Y-16788786D01*
X12817500Y-16774500D01*
X12846071Y-16760214D01*
X13088928Y-17060214D02*
X13146071Y-17060214D01*
X13174643Y-17045929D01*
X13188928Y-17031643D01*
X13217500Y-16988786D01*
X13231785Y-16931643D01*
X13231785Y-16817357D01*
X13217500Y-16788786D01*
X13203214Y-16774500D01*
X13174643Y-16760214D01*
X13117500Y-16760214D01*
X13088928Y-16774500D01*
X13074643Y-16788786D01*
X13060357Y-16817357D01*
X13060357Y-16888786D01*
X13074643Y-16917357D01*
X13088928Y-16931643D01*
X13117500Y-16945929D01*
X13174643Y-16945929D01*
X13203214Y-16931643D01*
X13217500Y-16917357D01*
X13231785Y-16888786D01*
X13517500Y-17060214D02*
X13346071Y-17060214D01*
X13431785Y-17060214D02*
X13431785Y-16760214D01*
X13403214Y-16803072D01*
X13374643Y-16831643D01*
X13346071Y-16845929D01*
X13631786Y-16760214D02*
X13631786Y-16817357D01*
X13746071Y-16760214D02*
X13746071Y-16817357D01*
X14188928Y-17174500D02*
X14174643Y-17160214D01*
X14146071Y-17117357D01*
X14131785Y-17088786D01*
X14117500Y-17045929D01*
X14103214Y-16974500D01*
X14103214Y-16917357D01*
X14117500Y-16845929D01*
X14131785Y-16803072D01*
X14146071Y-16774500D01*
X14174643Y-16731643D01*
X14188928Y-16717357D01*
X14288928Y-16788786D02*
X14303214Y-16774500D01*
X14331785Y-16760214D01*
X14403214Y-16760214D01*
X14431785Y-16774500D01*
X14446071Y-16788786D01*
X14460357Y-16817357D01*
X14460357Y-16845929D01*
X14446071Y-16888786D01*
X14274643Y-17060214D01*
X14460357Y-17060214D01*
X14817500Y-17060214D02*
X14817500Y-16760214D01*
X14946071Y-17060214D02*
X14946071Y-16903072D01*
X14931785Y-16874500D01*
X14903214Y-16860214D01*
X14860357Y-16860214D01*
X14831785Y-16874500D01*
X14817500Y-16888786D01*
X15131785Y-17060214D02*
X15103214Y-17045929D01*
X15088928Y-17031643D01*
X15074643Y-17003072D01*
X15074643Y-16917357D01*
X15088928Y-16888786D01*
X15103214Y-16874500D01*
X15131785Y-16860214D01*
X15174643Y-16860214D01*
X15203214Y-16874500D01*
X15217500Y-16888786D01*
X15231785Y-16917357D01*
X15231785Y-17003072D01*
X15217500Y-17031643D01*
X15203214Y-17045929D01*
X15174643Y-17060214D01*
X15131785Y-17060214D01*
X15403214Y-17060214D02*
X15374643Y-17045929D01*
X15360357Y-17017357D01*
X15360357Y-16760214D01*
X15631786Y-17045929D02*
X15603214Y-17060214D01*
X15546071Y-17060214D01*
X15517500Y-17045929D01*
X15503214Y-17017357D01*
X15503214Y-16903072D01*
X15517500Y-16874500D01*
X15546071Y-16860214D01*
X15603214Y-16860214D01*
X15631786Y-16874500D01*
X15646071Y-16903072D01*
X15646071Y-16931643D01*
X15503214Y-16960214D01*
X15760357Y-17045929D02*
X15788928Y-17060214D01*
X15846071Y-17060214D01*
X15874643Y-17045929D01*
X15888928Y-17017357D01*
X15888928Y-17003072D01*
X15874643Y-16974500D01*
X15846071Y-16960214D01*
X15803214Y-16960214D01*
X15774643Y-16945929D01*
X15760357Y-16917357D01*
X15760357Y-16903072D01*
X15774643Y-16874500D01*
X15803214Y-16860214D01*
X15846071Y-16860214D01*
X15874643Y-16874500D01*
X15988928Y-17174500D02*
X16003214Y-17160214D01*
X16031786Y-17117357D01*
X16046071Y-17088786D01*
X16060357Y-17045929D01*
X16074643Y-16974500D01*
X16074643Y-16917357D01*
X16060357Y-16845929D01*
X16046071Y-16803072D01*
X16031786Y-16774500D01*
X16003214Y-16731643D01*
X15988928Y-16717357D01*
M02*
