G04 #@! TF.FileFunction,Other,User*
%FSLAX46Y46*%
G04 Gerber Fmt 4.6, Leading zero omitted, Abs format (unit mm)*
G04 Created by KiCad (PCBNEW 4.0.1-stable) date 08.07.2016 9:17:41*
%MOMM*%
G01*
G04 APERTURE LIST*
%ADD10C,0.100000*%
%ADD11C,0.050000*%
G04 APERTURE END LIST*
D10*
D11*
X187140000Y-106010000D02*
X187140000Y-112160000D01*
X187140000Y-112160000D02*
X168640000Y-112160000D01*
X168640000Y-112160000D02*
X168640000Y-89510000D01*
X168640000Y-89510000D02*
X187140000Y-89510000D01*
X187140000Y-89510000D02*
X187140000Y-106010000D01*
X145502513Y-101666727D02*
X143239771Y-99403985D01*
X146916727Y-100252513D02*
X144653985Y-97989771D01*
X145502513Y-101666727D02*
X146916727Y-100252513D01*
X143239771Y-99403985D02*
X144653985Y-97989771D01*
X165440000Y-53930000D02*
X165440000Y-57530000D01*
X163440000Y-53930000D02*
X163440000Y-57530000D01*
X165440000Y-53930000D02*
X163440000Y-53930000D01*
X165440000Y-57530000D02*
X163440000Y-57530000D01*
X142274769Y-93950000D02*
X151750000Y-103425231D01*
X151750000Y-84474769D02*
X161225231Y-93950000D01*
X142274769Y-93950000D02*
X151750000Y-84474769D01*
X151750000Y-103425231D02*
X161225231Y-93950000D01*
X148500000Y-76650000D02*
X144900000Y-76650000D01*
X148500000Y-74650000D02*
X144900000Y-74650000D01*
X148500000Y-76650000D02*
X148500000Y-74650000D01*
X144900000Y-76650000D02*
X144900000Y-74650000D01*
X146550000Y-74350000D02*
X146550000Y-70750000D01*
X146550000Y-70750000D02*
X149750000Y-70750000D01*
X149750000Y-70750000D02*
X149750000Y-74350000D01*
X149750000Y-74350000D02*
X146550000Y-74350000D01*
X145950000Y-67450000D02*
X150350000Y-67450000D01*
X145950000Y-69850000D02*
X150350000Y-69850000D01*
X145950000Y-67450000D02*
X145950000Y-69850000D01*
X150350000Y-67450000D02*
X150350000Y-69850000D01*
X155970000Y-74490000D02*
X155970000Y-70890000D01*
X155970000Y-70890000D02*
X159170000Y-70890000D01*
X159170000Y-70890000D02*
X159170000Y-74490000D01*
X159170000Y-74490000D02*
X155970000Y-74490000D01*
X161570000Y-71290000D02*
X161570000Y-74490000D01*
X159570000Y-71290000D02*
X159570000Y-74490000D01*
X161570000Y-71290000D02*
X159570000Y-71290000D01*
X161570000Y-74490000D02*
X159570000Y-74490000D01*
X153320000Y-74490000D02*
X153320000Y-70890000D01*
X155320000Y-74490000D02*
X155320000Y-70890000D01*
X153320000Y-74490000D02*
X155320000Y-74490000D01*
X153320000Y-70890000D02*
X155320000Y-70890000D01*
X155420000Y-67590000D02*
X159820000Y-67590000D01*
X155420000Y-69990000D02*
X159820000Y-69990000D01*
X155420000Y-67590000D02*
X155420000Y-69990000D01*
X159820000Y-67590000D02*
X159820000Y-69990000D01*
X148300000Y-78950000D02*
X145100000Y-78950000D01*
X148300000Y-76950000D02*
X145100000Y-76950000D01*
X148300000Y-78950000D02*
X148300000Y-76950000D01*
X145100000Y-78950000D02*
X145100000Y-76950000D01*
X128100000Y-68900000D02*
X117800000Y-68900000D01*
X128100000Y-76200000D02*
X117800000Y-76200000D01*
X128100000Y-68900000D02*
X128100000Y-76200000D01*
X117800000Y-68900000D02*
X117800000Y-76200000D01*
X117400000Y-97950000D02*
X117400000Y-104850000D01*
X126000000Y-97950000D02*
X126000000Y-104850000D01*
X117400000Y-97950000D02*
X126000000Y-97950000D01*
X117400000Y-104850000D02*
X126000000Y-104850000D01*
X96550000Y-52749020D02*
X98450000Y-52749020D01*
X98450000Y-52749020D02*
X98450000Y-56549020D01*
X98450000Y-56549020D02*
X96550000Y-56549020D01*
X96550000Y-56549020D02*
X96550000Y-52749020D01*
X130450000Y-105150000D02*
X127250000Y-105150000D01*
X130450000Y-103150000D02*
X127250000Y-103150000D01*
X130450000Y-105150000D02*
X130450000Y-103150000D01*
X127250000Y-105150000D02*
X127250000Y-103150000D01*
X115700000Y-107350000D02*
X112500000Y-107350000D01*
X115700000Y-105350000D02*
X112500000Y-105350000D01*
X115700000Y-107350000D02*
X115700000Y-105350000D01*
X112500000Y-107350000D02*
X112500000Y-105350000D01*
X123400000Y-113400000D02*
X119800000Y-113400000D01*
X123400000Y-111400000D02*
X119800000Y-111400000D01*
X123400000Y-113400000D02*
X123400000Y-111400000D01*
X119800000Y-113400000D02*
X119800000Y-111400000D01*
X111850000Y-97950000D02*
X111850000Y-101550000D01*
X109850000Y-97950000D02*
X109850000Y-101550000D01*
X111850000Y-97950000D02*
X109850000Y-97950000D01*
X111850000Y-101550000D02*
X109850000Y-101550000D01*
X132750000Y-102600000D02*
X129150000Y-102600000D01*
X132750000Y-100600000D02*
X129150000Y-100600000D01*
X132750000Y-102600000D02*
X132750000Y-100600000D01*
X129150000Y-102600000D02*
X129150000Y-100600000D01*
X113750000Y-105150000D02*
X113750000Y-101550000D01*
X115750000Y-105150000D02*
X115750000Y-101550000D01*
X113750000Y-105150000D02*
X115750000Y-105150000D01*
X113750000Y-101550000D02*
X115750000Y-101550000D01*
X111900000Y-102000000D02*
X111900000Y-105600000D01*
X109900000Y-102000000D02*
X109900000Y-105600000D01*
X111900000Y-102000000D02*
X109900000Y-102000000D01*
X111900000Y-105600000D02*
X109900000Y-105600000D01*
X106800000Y-102550000D02*
X106800000Y-97950000D01*
X109100000Y-102550000D02*
X109100000Y-97950000D01*
X106800000Y-102550000D02*
X109100000Y-102550000D01*
X106800000Y-97950000D02*
X109100000Y-97950000D01*
X161200000Y-91250000D02*
X164800000Y-91250000D01*
X161200000Y-93250000D02*
X164800000Y-93250000D01*
X161200000Y-91250000D02*
X161200000Y-93250000D01*
X164800000Y-91250000D02*
X164800000Y-93250000D01*
X158500000Y-88050000D02*
X158500000Y-84450000D01*
X160500000Y-88050000D02*
X160500000Y-84450000D01*
X158500000Y-88050000D02*
X160500000Y-88050000D01*
X158500000Y-84450000D02*
X160500000Y-84450000D01*
X157970000Y-76790000D02*
X154370000Y-76790000D01*
X157970000Y-74790000D02*
X154370000Y-74790000D01*
X157970000Y-76790000D02*
X157970000Y-74790000D01*
X154370000Y-76790000D02*
X154370000Y-74790000D01*
X144000000Y-74350000D02*
X144000000Y-70750000D01*
X146000000Y-74350000D02*
X146000000Y-70750000D01*
X144000000Y-74350000D02*
X146000000Y-74350000D01*
X144000000Y-70750000D02*
X146000000Y-70750000D01*
X148710000Y-77840000D02*
X148710000Y-74640000D01*
X150710000Y-77840000D02*
X150710000Y-74640000D01*
X148710000Y-77840000D02*
X150710000Y-77840000D01*
X148710000Y-74640000D02*
X150710000Y-74640000D01*
X161750000Y-111250000D02*
X161750000Y-100650000D01*
X161750000Y-100650000D02*
X168300000Y-100650000D01*
X168300000Y-100650000D02*
X168300000Y-111250000D01*
X168300000Y-111250000D02*
X161750000Y-111250000D01*
X165200000Y-91150000D02*
X161200000Y-91150000D01*
X165200000Y-84150000D02*
X165200000Y-91150000D01*
X161200000Y-84150000D02*
X165200000Y-84150000D01*
X161200000Y-91150000D02*
X161200000Y-84150000D01*
X150470000Y-106980000D02*
X161070000Y-106980000D01*
X161070000Y-106980000D02*
X161070000Y-113530000D01*
X161070000Y-113530000D02*
X150470000Y-113530000D01*
X150470000Y-113530000D02*
X150470000Y-106980000D01*
X157720000Y-79090000D02*
X154520000Y-79090000D01*
X157720000Y-77090000D02*
X154520000Y-77090000D01*
X157720000Y-79090000D02*
X157720000Y-77090000D01*
X154520000Y-79090000D02*
X154520000Y-77090000D01*
X140450000Y-92400000D02*
X140450000Y-89200000D01*
X142450000Y-92400000D02*
X142450000Y-89200000D01*
X140450000Y-92400000D02*
X142450000Y-92400000D01*
X140450000Y-89200000D02*
X142450000Y-89200000D01*
X141920000Y-85220000D02*
X141920000Y-88420000D01*
X139920000Y-85220000D02*
X139920000Y-88420000D01*
X141920000Y-85220000D02*
X139920000Y-85220000D01*
X141920000Y-88420000D02*
X139920000Y-88420000D01*
X135430000Y-106980000D02*
X153380000Y-106980000D01*
X153380000Y-106980000D02*
X153380000Y-113530000D01*
X153380000Y-113530000D02*
X135430000Y-113530000D01*
X135430000Y-113530000D02*
X135430000Y-106980000D01*
X120750000Y-84200000D02*
X120750000Y-81300000D01*
X122250000Y-84200000D02*
X122250000Y-81300000D01*
X120750000Y-84200000D02*
X122250000Y-84200000D01*
X120750000Y-81300000D02*
X122250000Y-81300000D01*
X110269020Y-49710000D02*
X110269020Y-51610000D01*
X110269020Y-51610000D02*
X106469020Y-51610000D01*
X106469020Y-51610000D02*
X106469020Y-49710000D01*
X106469020Y-49710000D02*
X110269020Y-49710000D01*
X122869020Y-49710000D02*
X122869020Y-51610000D01*
X122869020Y-51610000D02*
X119069020Y-51610000D01*
X119069020Y-51610000D02*
X119069020Y-49710000D01*
X119069020Y-49710000D02*
X122869020Y-49710000D01*
X135219020Y-49710000D02*
X135219020Y-51610000D01*
X135219020Y-51610000D02*
X131419020Y-51610000D01*
X131419020Y-51610000D02*
X131419020Y-49710000D01*
X131419020Y-49710000D02*
X135219020Y-49710000D01*
X147620000Y-49710000D02*
X147620000Y-51610000D01*
X147620000Y-51610000D02*
X143820000Y-51610000D01*
X143820000Y-51610000D02*
X143820000Y-49710000D01*
X143820000Y-49710000D02*
X147620000Y-49710000D01*
X120900000Y-80450000D02*
X120900000Y-76850000D01*
X122900000Y-80450000D02*
X122900000Y-76850000D01*
X120900000Y-80450000D02*
X122900000Y-80450000D01*
X120900000Y-76850000D02*
X122900000Y-76850000D01*
X103800000Y-53650000D02*
X103800000Y-57250000D01*
X101800000Y-53650000D02*
X101800000Y-57250000D01*
X103800000Y-53650000D02*
X101800000Y-53650000D01*
X103800000Y-57250000D02*
X101800000Y-57250000D01*
X116300000Y-53650000D02*
X116300000Y-57250000D01*
X114300000Y-53650000D02*
X114300000Y-57250000D01*
X116300000Y-53650000D02*
X114300000Y-53650000D01*
X116300000Y-57250000D02*
X114300000Y-57250000D01*
X141000000Y-53700000D02*
X141000000Y-57300000D01*
X139000000Y-53700000D02*
X139000000Y-57300000D01*
X141000000Y-53700000D02*
X139000000Y-53700000D01*
X141000000Y-57300000D02*
X139000000Y-57300000D01*
X128650000Y-53650000D02*
X128650000Y-57250000D01*
X126650000Y-53650000D02*
X126650000Y-57250000D01*
X128650000Y-53650000D02*
X126650000Y-53650000D01*
X128650000Y-57250000D02*
X126650000Y-57250000D01*
X177370000Y-53890000D02*
X177370000Y-57490000D01*
X175370000Y-53890000D02*
X175370000Y-57490000D01*
X177370000Y-53890000D02*
X175370000Y-53890000D01*
X177370000Y-57490000D02*
X175370000Y-57490000D01*
X130400000Y-67550000D02*
X134000000Y-67550000D01*
X130400000Y-69550000D02*
X134000000Y-69550000D01*
X130400000Y-67550000D02*
X130400000Y-69550000D01*
X134000000Y-67550000D02*
X134000000Y-69550000D01*
X130400000Y-69950000D02*
X134000000Y-69950000D01*
X130400000Y-71950000D02*
X134000000Y-71950000D01*
X130400000Y-69950000D02*
X130400000Y-71950000D01*
X134000000Y-69950000D02*
X134000000Y-71950000D01*
X128200000Y-76550000D02*
X128200000Y-72950000D01*
X130200000Y-76550000D02*
X130200000Y-72950000D01*
X128200000Y-76550000D02*
X130200000Y-76550000D01*
X128200000Y-72950000D02*
X130200000Y-72950000D01*
X98400000Y-65650000D02*
X98400000Y-68850000D01*
X96400000Y-65650000D02*
X96400000Y-68850000D01*
X98400000Y-65650000D02*
X96400000Y-65650000D01*
X98400000Y-68850000D02*
X96400000Y-68850000D01*
X131200000Y-80500000D02*
X128000000Y-80500000D01*
X131200000Y-78500000D02*
X128000000Y-78500000D01*
X131200000Y-80500000D02*
X131200000Y-78500000D01*
X128000000Y-80500000D02*
X128000000Y-78500000D01*
X128800000Y-85750000D02*
X128800000Y-82550000D01*
X130800000Y-85750000D02*
X130800000Y-82550000D01*
X128800000Y-85750000D02*
X130800000Y-85750000D01*
X128800000Y-82550000D02*
X130800000Y-82550000D01*
X98500000Y-56850000D02*
X98500000Y-60050000D01*
X96500000Y-56850000D02*
X96500000Y-60050000D01*
X98500000Y-56850000D02*
X96500000Y-56850000D01*
X98500000Y-60050000D02*
X96500000Y-60050000D01*
X132400000Y-73050000D02*
X132400000Y-76250000D01*
X130400000Y-73050000D02*
X130400000Y-76250000D01*
X132400000Y-73050000D02*
X130400000Y-73050000D01*
X132400000Y-76250000D02*
X130400000Y-76250000D01*
X124550000Y-84400000D02*
X124550000Y-81200000D01*
X126550000Y-84400000D02*
X126550000Y-81200000D01*
X124550000Y-84400000D02*
X126550000Y-84400000D01*
X124550000Y-81200000D02*
X126550000Y-81200000D01*
X113550000Y-74400000D02*
X116750000Y-74400000D01*
X113550000Y-76400000D02*
X116750000Y-76400000D01*
X113550000Y-74400000D02*
X113550000Y-76400000D01*
X116750000Y-74400000D02*
X116750000Y-76400000D01*
X117450000Y-71010000D02*
X114250000Y-71010000D01*
X117450000Y-69010000D02*
X114250000Y-69010000D01*
X117450000Y-71010000D02*
X117450000Y-69010000D01*
X114250000Y-71010000D02*
X114250000Y-69010000D01*
X120000000Y-108400000D02*
X123200000Y-108400000D01*
X120000000Y-110400000D02*
X123200000Y-110400000D01*
X120000000Y-108400000D02*
X120000000Y-110400000D01*
X123200000Y-108400000D02*
X123200000Y-110400000D01*
X123200000Y-107550000D02*
X120000000Y-107550000D01*
X123200000Y-105550000D02*
X120000000Y-105550000D01*
X123200000Y-107550000D02*
X123200000Y-105550000D01*
X120000000Y-107550000D02*
X120000000Y-105550000D01*
X105750000Y-97850000D02*
X102550000Y-97850000D01*
X105750000Y-95850000D02*
X102550000Y-95850000D01*
X105750000Y-97850000D02*
X105750000Y-95850000D01*
X102550000Y-97850000D02*
X102550000Y-95850000D01*
X124400000Y-81200000D02*
X124400000Y-84400000D01*
X122400000Y-81200000D02*
X122400000Y-84400000D01*
X124400000Y-81200000D02*
X122400000Y-81200000D01*
X124400000Y-84400000D02*
X122400000Y-84400000D01*
X113500000Y-72000000D02*
X116700000Y-72000000D01*
X113500000Y-74000000D02*
X116700000Y-74000000D01*
X113500000Y-72000000D02*
X113500000Y-74000000D01*
X116700000Y-72000000D02*
X116700000Y-74000000D01*
X155970000Y-63540000D02*
X159270000Y-63540000D01*
X159270000Y-63540000D02*
X159270000Y-66740000D01*
X159270000Y-66740000D02*
X155970000Y-66740000D01*
X155970000Y-66740000D02*
X155970000Y-63540000D01*
X146490000Y-60208220D02*
X149790000Y-60208220D01*
X149790000Y-60208220D02*
X149790000Y-63408220D01*
X149790000Y-63408220D02*
X146490000Y-63408220D01*
X146490000Y-63408220D02*
X146490000Y-60208220D01*
X143840000Y-89250000D02*
X143840000Y-86050000D01*
X145840000Y-89250000D02*
X145840000Y-86050000D01*
X143840000Y-89250000D02*
X145840000Y-89250000D01*
X143840000Y-86050000D02*
X145840000Y-86050000D01*
X143630000Y-88020700D02*
X142130000Y-88020700D01*
X142130000Y-88020700D02*
X142130000Y-85220700D01*
X142130000Y-85220700D02*
X143630000Y-85220700D01*
X143630000Y-85220700D02*
X143630000Y-88020700D01*
X176650000Y-88680000D02*
X181500000Y-88680000D01*
X181500000Y-88680000D02*
X181500000Y-81530000D01*
X181500000Y-81530000D02*
X176650000Y-81530000D01*
X176650000Y-81530000D02*
X176650000Y-88680000D01*
X181760000Y-83400000D02*
X181760000Y-88200000D01*
X181760000Y-88200000D02*
X185060000Y-88200000D01*
X185060000Y-88200000D02*
X185060000Y-83400000D01*
X185060000Y-83400000D02*
X181760000Y-83400000D01*
M02*
